%TF.GenerationSoftware,KiCad,Pcbnew,10.0.3*%
%TF.CreationDate,2026-06-10T14:53:33+02:00*%
%TF.ProjectId,ZumoComSystem,5a756d6f-436f-46d5-9379-7374656d2e6b,V3.1*%
%TF.SameCoordinates,Original*%
%TF.FileFunction,Paste,Top*%
%TF.FilePolarity,Positive*%
%FSLAX45Y45*%
G04 Gerber Fmt 4.5, Leading zero omitted, Abs format (unit mm)*
G04 Created by KiCad (PCBNEW 10.0.3) date 2026-06-10 14:53:33*
%MOMM*%
%LPD*%
G01*
G04 APERTURE LIST*
G04 Aperture macros list*
%AMRoundRect*
0 Rectangle with rounded corners*
0 $1 Rounding radius*
0 $2 $3 $4 $5 $6 $7 $8 $9 X,Y pos of 4 corners*
0 Add a 4 corners polygon primitive as box body*
4,1,4,$2,$3,$4,$5,$6,$7,$8,$9,$2,$3,0*
0 Add four circle primitives for the rounded corners*
1,1,$1+$1,$2,$3*
1,1,$1+$1,$4,$5*
1,1,$1+$1,$6,$7*
1,1,$1+$1,$8,$9*
0 Add four rect primitives between the rounded corners*
20,1,$1+$1,$2,$3,$4,$5,0*
20,1,$1+$1,$4,$5,$6,$7,0*
20,1,$1+$1,$6,$7,$8,$9,0*
20,1,$1+$1,$8,$9,$2,$3,0*%
G04 Aperture macros list end*
%ADD10R,0.900000X1.600000*%
%ADD11R,1.400000X0.900000*%
%ADD12R,1.600000X0.800000*%
%ADD13RoundRect,0.231132X0.618868X-0.381368X0.618868X0.381368X-0.618868X0.381368X-0.618868X-0.381368X0*%
%ADD14RoundRect,0.231132X0.381368X0.618868X-0.381368X0.618868X-0.381368X-0.618868X0.381368X-0.618868X0*%
%ADD15RoundRect,0.212500X0.212500X-0.225000X0.212500X0.225000X-0.212500X0.225000X-0.212500X-0.225000X0*%
%ADD16RoundRect,0.212500X0.262500X0.212500X-0.262500X0.212500X-0.262500X-0.212500X0.262500X-0.212500X0*%
%ADD17R,0.900000X1.800000*%
%ADD18RoundRect,0.212500X-0.262500X-0.212500X0.262500X-0.212500X0.262500X0.212500X-0.262500X0.212500X0*%
%ADD19RoundRect,0.228261X0.296739X0.421739X-0.296739X0.421739X-0.296739X-0.421739X0.296739X-0.421739X0*%
%ADD20R,1.400000X0.800000*%
%ADD21R,0.800000X1.400000*%
%ADD22R,0.800000X1.600000*%
%ADD23RoundRect,0.212500X-0.212500X0.225000X-0.212500X-0.225000X0.212500X-0.225000X0.212500X0.225000X0*%
%ADD24RoundRect,0.225000X-0.225000X-0.225000X0.225000X-0.225000X0.225000X0.225000X-0.225000X0.225000X0*%
%ADD25R,0.600000X1.000000*%
%ADD26R,0.900000X0.700000*%
%ADD27RoundRect,0.225000X0.225000X0.225000X-0.225000X0.225000X-0.225000X-0.225000X0.225000X-0.225000X0*%
%ADD28R,0.900000X2.900000*%
%ADD29R,0.198000X0.770000*%
G04 APERTURE END LIST*
D10*
%TO.C,SW3*%
X11725000Y-14302500D03*
X11725000Y-13672500D03*
X12105000Y-14302500D03*
X12105000Y-13672500D03*
%TD*%
D11*
%TO.C,D1*%
X12592500Y-13680000D03*
X12592500Y-13820000D03*
X12942500Y-13820000D03*
X12942500Y-13680000D03*
%TD*%
D12*
%TO.C,SW5*%
X17010000Y-14310000D03*
X17010000Y-13970000D03*
%TD*%
D13*
%TO.C,C15*%
X14923000Y-9665250D03*
X14923000Y-9352750D03*
%TD*%
D14*
%TO.C,C12*%
X13979250Y-9419000D03*
X13666750Y-9419000D03*
%TD*%
D15*
%TO.C,R1*%
X15800000Y-13471250D03*
X15800000Y-13288750D03*
%TD*%
D12*
%TO.C,SW4*%
X16310000Y-14310000D03*
X16310000Y-13970000D03*
%TD*%
%TO.C,SW7*%
X15714058Y-10970000D03*
X15714058Y-10630000D03*
%TD*%
%TO.C,SW2*%
X13690000Y-11360000D03*
X13690000Y-11020000D03*
%TD*%
D16*
%TO.C,D4*%
X17797500Y-13770000D03*
X17622500Y-13770000D03*
%TD*%
D17*
%TO.C,J6*%
X13938000Y-6135000D03*
X14192000Y-6465000D03*
X14446000Y-6135000D03*
X14700000Y-6465000D03*
X14954000Y-6135000D03*
X15208000Y-6465000D03*
X15462000Y-6135000D03*
%TD*%
D18*
%TO.C,D14*%
X14335500Y-9419000D03*
X14510500Y-9419000D03*
%TD*%
D19*
%TO.C,D6*%
X14622500Y-9010000D03*
X14417500Y-9010000D03*
%TD*%
D16*
%TO.C,D2*%
X16397500Y-13770000D03*
X16222500Y-13770000D03*
%TD*%
D20*
%TO.C,U1*%
X15575000Y-13685000D03*
X15575000Y-13558000D03*
X15575000Y-13431000D03*
X15575000Y-13304000D03*
X15575000Y-13177000D03*
X15575000Y-13050000D03*
X15575000Y-12923000D03*
X15575000Y-12796000D03*
X15575000Y-12669000D03*
X15575000Y-12542000D03*
X15575000Y-12415000D03*
X15575000Y-12288000D03*
X15575000Y-12161000D03*
X15575000Y-12034000D03*
D21*
X15398500Y-11909000D03*
X15271500Y-11909000D03*
X15144500Y-11909000D03*
X15017500Y-11909000D03*
X14890500Y-11909000D03*
X14763500Y-11909000D03*
X14636500Y-11909000D03*
X14509500Y-11909000D03*
X14382500Y-11909000D03*
X14255500Y-11909000D03*
X14128500Y-11909000D03*
X14001500Y-11909000D03*
D20*
X13825000Y-12034000D03*
X13825000Y-12161000D03*
X13825000Y-12288000D03*
X13825000Y-12415000D03*
X13825000Y-12542000D03*
X13825000Y-12669000D03*
X13825000Y-12796000D03*
X13825000Y-12923000D03*
X13825000Y-13050000D03*
X13825000Y-13177000D03*
X13825000Y-13304000D03*
X13825000Y-13431000D03*
X13825000Y-13558000D03*
X13825000Y-13685000D03*
%TD*%
D22*
%TO.C,SW9*%
X15493000Y-9439000D03*
X15153000Y-9439000D03*
%TD*%
D16*
%TO.C,D3*%
X17097500Y-13770000D03*
X16922500Y-13770000D03*
%TD*%
D15*
%TO.C,R22*%
X14703000Y-9520250D03*
X14703000Y-9337750D03*
%TD*%
D23*
%TO.C,R15*%
X15286000Y-10983750D03*
X15286000Y-11166250D03*
%TD*%
%TO.C,R14*%
X15131000Y-10983750D03*
X15131000Y-11166250D03*
%TD*%
D12*
%TO.C,SW6*%
X17710000Y-14310000D03*
X17710000Y-13970000D03*
%TD*%
D24*
%TO.C,D8*%
X15299000Y-10459250D03*
X15549000Y-10459250D03*
%TD*%
D25*
%TO.C,SW8*%
X12542500Y-14035000D03*
X12842500Y-14035000D03*
X12992500Y-14035000D03*
D26*
X12392500Y-14125000D03*
X13142500Y-14125000D03*
X12392500Y-14355000D03*
X13142500Y-14355000D03*
%TD*%
D27*
%TO.C,D7*%
X15119000Y-10459250D03*
X14869000Y-10459250D03*
%TD*%
D28*
%TO.C,J3*%
X14192000Y-7048000D03*
X14192000Y-7552000D03*
X14446000Y-7048000D03*
X14446000Y-7552000D03*
X14700000Y-7048000D03*
X14700000Y-7552000D03*
X14954000Y-7048000D03*
X14954000Y-7552000D03*
X15208000Y-7048000D03*
X15208000Y-7552000D03*
%TD*%
D22*
%TO.C,SW1*%
X15830000Y-11250000D03*
X15490000Y-11250000D03*
%TD*%
D29*
%TO.C,J1*%
X15500000Y-10147500D03*
X15350000Y-10147500D03*
X15300000Y-10147500D03*
X15250000Y-10147500D03*
X15200000Y-10147500D03*
X15150000Y-10147500D03*
X15100000Y-10147500D03*
X14950000Y-10147500D03*
X14950000Y-9974500D03*
X15100000Y-9974500D03*
X15150000Y-9974500D03*
X15200000Y-9974500D03*
X15250000Y-9974500D03*
X15300000Y-9974500D03*
X15350000Y-9974500D03*
X15500000Y-9974500D03*
%TD*%
M02*
