%TF.GenerationSoftware,KiCad,Pcbnew,9.0.5*%
%TF.CreationDate,2026-03-06T09:08:58+01:00*%
%TF.ProjectId,ZumoComSystem,5a756d6f-436f-46d5-9379-7374656d2e6b,V3.0*%
%TF.SameCoordinates,Original*%
%TF.FileFunction,Plated,1,4,PTH,Mixed*%
%TF.FilePolarity,Positive*%
%FSLAX46Y46*%
G04 Gerber Fmt 4.6, Leading zero omitted, Abs format (unit mm)*
G04 Created by KiCad (PCBNEW 9.0.5) date 2026-03-06 09:08:58*
%MOMM*%
%LPD*%
G01*
G04 APERTURE LIST*
%TA.AperFunction,ViaDrill*%
%ADD10C,0.300000*%
%TD*%
G04 aperture for slot hole*
%TA.AperFunction,ComponentDrill*%
%ADD11C,0.600000*%
%TD*%
%TA.AperFunction,ComponentDrill*%
%ADD12C,1.000000*%
%TD*%
G04 aperture for slot hole*
%TA.AperFunction,ComponentDrill*%
%ADD13C,1.000000*%
%TD*%
%TA.AperFunction,ComponentDrill*%
%ADD14C,1.320000*%
%TD*%
%TA.AperFunction,ComponentDrill*%
%ADD15C,2.000000*%
%TD*%
%TA.AperFunction,ComponentDrill*%
%ADD16C,3.000000*%
%TD*%
G04 APERTURE END LIST*
D10*
X114900000Y-58900000D03*
X114900000Y-62950000D03*
X114900000Y-67000000D03*
X114900000Y-71200000D03*
X114900000Y-74457142D03*
X114900000Y-77714284D03*
X114900000Y-80971426D03*
X114900000Y-84228568D03*
X114900000Y-87485710D03*
X114900000Y-90742852D03*
X114900000Y-93999994D03*
X114900000Y-97257136D03*
X114900000Y-100514278D03*
X114900000Y-103771420D03*
X114900000Y-107028562D03*
X114900000Y-110285704D03*
X114900000Y-113542846D03*
X114900000Y-116800000D03*
X114900000Y-120000000D03*
X114900000Y-123257154D03*
X114900000Y-126500000D03*
X114900000Y-129920000D03*
X114900000Y-133340000D03*
X114900000Y-136760000D03*
X114900000Y-140180000D03*
X114900000Y-143600000D03*
X117200000Y-139800000D03*
X117850000Y-127000000D03*
X117850000Y-131200000D03*
X117850000Y-135000000D03*
X118400000Y-139250000D03*
X118500000Y-83500000D03*
X118500000Y-88100000D03*
X118500000Y-94200000D03*
X118500000Y-99700000D03*
X118900000Y-58900000D03*
X119125000Y-121700000D03*
X119150000Y-80750000D03*
X119300000Y-143600000D03*
X119750000Y-134250000D03*
X119800000Y-129900000D03*
X119950000Y-138130000D03*
X120200000Y-116400000D03*
X120200000Y-118500000D03*
X120300000Y-63200000D03*
X120300000Y-64400000D03*
X120770000Y-125890000D03*
X120830000Y-127250000D03*
X121000000Y-117500000D03*
X121200000Y-120425000D03*
X121400000Y-63800000D03*
X121680000Y-139875500D03*
X121800000Y-116400000D03*
X121800000Y-118500000D03*
X122093111Y-121700000D03*
X122400000Y-122900000D03*
X122400000Y-124500000D03*
X122500000Y-63200000D03*
X122500000Y-64400000D03*
X122502500Y-139277500D03*
X122600000Y-143600000D03*
X122620000Y-141515500D03*
X122800000Y-135800000D03*
X122900000Y-58900000D03*
X123700000Y-101150000D03*
X123700000Y-138600000D03*
X123800000Y-69400000D03*
X123800000Y-71900000D03*
X124040000Y-139875500D03*
X124100000Y-94200000D03*
X124250000Y-87700000D03*
X124400000Y-124900000D03*
X124470000Y-136800000D03*
X124550000Y-101150000D03*
X124950000Y-141400000D03*
X125118125Y-73498125D03*
X125400000Y-143600000D03*
X126400000Y-122900000D03*
X126400000Y-124500000D03*
X126500000Y-58900000D03*
X126650000Y-103950000D03*
X126900000Y-140400000D03*
X126916179Y-120333089D03*
X127130000Y-121710000D03*
X127200000Y-135800000D03*
X127800000Y-143600000D03*
X127800001Y-122550005D03*
X127800001Y-130200003D03*
X127900000Y-138600000D03*
X128000000Y-132000000D03*
X128564997Y-132705003D03*
X128590000Y-126440000D03*
X128590000Y-128190000D03*
X128600000Y-129900000D03*
X128610000Y-122700000D03*
X128610000Y-124680000D03*
X128650000Y-133510000D03*
X128699990Y-121654675D03*
X128820000Y-58900000D03*
X128844000Y-110306000D03*
X128850000Y-112860000D03*
X128860000Y-107770000D03*
X129340000Y-133930000D03*
X129470000Y-119390000D03*
X129680000Y-135730000D03*
X129790000Y-130900000D03*
X130032500Y-69360000D03*
X130100000Y-141600000D03*
X130100000Y-143600000D03*
X130500000Y-121800000D03*
X130599997Y-133989961D03*
X130860000Y-126480000D03*
X130900000Y-140200000D03*
X131140000Y-58900000D03*
X131300000Y-71400000D03*
X131335971Y-133615185D03*
X131430000Y-142400000D03*
X131500000Y-135830000D03*
X131540000Y-92560000D03*
X131640000Y-134420000D03*
X131860000Y-132970000D03*
X132060000Y-117210000D03*
X132400000Y-138400000D03*
X132400000Y-141260000D03*
X132400000Y-143600000D03*
X132580000Y-66160000D03*
X132800000Y-128100000D03*
X132800000Y-129700000D03*
X133460000Y-58900000D03*
X133820000Y-79790000D03*
X133900500Y-131600000D03*
X134000000Y-134414001D03*
X134500000Y-132300000D03*
X134592500Y-69360000D03*
X134697500Y-97690000D03*
X134697500Y-99290000D03*
X134700000Y-108300000D03*
X134700000Y-113100000D03*
X134750000Y-120335001D03*
X134860000Y-122990000D03*
X135100000Y-137900000D03*
X135300000Y-118900000D03*
X135300000Y-130800000D03*
X135340000Y-126760000D03*
X135350000Y-135890000D03*
X135530000Y-94090000D03*
X135780000Y-58900000D03*
X136030000Y-89840000D03*
X136050000Y-100720000D03*
X136320000Y-68410000D03*
X136697500Y-97690000D03*
X136697500Y-99290000D03*
X136900000Y-133000000D03*
X137600000Y-71400000D03*
X137660000Y-92870000D03*
X137680000Y-137900000D03*
X137900000Y-116900000D03*
X137970000Y-87850000D03*
X138100000Y-58900000D03*
X139380000Y-63600000D03*
X139600000Y-125400000D03*
X139690000Y-96450500D03*
X139708058Y-123391942D03*
X139960000Y-134414001D03*
X140250000Y-121200000D03*
X140260000Y-137900000D03*
X140600000Y-58900000D03*
X140620000Y-70480000D03*
X141069548Y-135890000D03*
X141120000Y-98040000D03*
X141280000Y-120510000D03*
X141480000Y-96500000D03*
X141520000Y-94515000D03*
X141920000Y-66430000D03*
X142050000Y-127030000D03*
X142080000Y-117130000D03*
X142220000Y-134414001D03*
X142790000Y-121940000D03*
X142840000Y-137900000D03*
X142880000Y-96020000D03*
X143060001Y-135040000D03*
X143190000Y-70480000D03*
X143200000Y-58900000D03*
X143590003Y-121940000D03*
X144230000Y-95490000D03*
X144460000Y-63600000D03*
X145000000Y-124150000D03*
X145090000Y-117600000D03*
X145100001Y-133000001D03*
X145420000Y-137900000D03*
X145610000Y-96110000D03*
X145700000Y-58900000D03*
X145830000Y-92590000D03*
X146070000Y-116060000D03*
X146470024Y-117123860D03*
X147000000Y-66440000D03*
X147000000Y-120940000D03*
X147229442Y-98654442D03*
X147700000Y-105700000D03*
X147820000Y-90100000D03*
X148000000Y-137900000D03*
X148050000Y-133650000D03*
X148270000Y-120940000D03*
X148300000Y-58900000D03*
X148530000Y-95190000D03*
X149330000Y-122230000D03*
X149540000Y-63620000D03*
X149985000Y-133785000D03*
X150100000Y-92100000D03*
X150184273Y-120958911D03*
X150280500Y-100600000D03*
X150450000Y-67380000D03*
X150580000Y-137900000D03*
X150590000Y-77540000D03*
X150800000Y-58900000D03*
X151460000Y-120960000D03*
X151470000Y-98020000D03*
X151633735Y-102519265D03*
X152009401Y-98620000D03*
X152090000Y-66440000D03*
X152483000Y-102520000D03*
X152620000Y-94380000D03*
X152883000Y-98670000D03*
X152950000Y-130000000D03*
X153020000Y-125420000D03*
X153160000Y-137900000D03*
X153250000Y-103150000D03*
X153400000Y-58900000D03*
X153450000Y-121170000D03*
X154120000Y-130227350D03*
X154170000Y-133970000D03*
X154183000Y-100580000D03*
X154230000Y-135570000D03*
X154630000Y-63600000D03*
X155740000Y-137880000D03*
X155850000Y-112200000D03*
X155900000Y-72450000D03*
X155900000Y-73500000D03*
X155900000Y-80830000D03*
X155900000Y-81880000D03*
X156000000Y-58900000D03*
X156280000Y-89240000D03*
X156620000Y-84550000D03*
X156700000Y-104600000D03*
X156830000Y-72060000D03*
X157040000Y-118310000D03*
X157560000Y-65680000D03*
X157730000Y-129670000D03*
X158090000Y-124860000D03*
X158290000Y-127460000D03*
X158320000Y-58900000D03*
X158320000Y-137950000D03*
X158720000Y-115710000D03*
X158965000Y-84985000D03*
X160640000Y-58900000D03*
X160900000Y-137900000D03*
X161040000Y-133620000D03*
X161400000Y-122960000D03*
X161700000Y-140400000D03*
X161700000Y-143600000D03*
X162960000Y-58900000D03*
X162987498Y-138500000D03*
X163000000Y-127300000D03*
X163070000Y-121990000D03*
X163100000Y-141020000D03*
X163700000Y-74500000D03*
X164300000Y-67300000D03*
X164300000Y-124000000D03*
X164710000Y-92520000D03*
X164710000Y-109860600D03*
X165280000Y-58900000D03*
X165871315Y-137471315D03*
X165960000Y-134670000D03*
X166270000Y-80980000D03*
X166470000Y-125460000D03*
X166600000Y-70972500D03*
X166600000Y-143600000D03*
X166700000Y-131140000D03*
X167350000Y-119200000D03*
X167350000Y-121900000D03*
X167600000Y-58900000D03*
X167600000Y-70972500D03*
X167600000Y-73522500D03*
X168550000Y-70980000D03*
X168710000Y-136510000D03*
X169300000Y-125700000D03*
X169840000Y-115522500D03*
X169850000Y-92510000D03*
X169900000Y-100460000D03*
X169987498Y-138500000D03*
X170050000Y-67222500D03*
X170100000Y-141020000D03*
X170370000Y-76440000D03*
X171100000Y-135500000D03*
X171200000Y-58900000D03*
X171960000Y-122940000D03*
X172160000Y-128540000D03*
X172240000Y-131310000D03*
X172282336Y-137464144D03*
X172400000Y-77400000D03*
X173300000Y-77700000D03*
X173600000Y-143600000D03*
X174100000Y-77400000D03*
X174850000Y-137740000D03*
X174950000Y-127480000D03*
X175150000Y-58947500D03*
X176500000Y-76900000D03*
X177043750Y-138443750D03*
X177100000Y-141020000D03*
X177200000Y-72100000D03*
X178430000Y-136080000D03*
X179000000Y-126421040D03*
X179100000Y-58900000D03*
X179100000Y-62000000D03*
X179100000Y-66294736D03*
X179100000Y-70589472D03*
X179100000Y-74884208D03*
X179100000Y-79178944D03*
X179100000Y-83473680D03*
X179100000Y-87800000D03*
X179100000Y-92063152D03*
X179100000Y-96357888D03*
X179100000Y-100652624D03*
X179100000Y-104947360D03*
X179100000Y-109242096D03*
X179100000Y-113536832D03*
X179100000Y-117831568D03*
X179100000Y-122126304D03*
X179100000Y-135010512D03*
X179100000Y-139305248D03*
X179100000Y-143600000D03*
X179110000Y-130715776D03*
D11*
%TO.C,J1*%
X149725000Y-98460000D02*
X149975000Y-98460000D01*
X149725000Y-102760000D02*
X149975000Y-102760000D01*
X154525000Y-98460000D02*
X154775000Y-98460000D01*
X154525000Y-102760000D02*
X154775000Y-102760000D01*
D12*
%TO.C,TP5*%
X136900000Y-110625000D03*
X136900000Y-113165000D03*
D13*
%TO.C,J7*%
X140030000Y-105790000D02*
X138230000Y-105790000D01*
X143730000Y-103290000D02*
X141930000Y-103290000D01*
X144930000Y-99740000D02*
X144930000Y-98240000D01*
D12*
%TO.C,TP6*%
X150815000Y-107322500D03*
X153355000Y-107322500D03*
D14*
%TO.C,BT1*%
X124400000Y-60490000D03*
X124400000Y-132710000D03*
%TO.C,BT2*%
X169600000Y-60480000D03*
X169600000Y-132700000D03*
D15*
%TO.C,J7*%
X140330000Y-100490000D03*
D16*
%TO.C,U1*%
X148500000Y-129130000D03*
M02*
