%TF.GenerationSoftware,KiCad,Pcbnew,9.0.5*%
%TF.CreationDate,2026-03-19T11:59:45+01:00*%
%TF.ProjectId,ZumoComSystem,5a756d6f-436f-46d5-9379-7374656d2e6b,V3.0*%
%TF.SameCoordinates,Original*%
%TF.FileFunction,OtherDrawing,Comment*%
%FSLAX45Y45*%
G04 Gerber Fmt 4.5, Leading zero omitted, Abs format (unit mm)*
G04 Created by KiCad (PCBNEW 9.0.5) date 2026-03-19 11:59:45*
%MOMM*%
%LPD*%
G01*
G04 APERTURE LIST*
%ADD10C,0.050000*%
%ADD11C,0.100000*%
%ADD12C,0.150000*%
%ADD13C,0.120000*%
G04 APERTURE END LIST*
D10*
X14700000Y-14450000D02*
X14700000Y-14395000D01*
X14700000Y-14375000D02*
X14700000Y-14320000D01*
X14700000Y-14300000D02*
X14700000Y-14245000D01*
X14700000Y-14225000D02*
X14700000Y-14170000D01*
X14700000Y-14150000D02*
X14700000Y-14095000D01*
X14700000Y-14075000D02*
X14700000Y-14020000D01*
X14700000Y-14000000D02*
X14700000Y-13945000D01*
X14700000Y-13925000D02*
X14700000Y-13870000D01*
X14700000Y-13850000D02*
X14700000Y-13795000D01*
X14700000Y-13775000D02*
X14700000Y-13720000D01*
X14700000Y-13700000D02*
X14700000Y-13645000D01*
X14700000Y-13625000D02*
X14700000Y-13570000D01*
X14700000Y-13550000D02*
X14700000Y-13495000D01*
X14700000Y-13475000D02*
X14700000Y-13420000D01*
X14700000Y-13400000D02*
X14700000Y-13345000D01*
X14700000Y-13325000D02*
X14700000Y-13270000D01*
X14700000Y-13250000D02*
X14700000Y-13195000D01*
X14700000Y-13175000D02*
X14700000Y-13120000D01*
X14700000Y-13100000D02*
X14700000Y-13045000D01*
X14700000Y-13025000D02*
X14700000Y-12970000D01*
X14700000Y-12950000D02*
X14700000Y-12895000D01*
X14700000Y-12875000D02*
X14700000Y-12820000D01*
X14700000Y-12800000D02*
X14700000Y-12745000D01*
X14700000Y-12725000D02*
X14700000Y-12670000D01*
X14700000Y-12650000D02*
X14700000Y-12595000D01*
X14700000Y-12575000D02*
X14700000Y-12520000D01*
X14700000Y-12500000D02*
X14700000Y-12445000D01*
X14700000Y-12425000D02*
X14700000Y-12370000D01*
X14700000Y-12350000D02*
X14700000Y-12295000D01*
X14700000Y-12275000D02*
X14700000Y-12220000D01*
X14700000Y-12200000D02*
X14700000Y-12145000D01*
X14700000Y-12125000D02*
X14700000Y-12070000D01*
X14700000Y-12050000D02*
X14700000Y-11995000D01*
X14700000Y-11975000D02*
X14700000Y-11920000D01*
X14700000Y-11900000D02*
X14700000Y-11845000D01*
X14700000Y-11825000D02*
X14700000Y-11770000D01*
X14700000Y-11750000D02*
X14700000Y-11695000D01*
X14700000Y-11675000D02*
X14700000Y-11620000D01*
X14700000Y-11600000D02*
X14700000Y-11545000D01*
X14700000Y-11525000D02*
X14700000Y-11470000D01*
X14700000Y-11450000D02*
X14700000Y-11395000D01*
X14700000Y-11375000D02*
X14700000Y-11320000D01*
X14700000Y-11300000D02*
X14700000Y-11245000D01*
X14700000Y-11225000D02*
X14700000Y-11170000D01*
X14700000Y-11150000D02*
X14700000Y-11095000D01*
X14700000Y-11075000D02*
X14700000Y-11020000D01*
X14700000Y-11000000D02*
X14700000Y-10945000D01*
X14700000Y-10925000D02*
X14700000Y-10870000D01*
X14700000Y-10850000D02*
X14700000Y-10795000D01*
X14700000Y-10775000D02*
X14700000Y-10720000D01*
X14700000Y-10700000D02*
X14700000Y-10645000D01*
X14700000Y-10625000D02*
X14700000Y-10570000D01*
X14700000Y-10550000D02*
X14700000Y-10495000D01*
X14700000Y-10475000D02*
X14700000Y-10420000D01*
X14700000Y-10400000D02*
X14700000Y-10345000D01*
X14700000Y-10325000D02*
X14700000Y-10270000D01*
X14700000Y-10250000D02*
X14700000Y-10195000D01*
X14700000Y-10175000D02*
X14700000Y-10120000D01*
X14700000Y-10100000D02*
X14700000Y-10045000D01*
X14700000Y-10025000D02*
X14700000Y-9970000D01*
X14700000Y-9950000D02*
X14700000Y-9895000D01*
X14700000Y-9875000D02*
X14700000Y-9820000D01*
X14700000Y-9800000D02*
X14700000Y-9745000D01*
X14700000Y-9725000D02*
X14700000Y-9670000D01*
X14700000Y-9650000D02*
X14700000Y-9595000D01*
X14700000Y-9575000D02*
X14700000Y-9520000D01*
X14700000Y-9500000D02*
X14700000Y-9445000D01*
X14700000Y-9425000D02*
X14700000Y-9370000D01*
X14700000Y-9350000D02*
X14700000Y-9295000D01*
X14700000Y-9275000D02*
X14700000Y-9220000D01*
X14700000Y-9200000D02*
X14700000Y-9145000D01*
X14700000Y-9125000D02*
X14700000Y-9070000D01*
X14700000Y-9050000D02*
X14700000Y-8995000D01*
X14700000Y-8975000D02*
X14700000Y-8920000D01*
X14700000Y-8900000D02*
X14700000Y-8845000D01*
X14700000Y-8825000D02*
X14700000Y-8770000D01*
X14700000Y-8750000D02*
X14700000Y-8695000D01*
X14700000Y-8675000D02*
X14700000Y-8620000D01*
X14700000Y-8600000D02*
X14700000Y-8545000D01*
X14700000Y-8525000D02*
X14700000Y-8470000D01*
X14700000Y-8450000D02*
X14700000Y-8395000D01*
X14700000Y-8375000D02*
X14700000Y-8320000D01*
X14700000Y-8300000D02*
X14700000Y-8245000D01*
X14700000Y-8225000D02*
X14700000Y-8170000D01*
X14700000Y-8150000D02*
X14700000Y-8095000D01*
X14700000Y-8075000D02*
X14700000Y-8020000D01*
X14700000Y-8000000D02*
X14700000Y-7945000D01*
X14700000Y-7925000D02*
X14700000Y-7870000D01*
X14700000Y-7850000D02*
X14700000Y-7795000D01*
X14700000Y-7775000D02*
X14700000Y-7720000D01*
X14700000Y-7700000D02*
X14700000Y-7645000D01*
X14700000Y-7625000D02*
X14700000Y-7570000D01*
X14700000Y-7550000D02*
X14700000Y-7495000D01*
X14700000Y-7475000D02*
X14700000Y-7420000D01*
X14700000Y-7400000D02*
X14700000Y-7345000D01*
X14700000Y-7325000D02*
X14700000Y-7270000D01*
X14700000Y-7250000D02*
X14700000Y-7195000D01*
X14700000Y-7175000D02*
X14700000Y-7120000D01*
X14700000Y-7100000D02*
X14700000Y-7045000D01*
X14700000Y-7025000D02*
X14700000Y-6970000D01*
X14700000Y-6950000D02*
X14700000Y-6895000D01*
X14700000Y-6875000D02*
X14700000Y-6820000D01*
X14700000Y-6800000D02*
X14700000Y-6745000D01*
X14700000Y-6725000D02*
X14700000Y-6670000D01*
X14700000Y-6650000D02*
X14700000Y-6595000D01*
X14700000Y-6575000D02*
X14700000Y-6520000D01*
X14700000Y-6500000D02*
X14700000Y-6445000D01*
X14700000Y-6425000D02*
X14700000Y-6370000D01*
X14700000Y-6350000D02*
X14700000Y-6295000D01*
X14700000Y-6275000D02*
X14700000Y-6220000D01*
X14700000Y-6200000D02*
X14700000Y-6145000D01*
X14700000Y-6125000D02*
X14700000Y-6070000D01*
X14700000Y-6050000D02*
X14700000Y-5995000D01*
X14700000Y-5975000D02*
X14700000Y-5920000D01*
X14700000Y-5900000D02*
X14700000Y-5845000D01*
X14700000Y-5825000D02*
X14700000Y-5800000D01*
X16986000Y-14450900D02*
X16986000Y-14395900D01*
X16986000Y-14375900D02*
X16986000Y-14320900D01*
X16986000Y-14300900D02*
X16986000Y-14245900D01*
X16986000Y-14225900D02*
X16986000Y-14170900D01*
X16986000Y-14150900D02*
X16986000Y-14095900D01*
X16986000Y-14075900D02*
X16986000Y-14020900D01*
X16986000Y-14000900D02*
X16986000Y-13945900D01*
X16986000Y-13925900D02*
X16986000Y-13870900D01*
X16986000Y-13850900D02*
X16986000Y-13795900D01*
X16986000Y-13775900D02*
X16986000Y-13720900D01*
X16986000Y-13700900D02*
X16986000Y-13645900D01*
X16986000Y-13625900D02*
X16986000Y-13570900D01*
X16986000Y-13550900D02*
X16986000Y-13495900D01*
X16986000Y-13475900D02*
X16986000Y-13420900D01*
X16986000Y-13400900D02*
X16986000Y-13345900D01*
X16986000Y-13325900D02*
X16986000Y-13270900D01*
X16986000Y-13250900D02*
X16986000Y-13195900D01*
X16986000Y-13175900D02*
X16986000Y-13120900D01*
X16986000Y-13100900D02*
X16986000Y-13045900D01*
X16986000Y-13025900D02*
X16986000Y-12970900D01*
X16986000Y-12950900D02*
X16986000Y-12895900D01*
X16986000Y-12875900D02*
X16986000Y-12820900D01*
X16986000Y-12800900D02*
X16986000Y-12745900D01*
X16986000Y-12725900D02*
X16986000Y-12670900D01*
X16986000Y-12650900D02*
X16986000Y-12595900D01*
X16986000Y-12575900D02*
X16986000Y-12520900D01*
X16986000Y-12500900D02*
X16986000Y-12445900D01*
X16986000Y-12425900D02*
X16986000Y-12370900D01*
X16986000Y-12350900D02*
X16986000Y-12295900D01*
X16986000Y-12275900D02*
X16986000Y-12220900D01*
X16986000Y-12200900D02*
X16986000Y-12145900D01*
X16986000Y-12125900D02*
X16986000Y-12070900D01*
X16986000Y-12050900D02*
X16986000Y-11995900D01*
X16986000Y-11975900D02*
X16986000Y-11920900D01*
X16986000Y-11900900D02*
X16986000Y-11845900D01*
X16986000Y-11825900D02*
X16986000Y-11770900D01*
X16986000Y-11750900D02*
X16986000Y-11695900D01*
X16986000Y-11675900D02*
X16986000Y-11620900D01*
X16986000Y-11600900D02*
X16986000Y-11545900D01*
X16986000Y-11525900D02*
X16986000Y-11470900D01*
X16986000Y-11450900D02*
X16986000Y-11395900D01*
X16986000Y-11375900D02*
X16986000Y-11320900D01*
X16986000Y-11300900D02*
X16986000Y-11245900D01*
X16986000Y-11225900D02*
X16986000Y-11170900D01*
X16986000Y-11150900D02*
X16986000Y-11095900D01*
X16986000Y-11075900D02*
X16986000Y-11020900D01*
X16986000Y-11000900D02*
X16986000Y-10945900D01*
X16986000Y-10925900D02*
X16986000Y-10870900D01*
X16986000Y-10850900D02*
X16986000Y-10795900D01*
X16986000Y-10775900D02*
X16986000Y-10720900D01*
X16986000Y-10700900D02*
X16986000Y-10645900D01*
X16986000Y-10625900D02*
X16986000Y-10570900D01*
X16986000Y-10550900D02*
X16986000Y-10495900D01*
X16986000Y-10475900D02*
X16986000Y-10420900D01*
X16986000Y-10400900D02*
X16986000Y-10372000D01*
D11*
X11400000Y-10014600D02*
X11510000Y-10014600D01*
X11550000Y-10014600D02*
X11660000Y-10014600D01*
X11700000Y-10014600D02*
X11810000Y-10014600D01*
X11850000Y-10014600D02*
X11960000Y-10014600D01*
X12000000Y-10014600D02*
X12110000Y-10014600D01*
X12150000Y-10014600D02*
X12260000Y-10014600D01*
X12300000Y-10014600D02*
X12410000Y-10014600D01*
X12450000Y-10014600D02*
X12489000Y-10014600D01*
D10*
X16967500Y-10395600D02*
X17022500Y-10395600D01*
X17042500Y-10395600D02*
X17097500Y-10395600D01*
X17117500Y-10395600D02*
X17172500Y-10395600D01*
X17192500Y-10395600D02*
X17247500Y-10395600D01*
X17267500Y-10395600D02*
X17322500Y-10395600D01*
X17342500Y-10395600D02*
X17397500Y-10395600D01*
X17417500Y-10395600D02*
X17472500Y-10395600D01*
X17492500Y-10395600D02*
X17547500Y-10395600D01*
X17567500Y-10395600D02*
X17622500Y-10395600D01*
X17642500Y-10395600D02*
X17697500Y-10395600D01*
X17717500Y-10395600D02*
X17772500Y-10395600D01*
X17792500Y-10395600D02*
X17847500Y-10395600D01*
X17867500Y-10395600D02*
X17922500Y-10395600D01*
X17942500Y-10395600D02*
X17997500Y-10395600D01*
D11*
X12414000Y-14450000D02*
X12414000Y-14340000D01*
X12414000Y-14300000D02*
X12414000Y-14190000D01*
X12414000Y-14150000D02*
X12414000Y-14040000D01*
X12414000Y-14000000D02*
X12414000Y-13890000D01*
X12414000Y-13850000D02*
X12414000Y-13740000D01*
X12414000Y-13700000D02*
X12414000Y-13590000D01*
X12414000Y-13550000D02*
X12414000Y-13440000D01*
X12414000Y-13400000D02*
X12414000Y-13290000D01*
X12414000Y-13250000D02*
X12414000Y-13140000D01*
X12414000Y-13100000D02*
X12414000Y-12990000D01*
X12414000Y-12950000D02*
X12414000Y-12840000D01*
X12414000Y-12800000D02*
X12414000Y-12690000D01*
X12414000Y-12650000D02*
X12414000Y-12540000D01*
X12414000Y-12500000D02*
X12414000Y-12390000D01*
X12414000Y-12350000D02*
X12414000Y-12240000D01*
X12414000Y-12200000D02*
X12414000Y-12090000D01*
X12414000Y-12050000D02*
X12414000Y-11940000D01*
X12414000Y-11900000D02*
X12414000Y-11790000D01*
X12414000Y-11750000D02*
X12414000Y-11640000D01*
X12414000Y-11600000D02*
X12414000Y-11490000D01*
X12414000Y-11450000D02*
X12414000Y-11340000D01*
X12414000Y-11300000D02*
X12414000Y-11190000D01*
X12414000Y-11150000D02*
X12414000Y-11040000D01*
X12414000Y-11000000D02*
X12414000Y-10890000D01*
X12414000Y-10850000D02*
X12414000Y-10740000D01*
X12414000Y-10700000D02*
X12414000Y-10590000D01*
X12414000Y-10550000D02*
X12414000Y-10440000D01*
X12414000Y-10400000D02*
X12414000Y-10290000D01*
X12414000Y-10250000D02*
X12414000Y-10140000D01*
X12414000Y-10100000D02*
X12414000Y-9990000D01*
X12414000Y-9950000D02*
X12414000Y-9938100D01*
X11400000Y-8400000D02*
X11510000Y-8400000D01*
X11550000Y-8400000D02*
X11660000Y-8400000D01*
X11700000Y-8400000D02*
X11810000Y-8400000D01*
X11850000Y-8400000D02*
X11960000Y-8400000D01*
X12000000Y-8400000D02*
X12110000Y-8400000D01*
X12150000Y-8400000D02*
X12260000Y-8400000D01*
X12300000Y-8400000D02*
X12410000Y-8400000D01*
X12450000Y-8400000D02*
X12560000Y-8400000D01*
X12600000Y-8400000D02*
X12710000Y-8400000D01*
X12750000Y-8400000D02*
X12860000Y-8400000D01*
X12900000Y-8400000D02*
X13010000Y-8400000D01*
X13050000Y-8400000D02*
X13160000Y-8400000D01*
X13200000Y-8400000D02*
X13310000Y-8400000D01*
X13350000Y-8400000D02*
X13460000Y-8400000D01*
X13500000Y-8400000D02*
X13610000Y-8400000D01*
X13650000Y-8400000D02*
X13760000Y-8400000D01*
X13800000Y-8400000D02*
X13910000Y-8400000D01*
X13950000Y-8400000D02*
X14060000Y-8400000D01*
X14100000Y-8400000D02*
X14210000Y-8400000D01*
X14250000Y-8400000D02*
X14360000Y-8400000D01*
X14400000Y-8400000D02*
X14510000Y-8400000D01*
X14550000Y-8400000D02*
X14660000Y-8400000D01*
X14700000Y-8400000D02*
X14810000Y-8400000D01*
X14850000Y-8400000D02*
X14960000Y-8400000D01*
X15000000Y-8400000D02*
X15110000Y-8400000D01*
X15150000Y-8400000D02*
X15260000Y-8400000D01*
X15300000Y-8400000D02*
X15410000Y-8400000D01*
X15450000Y-8400000D02*
X15560000Y-8400000D01*
X15600000Y-8400000D02*
X15710000Y-8400000D01*
X15750000Y-8400000D02*
X15860000Y-8400000D01*
X15900000Y-8400000D02*
X16010000Y-8400000D01*
X16050000Y-8400000D02*
X16160000Y-8400000D01*
X16200000Y-8400000D02*
X16310000Y-8400000D01*
X16350000Y-8400000D02*
X16460000Y-8400000D01*
X16500000Y-8400000D02*
X16610000Y-8400000D01*
X16650000Y-8400000D02*
X16760000Y-8400000D01*
X16800000Y-8400000D02*
X16910000Y-8400000D01*
X16950000Y-8400000D02*
X17060000Y-8400000D01*
X17100000Y-8400000D02*
X17210000Y-8400000D01*
X17250000Y-8400000D02*
X17360000Y-8400000D01*
X17400000Y-8400000D02*
X17510000Y-8400000D01*
X17550000Y-8400000D02*
X17660000Y-8400000D01*
X17700000Y-8400000D02*
X17810000Y-8400000D01*
X17850000Y-8400000D02*
X17960000Y-8400000D01*
X18000000Y-8400000D02*
X18000000Y-8400000D01*
D12*
X14333333Y-5130482D02*
X14314286Y-5130482D01*
X14314286Y-5130482D02*
X14304762Y-5135244D01*
X14304762Y-5135244D02*
X14300000Y-5140006D01*
X14300000Y-5140006D02*
X14290476Y-5154291D01*
X14290476Y-5154291D02*
X14285714Y-5173339D01*
X14285714Y-5173339D02*
X14285714Y-5211434D01*
X14285714Y-5211434D02*
X14290476Y-5220958D01*
X14290476Y-5220958D02*
X14295238Y-5225720D01*
X14295238Y-5225720D02*
X14304762Y-5230482D01*
X14304762Y-5230482D02*
X14323809Y-5230482D01*
X14323809Y-5230482D02*
X14333333Y-5225720D01*
X14333333Y-5225720D02*
X14338095Y-5220958D01*
X14338095Y-5220958D02*
X14342857Y-5211434D01*
X14342857Y-5211434D02*
X14342857Y-5187625D01*
X14342857Y-5187625D02*
X14338095Y-5178101D01*
X14338095Y-5178101D02*
X14333333Y-5173339D01*
X14333333Y-5173339D02*
X14323809Y-5168577D01*
X14323809Y-5168577D02*
X14304762Y-5168577D01*
X14304762Y-5168577D02*
X14295238Y-5173339D01*
X14295238Y-5173339D02*
X14290476Y-5178101D01*
X14290476Y-5178101D02*
X14285714Y-5187625D01*
X14428571Y-5130482D02*
X14409524Y-5130482D01*
X14409524Y-5130482D02*
X14400000Y-5135244D01*
X14400000Y-5135244D02*
X14395238Y-5140006D01*
X14395238Y-5140006D02*
X14385714Y-5154291D01*
X14385714Y-5154291D02*
X14380952Y-5173339D01*
X14380952Y-5173339D02*
X14380952Y-5211434D01*
X14380952Y-5211434D02*
X14385714Y-5220958D01*
X14385714Y-5220958D02*
X14390476Y-5225720D01*
X14390476Y-5225720D02*
X14400000Y-5230482D01*
X14400000Y-5230482D02*
X14419048Y-5230482D01*
X14419048Y-5230482D02*
X14428571Y-5225720D01*
X14428571Y-5225720D02*
X14433333Y-5220958D01*
X14433333Y-5220958D02*
X14438095Y-5211434D01*
X14438095Y-5211434D02*
X14438095Y-5187625D01*
X14438095Y-5187625D02*
X14433333Y-5178101D01*
X14433333Y-5178101D02*
X14428571Y-5173339D01*
X14428571Y-5173339D02*
X14419048Y-5168577D01*
X14419048Y-5168577D02*
X14400000Y-5168577D01*
X14400000Y-5168577D02*
X14390476Y-5173339D01*
X14390476Y-5173339D02*
X14385714Y-5178101D01*
X14385714Y-5178101D02*
X14380952Y-5187625D01*
X14480952Y-5220958D02*
X14485714Y-5225720D01*
X14485714Y-5225720D02*
X14480952Y-5230482D01*
X14480952Y-5230482D02*
X14476190Y-5225720D01*
X14476190Y-5225720D02*
X14480952Y-5220958D01*
X14480952Y-5220958D02*
X14480952Y-5230482D01*
X14547619Y-5130482D02*
X14557143Y-5130482D01*
X14557143Y-5130482D02*
X14566667Y-5135244D01*
X14566667Y-5135244D02*
X14571428Y-5140006D01*
X14571428Y-5140006D02*
X14576190Y-5149530D01*
X14576190Y-5149530D02*
X14580952Y-5168577D01*
X14580952Y-5168577D02*
X14580952Y-5192387D01*
X14580952Y-5192387D02*
X14576190Y-5211434D01*
X14576190Y-5211434D02*
X14571428Y-5220958D01*
X14571428Y-5220958D02*
X14566667Y-5225720D01*
X14566667Y-5225720D02*
X14557143Y-5230482D01*
X14557143Y-5230482D02*
X14547619Y-5230482D01*
X14547619Y-5230482D02*
X14538095Y-5225720D01*
X14538095Y-5225720D02*
X14533333Y-5220958D01*
X14533333Y-5220958D02*
X14528571Y-5211434D01*
X14528571Y-5211434D02*
X14523809Y-5192387D01*
X14523809Y-5192387D02*
X14523809Y-5168577D01*
X14523809Y-5168577D02*
X14528571Y-5149530D01*
X14528571Y-5149530D02*
X14533333Y-5140006D01*
X14533333Y-5140006D02*
X14538095Y-5135244D01*
X14538095Y-5135244D02*
X14547619Y-5130482D01*
X14642857Y-5130482D02*
X14652381Y-5130482D01*
X14652381Y-5130482D02*
X14661905Y-5135244D01*
X14661905Y-5135244D02*
X14666667Y-5140006D01*
X14666667Y-5140006D02*
X14671428Y-5149530D01*
X14671428Y-5149530D02*
X14676190Y-5168577D01*
X14676190Y-5168577D02*
X14676190Y-5192387D01*
X14676190Y-5192387D02*
X14671428Y-5211434D01*
X14671428Y-5211434D02*
X14666667Y-5220958D01*
X14666667Y-5220958D02*
X14661905Y-5225720D01*
X14661905Y-5225720D02*
X14652381Y-5230482D01*
X14652381Y-5230482D02*
X14642857Y-5230482D01*
X14642857Y-5230482D02*
X14633333Y-5225720D01*
X14633333Y-5225720D02*
X14628571Y-5220958D01*
X14628571Y-5220958D02*
X14623809Y-5211434D01*
X14623809Y-5211434D02*
X14619048Y-5192387D01*
X14619048Y-5192387D02*
X14619048Y-5168577D01*
X14619048Y-5168577D02*
X14623809Y-5149530D01*
X14623809Y-5149530D02*
X14628571Y-5140006D01*
X14628571Y-5140006D02*
X14633333Y-5135244D01*
X14633333Y-5135244D02*
X14642857Y-5130482D01*
X14738095Y-5130482D02*
X14747619Y-5130482D01*
X14747619Y-5130482D02*
X14757143Y-5135244D01*
X14757143Y-5135244D02*
X14761905Y-5140006D01*
X14761905Y-5140006D02*
X14766667Y-5149530D01*
X14766667Y-5149530D02*
X14771428Y-5168577D01*
X14771428Y-5168577D02*
X14771428Y-5192387D01*
X14771428Y-5192387D02*
X14766667Y-5211434D01*
X14766667Y-5211434D02*
X14761905Y-5220958D01*
X14761905Y-5220958D02*
X14757143Y-5225720D01*
X14757143Y-5225720D02*
X14747619Y-5230482D01*
X14747619Y-5230482D02*
X14738095Y-5230482D01*
X14738095Y-5230482D02*
X14728571Y-5225720D01*
X14728571Y-5225720D02*
X14723809Y-5220958D01*
X14723809Y-5220958D02*
X14719048Y-5211434D01*
X14719048Y-5211434D02*
X14714286Y-5192387D01*
X14714286Y-5192387D02*
X14714286Y-5168577D01*
X14714286Y-5168577D02*
X14719048Y-5149530D01*
X14719048Y-5149530D02*
X14723809Y-5140006D01*
X14723809Y-5140006D02*
X14728571Y-5135244D01*
X14728571Y-5135244D02*
X14738095Y-5130482D01*
X14890476Y-5230482D02*
X14890476Y-5163815D01*
X14890476Y-5173339D02*
X14895238Y-5168577D01*
X14895238Y-5168577D02*
X14904762Y-5163815D01*
X14904762Y-5163815D02*
X14919048Y-5163815D01*
X14919048Y-5163815D02*
X14928571Y-5168577D01*
X14928571Y-5168577D02*
X14933333Y-5178101D01*
X14933333Y-5178101D02*
X14933333Y-5230482D01*
X14933333Y-5178101D02*
X14938095Y-5168577D01*
X14938095Y-5168577D02*
X14947619Y-5163815D01*
X14947619Y-5163815D02*
X14961905Y-5163815D01*
X14961905Y-5163815D02*
X14971429Y-5168577D01*
X14971429Y-5168577D02*
X14976190Y-5178101D01*
X14976190Y-5178101D02*
X14976190Y-5230482D01*
X15023809Y-5230482D02*
X15023809Y-5163815D01*
X15023809Y-5173339D02*
X15028571Y-5168577D01*
X15028571Y-5168577D02*
X15038095Y-5163815D01*
X15038095Y-5163815D02*
X15052381Y-5163815D01*
X15052381Y-5163815D02*
X15061905Y-5168577D01*
X15061905Y-5168577D02*
X15066667Y-5178101D01*
X15066667Y-5178101D02*
X15066667Y-5230482D01*
X15066667Y-5178101D02*
X15071428Y-5168577D01*
X15071428Y-5168577D02*
X15080952Y-5163815D01*
X15080952Y-5163815D02*
X15095238Y-5163815D01*
X15095238Y-5163815D02*
X15104762Y-5168577D01*
X15104762Y-5168577D02*
X15109524Y-5178101D01*
X15109524Y-5178101D02*
X15109524Y-5230482D01*
D13*
X18000000Y-5800000D02*
X18000000Y-5241358D01*
X11400000Y-5800000D02*
X11400000Y-5241358D01*
X18000000Y-5300000D02*
X11400000Y-5300000D01*
X18000000Y-5300000D02*
X17887350Y-5358642D01*
X18000000Y-5300000D02*
X17887350Y-5241358D01*
X11400000Y-5300000D02*
X11512650Y-5241358D01*
X11400000Y-5300000D02*
X11512650Y-5358642D01*
D12*
X10383339Y-10520238D02*
X10378577Y-10529762D01*
X10378577Y-10529762D02*
X10373815Y-10534524D01*
X10373815Y-10534524D02*
X10364291Y-10539286D01*
X10364291Y-10539286D02*
X10359530Y-10539286D01*
X10359530Y-10539286D02*
X10350006Y-10534524D01*
X10350006Y-10534524D02*
X10345244Y-10529762D01*
X10345244Y-10529762D02*
X10340482Y-10520238D01*
X10340482Y-10520238D02*
X10340482Y-10501190D01*
X10340482Y-10501190D02*
X10345244Y-10491667D01*
X10345244Y-10491667D02*
X10350006Y-10486905D01*
X10350006Y-10486905D02*
X10359530Y-10482143D01*
X10359530Y-10482143D02*
X10364291Y-10482143D01*
X10364291Y-10482143D02*
X10373815Y-10486905D01*
X10373815Y-10486905D02*
X10378577Y-10491667D01*
X10378577Y-10491667D02*
X10383339Y-10501190D01*
X10383339Y-10501190D02*
X10383339Y-10520238D01*
X10383339Y-10520238D02*
X10388101Y-10529762D01*
X10388101Y-10529762D02*
X10392863Y-10534524D01*
X10392863Y-10534524D02*
X10402387Y-10539286D01*
X10402387Y-10539286D02*
X10421434Y-10539286D01*
X10421434Y-10539286D02*
X10430958Y-10534524D01*
X10430958Y-10534524D02*
X10435720Y-10529762D01*
X10435720Y-10529762D02*
X10440482Y-10520238D01*
X10440482Y-10520238D02*
X10440482Y-10501190D01*
X10440482Y-10501190D02*
X10435720Y-10491667D01*
X10435720Y-10491667D02*
X10430958Y-10486905D01*
X10430958Y-10486905D02*
X10421434Y-10482143D01*
X10421434Y-10482143D02*
X10402387Y-10482143D01*
X10402387Y-10482143D02*
X10392863Y-10486905D01*
X10392863Y-10486905D02*
X10388101Y-10491667D01*
X10388101Y-10491667D02*
X10383339Y-10501190D01*
X10340482Y-10396429D02*
X10340482Y-10415476D01*
X10340482Y-10415476D02*
X10345244Y-10425000D01*
X10345244Y-10425000D02*
X10350006Y-10429762D01*
X10350006Y-10429762D02*
X10364291Y-10439286D01*
X10364291Y-10439286D02*
X10383339Y-10444048D01*
X10383339Y-10444048D02*
X10421434Y-10444048D01*
X10421434Y-10444048D02*
X10430958Y-10439286D01*
X10430958Y-10439286D02*
X10435720Y-10434524D01*
X10435720Y-10434524D02*
X10440482Y-10425000D01*
X10440482Y-10425000D02*
X10440482Y-10405952D01*
X10440482Y-10405952D02*
X10435720Y-10396429D01*
X10435720Y-10396429D02*
X10430958Y-10391667D01*
X10430958Y-10391667D02*
X10421434Y-10386905D01*
X10421434Y-10386905D02*
X10397625Y-10386905D01*
X10397625Y-10386905D02*
X10388101Y-10391667D01*
X10388101Y-10391667D02*
X10383339Y-10396429D01*
X10383339Y-10396429D02*
X10378577Y-10405952D01*
X10378577Y-10405952D02*
X10378577Y-10425000D01*
X10378577Y-10425000D02*
X10383339Y-10434524D01*
X10383339Y-10434524D02*
X10388101Y-10439286D01*
X10388101Y-10439286D02*
X10397625Y-10444048D01*
X10430958Y-10344048D02*
X10435720Y-10339286D01*
X10435720Y-10339286D02*
X10440482Y-10344048D01*
X10440482Y-10344048D02*
X10435720Y-10348809D01*
X10435720Y-10348809D02*
X10430958Y-10344048D01*
X10430958Y-10344048D02*
X10440482Y-10344048D01*
X10340482Y-10248810D02*
X10340482Y-10296429D01*
X10340482Y-10296429D02*
X10388101Y-10301190D01*
X10388101Y-10301190D02*
X10383339Y-10296429D01*
X10383339Y-10296429D02*
X10378577Y-10286905D01*
X10378577Y-10286905D02*
X10378577Y-10263095D01*
X10378577Y-10263095D02*
X10383339Y-10253571D01*
X10383339Y-10253571D02*
X10388101Y-10248810D01*
X10388101Y-10248810D02*
X10397625Y-10244048D01*
X10397625Y-10244048D02*
X10421434Y-10244048D01*
X10421434Y-10244048D02*
X10430958Y-10248810D01*
X10430958Y-10248810D02*
X10435720Y-10253571D01*
X10435720Y-10253571D02*
X10440482Y-10263095D01*
X10440482Y-10263095D02*
X10440482Y-10286905D01*
X10440482Y-10286905D02*
X10435720Y-10296429D01*
X10435720Y-10296429D02*
X10430958Y-10301190D01*
X10340482Y-10182143D02*
X10340482Y-10172619D01*
X10340482Y-10172619D02*
X10345244Y-10163095D01*
X10345244Y-10163095D02*
X10350006Y-10158333D01*
X10350006Y-10158333D02*
X10359530Y-10153571D01*
X10359530Y-10153571D02*
X10378577Y-10148810D01*
X10378577Y-10148810D02*
X10402387Y-10148810D01*
X10402387Y-10148810D02*
X10421434Y-10153571D01*
X10421434Y-10153571D02*
X10430958Y-10158333D01*
X10430958Y-10158333D02*
X10435720Y-10163095D01*
X10435720Y-10163095D02*
X10440482Y-10172619D01*
X10440482Y-10172619D02*
X10440482Y-10182143D01*
X10440482Y-10182143D02*
X10435720Y-10191667D01*
X10435720Y-10191667D02*
X10430958Y-10196429D01*
X10430958Y-10196429D02*
X10421434Y-10201190D01*
X10421434Y-10201190D02*
X10402387Y-10205952D01*
X10402387Y-10205952D02*
X10378577Y-10205952D01*
X10378577Y-10205952D02*
X10359530Y-10201190D01*
X10359530Y-10201190D02*
X10350006Y-10196429D01*
X10350006Y-10196429D02*
X10345244Y-10191667D01*
X10345244Y-10191667D02*
X10340482Y-10182143D01*
X10340482Y-10086905D02*
X10340482Y-10077381D01*
X10340482Y-10077381D02*
X10345244Y-10067857D01*
X10345244Y-10067857D02*
X10350006Y-10063095D01*
X10350006Y-10063095D02*
X10359530Y-10058333D01*
X10359530Y-10058333D02*
X10378577Y-10053571D01*
X10378577Y-10053571D02*
X10402387Y-10053571D01*
X10402387Y-10053571D02*
X10421434Y-10058333D01*
X10421434Y-10058333D02*
X10430958Y-10063095D01*
X10430958Y-10063095D02*
X10435720Y-10067857D01*
X10435720Y-10067857D02*
X10440482Y-10077381D01*
X10440482Y-10077381D02*
X10440482Y-10086905D01*
X10440482Y-10086905D02*
X10435720Y-10096429D01*
X10435720Y-10096429D02*
X10430958Y-10101190D01*
X10430958Y-10101190D02*
X10421434Y-10105952D01*
X10421434Y-10105952D02*
X10402387Y-10110714D01*
X10402387Y-10110714D02*
X10378577Y-10110714D01*
X10378577Y-10110714D02*
X10359530Y-10105952D01*
X10359530Y-10105952D02*
X10350006Y-10101190D01*
X10350006Y-10101190D02*
X10345244Y-10096429D01*
X10345244Y-10096429D02*
X10340482Y-10086905D01*
X10440482Y-9934524D02*
X10373815Y-9934524D01*
X10383339Y-9934524D02*
X10378577Y-9929762D01*
X10378577Y-9929762D02*
X10373815Y-9920238D01*
X10373815Y-9920238D02*
X10373815Y-9905952D01*
X10373815Y-9905952D02*
X10378577Y-9896429D01*
X10378577Y-9896429D02*
X10388101Y-9891667D01*
X10388101Y-9891667D02*
X10440482Y-9891667D01*
X10388101Y-9891667D02*
X10378577Y-9886905D01*
X10378577Y-9886905D02*
X10373815Y-9877381D01*
X10373815Y-9877381D02*
X10373815Y-9863095D01*
X10373815Y-9863095D02*
X10378577Y-9853571D01*
X10378577Y-9853571D02*
X10388101Y-9848809D01*
X10388101Y-9848809D02*
X10440482Y-9848809D01*
X10440482Y-9801190D02*
X10373815Y-9801190D01*
X10383339Y-9801190D02*
X10378577Y-9796429D01*
X10378577Y-9796429D02*
X10373815Y-9786905D01*
X10373815Y-9786905D02*
X10373815Y-9772619D01*
X10373815Y-9772619D02*
X10378577Y-9763095D01*
X10378577Y-9763095D02*
X10388101Y-9758333D01*
X10388101Y-9758333D02*
X10440482Y-9758333D01*
X10388101Y-9758333D02*
X10378577Y-9753571D01*
X10378577Y-9753571D02*
X10373815Y-9744048D01*
X10373815Y-9744048D02*
X10373815Y-9729762D01*
X10373815Y-9729762D02*
X10378577Y-9720238D01*
X10378577Y-9720238D02*
X10388101Y-9715476D01*
X10388101Y-9715476D02*
X10440482Y-9715476D01*
X11500000Y-5800000D02*
X10451358Y-5800000D01*
X11500000Y-14450000D02*
X10451358Y-14450000D01*
X10510000Y-5800000D02*
X10510000Y-14450000D01*
X10510000Y-5800000D02*
X10568642Y-5912650D01*
X10510000Y-5800000D02*
X10451358Y-5912650D01*
X10510000Y-14450000D02*
X10451358Y-14337350D01*
X10510000Y-14450000D02*
X10568642Y-14337350D01*
X12630952Y-5430482D02*
X12692857Y-5430482D01*
X12692857Y-5430482D02*
X12659524Y-5468577D01*
X12659524Y-5468577D02*
X12673809Y-5468577D01*
X12673809Y-5468577D02*
X12683333Y-5473339D01*
X12683333Y-5473339D02*
X12688095Y-5478101D01*
X12688095Y-5478101D02*
X12692857Y-5487625D01*
X12692857Y-5487625D02*
X12692857Y-5511434D01*
X12692857Y-5511434D02*
X12688095Y-5520958D01*
X12688095Y-5520958D02*
X12683333Y-5525720D01*
X12683333Y-5525720D02*
X12673809Y-5530482D01*
X12673809Y-5530482D02*
X12645238Y-5530482D01*
X12645238Y-5530482D02*
X12635714Y-5525720D01*
X12635714Y-5525720D02*
X12630952Y-5520958D01*
X12726190Y-5430482D02*
X12788095Y-5430482D01*
X12788095Y-5430482D02*
X12754762Y-5468577D01*
X12754762Y-5468577D02*
X12769048Y-5468577D01*
X12769048Y-5468577D02*
X12778571Y-5473339D01*
X12778571Y-5473339D02*
X12783333Y-5478101D01*
X12783333Y-5478101D02*
X12788095Y-5487625D01*
X12788095Y-5487625D02*
X12788095Y-5511434D01*
X12788095Y-5511434D02*
X12783333Y-5520958D01*
X12783333Y-5520958D02*
X12778571Y-5525720D01*
X12778571Y-5525720D02*
X12769048Y-5530482D01*
X12769048Y-5530482D02*
X12740476Y-5530482D01*
X12740476Y-5530482D02*
X12730952Y-5525720D01*
X12730952Y-5525720D02*
X12726190Y-5520958D01*
X12830952Y-5520958D02*
X12835714Y-5525720D01*
X12835714Y-5525720D02*
X12830952Y-5530482D01*
X12830952Y-5530482D02*
X12826190Y-5525720D01*
X12826190Y-5525720D02*
X12830952Y-5520958D01*
X12830952Y-5520958D02*
X12830952Y-5530482D01*
X12897619Y-5430482D02*
X12907143Y-5430482D01*
X12907143Y-5430482D02*
X12916667Y-5435244D01*
X12916667Y-5435244D02*
X12921428Y-5440006D01*
X12921428Y-5440006D02*
X12926190Y-5449530D01*
X12926190Y-5449530D02*
X12930952Y-5468577D01*
X12930952Y-5468577D02*
X12930952Y-5492387D01*
X12930952Y-5492387D02*
X12926190Y-5511434D01*
X12926190Y-5511434D02*
X12921428Y-5520958D01*
X12921428Y-5520958D02*
X12916667Y-5525720D01*
X12916667Y-5525720D02*
X12907143Y-5530482D01*
X12907143Y-5530482D02*
X12897619Y-5530482D01*
X12897619Y-5530482D02*
X12888095Y-5525720D01*
X12888095Y-5525720D02*
X12883333Y-5520958D01*
X12883333Y-5520958D02*
X12878571Y-5511434D01*
X12878571Y-5511434D02*
X12873809Y-5492387D01*
X12873809Y-5492387D02*
X12873809Y-5468577D01*
X12873809Y-5468577D02*
X12878571Y-5449530D01*
X12878571Y-5449530D02*
X12883333Y-5440006D01*
X12883333Y-5440006D02*
X12888095Y-5435244D01*
X12888095Y-5435244D02*
X12897619Y-5430482D01*
X12992857Y-5430482D02*
X13002381Y-5430482D01*
X13002381Y-5430482D02*
X13011905Y-5435244D01*
X13011905Y-5435244D02*
X13016667Y-5440006D01*
X13016667Y-5440006D02*
X13021428Y-5449530D01*
X13021428Y-5449530D02*
X13026190Y-5468577D01*
X13026190Y-5468577D02*
X13026190Y-5492387D01*
X13026190Y-5492387D02*
X13021428Y-5511434D01*
X13021428Y-5511434D02*
X13016667Y-5520958D01*
X13016667Y-5520958D02*
X13011905Y-5525720D01*
X13011905Y-5525720D02*
X13002381Y-5530482D01*
X13002381Y-5530482D02*
X12992857Y-5530482D01*
X12992857Y-5530482D02*
X12983333Y-5525720D01*
X12983333Y-5525720D02*
X12978571Y-5520958D01*
X12978571Y-5520958D02*
X12973809Y-5511434D01*
X12973809Y-5511434D02*
X12969048Y-5492387D01*
X12969048Y-5492387D02*
X12969048Y-5468577D01*
X12969048Y-5468577D02*
X12973809Y-5449530D01*
X12973809Y-5449530D02*
X12978571Y-5440006D01*
X12978571Y-5440006D02*
X12983333Y-5435244D01*
X12983333Y-5435244D02*
X12992857Y-5430482D01*
X13088095Y-5430482D02*
X13097619Y-5430482D01*
X13097619Y-5430482D02*
X13107143Y-5435244D01*
X13107143Y-5435244D02*
X13111905Y-5440006D01*
X13111905Y-5440006D02*
X13116667Y-5449530D01*
X13116667Y-5449530D02*
X13121428Y-5468577D01*
X13121428Y-5468577D02*
X13121428Y-5492387D01*
X13121428Y-5492387D02*
X13116667Y-5511434D01*
X13116667Y-5511434D02*
X13111905Y-5520958D01*
X13111905Y-5520958D02*
X13107143Y-5525720D01*
X13107143Y-5525720D02*
X13097619Y-5530482D01*
X13097619Y-5530482D02*
X13088095Y-5530482D01*
X13088095Y-5530482D02*
X13078571Y-5525720D01*
X13078571Y-5525720D02*
X13073809Y-5520958D01*
X13073809Y-5520958D02*
X13069048Y-5511434D01*
X13069048Y-5511434D02*
X13064286Y-5492387D01*
X13064286Y-5492387D02*
X13064286Y-5468577D01*
X13064286Y-5468577D02*
X13069048Y-5449530D01*
X13069048Y-5449530D02*
X13073809Y-5440006D01*
X13073809Y-5440006D02*
X13078571Y-5435244D01*
X13078571Y-5435244D02*
X13088095Y-5430482D01*
X13240476Y-5530482D02*
X13240476Y-5463815D01*
X13240476Y-5473339D02*
X13245238Y-5468577D01*
X13245238Y-5468577D02*
X13254762Y-5463815D01*
X13254762Y-5463815D02*
X13269048Y-5463815D01*
X13269048Y-5463815D02*
X13278571Y-5468577D01*
X13278571Y-5468577D02*
X13283333Y-5478101D01*
X13283333Y-5478101D02*
X13283333Y-5530482D01*
X13283333Y-5478101D02*
X13288095Y-5468577D01*
X13288095Y-5468577D02*
X13297619Y-5463815D01*
X13297619Y-5463815D02*
X13311905Y-5463815D01*
X13311905Y-5463815D02*
X13321429Y-5468577D01*
X13321429Y-5468577D02*
X13326190Y-5478101D01*
X13326190Y-5478101D02*
X13326190Y-5530482D01*
X13373809Y-5530482D02*
X13373809Y-5463815D01*
X13373809Y-5473339D02*
X13378571Y-5468577D01*
X13378571Y-5468577D02*
X13388095Y-5463815D01*
X13388095Y-5463815D02*
X13402381Y-5463815D01*
X13402381Y-5463815D02*
X13411905Y-5468577D01*
X13411905Y-5468577D02*
X13416667Y-5478101D01*
X13416667Y-5478101D02*
X13416667Y-5530482D01*
X13416667Y-5478101D02*
X13421428Y-5468577D01*
X13421428Y-5468577D02*
X13430952Y-5463815D01*
X13430952Y-5463815D02*
X13445238Y-5463815D01*
X13445238Y-5463815D02*
X13454762Y-5468577D01*
X13454762Y-5468577D02*
X13459524Y-5478101D01*
X13459524Y-5478101D02*
X13459524Y-5530482D01*
X14700000Y-5800000D02*
X14700000Y-5541358D01*
X11400000Y-5800000D02*
X11400000Y-5541358D01*
X14700000Y-5600000D02*
X11400000Y-5600000D01*
X14700000Y-5600000D02*
X14587350Y-5658642D01*
X14700000Y-5600000D02*
X14587350Y-5541358D01*
X11400000Y-5600000D02*
X11512650Y-5541358D01*
X11400000Y-5600000D02*
X11512650Y-5658642D01*
X11063815Y-12598967D02*
X11130482Y-12598967D01*
X11025720Y-12622776D02*
X11097149Y-12646586D01*
X11097149Y-12646586D02*
X11097149Y-12584681D01*
X11063815Y-12503728D02*
X11130482Y-12503728D01*
X11025720Y-12527538D02*
X11097149Y-12551347D01*
X11097149Y-12551347D02*
X11097149Y-12489443D01*
X11120958Y-12451347D02*
X11125720Y-12446586D01*
X11125720Y-12446586D02*
X11130482Y-12451347D01*
X11130482Y-12451347D02*
X11125720Y-12456109D01*
X11125720Y-12456109D02*
X11120958Y-12451347D01*
X11120958Y-12451347D02*
X11130482Y-12451347D01*
X11030482Y-12413252D02*
X11030482Y-12351348D01*
X11030482Y-12351348D02*
X11068577Y-12384681D01*
X11068577Y-12384681D02*
X11068577Y-12370395D01*
X11068577Y-12370395D02*
X11073339Y-12360871D01*
X11073339Y-12360871D02*
X11078101Y-12356109D01*
X11078101Y-12356109D02*
X11087625Y-12351348D01*
X11087625Y-12351348D02*
X11111434Y-12351348D01*
X11111434Y-12351348D02*
X11120958Y-12356109D01*
X11120958Y-12356109D02*
X11125720Y-12360871D01*
X11125720Y-12360871D02*
X11130482Y-12370395D01*
X11130482Y-12370395D02*
X11130482Y-12398967D01*
X11130482Y-12398967D02*
X11125720Y-12408490D01*
X11125720Y-12408490D02*
X11120958Y-12413252D01*
X11030482Y-12260871D02*
X11030482Y-12308490D01*
X11030482Y-12308490D02*
X11078101Y-12313252D01*
X11078101Y-12313252D02*
X11073339Y-12308490D01*
X11073339Y-12308490D02*
X11068577Y-12298967D01*
X11068577Y-12298967D02*
X11068577Y-12275157D01*
X11068577Y-12275157D02*
X11073339Y-12265633D01*
X11073339Y-12265633D02*
X11078101Y-12260871D01*
X11078101Y-12260871D02*
X11087625Y-12256109D01*
X11087625Y-12256109D02*
X11111434Y-12256109D01*
X11111434Y-12256109D02*
X11120958Y-12260871D01*
X11120958Y-12260871D02*
X11125720Y-12265633D01*
X11125720Y-12265633D02*
X11130482Y-12275157D01*
X11130482Y-12275157D02*
X11130482Y-12298967D01*
X11130482Y-12298967D02*
X11125720Y-12308490D01*
X11125720Y-12308490D02*
X11120958Y-12313252D01*
X11063815Y-12170395D02*
X11130482Y-12170395D01*
X11025720Y-12194205D02*
X11097149Y-12218014D01*
X11097149Y-12218014D02*
X11097149Y-12156109D01*
X11130482Y-12041824D02*
X11063815Y-12041824D01*
X11073339Y-12041824D02*
X11068577Y-12037062D01*
X11068577Y-12037062D02*
X11063815Y-12027538D01*
X11063815Y-12027538D02*
X11063815Y-12013252D01*
X11063815Y-12013252D02*
X11068577Y-12003728D01*
X11068577Y-12003728D02*
X11078101Y-11998967D01*
X11078101Y-11998967D02*
X11130482Y-11998967D01*
X11078101Y-11998967D02*
X11068577Y-11994205D01*
X11068577Y-11994205D02*
X11063815Y-11984681D01*
X11063815Y-11984681D02*
X11063815Y-11970395D01*
X11063815Y-11970395D02*
X11068577Y-11960871D01*
X11068577Y-11960871D02*
X11078101Y-11956109D01*
X11078101Y-11956109D02*
X11130482Y-11956109D01*
X11130482Y-11908490D02*
X11063815Y-11908490D01*
X11073339Y-11908490D02*
X11068577Y-11903728D01*
X11068577Y-11903728D02*
X11063815Y-11894205D01*
X11063815Y-11894205D02*
X11063815Y-11879919D01*
X11063815Y-11879919D02*
X11068577Y-11870395D01*
X11068577Y-11870395D02*
X11078101Y-11865633D01*
X11078101Y-11865633D02*
X11130482Y-11865633D01*
X11078101Y-11865633D02*
X11068577Y-11860871D01*
X11068577Y-11860871D02*
X11063815Y-11851348D01*
X11063815Y-11851348D02*
X11063815Y-11837062D01*
X11063815Y-11837062D02*
X11068577Y-11827538D01*
X11068577Y-11827538D02*
X11078101Y-11822776D01*
X11078101Y-11822776D02*
X11130482Y-11822776D01*
X11400000Y-14450000D02*
X11141358Y-14450000D01*
X11400000Y-10014600D02*
X11141358Y-10014600D01*
X11200000Y-14450000D02*
X11200000Y-10014600D01*
X11200000Y-14450000D02*
X11141358Y-14337350D01*
X11200000Y-14450000D02*
X11258642Y-14337350D01*
X11200000Y-10014600D02*
X11258642Y-10127250D01*
X11200000Y-10014600D02*
X11141358Y-10127250D01*
X10630482Y-11791667D02*
X10630482Y-11810714D01*
X10630482Y-11810714D02*
X10635244Y-11820238D01*
X10635244Y-11820238D02*
X10640006Y-11825000D01*
X10640006Y-11825000D02*
X10654291Y-11834524D01*
X10654291Y-11834524D02*
X10673339Y-11839286D01*
X10673339Y-11839286D02*
X10711434Y-11839286D01*
X10711434Y-11839286D02*
X10720958Y-11834524D01*
X10720958Y-11834524D02*
X10725720Y-11829762D01*
X10725720Y-11829762D02*
X10730482Y-11820238D01*
X10730482Y-11820238D02*
X10730482Y-11801190D01*
X10730482Y-11801190D02*
X10725720Y-11791667D01*
X10725720Y-11791667D02*
X10720958Y-11786905D01*
X10720958Y-11786905D02*
X10711434Y-11782143D01*
X10711434Y-11782143D02*
X10687625Y-11782143D01*
X10687625Y-11782143D02*
X10678101Y-11786905D01*
X10678101Y-11786905D02*
X10673339Y-11791667D01*
X10673339Y-11791667D02*
X10668577Y-11801190D01*
X10668577Y-11801190D02*
X10668577Y-11820238D01*
X10668577Y-11820238D02*
X10673339Y-11829762D01*
X10673339Y-11829762D02*
X10678101Y-11834524D01*
X10678101Y-11834524D02*
X10687625Y-11839286D01*
X10630482Y-11720238D02*
X10630482Y-11710714D01*
X10630482Y-11710714D02*
X10635244Y-11701190D01*
X10635244Y-11701190D02*
X10640006Y-11696428D01*
X10640006Y-11696428D02*
X10649530Y-11691667D01*
X10649530Y-11691667D02*
X10668577Y-11686905D01*
X10668577Y-11686905D02*
X10692387Y-11686905D01*
X10692387Y-11686905D02*
X10711434Y-11691667D01*
X10711434Y-11691667D02*
X10720958Y-11696428D01*
X10720958Y-11696428D02*
X10725720Y-11701190D01*
X10725720Y-11701190D02*
X10730482Y-11710714D01*
X10730482Y-11710714D02*
X10730482Y-11720238D01*
X10730482Y-11720238D02*
X10725720Y-11729762D01*
X10725720Y-11729762D02*
X10720958Y-11734524D01*
X10720958Y-11734524D02*
X10711434Y-11739286D01*
X10711434Y-11739286D02*
X10692387Y-11744047D01*
X10692387Y-11744047D02*
X10668577Y-11744047D01*
X10668577Y-11744047D02*
X10649530Y-11739286D01*
X10649530Y-11739286D02*
X10640006Y-11734524D01*
X10640006Y-11734524D02*
X10635244Y-11729762D01*
X10635244Y-11729762D02*
X10630482Y-11720238D01*
X10725720Y-11639286D02*
X10730482Y-11639286D01*
X10730482Y-11639286D02*
X10740006Y-11644047D01*
X10740006Y-11644047D02*
X10744768Y-11648809D01*
X10630482Y-11548809D02*
X10630482Y-11596428D01*
X10630482Y-11596428D02*
X10678101Y-11601190D01*
X10678101Y-11601190D02*
X10673339Y-11596428D01*
X10673339Y-11596428D02*
X10668577Y-11586905D01*
X10668577Y-11586905D02*
X10668577Y-11563095D01*
X10668577Y-11563095D02*
X10673339Y-11553571D01*
X10673339Y-11553571D02*
X10678101Y-11548809D01*
X10678101Y-11548809D02*
X10687625Y-11544048D01*
X10687625Y-11544048D02*
X10711434Y-11544048D01*
X10711434Y-11544048D02*
X10720958Y-11548809D01*
X10720958Y-11548809D02*
X10725720Y-11553571D01*
X10725720Y-11553571D02*
X10730482Y-11563095D01*
X10730482Y-11563095D02*
X10730482Y-11586905D01*
X10730482Y-11586905D02*
X10725720Y-11596428D01*
X10725720Y-11596428D02*
X10720958Y-11601190D01*
X10630482Y-11482143D02*
X10630482Y-11472619D01*
X10630482Y-11472619D02*
X10635244Y-11463095D01*
X10635244Y-11463095D02*
X10640006Y-11458333D01*
X10640006Y-11458333D02*
X10649530Y-11453571D01*
X10649530Y-11453571D02*
X10668577Y-11448809D01*
X10668577Y-11448809D02*
X10692387Y-11448809D01*
X10692387Y-11448809D02*
X10711434Y-11453571D01*
X10711434Y-11453571D02*
X10720958Y-11458333D01*
X10720958Y-11458333D02*
X10725720Y-11463095D01*
X10725720Y-11463095D02*
X10730482Y-11472619D01*
X10730482Y-11472619D02*
X10730482Y-11482143D01*
X10730482Y-11482143D02*
X10725720Y-11491667D01*
X10725720Y-11491667D02*
X10720958Y-11496428D01*
X10720958Y-11496428D02*
X10711434Y-11501190D01*
X10711434Y-11501190D02*
X10692387Y-11505952D01*
X10692387Y-11505952D02*
X10668577Y-11505952D01*
X10668577Y-11505952D02*
X10649530Y-11501190D01*
X10649530Y-11501190D02*
X10640006Y-11496428D01*
X10640006Y-11496428D02*
X10635244Y-11491667D01*
X10635244Y-11491667D02*
X10630482Y-11482143D01*
X10630482Y-11386905D02*
X10630482Y-11377381D01*
X10630482Y-11377381D02*
X10635244Y-11367857D01*
X10635244Y-11367857D02*
X10640006Y-11363095D01*
X10640006Y-11363095D02*
X10649530Y-11358333D01*
X10649530Y-11358333D02*
X10668577Y-11353571D01*
X10668577Y-11353571D02*
X10692387Y-11353571D01*
X10692387Y-11353571D02*
X10711434Y-11358333D01*
X10711434Y-11358333D02*
X10720958Y-11363095D01*
X10720958Y-11363095D02*
X10725720Y-11367857D01*
X10725720Y-11367857D02*
X10730482Y-11377381D01*
X10730482Y-11377381D02*
X10730482Y-11386905D01*
X10730482Y-11386905D02*
X10725720Y-11396428D01*
X10725720Y-11396428D02*
X10720958Y-11401190D01*
X10720958Y-11401190D02*
X10711434Y-11405952D01*
X10711434Y-11405952D02*
X10692387Y-11410714D01*
X10692387Y-11410714D02*
X10668577Y-11410714D01*
X10668577Y-11410714D02*
X10649530Y-11405952D01*
X10649530Y-11405952D02*
X10640006Y-11401190D01*
X10640006Y-11401190D02*
X10635244Y-11396428D01*
X10635244Y-11396428D02*
X10630482Y-11386905D01*
X10730482Y-11234524D02*
X10663815Y-11234524D01*
X10673339Y-11234524D02*
X10668577Y-11229762D01*
X10668577Y-11229762D02*
X10663815Y-11220238D01*
X10663815Y-11220238D02*
X10663815Y-11205952D01*
X10663815Y-11205952D02*
X10668577Y-11196428D01*
X10668577Y-11196428D02*
X10678101Y-11191667D01*
X10678101Y-11191667D02*
X10730482Y-11191667D01*
X10678101Y-11191667D02*
X10668577Y-11186905D01*
X10668577Y-11186905D02*
X10663815Y-11177381D01*
X10663815Y-11177381D02*
X10663815Y-11163095D01*
X10663815Y-11163095D02*
X10668577Y-11153571D01*
X10668577Y-11153571D02*
X10678101Y-11148809D01*
X10678101Y-11148809D02*
X10730482Y-11148809D01*
X10730482Y-11101190D02*
X10663815Y-11101190D01*
X10673339Y-11101190D02*
X10668577Y-11096429D01*
X10668577Y-11096429D02*
X10663815Y-11086905D01*
X10663815Y-11086905D02*
X10663815Y-11072619D01*
X10663815Y-11072619D02*
X10668577Y-11063095D01*
X10668577Y-11063095D02*
X10678101Y-11058333D01*
X10678101Y-11058333D02*
X10730482Y-11058333D01*
X10678101Y-11058333D02*
X10668577Y-11053571D01*
X10668577Y-11053571D02*
X10663815Y-11044048D01*
X10663815Y-11044048D02*
X10663815Y-11029762D01*
X10663815Y-11029762D02*
X10668577Y-11020238D01*
X10668577Y-11020238D02*
X10678101Y-11015476D01*
X10678101Y-11015476D02*
X10730482Y-11015476D01*
D11*
X11350000Y-14450000D02*
X10741358Y-14450000D01*
X10741358Y-8400000D02*
X11350000Y-8400000D01*
X10800000Y-14450000D02*
X10800000Y-8400000D01*
X10800000Y-14450000D02*
X10741358Y-14337350D01*
X10800000Y-14450000D02*
X10858642Y-14337350D01*
X10800000Y-8400000D02*
X10858642Y-8512650D01*
X10800000Y-8400000D02*
X10741358Y-8512650D01*
D12*
X11549857Y-14853482D02*
X11492714Y-14853482D01*
X11521286Y-14853482D02*
X11521286Y-14753482D01*
X11521286Y-14753482D02*
X11511762Y-14767768D01*
X11511762Y-14767768D02*
X11502238Y-14777291D01*
X11502238Y-14777291D02*
X11492714Y-14782053D01*
X11611762Y-14753482D02*
X11621286Y-14753482D01*
X11621286Y-14753482D02*
X11630809Y-14758244D01*
X11630809Y-14758244D02*
X11635571Y-14763006D01*
X11635571Y-14763006D02*
X11640333Y-14772529D01*
X11640333Y-14772529D02*
X11645095Y-14791577D01*
X11645095Y-14791577D02*
X11645095Y-14815387D01*
X11645095Y-14815387D02*
X11640333Y-14834434D01*
X11640333Y-14834434D02*
X11635571Y-14843958D01*
X11635571Y-14843958D02*
X11630809Y-14848720D01*
X11630809Y-14848720D02*
X11621286Y-14853482D01*
X11621286Y-14853482D02*
X11611762Y-14853482D01*
X11611762Y-14853482D02*
X11602238Y-14848720D01*
X11602238Y-14848720D02*
X11597476Y-14843958D01*
X11597476Y-14843958D02*
X11592714Y-14834434D01*
X11592714Y-14834434D02*
X11587952Y-14815387D01*
X11587952Y-14815387D02*
X11587952Y-14791577D01*
X11587952Y-14791577D02*
X11592714Y-14772529D01*
X11592714Y-14772529D02*
X11597476Y-14763006D01*
X11597476Y-14763006D02*
X11602238Y-14758244D01*
X11602238Y-14758244D02*
X11611762Y-14753482D01*
X11692714Y-14848720D02*
X11692714Y-14853482D01*
X11692714Y-14853482D02*
X11687952Y-14863006D01*
X11687952Y-14863006D02*
X11683190Y-14867768D01*
X11787952Y-14853482D02*
X11730809Y-14853482D01*
X11759381Y-14853482D02*
X11759381Y-14753482D01*
X11759381Y-14753482D02*
X11749857Y-14767768D01*
X11749857Y-14767768D02*
X11740333Y-14777291D01*
X11740333Y-14777291D02*
X11730809Y-14782053D01*
X11873667Y-14786815D02*
X11873667Y-14853482D01*
X11849857Y-14748720D02*
X11826048Y-14820148D01*
X11826048Y-14820148D02*
X11887952Y-14820148D01*
X11945095Y-14753482D02*
X11954619Y-14753482D01*
X11954619Y-14753482D02*
X11964143Y-14758244D01*
X11964143Y-14758244D02*
X11968905Y-14763006D01*
X11968905Y-14763006D02*
X11973667Y-14772529D01*
X11973667Y-14772529D02*
X11978428Y-14791577D01*
X11978428Y-14791577D02*
X11978428Y-14815387D01*
X11978428Y-14815387D02*
X11973667Y-14834434D01*
X11973667Y-14834434D02*
X11968905Y-14843958D01*
X11968905Y-14843958D02*
X11964143Y-14848720D01*
X11964143Y-14848720D02*
X11954619Y-14853482D01*
X11954619Y-14853482D02*
X11945095Y-14853482D01*
X11945095Y-14853482D02*
X11935571Y-14848720D01*
X11935571Y-14848720D02*
X11930809Y-14843958D01*
X11930809Y-14843958D02*
X11926048Y-14834434D01*
X11926048Y-14834434D02*
X11921286Y-14815387D01*
X11921286Y-14815387D02*
X11921286Y-14791577D01*
X11921286Y-14791577D02*
X11926048Y-14772529D01*
X11926048Y-14772529D02*
X11930809Y-14763006D01*
X11930809Y-14763006D02*
X11935571Y-14758244D01*
X11935571Y-14758244D02*
X11945095Y-14753482D01*
X12097476Y-14853482D02*
X12097476Y-14786815D01*
X12097476Y-14796339D02*
X12102238Y-14791577D01*
X12102238Y-14791577D02*
X12111762Y-14786815D01*
X12111762Y-14786815D02*
X12126048Y-14786815D01*
X12126048Y-14786815D02*
X12135571Y-14791577D01*
X12135571Y-14791577D02*
X12140333Y-14801101D01*
X12140333Y-14801101D02*
X12140333Y-14853482D01*
X12140333Y-14801101D02*
X12145095Y-14791577D01*
X12145095Y-14791577D02*
X12154619Y-14786815D01*
X12154619Y-14786815D02*
X12168905Y-14786815D01*
X12168905Y-14786815D02*
X12178429Y-14791577D01*
X12178429Y-14791577D02*
X12183190Y-14801101D01*
X12183190Y-14801101D02*
X12183190Y-14853482D01*
X12230809Y-14853482D02*
X12230809Y-14786815D01*
X12230809Y-14796339D02*
X12235571Y-14791577D01*
X12235571Y-14791577D02*
X12245095Y-14786815D01*
X12245095Y-14786815D02*
X12259381Y-14786815D01*
X12259381Y-14786815D02*
X12268905Y-14791577D01*
X12268905Y-14791577D02*
X12273667Y-14801101D01*
X12273667Y-14801101D02*
X12273667Y-14853482D01*
X12273667Y-14801101D02*
X12278428Y-14791577D01*
X12278428Y-14791577D02*
X12287952Y-14786815D01*
X12287952Y-14786815D02*
X12302238Y-14786815D01*
X12302238Y-14786815D02*
X12311762Y-14791577D01*
X12311762Y-14791577D02*
X12316524Y-14801101D01*
X12316524Y-14801101D02*
X12316524Y-14853482D01*
D11*
X11400000Y-14500000D02*
X11400000Y-14981642D01*
X12414000Y-14981642D02*
X12414000Y-14500000D01*
X11400000Y-14923000D02*
X12414000Y-14923000D01*
X11400000Y-14923000D02*
X11512650Y-14864358D01*
X11400000Y-14923000D02*
X11512650Y-14981642D01*
X12414000Y-14923000D02*
X12301350Y-14981642D01*
X12414000Y-14923000D02*
X12301350Y-14864358D01*
D12*
X13831095Y-15630482D02*
X13783476Y-15630482D01*
X13783476Y-15630482D02*
X13778714Y-15678101D01*
X13778714Y-15678101D02*
X13783476Y-15673339D01*
X13783476Y-15673339D02*
X13793000Y-15668577D01*
X13793000Y-15668577D02*
X13816809Y-15668577D01*
X13816809Y-15668577D02*
X13826333Y-15673339D01*
X13826333Y-15673339D02*
X13831095Y-15678101D01*
X13831095Y-15678101D02*
X13835857Y-15687625D01*
X13835857Y-15687625D02*
X13835857Y-15711434D01*
X13835857Y-15711434D02*
X13831095Y-15720958D01*
X13831095Y-15720958D02*
X13826333Y-15725720D01*
X13826333Y-15725720D02*
X13816809Y-15730482D01*
X13816809Y-15730482D02*
X13793000Y-15730482D01*
X13793000Y-15730482D02*
X13783476Y-15725720D01*
X13783476Y-15725720D02*
X13778714Y-15720958D01*
X13926333Y-15630482D02*
X13878714Y-15630482D01*
X13878714Y-15630482D02*
X13873952Y-15678101D01*
X13873952Y-15678101D02*
X13878714Y-15673339D01*
X13878714Y-15673339D02*
X13888238Y-15668577D01*
X13888238Y-15668577D02*
X13912048Y-15668577D01*
X13912048Y-15668577D02*
X13921571Y-15673339D01*
X13921571Y-15673339D02*
X13926333Y-15678101D01*
X13926333Y-15678101D02*
X13931095Y-15687625D01*
X13931095Y-15687625D02*
X13931095Y-15711434D01*
X13931095Y-15711434D02*
X13926333Y-15720958D01*
X13926333Y-15720958D02*
X13921571Y-15725720D01*
X13921571Y-15725720D02*
X13912048Y-15730482D01*
X13912048Y-15730482D02*
X13888238Y-15730482D01*
X13888238Y-15730482D02*
X13878714Y-15725720D01*
X13878714Y-15725720D02*
X13873952Y-15720958D01*
X13978714Y-15725720D02*
X13978714Y-15730482D01*
X13978714Y-15730482D02*
X13973952Y-15740006D01*
X13973952Y-15740006D02*
X13969190Y-15744768D01*
X14035857Y-15673339D02*
X14026333Y-15668577D01*
X14026333Y-15668577D02*
X14021571Y-15663815D01*
X14021571Y-15663815D02*
X14016809Y-15654291D01*
X14016809Y-15654291D02*
X14016809Y-15649529D01*
X14016809Y-15649529D02*
X14021571Y-15640006D01*
X14021571Y-15640006D02*
X14026333Y-15635244D01*
X14026333Y-15635244D02*
X14035857Y-15630482D01*
X14035857Y-15630482D02*
X14054905Y-15630482D01*
X14054905Y-15630482D02*
X14064428Y-15635244D01*
X14064428Y-15635244D02*
X14069190Y-15640006D01*
X14069190Y-15640006D02*
X14073952Y-15649529D01*
X14073952Y-15649529D02*
X14073952Y-15654291D01*
X14073952Y-15654291D02*
X14069190Y-15663815D01*
X14069190Y-15663815D02*
X14064428Y-15668577D01*
X14064428Y-15668577D02*
X14054905Y-15673339D01*
X14054905Y-15673339D02*
X14035857Y-15673339D01*
X14035857Y-15673339D02*
X14026333Y-15678101D01*
X14026333Y-15678101D02*
X14021571Y-15682863D01*
X14021571Y-15682863D02*
X14016809Y-15692387D01*
X14016809Y-15692387D02*
X14016809Y-15711434D01*
X14016809Y-15711434D02*
X14021571Y-15720958D01*
X14021571Y-15720958D02*
X14026333Y-15725720D01*
X14026333Y-15725720D02*
X14035857Y-15730482D01*
X14035857Y-15730482D02*
X14054905Y-15730482D01*
X14054905Y-15730482D02*
X14064428Y-15725720D01*
X14064428Y-15725720D02*
X14069190Y-15720958D01*
X14069190Y-15720958D02*
X14073952Y-15711434D01*
X14073952Y-15711434D02*
X14073952Y-15692387D01*
X14073952Y-15692387D02*
X14069190Y-15682863D01*
X14069190Y-15682863D02*
X14064428Y-15678101D01*
X14064428Y-15678101D02*
X14054905Y-15673339D01*
X14159667Y-15630482D02*
X14140619Y-15630482D01*
X14140619Y-15630482D02*
X14131095Y-15635244D01*
X14131095Y-15635244D02*
X14126333Y-15640006D01*
X14126333Y-15640006D02*
X14116809Y-15654291D01*
X14116809Y-15654291D02*
X14112048Y-15673339D01*
X14112048Y-15673339D02*
X14112048Y-15711434D01*
X14112048Y-15711434D02*
X14116809Y-15720958D01*
X14116809Y-15720958D02*
X14121571Y-15725720D01*
X14121571Y-15725720D02*
X14131095Y-15730482D01*
X14131095Y-15730482D02*
X14150143Y-15730482D01*
X14150143Y-15730482D02*
X14159667Y-15725720D01*
X14159667Y-15725720D02*
X14164428Y-15720958D01*
X14164428Y-15720958D02*
X14169190Y-15711434D01*
X14169190Y-15711434D02*
X14169190Y-15687625D01*
X14169190Y-15687625D02*
X14164428Y-15678101D01*
X14164428Y-15678101D02*
X14159667Y-15673339D01*
X14159667Y-15673339D02*
X14150143Y-15668577D01*
X14150143Y-15668577D02*
X14131095Y-15668577D01*
X14131095Y-15668577D02*
X14121571Y-15673339D01*
X14121571Y-15673339D02*
X14116809Y-15678101D01*
X14116809Y-15678101D02*
X14112048Y-15687625D01*
X14231095Y-15630482D02*
X14240619Y-15630482D01*
X14240619Y-15630482D02*
X14250143Y-15635244D01*
X14250143Y-15635244D02*
X14254905Y-15640006D01*
X14254905Y-15640006D02*
X14259667Y-15649529D01*
X14259667Y-15649529D02*
X14264428Y-15668577D01*
X14264428Y-15668577D02*
X14264428Y-15692387D01*
X14264428Y-15692387D02*
X14259667Y-15711434D01*
X14259667Y-15711434D02*
X14254905Y-15720958D01*
X14254905Y-15720958D02*
X14250143Y-15725720D01*
X14250143Y-15725720D02*
X14240619Y-15730482D01*
X14240619Y-15730482D02*
X14231095Y-15730482D01*
X14231095Y-15730482D02*
X14221571Y-15725720D01*
X14221571Y-15725720D02*
X14216809Y-15720958D01*
X14216809Y-15720958D02*
X14212048Y-15711434D01*
X14212048Y-15711434D02*
X14207286Y-15692387D01*
X14207286Y-15692387D02*
X14207286Y-15668577D01*
X14207286Y-15668577D02*
X14212048Y-15649529D01*
X14212048Y-15649529D02*
X14216809Y-15640006D01*
X14216809Y-15640006D02*
X14221571Y-15635244D01*
X14221571Y-15635244D02*
X14231095Y-15630482D01*
X14383476Y-15730482D02*
X14383476Y-15663815D01*
X14383476Y-15673339D02*
X14388238Y-15668577D01*
X14388238Y-15668577D02*
X14397762Y-15663815D01*
X14397762Y-15663815D02*
X14412048Y-15663815D01*
X14412048Y-15663815D02*
X14421571Y-15668577D01*
X14421571Y-15668577D02*
X14426333Y-15678101D01*
X14426333Y-15678101D02*
X14426333Y-15730482D01*
X14426333Y-15678101D02*
X14431095Y-15668577D01*
X14431095Y-15668577D02*
X14440619Y-15663815D01*
X14440619Y-15663815D02*
X14454905Y-15663815D01*
X14454905Y-15663815D02*
X14464429Y-15668577D01*
X14464429Y-15668577D02*
X14469190Y-15678101D01*
X14469190Y-15678101D02*
X14469190Y-15730482D01*
X14516809Y-15730482D02*
X14516809Y-15663815D01*
X14516809Y-15673339D02*
X14521571Y-15668577D01*
X14521571Y-15668577D02*
X14531095Y-15663815D01*
X14531095Y-15663815D02*
X14545381Y-15663815D01*
X14545381Y-15663815D02*
X14554905Y-15668577D01*
X14554905Y-15668577D02*
X14559667Y-15678101D01*
X14559667Y-15678101D02*
X14559667Y-15730482D01*
X14559667Y-15678101D02*
X14564428Y-15668577D01*
X14564428Y-15668577D02*
X14573952Y-15663815D01*
X14573952Y-15663815D02*
X14588238Y-15663815D01*
X14588238Y-15663815D02*
X14597762Y-15668577D01*
X14597762Y-15668577D02*
X14602524Y-15678101D01*
X14602524Y-15678101D02*
X14602524Y-15730482D01*
D11*
X11400000Y-14500000D02*
X11400000Y-15858642D01*
X16986000Y-15858642D02*
X16986000Y-14500000D01*
X11400000Y-15800000D02*
X16986000Y-15800000D01*
X11400000Y-15800000D02*
X11512650Y-15741358D01*
X11400000Y-15800000D02*
X11512650Y-15858642D01*
X16986000Y-15800000D02*
X16873350Y-15858642D01*
X16986000Y-15800000D02*
X16873350Y-15741358D01*
D12*
X18263815Y-12789467D02*
X18330482Y-12789467D01*
X18225720Y-12813276D02*
X18297149Y-12837086D01*
X18297149Y-12837086D02*
X18297149Y-12775181D01*
X18230482Y-12718038D02*
X18230482Y-12708514D01*
X18230482Y-12708514D02*
X18235244Y-12698990D01*
X18235244Y-12698990D02*
X18240006Y-12694228D01*
X18240006Y-12694228D02*
X18249530Y-12689467D01*
X18249530Y-12689467D02*
X18268577Y-12684705D01*
X18268577Y-12684705D02*
X18292387Y-12684705D01*
X18292387Y-12684705D02*
X18311434Y-12689467D01*
X18311434Y-12689467D02*
X18320958Y-12694228D01*
X18320958Y-12694228D02*
X18325720Y-12698990D01*
X18325720Y-12698990D02*
X18330482Y-12708514D01*
X18330482Y-12708514D02*
X18330482Y-12718038D01*
X18330482Y-12718038D02*
X18325720Y-12727562D01*
X18325720Y-12727562D02*
X18320958Y-12732324D01*
X18320958Y-12732324D02*
X18311434Y-12737086D01*
X18311434Y-12737086D02*
X18292387Y-12741847D01*
X18292387Y-12741847D02*
X18268577Y-12741847D01*
X18268577Y-12741847D02*
X18249530Y-12737086D01*
X18249530Y-12737086D02*
X18240006Y-12732324D01*
X18240006Y-12732324D02*
X18235244Y-12727562D01*
X18235244Y-12727562D02*
X18230482Y-12718038D01*
X18325720Y-12637086D02*
X18330482Y-12637086D01*
X18330482Y-12637086D02*
X18340006Y-12641847D01*
X18340006Y-12641847D02*
X18344768Y-12646609D01*
X18230482Y-12546609D02*
X18230482Y-12594228D01*
X18230482Y-12594228D02*
X18278101Y-12598990D01*
X18278101Y-12598990D02*
X18273339Y-12594228D01*
X18273339Y-12594228D02*
X18268577Y-12584705D01*
X18268577Y-12584705D02*
X18268577Y-12560895D01*
X18268577Y-12560895D02*
X18273339Y-12551371D01*
X18273339Y-12551371D02*
X18278101Y-12546609D01*
X18278101Y-12546609D02*
X18287625Y-12541848D01*
X18287625Y-12541848D02*
X18311434Y-12541848D01*
X18311434Y-12541848D02*
X18320958Y-12546609D01*
X18320958Y-12546609D02*
X18325720Y-12551371D01*
X18325720Y-12551371D02*
X18330482Y-12560895D01*
X18330482Y-12560895D02*
X18330482Y-12584705D01*
X18330482Y-12584705D02*
X18325720Y-12594228D01*
X18325720Y-12594228D02*
X18320958Y-12598990D01*
X18263815Y-12456133D02*
X18330482Y-12456133D01*
X18225720Y-12479943D02*
X18297149Y-12503752D01*
X18297149Y-12503752D02*
X18297149Y-12441848D01*
X18263815Y-12360895D02*
X18330482Y-12360895D01*
X18225720Y-12384705D02*
X18297149Y-12408514D01*
X18297149Y-12408514D02*
X18297149Y-12346609D01*
X18330482Y-12232324D02*
X18263815Y-12232324D01*
X18273339Y-12232324D02*
X18268577Y-12227562D01*
X18268577Y-12227562D02*
X18263815Y-12218038D01*
X18263815Y-12218038D02*
X18263815Y-12203752D01*
X18263815Y-12203752D02*
X18268577Y-12194228D01*
X18268577Y-12194228D02*
X18278101Y-12189467D01*
X18278101Y-12189467D02*
X18330482Y-12189467D01*
X18278101Y-12189467D02*
X18268577Y-12184705D01*
X18268577Y-12184705D02*
X18263815Y-12175181D01*
X18263815Y-12175181D02*
X18263815Y-12160895D01*
X18263815Y-12160895D02*
X18268577Y-12151371D01*
X18268577Y-12151371D02*
X18278101Y-12146609D01*
X18278101Y-12146609D02*
X18330482Y-12146609D01*
X18330482Y-12098990D02*
X18263815Y-12098990D01*
X18273339Y-12098990D02*
X18268577Y-12094228D01*
X18268577Y-12094228D02*
X18263815Y-12084705D01*
X18263815Y-12084705D02*
X18263815Y-12070419D01*
X18263815Y-12070419D02*
X18268577Y-12060895D01*
X18268577Y-12060895D02*
X18278101Y-12056133D01*
X18278101Y-12056133D02*
X18330482Y-12056133D01*
X18278101Y-12056133D02*
X18268577Y-12051371D01*
X18268577Y-12051371D02*
X18263815Y-12041848D01*
X18263815Y-12041848D02*
X18263815Y-12027562D01*
X18263815Y-12027562D02*
X18268577Y-12018038D01*
X18268577Y-12018038D02*
X18278101Y-12013276D01*
X18278101Y-12013276D02*
X18330482Y-12013276D01*
D11*
X18050000Y-14450000D02*
X18458642Y-14450000D01*
X18458642Y-10395600D02*
X18050000Y-10395600D01*
X18400000Y-14450000D02*
X18400000Y-10395600D01*
X18400000Y-14450000D02*
X18341358Y-14337350D01*
X18400000Y-14450000D02*
X18458642Y-14337350D01*
X18400000Y-10395600D02*
X18458642Y-10508250D01*
X18400000Y-10395600D02*
X18341358Y-10508250D01*
M02*
