%TF.GenerationSoftware,KiCad,Pcbnew,9.0.5*%
%TF.CreationDate,2026-03-19T11:59:45+01:00*%
%TF.ProjectId,ZumoComSystem,5a756d6f-436f-46d5-9379-7374656d2e6b,V3.0*%
%TF.SameCoordinates,Original*%
%TF.FileFunction,Legend,Top*%
%TF.FilePolarity,Positive*%
%FSLAX45Y45*%
G04 Gerber Fmt 4.5, Leading zero omitted, Abs format (unit mm)*
G04 Created by KiCad (PCBNEW 9.0.5) date 2026-03-19 11:59:45*
%MOMM*%
%LPD*%
G01*
G04 APERTURE LIST*
%ADD10C,0.120000*%
%ADD11C,0.150000*%
%ADD12C,0.300000*%
%ADD13C,0.010000*%
%ADD14C,0.127000*%
%ADD15C,0.200000*%
%ADD16C,0.100000*%
G04 APERTURE END LIST*
D10*
X13670000Y-11620000D02*
X14180000Y-11620000D01*
X15730858Y-10919058D02*
X15850858Y-10919058D01*
X15830000Y-13890000D02*
X15925000Y-13795000D01*
X15076000Y-9630000D02*
X15076000Y-9745000D01*
X15830000Y-14360000D02*
X15830000Y-13890000D01*
X13600000Y-11921000D02*
X13600000Y-11690000D01*
X15733358Y-11419057D02*
X15848358Y-11419057D01*
X13600000Y-11690000D02*
X13670000Y-11620000D01*
X15576000Y-9627500D02*
X15576000Y-9747500D01*
X11601759Y-14306667D02*
X11568426Y-14330000D01*
X11601759Y-14346667D02*
X11531759Y-14346667D01*
X11531759Y-14346667D02*
X11531759Y-14320000D01*
X11531759Y-14320000D02*
X11535093Y-14313333D01*
X11535093Y-14313333D02*
X11538426Y-14310000D01*
X11538426Y-14310000D02*
X11545093Y-14306667D01*
X11545093Y-14306667D02*
X11555093Y-14306667D01*
X11555093Y-14306667D02*
X11561759Y-14310000D01*
X11561759Y-14310000D02*
X11565093Y-14313333D01*
X11565093Y-14313333D02*
X11568426Y-14320000D01*
X11568426Y-14320000D02*
X11568426Y-14346667D01*
X11598426Y-14280000D02*
X11601759Y-14270000D01*
X11601759Y-14270000D02*
X11601759Y-14253333D01*
X11601759Y-14253333D02*
X11598426Y-14246667D01*
X11598426Y-14246667D02*
X11595093Y-14243333D01*
X11595093Y-14243333D02*
X11588426Y-14240000D01*
X11588426Y-14240000D02*
X11581759Y-14240000D01*
X11581759Y-14240000D02*
X11575093Y-14243333D01*
X11575093Y-14243333D02*
X11571759Y-14246667D01*
X11571759Y-14246667D02*
X11568426Y-14253333D01*
X11568426Y-14253333D02*
X11565093Y-14266667D01*
X11565093Y-14266667D02*
X11561759Y-14273333D01*
X11561759Y-14273333D02*
X11558426Y-14276667D01*
X11558426Y-14276667D02*
X11551759Y-14280000D01*
X11551759Y-14280000D02*
X11545093Y-14280000D01*
X11545093Y-14280000D02*
X11538426Y-14276667D01*
X11538426Y-14276667D02*
X11535093Y-14273333D01*
X11535093Y-14273333D02*
X11531759Y-14266667D01*
X11531759Y-14266667D02*
X11531759Y-14250000D01*
X11531759Y-14250000D02*
X11535093Y-14240000D01*
X11531759Y-14220000D02*
X11531759Y-14180000D01*
X11601759Y-14200000D02*
X11531759Y-14200000D01*
X11528426Y-14106667D02*
X11618426Y-14166667D01*
X11581759Y-14086667D02*
X11581759Y-14053333D01*
X11601759Y-14093333D02*
X11531759Y-14070000D01*
X11531759Y-14070000D02*
X11601759Y-14046667D01*
X11601759Y-14023333D02*
X11531759Y-14023333D01*
X11531759Y-14023333D02*
X11531759Y-13996667D01*
X11531759Y-13996667D02*
X11535093Y-13990000D01*
X11535093Y-13990000D02*
X11538426Y-13986667D01*
X11538426Y-13986667D02*
X11545093Y-13983333D01*
X11545093Y-13983333D02*
X11555093Y-13983333D01*
X11555093Y-13983333D02*
X11561759Y-13986667D01*
X11561759Y-13986667D02*
X11565093Y-13990000D01*
X11565093Y-13990000D02*
X11568426Y-13996667D01*
X11568426Y-13996667D02*
X11568426Y-14023333D01*
X11575093Y-13953333D02*
X11575093Y-13900000D01*
X11601759Y-13866667D02*
X11531759Y-13866667D01*
X11531759Y-13866667D02*
X11581759Y-13843333D01*
X11581759Y-13843333D02*
X11531759Y-13820000D01*
X11531759Y-13820000D02*
X11601759Y-13820000D01*
X11601759Y-13776667D02*
X11598426Y-13783333D01*
X11598426Y-13783333D02*
X11595093Y-13786667D01*
X11595093Y-13786667D02*
X11588426Y-13790000D01*
X11588426Y-13790000D02*
X11568426Y-13790000D01*
X11568426Y-13790000D02*
X11561759Y-13786667D01*
X11561759Y-13786667D02*
X11558426Y-13783333D01*
X11558426Y-13783333D02*
X11555093Y-13776667D01*
X11555093Y-13776667D02*
X11555093Y-13766667D01*
X11555093Y-13766667D02*
X11558426Y-13760000D01*
X11558426Y-13760000D02*
X11561759Y-13756667D01*
X11561759Y-13756667D02*
X11568426Y-13753333D01*
X11568426Y-13753333D02*
X11588426Y-13753333D01*
X11588426Y-13753333D02*
X11595093Y-13756667D01*
X11595093Y-13756667D02*
X11598426Y-13760000D01*
X11598426Y-13760000D02*
X11601759Y-13766667D01*
X11601759Y-13766667D02*
X11601759Y-13776667D01*
X11601759Y-13693333D02*
X11531759Y-13693333D01*
X11598426Y-13693333D02*
X11601759Y-13700000D01*
X11601759Y-13700000D02*
X11601759Y-13713333D01*
X11601759Y-13713333D02*
X11598426Y-13720000D01*
X11598426Y-13720000D02*
X11595093Y-13723333D01*
X11595093Y-13723333D02*
X11588426Y-13726667D01*
X11588426Y-13726667D02*
X11568426Y-13726667D01*
X11568426Y-13726667D02*
X11561759Y-13723333D01*
X11561759Y-13723333D02*
X11558426Y-13720000D01*
X11558426Y-13720000D02*
X11555093Y-13713333D01*
X11555093Y-13713333D02*
X11555093Y-13700000D01*
X11555093Y-13700000D02*
X11558426Y-13693333D01*
X11598426Y-13633333D02*
X11601759Y-13640000D01*
X11601759Y-13640000D02*
X11601759Y-13653333D01*
X11601759Y-13653333D02*
X11598426Y-13660000D01*
X11598426Y-13660000D02*
X11591759Y-13663333D01*
X11591759Y-13663333D02*
X11565093Y-13663333D01*
X11565093Y-13663333D02*
X11558426Y-13660000D01*
X11558426Y-13660000D02*
X11555093Y-13653333D01*
X11555093Y-13653333D02*
X11555093Y-13640000D01*
X11555093Y-13640000D02*
X11558426Y-13633333D01*
X11558426Y-13633333D02*
X11565093Y-13630000D01*
X11565093Y-13630000D02*
X11571759Y-13630000D01*
X11571759Y-13630000D02*
X11578426Y-13663333D01*
D11*
X13258095Y-14196229D02*
X13273333Y-14196229D01*
X13273333Y-14196229D02*
X13280952Y-14200039D01*
X13280952Y-14200039D02*
X13288571Y-14207658D01*
X13288571Y-14207658D02*
X13292381Y-14222896D01*
X13292381Y-14222896D02*
X13292381Y-14249563D01*
X13292381Y-14249563D02*
X13288571Y-14264801D01*
X13288571Y-14264801D02*
X13280952Y-14272420D01*
X13280952Y-14272420D02*
X13273333Y-14276229D01*
X13273333Y-14276229D02*
X13258095Y-14276229D01*
X13258095Y-14276229D02*
X13250476Y-14272420D01*
X13250476Y-14272420D02*
X13242857Y-14264801D01*
X13242857Y-14264801D02*
X13239048Y-14249563D01*
X13239048Y-14249563D02*
X13239048Y-14222896D01*
X13239048Y-14222896D02*
X13242857Y-14207658D01*
X13242857Y-14207658D02*
X13250476Y-14200039D01*
X13250476Y-14200039D02*
X13258095Y-14196229D01*
X13353333Y-14234325D02*
X13326667Y-14234325D01*
X13326667Y-14276229D02*
X13326667Y-14196229D01*
X13326667Y-14196229D02*
X13364762Y-14196229D01*
X13421905Y-14234325D02*
X13395238Y-14234325D01*
X13395238Y-14276229D02*
X13395238Y-14196229D01*
X13395238Y-14196229D02*
X13433333Y-14196229D01*
X13520952Y-14192420D02*
X13452381Y-14295277D01*
X13562857Y-14196229D02*
X13578095Y-14196229D01*
X13578095Y-14196229D02*
X13585714Y-14200039D01*
X13585714Y-14200039D02*
X13593333Y-14207658D01*
X13593333Y-14207658D02*
X13597143Y-14222896D01*
X13597143Y-14222896D02*
X13597143Y-14249563D01*
X13597143Y-14249563D02*
X13593333Y-14264801D01*
X13593333Y-14264801D02*
X13585714Y-14272420D01*
X13585714Y-14272420D02*
X13578095Y-14276229D01*
X13578095Y-14276229D02*
X13562857Y-14276229D01*
X13562857Y-14276229D02*
X13555238Y-14272420D01*
X13555238Y-14272420D02*
X13547619Y-14264801D01*
X13547619Y-14264801D02*
X13543809Y-14249563D01*
X13543809Y-14249563D02*
X13543809Y-14222896D01*
X13543809Y-14222896D02*
X13547619Y-14207658D01*
X13547619Y-14207658D02*
X13555238Y-14200039D01*
X13555238Y-14200039D02*
X13562857Y-14196229D01*
X13631428Y-14276229D02*
X13631428Y-14196229D01*
X13631428Y-14196229D02*
X13677143Y-14276229D01*
X13677143Y-14276229D02*
X13677143Y-14196229D01*
X17740952Y-13645458D02*
X17736190Y-13650220D01*
X17736190Y-13650220D02*
X17721905Y-13654982D01*
X17721905Y-13654982D02*
X17712381Y-13654982D01*
X17712381Y-13654982D02*
X17698095Y-13650220D01*
X17698095Y-13650220D02*
X17688571Y-13640696D01*
X17688571Y-13640696D02*
X17683810Y-13631172D01*
X17683810Y-13631172D02*
X17679048Y-13612125D01*
X17679048Y-13612125D02*
X17679048Y-13597839D01*
X17679048Y-13597839D02*
X17683810Y-13578791D01*
X17683810Y-13578791D02*
X17688571Y-13569268D01*
X17688571Y-13569268D02*
X17698095Y-13559744D01*
X17698095Y-13559744D02*
X17712381Y-13554982D01*
X17712381Y-13554982D02*
X17721905Y-13554982D01*
X17721905Y-13554982D02*
X17736190Y-13559744D01*
X17736190Y-13559744D02*
X17740952Y-13564506D01*
X17017143Y-13603101D02*
X17031429Y-13607863D01*
X17031429Y-13607863D02*
X17036190Y-13612625D01*
X17036190Y-13612625D02*
X17040952Y-13622148D01*
X17040952Y-13622148D02*
X17040952Y-13636434D01*
X17040952Y-13636434D02*
X17036190Y-13645958D01*
X17036190Y-13645958D02*
X17031429Y-13650720D01*
X17031429Y-13650720D02*
X17021905Y-13655482D01*
X17021905Y-13655482D02*
X16983810Y-13655482D01*
X16983810Y-13655482D02*
X16983810Y-13555482D01*
X16983810Y-13555482D02*
X17017143Y-13555482D01*
X17017143Y-13555482D02*
X17026667Y-13560244D01*
X17026667Y-13560244D02*
X17031429Y-13565006D01*
X17031429Y-13565006D02*
X17036190Y-13574529D01*
X17036190Y-13574529D02*
X17036190Y-13584053D01*
X17036190Y-13584053D02*
X17031429Y-13593577D01*
X17031429Y-13593577D02*
X17026667Y-13598339D01*
X17026667Y-13598339D02*
X17017143Y-13603101D01*
X17017143Y-13603101D02*
X16983810Y-13603101D01*
D10*
X15136000Y-9737133D02*
X15116000Y-9708562D01*
X15101714Y-9737133D02*
X15101714Y-9677133D01*
X15101714Y-9677133D02*
X15124571Y-9677133D01*
X15124571Y-9677133D02*
X15130286Y-9679990D01*
X15130286Y-9679990D02*
X15133143Y-9682847D01*
X15133143Y-9682847D02*
X15136000Y-9688562D01*
X15136000Y-9688562D02*
X15136000Y-9697133D01*
X15136000Y-9697133D02*
X15133143Y-9702847D01*
X15133143Y-9702847D02*
X15130286Y-9705705D01*
X15130286Y-9705705D02*
X15124571Y-9708562D01*
X15124571Y-9708562D02*
X15101714Y-9708562D01*
X15184571Y-9734276D02*
X15178857Y-9737133D01*
X15178857Y-9737133D02*
X15167429Y-9737133D01*
X15167429Y-9737133D02*
X15161714Y-9734276D01*
X15161714Y-9734276D02*
X15158857Y-9728562D01*
X15158857Y-9728562D02*
X15158857Y-9705705D01*
X15158857Y-9705705D02*
X15161714Y-9699990D01*
X15161714Y-9699990D02*
X15167429Y-9697133D01*
X15167429Y-9697133D02*
X15178857Y-9697133D01*
X15178857Y-9697133D02*
X15184571Y-9699990D01*
X15184571Y-9699990D02*
X15187429Y-9705705D01*
X15187429Y-9705705D02*
X15187429Y-9711419D01*
X15187429Y-9711419D02*
X15158857Y-9717133D01*
X15210286Y-9734276D02*
X15216000Y-9737133D01*
X15216000Y-9737133D02*
X15227429Y-9737133D01*
X15227429Y-9737133D02*
X15233143Y-9734276D01*
X15233143Y-9734276D02*
X15236000Y-9728562D01*
X15236000Y-9728562D02*
X15236000Y-9725705D01*
X15236000Y-9725705D02*
X15233143Y-9719990D01*
X15233143Y-9719990D02*
X15227429Y-9717133D01*
X15227429Y-9717133D02*
X15218857Y-9717133D01*
X15218857Y-9717133D02*
X15213143Y-9714276D01*
X15213143Y-9714276D02*
X15210286Y-9708562D01*
X15210286Y-9708562D02*
X15210286Y-9705705D01*
X15210286Y-9705705D02*
X15213143Y-9699990D01*
X15213143Y-9699990D02*
X15218857Y-9697133D01*
X15218857Y-9697133D02*
X15227429Y-9697133D01*
X15227429Y-9697133D02*
X15233143Y-9699990D01*
X15284571Y-9734276D02*
X15278857Y-9737133D01*
X15278857Y-9737133D02*
X15267429Y-9737133D01*
X15267429Y-9737133D02*
X15261714Y-9734276D01*
X15261714Y-9734276D02*
X15258857Y-9728562D01*
X15258857Y-9728562D02*
X15258857Y-9705705D01*
X15258857Y-9705705D02*
X15261714Y-9699990D01*
X15261714Y-9699990D02*
X15267429Y-9697133D01*
X15267429Y-9697133D02*
X15278857Y-9697133D01*
X15278857Y-9697133D02*
X15284571Y-9699990D01*
X15284571Y-9699990D02*
X15287429Y-9705705D01*
X15287429Y-9705705D02*
X15287429Y-9711419D01*
X15287429Y-9711419D02*
X15258857Y-9717133D01*
X15304571Y-9697133D02*
X15327429Y-9697133D01*
X15313143Y-9677133D02*
X15313143Y-9728562D01*
X15313143Y-9728562D02*
X15316000Y-9734276D01*
X15316000Y-9734276D02*
X15321714Y-9737133D01*
X15321714Y-9737133D02*
X15327429Y-9737133D01*
X15413143Y-9705705D02*
X15421714Y-9708562D01*
X15421714Y-9708562D02*
X15424571Y-9711419D01*
X15424571Y-9711419D02*
X15427429Y-9717133D01*
X15427429Y-9717133D02*
X15427429Y-9725705D01*
X15427429Y-9725705D02*
X15424571Y-9731419D01*
X15424571Y-9731419D02*
X15421714Y-9734276D01*
X15421714Y-9734276D02*
X15416000Y-9737133D01*
X15416000Y-9737133D02*
X15393143Y-9737133D01*
X15393143Y-9737133D02*
X15393143Y-9677133D01*
X15393143Y-9677133D02*
X15413143Y-9677133D01*
X15413143Y-9677133D02*
X15418857Y-9679990D01*
X15418857Y-9679990D02*
X15421714Y-9682847D01*
X15421714Y-9682847D02*
X15424571Y-9688562D01*
X15424571Y-9688562D02*
X15424571Y-9694276D01*
X15424571Y-9694276D02*
X15421714Y-9699990D01*
X15421714Y-9699990D02*
X15418857Y-9702847D01*
X15418857Y-9702847D02*
X15413143Y-9705705D01*
X15413143Y-9705705D02*
X15393143Y-9705705D01*
X15453143Y-9737133D02*
X15453143Y-9677133D01*
X15453143Y-9677133D02*
X15473143Y-9719990D01*
X15473143Y-9719990D02*
X15493143Y-9677133D01*
X15493143Y-9677133D02*
X15493143Y-9737133D01*
X15518857Y-9734276D02*
X15527429Y-9737133D01*
X15527429Y-9737133D02*
X15541714Y-9737133D01*
X15541714Y-9737133D02*
X15547429Y-9734276D01*
X15547429Y-9734276D02*
X15550286Y-9731419D01*
X15550286Y-9731419D02*
X15553143Y-9725705D01*
X15553143Y-9725705D02*
X15553143Y-9719990D01*
X15553143Y-9719990D02*
X15550286Y-9714276D01*
X15550286Y-9714276D02*
X15547429Y-9711419D01*
X15547429Y-9711419D02*
X15541714Y-9708562D01*
X15541714Y-9708562D02*
X15530286Y-9705705D01*
X15530286Y-9705705D02*
X15524571Y-9702847D01*
X15524571Y-9702847D02*
X15521714Y-9699990D01*
X15521714Y-9699990D02*
X15518857Y-9694276D01*
X15518857Y-9694276D02*
X15518857Y-9688562D01*
X15518857Y-9688562D02*
X15521714Y-9682847D01*
X15521714Y-9682847D02*
X15524571Y-9679990D01*
X15524571Y-9679990D02*
X15530286Y-9677133D01*
X15530286Y-9677133D02*
X15544571Y-9677133D01*
X15544571Y-9677133D02*
X15553143Y-9679990D01*
D11*
X16281190Y-13626410D02*
X16328809Y-13626410D01*
X16271667Y-13654982D02*
X16305000Y-13554982D01*
X16305000Y-13554982D02*
X16338333Y-13654982D01*
X13095714Y-13782420D02*
X13107143Y-13786229D01*
X13107143Y-13786229D02*
X13126190Y-13786229D01*
X13126190Y-13786229D02*
X13133809Y-13782420D01*
X13133809Y-13782420D02*
X13137619Y-13778610D01*
X13137619Y-13778610D02*
X13141428Y-13770991D01*
X13141428Y-13770991D02*
X13141428Y-13763372D01*
X13141428Y-13763372D02*
X13137619Y-13755753D01*
X13137619Y-13755753D02*
X13133809Y-13751944D01*
X13133809Y-13751944D02*
X13126190Y-13748134D01*
X13126190Y-13748134D02*
X13110952Y-13744325D01*
X13110952Y-13744325D02*
X13103333Y-13740515D01*
X13103333Y-13740515D02*
X13099524Y-13736706D01*
X13099524Y-13736706D02*
X13095714Y-13729087D01*
X13095714Y-13729087D02*
X13095714Y-13721468D01*
X13095714Y-13721468D02*
X13099524Y-13713848D01*
X13099524Y-13713848D02*
X13103333Y-13710039D01*
X13103333Y-13710039D02*
X13110952Y-13706229D01*
X13110952Y-13706229D02*
X13130000Y-13706229D01*
X13130000Y-13706229D02*
X13141428Y-13710039D01*
X13164286Y-13706229D02*
X13210000Y-13706229D01*
X13187143Y-13786229D02*
X13187143Y-13706229D01*
X13232857Y-13763372D02*
X13270952Y-13763372D01*
X13225238Y-13786229D02*
X13251905Y-13706229D01*
X13251905Y-13706229D02*
X13278571Y-13786229D01*
X13293809Y-13706229D02*
X13339524Y-13706229D01*
X13316667Y-13786229D02*
X13316667Y-13706229D01*
X13366190Y-13744325D02*
X13392857Y-13744325D01*
X13404286Y-13786229D02*
X13366190Y-13786229D01*
X13366190Y-13786229D02*
X13366190Y-13706229D01*
X13366190Y-13706229D02*
X13404286Y-13706229D01*
D10*
X15840491Y-11347629D02*
X15811920Y-11367629D01*
X15840491Y-11381915D02*
X15780491Y-11381915D01*
X15780491Y-11381915D02*
X15780491Y-11359057D01*
X15780491Y-11359057D02*
X15783348Y-11353343D01*
X15783348Y-11353343D02*
X15786206Y-11350486D01*
X15786206Y-11350486D02*
X15791920Y-11347629D01*
X15791920Y-11347629D02*
X15800491Y-11347629D01*
X15800491Y-11347629D02*
X15806206Y-11350486D01*
X15806206Y-11350486D02*
X15809063Y-11353343D01*
X15809063Y-11353343D02*
X15811920Y-11359057D01*
X15811920Y-11359057D02*
X15811920Y-11381915D01*
X15837634Y-11324772D02*
X15840491Y-11316200D01*
X15840491Y-11316200D02*
X15840491Y-11301915D01*
X15840491Y-11301915D02*
X15837634Y-11296200D01*
X15837634Y-11296200D02*
X15834777Y-11293343D01*
X15834777Y-11293343D02*
X15829063Y-11290486D01*
X15829063Y-11290486D02*
X15823348Y-11290486D01*
X15823348Y-11290486D02*
X15817634Y-11293343D01*
X15817634Y-11293343D02*
X15814777Y-11296200D01*
X15814777Y-11296200D02*
X15811920Y-11301915D01*
X15811920Y-11301915D02*
X15809063Y-11313343D01*
X15809063Y-11313343D02*
X15806206Y-11319057D01*
X15806206Y-11319057D02*
X15803348Y-11321915D01*
X15803348Y-11321915D02*
X15797634Y-11324772D01*
X15797634Y-11324772D02*
X15791920Y-11324772D01*
X15791920Y-11324772D02*
X15786206Y-11321915D01*
X15786206Y-11321915D02*
X15783348Y-11319057D01*
X15783348Y-11319057D02*
X15780491Y-11313343D01*
X15780491Y-11313343D02*
X15780491Y-11299057D01*
X15780491Y-11299057D02*
X15783348Y-11290486D01*
X15780491Y-11273343D02*
X15780491Y-11239057D01*
X15840491Y-11256200D02*
X15780491Y-11256200D01*
X15780491Y-11179057D02*
X15780491Y-11139057D01*
X15780491Y-11139057D02*
X15840491Y-11179057D01*
X15840491Y-11179057D02*
X15840491Y-11139057D01*
X15800491Y-11090486D02*
X15840491Y-11090486D01*
X15800491Y-11116200D02*
X15831920Y-11116200D01*
X15831920Y-11116200D02*
X15837634Y-11113343D01*
X15837634Y-11113343D02*
X15840491Y-11107629D01*
X15840491Y-11107629D02*
X15840491Y-11099057D01*
X15840491Y-11099057D02*
X15837634Y-11093343D01*
X15837634Y-11093343D02*
X15834777Y-11090486D01*
X15840491Y-11061915D02*
X15800491Y-11061915D01*
X15806206Y-11061915D02*
X15803348Y-11059057D01*
X15803348Y-11059057D02*
X15800491Y-11053343D01*
X15800491Y-11053343D02*
X15800491Y-11044772D01*
X15800491Y-11044772D02*
X15803348Y-11039057D01*
X15803348Y-11039057D02*
X15809063Y-11036200D01*
X15809063Y-11036200D02*
X15840491Y-11036200D01*
X15809063Y-11036200D02*
X15803348Y-11033343D01*
X15803348Y-11033343D02*
X15800491Y-11027629D01*
X15800491Y-11027629D02*
X15800491Y-11019057D01*
X15800491Y-11019057D02*
X15803348Y-11013343D01*
X15803348Y-11013343D02*
X15809063Y-11010486D01*
X15809063Y-11010486D02*
X15840491Y-11010486D01*
X15840491Y-10973343D02*
X15837634Y-10979057D01*
X15837634Y-10979057D02*
X15834777Y-10981915D01*
X15834777Y-10981915D02*
X15829063Y-10984772D01*
X15829063Y-10984772D02*
X15811920Y-10984772D01*
X15811920Y-10984772D02*
X15806206Y-10981915D01*
X15806206Y-10981915D02*
X15803348Y-10979057D01*
X15803348Y-10979057D02*
X15800491Y-10973343D01*
X15800491Y-10973343D02*
X15800491Y-10964772D01*
X15800491Y-10964772D02*
X15803348Y-10959057D01*
X15803348Y-10959057D02*
X15806206Y-10956200D01*
X15806206Y-10956200D02*
X15811920Y-10953343D01*
X15811920Y-10953343D02*
X15829063Y-10953343D01*
X15829063Y-10953343D02*
X15834777Y-10956200D01*
X15834777Y-10956200D02*
X15837634Y-10959057D01*
X15837634Y-10959057D02*
X15840491Y-10964772D01*
X15840491Y-10964772D02*
X15840491Y-10973343D01*
X13706429Y-11555704D02*
X13715000Y-11558562D01*
X13715000Y-11558562D02*
X13717857Y-11561419D01*
X13717857Y-11561419D02*
X13720714Y-11567133D01*
X13720714Y-11567133D02*
X13720714Y-11575704D01*
X13720714Y-11575704D02*
X13717857Y-11581419D01*
X13717857Y-11581419D02*
X13715000Y-11584276D01*
X13715000Y-11584276D02*
X13709286Y-11587133D01*
X13709286Y-11587133D02*
X13686429Y-11587133D01*
X13686429Y-11587133D02*
X13686429Y-11527133D01*
X13686429Y-11527133D02*
X13706429Y-11527133D01*
X13706429Y-11527133D02*
X13712143Y-11529990D01*
X13712143Y-11529990D02*
X13715000Y-11532847D01*
X13715000Y-11532847D02*
X13717857Y-11538562D01*
X13717857Y-11538562D02*
X13717857Y-11544276D01*
X13717857Y-11544276D02*
X13715000Y-11549990D01*
X13715000Y-11549990D02*
X13712143Y-11552847D01*
X13712143Y-11552847D02*
X13706429Y-11555704D01*
X13706429Y-11555704D02*
X13686429Y-11555704D01*
X13757857Y-11527133D02*
X13769286Y-11527133D01*
X13769286Y-11527133D02*
X13775000Y-11529990D01*
X13775000Y-11529990D02*
X13780714Y-11535704D01*
X13780714Y-11535704D02*
X13783571Y-11547133D01*
X13783571Y-11547133D02*
X13783571Y-11567133D01*
X13783571Y-11567133D02*
X13780714Y-11578562D01*
X13780714Y-11578562D02*
X13775000Y-11584276D01*
X13775000Y-11584276D02*
X13769286Y-11587133D01*
X13769286Y-11587133D02*
X13757857Y-11587133D01*
X13757857Y-11587133D02*
X13752143Y-11584276D01*
X13752143Y-11584276D02*
X13746429Y-11578562D01*
X13746429Y-11578562D02*
X13743571Y-11567133D01*
X13743571Y-11567133D02*
X13743571Y-11547133D01*
X13743571Y-11547133D02*
X13746429Y-11535704D01*
X13746429Y-11535704D02*
X13752143Y-11529990D01*
X13752143Y-11529990D02*
X13757857Y-11527133D01*
X13820714Y-11527133D02*
X13832143Y-11527133D01*
X13832143Y-11527133D02*
X13837857Y-11529990D01*
X13837857Y-11529990D02*
X13843571Y-11535704D01*
X13843571Y-11535704D02*
X13846428Y-11547133D01*
X13846428Y-11547133D02*
X13846428Y-11567133D01*
X13846428Y-11567133D02*
X13843571Y-11578562D01*
X13843571Y-11578562D02*
X13837857Y-11584276D01*
X13837857Y-11584276D02*
X13832143Y-11587133D01*
X13832143Y-11587133D02*
X13820714Y-11587133D01*
X13820714Y-11587133D02*
X13815000Y-11584276D01*
X13815000Y-11584276D02*
X13809286Y-11578562D01*
X13809286Y-11578562D02*
X13806428Y-11567133D01*
X13806428Y-11567133D02*
X13806428Y-11547133D01*
X13806428Y-11547133D02*
X13809286Y-11535704D01*
X13809286Y-11535704D02*
X13815000Y-11529990D01*
X13815000Y-11529990D02*
X13820714Y-11527133D01*
X13863571Y-11527133D02*
X13897857Y-11527133D01*
X13880714Y-11587133D02*
X13880714Y-11527133D01*
X13963571Y-11587133D02*
X13963571Y-11527133D01*
X13963571Y-11527133D02*
X13983571Y-11569990D01*
X13983571Y-11569990D02*
X14003571Y-11527133D01*
X14003571Y-11527133D02*
X14003571Y-11587133D01*
X14040714Y-11587133D02*
X14035000Y-11584276D01*
X14035000Y-11584276D02*
X14032143Y-11581419D01*
X14032143Y-11581419D02*
X14029286Y-11575704D01*
X14029286Y-11575704D02*
X14029286Y-11558562D01*
X14029286Y-11558562D02*
X14032143Y-11552847D01*
X14032143Y-11552847D02*
X14035000Y-11549990D01*
X14035000Y-11549990D02*
X14040714Y-11547133D01*
X14040714Y-11547133D02*
X14049286Y-11547133D01*
X14049286Y-11547133D02*
X14055000Y-11549990D01*
X14055000Y-11549990D02*
X14057857Y-11552847D01*
X14057857Y-11552847D02*
X14060714Y-11558562D01*
X14060714Y-11558562D02*
X14060714Y-11575704D01*
X14060714Y-11575704D02*
X14057857Y-11581419D01*
X14057857Y-11581419D02*
X14055000Y-11584276D01*
X14055000Y-11584276D02*
X14049286Y-11587133D01*
X14049286Y-11587133D02*
X14040714Y-11587133D01*
X14112143Y-11587133D02*
X14112143Y-11527133D01*
X14112143Y-11584276D02*
X14106428Y-11587133D01*
X14106428Y-11587133D02*
X14095000Y-11587133D01*
X14095000Y-11587133D02*
X14089286Y-11584276D01*
X14089286Y-11584276D02*
X14086428Y-11581419D01*
X14086428Y-11581419D02*
X14083571Y-11575704D01*
X14083571Y-11575704D02*
X14083571Y-11558562D01*
X14083571Y-11558562D02*
X14086428Y-11552847D01*
X14086428Y-11552847D02*
X14089286Y-11549990D01*
X14089286Y-11549990D02*
X14095000Y-11547133D01*
X14095000Y-11547133D02*
X14106428Y-11547133D01*
X14106428Y-11547133D02*
X14112143Y-11549990D01*
X14163571Y-11584276D02*
X14157857Y-11587133D01*
X14157857Y-11587133D02*
X14146428Y-11587133D01*
X14146428Y-11587133D02*
X14140714Y-11584276D01*
X14140714Y-11584276D02*
X14137857Y-11578562D01*
X14137857Y-11578562D02*
X14137857Y-11555704D01*
X14137857Y-11555704D02*
X14140714Y-11549990D01*
X14140714Y-11549990D02*
X14146428Y-11547133D01*
X14146428Y-11547133D02*
X14157857Y-11547133D01*
X14157857Y-11547133D02*
X14163571Y-11549990D01*
X14163571Y-11549990D02*
X14166428Y-11555704D01*
X14166428Y-11555704D02*
X14166428Y-11561419D01*
X14166428Y-11561419D02*
X14137857Y-11567133D01*
D12*
G36*
X14580340Y-11126919D02*
G01*
X14582985Y-11129942D01*
X14586763Y-11140017D01*
X14589883Y-11164976D01*
X14585870Y-11197077D01*
X14576304Y-11222586D01*
X14569315Y-11233769D01*
X14564510Y-11238040D01*
X14554325Y-11242833D01*
X14547143Y-11242833D01*
X14539481Y-11238746D01*
X14536836Y-11235724D01*
X14533058Y-11225648D01*
X14529938Y-11200690D01*
X14533951Y-11168588D01*
X14543517Y-11143079D01*
X14550506Y-11131897D01*
X14555311Y-11127626D01*
X14565496Y-11122833D01*
X14572678Y-11122833D01*
X14580340Y-11126919D01*
G37*
G36*
X14636628Y-11289499D02*
G01*
X14137620Y-11289499D01*
X14137620Y-11107968D01*
X14154286Y-11107968D01*
X14154601Y-11110892D01*
X14185851Y-11260892D01*
X14186730Y-11263698D01*
X14187368Y-11264635D01*
X14187763Y-11265698D01*
X14189001Y-11267031D01*
X14190025Y-11268535D01*
X14190974Y-11269156D01*
X14191746Y-11269987D01*
X14193400Y-11270746D01*
X14194921Y-11271742D01*
X14196035Y-11271953D01*
X14197066Y-11272426D01*
X14198884Y-11272493D01*
X14200671Y-11272832D01*
X14201782Y-11272601D01*
X14202915Y-11272643D01*
X14204620Y-11272009D01*
X14206401Y-11271638D01*
X14207338Y-11271000D01*
X14208401Y-11270605D01*
X14209735Y-11269367D01*
X14211238Y-11268343D01*
X14211859Y-11267395D01*
X14212690Y-11266623D01*
X14214172Y-11264083D01*
X14222694Y-11245488D01*
X14273162Y-11245488D01*
X14275037Y-11251032D01*
X14276747Y-11253425D01*
X14282997Y-11260567D01*
X14284592Y-11262065D01*
X14284780Y-11262294D01*
X14284972Y-11262422D01*
X14285141Y-11262580D01*
X14285407Y-11262711D01*
X14287227Y-11263925D01*
X14300620Y-11271068D01*
X14303337Y-11272191D01*
X14304071Y-11272262D01*
X14304752Y-11272545D01*
X14307678Y-11272833D01*
X14350536Y-11272833D01*
X14353462Y-11272545D01*
X14353793Y-11272407D01*
X14354152Y-11272390D01*
X14356923Y-11271405D01*
X14372101Y-11264262D01*
X14372966Y-11263746D01*
X14373301Y-11263630D01*
X14373944Y-11263163D01*
X14374626Y-11262755D01*
X14374865Y-11262493D01*
X14375680Y-11261901D01*
X14383715Y-11254758D01*
X14384388Y-11254030D01*
X14384675Y-11253826D01*
X14385165Y-11253189D01*
X14385681Y-11252631D01*
X14422269Y-11252631D01*
X14422288Y-11252688D01*
X14422285Y-11252747D01*
X14423224Y-11255456D01*
X14424144Y-11258175D01*
X14424190Y-11258240D01*
X14424203Y-11258277D01*
X14424272Y-11258354D01*
X14425854Y-11260568D01*
X14432104Y-11267710D01*
X14433339Y-11268870D01*
X14433577Y-11269175D01*
X14433799Y-11269301D01*
X14434248Y-11269723D01*
X14434301Y-11269749D01*
X14434341Y-11269794D01*
X14436540Y-11270860D01*
X14438664Y-11272068D01*
X14439100Y-11272122D01*
X14439494Y-11272317D01*
X14439554Y-11272321D01*
X14439608Y-11272347D01*
X14442046Y-11272491D01*
X14444472Y-11272794D01*
X14444895Y-11272677D01*
X14445334Y-11272707D01*
X14445391Y-11272687D01*
X14445450Y-11272691D01*
X14447759Y-11271890D01*
X14450115Y-11271242D01*
X14450462Y-11270972D01*
X14450878Y-11270832D01*
X14450923Y-11270792D01*
X14450979Y-11270773D01*
X14453358Y-11269044D01*
X14461394Y-11261901D01*
X14463240Y-11259903D01*
X14463319Y-11259835D01*
X14463336Y-11259800D01*
X14463390Y-11259742D01*
X14464646Y-11257151D01*
X14465913Y-11254588D01*
X14465917Y-11254529D01*
X14465943Y-11254475D01*
X14466112Y-11251598D01*
X14466302Y-11248749D01*
X14466283Y-11248692D01*
X14466287Y-11248633D01*
X14465343Y-11245912D01*
X14464427Y-11243205D01*
X14464381Y-11243140D01*
X14464368Y-11243103D01*
X14464299Y-11243025D01*
X14462717Y-11240812D01*
X14456467Y-11233670D01*
X14455232Y-11232510D01*
X14454995Y-11232205D01*
X14454772Y-11232078D01*
X14454323Y-11231657D01*
X14454270Y-11231630D01*
X14454230Y-11231586D01*
X14452032Y-11230520D01*
X14449907Y-11229312D01*
X14449471Y-11229257D01*
X14449077Y-11229063D01*
X14449017Y-11229059D01*
X14448964Y-11229033D01*
X14446525Y-11228889D01*
X14444099Y-11228586D01*
X14443676Y-11228702D01*
X14443237Y-11228673D01*
X14443180Y-11228692D01*
X14443121Y-11228689D01*
X14440813Y-11229490D01*
X14438456Y-11230138D01*
X14438109Y-11230407D01*
X14437693Y-11230548D01*
X14437648Y-11230587D01*
X14437592Y-11230607D01*
X14435213Y-11232336D01*
X14427177Y-11239479D01*
X14425332Y-11241476D01*
X14425253Y-11241545D01*
X14425235Y-11241580D01*
X14425182Y-11241638D01*
X14423933Y-11244214D01*
X14422658Y-11246792D01*
X14422654Y-11246851D01*
X14422628Y-11246905D01*
X14422460Y-11249769D01*
X14422269Y-11252631D01*
X14385681Y-11252631D01*
X14385711Y-11252599D01*
X14385864Y-11252282D01*
X14386470Y-11251497D01*
X14395398Y-11237211D01*
X14396705Y-11234577D01*
X14396757Y-11234265D01*
X14396914Y-11233990D01*
X14397563Y-11231122D01*
X14401502Y-11199611D01*
X14499860Y-11199611D01*
X14499888Y-11200690D01*
X14499860Y-11201769D01*
X14499923Y-11201996D01*
X14499937Y-11202550D01*
X14503509Y-11231122D01*
X14503596Y-11231509D01*
X14503590Y-11231687D01*
X14503896Y-11232833D01*
X14504158Y-11233990D01*
X14504245Y-11234145D01*
X14504348Y-11234528D01*
X14509705Y-11248814D01*
X14510653Y-11250742D01*
X14510751Y-11251032D01*
X14510894Y-11251232D01*
X14511002Y-11251453D01*
X14511212Y-11251677D01*
X14512461Y-11253425D01*
X14518711Y-11260567D01*
X14520306Y-11262065D01*
X14520495Y-11262294D01*
X14520687Y-11262422D01*
X14520855Y-11262580D01*
X14521121Y-11262711D01*
X14522941Y-11263925D01*
X14536334Y-11271068D01*
X14539052Y-11272191D01*
X14539785Y-11272262D01*
X14540466Y-11272545D01*
X14543393Y-11272833D01*
X14557678Y-11272833D01*
X14560605Y-11272545D01*
X14560936Y-11272407D01*
X14561295Y-11272390D01*
X14564065Y-11271405D01*
X14579244Y-11264262D01*
X14580109Y-11263746D01*
X14580444Y-11263630D01*
X14581086Y-11263163D01*
X14581769Y-11262755D01*
X14582008Y-11262493D01*
X14582823Y-11261901D01*
X14590858Y-11254758D01*
X14591531Y-11254030D01*
X14591817Y-11253826D01*
X14592308Y-11253189D01*
X14592854Y-11252599D01*
X14593007Y-11252283D01*
X14593613Y-11251497D01*
X14602541Y-11237211D01*
X14602557Y-11237180D01*
X14602569Y-11237167D01*
X14603202Y-11235879D01*
X14603848Y-11234577D01*
X14603851Y-11234559D01*
X14603866Y-11234528D01*
X14614581Y-11205957D01*
X14614683Y-11205573D01*
X14614771Y-11205419D01*
X14615033Y-11204261D01*
X14615338Y-11203116D01*
X14615332Y-11202938D01*
X14615420Y-11202550D01*
X14619884Y-11166836D01*
X14619899Y-11166282D01*
X14619961Y-11166055D01*
X14619933Y-11164976D01*
X14619961Y-11163897D01*
X14619899Y-11163670D01*
X14619884Y-11163115D01*
X14616313Y-11134544D01*
X14616225Y-11134156D01*
X14616231Y-11133979D01*
X14615926Y-11132834D01*
X14615664Y-11131676D01*
X14615576Y-11131521D01*
X14615473Y-11131137D01*
X14610116Y-11116852D01*
X14609168Y-11114924D01*
X14609070Y-11114633D01*
X14608927Y-11114433D01*
X14608819Y-11114213D01*
X14608609Y-11113989D01*
X14607360Y-11112241D01*
X14601110Y-11105098D01*
X14599515Y-11103601D01*
X14599327Y-11103372D01*
X14599135Y-11103244D01*
X14598966Y-11103086D01*
X14598700Y-11102954D01*
X14596880Y-11101740D01*
X14583487Y-11094598D01*
X14580770Y-11093475D01*
X14580036Y-11093403D01*
X14579355Y-11093121D01*
X14576428Y-11092833D01*
X14562143Y-11092833D01*
X14559216Y-11093121D01*
X14558885Y-11093258D01*
X14558526Y-11093275D01*
X14555756Y-11094261D01*
X14540577Y-11101403D01*
X14539712Y-11101920D01*
X14539377Y-11102036D01*
X14538734Y-11102503D01*
X14538052Y-11102910D01*
X14537814Y-11103172D01*
X14536999Y-11103765D01*
X14528963Y-11110907D01*
X14528290Y-11111636D01*
X14528004Y-11111840D01*
X14527514Y-11112476D01*
X14526967Y-11113067D01*
X14526814Y-11113383D01*
X14526208Y-11114169D01*
X14517280Y-11128454D01*
X14517265Y-11128485D01*
X14517252Y-11128498D01*
X14516611Y-11129803D01*
X14515973Y-11131089D01*
X14515970Y-11131106D01*
X14515955Y-11131137D01*
X14505241Y-11159709D01*
X14505138Y-11160092D01*
X14505050Y-11160247D01*
X14504789Y-11161404D01*
X14504483Y-11162550D01*
X14504489Y-11162728D01*
X14504401Y-11163115D01*
X14499937Y-11198829D01*
X14499923Y-11199384D01*
X14499860Y-11199611D01*
X14401502Y-11199611D01*
X14402027Y-11195408D01*
X14402104Y-11192468D01*
X14401922Y-11191807D01*
X14401945Y-11191121D01*
X14401188Y-11188280D01*
X14395831Y-11173995D01*
X14394883Y-11172067D01*
X14394784Y-11171776D01*
X14394642Y-11171576D01*
X14394533Y-11171356D01*
X14394324Y-11171131D01*
X14393074Y-11169384D01*
X14386824Y-11162241D01*
X14385229Y-11160744D01*
X14385041Y-11160515D01*
X14384849Y-11160386D01*
X14384680Y-11160228D01*
X14384415Y-11160097D01*
X14382594Y-11158883D01*
X14373089Y-11153814D01*
X14408464Y-11118439D01*
X14410329Y-11116166D01*
X14412437Y-11111077D01*
X14412569Y-11110759D01*
X14412569Y-11104906D01*
X14411742Y-11102910D01*
X14410329Y-11099499D01*
X14406191Y-11095361D01*
X14402720Y-11093923D01*
X14400783Y-11093121D01*
X14397857Y-11092833D01*
X14305000Y-11092833D01*
X14302074Y-11093121D01*
X14296666Y-11095361D01*
X14292528Y-11099499D01*
X14290288Y-11104906D01*
X14290288Y-11110759D01*
X14292528Y-11116166D01*
X14296666Y-11120305D01*
X14302074Y-11122545D01*
X14305000Y-11122833D01*
X14361644Y-11122833D01*
X14330108Y-11154369D01*
X14328242Y-11156642D01*
X14327993Y-11157245D01*
X14326002Y-11162049D01*
X14326002Y-11167902D01*
X14326616Y-11169384D01*
X14328242Y-11173309D01*
X14332381Y-11177448D01*
X14334223Y-11178211D01*
X14337788Y-11179688D01*
X14340714Y-11179976D01*
X14358393Y-11179976D01*
X14366055Y-11184062D01*
X14368699Y-11187084D01*
X14371800Y-11195354D01*
X14368205Y-11224117D01*
X14362173Y-11233768D01*
X14357368Y-11238040D01*
X14347183Y-11242833D01*
X14311428Y-11242833D01*
X14303767Y-11238746D01*
X14299324Y-11233670D01*
X14297180Y-11231657D01*
X14291934Y-11229063D01*
X14286094Y-11228673D01*
X14280550Y-11230548D01*
X14276146Y-11234402D01*
X14273551Y-11239649D01*
X14273162Y-11245488D01*
X14222694Y-11245488D01*
X14282922Y-11114083D01*
X14283879Y-11111302D01*
X14284096Y-11105454D01*
X14282058Y-11099967D01*
X14278076Y-11095678D01*
X14272755Y-11093240D01*
X14266906Y-11093023D01*
X14261420Y-11095061D01*
X14257131Y-11099043D01*
X14255650Y-11101583D01*
X14205913Y-11210099D01*
X14183970Y-11104774D01*
X14183091Y-11101967D01*
X14179796Y-11097131D01*
X14174900Y-11093923D01*
X14169150Y-11092833D01*
X14163420Y-11094027D01*
X14158584Y-11097323D01*
X14155376Y-11102218D01*
X14154286Y-11107968D01*
X14137620Y-11107968D01*
X14137620Y-11076166D01*
X14636628Y-11076166D01*
X14636628Y-11289499D01*
G37*
D10*
X15797133Y-14312857D02*
X15768562Y-14332857D01*
X15797133Y-14347143D02*
X15737133Y-14347143D01*
X15737133Y-14347143D02*
X15737133Y-14324286D01*
X15737133Y-14324286D02*
X15739990Y-14318571D01*
X15739990Y-14318571D02*
X15742847Y-14315714D01*
X15742847Y-14315714D02*
X15748562Y-14312857D01*
X15748562Y-14312857D02*
X15757133Y-14312857D01*
X15757133Y-14312857D02*
X15762847Y-14315714D01*
X15762847Y-14315714D02*
X15765704Y-14318571D01*
X15765704Y-14318571D02*
X15768562Y-14324286D01*
X15768562Y-14324286D02*
X15768562Y-14347143D01*
X15794276Y-14264286D02*
X15797133Y-14270000D01*
X15797133Y-14270000D02*
X15797133Y-14281429D01*
X15797133Y-14281429D02*
X15794276Y-14287143D01*
X15794276Y-14287143D02*
X15788562Y-14290000D01*
X15788562Y-14290000D02*
X15765704Y-14290000D01*
X15765704Y-14290000D02*
X15759990Y-14287143D01*
X15759990Y-14287143D02*
X15757133Y-14281429D01*
X15757133Y-14281429D02*
X15757133Y-14270000D01*
X15757133Y-14270000D02*
X15759990Y-14264286D01*
X15759990Y-14264286D02*
X15765704Y-14261429D01*
X15765704Y-14261429D02*
X15771419Y-14261429D01*
X15771419Y-14261429D02*
X15777133Y-14290000D01*
X15794276Y-14238571D02*
X15797133Y-14232857D01*
X15797133Y-14232857D02*
X15797133Y-14221428D01*
X15797133Y-14221428D02*
X15794276Y-14215714D01*
X15794276Y-14215714D02*
X15788562Y-14212857D01*
X15788562Y-14212857D02*
X15785704Y-14212857D01*
X15785704Y-14212857D02*
X15779990Y-14215714D01*
X15779990Y-14215714D02*
X15777133Y-14221428D01*
X15777133Y-14221428D02*
X15777133Y-14230000D01*
X15777133Y-14230000D02*
X15774276Y-14235714D01*
X15774276Y-14235714D02*
X15768562Y-14238571D01*
X15768562Y-14238571D02*
X15765704Y-14238571D01*
X15765704Y-14238571D02*
X15759990Y-14235714D01*
X15759990Y-14235714D02*
X15757133Y-14230000D01*
X15757133Y-14230000D02*
X15757133Y-14221428D01*
X15757133Y-14221428D02*
X15759990Y-14215714D01*
X15794276Y-14164286D02*
X15797133Y-14170000D01*
X15797133Y-14170000D02*
X15797133Y-14181429D01*
X15797133Y-14181429D02*
X15794276Y-14187143D01*
X15794276Y-14187143D02*
X15788562Y-14190000D01*
X15788562Y-14190000D02*
X15765704Y-14190000D01*
X15765704Y-14190000D02*
X15759990Y-14187143D01*
X15759990Y-14187143D02*
X15757133Y-14181429D01*
X15757133Y-14181429D02*
X15757133Y-14170000D01*
X15757133Y-14170000D02*
X15759990Y-14164286D01*
X15759990Y-14164286D02*
X15765704Y-14161429D01*
X15765704Y-14161429D02*
X15771419Y-14161429D01*
X15771419Y-14161429D02*
X15777133Y-14190000D01*
X15757133Y-14144286D02*
X15757133Y-14121428D01*
X15737133Y-14135714D02*
X15788562Y-14135714D01*
X15788562Y-14135714D02*
X15794276Y-14132857D01*
X15794276Y-14132857D02*
X15797133Y-14127143D01*
X15797133Y-14127143D02*
X15797133Y-14121428D01*
X15765704Y-14055714D02*
X15765704Y-14035714D01*
X15797133Y-14027143D02*
X15797133Y-14055714D01*
X15797133Y-14055714D02*
X15737133Y-14055714D01*
X15737133Y-14055714D02*
X15737133Y-14027143D01*
X15794276Y-14004286D02*
X15797133Y-13995714D01*
X15797133Y-13995714D02*
X15797133Y-13981428D01*
X15797133Y-13981428D02*
X15794276Y-13975714D01*
X15794276Y-13975714D02*
X15791419Y-13972857D01*
X15791419Y-13972857D02*
X15785704Y-13970000D01*
X15785704Y-13970000D02*
X15779990Y-13970000D01*
X15779990Y-13970000D02*
X15774276Y-13972857D01*
X15774276Y-13972857D02*
X15771419Y-13975714D01*
X15771419Y-13975714D02*
X15768562Y-13981428D01*
X15768562Y-13981428D02*
X15765704Y-13992857D01*
X15765704Y-13992857D02*
X15762847Y-13998571D01*
X15762847Y-13998571D02*
X15759990Y-14001428D01*
X15759990Y-14001428D02*
X15754276Y-14004286D01*
X15754276Y-14004286D02*
X15748562Y-14004286D01*
X15748562Y-14004286D02*
X15742847Y-14001428D01*
X15742847Y-14001428D02*
X15739990Y-13998571D01*
X15739990Y-13998571D02*
X15737133Y-13992857D01*
X15737133Y-13992857D02*
X15737133Y-13978571D01*
X15737133Y-13978571D02*
X15739990Y-13970000D01*
X15797133Y-13944286D02*
X15737133Y-13944286D01*
X15737133Y-13944286D02*
X15737133Y-13921428D01*
X15737133Y-13921428D02*
X15739990Y-13915714D01*
X15739990Y-13915714D02*
X15742847Y-13912857D01*
X15742847Y-13912857D02*
X15748562Y-13910000D01*
X15748562Y-13910000D02*
X15757133Y-13910000D01*
X15757133Y-13910000D02*
X15762847Y-13912857D01*
X15762847Y-13912857D02*
X15765704Y-13915714D01*
X15765704Y-13915714D02*
X15768562Y-13921428D01*
X15768562Y-13921428D02*
X15768562Y-13944286D01*
D11*
X13617667Y-6245482D02*
X13617667Y-6316910D01*
X13617667Y-6316910D02*
X13612905Y-6331196D01*
X13612905Y-6331196D02*
X13603381Y-6340720D01*
X13603381Y-6340720D02*
X13589095Y-6345482D01*
X13589095Y-6345482D02*
X13579571Y-6345482D01*
X13708143Y-6245482D02*
X13689095Y-6245482D01*
X13689095Y-6245482D02*
X13679571Y-6250244D01*
X13679571Y-6250244D02*
X13674809Y-6255006D01*
X13674809Y-6255006D02*
X13665286Y-6269291D01*
X13665286Y-6269291D02*
X13660524Y-6288339D01*
X13660524Y-6288339D02*
X13660524Y-6326434D01*
X13660524Y-6326434D02*
X13665286Y-6335958D01*
X13665286Y-6335958D02*
X13670048Y-6340720D01*
X13670048Y-6340720D02*
X13679571Y-6345482D01*
X13679571Y-6345482D02*
X13698619Y-6345482D01*
X13698619Y-6345482D02*
X13708143Y-6340720D01*
X13708143Y-6340720D02*
X13712905Y-6335958D01*
X13712905Y-6335958D02*
X13717667Y-6326434D01*
X13717667Y-6326434D02*
X13717667Y-6302625D01*
X13717667Y-6302625D02*
X13712905Y-6293101D01*
X13712905Y-6293101D02*
X13708143Y-6288339D01*
X13708143Y-6288339D02*
X13698619Y-6283577D01*
X13698619Y-6283577D02*
X13679571Y-6283577D01*
X13679571Y-6283577D02*
X13670048Y-6288339D01*
X13670048Y-6288339D02*
X13665286Y-6293101D01*
X13665286Y-6293101D02*
X13660524Y-6302625D01*
X14348667Y-10762482D02*
X14348667Y-10833910D01*
X14348667Y-10833910D02*
X14343905Y-10848196D01*
X14343905Y-10848196D02*
X14334381Y-10857720D01*
X14334381Y-10857720D02*
X14320095Y-10862482D01*
X14320095Y-10862482D02*
X14310571Y-10862482D01*
X14386762Y-10762482D02*
X14453428Y-10762482D01*
X14453428Y-10762482D02*
X14410571Y-10862482D01*
X13968809Y-11675482D02*
X13968809Y-11756434D01*
X13968809Y-11756434D02*
X13973571Y-11765958D01*
X13973571Y-11765958D02*
X13978333Y-11770720D01*
X13978333Y-11770720D02*
X13987857Y-11775482D01*
X13987857Y-11775482D02*
X14006905Y-11775482D01*
X14006905Y-11775482D02*
X14016428Y-11770720D01*
X14016428Y-11770720D02*
X14021190Y-11765958D01*
X14021190Y-11765958D02*
X14025952Y-11756434D01*
X14025952Y-11756434D02*
X14025952Y-11675482D01*
X14125952Y-11775482D02*
X14068809Y-11775482D01*
X14097381Y-11775482D02*
X14097381Y-11675482D01*
X14097381Y-11675482D02*
X14087857Y-11689768D01*
X14087857Y-11689768D02*
X14078333Y-11699291D01*
X14078333Y-11699291D02*
X14068809Y-11704053D01*
X13899667Y-7139301D02*
X13899667Y-7210730D01*
X13899667Y-7210730D02*
X13894905Y-7225015D01*
X13894905Y-7225015D02*
X13885381Y-7234539D01*
X13885381Y-7234539D02*
X13871095Y-7239301D01*
X13871095Y-7239301D02*
X13861571Y-7239301D01*
X13937762Y-7139301D02*
X13999667Y-7139301D01*
X13999667Y-7139301D02*
X13966333Y-7177396D01*
X13966333Y-7177396D02*
X13980619Y-7177396D01*
X13980619Y-7177396D02*
X13990143Y-7182158D01*
X13990143Y-7182158D02*
X13994905Y-7186920D01*
X13994905Y-7186920D02*
X13999667Y-7196444D01*
X13999667Y-7196444D02*
X13999667Y-7220254D01*
X13999667Y-7220254D02*
X13994905Y-7229777D01*
X13994905Y-7229777D02*
X13990143Y-7234539D01*
X13990143Y-7234539D02*
X13980619Y-7239301D01*
X13980619Y-7239301D02*
X13952048Y-7239301D01*
X13952048Y-7239301D02*
X13942524Y-7234539D01*
X13942524Y-7234539D02*
X13937762Y-7229777D01*
X13563809Y-10769982D02*
X13620952Y-10769982D01*
X13592381Y-10869982D02*
X13592381Y-10769982D01*
X13654286Y-10869982D02*
X13654286Y-10769982D01*
X13654286Y-10769982D02*
X13692381Y-10769982D01*
X13692381Y-10769982D02*
X13701905Y-10774744D01*
X13701905Y-10774744D02*
X13706667Y-10779506D01*
X13706667Y-10779506D02*
X13711428Y-10789030D01*
X13711428Y-10789030D02*
X13711428Y-10803315D01*
X13711428Y-10803315D02*
X13706667Y-10812839D01*
X13706667Y-10812839D02*
X13701905Y-10817601D01*
X13701905Y-10817601D02*
X13692381Y-10822363D01*
X13692381Y-10822363D02*
X13654286Y-10822363D01*
X13801905Y-10769982D02*
X13754286Y-10769982D01*
X13754286Y-10769982D02*
X13749524Y-10817601D01*
X13749524Y-10817601D02*
X13754286Y-10812839D01*
X13754286Y-10812839D02*
X13763809Y-10808077D01*
X13763809Y-10808077D02*
X13787619Y-10808077D01*
X13787619Y-10808077D02*
X13797143Y-10812839D01*
X13797143Y-10812839D02*
X13801905Y-10817601D01*
X13801905Y-10817601D02*
X13806667Y-10827125D01*
X13806667Y-10827125D02*
X13806667Y-10850934D01*
X13806667Y-10850934D02*
X13801905Y-10860458D01*
X13801905Y-10860458D02*
X13797143Y-10865220D01*
X13797143Y-10865220D02*
X13787619Y-10869982D01*
X13787619Y-10869982D02*
X13763809Y-10869982D01*
X13763809Y-10869982D02*
X13754286Y-10865220D01*
X13754286Y-10865220D02*
X13749524Y-10860458D01*
X14617667Y-10128482D02*
X14617667Y-10199910D01*
X14617667Y-10199910D02*
X14612905Y-10214196D01*
X14612905Y-10214196D02*
X14603381Y-10223720D01*
X14603381Y-10223720D02*
X14589095Y-10228482D01*
X14589095Y-10228482D02*
X14579571Y-10228482D01*
X14717667Y-10228482D02*
X14660524Y-10228482D01*
X14689095Y-10228482D02*
X14689095Y-10128482D01*
X14689095Y-10128482D02*
X14679571Y-10142768D01*
X14679571Y-10142768D02*
X14670048Y-10152291D01*
X14670048Y-10152291D02*
X14660524Y-10157053D01*
X15507809Y-10677732D02*
X15564952Y-10677732D01*
X15536381Y-10777732D02*
X15536381Y-10677732D01*
X15598286Y-10777732D02*
X15598286Y-10677732D01*
X15598286Y-10677732D02*
X15636381Y-10677732D01*
X15636381Y-10677732D02*
X15645905Y-10682494D01*
X15645905Y-10682494D02*
X15650667Y-10687256D01*
X15650667Y-10687256D02*
X15655428Y-10696780D01*
X15655428Y-10696780D02*
X15655428Y-10711065D01*
X15655428Y-10711065D02*
X15650667Y-10720589D01*
X15650667Y-10720589D02*
X15645905Y-10725351D01*
X15645905Y-10725351D02*
X15636381Y-10730113D01*
X15636381Y-10730113D02*
X15598286Y-10730113D01*
X15741143Y-10677732D02*
X15722095Y-10677732D01*
X15722095Y-10677732D02*
X15712571Y-10682494D01*
X15712571Y-10682494D02*
X15707809Y-10687256D01*
X15707809Y-10687256D02*
X15698286Y-10701541D01*
X15698286Y-10701541D02*
X15693524Y-10720589D01*
X15693524Y-10720589D02*
X15693524Y-10758684D01*
X15693524Y-10758684D02*
X15698286Y-10768208D01*
X15698286Y-10768208D02*
X15703048Y-10772970D01*
X15703048Y-10772970D02*
X15712571Y-10777732D01*
X15712571Y-10777732D02*
X15731619Y-10777732D01*
X15731619Y-10777732D02*
X15741143Y-10772970D01*
X15741143Y-10772970D02*
X15745905Y-10768208D01*
X15745905Y-10768208D02*
X15750667Y-10758684D01*
X15750667Y-10758684D02*
X15750667Y-10734875D01*
X15750667Y-10734875D02*
X15745905Y-10725351D01*
X15745905Y-10725351D02*
X15741143Y-10720589D01*
X15741143Y-10720589D02*
X15731619Y-10715827D01*
X15731619Y-10715827D02*
X15712571Y-10715827D01*
X15712571Y-10715827D02*
X15703048Y-10720589D01*
X15703048Y-10720589D02*
X15698286Y-10725351D01*
X15698286Y-10725351D02*
X15693524Y-10734875D01*
D10*
%TO.C,SW1*%
X11640000Y-14112500D02*
X11640000Y-13862500D01*
X11685000Y-13817500D02*
X11640000Y-13862500D01*
X11685000Y-14157500D02*
X11640000Y-14112500D01*
X11815000Y-13712500D02*
X12015000Y-13712500D01*
X11815000Y-14262500D02*
X12015000Y-14262500D01*
X12145000Y-13817500D02*
X12190000Y-13862500D01*
X12145000Y-14157500D02*
X12190000Y-14112500D01*
X12190000Y-14112500D02*
X12190000Y-13862500D01*
D11*
%TO.C,D1*%
X12487500Y-13700000D02*
X12487500Y-13600000D01*
X13037500Y-13600000D02*
X12487500Y-13600000D01*
X13037500Y-13900000D02*
X12497500Y-13900000D01*
D13*
%TO.C,Logo1*%
X15417422Y-11376974D02*
X15419325Y-11377192D01*
X15423285Y-11378765D01*
X15425728Y-11381567D01*
X15426539Y-11385360D01*
X15425605Y-11389903D01*
X15425501Y-11390168D01*
X15423747Y-11393074D01*
X15420706Y-11396679D01*
X15416799Y-11400585D01*
X15412449Y-11404392D01*
X15408078Y-11407703D01*
X15404737Y-11409787D01*
X15401646Y-11411342D01*
X15399328Y-11411979D01*
X15396831Y-11411851D01*
X15394619Y-11411422D01*
X15387838Y-11410498D01*
X15380193Y-11410509D01*
X15371326Y-11411467D01*
X15365553Y-11412448D01*
X15354191Y-11414587D01*
X15351611Y-11421855D01*
X15349160Y-11429567D01*
X15346620Y-11439065D01*
X15344030Y-11450110D01*
X15341432Y-11462460D01*
X15338867Y-11475876D01*
X15336375Y-11490116D01*
X15333997Y-11504940D01*
X15331775Y-11520107D01*
X15329748Y-11535376D01*
X15327958Y-11550506D01*
X15326445Y-11565258D01*
X15325557Y-11575436D01*
X15325093Y-11581582D01*
X15324847Y-11586299D01*
X15324840Y-11590181D01*
X15325092Y-11593820D01*
X15325621Y-11597811D01*
X15326447Y-11602747D01*
X15326468Y-11602868D01*
X15329816Y-11623849D01*
X15332245Y-11643554D01*
X15333799Y-11662497D01*
X15334518Y-11681195D01*
X15334447Y-11700162D01*
X15334442Y-11700345D01*
X15333935Y-11714362D01*
X15333116Y-11726472D01*
X15331968Y-11736779D01*
X15330472Y-11745387D01*
X15328609Y-11752398D01*
X15326362Y-11757918D01*
X15323710Y-11762050D01*
X15323356Y-11762467D01*
X15320827Y-11764894D01*
X15318483Y-11765747D01*
X15315580Y-11765183D01*
X15313823Y-11764477D01*
X15311370Y-11762945D01*
X15309229Y-11760479D01*
X15307246Y-11756801D01*
X15305268Y-11751633D01*
X15303403Y-11745608D01*
X15300357Y-11733727D01*
X15297764Y-11720683D01*
X15295614Y-11706359D01*
X15293897Y-11690638D01*
X15292602Y-11673403D01*
X15291719Y-11654537D01*
X15291237Y-11633924D01*
X15291146Y-11611446D01*
X15291162Y-11608448D01*
X15291441Y-11564252D01*
X15287730Y-11554980D01*
X15284599Y-11545914D01*
X15282971Y-11538021D01*
X15282833Y-11531123D01*
X15284173Y-11525041D01*
X15285405Y-11522225D01*
X15287257Y-11519569D01*
X15289403Y-11518712D01*
X15292312Y-11519527D01*
X15293355Y-11520052D01*
X15296870Y-11521937D01*
X15298024Y-11516678D01*
X15298641Y-11513471D01*
X15299405Y-11508920D01*
X15300207Y-11503701D01*
X15300770Y-11499736D01*
X15301399Y-11495699D01*
X15302390Y-11490051D01*
X15303673Y-11483166D01*
X15305174Y-11475420D01*
X15306824Y-11467186D01*
X15308549Y-11458839D01*
X15308906Y-11457149D01*
X15310521Y-11449491D01*
X15311992Y-11442471D01*
X15313266Y-11436334D01*
X15314294Y-11431329D01*
X15315023Y-11427704D01*
X15315404Y-11425704D01*
X15315448Y-11425399D01*
X15314580Y-11424755D01*
X15312984Y-11424552D01*
X15311072Y-11424884D01*
X15307519Y-11425819D01*
X15302595Y-11427269D01*
X15296570Y-11429144D01*
X15289712Y-11431355D01*
X15282292Y-11433811D01*
X15274578Y-11436424D01*
X15266841Y-11439104D01*
X15259350Y-11441762D01*
X15252375Y-11444308D01*
X15246184Y-11446653D01*
X15244983Y-11447122D01*
X15238505Y-11449637D01*
X15233629Y-11451448D01*
X15230083Y-11452636D01*
X15227593Y-11453279D01*
X15225887Y-11453458D01*
X15224693Y-11453253D01*
X15224437Y-11453149D01*
X15222237Y-11451281D01*
X15221288Y-11448148D01*
X15221550Y-11443579D01*
X15221918Y-11441626D01*
X15224509Y-11433681D01*
X15228699Y-11426853D01*
X15234587Y-11421015D01*
X15241870Y-11416259D01*
X15244689Y-11414952D01*
X15249148Y-11413156D01*
X15254942Y-11410974D01*
X15261768Y-11408508D01*
X15269320Y-11405864D01*
X15277296Y-11403143D01*
X15285390Y-11400449D01*
X15293300Y-11397885D01*
X15300719Y-11395554D01*
X15307346Y-11393561D01*
X15312874Y-11392008D01*
X15314587Y-11391564D01*
X15322434Y-11389723D01*
X15331268Y-11387879D01*
X15340832Y-11386066D01*
X15350869Y-11384320D01*
X15361123Y-11382676D01*
X15371338Y-11381169D01*
X15381256Y-11379834D01*
X15390621Y-11378706D01*
X15399177Y-11377821D01*
X15406667Y-11377214D01*
X15412834Y-11376920D01*
X15417422Y-11376974D01*
G36*
X15417422Y-11376974D02*
G01*
X15419325Y-11377192D01*
X15423285Y-11378765D01*
X15425728Y-11381567D01*
X15426539Y-11385360D01*
X15425605Y-11389903D01*
X15425501Y-11390168D01*
X15423747Y-11393074D01*
X15420706Y-11396679D01*
X15416799Y-11400585D01*
X15412449Y-11404392D01*
X15408078Y-11407703D01*
X15404737Y-11409787D01*
X15401646Y-11411342D01*
X15399328Y-11411979D01*
X15396831Y-11411851D01*
X15394619Y-11411422D01*
X15387838Y-11410498D01*
X15380193Y-11410509D01*
X15371326Y-11411467D01*
X15365553Y-11412448D01*
X15354191Y-11414587D01*
X15351611Y-11421855D01*
X15349160Y-11429567D01*
X15346620Y-11439065D01*
X15344030Y-11450110D01*
X15341432Y-11462460D01*
X15338867Y-11475876D01*
X15336375Y-11490116D01*
X15333997Y-11504940D01*
X15331775Y-11520107D01*
X15329748Y-11535376D01*
X15327958Y-11550506D01*
X15326445Y-11565258D01*
X15325557Y-11575436D01*
X15325093Y-11581582D01*
X15324847Y-11586299D01*
X15324840Y-11590181D01*
X15325092Y-11593820D01*
X15325621Y-11597811D01*
X15326447Y-11602747D01*
X15326468Y-11602868D01*
X15329816Y-11623849D01*
X15332245Y-11643554D01*
X15333799Y-11662497D01*
X15334518Y-11681195D01*
X15334447Y-11700162D01*
X15334442Y-11700345D01*
X15333935Y-11714362D01*
X15333116Y-11726472D01*
X15331968Y-11736779D01*
X15330472Y-11745387D01*
X15328609Y-11752398D01*
X15326362Y-11757918D01*
X15323710Y-11762050D01*
X15323356Y-11762467D01*
X15320827Y-11764894D01*
X15318483Y-11765747D01*
X15315580Y-11765183D01*
X15313823Y-11764477D01*
X15311370Y-11762945D01*
X15309229Y-11760479D01*
X15307246Y-11756801D01*
X15305268Y-11751633D01*
X15303403Y-11745608D01*
X15300357Y-11733727D01*
X15297764Y-11720683D01*
X15295614Y-11706359D01*
X15293897Y-11690638D01*
X15292602Y-11673403D01*
X15291719Y-11654537D01*
X15291237Y-11633924D01*
X15291146Y-11611446D01*
X15291162Y-11608448D01*
X15291441Y-11564252D01*
X15287730Y-11554980D01*
X15284599Y-11545914D01*
X15282971Y-11538021D01*
X15282833Y-11531123D01*
X15284173Y-11525041D01*
X15285405Y-11522225D01*
X15287257Y-11519569D01*
X15289403Y-11518712D01*
X15292312Y-11519527D01*
X15293355Y-11520052D01*
X15296870Y-11521937D01*
X15298024Y-11516678D01*
X15298641Y-11513471D01*
X15299405Y-11508920D01*
X15300207Y-11503701D01*
X15300770Y-11499736D01*
X15301399Y-11495699D01*
X15302390Y-11490051D01*
X15303673Y-11483166D01*
X15305174Y-11475420D01*
X15306824Y-11467186D01*
X15308549Y-11458839D01*
X15308906Y-11457149D01*
X15310521Y-11449491D01*
X15311992Y-11442471D01*
X15313266Y-11436334D01*
X15314294Y-11431329D01*
X15315023Y-11427704D01*
X15315404Y-11425704D01*
X15315448Y-11425399D01*
X15314580Y-11424755D01*
X15312984Y-11424552D01*
X15311072Y-11424884D01*
X15307519Y-11425819D01*
X15302595Y-11427269D01*
X15296570Y-11429144D01*
X15289712Y-11431355D01*
X15282292Y-11433811D01*
X15274578Y-11436424D01*
X15266841Y-11439104D01*
X15259350Y-11441762D01*
X15252375Y-11444308D01*
X15246184Y-11446653D01*
X15244983Y-11447122D01*
X15238505Y-11449637D01*
X15233629Y-11451448D01*
X15230083Y-11452636D01*
X15227593Y-11453279D01*
X15225887Y-11453458D01*
X15224693Y-11453253D01*
X15224437Y-11453149D01*
X15222237Y-11451281D01*
X15221288Y-11448148D01*
X15221550Y-11443579D01*
X15221918Y-11441626D01*
X15224509Y-11433681D01*
X15228699Y-11426853D01*
X15234587Y-11421015D01*
X15241870Y-11416259D01*
X15244689Y-11414952D01*
X15249148Y-11413156D01*
X15254942Y-11410974D01*
X15261768Y-11408508D01*
X15269320Y-11405864D01*
X15277296Y-11403143D01*
X15285390Y-11400449D01*
X15293300Y-11397885D01*
X15300719Y-11395554D01*
X15307346Y-11393561D01*
X15312874Y-11392008D01*
X15314587Y-11391564D01*
X15322434Y-11389723D01*
X15331268Y-11387879D01*
X15340832Y-11386066D01*
X15350869Y-11384320D01*
X15361123Y-11382676D01*
X15371338Y-11381169D01*
X15381256Y-11379834D01*
X15390621Y-11378706D01*
X15399177Y-11377821D01*
X15406667Y-11377214D01*
X15412834Y-11376920D01*
X15417422Y-11376974D01*
G37*
X14889483Y-11389906D02*
X14891159Y-11391120D01*
X14893036Y-11392897D01*
X14894693Y-11395227D01*
X14896241Y-11398387D01*
X14897791Y-11402654D01*
X14899457Y-11408303D01*
X14901349Y-11415613D01*
X14901820Y-11417526D01*
X14904662Y-11429705D01*
X14907141Y-11441602D01*
X14909286Y-11453478D01*
X14911126Y-11465591D01*
X14912690Y-11478201D01*
X14914007Y-11491565D01*
X14915105Y-11505942D01*
X14916015Y-11521593D01*
X14916764Y-11538775D01*
X14917338Y-11556210D01*
X14917672Y-11570888D01*
X14917851Y-11585983D01*
X14917879Y-11601216D01*
X14917763Y-11616305D01*
X14917509Y-11630972D01*
X14917123Y-11644937D01*
X14916610Y-11657918D01*
X14915977Y-11669637D01*
X14915229Y-11679813D01*
X14914607Y-11686172D01*
X14913036Y-11698069D01*
X14911037Y-11709749D01*
X14908691Y-11720876D01*
X14906079Y-11731111D01*
X14903282Y-11740118D01*
X14900382Y-11747557D01*
X14899275Y-11749892D01*
X14895952Y-11755086D01*
X14891700Y-11759723D01*
X14887148Y-11763135D01*
X14886500Y-11763489D01*
X14882268Y-11764635D01*
X14877024Y-11764436D01*
X14871161Y-11763017D01*
X14865071Y-11760501D01*
X14859147Y-11757013D01*
X14854552Y-11753392D01*
X14852191Y-11750971D01*
X14848838Y-11747127D01*
X14844675Y-11742094D01*
X14839884Y-11736106D01*
X14834649Y-11729397D01*
X14829151Y-11722203D01*
X14823574Y-11714756D01*
X14818099Y-11707292D01*
X14812910Y-11700046D01*
X14812084Y-11698872D01*
X14804412Y-11687759D01*
X14796535Y-11675992D01*
X14788669Y-11663915D01*
X14781028Y-11651870D01*
X14773829Y-11640200D01*
X14767287Y-11629248D01*
X14761619Y-11619357D01*
X14758578Y-11613796D01*
X14756567Y-11610158D01*
X14754868Y-11607316D01*
X14753725Y-11605668D01*
X14753427Y-11605414D01*
X14752803Y-11606395D01*
X14752311Y-11609291D01*
X14751956Y-11613990D01*
X14751742Y-11620379D01*
X14751673Y-11628346D01*
X14751753Y-11637779D01*
X14751909Y-11645532D01*
X14752845Y-11669849D01*
X14754426Y-11692387D01*
X14756647Y-11713100D01*
X14759503Y-11731938D01*
X14760214Y-11735814D01*
X14761541Y-11746726D01*
X14761192Y-11756572D01*
X14759172Y-11765320D01*
X14755490Y-11772942D01*
X14750387Y-11779178D01*
X14747096Y-11781939D01*
X14744422Y-11782997D01*
X14741947Y-11782397D01*
X14739444Y-11780377D01*
X14738133Y-11778768D01*
X14736977Y-11776566D01*
X14735836Y-11773396D01*
X14734572Y-11768885D01*
X14733452Y-11764375D01*
X14732012Y-11758122D01*
X14730736Y-11751949D01*
X14729615Y-11745697D01*
X14728638Y-11739206D01*
X14727796Y-11732316D01*
X14727079Y-11724868D01*
X14726478Y-11716702D01*
X14725982Y-11707659D01*
X14725582Y-11697578D01*
X14725267Y-11686301D01*
X14725028Y-11673668D01*
X14724855Y-11659519D01*
X14724739Y-11643694D01*
X14724669Y-11626034D01*
X14724658Y-11621656D01*
X14724495Y-11546980D01*
X14718104Y-11530724D01*
X14714452Y-11521165D01*
X14711618Y-11513057D01*
X14709513Y-11506029D01*
X14708045Y-11499715D01*
X14707126Y-11493745D01*
X14706665Y-11487753D01*
X14706568Y-11483480D01*
X14706618Y-11477759D01*
X14706884Y-11473438D01*
X14707445Y-11469891D01*
X14708377Y-11466491D01*
X14708815Y-11465192D01*
X14710139Y-11461759D01*
X14711390Y-11459117D01*
X14712294Y-11457842D01*
X14715172Y-11457009D01*
X14717934Y-11458158D01*
X14720230Y-11460874D01*
X14721140Y-11462518D01*
X14722856Y-11465793D01*
X14725283Y-11470506D01*
X14728324Y-11476470D01*
X14731882Y-11483492D01*
X14735861Y-11491383D01*
X14740163Y-11499953D01*
X14744693Y-11509011D01*
X14745642Y-11510912D01*
X14756250Y-11531991D01*
X14766237Y-11551422D01*
X14775737Y-11569442D01*
X14784885Y-11586290D01*
X14793815Y-11602204D01*
X14802663Y-11617422D01*
X14811562Y-11632181D01*
X14820648Y-11646719D01*
X14830054Y-11661276D01*
X14834420Y-11667884D01*
X14840965Y-11677647D01*
X14846578Y-11685837D01*
X14851383Y-11692617D01*
X14855505Y-11698151D01*
X14859066Y-11702602D01*
X14862191Y-11706134D01*
X14865004Y-11708910D01*
X14866376Y-11710103D01*
X14870077Y-11712956D01*
X14872841Y-11714396D01*
X14875126Y-11714486D01*
X14877392Y-11713291D01*
X14879043Y-11711880D01*
X14880461Y-11710491D01*
X14881521Y-11709121D01*
X14882348Y-11707395D01*
X14883069Y-11704939D01*
X14883809Y-11701377D01*
X14884694Y-11696335D01*
X14885122Y-11693792D01*
X14888632Y-11667897D01*
X14890735Y-11640539D01*
X14891432Y-11611722D01*
X14890721Y-11581449D01*
X14888603Y-11549723D01*
X14885079Y-11516548D01*
X14883055Y-11501297D01*
X14881154Y-11488475D01*
X14879250Y-11477205D01*
X14877244Y-11467007D01*
X14875037Y-11457401D01*
X14872528Y-11447910D01*
X14870476Y-11440866D01*
X14865442Y-11424159D01*
X14868635Y-11414529D01*
X14871884Y-11406277D01*
X14875671Y-11399344D01*
X14879832Y-11393999D01*
X14882575Y-11391567D01*
X14885415Y-11389693D01*
X14887477Y-11389152D01*
X14889483Y-11389906D01*
G36*
X14889483Y-11389906D02*
G01*
X14891159Y-11391120D01*
X14893036Y-11392897D01*
X14894693Y-11395227D01*
X14896241Y-11398387D01*
X14897791Y-11402654D01*
X14899457Y-11408303D01*
X14901349Y-11415613D01*
X14901820Y-11417526D01*
X14904662Y-11429705D01*
X14907141Y-11441602D01*
X14909286Y-11453478D01*
X14911126Y-11465591D01*
X14912690Y-11478201D01*
X14914007Y-11491565D01*
X14915105Y-11505942D01*
X14916015Y-11521593D01*
X14916764Y-11538775D01*
X14917338Y-11556210D01*
X14917672Y-11570888D01*
X14917851Y-11585983D01*
X14917879Y-11601216D01*
X14917763Y-11616305D01*
X14917509Y-11630972D01*
X14917123Y-11644937D01*
X14916610Y-11657918D01*
X14915977Y-11669637D01*
X14915229Y-11679813D01*
X14914607Y-11686172D01*
X14913036Y-11698069D01*
X14911037Y-11709749D01*
X14908691Y-11720876D01*
X14906079Y-11731111D01*
X14903282Y-11740118D01*
X14900382Y-11747557D01*
X14899275Y-11749892D01*
X14895952Y-11755086D01*
X14891700Y-11759723D01*
X14887148Y-11763135D01*
X14886500Y-11763489D01*
X14882268Y-11764635D01*
X14877024Y-11764436D01*
X14871161Y-11763017D01*
X14865071Y-11760501D01*
X14859147Y-11757013D01*
X14854552Y-11753392D01*
X14852191Y-11750971D01*
X14848838Y-11747127D01*
X14844675Y-11742094D01*
X14839884Y-11736106D01*
X14834649Y-11729397D01*
X14829151Y-11722203D01*
X14823574Y-11714756D01*
X14818099Y-11707292D01*
X14812910Y-11700046D01*
X14812084Y-11698872D01*
X14804412Y-11687759D01*
X14796535Y-11675992D01*
X14788669Y-11663915D01*
X14781028Y-11651870D01*
X14773829Y-11640200D01*
X14767287Y-11629248D01*
X14761619Y-11619357D01*
X14758578Y-11613796D01*
X14756567Y-11610158D01*
X14754868Y-11607316D01*
X14753725Y-11605668D01*
X14753427Y-11605414D01*
X14752803Y-11606395D01*
X14752311Y-11609291D01*
X14751956Y-11613990D01*
X14751742Y-11620379D01*
X14751673Y-11628346D01*
X14751753Y-11637779D01*
X14751909Y-11645532D01*
X14752845Y-11669849D01*
X14754426Y-11692387D01*
X14756647Y-11713100D01*
X14759503Y-11731938D01*
X14760214Y-11735814D01*
X14761541Y-11746726D01*
X14761192Y-11756572D01*
X14759172Y-11765320D01*
X14755490Y-11772942D01*
X14750387Y-11779178D01*
X14747096Y-11781939D01*
X14744422Y-11782997D01*
X14741947Y-11782397D01*
X14739444Y-11780377D01*
X14738133Y-11778768D01*
X14736977Y-11776566D01*
X14735836Y-11773396D01*
X14734572Y-11768885D01*
X14733452Y-11764375D01*
X14732012Y-11758122D01*
X14730736Y-11751949D01*
X14729615Y-11745697D01*
X14728638Y-11739206D01*
X14727796Y-11732316D01*
X14727079Y-11724868D01*
X14726478Y-11716702D01*
X14725982Y-11707659D01*
X14725582Y-11697578D01*
X14725267Y-11686301D01*
X14725028Y-11673668D01*
X14724855Y-11659519D01*
X14724739Y-11643694D01*
X14724669Y-11626034D01*
X14724658Y-11621656D01*
X14724495Y-11546980D01*
X14718104Y-11530724D01*
X14714452Y-11521165D01*
X14711618Y-11513057D01*
X14709513Y-11506029D01*
X14708045Y-11499715D01*
X14707126Y-11493745D01*
X14706665Y-11487753D01*
X14706568Y-11483480D01*
X14706618Y-11477759D01*
X14706884Y-11473438D01*
X14707445Y-11469891D01*
X14708377Y-11466491D01*
X14708815Y-11465192D01*
X14710139Y-11461759D01*
X14711390Y-11459117D01*
X14712294Y-11457842D01*
X14715172Y-11457009D01*
X14717934Y-11458158D01*
X14720230Y-11460874D01*
X14721140Y-11462518D01*
X14722856Y-11465793D01*
X14725283Y-11470506D01*
X14728324Y-11476470D01*
X14731882Y-11483492D01*
X14735861Y-11491383D01*
X14740163Y-11499953D01*
X14744693Y-11509011D01*
X14745642Y-11510912D01*
X14756250Y-11531991D01*
X14766237Y-11551422D01*
X14775737Y-11569442D01*
X14784885Y-11586290D01*
X14793815Y-11602204D01*
X14802663Y-11617422D01*
X14811562Y-11632181D01*
X14820648Y-11646719D01*
X14830054Y-11661276D01*
X14834420Y-11667884D01*
X14840965Y-11677647D01*
X14846578Y-11685837D01*
X14851383Y-11692617D01*
X14855505Y-11698151D01*
X14859066Y-11702602D01*
X14862191Y-11706134D01*
X14865004Y-11708910D01*
X14866376Y-11710103D01*
X14870077Y-11712956D01*
X14872841Y-11714396D01*
X14875126Y-11714486D01*
X14877392Y-11713291D01*
X14879043Y-11711880D01*
X14880461Y-11710491D01*
X14881521Y-11709121D01*
X14882348Y-11707395D01*
X14883069Y-11704939D01*
X14883809Y-11701377D01*
X14884694Y-11696335D01*
X14885122Y-11693792D01*
X14888632Y-11667897D01*
X14890735Y-11640539D01*
X14891432Y-11611722D01*
X14890721Y-11581449D01*
X14888603Y-11549723D01*
X14885079Y-11516548D01*
X14883055Y-11501297D01*
X14881154Y-11488475D01*
X14879250Y-11477205D01*
X14877244Y-11467007D01*
X14875037Y-11457401D01*
X14872528Y-11447910D01*
X14870476Y-11440866D01*
X14865442Y-11424159D01*
X14868635Y-11414529D01*
X14871884Y-11406277D01*
X14875671Y-11399344D01*
X14879832Y-11393999D01*
X14882575Y-11391567D01*
X14885415Y-11389693D01*
X14887477Y-11389152D01*
X14889483Y-11389906D01*
G37*
X15593232Y-11523935D02*
X15596026Y-11525875D01*
X15596794Y-11527007D01*
X15597550Y-11529406D01*
X15598243Y-11533415D01*
X15598838Y-11538612D01*
X15599304Y-11544576D01*
X15599609Y-11550884D01*
X15599719Y-11557114D01*
X15599603Y-11562846D01*
X15599583Y-11563272D01*
X15599128Y-11569455D01*
X15598389Y-11576091D01*
X15597440Y-11582746D01*
X15596355Y-11588983D01*
X15595206Y-11594368D01*
X15594067Y-11598466D01*
X15593316Y-11600336D01*
X15591342Y-11603084D01*
X15588255Y-11606278D01*
X15584689Y-11609330D01*
X15581281Y-11611652D01*
X15580791Y-11611917D01*
X15577711Y-11613130D01*
X15574141Y-11614048D01*
X15573717Y-11614121D01*
X15570960Y-11614386D01*
X15569315Y-11613830D01*
X15567931Y-11612157D01*
X15567880Y-11612079D01*
X15567195Y-11610855D01*
X15566763Y-11609425D01*
X15566573Y-11607423D01*
X15566610Y-11604477D01*
X15566861Y-11600218D01*
X15567274Y-11594797D01*
X15567970Y-11584875D01*
X15568326Y-11576850D01*
X15568343Y-11570614D01*
X15568021Y-11566060D01*
X15567361Y-11563082D01*
X15567348Y-11563048D01*
X15564935Y-11558756D01*
X15561631Y-11556288D01*
X15558062Y-11555616D01*
X15552354Y-11556609D01*
X15546709Y-11559498D01*
X15541205Y-11564147D01*
X15535925Y-11570419D01*
X15530946Y-11578179D01*
X15526349Y-11587290D01*
X15522214Y-11597616D01*
X15518621Y-11609022D01*
X15515650Y-11621370D01*
X15513936Y-11630800D01*
X15513059Y-11638063D01*
X15512487Y-11646469D01*
X15512219Y-11655468D01*
X15512256Y-11664514D01*
X15512598Y-11673057D01*
X15513244Y-11680551D01*
X15513930Y-11685156D01*
X15516461Y-11696321D01*
X15519564Y-11706226D01*
X15523152Y-11714658D01*
X15527143Y-11721404D01*
X15529417Y-11724250D01*
X15533303Y-11727707D01*
X15537984Y-11730620D01*
X15542785Y-11732640D01*
X15547028Y-11733415D01*
X15547114Y-11733416D01*
X15553201Y-11732450D01*
X15559477Y-11729664D01*
X15565713Y-11725228D01*
X15571679Y-11719309D01*
X15577145Y-11712078D01*
X15578048Y-11710666D01*
X15581611Y-11704482D01*
X15585451Y-11697028D01*
X15589249Y-11688979D01*
X15592687Y-11681007D01*
X15595379Y-11673980D01*
X15597068Y-11669318D01*
X15598381Y-11666256D01*
X15599568Y-11664459D01*
X15600883Y-11663593D01*
X15602575Y-11663326D01*
X15603418Y-11663312D01*
X15606820Y-11664262D01*
X15609939Y-11666855D01*
X15612363Y-11670705D01*
X15612950Y-11672217D01*
X15613589Y-11676311D01*
X15613396Y-11681815D01*
X15612462Y-11688331D01*
X15610881Y-11695460D01*
X15608744Y-11702804D01*
X15606144Y-11709963D01*
X15603173Y-11716540D01*
X15602312Y-11718176D01*
X15595170Y-11730298D01*
X15587992Y-11740471D01*
X15580700Y-11748776D01*
X15573213Y-11755295D01*
X15565452Y-11760110D01*
X15558973Y-11762796D01*
X15549159Y-11765093D01*
X15539726Y-11765413D01*
X15530710Y-11763782D01*
X15522150Y-11760225D01*
X15514083Y-11754767D01*
X15506546Y-11747436D01*
X15499578Y-11738256D01*
X15493215Y-11727253D01*
X15487495Y-11714453D01*
X15487164Y-11713604D01*
X15485843Y-11710328D01*
X15484740Y-11707834D01*
X15484148Y-11706745D01*
X15483401Y-11707221D01*
X15481951Y-11709135D01*
X15480051Y-11712133D01*
X15479052Y-11713857D01*
X15471277Y-11726765D01*
X15463601Y-11737711D01*
X15455959Y-11746762D01*
X15448288Y-11753983D01*
X15440527Y-11759438D01*
X15432611Y-11763192D01*
X15430476Y-11763911D01*
X15422945Y-11765441D01*
X15414644Y-11765798D01*
X15406466Y-11764979D01*
X15402316Y-11764018D01*
X15397815Y-11762603D01*
X15394263Y-11761129D01*
X15390888Y-11759203D01*
X15386917Y-11756432D01*
X15385866Y-11755655D01*
X15380042Y-11750272D01*
X15374515Y-11743131D01*
X15369411Y-11734498D01*
X15364854Y-11724639D01*
X15360970Y-11713820D01*
X15357886Y-11702308D01*
X15355999Y-11692268D01*
X15355361Y-11686263D01*
X15354984Y-11678802D01*
X15354860Y-11670441D01*
X15354915Y-11666608D01*
X15384536Y-11666608D01*
X15386822Y-11665111D01*
X15388360Y-11663800D01*
X15390897Y-11661310D01*
X15394090Y-11657989D01*
X15397598Y-11654184D01*
X15397879Y-11653872D01*
X15408424Y-11640947D01*
X15416956Y-11627816D01*
X15423491Y-11614449D01*
X15428041Y-11600814D01*
X15430620Y-11586881D01*
X15431272Y-11575244D01*
X15431042Y-11569504D01*
X15430253Y-11565268D01*
X15428754Y-11562047D01*
X15426393Y-11559355D01*
X15426337Y-11559303D01*
X15423798Y-11557980D01*
X15420894Y-11558403D01*
X15417471Y-11560623D01*
X15414950Y-11562995D01*
X15411642Y-11567152D01*
X15408061Y-11572969D01*
X15404356Y-11580117D01*
X15400671Y-11588266D01*
X15397154Y-11597089D01*
X15393949Y-11606254D01*
X15391204Y-11615435D01*
X15390538Y-11617959D01*
X15389198Y-11623873D01*
X15387889Y-11630840D01*
X15386691Y-11638294D01*
X15385685Y-11645674D01*
X15384952Y-11652416D01*
X15384574Y-11657957D01*
X15384541Y-11659626D01*
X15384536Y-11666608D01*
X15354915Y-11666608D01*
X15354985Y-11661737D01*
X15355351Y-11653248D01*
X15355952Y-11645532D01*
X15356575Y-11640452D01*
X15359196Y-11625745D01*
X15362579Y-11611229D01*
X15366622Y-11597190D01*
X15371221Y-11583914D01*
X15376273Y-11571686D01*
X15381676Y-11560792D01*
X15387327Y-11551517D01*
X15389831Y-11548067D01*
X15396233Y-11540854D01*
X15403139Y-11535039D01*
X15410337Y-11530708D01*
X15417614Y-11527943D01*
X15424757Y-11526829D01*
X15431554Y-11527451D01*
X15436953Y-11529434D01*
X15443072Y-11533586D01*
X15448450Y-11539100D01*
X15452618Y-11545422D01*
X15454654Y-11550313D01*
X15457490Y-11562906D01*
X15458436Y-11576076D01*
X15457514Y-11589723D01*
X15454750Y-11603746D01*
X15450168Y-11618044D01*
X15443793Y-11632518D01*
X15435650Y-11647067D01*
X15428209Y-11658232D01*
X15423577Y-11664163D01*
X15417596Y-11670942D01*
X15410576Y-11678247D01*
X15402828Y-11685756D01*
X15394664Y-11693145D01*
X15393841Y-11693861D01*
X15387399Y-11699447D01*
X15389130Y-11705510D01*
X15392207Y-11714006D01*
X15396187Y-11721407D01*
X15400896Y-11727558D01*
X15406163Y-11732305D01*
X15411815Y-11735494D01*
X15417680Y-11736972D01*
X15423585Y-11736584D01*
X15423887Y-11736511D01*
X15430199Y-11733932D01*
X15436422Y-11729453D01*
X15441687Y-11724031D01*
X15444479Y-11720616D01*
X15446992Y-11717285D01*
X15449417Y-11713726D01*
X15451948Y-11709626D01*
X15454776Y-11704671D01*
X15458093Y-11698550D01*
X15462091Y-11690949D01*
X15462549Y-11690071D01*
X15465785Y-11683922D01*
X15468975Y-11677983D01*
X15471907Y-11672638D01*
X15474370Y-11668273D01*
X15476151Y-11665271D01*
X15476353Y-11664951D01*
X15478001Y-11662288D01*
X15479135Y-11660028D01*
X15479892Y-11657646D01*
X15480412Y-11654620D01*
X15480830Y-11650425D01*
X15481111Y-11646869D01*
X15481902Y-11637918D01*
X15482877Y-11630143D01*
X15484171Y-11622691D01*
X15485919Y-11614708D01*
X15486823Y-11610988D01*
X15490870Y-11597017D01*
X15495861Y-11583713D01*
X15501652Y-11571358D01*
X15508099Y-11560236D01*
X15515057Y-11550630D01*
X15520601Y-11544518D01*
X15529187Y-11536881D01*
X15537599Y-11531140D01*
X15546031Y-11527194D01*
X15554679Y-11524940D01*
X15559288Y-11524406D01*
X15563663Y-11524214D01*
X15566958Y-11524467D01*
X15570100Y-11525306D01*
X15573212Y-11526530D01*
X15579517Y-11529187D01*
X15582226Y-11526676D01*
X15585830Y-11524324D01*
X15589666Y-11523414D01*
X15593232Y-11523935D01*
G36*
X15593232Y-11523935D02*
G01*
X15596026Y-11525875D01*
X15596794Y-11527007D01*
X15597550Y-11529406D01*
X15598243Y-11533415D01*
X15598838Y-11538612D01*
X15599304Y-11544576D01*
X15599609Y-11550884D01*
X15599719Y-11557114D01*
X15599603Y-11562846D01*
X15599583Y-11563272D01*
X15599128Y-11569455D01*
X15598389Y-11576091D01*
X15597440Y-11582746D01*
X15596355Y-11588983D01*
X15595206Y-11594368D01*
X15594067Y-11598466D01*
X15593316Y-11600336D01*
X15591342Y-11603084D01*
X15588255Y-11606278D01*
X15584689Y-11609330D01*
X15581281Y-11611652D01*
X15580791Y-11611917D01*
X15577711Y-11613130D01*
X15574141Y-11614048D01*
X15573717Y-11614121D01*
X15570960Y-11614386D01*
X15569315Y-11613830D01*
X15567931Y-11612157D01*
X15567880Y-11612079D01*
X15567195Y-11610855D01*
X15566763Y-11609425D01*
X15566573Y-11607423D01*
X15566610Y-11604477D01*
X15566861Y-11600218D01*
X15567274Y-11594797D01*
X15567970Y-11584875D01*
X15568326Y-11576850D01*
X15568343Y-11570614D01*
X15568021Y-11566060D01*
X15567361Y-11563082D01*
X15567348Y-11563048D01*
X15564935Y-11558756D01*
X15561631Y-11556288D01*
X15558062Y-11555616D01*
X15552354Y-11556609D01*
X15546709Y-11559498D01*
X15541205Y-11564147D01*
X15535925Y-11570419D01*
X15530946Y-11578179D01*
X15526349Y-11587290D01*
X15522214Y-11597616D01*
X15518621Y-11609022D01*
X15515650Y-11621370D01*
X15513936Y-11630800D01*
X15513059Y-11638063D01*
X15512487Y-11646469D01*
X15512219Y-11655468D01*
X15512256Y-11664514D01*
X15512598Y-11673057D01*
X15513244Y-11680551D01*
X15513930Y-11685156D01*
X15516461Y-11696321D01*
X15519564Y-11706226D01*
X15523152Y-11714658D01*
X15527143Y-11721404D01*
X15529417Y-11724250D01*
X15533303Y-11727707D01*
X15537984Y-11730620D01*
X15542785Y-11732640D01*
X15547028Y-11733415D01*
X15547114Y-11733416D01*
X15553201Y-11732450D01*
X15559477Y-11729664D01*
X15565713Y-11725228D01*
X15571679Y-11719309D01*
X15577145Y-11712078D01*
X15578048Y-11710666D01*
X15581611Y-11704482D01*
X15585451Y-11697028D01*
X15589249Y-11688979D01*
X15592687Y-11681007D01*
X15595379Y-11673980D01*
X15597068Y-11669318D01*
X15598381Y-11666256D01*
X15599568Y-11664459D01*
X15600883Y-11663593D01*
X15602575Y-11663326D01*
X15603418Y-11663312D01*
X15606820Y-11664262D01*
X15609939Y-11666855D01*
X15612363Y-11670705D01*
X15612950Y-11672217D01*
X15613589Y-11676311D01*
X15613396Y-11681815D01*
X15612462Y-11688331D01*
X15610881Y-11695460D01*
X15608744Y-11702804D01*
X15606144Y-11709963D01*
X15603173Y-11716540D01*
X15602312Y-11718176D01*
X15595170Y-11730298D01*
X15587992Y-11740471D01*
X15580700Y-11748776D01*
X15573213Y-11755295D01*
X15565452Y-11760110D01*
X15558973Y-11762796D01*
X15549159Y-11765093D01*
X15539726Y-11765413D01*
X15530710Y-11763782D01*
X15522150Y-11760225D01*
X15514083Y-11754767D01*
X15506546Y-11747436D01*
X15499578Y-11738256D01*
X15493215Y-11727253D01*
X15487495Y-11714453D01*
X15487164Y-11713604D01*
X15485843Y-11710328D01*
X15484740Y-11707834D01*
X15484148Y-11706745D01*
X15483401Y-11707221D01*
X15481951Y-11709135D01*
X15480051Y-11712133D01*
X15479052Y-11713857D01*
X15471277Y-11726765D01*
X15463601Y-11737711D01*
X15455959Y-11746762D01*
X15448288Y-11753983D01*
X15440527Y-11759438D01*
X15432611Y-11763192D01*
X15430476Y-11763911D01*
X15422945Y-11765441D01*
X15414644Y-11765798D01*
X15406466Y-11764979D01*
X15402316Y-11764018D01*
X15397815Y-11762603D01*
X15394263Y-11761129D01*
X15390888Y-11759203D01*
X15386917Y-11756432D01*
X15385866Y-11755655D01*
X15380042Y-11750272D01*
X15374515Y-11743131D01*
X15369411Y-11734498D01*
X15364854Y-11724639D01*
X15360970Y-11713820D01*
X15357886Y-11702308D01*
X15355999Y-11692268D01*
X15355361Y-11686263D01*
X15354984Y-11678802D01*
X15354860Y-11670441D01*
X15354915Y-11666608D01*
X15384536Y-11666608D01*
X15386822Y-11665111D01*
X15388360Y-11663800D01*
X15390897Y-11661310D01*
X15394090Y-11657989D01*
X15397598Y-11654184D01*
X15397879Y-11653872D01*
X15408424Y-11640947D01*
X15416956Y-11627816D01*
X15423491Y-11614449D01*
X15428041Y-11600814D01*
X15430620Y-11586881D01*
X15431272Y-11575244D01*
X15431042Y-11569504D01*
X15430253Y-11565268D01*
X15428754Y-11562047D01*
X15426393Y-11559355D01*
X15426337Y-11559303D01*
X15423798Y-11557980D01*
X15420894Y-11558403D01*
X15417471Y-11560623D01*
X15414950Y-11562995D01*
X15411642Y-11567152D01*
X15408061Y-11572969D01*
X15404356Y-11580117D01*
X15400671Y-11588266D01*
X15397154Y-11597089D01*
X15393949Y-11606254D01*
X15391204Y-11615435D01*
X15390538Y-11617959D01*
X15389198Y-11623873D01*
X15387889Y-11630840D01*
X15386691Y-11638294D01*
X15385685Y-11645674D01*
X15384952Y-11652416D01*
X15384574Y-11657957D01*
X15384541Y-11659626D01*
X15384536Y-11666608D01*
X15354915Y-11666608D01*
X15354985Y-11661737D01*
X15355351Y-11653248D01*
X15355952Y-11645532D01*
X15356575Y-11640452D01*
X15359196Y-11625745D01*
X15362579Y-11611229D01*
X15366622Y-11597190D01*
X15371221Y-11583914D01*
X15376273Y-11571686D01*
X15381676Y-11560792D01*
X15387327Y-11551517D01*
X15389831Y-11548067D01*
X15396233Y-11540854D01*
X15403139Y-11535039D01*
X15410337Y-11530708D01*
X15417614Y-11527943D01*
X15424757Y-11526829D01*
X15431554Y-11527451D01*
X15436953Y-11529434D01*
X15443072Y-11533586D01*
X15448450Y-11539100D01*
X15452618Y-11545422D01*
X15454654Y-11550313D01*
X15457490Y-11562906D01*
X15458436Y-11576076D01*
X15457514Y-11589723D01*
X15454750Y-11603746D01*
X15450168Y-11618044D01*
X15443793Y-11632518D01*
X15435650Y-11647067D01*
X15428209Y-11658232D01*
X15423577Y-11664163D01*
X15417596Y-11670942D01*
X15410576Y-11678247D01*
X15402828Y-11685756D01*
X15394664Y-11693145D01*
X15393841Y-11693861D01*
X15387399Y-11699447D01*
X15389130Y-11705510D01*
X15392207Y-11714006D01*
X15396187Y-11721407D01*
X15400896Y-11727558D01*
X15406163Y-11732305D01*
X15411815Y-11735494D01*
X15417680Y-11736972D01*
X15423585Y-11736584D01*
X15423887Y-11736511D01*
X15430199Y-11733932D01*
X15436422Y-11729453D01*
X15441687Y-11724031D01*
X15444479Y-11720616D01*
X15446992Y-11717285D01*
X15449417Y-11713726D01*
X15451948Y-11709626D01*
X15454776Y-11704671D01*
X15458093Y-11698550D01*
X15462091Y-11690949D01*
X15462549Y-11690071D01*
X15465785Y-11683922D01*
X15468975Y-11677983D01*
X15471907Y-11672638D01*
X15474370Y-11668273D01*
X15476151Y-11665271D01*
X15476353Y-11664951D01*
X15478001Y-11662288D01*
X15479135Y-11660028D01*
X15479892Y-11657646D01*
X15480412Y-11654620D01*
X15480830Y-11650425D01*
X15481111Y-11646869D01*
X15481902Y-11637918D01*
X15482877Y-11630143D01*
X15484171Y-11622691D01*
X15485919Y-11614708D01*
X15486823Y-11610988D01*
X15490870Y-11597017D01*
X15495861Y-11583713D01*
X15501652Y-11571358D01*
X15508099Y-11560236D01*
X15515057Y-11550630D01*
X15520601Y-11544518D01*
X15529187Y-11536881D01*
X15537599Y-11531140D01*
X15546031Y-11527194D01*
X15554679Y-11524940D01*
X15559288Y-11524406D01*
X15563663Y-11524214D01*
X15566958Y-11524467D01*
X15570100Y-11525306D01*
X15573212Y-11526530D01*
X15579517Y-11529187D01*
X15582226Y-11526676D01*
X15585830Y-11524324D01*
X15589666Y-11523414D01*
X15593232Y-11523935D01*
G37*
X15006440Y-11530047D02*
X15013019Y-11533411D01*
X15017551Y-11537151D01*
X15021574Y-11541722D01*
X15024658Y-11546777D01*
X15026892Y-11552618D01*
X15028369Y-11559549D01*
X15029176Y-11567871D01*
X15029405Y-11576952D01*
X15028770Y-11590290D01*
X15026753Y-11602898D01*
X15023232Y-11615257D01*
X15018087Y-11627851D01*
X15015121Y-11633896D01*
X15005266Y-11651018D01*
X14993781Y-11667180D01*
X14980532Y-11682562D01*
X14973050Y-11690165D01*
X14961648Y-11701269D01*
X14963318Y-11707276D01*
X14966014Y-11714900D01*
X14969633Y-11722154D01*
X14973226Y-11727513D01*
X14975931Y-11730125D01*
X14979725Y-11732780D01*
X14983968Y-11735126D01*
X14988019Y-11736810D01*
X14991239Y-11737479D01*
X14991322Y-11737480D01*
X14997323Y-11736517D01*
X15003595Y-11733725D01*
X15009926Y-11729251D01*
X15016106Y-11723238D01*
X15021248Y-11716796D01*
X15022924Y-11714172D01*
X15025315Y-11710045D01*
X15028243Y-11704741D01*
X15031534Y-11698584D01*
X15035010Y-11691899D01*
X15037914Y-11686172D01*
X15050129Y-11661788D01*
X15049161Y-11653152D01*
X15048676Y-11647183D01*
X15048348Y-11639661D01*
X15048173Y-11631057D01*
X15048146Y-11621845D01*
X15048266Y-11612496D01*
X15048527Y-11603483D01*
X15048926Y-11595278D01*
X15049459Y-11588354D01*
X15049683Y-11586268D01*
X15051132Y-11576008D01*
X15052830Y-11567718D01*
X15054798Y-11561350D01*
X15057060Y-11556854D01*
X15059637Y-11554182D01*
X15062550Y-11553284D01*
X15064362Y-11553546D01*
X15069691Y-11556124D01*
X15074477Y-11560623D01*
X15078673Y-11566990D01*
X15080661Y-11571151D01*
X15081293Y-11572654D01*
X15081757Y-11574015D01*
X15082047Y-11575512D01*
X15082158Y-11577426D01*
X15082083Y-11580033D01*
X15081816Y-11583614D01*
X15081352Y-11588446D01*
X15080685Y-11594809D01*
X15080039Y-11600828D01*
X15078505Y-11624087D01*
X15078870Y-11647312D01*
X15081113Y-11670268D01*
X15085217Y-11692717D01*
X15088531Y-11705730D01*
X15089752Y-11709756D01*
X15090869Y-11712920D01*
X15091722Y-11714797D01*
X15092038Y-11715128D01*
X15092808Y-11714188D01*
X15093802Y-11711616D01*
X15094914Y-11707785D01*
X15096034Y-11703067D01*
X15097045Y-11697890D01*
X15099554Y-11686705D01*
X15103226Y-11674732D01*
X15107843Y-11662471D01*
X15113191Y-11650426D01*
X15119051Y-11639097D01*
X15125209Y-11628987D01*
X15129074Y-11623560D01*
X15135538Y-11615688D01*
X15141537Y-11609651D01*
X15147207Y-11605343D01*
X15152683Y-11602657D01*
X15157032Y-11601603D01*
X15162716Y-11601442D01*
X15167044Y-11602690D01*
X15170032Y-11605380D01*
X15171698Y-11609544D01*
X15172058Y-11615217D01*
X15171129Y-11622430D01*
X15170077Y-11627061D01*
X15169369Y-11630085D01*
X15168831Y-11633107D01*
X15168440Y-11636478D01*
X15168170Y-11640548D01*
X15167998Y-11645667D01*
X15167897Y-11652184D01*
X15167853Y-11658727D01*
X15167876Y-11667475D01*
X15168025Y-11675226D01*
X15168289Y-11681699D01*
X15168659Y-11686616D01*
X15168974Y-11688985D01*
X15171821Y-11700883D01*
X15175817Y-11711260D01*
X15180925Y-11720046D01*
X15187112Y-11727171D01*
X15189238Y-11729029D01*
X15194844Y-11732672D01*
X15200258Y-11734293D01*
X15205493Y-11733895D01*
X15210568Y-11731475D01*
X15213288Y-11729291D01*
X15217211Y-11724806D01*
X15220926Y-11718984D01*
X15224037Y-11712514D01*
X15225611Y-11708066D01*
X15227366Y-11699748D01*
X15228213Y-11689784D01*
X15228156Y-11678345D01*
X15227195Y-11665601D01*
X15225334Y-11651725D01*
X15224898Y-11649088D01*
X15223030Y-11639709D01*
X15220646Y-11630930D01*
X15217534Y-11622097D01*
X15213477Y-11612556D01*
X15211651Y-11608623D01*
X15207502Y-11599692D01*
X15204338Y-11592510D01*
X15202150Y-11587054D01*
X15200928Y-11583300D01*
X15200640Y-11581542D01*
X15201547Y-11578707D01*
X15204057Y-11576767D01*
X15207855Y-11575948D01*
X15208442Y-11575936D01*
X15214028Y-11576551D01*
X15219216Y-11578482D01*
X15224148Y-11581860D01*
X15228968Y-11586813D01*
X15233822Y-11593472D01*
X15238853Y-11601966D01*
X15240262Y-11604595D01*
X15246655Y-11618769D01*
X15251477Y-11633834D01*
X15254718Y-11649510D01*
X15256370Y-11665515D01*
X15256424Y-11681567D01*
X15254871Y-11697385D01*
X15251703Y-11712686D01*
X15246910Y-11727190D01*
X15244276Y-11733264D01*
X15239432Y-11741575D01*
X15233210Y-11749064D01*
X15225940Y-11755466D01*
X15217950Y-11760513D01*
X15209569Y-11763940D01*
X15205053Y-11765014D01*
X15197100Y-11765394D01*
X15188970Y-11763839D01*
X15180838Y-11760413D01*
X15172881Y-11755181D01*
X15168487Y-11751413D01*
X15161681Y-11744171D01*
X15156079Y-11736179D01*
X15151415Y-11727007D01*
X15147963Y-11717871D01*
X15145795Y-11711036D01*
X15144163Y-11705017D01*
X15142995Y-11699316D01*
X15142222Y-11693433D01*
X15141771Y-11686872D01*
X15141572Y-11679131D01*
X15141545Y-11672710D01*
X15141509Y-11666825D01*
X15141394Y-11661710D01*
X15141213Y-11657684D01*
X15140981Y-11655064D01*
X15140722Y-11654168D01*
X15139489Y-11655087D01*
X15137755Y-11657656D01*
X15135644Y-11661590D01*
X15133282Y-11666605D01*
X15130792Y-11672418D01*
X15128300Y-11678745D01*
X15125930Y-11685301D01*
X15123807Y-11691804D01*
X15123005Y-11694500D01*
X15120743Y-11702851D01*
X15118718Y-11711459D01*
X15116844Y-11720745D01*
X15115038Y-11731135D01*
X15113215Y-11743049D01*
X15112862Y-11745507D01*
X15111935Y-11751808D01*
X15111164Y-11756420D01*
X15110468Y-11759671D01*
X15109763Y-11761890D01*
X15108965Y-11763405D01*
X15108076Y-11764464D01*
X15104565Y-11766774D01*
X15100214Y-11767414D01*
X15094833Y-11766409D01*
X15094557Y-11766324D01*
X15089561Y-11763792D01*
X15084496Y-11759405D01*
X15079477Y-11753333D01*
X15074618Y-11745745D01*
X15070034Y-11736810D01*
X15065839Y-11726698D01*
X15063788Y-11720846D01*
X15062136Y-11715949D01*
X15060642Y-11711744D01*
X15059448Y-11708611D01*
X15058694Y-11706933D01*
X15058587Y-11706781D01*
X15057779Y-11707267D01*
X15056204Y-11709217D01*
X15054086Y-11712321D01*
X15051651Y-11716270D01*
X15051592Y-11716372D01*
X15043435Y-11729267D01*
X15035327Y-11740152D01*
X15027251Y-11749046D01*
X15019189Y-11755971D01*
X15016309Y-11757971D01*
X15007611Y-11762512D01*
X14998578Y-11765147D01*
X14989423Y-11765926D01*
X14980358Y-11764902D01*
X14971594Y-11762124D01*
X14963345Y-11757645D01*
X14955821Y-11751515D01*
X14949235Y-11743785D01*
X14947642Y-11741426D01*
X14941269Y-11730106D01*
X14936290Y-11718100D01*
X14932650Y-11705187D01*
X14930292Y-11691144D01*
X14929160Y-11675749D01*
X14929036Y-11667884D01*
X14929176Y-11664701D01*
X14957684Y-11664701D01*
X14958038Y-11667406D01*
X14958808Y-11668391D01*
X14958829Y-11668392D01*
X14960092Y-11667758D01*
X14962266Y-11666126D01*
X14964013Y-11664624D01*
X14969190Y-11659214D01*
X14974638Y-11652211D01*
X14980134Y-11643995D01*
X14985453Y-11634944D01*
X14990372Y-11625438D01*
X14994669Y-11615854D01*
X14997949Y-11607087D01*
X15000251Y-11599162D01*
X15001940Y-11591227D01*
X15002998Y-11583594D01*
X15003408Y-11576577D01*
X15003155Y-11570488D01*
X15002220Y-11565639D01*
X15000588Y-11562344D01*
X15000358Y-11562082D01*
X14997364Y-11560228D01*
X14993566Y-11559645D01*
X14989828Y-11560443D01*
X14989322Y-11560691D01*
X14987478Y-11562394D01*
X14985080Y-11565669D01*
X14982299Y-11570192D01*
X14979308Y-11575636D01*
X14976278Y-11581676D01*
X14973380Y-11587986D01*
X14970786Y-11594241D01*
X14968872Y-11599501D01*
X14967109Y-11605299D01*
X14965389Y-11611940D01*
X14963750Y-11619169D01*
X14962230Y-11626730D01*
X14960865Y-11634365D01*
X14959694Y-11641820D01*
X14958752Y-11648837D01*
X14958079Y-11655160D01*
X14957710Y-11660534D01*
X14957684Y-11664701D01*
X14929176Y-11664701D01*
X14929931Y-11647599D01*
X14932529Y-11627226D01*
X14936745Y-11607291D01*
X14941597Y-11590904D01*
X14946516Y-11577656D01*
X14951685Y-11566256D01*
X14957207Y-11556523D01*
X14963183Y-11548279D01*
X14969479Y-11541562D01*
X14977000Y-11535520D01*
X14984581Y-11531335D01*
X14992097Y-11529021D01*
X14999425Y-11528587D01*
X15006440Y-11530047D01*
G36*
X15006440Y-11530047D02*
G01*
X15013019Y-11533411D01*
X15017551Y-11537151D01*
X15021574Y-11541722D01*
X15024658Y-11546777D01*
X15026892Y-11552618D01*
X15028369Y-11559549D01*
X15029176Y-11567871D01*
X15029405Y-11576952D01*
X15028770Y-11590290D01*
X15026753Y-11602898D01*
X15023232Y-11615257D01*
X15018087Y-11627851D01*
X15015121Y-11633896D01*
X15005266Y-11651018D01*
X14993781Y-11667180D01*
X14980532Y-11682562D01*
X14973050Y-11690165D01*
X14961648Y-11701269D01*
X14963318Y-11707276D01*
X14966014Y-11714900D01*
X14969633Y-11722154D01*
X14973226Y-11727513D01*
X14975931Y-11730125D01*
X14979725Y-11732780D01*
X14983968Y-11735126D01*
X14988019Y-11736810D01*
X14991239Y-11737479D01*
X14991322Y-11737480D01*
X14997323Y-11736517D01*
X15003595Y-11733725D01*
X15009926Y-11729251D01*
X15016106Y-11723238D01*
X15021248Y-11716796D01*
X15022924Y-11714172D01*
X15025315Y-11710045D01*
X15028243Y-11704741D01*
X15031534Y-11698584D01*
X15035010Y-11691899D01*
X15037914Y-11686172D01*
X15050129Y-11661788D01*
X15049161Y-11653152D01*
X15048676Y-11647183D01*
X15048348Y-11639661D01*
X15048173Y-11631057D01*
X15048146Y-11621845D01*
X15048266Y-11612496D01*
X15048527Y-11603483D01*
X15048926Y-11595278D01*
X15049459Y-11588354D01*
X15049683Y-11586268D01*
X15051132Y-11576008D01*
X15052830Y-11567718D01*
X15054798Y-11561350D01*
X15057060Y-11556854D01*
X15059637Y-11554182D01*
X15062550Y-11553284D01*
X15064362Y-11553546D01*
X15069691Y-11556124D01*
X15074477Y-11560623D01*
X15078673Y-11566990D01*
X15080661Y-11571151D01*
X15081293Y-11572654D01*
X15081757Y-11574015D01*
X15082047Y-11575512D01*
X15082158Y-11577426D01*
X15082083Y-11580033D01*
X15081816Y-11583614D01*
X15081352Y-11588446D01*
X15080685Y-11594809D01*
X15080039Y-11600828D01*
X15078505Y-11624087D01*
X15078870Y-11647312D01*
X15081113Y-11670268D01*
X15085217Y-11692717D01*
X15088531Y-11705730D01*
X15089752Y-11709756D01*
X15090869Y-11712920D01*
X15091722Y-11714797D01*
X15092038Y-11715128D01*
X15092808Y-11714188D01*
X15093802Y-11711616D01*
X15094914Y-11707785D01*
X15096034Y-11703067D01*
X15097045Y-11697890D01*
X15099554Y-11686705D01*
X15103226Y-11674732D01*
X15107843Y-11662471D01*
X15113191Y-11650426D01*
X15119051Y-11639097D01*
X15125209Y-11628987D01*
X15129074Y-11623560D01*
X15135538Y-11615688D01*
X15141537Y-11609651D01*
X15147207Y-11605343D01*
X15152683Y-11602657D01*
X15157032Y-11601603D01*
X15162716Y-11601442D01*
X15167044Y-11602690D01*
X15170032Y-11605380D01*
X15171698Y-11609544D01*
X15172058Y-11615217D01*
X15171129Y-11622430D01*
X15170077Y-11627061D01*
X15169369Y-11630085D01*
X15168831Y-11633107D01*
X15168440Y-11636478D01*
X15168170Y-11640548D01*
X15167998Y-11645667D01*
X15167897Y-11652184D01*
X15167853Y-11658727D01*
X15167876Y-11667475D01*
X15168025Y-11675226D01*
X15168289Y-11681699D01*
X15168659Y-11686616D01*
X15168974Y-11688985D01*
X15171821Y-11700883D01*
X15175817Y-11711260D01*
X15180925Y-11720046D01*
X15187112Y-11727171D01*
X15189238Y-11729029D01*
X15194844Y-11732672D01*
X15200258Y-11734293D01*
X15205493Y-11733895D01*
X15210568Y-11731475D01*
X15213288Y-11729291D01*
X15217211Y-11724806D01*
X15220926Y-11718984D01*
X15224037Y-11712514D01*
X15225611Y-11708066D01*
X15227366Y-11699748D01*
X15228213Y-11689784D01*
X15228156Y-11678345D01*
X15227195Y-11665601D01*
X15225334Y-11651725D01*
X15224898Y-11649088D01*
X15223030Y-11639709D01*
X15220646Y-11630930D01*
X15217534Y-11622097D01*
X15213477Y-11612556D01*
X15211651Y-11608623D01*
X15207502Y-11599692D01*
X15204338Y-11592510D01*
X15202150Y-11587054D01*
X15200928Y-11583300D01*
X15200640Y-11581542D01*
X15201547Y-11578707D01*
X15204057Y-11576767D01*
X15207855Y-11575948D01*
X15208442Y-11575936D01*
X15214028Y-11576551D01*
X15219216Y-11578482D01*
X15224148Y-11581860D01*
X15228968Y-11586813D01*
X15233822Y-11593472D01*
X15238853Y-11601966D01*
X15240262Y-11604595D01*
X15246655Y-11618769D01*
X15251477Y-11633834D01*
X15254718Y-11649510D01*
X15256370Y-11665515D01*
X15256424Y-11681567D01*
X15254871Y-11697385D01*
X15251703Y-11712686D01*
X15246910Y-11727190D01*
X15244276Y-11733264D01*
X15239432Y-11741575D01*
X15233210Y-11749064D01*
X15225940Y-11755466D01*
X15217950Y-11760513D01*
X15209569Y-11763940D01*
X15205053Y-11765014D01*
X15197100Y-11765394D01*
X15188970Y-11763839D01*
X15180838Y-11760413D01*
X15172881Y-11755181D01*
X15168487Y-11751413D01*
X15161681Y-11744171D01*
X15156079Y-11736179D01*
X15151415Y-11727007D01*
X15147963Y-11717871D01*
X15145795Y-11711036D01*
X15144163Y-11705017D01*
X15142995Y-11699316D01*
X15142222Y-11693433D01*
X15141771Y-11686872D01*
X15141572Y-11679131D01*
X15141545Y-11672710D01*
X15141509Y-11666825D01*
X15141394Y-11661710D01*
X15141213Y-11657684D01*
X15140981Y-11655064D01*
X15140722Y-11654168D01*
X15139489Y-11655087D01*
X15137755Y-11657656D01*
X15135644Y-11661590D01*
X15133282Y-11666605D01*
X15130792Y-11672418D01*
X15128300Y-11678745D01*
X15125930Y-11685301D01*
X15123807Y-11691804D01*
X15123005Y-11694500D01*
X15120743Y-11702851D01*
X15118718Y-11711459D01*
X15116844Y-11720745D01*
X15115038Y-11731135D01*
X15113215Y-11743049D01*
X15112862Y-11745507D01*
X15111935Y-11751808D01*
X15111164Y-11756420D01*
X15110468Y-11759671D01*
X15109763Y-11761890D01*
X15108965Y-11763405D01*
X15108076Y-11764464D01*
X15104565Y-11766774D01*
X15100214Y-11767414D01*
X15094833Y-11766409D01*
X15094557Y-11766324D01*
X15089561Y-11763792D01*
X15084496Y-11759405D01*
X15079477Y-11753333D01*
X15074618Y-11745745D01*
X15070034Y-11736810D01*
X15065839Y-11726698D01*
X15063788Y-11720846D01*
X15062136Y-11715949D01*
X15060642Y-11711744D01*
X15059448Y-11708611D01*
X15058694Y-11706933D01*
X15058587Y-11706781D01*
X15057779Y-11707267D01*
X15056204Y-11709217D01*
X15054086Y-11712321D01*
X15051651Y-11716270D01*
X15051592Y-11716372D01*
X15043435Y-11729267D01*
X15035327Y-11740152D01*
X15027251Y-11749046D01*
X15019189Y-11755971D01*
X15016309Y-11757971D01*
X15007611Y-11762512D01*
X14998578Y-11765147D01*
X14989423Y-11765926D01*
X14980358Y-11764902D01*
X14971594Y-11762124D01*
X14963345Y-11757645D01*
X14955821Y-11751515D01*
X14949235Y-11743785D01*
X14947642Y-11741426D01*
X14941269Y-11730106D01*
X14936290Y-11718100D01*
X14932650Y-11705187D01*
X14930292Y-11691144D01*
X14929160Y-11675749D01*
X14929036Y-11667884D01*
X14929176Y-11664701D01*
X14957684Y-11664701D01*
X14958038Y-11667406D01*
X14958808Y-11668391D01*
X14958829Y-11668392D01*
X14960092Y-11667758D01*
X14962266Y-11666126D01*
X14964013Y-11664624D01*
X14969190Y-11659214D01*
X14974638Y-11652211D01*
X14980134Y-11643995D01*
X14985453Y-11634944D01*
X14990372Y-11625438D01*
X14994669Y-11615854D01*
X14997949Y-11607087D01*
X15000251Y-11599162D01*
X15001940Y-11591227D01*
X15002998Y-11583594D01*
X15003408Y-11576577D01*
X15003155Y-11570488D01*
X15002220Y-11565639D01*
X15000588Y-11562344D01*
X15000358Y-11562082D01*
X14997364Y-11560228D01*
X14993566Y-11559645D01*
X14989828Y-11560443D01*
X14989322Y-11560691D01*
X14987478Y-11562394D01*
X14985080Y-11565669D01*
X14982299Y-11570192D01*
X14979308Y-11575636D01*
X14976278Y-11581676D01*
X14973380Y-11587986D01*
X14970786Y-11594241D01*
X14968872Y-11599501D01*
X14967109Y-11605299D01*
X14965389Y-11611940D01*
X14963750Y-11619169D01*
X14962230Y-11626730D01*
X14960865Y-11634365D01*
X14959694Y-11641820D01*
X14958752Y-11648837D01*
X14958079Y-11655160D01*
X14957710Y-11660534D01*
X14957684Y-11664701D01*
X14929176Y-11664701D01*
X14929931Y-11647599D01*
X14932529Y-11627226D01*
X14936745Y-11607291D01*
X14941597Y-11590904D01*
X14946516Y-11577656D01*
X14951685Y-11566256D01*
X14957207Y-11556523D01*
X14963183Y-11548279D01*
X14969479Y-11541562D01*
X14977000Y-11535520D01*
X14984581Y-11531335D01*
X14992097Y-11529021D01*
X14999425Y-11528587D01*
X15006440Y-11530047D01*
G37*
D10*
%TO.C,SW3*%
X16870000Y-13975000D02*
X16900000Y-13975000D01*
X16870000Y-14305000D02*
X16870000Y-13975000D01*
X16900000Y-14305000D02*
X16870000Y-14305000D01*
X17120000Y-14305000D02*
X17150000Y-14305000D01*
X17150000Y-13975000D02*
X17120000Y-13975000D01*
X17150000Y-14305000D02*
X17150000Y-13975000D01*
%TO.C,C15*%
X14832000Y-9580125D02*
X14832000Y-9437875D01*
X15014000Y-9580125D02*
X15014000Y-9437875D01*
%TO.C,C12*%
X13894125Y-9328000D02*
X13751875Y-9328000D01*
X13894125Y-9510000D02*
X13751875Y-9510000D01*
%TO.C,R1*%
X15747750Y-13405472D02*
X15747750Y-13354528D01*
X15852250Y-13405472D02*
X15852250Y-13354528D01*
%TO.C,SW2*%
X16170000Y-13975000D02*
X16200000Y-13975000D01*
X16170000Y-14305000D02*
X16170000Y-13975000D01*
X16200000Y-14305000D02*
X16170000Y-14305000D01*
X16420000Y-14305000D02*
X16450000Y-14305000D01*
X16450000Y-13975000D02*
X16420000Y-13975000D01*
X16450000Y-14305000D02*
X16450000Y-13975000D01*
%TO.C,SW5*%
X15444058Y-10990357D02*
X15474058Y-10990357D01*
X15444058Y-11320357D02*
X15444058Y-10990357D01*
X15474058Y-11320357D02*
X15444058Y-11320357D01*
X15694058Y-11320357D02*
X15724058Y-11320357D01*
X15724058Y-10990357D02*
X15694058Y-10990357D01*
X15724058Y-11320357D02*
X15724058Y-10990357D01*
%TO.C,D4*%
X17630000Y-13843500D02*
X17876000Y-13843500D01*
X17876000Y-13696500D02*
X17630000Y-13696500D01*
X17876000Y-13843500D02*
X17876000Y-13696500D01*
%TO.C,TP3*%
X13690000Y-12970000D02*
G75*
G02*
X13550000Y-12970000I-70000J0D01*
G01*
X13550000Y-12970000D02*
G75*
G02*
X13690000Y-12970000I70000J0D01*
G01*
%TO.C,JP2*%
X13500000Y-12170000D02*
X13500000Y-12030000D01*
X13570000Y-11960000D02*
X13630000Y-11960000D01*
X13630000Y-12240000D02*
X13570000Y-12240000D01*
X13700000Y-12030000D02*
X13700000Y-12170000D01*
X13500000Y-12030000D02*
G75*
G02*
X13570000Y-11960000I70000J0D01*
G01*
X13570000Y-12240000D02*
G75*
G02*
X13500000Y-12170000I0J70000D01*
G01*
X13630000Y-11960000D02*
G75*
G02*
X13700000Y-12030000I0J-70000D01*
G01*
X13700000Y-12170000D02*
G75*
G02*
X13630000Y-12240000I-70000J0D01*
G01*
D14*
%TO.C,BT2*%
X15927500Y-5806500D02*
X15927500Y-13511500D01*
X15927500Y-13511500D02*
X17992500Y-13511500D01*
D15*
X16960000Y-6584000D02*
X16960000Y-6434000D01*
X16960000Y-12734000D02*
X16960000Y-12884000D01*
X17035000Y-6509000D02*
X16885000Y-6509000D01*
D14*
X17992500Y-5806500D02*
X15927500Y-5806500D01*
X17992500Y-13511500D02*
X17992500Y-5806500D01*
D16*
X17100000Y-6509000D02*
G75*
G02*
X16820000Y-6509000I-140000J0D01*
G01*
X16820000Y-6509000D02*
G75*
G02*
X17100000Y-6509000I140000J0D01*
G01*
X17100000Y-12809000D02*
G75*
G02*
X16820000Y-12809000I-140000J0D01*
G01*
X16820000Y-12809000D02*
G75*
G02*
X17100000Y-12809000I140000J0D01*
G01*
D10*
%TO.C,J6*%
X13795000Y-6167000D02*
X13862000Y-6167000D01*
X13795000Y-6433000D02*
X13795000Y-6167000D01*
X13795000Y-6433000D02*
X14116000Y-6433000D01*
X13862000Y-6167000D02*
X13862000Y-6046000D01*
X14014000Y-6167000D02*
X14370000Y-6167000D01*
X14268000Y-6433000D02*
X14624000Y-6433000D01*
X14522000Y-6167000D02*
X14878000Y-6167000D01*
X14776000Y-6433000D02*
X15132000Y-6433000D01*
X15030000Y-6167000D02*
X15386000Y-6167000D01*
X15284000Y-6433000D02*
X15605000Y-6433000D01*
X15538000Y-6167000D02*
X15605000Y-6167000D01*
X15605000Y-6433000D02*
X15605000Y-6167000D01*
%TO.C,TP4*%
X13690000Y-13190000D02*
G75*
G02*
X13550000Y-13190000I-70000J0D01*
G01*
X13550000Y-13190000D02*
G75*
G02*
X13690000Y-13190000I70000J0D01*
G01*
%TO.C,TP1*%
X13690000Y-12530000D02*
G75*
G02*
X13550000Y-12530000I-70000J0D01*
G01*
X13550000Y-12530000D02*
G75*
G02*
X13690000Y-12530000I70000J0D01*
G01*
D14*
%TO.C,J7*%
X13558000Y-9604000D02*
X14508000Y-9604000D01*
X13558000Y-10724000D02*
X13558000Y-9604000D01*
X14508000Y-9604000D02*
X14508000Y-9717650D01*
X14508000Y-10724000D02*
X13558000Y-10724000D01*
X14508000Y-10724000D02*
X14508000Y-10080350D01*
D15*
X13503000Y-10029000D02*
G75*
G02*
X13483000Y-10029000I-10000J0D01*
G01*
X13483000Y-10029000D02*
G75*
G02*
X13503000Y-10029000I10000J0D01*
G01*
D10*
%TO.C,D14*%
X14257000Y-9345500D02*
X14257000Y-9492500D01*
X14257000Y-9492500D02*
X14503000Y-9492500D01*
X14503000Y-9345500D02*
X14257000Y-9345500D01*
%TO.C,D6*%
X14420000Y-9106000D02*
X14706000Y-9106000D01*
X14706000Y-8914000D02*
X14420000Y-8914000D01*
X14706000Y-9106000D02*
X14706000Y-8914000D01*
%TO.C,D2*%
X16230000Y-13843500D02*
X16476000Y-13843500D01*
X16476000Y-13696500D02*
X16230000Y-13696500D01*
X16476000Y-13843500D02*
X16476000Y-13696500D01*
%TO.C,U1*%
X13780000Y-11864000D02*
X13780000Y-11964000D01*
X13780000Y-11864000D02*
X13930000Y-11864000D01*
X13780000Y-14449000D02*
X13780000Y-13829000D01*
X15620000Y-11864000D02*
X15470000Y-11864000D01*
X15620000Y-11964000D02*
X15620000Y-11864000D01*
X15620000Y-13769000D02*
X15620000Y-14449000D01*
X15620000Y-13769000D02*
X15660000Y-13769000D01*
X15620000Y-14449000D02*
X13780000Y-14449000D01*
%TO.C,JP1*%
X15800000Y-13700000D02*
X15800000Y-13640000D01*
X15870000Y-13570000D02*
X16010000Y-13570000D01*
X16010000Y-13770000D02*
X15870000Y-13770000D01*
X16080000Y-13640000D02*
X16080000Y-13700000D01*
X15800000Y-13640000D02*
G75*
G02*
X15870000Y-13570000I70000J0D01*
G01*
X15870000Y-13770000D02*
G75*
G02*
X15800000Y-13700000I0J70000D01*
G01*
X16010000Y-13570000D02*
G75*
G02*
X16080000Y-13640000I0J-70000D01*
G01*
X16080000Y-13700000D02*
G75*
G02*
X16010000Y-13770000I-70000J0D01*
G01*
%TO.C,SW7*%
X15158000Y-9299000D02*
X15158000Y-9329000D01*
X15158000Y-9579000D02*
X15158000Y-9549000D01*
X15488000Y-9299000D02*
X15158000Y-9299000D01*
X15488000Y-9329000D02*
X15488000Y-9299000D01*
X15488000Y-9549000D02*
X15488000Y-9579000D01*
X15488000Y-9579000D02*
X15158000Y-9579000D01*
%TO.C,D3*%
X16930000Y-13843500D02*
X17176000Y-13843500D01*
X17176000Y-13696500D02*
X16930000Y-13696500D01*
X17176000Y-13843500D02*
X17176000Y-13696500D01*
%TO.C,R22*%
X14650750Y-9454472D02*
X14650750Y-9403528D01*
X14755250Y-9454472D02*
X14755250Y-9403528D01*
%TO.C,R15*%
X15233750Y-11049528D02*
X15233750Y-11100472D01*
X15338250Y-11049528D02*
X15338250Y-11100472D01*
%TO.C,R14*%
X15078750Y-11049528D02*
X15078750Y-11100472D01*
X15183250Y-11049528D02*
X15183250Y-11100472D01*
%TO.C,SW4*%
X17570000Y-13975000D02*
X17600000Y-13975000D01*
X17570000Y-14305000D02*
X17570000Y-13975000D01*
X17600000Y-14305000D02*
X17570000Y-14305000D01*
X17820000Y-14305000D02*
X17850000Y-14305000D01*
X17850000Y-13975000D02*
X17820000Y-13975000D01*
X17850000Y-14305000D02*
X17850000Y-13975000D01*
%TO.C,D8*%
X15223000Y-10374250D02*
X15223000Y-10544250D01*
X15223000Y-10374250D02*
X15549000Y-10374250D01*
X15223000Y-10544250D02*
X15549000Y-10544250D01*
%TO.C,TP2*%
X13690000Y-12750000D02*
G75*
G02*
X13550000Y-12750000I-70000J0D01*
G01*
X13550000Y-12750000D02*
G75*
G02*
X13690000Y-12750000I70000J0D01*
G01*
D14*
%TO.C,SW6*%
X12432500Y-14190000D02*
X12432500Y-14290000D01*
X12467500Y-14105000D02*
X13067500Y-14105000D01*
X12467500Y-14375000D02*
X13067500Y-14375000D01*
X12617500Y-14375000D02*
X12617500Y-14525000D01*
X12617500Y-14525000D02*
X12767500Y-14525000D01*
X12767500Y-14525000D02*
X12767500Y-14375000D01*
X13102500Y-14190000D02*
X13102500Y-14290000D01*
D15*
X12552500Y-13935000D02*
G75*
G02*
X12532500Y-13935000I-10000J0D01*
G01*
X12532500Y-13935000D02*
G75*
G02*
X12552500Y-13935000I10000J0D01*
G01*
D10*
%TO.C,D7*%
X15195000Y-10374250D02*
X14869000Y-10374250D01*
X15195000Y-10544250D02*
X14869000Y-10544250D01*
X15195000Y-10544250D02*
X15195000Y-10374250D01*
%TO.C,J3*%
X14059000Y-7040000D02*
X14116000Y-7040000D01*
X14059000Y-7560000D02*
X14059000Y-7040000D01*
X14059000Y-7560000D02*
X14116000Y-7560000D01*
X14116000Y-7040000D02*
X14116000Y-6904000D01*
X14268000Y-7040000D02*
X14370000Y-7040000D01*
X14268000Y-7560000D02*
X14370000Y-7560000D01*
X14522000Y-7040000D02*
X14624000Y-7040000D01*
X14522000Y-7560000D02*
X14624000Y-7560000D01*
X14776000Y-7040000D02*
X14878000Y-7040000D01*
X14776000Y-7560000D02*
X14878000Y-7560000D01*
X15030000Y-7040000D02*
X15132000Y-7040000D01*
X15030000Y-7560000D02*
X15132000Y-7560000D01*
X15284000Y-7040000D02*
X15341000Y-7040000D01*
X15284000Y-7560000D02*
X15341000Y-7560000D01*
X15341000Y-7560000D02*
X15341000Y-7040000D01*
%TO.C,TP5*%
X13552000Y-10924500D02*
X13690000Y-10924500D01*
X13552000Y-11062500D02*
X13552000Y-10924500D01*
X13552000Y-11189500D02*
X13552000Y-11454500D01*
X13552000Y-11189500D02*
X13828000Y-11189500D01*
X13552000Y-11454500D02*
X13828000Y-11454500D01*
X13828000Y-11189500D02*
X13828000Y-11454500D01*
D11*
%TO.C,J1*%
X14763000Y-9888000D02*
X14890500Y-9888000D01*
X14763000Y-10234000D02*
X14763000Y-9888000D01*
X14890500Y-10234000D02*
X14763000Y-10234000D01*
X15365000Y-9888000D02*
X15085000Y-9888000D01*
X15365000Y-10234000D02*
X15085000Y-10234000D01*
X15559500Y-9888000D02*
X15687000Y-9888000D01*
X15687000Y-9888000D02*
X15687000Y-10234000D01*
X15687000Y-10234000D02*
X15559500Y-10234000D01*
X15739300Y-10107700D02*
X15739300Y-10187700D01*
X15739300Y-10187700D02*
X15809300Y-10147700D01*
X15809300Y-10147700D02*
X15739300Y-10107700D01*
D14*
%TO.C,BT1*%
X11407500Y-5807500D02*
X11407500Y-13512500D01*
X11407500Y-13512500D02*
X13472500Y-13512500D01*
D15*
X12365000Y-12810000D02*
X12515000Y-12810000D01*
X12440000Y-6585000D02*
X12440000Y-6435000D01*
X12440000Y-12735000D02*
X12440000Y-12885000D01*
D14*
X13472500Y-5807500D02*
X11407500Y-5807500D01*
X13472500Y-13512500D02*
X13472500Y-5807500D01*
D16*
X12580000Y-6510000D02*
G75*
G02*
X12300000Y-6510000I-140000J0D01*
G01*
X12300000Y-6510000D02*
G75*
G02*
X12580000Y-6510000I140000J0D01*
G01*
X12580000Y-12810000D02*
G75*
G02*
X12300000Y-12810000I-140000J0D01*
G01*
X12300000Y-12810000D02*
G75*
G02*
X12580000Y-12810000I140000J0D01*
G01*
D10*
%TO.C,TP6*%
X14943500Y-10870250D02*
X14943500Y-10732250D01*
X15081500Y-10870250D02*
X14943500Y-10870250D01*
X15208500Y-10594250D02*
X15473500Y-10594250D01*
X15208500Y-10870250D02*
X15208500Y-10594250D01*
X15208500Y-10870250D02*
X15473500Y-10870250D01*
X15473500Y-10870250D02*
X15473500Y-10594250D01*
%TD*%
M02*
