%TF.GenerationSoftware,KiCad,Pcbnew,10.0.3*%
%TF.CreationDate,2026-06-10T14:53:33+02:00*%
%TF.ProjectId,ZumoComSystem,5a756d6f-436f-46d5-9379-7374656d2e6b,V3.1*%
%TF.SameCoordinates,Original*%
%TF.FileFunction,Other,Comment*%
%FSLAX45Y45*%
G04 Gerber Fmt 4.5, Leading zero omitted, Abs format (unit mm)*
G04 Created by KiCad (PCBNEW 10.0.3) date 2026-06-10 14:53:33*
%MOMM*%
%LPD*%
G01*
G04 APERTURE LIST*
%ADD10C,0.150000*%
%ADD11C,0.098425*%
G04 APERTURE END LIST*
D10*
X14428809Y-14119910D02*
X14476428Y-14119910D01*
X14419286Y-14148482D02*
X14452619Y-14048482D01*
X14452619Y-14048482D02*
X14485952Y-14148482D01*
X14519286Y-14081815D02*
X14519286Y-14148482D01*
X14519286Y-14091339D02*
X14524048Y-14086577D01*
X14524048Y-14086577D02*
X14533571Y-14081815D01*
X14533571Y-14081815D02*
X14547857Y-14081815D01*
X14547857Y-14081815D02*
X14557381Y-14086577D01*
X14557381Y-14086577D02*
X14562143Y-14096101D01*
X14562143Y-14096101D02*
X14562143Y-14148482D01*
X14595476Y-14081815D02*
X14633571Y-14081815D01*
X14609762Y-14048482D02*
X14609762Y-14134196D01*
X14609762Y-14134196D02*
X14614524Y-14143720D01*
X14614524Y-14143720D02*
X14624048Y-14148482D01*
X14624048Y-14148482D02*
X14633571Y-14148482D01*
X14705000Y-14143720D02*
X14695476Y-14148482D01*
X14695476Y-14148482D02*
X14676429Y-14148482D01*
X14676429Y-14148482D02*
X14666905Y-14143720D01*
X14666905Y-14143720D02*
X14662143Y-14134196D01*
X14662143Y-14134196D02*
X14662143Y-14096101D01*
X14662143Y-14096101D02*
X14666905Y-14086577D01*
X14666905Y-14086577D02*
X14676429Y-14081815D01*
X14676429Y-14081815D02*
X14695476Y-14081815D01*
X14695476Y-14081815D02*
X14705000Y-14086577D01*
X14705000Y-14086577D02*
X14709762Y-14096101D01*
X14709762Y-14096101D02*
X14709762Y-14105625D01*
X14709762Y-14105625D02*
X14662143Y-14115148D01*
X14752619Y-14081815D02*
X14752619Y-14148482D01*
X14752619Y-14091339D02*
X14757381Y-14086577D01*
X14757381Y-14086577D02*
X14766905Y-14081815D01*
X14766905Y-14081815D02*
X14781190Y-14081815D01*
X14781190Y-14081815D02*
X14790714Y-14086577D01*
X14790714Y-14086577D02*
X14795476Y-14096101D01*
X14795476Y-14096101D02*
X14795476Y-14148482D01*
X14843095Y-14081815D02*
X14843095Y-14148482D01*
X14843095Y-14091339D02*
X14847857Y-14086577D01*
X14847857Y-14086577D02*
X14857381Y-14081815D01*
X14857381Y-14081815D02*
X14871667Y-14081815D01*
X14871667Y-14081815D02*
X14881190Y-14086577D01*
X14881190Y-14086577D02*
X14885952Y-14096101D01*
X14885952Y-14096101D02*
X14885952Y-14148482D01*
X14976429Y-14148482D02*
X14976429Y-14096101D01*
X14976429Y-14096101D02*
X14971667Y-14086577D01*
X14971667Y-14086577D02*
X14962143Y-14081815D01*
X14962143Y-14081815D02*
X14943095Y-14081815D01*
X14943095Y-14081815D02*
X14933571Y-14086577D01*
X14976429Y-14143720D02*
X14966905Y-14148482D01*
X14966905Y-14148482D02*
X14943095Y-14148482D01*
X14943095Y-14148482D02*
X14933571Y-14143720D01*
X14933571Y-14143720D02*
X14928810Y-14134196D01*
X14928810Y-14134196D02*
X14928810Y-14124672D01*
X14928810Y-14124672D02*
X14933571Y-14115148D01*
X14933571Y-14115148D02*
X14943095Y-14110387D01*
X14943095Y-14110387D02*
X14966905Y-14110387D01*
X14966905Y-14110387D02*
X14976429Y-14105625D01*
X13490714Y-14809244D02*
X13490714Y-14609244D01*
X13605000Y-14809244D02*
X13519286Y-14694958D01*
X13605000Y-14609244D02*
X13490714Y-14723529D01*
X13690714Y-14704482D02*
X13757381Y-14704482D01*
X13785952Y-14809244D02*
X13690714Y-14809244D01*
X13690714Y-14809244D02*
X13690714Y-14609244D01*
X13690714Y-14609244D02*
X13785952Y-14609244D01*
X13871667Y-14704482D02*
X13938333Y-14704482D01*
X13966905Y-14809244D02*
X13871667Y-14809244D01*
X13871667Y-14809244D02*
X13871667Y-14609244D01*
X13871667Y-14609244D02*
X13966905Y-14609244D01*
X14052619Y-14809244D02*
X14052619Y-14609244D01*
X14052619Y-14609244D02*
X14128809Y-14609244D01*
X14128809Y-14609244D02*
X14147857Y-14618768D01*
X14147857Y-14618768D02*
X14157381Y-14628291D01*
X14157381Y-14628291D02*
X14166905Y-14647339D01*
X14166905Y-14647339D02*
X14166905Y-14675910D01*
X14166905Y-14675910D02*
X14157381Y-14694958D01*
X14157381Y-14694958D02*
X14147857Y-14704482D01*
X14147857Y-14704482D02*
X14128809Y-14714006D01*
X14128809Y-14714006D02*
X14052619Y-14714006D01*
X14252619Y-14733053D02*
X14405000Y-14733053D01*
X14538333Y-14609244D02*
X14576428Y-14609244D01*
X14576428Y-14609244D02*
X14595476Y-14618768D01*
X14595476Y-14618768D02*
X14614524Y-14637815D01*
X14614524Y-14637815D02*
X14624047Y-14675910D01*
X14624047Y-14675910D02*
X14624047Y-14742577D01*
X14624047Y-14742577D02*
X14614524Y-14780672D01*
X14614524Y-14780672D02*
X14595476Y-14799720D01*
X14595476Y-14799720D02*
X14576428Y-14809244D01*
X14576428Y-14809244D02*
X14538333Y-14809244D01*
X14538333Y-14809244D02*
X14519286Y-14799720D01*
X14519286Y-14799720D02*
X14500238Y-14780672D01*
X14500238Y-14780672D02*
X14490714Y-14742577D01*
X14490714Y-14742577D02*
X14490714Y-14675910D01*
X14490714Y-14675910D02*
X14500238Y-14637815D01*
X14500238Y-14637815D02*
X14519286Y-14618768D01*
X14519286Y-14618768D02*
X14538333Y-14609244D01*
X14709762Y-14609244D02*
X14709762Y-14771148D01*
X14709762Y-14771148D02*
X14719286Y-14790196D01*
X14719286Y-14790196D02*
X14728809Y-14799720D01*
X14728809Y-14799720D02*
X14747857Y-14809244D01*
X14747857Y-14809244D02*
X14785952Y-14809244D01*
X14785952Y-14809244D02*
X14805000Y-14799720D01*
X14805000Y-14799720D02*
X14814524Y-14790196D01*
X14814524Y-14790196D02*
X14824047Y-14771148D01*
X14824047Y-14771148D02*
X14824047Y-14609244D01*
X14890714Y-14609244D02*
X15005000Y-14609244D01*
X14947857Y-14809244D02*
X14947857Y-14609244D01*
X15205000Y-14609244D02*
X15338333Y-14609244D01*
X15338333Y-14609244D02*
X15205000Y-14809244D01*
X15205000Y-14809244D02*
X15338333Y-14809244D01*
X15452619Y-14609244D02*
X15490714Y-14609244D01*
X15490714Y-14609244D02*
X15509762Y-14618768D01*
X15509762Y-14618768D02*
X15528809Y-14637815D01*
X15528809Y-14637815D02*
X15538333Y-14675910D01*
X15538333Y-14675910D02*
X15538333Y-14742577D01*
X15538333Y-14742577D02*
X15528809Y-14780672D01*
X15528809Y-14780672D02*
X15509762Y-14799720D01*
X15509762Y-14799720D02*
X15490714Y-14809244D01*
X15490714Y-14809244D02*
X15452619Y-14809244D01*
X15452619Y-14809244D02*
X15433571Y-14799720D01*
X15433571Y-14799720D02*
X15414524Y-14780672D01*
X15414524Y-14780672D02*
X15405000Y-14742577D01*
X15405000Y-14742577D02*
X15405000Y-14675910D01*
X15405000Y-14675910D02*
X15414524Y-14637815D01*
X15414524Y-14637815D02*
X15433571Y-14618768D01*
X15433571Y-14618768D02*
X15452619Y-14609244D01*
X15624048Y-14809244D02*
X15624048Y-14609244D01*
X15624048Y-14609244D02*
X15738333Y-14809244D01*
X15738333Y-14809244D02*
X15738333Y-14609244D01*
X15833571Y-14704482D02*
X15900238Y-14704482D01*
X15928809Y-14809244D02*
X15833571Y-14809244D01*
X15833571Y-14809244D02*
X15833571Y-14609244D01*
X15833571Y-14609244D02*
X15928809Y-14609244D01*
D11*
X15055207Y-9526101D02*
X15055207Y-9486731D01*
X15055207Y-9486731D02*
X15077705Y-9526101D01*
X15077705Y-9526101D02*
X15077705Y-9486731D01*
X15096452Y-9526101D02*
X15096452Y-9486731D01*
X15096452Y-9486731D02*
X15111450Y-9486731D01*
X15111450Y-9486731D02*
X15115200Y-9488606D01*
X15115200Y-9488606D02*
X15117075Y-9490481D01*
X15117075Y-9490481D02*
X15118949Y-9494230D01*
X15118949Y-9494230D02*
X15118949Y-9499855D01*
X15118949Y-9499855D02*
X15117075Y-9503604D01*
X15117075Y-9503604D02*
X15115200Y-9505479D01*
X15115200Y-9505479D02*
X15111450Y-9507354D01*
X15111450Y-9507354D02*
X15096452Y-9507354D01*
X15130198Y-9486731D02*
X15152695Y-9486731D01*
X15141447Y-9526101D02*
X15141447Y-9486731D01*
X15165819Y-9526101D02*
X15165819Y-9486731D01*
X15165819Y-9505479D02*
X15188316Y-9505479D01*
X15188316Y-9526101D02*
X15188316Y-9486731D01*
X15235185Y-9524227D02*
X15238935Y-9526101D01*
X15238935Y-9526101D02*
X15246434Y-9526101D01*
X15246434Y-9526101D02*
X15250183Y-9524227D01*
X15250183Y-9524227D02*
X15252058Y-9520477D01*
X15252058Y-9520477D02*
X15252058Y-9518602D01*
X15252058Y-9518602D02*
X15250183Y-9514853D01*
X15250183Y-9514853D02*
X15246434Y-9512978D01*
X15246434Y-9512978D02*
X15240809Y-9512978D01*
X15240809Y-9512978D02*
X15237060Y-9511103D01*
X15237060Y-9511103D02*
X15235185Y-9507354D01*
X15235185Y-9507354D02*
X15235185Y-9505479D01*
X15235185Y-9505479D02*
X15237060Y-9501730D01*
X15237060Y-9501730D02*
X15240809Y-9499855D01*
X15240809Y-9499855D02*
X15246434Y-9499855D01*
X15246434Y-9499855D02*
X15250183Y-9501730D01*
X15274555Y-9526101D02*
X15270806Y-9524227D01*
X15270806Y-9524227D02*
X15268931Y-9520477D01*
X15268931Y-9520477D02*
X15268931Y-9486731D01*
X15295178Y-9526101D02*
X15291428Y-9524227D01*
X15291428Y-9524227D02*
X15289553Y-9522352D01*
X15289553Y-9522352D02*
X15287678Y-9518602D01*
X15287678Y-9518602D02*
X15287678Y-9507354D01*
X15287678Y-9507354D02*
X15289553Y-9503604D01*
X15289553Y-9503604D02*
X15291428Y-9501730D01*
X15291428Y-9501730D02*
X15295178Y-9499855D01*
X15295178Y-9499855D02*
X15300802Y-9499855D01*
X15300802Y-9499855D02*
X15304551Y-9501730D01*
X15304551Y-9501730D02*
X15306426Y-9503604D01*
X15306426Y-9503604D02*
X15308301Y-9507354D01*
X15308301Y-9507354D02*
X15308301Y-9518602D01*
X15308301Y-9518602D02*
X15306426Y-9522352D01*
X15306426Y-9522352D02*
X15304551Y-9524227D01*
X15304551Y-9524227D02*
X15300802Y-9526101D01*
X15300802Y-9526101D02*
X15295178Y-9526101D01*
X15319550Y-9499855D02*
X15334548Y-9499855D01*
X15325174Y-9486731D02*
X15325174Y-9520477D01*
X15325174Y-9520477D02*
X15327049Y-9524227D01*
X15327049Y-9524227D02*
X15330798Y-9526101D01*
X15330798Y-9526101D02*
X15334548Y-9526101D01*
X15385166Y-9486731D02*
X15388916Y-9486731D01*
X15388916Y-9486731D02*
X15392665Y-9488606D01*
X15392665Y-9488606D02*
X15394540Y-9490481D01*
X15394540Y-9490481D02*
X15396415Y-9494230D01*
X15396415Y-9494230D02*
X15398290Y-9501730D01*
X15398290Y-9501730D02*
X15398290Y-9511103D01*
X15398290Y-9511103D02*
X15396415Y-9518602D01*
X15396415Y-9518602D02*
X15394540Y-9522352D01*
X15394540Y-9522352D02*
X15392665Y-9524227D01*
X15392665Y-9524227D02*
X15388916Y-9526101D01*
X15388916Y-9526101D02*
X15385166Y-9526101D01*
X15385166Y-9526101D02*
X15381417Y-9524227D01*
X15381417Y-9524227D02*
X15379542Y-9522352D01*
X15379542Y-9522352D02*
X15377667Y-9518602D01*
X15377667Y-9518602D02*
X15375793Y-9511103D01*
X15375793Y-9511103D02*
X15375793Y-9501730D01*
X15375793Y-9501730D02*
X15377667Y-9494230D01*
X15377667Y-9494230D02*
X15379542Y-9490481D01*
X15379542Y-9490481D02*
X15381417Y-9488606D01*
X15381417Y-9488606D02*
X15385166Y-9486731D01*
X15415163Y-9522352D02*
X15417037Y-9524227D01*
X15417037Y-9524227D02*
X15415163Y-9526101D01*
X15415163Y-9526101D02*
X15413288Y-9524227D01*
X15413288Y-9524227D02*
X15415163Y-9522352D01*
X15415163Y-9522352D02*
X15415163Y-9526101D01*
X15430161Y-9486731D02*
X15456408Y-9486731D01*
X15456408Y-9486731D02*
X15439535Y-9526101D01*
X15469531Y-9490481D02*
X15471406Y-9488606D01*
X15471406Y-9488606D02*
X15475155Y-9486731D01*
X15475155Y-9486731D02*
X15484529Y-9486731D01*
X15484529Y-9486731D02*
X15488279Y-9488606D01*
X15488279Y-9488606D02*
X15490153Y-9490481D01*
X15490153Y-9490481D02*
X15492028Y-9494230D01*
X15492028Y-9494230D02*
X15492028Y-9497980D01*
X15492028Y-9497980D02*
X15490153Y-9503604D01*
X15490153Y-9503604D02*
X15467656Y-9526101D01*
X15467656Y-9526101D02*
X15492028Y-9526101D01*
X15538897Y-9511103D02*
X15568894Y-9511103D01*
X15553895Y-9526101D02*
X15553895Y-9496105D01*
X15615763Y-9484857D02*
X15582017Y-9535475D01*
X15628886Y-9511103D02*
X15658882Y-9511103D01*
X15715125Y-9486731D02*
X15718875Y-9486731D01*
X15718875Y-9486731D02*
X15722624Y-9488606D01*
X15722624Y-9488606D02*
X15724499Y-9490481D01*
X15724499Y-9490481D02*
X15726374Y-9494230D01*
X15726374Y-9494230D02*
X15728249Y-9501730D01*
X15728249Y-9501730D02*
X15728249Y-9511103D01*
X15728249Y-9511103D02*
X15726374Y-9518602D01*
X15726374Y-9518602D02*
X15724499Y-9522352D01*
X15724499Y-9522352D02*
X15722624Y-9524227D01*
X15722624Y-9524227D02*
X15718875Y-9526101D01*
X15718875Y-9526101D02*
X15715125Y-9526101D01*
X15715125Y-9526101D02*
X15711376Y-9524227D01*
X15711376Y-9524227D02*
X15709501Y-9522352D01*
X15709501Y-9522352D02*
X15707626Y-9518602D01*
X15707626Y-9518602D02*
X15705751Y-9511103D01*
X15705751Y-9511103D02*
X15705751Y-9501730D01*
X15705751Y-9501730D02*
X15707626Y-9494230D01*
X15707626Y-9494230D02*
X15709501Y-9490481D01*
X15709501Y-9490481D02*
X15711376Y-9488606D01*
X15711376Y-9488606D02*
X15715125Y-9486731D01*
X15745122Y-9522352D02*
X15746996Y-9524227D01*
X15746996Y-9524227D02*
X15745122Y-9526101D01*
X15745122Y-9526101D02*
X15743247Y-9524227D01*
X15743247Y-9524227D02*
X15745122Y-9522352D01*
X15745122Y-9522352D02*
X15745122Y-9526101D01*
X15771368Y-9486731D02*
X15775118Y-9486731D01*
X15775118Y-9486731D02*
X15778867Y-9488606D01*
X15778867Y-9488606D02*
X15780742Y-9490481D01*
X15780742Y-9490481D02*
X15782617Y-9494230D01*
X15782617Y-9494230D02*
X15784492Y-9501730D01*
X15784492Y-9501730D02*
X15784492Y-9511103D01*
X15784492Y-9511103D02*
X15782617Y-9518602D01*
X15782617Y-9518602D02*
X15780742Y-9522352D01*
X15780742Y-9522352D02*
X15778867Y-9524227D01*
X15778867Y-9524227D02*
X15775118Y-9526101D01*
X15775118Y-9526101D02*
X15771368Y-9526101D01*
X15771368Y-9526101D02*
X15767619Y-9524227D01*
X15767619Y-9524227D02*
X15765744Y-9522352D01*
X15765744Y-9522352D02*
X15763869Y-9518602D01*
X15763869Y-9518602D02*
X15761994Y-9511103D01*
X15761994Y-9511103D02*
X15761994Y-9501730D01*
X15761994Y-9501730D02*
X15763869Y-9494230D01*
X15763869Y-9494230D02*
X15765744Y-9490481D01*
X15765744Y-9490481D02*
X15767619Y-9488606D01*
X15767619Y-9488606D02*
X15771368Y-9486731D01*
X15820112Y-9486731D02*
X15801365Y-9486731D01*
X15801365Y-9486731D02*
X15799490Y-9505479D01*
X15799490Y-9505479D02*
X15801365Y-9503604D01*
X15801365Y-9503604D02*
X15805114Y-9501730D01*
X15805114Y-9501730D02*
X15814488Y-9501730D01*
X15814488Y-9501730D02*
X15818237Y-9503604D01*
X15818237Y-9503604D02*
X15820112Y-9505479D01*
X15820112Y-9505479D02*
X15821987Y-9509229D01*
X15821987Y-9509229D02*
X15821987Y-9518602D01*
X15821987Y-9518602D02*
X15820112Y-9522352D01*
X15820112Y-9522352D02*
X15818237Y-9524227D01*
X15818237Y-9524227D02*
X15814488Y-9526101D01*
X15814488Y-9526101D02*
X15805114Y-9526101D01*
X15805114Y-9526101D02*
X15801365Y-9524227D01*
X15801365Y-9524227D02*
X15799490Y-9522352D01*
X15865107Y-9486731D02*
X15891353Y-9526101D01*
X15891353Y-9486731D02*
X15865107Y-9526101D01*
X15943847Y-9486731D02*
X15947596Y-9486731D01*
X15947596Y-9486731D02*
X15951346Y-9488606D01*
X15951346Y-9488606D02*
X15953221Y-9490481D01*
X15953221Y-9490481D02*
X15955095Y-9494230D01*
X15955095Y-9494230D02*
X15956970Y-9501730D01*
X15956970Y-9501730D02*
X15956970Y-9511103D01*
X15956970Y-9511103D02*
X15955095Y-9518602D01*
X15955095Y-9518602D02*
X15953221Y-9522352D01*
X15953221Y-9522352D02*
X15951346Y-9524227D01*
X15951346Y-9524227D02*
X15947596Y-9526101D01*
X15947596Y-9526101D02*
X15943847Y-9526101D01*
X15943847Y-9526101D02*
X15940097Y-9524227D01*
X15940097Y-9524227D02*
X15938223Y-9522352D01*
X15938223Y-9522352D02*
X15936348Y-9518602D01*
X15936348Y-9518602D02*
X15934473Y-9511103D01*
X15934473Y-9511103D02*
X15934473Y-9501730D01*
X15934473Y-9501730D02*
X15936348Y-9494230D01*
X15936348Y-9494230D02*
X15938223Y-9490481D01*
X15938223Y-9490481D02*
X15940097Y-9488606D01*
X15940097Y-9488606D02*
X15943847Y-9486731D01*
X15973843Y-9522352D02*
X15975718Y-9524227D01*
X15975718Y-9524227D02*
X15973843Y-9526101D01*
X15973843Y-9526101D02*
X15971968Y-9524227D01*
X15971968Y-9524227D02*
X15973843Y-9522352D01*
X15973843Y-9522352D02*
X15973843Y-9526101D01*
X16011338Y-9486731D02*
X15992591Y-9486731D01*
X15992591Y-9486731D02*
X15990716Y-9505479D01*
X15990716Y-9505479D02*
X15992591Y-9503604D01*
X15992591Y-9503604D02*
X15996340Y-9501730D01*
X15996340Y-9501730D02*
X16005714Y-9501730D01*
X16005714Y-9501730D02*
X16009464Y-9503604D01*
X16009464Y-9503604D02*
X16011338Y-9505479D01*
X16011338Y-9505479D02*
X16013213Y-9509229D01*
X16013213Y-9509229D02*
X16013213Y-9518602D01*
X16013213Y-9518602D02*
X16011338Y-9522352D01*
X16011338Y-9522352D02*
X16009464Y-9524227D01*
X16009464Y-9524227D02*
X16005714Y-9526101D01*
X16005714Y-9526101D02*
X15996340Y-9526101D01*
X15996340Y-9526101D02*
X15992591Y-9524227D01*
X15992591Y-9524227D02*
X15990716Y-9522352D01*
X16028211Y-9490481D02*
X16030086Y-9488606D01*
X16030086Y-9488606D02*
X16033836Y-9486731D01*
X16033836Y-9486731D02*
X16043209Y-9486731D01*
X16043209Y-9486731D02*
X16046959Y-9488606D01*
X16046959Y-9488606D02*
X16048834Y-9490481D01*
X16048834Y-9490481D02*
X16050708Y-9494230D01*
X16050708Y-9494230D02*
X16050708Y-9497980D01*
X16050708Y-9497980D02*
X16048834Y-9503604D01*
X16048834Y-9503604D02*
X16026337Y-9526101D01*
X16026337Y-9526101D02*
X16050708Y-9526101D01*
X16097578Y-9511103D02*
X16127574Y-9511103D01*
X16112576Y-9526101D02*
X16112576Y-9496105D01*
X16174443Y-9484857D02*
X16140697Y-9535475D01*
X16187566Y-9511103D02*
X16217563Y-9511103D01*
X16273806Y-9486731D02*
X16277555Y-9486731D01*
X16277555Y-9486731D02*
X16281305Y-9488606D01*
X16281305Y-9488606D02*
X16283180Y-9490481D01*
X16283180Y-9490481D02*
X16285054Y-9494230D01*
X16285054Y-9494230D02*
X16286929Y-9501730D01*
X16286929Y-9501730D02*
X16286929Y-9511103D01*
X16286929Y-9511103D02*
X16285054Y-9518602D01*
X16285054Y-9518602D02*
X16283180Y-9522352D01*
X16283180Y-9522352D02*
X16281305Y-9524227D01*
X16281305Y-9524227D02*
X16277555Y-9526101D01*
X16277555Y-9526101D02*
X16273806Y-9526101D01*
X16273806Y-9526101D02*
X16270056Y-9524227D01*
X16270056Y-9524227D02*
X16268181Y-9522352D01*
X16268181Y-9522352D02*
X16266307Y-9518602D01*
X16266307Y-9518602D02*
X16264432Y-9511103D01*
X16264432Y-9511103D02*
X16264432Y-9501730D01*
X16264432Y-9501730D02*
X16266307Y-9494230D01*
X16266307Y-9494230D02*
X16268181Y-9490481D01*
X16268181Y-9490481D02*
X16270056Y-9488606D01*
X16270056Y-9488606D02*
X16273806Y-9486731D01*
X16303802Y-9522352D02*
X16305677Y-9524227D01*
X16305677Y-9524227D02*
X16303802Y-9526101D01*
X16303802Y-9526101D02*
X16301927Y-9524227D01*
X16301927Y-9524227D02*
X16303802Y-9522352D01*
X16303802Y-9522352D02*
X16303802Y-9526101D01*
X16330049Y-9486731D02*
X16333798Y-9486731D01*
X16333798Y-9486731D02*
X16337548Y-9488606D01*
X16337548Y-9488606D02*
X16339423Y-9490481D01*
X16339423Y-9490481D02*
X16341297Y-9494230D01*
X16341297Y-9494230D02*
X16343172Y-9501730D01*
X16343172Y-9501730D02*
X16343172Y-9511103D01*
X16343172Y-9511103D02*
X16341297Y-9518602D01*
X16341297Y-9518602D02*
X16339423Y-9522352D01*
X16339423Y-9522352D02*
X16337548Y-9524227D01*
X16337548Y-9524227D02*
X16333798Y-9526101D01*
X16333798Y-9526101D02*
X16330049Y-9526101D01*
X16330049Y-9526101D02*
X16326299Y-9524227D01*
X16326299Y-9524227D02*
X16324424Y-9522352D01*
X16324424Y-9522352D02*
X16322550Y-9518602D01*
X16322550Y-9518602D02*
X16320675Y-9511103D01*
X16320675Y-9511103D02*
X16320675Y-9501730D01*
X16320675Y-9501730D02*
X16322550Y-9494230D01*
X16322550Y-9494230D02*
X16324424Y-9490481D01*
X16324424Y-9490481D02*
X16326299Y-9488606D01*
X16326299Y-9488606D02*
X16330049Y-9486731D01*
X16378793Y-9486731D02*
X16360045Y-9486731D01*
X16360045Y-9486731D02*
X16358170Y-9505479D01*
X16358170Y-9505479D02*
X16360045Y-9503604D01*
X16360045Y-9503604D02*
X16363794Y-9501730D01*
X16363794Y-9501730D02*
X16373168Y-9501730D01*
X16373168Y-9501730D02*
X16376918Y-9503604D01*
X16376918Y-9503604D02*
X16378793Y-9505479D01*
X16378793Y-9505479D02*
X16380667Y-9509229D01*
X16380667Y-9509229D02*
X16380667Y-9518602D01*
X16380667Y-9518602D02*
X16378793Y-9522352D01*
X16378793Y-9522352D02*
X16376918Y-9524227D01*
X16376918Y-9524227D02*
X16373168Y-9526101D01*
X16373168Y-9526101D02*
X16363794Y-9526101D01*
X16363794Y-9526101D02*
X16360045Y-9524227D01*
X16360045Y-9524227D02*
X16358170Y-9522352D01*
X15329861Y-9623101D02*
X15329861Y-9583731D01*
X15329861Y-9583731D02*
X15352358Y-9623101D01*
X15352358Y-9623101D02*
X15352358Y-9583731D01*
X15371105Y-9623101D02*
X15371105Y-9583731D01*
X15371105Y-9583731D02*
X15386104Y-9583731D01*
X15386104Y-9583731D02*
X15389853Y-9585606D01*
X15389853Y-9585606D02*
X15391728Y-9587481D01*
X15391728Y-9587481D02*
X15393603Y-9591230D01*
X15393603Y-9591230D02*
X15393603Y-9596855D01*
X15393603Y-9596855D02*
X15391728Y-9600604D01*
X15391728Y-9600604D02*
X15389853Y-9602479D01*
X15389853Y-9602479D02*
X15386104Y-9604354D01*
X15386104Y-9604354D02*
X15371105Y-9604354D01*
X15404851Y-9583731D02*
X15427348Y-9583731D01*
X15416100Y-9623101D02*
X15416100Y-9583731D01*
X15440472Y-9623101D02*
X15440472Y-9583731D01*
X15440472Y-9602479D02*
X15462969Y-9602479D01*
X15462969Y-9623101D02*
X15462969Y-9583731D01*
X15528586Y-9623101D02*
X15528586Y-9583731D01*
X15528586Y-9621227D02*
X15524836Y-9623101D01*
X15524836Y-9623101D02*
X15517337Y-9623101D01*
X15517337Y-9623101D02*
X15513588Y-9621227D01*
X15513588Y-9621227D02*
X15511713Y-9619352D01*
X15511713Y-9619352D02*
X15509838Y-9615602D01*
X15509838Y-9615602D02*
X15509838Y-9604354D01*
X15509838Y-9604354D02*
X15511713Y-9600604D01*
X15511713Y-9600604D02*
X15513588Y-9598730D01*
X15513588Y-9598730D02*
X15517337Y-9596855D01*
X15517337Y-9596855D02*
X15524836Y-9596855D01*
X15524836Y-9596855D02*
X15528586Y-9598730D01*
X15547334Y-9623101D02*
X15547334Y-9596855D01*
X15547334Y-9604354D02*
X15549208Y-9600604D01*
X15549208Y-9600604D02*
X15551083Y-9598730D01*
X15551083Y-9598730D02*
X15554833Y-9596855D01*
X15554833Y-9596855D02*
X15558582Y-9596855D01*
X15571706Y-9623101D02*
X15571706Y-9596855D01*
X15571706Y-9583731D02*
X15569831Y-9585606D01*
X15569831Y-9585606D02*
X15571706Y-9587481D01*
X15571706Y-9587481D02*
X15573580Y-9585606D01*
X15573580Y-9585606D02*
X15571706Y-9583731D01*
X15571706Y-9583731D02*
X15571706Y-9587481D01*
X15596078Y-9623101D02*
X15592328Y-9621227D01*
X15592328Y-9621227D02*
X15590453Y-9617477D01*
X15590453Y-9617477D02*
X15590453Y-9583731D01*
X15616700Y-9623101D02*
X15612951Y-9621227D01*
X15612951Y-9621227D02*
X15611076Y-9617477D01*
X15611076Y-9617477D02*
X15611076Y-9583731D01*
X15669194Y-9583731D02*
X15672943Y-9583731D01*
X15672943Y-9583731D02*
X15676693Y-9585606D01*
X15676693Y-9585606D02*
X15678567Y-9587481D01*
X15678567Y-9587481D02*
X15680442Y-9591230D01*
X15680442Y-9591230D02*
X15682317Y-9598730D01*
X15682317Y-9598730D02*
X15682317Y-9608103D01*
X15682317Y-9608103D02*
X15680442Y-9615602D01*
X15680442Y-9615602D02*
X15678567Y-9619352D01*
X15678567Y-9619352D02*
X15676693Y-9621227D01*
X15676693Y-9621227D02*
X15672943Y-9623101D01*
X15672943Y-9623101D02*
X15669194Y-9623101D01*
X15669194Y-9623101D02*
X15665444Y-9621227D01*
X15665444Y-9621227D02*
X15663569Y-9619352D01*
X15663569Y-9619352D02*
X15661694Y-9615602D01*
X15661694Y-9615602D02*
X15659820Y-9608103D01*
X15659820Y-9608103D02*
X15659820Y-9598730D01*
X15659820Y-9598730D02*
X15661694Y-9591230D01*
X15661694Y-9591230D02*
X15663569Y-9587481D01*
X15663569Y-9587481D02*
X15665444Y-9585606D01*
X15665444Y-9585606D02*
X15669194Y-9583731D01*
X15699190Y-9619352D02*
X15701065Y-9621227D01*
X15701065Y-9621227D02*
X15699190Y-9623101D01*
X15699190Y-9623101D02*
X15697315Y-9621227D01*
X15697315Y-9621227D02*
X15699190Y-9619352D01*
X15699190Y-9619352D02*
X15699190Y-9623101D01*
X15736685Y-9583731D02*
X15717937Y-9583731D01*
X15717937Y-9583731D02*
X15716063Y-9602479D01*
X15716063Y-9602479D02*
X15717937Y-9600604D01*
X15717937Y-9600604D02*
X15721687Y-9598730D01*
X15721687Y-9598730D02*
X15731061Y-9598730D01*
X15731061Y-9598730D02*
X15734810Y-9600604D01*
X15734810Y-9600604D02*
X15736685Y-9602479D01*
X15736685Y-9602479D02*
X15738560Y-9606229D01*
X15738560Y-9606229D02*
X15738560Y-9615602D01*
X15738560Y-9615602D02*
X15736685Y-9619352D01*
X15736685Y-9619352D02*
X15734810Y-9621227D01*
X15734810Y-9621227D02*
X15731061Y-9623101D01*
X15731061Y-9623101D02*
X15721687Y-9623101D01*
X15721687Y-9623101D02*
X15717937Y-9621227D01*
X15717937Y-9621227D02*
X15716063Y-9619352D01*
X15753558Y-9587481D02*
X15755433Y-9585606D01*
X15755433Y-9585606D02*
X15759182Y-9583731D01*
X15759182Y-9583731D02*
X15768556Y-9583731D01*
X15768556Y-9583731D02*
X15772306Y-9585606D01*
X15772306Y-9585606D02*
X15774180Y-9587481D01*
X15774180Y-9587481D02*
X15776055Y-9591230D01*
X15776055Y-9591230D02*
X15776055Y-9594980D01*
X15776055Y-9594980D02*
X15774180Y-9600604D01*
X15774180Y-9600604D02*
X15751683Y-9623101D01*
X15751683Y-9623101D02*
X15776055Y-9623101D01*
X15822924Y-9608103D02*
X15852921Y-9608103D01*
X15837922Y-9623101D02*
X15837922Y-9593105D01*
X15899790Y-9581857D02*
X15866044Y-9632475D01*
X15912913Y-9608103D02*
X15942909Y-9608103D01*
X15999152Y-9583731D02*
X16002902Y-9583731D01*
X16002902Y-9583731D02*
X16006651Y-9585606D01*
X16006651Y-9585606D02*
X16008526Y-9587481D01*
X16008526Y-9587481D02*
X16010401Y-9591230D01*
X16010401Y-9591230D02*
X16012276Y-9598730D01*
X16012276Y-9598730D02*
X16012276Y-9608103D01*
X16012276Y-9608103D02*
X16010401Y-9615602D01*
X16010401Y-9615602D02*
X16008526Y-9619352D01*
X16008526Y-9619352D02*
X16006651Y-9621227D01*
X16006651Y-9621227D02*
X16002902Y-9623101D01*
X16002902Y-9623101D02*
X15999152Y-9623101D01*
X15999152Y-9623101D02*
X15995403Y-9621227D01*
X15995403Y-9621227D02*
X15993528Y-9619352D01*
X15993528Y-9619352D02*
X15991653Y-9615602D01*
X15991653Y-9615602D02*
X15989779Y-9608103D01*
X15989779Y-9608103D02*
X15989779Y-9598730D01*
X15989779Y-9598730D02*
X15991653Y-9591230D01*
X15991653Y-9591230D02*
X15993528Y-9587481D01*
X15993528Y-9587481D02*
X15995403Y-9585606D01*
X15995403Y-9585606D02*
X15999152Y-9583731D01*
X16029149Y-9619352D02*
X16031023Y-9621227D01*
X16031023Y-9621227D02*
X16029149Y-9623101D01*
X16029149Y-9623101D02*
X16027274Y-9621227D01*
X16027274Y-9621227D02*
X16029149Y-9619352D01*
X16029149Y-9619352D02*
X16029149Y-9623101D01*
X16055395Y-9583731D02*
X16059145Y-9583731D01*
X16059145Y-9583731D02*
X16062894Y-9585606D01*
X16062894Y-9585606D02*
X16064769Y-9587481D01*
X16064769Y-9587481D02*
X16066644Y-9591230D01*
X16066644Y-9591230D02*
X16068519Y-9598730D01*
X16068519Y-9598730D02*
X16068519Y-9608103D01*
X16068519Y-9608103D02*
X16066644Y-9615602D01*
X16066644Y-9615602D02*
X16064769Y-9619352D01*
X16064769Y-9619352D02*
X16062894Y-9621227D01*
X16062894Y-9621227D02*
X16059145Y-9623101D01*
X16059145Y-9623101D02*
X16055395Y-9623101D01*
X16055395Y-9623101D02*
X16051646Y-9621227D01*
X16051646Y-9621227D02*
X16049771Y-9619352D01*
X16049771Y-9619352D02*
X16047896Y-9615602D01*
X16047896Y-9615602D02*
X16046022Y-9608103D01*
X16046022Y-9608103D02*
X16046022Y-9598730D01*
X16046022Y-9598730D02*
X16047896Y-9591230D01*
X16047896Y-9591230D02*
X16049771Y-9587481D01*
X16049771Y-9587481D02*
X16051646Y-9585606D01*
X16051646Y-9585606D02*
X16055395Y-9583731D01*
X16104139Y-9583731D02*
X16085392Y-9583731D01*
X16085392Y-9583731D02*
X16083517Y-9602479D01*
X16083517Y-9602479D02*
X16085392Y-9600604D01*
X16085392Y-9600604D02*
X16089141Y-9598730D01*
X16089141Y-9598730D02*
X16098515Y-9598730D01*
X16098515Y-9598730D02*
X16102265Y-9600604D01*
X16102265Y-9600604D02*
X16104139Y-9602479D01*
X16104139Y-9602479D02*
X16106014Y-9606229D01*
X16106014Y-9606229D02*
X16106014Y-9615602D01*
X16106014Y-9615602D02*
X16104139Y-9619352D01*
X16104139Y-9619352D02*
X16102265Y-9621227D01*
X16102265Y-9621227D02*
X16098515Y-9623101D01*
X16098515Y-9623101D02*
X16089141Y-9623101D01*
X16089141Y-9623101D02*
X16085392Y-9621227D01*
X16085392Y-9621227D02*
X16083517Y-9619352D01*
X15099577Y-9424101D02*
X15099577Y-9384731D01*
X15099577Y-9384731D02*
X15114576Y-9384731D01*
X15114576Y-9384731D02*
X15118325Y-9386606D01*
X15118325Y-9386606D02*
X15120200Y-9388481D01*
X15120200Y-9388481D02*
X15122075Y-9392230D01*
X15122075Y-9392230D02*
X15122075Y-9397855D01*
X15122075Y-9397855D02*
X15120200Y-9401604D01*
X15120200Y-9401604D02*
X15118325Y-9403479D01*
X15118325Y-9403479D02*
X15114576Y-9405354D01*
X15114576Y-9405354D02*
X15099577Y-9405354D01*
X15133323Y-9384731D02*
X15155820Y-9384731D01*
X15144572Y-9424101D02*
X15144572Y-9384731D01*
X15168944Y-9424101D02*
X15168944Y-9384731D01*
X15168944Y-9403479D02*
X15191441Y-9403479D01*
X15191441Y-9424101D02*
X15191441Y-9384731D01*
X15238310Y-9422227D02*
X15242060Y-9424101D01*
X15242060Y-9424101D02*
X15249559Y-9424101D01*
X15249559Y-9424101D02*
X15253308Y-9422227D01*
X15253308Y-9422227D02*
X15255183Y-9418477D01*
X15255183Y-9418477D02*
X15255183Y-9416602D01*
X15255183Y-9416602D02*
X15253308Y-9412853D01*
X15253308Y-9412853D02*
X15249559Y-9410978D01*
X15249559Y-9410978D02*
X15243935Y-9410978D01*
X15243935Y-9410978D02*
X15240185Y-9409103D01*
X15240185Y-9409103D02*
X15238310Y-9405354D01*
X15238310Y-9405354D02*
X15238310Y-9403479D01*
X15238310Y-9403479D02*
X15240185Y-9399730D01*
X15240185Y-9399730D02*
X15243935Y-9397855D01*
X15243935Y-9397855D02*
X15249559Y-9397855D01*
X15249559Y-9397855D02*
X15253308Y-9399730D01*
X15277680Y-9424101D02*
X15273931Y-9422227D01*
X15273931Y-9422227D02*
X15272056Y-9418477D01*
X15272056Y-9418477D02*
X15272056Y-9384731D01*
X15298303Y-9424101D02*
X15294553Y-9422227D01*
X15294553Y-9422227D02*
X15292678Y-9420352D01*
X15292678Y-9420352D02*
X15290804Y-9416602D01*
X15290804Y-9416602D02*
X15290804Y-9405354D01*
X15290804Y-9405354D02*
X15292678Y-9401604D01*
X15292678Y-9401604D02*
X15294553Y-9399730D01*
X15294553Y-9399730D02*
X15298303Y-9397855D01*
X15298303Y-9397855D02*
X15303927Y-9397855D01*
X15303927Y-9397855D02*
X15307677Y-9399730D01*
X15307677Y-9399730D02*
X15309551Y-9401604D01*
X15309551Y-9401604D02*
X15311426Y-9405354D01*
X15311426Y-9405354D02*
X15311426Y-9416602D01*
X15311426Y-9416602D02*
X15309551Y-9420352D01*
X15309551Y-9420352D02*
X15307677Y-9422227D01*
X15307677Y-9422227D02*
X15303927Y-9424101D01*
X15303927Y-9424101D02*
X15298303Y-9424101D01*
X15322675Y-9397855D02*
X15337673Y-9397855D01*
X15328299Y-9384731D02*
X15328299Y-9418477D01*
X15328299Y-9418477D02*
X15330174Y-9422227D01*
X15330174Y-9422227D02*
X15333923Y-9424101D01*
X15333923Y-9424101D02*
X15337673Y-9424101D01*
X15388292Y-9384731D02*
X15392041Y-9384731D01*
X15392041Y-9384731D02*
X15395791Y-9386606D01*
X15395791Y-9386606D02*
X15397665Y-9388481D01*
X15397665Y-9388481D02*
X15399540Y-9392230D01*
X15399540Y-9392230D02*
X15401415Y-9399730D01*
X15401415Y-9399730D02*
X15401415Y-9409103D01*
X15401415Y-9409103D02*
X15399540Y-9416602D01*
X15399540Y-9416602D02*
X15397665Y-9420352D01*
X15397665Y-9420352D02*
X15395791Y-9422227D01*
X15395791Y-9422227D02*
X15392041Y-9424101D01*
X15392041Y-9424101D02*
X15388292Y-9424101D01*
X15388292Y-9424101D02*
X15384542Y-9422227D01*
X15384542Y-9422227D02*
X15382667Y-9420352D01*
X15382667Y-9420352D02*
X15380793Y-9416602D01*
X15380793Y-9416602D02*
X15378918Y-9409103D01*
X15378918Y-9409103D02*
X15378918Y-9399730D01*
X15378918Y-9399730D02*
X15380793Y-9392230D01*
X15380793Y-9392230D02*
X15382667Y-9388481D01*
X15382667Y-9388481D02*
X15384542Y-9386606D01*
X15384542Y-9386606D02*
X15388292Y-9384731D01*
X15418288Y-9420352D02*
X15420163Y-9422227D01*
X15420163Y-9422227D02*
X15418288Y-9424101D01*
X15418288Y-9424101D02*
X15416413Y-9422227D01*
X15416413Y-9422227D02*
X15418288Y-9420352D01*
X15418288Y-9420352D02*
X15418288Y-9424101D01*
X15442660Y-9401604D02*
X15438910Y-9399730D01*
X15438910Y-9399730D02*
X15437036Y-9397855D01*
X15437036Y-9397855D02*
X15435161Y-9394105D01*
X15435161Y-9394105D02*
X15435161Y-9392230D01*
X15435161Y-9392230D02*
X15437036Y-9388481D01*
X15437036Y-9388481D02*
X15438910Y-9386606D01*
X15438910Y-9386606D02*
X15442660Y-9384731D01*
X15442660Y-9384731D02*
X15450159Y-9384731D01*
X15450159Y-9384731D02*
X15453908Y-9386606D01*
X15453908Y-9386606D02*
X15455783Y-9388481D01*
X15455783Y-9388481D02*
X15457658Y-9392230D01*
X15457658Y-9392230D02*
X15457658Y-9394105D01*
X15457658Y-9394105D02*
X15455783Y-9397855D01*
X15455783Y-9397855D02*
X15453908Y-9399730D01*
X15453908Y-9399730D02*
X15450159Y-9401604D01*
X15450159Y-9401604D02*
X15442660Y-9401604D01*
X15442660Y-9401604D02*
X15438910Y-9403479D01*
X15438910Y-9403479D02*
X15437036Y-9405354D01*
X15437036Y-9405354D02*
X15435161Y-9409103D01*
X15435161Y-9409103D02*
X15435161Y-9416602D01*
X15435161Y-9416602D02*
X15437036Y-9420352D01*
X15437036Y-9420352D02*
X15438910Y-9422227D01*
X15438910Y-9422227D02*
X15442660Y-9424101D01*
X15442660Y-9424101D02*
X15450159Y-9424101D01*
X15450159Y-9424101D02*
X15453908Y-9422227D01*
X15453908Y-9422227D02*
X15455783Y-9420352D01*
X15455783Y-9420352D02*
X15457658Y-9416602D01*
X15457658Y-9416602D02*
X15457658Y-9409103D01*
X15457658Y-9409103D02*
X15455783Y-9405354D01*
X15455783Y-9405354D02*
X15453908Y-9403479D01*
X15453908Y-9403479D02*
X15450159Y-9401604D01*
X15493279Y-9384731D02*
X15474531Y-9384731D01*
X15474531Y-9384731D02*
X15472656Y-9403479D01*
X15472656Y-9403479D02*
X15474531Y-9401604D01*
X15474531Y-9401604D02*
X15478280Y-9399730D01*
X15478280Y-9399730D02*
X15487654Y-9399730D01*
X15487654Y-9399730D02*
X15491404Y-9401604D01*
X15491404Y-9401604D02*
X15493279Y-9403479D01*
X15493279Y-9403479D02*
X15495153Y-9407229D01*
X15495153Y-9407229D02*
X15495153Y-9416602D01*
X15495153Y-9416602D02*
X15493279Y-9420352D01*
X15493279Y-9420352D02*
X15491404Y-9422227D01*
X15491404Y-9422227D02*
X15487654Y-9424101D01*
X15487654Y-9424101D02*
X15478280Y-9424101D01*
X15478280Y-9424101D02*
X15474531Y-9422227D01*
X15474531Y-9422227D02*
X15472656Y-9420352D01*
X15542022Y-9409103D02*
X15572019Y-9409103D01*
X15557021Y-9424101D02*
X15557021Y-9394105D01*
X15618888Y-9382857D02*
X15585142Y-9433475D01*
X15632011Y-9409103D02*
X15662008Y-9409103D01*
X15718251Y-9384731D02*
X15722000Y-9384731D01*
X15722000Y-9384731D02*
X15725750Y-9386606D01*
X15725750Y-9386606D02*
X15727624Y-9388481D01*
X15727624Y-9388481D02*
X15729499Y-9392230D01*
X15729499Y-9392230D02*
X15731374Y-9399730D01*
X15731374Y-9399730D02*
X15731374Y-9409103D01*
X15731374Y-9409103D02*
X15729499Y-9416602D01*
X15729499Y-9416602D02*
X15727624Y-9420352D01*
X15727624Y-9420352D02*
X15725750Y-9422227D01*
X15725750Y-9422227D02*
X15722000Y-9424101D01*
X15722000Y-9424101D02*
X15718251Y-9424101D01*
X15718251Y-9424101D02*
X15714501Y-9422227D01*
X15714501Y-9422227D02*
X15712626Y-9420352D01*
X15712626Y-9420352D02*
X15710751Y-9416602D01*
X15710751Y-9416602D02*
X15708877Y-9409103D01*
X15708877Y-9409103D02*
X15708877Y-9399730D01*
X15708877Y-9399730D02*
X15710751Y-9392230D01*
X15710751Y-9392230D02*
X15712626Y-9388481D01*
X15712626Y-9388481D02*
X15714501Y-9386606D01*
X15714501Y-9386606D02*
X15718251Y-9384731D01*
X15748247Y-9420352D02*
X15750122Y-9422227D01*
X15750122Y-9422227D02*
X15748247Y-9424101D01*
X15748247Y-9424101D02*
X15746372Y-9422227D01*
X15746372Y-9422227D02*
X15748247Y-9420352D01*
X15748247Y-9420352D02*
X15748247Y-9424101D01*
X15774494Y-9384731D02*
X15778243Y-9384731D01*
X15778243Y-9384731D02*
X15781993Y-9386606D01*
X15781993Y-9386606D02*
X15783867Y-9388481D01*
X15783867Y-9388481D02*
X15785742Y-9392230D01*
X15785742Y-9392230D02*
X15787617Y-9399730D01*
X15787617Y-9399730D02*
X15787617Y-9409103D01*
X15787617Y-9409103D02*
X15785742Y-9416602D01*
X15785742Y-9416602D02*
X15783867Y-9420352D01*
X15783867Y-9420352D02*
X15781993Y-9422227D01*
X15781993Y-9422227D02*
X15778243Y-9424101D01*
X15778243Y-9424101D02*
X15774494Y-9424101D01*
X15774494Y-9424101D02*
X15770744Y-9422227D01*
X15770744Y-9422227D02*
X15768869Y-9420352D01*
X15768869Y-9420352D02*
X15766994Y-9416602D01*
X15766994Y-9416602D02*
X15765120Y-9409103D01*
X15765120Y-9409103D02*
X15765120Y-9399730D01*
X15765120Y-9399730D02*
X15766994Y-9392230D01*
X15766994Y-9392230D02*
X15768869Y-9388481D01*
X15768869Y-9388481D02*
X15770744Y-9386606D01*
X15770744Y-9386606D02*
X15774494Y-9384731D01*
X15823237Y-9384731D02*
X15804490Y-9384731D01*
X15804490Y-9384731D02*
X15802615Y-9403479D01*
X15802615Y-9403479D02*
X15804490Y-9401604D01*
X15804490Y-9401604D02*
X15808239Y-9399730D01*
X15808239Y-9399730D02*
X15817613Y-9399730D01*
X15817613Y-9399730D02*
X15821363Y-9401604D01*
X15821363Y-9401604D02*
X15823237Y-9403479D01*
X15823237Y-9403479D02*
X15825112Y-9407229D01*
X15825112Y-9407229D02*
X15825112Y-9416602D01*
X15825112Y-9416602D02*
X15823237Y-9420352D01*
X15823237Y-9420352D02*
X15821363Y-9422227D01*
X15821363Y-9422227D02*
X15817613Y-9424101D01*
X15817613Y-9424101D02*
X15808239Y-9424101D01*
X15808239Y-9424101D02*
X15804490Y-9422227D01*
X15804490Y-9422227D02*
X15802615Y-9420352D01*
X15868232Y-9384731D02*
X15894479Y-9424101D01*
X15894479Y-9384731D02*
X15868232Y-9424101D01*
X15946972Y-9384731D02*
X15950722Y-9384731D01*
X15950722Y-9384731D02*
X15954471Y-9386606D01*
X15954471Y-9386606D02*
X15956346Y-9388481D01*
X15956346Y-9388481D02*
X15958221Y-9392230D01*
X15958221Y-9392230D02*
X15960095Y-9399730D01*
X15960095Y-9399730D02*
X15960095Y-9409103D01*
X15960095Y-9409103D02*
X15958221Y-9416602D01*
X15958221Y-9416602D02*
X15956346Y-9420352D01*
X15956346Y-9420352D02*
X15954471Y-9422227D01*
X15954471Y-9422227D02*
X15950722Y-9424101D01*
X15950722Y-9424101D02*
X15946972Y-9424101D01*
X15946972Y-9424101D02*
X15943222Y-9422227D01*
X15943222Y-9422227D02*
X15941348Y-9420352D01*
X15941348Y-9420352D02*
X15939473Y-9416602D01*
X15939473Y-9416602D02*
X15937598Y-9409103D01*
X15937598Y-9409103D02*
X15937598Y-9399730D01*
X15937598Y-9399730D02*
X15939473Y-9392230D01*
X15939473Y-9392230D02*
X15941348Y-9388481D01*
X15941348Y-9388481D02*
X15943222Y-9386606D01*
X15943222Y-9386606D02*
X15946972Y-9384731D01*
X15976968Y-9420352D02*
X15978843Y-9422227D01*
X15978843Y-9422227D02*
X15976968Y-9424101D01*
X15976968Y-9424101D02*
X15975093Y-9422227D01*
X15975093Y-9422227D02*
X15976968Y-9420352D01*
X15976968Y-9420352D02*
X15976968Y-9424101D01*
X16012589Y-9384731D02*
X16005090Y-9384731D01*
X16005090Y-9384731D02*
X16001340Y-9386606D01*
X16001340Y-9386606D02*
X15999465Y-9388481D01*
X15999465Y-9388481D02*
X15995716Y-9394105D01*
X15995716Y-9394105D02*
X15993841Y-9401604D01*
X15993841Y-9401604D02*
X15993841Y-9416602D01*
X15993841Y-9416602D02*
X15995716Y-9420352D01*
X15995716Y-9420352D02*
X15997591Y-9422227D01*
X15997591Y-9422227D02*
X16001340Y-9424101D01*
X16001340Y-9424101D02*
X16008839Y-9424101D01*
X16008839Y-9424101D02*
X16012589Y-9422227D01*
X16012589Y-9422227D02*
X16014464Y-9420352D01*
X16014464Y-9420352D02*
X16016338Y-9416602D01*
X16016338Y-9416602D02*
X16016338Y-9407229D01*
X16016338Y-9407229D02*
X16014464Y-9403479D01*
X16014464Y-9403479D02*
X16012589Y-9401604D01*
X16012589Y-9401604D02*
X16008839Y-9399730D01*
X16008839Y-9399730D02*
X16001340Y-9399730D01*
X16001340Y-9399730D02*
X15997591Y-9401604D01*
X15997591Y-9401604D02*
X15995716Y-9403479D01*
X15995716Y-9403479D02*
X15993841Y-9407229D01*
X16063208Y-9409103D02*
X16093204Y-9409103D01*
X16078206Y-9424101D02*
X16078206Y-9394105D01*
X16140073Y-9382857D02*
X16106327Y-9433475D01*
X16153196Y-9409103D02*
X16183193Y-9409103D01*
X16239436Y-9384731D02*
X16243185Y-9384731D01*
X16243185Y-9384731D02*
X16246935Y-9386606D01*
X16246935Y-9386606D02*
X16248809Y-9388481D01*
X16248809Y-9388481D02*
X16250684Y-9392230D01*
X16250684Y-9392230D02*
X16252559Y-9399730D01*
X16252559Y-9399730D02*
X16252559Y-9409103D01*
X16252559Y-9409103D02*
X16250684Y-9416602D01*
X16250684Y-9416602D02*
X16248809Y-9420352D01*
X16248809Y-9420352D02*
X16246935Y-9422227D01*
X16246935Y-9422227D02*
X16243185Y-9424101D01*
X16243185Y-9424101D02*
X16239436Y-9424101D01*
X16239436Y-9424101D02*
X16235686Y-9422227D01*
X16235686Y-9422227D02*
X16233811Y-9420352D01*
X16233811Y-9420352D02*
X16231937Y-9416602D01*
X16231937Y-9416602D02*
X16230062Y-9409103D01*
X16230062Y-9409103D02*
X16230062Y-9399730D01*
X16230062Y-9399730D02*
X16231937Y-9392230D01*
X16231937Y-9392230D02*
X16233811Y-9388481D01*
X16233811Y-9388481D02*
X16235686Y-9386606D01*
X16235686Y-9386606D02*
X16239436Y-9384731D01*
X16269432Y-9420352D02*
X16271307Y-9422227D01*
X16271307Y-9422227D02*
X16269432Y-9424101D01*
X16269432Y-9424101D02*
X16267557Y-9422227D01*
X16267557Y-9422227D02*
X16269432Y-9420352D01*
X16269432Y-9420352D02*
X16269432Y-9424101D01*
X16295679Y-9384731D02*
X16299428Y-9384731D01*
X16299428Y-9384731D02*
X16303178Y-9386606D01*
X16303178Y-9386606D02*
X16305052Y-9388481D01*
X16305052Y-9388481D02*
X16306927Y-9392230D01*
X16306927Y-9392230D02*
X16308802Y-9399730D01*
X16308802Y-9399730D02*
X16308802Y-9409103D01*
X16308802Y-9409103D02*
X16306927Y-9416602D01*
X16306927Y-9416602D02*
X16305052Y-9420352D01*
X16305052Y-9420352D02*
X16303178Y-9422227D01*
X16303178Y-9422227D02*
X16299428Y-9424101D01*
X16299428Y-9424101D02*
X16295679Y-9424101D01*
X16295679Y-9424101D02*
X16291929Y-9422227D01*
X16291929Y-9422227D02*
X16290054Y-9420352D01*
X16290054Y-9420352D02*
X16288180Y-9416602D01*
X16288180Y-9416602D02*
X16286305Y-9409103D01*
X16286305Y-9409103D02*
X16286305Y-9399730D01*
X16286305Y-9399730D02*
X16288180Y-9392230D01*
X16288180Y-9392230D02*
X16290054Y-9388481D01*
X16290054Y-9388481D02*
X16291929Y-9386606D01*
X16291929Y-9386606D02*
X16295679Y-9384731D01*
X16344423Y-9384731D02*
X16325675Y-9384731D01*
X16325675Y-9384731D02*
X16323800Y-9403479D01*
X16323800Y-9403479D02*
X16325675Y-9401604D01*
X16325675Y-9401604D02*
X16329424Y-9399730D01*
X16329424Y-9399730D02*
X16338798Y-9399730D01*
X16338798Y-9399730D02*
X16342548Y-9401604D01*
X16342548Y-9401604D02*
X16344423Y-9403479D01*
X16344423Y-9403479D02*
X16346297Y-9407229D01*
X16346297Y-9407229D02*
X16346297Y-9416602D01*
X16346297Y-9416602D02*
X16344423Y-9420352D01*
X16344423Y-9420352D02*
X16342548Y-9422227D01*
X16342548Y-9422227D02*
X16338798Y-9424101D01*
X16338798Y-9424101D02*
X16329424Y-9424101D01*
X16329424Y-9424101D02*
X16325675Y-9422227D01*
X16325675Y-9422227D02*
X16323800Y-9420352D01*
M02*
