%TF.GenerationSoftware,KiCad,Pcbnew,10.0.3*%
%TF.CreationDate,2026-06-10T14:53:33+02:00*%
%TF.ProjectId,ZumoComSystem,5a756d6f-436f-46d5-9379-7374656d2e6b,V3.1*%
%TF.SameCoordinates,Original*%
%TF.FileFunction,Soldermask,Bot*%
%TF.FilePolarity,Negative*%
%FSLAX45Y45*%
G04 Gerber Fmt 4.5, Leading zero omitted, Abs format (unit mm)*
G04 Created by KiCad (PCBNEW 10.0.3) date 2026-06-10 14:53:33*
%MOMM*%
%LPD*%
G01*
G04 APERTURE LIST*
G04 Aperture macros list*
%AMRoundRect*
0 Rectangle with rounded corners*
0 $1 Rounding radius*
0 $2 $3 $4 $5 $6 $7 $8 $9 X,Y pos of 4 corners*
0 Add a 4 corners polygon primitive as box body*
4,1,4,$2,$3,$4,$5,$6,$7,$8,$9,$2,$3,0*
0 Add four circle primitives for the rounded corners*
1,1,$1+$1,$2,$3*
1,1,$1+$1,$4,$5*
1,1,$1+$1,$6,$7*
1,1,$1+$1,$8,$9*
0 Add four rect primitives between the rounded corners*
20,1,$1+$1,$2,$3,$4,$5,0*
20,1,$1+$1,$4,$5,$6,$7,0*
20,1,$1+$1,$6,$7,$8,$9,0*
20,1,$1+$1,$8,$9,$2,$3,0*%
G04 Aperture macros list end*
%ADD10C,0.323500*%
%ADD11C,0.010000*%
%ADD12C,3.650000*%
%ADD13C,2.490000*%
%ADD14C,2.080000*%
%ADD15C,3.204000*%
%ADD16O,3.804000X2.004000*%
%ADD17O,1.712000X3.220000*%
%ADD18C,1.000000*%
%ADD19RoundRect,0.050000X-0.850000X-0.850000X0.850000X-0.850000X0.850000X0.850000X-0.850000X0.850000X0*%
%ADD20C,1.800000*%
%ADD21C,0.620000*%
%ADD22RoundRect,0.310000X0.100000X0.000010X-0.100000X0.000010X-0.100000X-0.000010X0.100000X-0.000010X0*%
%ADD23O,1.502400X1.252400*%
%ADD24RoundRect,0.050000X0.850000X-0.850000X0.850000X0.850000X-0.850000X0.850000X-0.850000X-0.850000X0*%
%ADD25RoundRect,0.260870X-1.314130X-0.939130X1.314130X-0.939130X1.314130X0.939130X-1.314130X0.939130X0*%
%ADD26RoundRect,0.260870X-1.314130X-0.939128X1.314130X-0.939128X1.314130X0.939128X-1.314130X0.939128X0*%
%ADD27RoundRect,0.187500X-0.862500X-0.187500X0.862500X-0.187500X0.862500X0.187500X-0.862500X0.187500X0*%
%ADD28RoundRect,0.269231X-0.430769X-0.655769X0.430769X-0.655769X0.430769X0.655769X-0.430769X0.655769X0*%
%ADD29RoundRect,0.050000X-1.749999X1.787496X-1.749999X-1.787496X1.749999X-1.787496X1.749999X1.787496X0*%
%ADD30RoundRect,0.050000X-1.749999X1.787499X-1.749999X-1.787499X1.749999X-1.787499X1.749999X1.787499X0*%
%ADD31RoundRect,0.187500X-0.187500X0.862500X-0.187500X-0.862500X0.187500X-0.862500X0.187500X0.862500X0*%
%ADD32RoundRect,0.262500X-0.262500X0.275000X-0.262500X-0.275000X0.262500X-0.275000X0.262500X0.275000X0*%
%ADD33RoundRect,0.262500X0.262500X-0.325000X0.262500X0.325000X-0.262500X0.325000X-0.262500X-0.325000X0*%
%ADD34RoundRect,0.262500X-0.262500X0.325000X-0.262500X-0.325000X0.262500X-0.325000X0.262500X0.325000X0*%
%ADD35RoundRect,0.262500X0.275000X0.262500X-0.275000X0.262500X-0.275000X-0.262500X0.275000X-0.262500X0*%
%ADD36RoundRect,0.262500X-0.275000X-0.262500X0.275000X-0.262500X0.275000X0.262500X-0.275000X0.262500X0*%
%ADD37RoundRect,0.225000X-0.775000X-0.225000X0.775000X-0.225000X0.775000X0.225000X-0.775000X0.225000X0*%
%ADD38RoundRect,0.262500X0.325000X0.262500X-0.325000X0.262500X-0.325000X-0.262500X0.325000X-0.262500X0*%
%ADD39RoundRect,0.050000X1.575000X0.500000X-1.575000X0.500000X-1.575000X-0.500000X1.575000X-0.500000X0*%
%ADD40RoundRect,0.262500X-0.325000X-0.262500X0.325000X-0.262500X0.325000X0.262500X-0.325000X0.262500X0*%
%ADD41RoundRect,0.187500X-0.642500X-0.187500X0.642500X-0.187500X0.642500X0.187500X-0.642500X0.187500X0*%
%ADD42RoundRect,0.262500X0.262500X-0.275000X0.262500X0.275000X-0.262500X0.275000X-0.262500X-0.275000X0*%
%ADD43RoundRect,0.175000X-0.175000X0.750000X-0.175000X-0.750000X0.175000X-0.750000X0.175000X0.750000X0*%
%ADD44RoundRect,0.275000X-0.275000X0.275000X-0.275000X-0.275000X0.275000X-0.275000X0.275000X0.275000X0*%
%ADD45RoundRect,0.225000X-0.225000X0.775000X-0.225000X-0.775000X0.225000X-0.775000X0.225000X0.775000X0*%
%ADD46RoundRect,0.268868X0.443632X0.681132X-0.443632X0.681132X-0.443632X-0.681132X0.443632X-0.681132X0*%
%ADD47RoundRect,0.050000X-0.500000X1.255000X-0.500000X-1.255000X0.500000X-1.255000X0.500000X1.255000X0*%
%ADD48RoundRect,0.267544X-0.494956X-1.107456X0.494956X-1.107456X0.494956X1.107456X-0.494956X1.107456X0*%
%ADD49RoundRect,0.261137X-0.911363X-1.083863X0.911363X-1.083863X0.911363X1.083863X-0.911363X1.083863X0*%
%ADD50RoundRect,0.271739X0.353261X0.478261X-0.353261X0.478261X-0.353261X-0.478261X0.353261X-0.478261X0*%
%ADD51RoundRect,0.270833X0.379167X0.479167X-0.379167X0.479167X-0.379167X-0.479167X0.379167X-0.479167X0*%
%ADD52RoundRect,0.272726X-0.327272X0.502274X-0.327272X-0.502274X0.327272X-0.502274X0.327272X0.502274X0*%
%ADD53RoundRect,0.271277X-0.503723X0.366223X-0.503723X-0.366223X0.503723X-0.366223X0.503723X0.366223X0*%
%ADD54RoundRect,0.267544X-1.107456X0.494956X-1.107456X-0.494956X1.107456X-0.494956X1.107456X0.494956X0*%
%ADD55RoundRect,0.267857X-0.482143X-0.832143X0.482143X-0.832143X0.482143X0.832143X-0.482143X0.832143X0*%
%ADD56RoundRect,0.125000X-0.737500X-0.125000X0.737500X-0.125000X0.737500X0.125000X-0.737500X0.125000X0*%
%ADD57RoundRect,0.263513X0.711487X1.661487X-0.711487X1.661487X-0.711487X-1.661487X0.711487X-1.661487X0*%
%ADD58C,0.700000*%
G04 APERTURE END LIST*
%TO.C,J1*%
D10*
X15616175Y-10061000D02*
G75*
G02*
X15583825Y-10061000I-16175J0D01*
G01*
X15583825Y-10061000D02*
G75*
G02*
X15616175Y-10061000I16175J0D01*
G01*
D11*
X14860000Y-10093350D02*
X14840000Y-10093400D01*
X14838300Y-10093300D01*
X14836600Y-10093200D01*
X14834900Y-10093000D01*
X14833300Y-10092600D01*
X14831600Y-10092200D01*
X14830000Y-10091800D01*
X14828400Y-10091200D01*
X14826800Y-10090600D01*
X14825300Y-10089800D01*
X14823800Y-10089000D01*
X14822400Y-10088100D01*
X14821000Y-10087200D01*
X14819600Y-10086100D01*
X14818400Y-10085000D01*
X14817100Y-10083900D01*
X14816000Y-10082600D01*
X14814900Y-10081400D01*
X14813800Y-10080000D01*
X14812900Y-10078600D01*
X14812000Y-10077200D01*
X14811200Y-10075700D01*
X14810400Y-10074200D01*
X14809800Y-10072600D01*
X14809200Y-10071000D01*
X14808800Y-10069400D01*
X14808400Y-10067700D01*
X14808000Y-10066100D01*
X14807800Y-10064400D01*
X14807700Y-10062700D01*
X14807700Y-10061000D01*
X14807700Y-10059300D01*
X14807800Y-10057600D01*
X14808000Y-10055900D01*
X14808400Y-10054300D01*
X14808800Y-10052600D01*
X14809200Y-10051000D01*
X14809800Y-10049400D01*
X14810400Y-10047800D01*
X14811200Y-10046300D01*
X14812000Y-10044800D01*
X14812900Y-10043400D01*
X14813800Y-10042000D01*
X14814900Y-10040600D01*
X14816000Y-10039400D01*
X14817100Y-10038100D01*
X14818400Y-10037000D01*
X14819600Y-10035900D01*
X14821000Y-10034800D01*
X14822400Y-10033900D01*
X14823800Y-10033000D01*
X14825300Y-10032200D01*
X14826800Y-10031400D01*
X14828400Y-10030800D01*
X14830000Y-10030200D01*
X14831600Y-10029800D01*
X14833300Y-10029400D01*
X14834900Y-10029000D01*
X14836600Y-10028800D01*
X14838300Y-10028700D01*
X14840000Y-10028600D01*
X14860000Y-10028600D01*
X14861700Y-10028700D01*
X14863400Y-10028800D01*
X14865100Y-10029000D01*
X14866700Y-10029400D01*
X14868400Y-10029800D01*
X14870000Y-10030200D01*
X14871600Y-10030800D01*
X14873200Y-10031400D01*
X14874700Y-10032200D01*
X14876200Y-10033000D01*
X14877600Y-10033900D01*
X14879000Y-10034800D01*
X14880400Y-10035900D01*
X14881600Y-10037000D01*
X14882900Y-10038100D01*
X14884000Y-10039400D01*
X14885100Y-10040600D01*
X14886200Y-10042000D01*
X14887100Y-10043400D01*
X14888000Y-10044800D01*
X14888800Y-10046300D01*
X14889600Y-10047800D01*
X14890200Y-10049400D01*
X14890800Y-10051000D01*
X14891200Y-10052600D01*
X14891600Y-10054300D01*
X14892000Y-10055900D01*
X14892200Y-10057600D01*
X14892300Y-10059300D01*
X14892400Y-10061000D01*
X14892300Y-10062700D01*
X14892200Y-10064400D01*
X14892000Y-10066100D01*
X14891600Y-10067700D01*
X14891200Y-10069400D01*
X14890800Y-10071000D01*
X14890200Y-10072600D01*
X14889600Y-10074200D01*
X14888800Y-10075700D01*
X14888000Y-10077200D01*
X14887100Y-10078600D01*
X14886200Y-10080000D01*
X14885100Y-10081400D01*
X14884000Y-10082600D01*
X14882900Y-10083900D01*
X14881600Y-10085000D01*
X14880400Y-10086100D01*
X14879000Y-10087200D01*
X14877600Y-10088100D01*
X14876200Y-10089000D01*
X14874700Y-10089800D01*
X14873200Y-10090600D01*
X14871600Y-10091200D01*
X14870000Y-10091800D01*
X14868400Y-10092200D01*
X14866700Y-10092600D01*
X14865100Y-10093000D01*
X14863400Y-10093200D01*
X14861700Y-10093300D01*
X14860000Y-10093400D01*
X14860000Y-10093350D01*
G36*
X14861700Y-10028700D02*
G01*
X14863400Y-10028800D01*
X14865100Y-10029000D01*
X14866700Y-10029400D01*
X14868400Y-10029800D01*
X14870000Y-10030200D01*
X14871600Y-10030800D01*
X14873200Y-10031400D01*
X14874700Y-10032200D01*
X14876200Y-10033000D01*
X14877600Y-10033900D01*
X14879000Y-10034800D01*
X14880400Y-10035900D01*
X14881600Y-10037000D01*
X14882900Y-10038100D01*
X14884000Y-10039400D01*
X14885100Y-10040600D01*
X14886200Y-10042000D01*
X14887100Y-10043400D01*
X14888000Y-10044800D01*
X14888800Y-10046300D01*
X14889600Y-10047800D01*
X14890200Y-10049400D01*
X14890800Y-10051000D01*
X14891200Y-10052600D01*
X14891600Y-10054300D01*
X14892000Y-10055900D01*
X14892200Y-10057600D01*
X14892300Y-10059300D01*
X14892400Y-10061000D01*
X14892300Y-10062700D01*
X14892200Y-10064400D01*
X14892000Y-10066100D01*
X14891600Y-10067700D01*
X14891200Y-10069400D01*
X14890800Y-10071000D01*
X14890200Y-10072600D01*
X14889600Y-10074200D01*
X14888800Y-10075700D01*
X14888000Y-10077200D01*
X14887100Y-10078600D01*
X14886200Y-10080000D01*
X14885100Y-10081400D01*
X14884000Y-10082600D01*
X14882900Y-10083900D01*
X14881600Y-10085000D01*
X14880400Y-10086100D01*
X14879000Y-10087200D01*
X14877600Y-10088100D01*
X14876200Y-10089000D01*
X14874700Y-10089800D01*
X14873200Y-10090600D01*
X14871600Y-10091200D01*
X14870000Y-10091800D01*
X14868400Y-10092200D01*
X14866700Y-10092600D01*
X14865100Y-10093000D01*
X14863400Y-10093200D01*
X14861700Y-10093300D01*
X14860000Y-10093400D01*
X14860000Y-10093350D01*
X14840000Y-10093400D01*
X14838300Y-10093300D01*
X14836600Y-10093200D01*
X14834900Y-10093000D01*
X14833300Y-10092600D01*
X14831600Y-10092200D01*
X14830000Y-10091800D01*
X14828400Y-10091200D01*
X14826800Y-10090600D01*
X14825300Y-10089800D01*
X14823800Y-10089000D01*
X14822400Y-10088100D01*
X14821000Y-10087200D01*
X14819600Y-10086100D01*
X14818400Y-10085000D01*
X14817100Y-10083900D01*
X14816000Y-10082600D01*
X14814900Y-10081400D01*
X14813800Y-10080000D01*
X14812900Y-10078600D01*
X14812000Y-10077200D01*
X14811200Y-10075700D01*
X14810400Y-10074200D01*
X14809800Y-10072600D01*
X14809200Y-10071000D01*
X14808800Y-10069400D01*
X14808400Y-10067700D01*
X14808000Y-10066100D01*
X14807800Y-10064400D01*
X14807700Y-10062700D01*
X14807700Y-10061000D01*
X14807700Y-10059300D01*
X14807800Y-10057600D01*
X14808000Y-10055900D01*
X14808400Y-10054300D01*
X14808800Y-10052600D01*
X14809200Y-10051000D01*
X14809800Y-10049400D01*
X14810400Y-10047800D01*
X14811200Y-10046300D01*
X14812000Y-10044800D01*
X14812900Y-10043400D01*
X14813800Y-10042000D01*
X14814900Y-10040600D01*
X14816000Y-10039400D01*
X14817100Y-10038100D01*
X14818400Y-10037000D01*
X14819600Y-10035900D01*
X14821000Y-10034800D01*
X14822400Y-10033900D01*
X14823800Y-10033000D01*
X14825300Y-10032200D01*
X14826800Y-10031400D01*
X14828400Y-10030800D01*
X14830000Y-10030200D01*
X14831600Y-10029800D01*
X14833300Y-10029400D01*
X14834900Y-10029000D01*
X14836600Y-10028800D01*
X14838300Y-10028700D01*
X14840000Y-10028600D01*
X14860000Y-10028600D01*
X14861700Y-10028700D01*
G37*
%TO.C,U3*%
X16690000Y-7029250D02*
X16640000Y-7029250D01*
X16639400Y-7029250D01*
X16638700Y-7029150D01*
X16638100Y-7029150D01*
X16637500Y-7028950D01*
X16636900Y-7028850D01*
X16636300Y-7028650D01*
X16635700Y-7028450D01*
X16635100Y-7028250D01*
X16634600Y-7027950D01*
X16634000Y-7027650D01*
X16633500Y-7027350D01*
X16632900Y-7026950D01*
X16632400Y-7026550D01*
X16632000Y-7026150D01*
X16631500Y-7025750D01*
X16631100Y-7025250D01*
X16630700Y-7024850D01*
X16630300Y-7024350D01*
X16629900Y-7023750D01*
X16629600Y-7023250D01*
X16629300Y-7022650D01*
X16629000Y-7022150D01*
X16628800Y-7021550D01*
X16628600Y-7020950D01*
X16628400Y-7020350D01*
X16628300Y-7019750D01*
X16628100Y-7019150D01*
X16628100Y-7018550D01*
X16628000Y-7017850D01*
X16628000Y-7017250D01*
X16628000Y-6917250D01*
X16628000Y-6916650D01*
X16628100Y-6915950D01*
X16628100Y-6915350D01*
X16628300Y-6914750D01*
X16628400Y-6914150D01*
X16628600Y-6913550D01*
X16628800Y-6912950D01*
X16629000Y-6912350D01*
X16629300Y-6911850D01*
X16629600Y-6911250D01*
X16629900Y-6910750D01*
X16630300Y-6910150D01*
X16630700Y-6909650D01*
X16631100Y-6909250D01*
X16631500Y-6908750D01*
X16632000Y-6908350D01*
X16632400Y-6907950D01*
X16632900Y-6907550D01*
X16633500Y-6907150D01*
X16634000Y-6906850D01*
X16634600Y-6906550D01*
X16635100Y-6906250D01*
X16635700Y-6906050D01*
X16636300Y-6905850D01*
X16636900Y-6905650D01*
X16637500Y-6905550D01*
X16638100Y-6905350D01*
X16638700Y-6905350D01*
X16639400Y-6905250D01*
X16640000Y-6905250D01*
X16690000Y-6905250D01*
X16690600Y-6905250D01*
X16691300Y-6905350D01*
X16691900Y-6905350D01*
X16692500Y-6905550D01*
X16693100Y-6905650D01*
X16693700Y-6905850D01*
X16694300Y-6906050D01*
X16694900Y-6906250D01*
X16695400Y-6906550D01*
X16696000Y-6906850D01*
X16696500Y-6907150D01*
X16697100Y-6907550D01*
X16697600Y-6907950D01*
X16698000Y-6908350D01*
X16698500Y-6908750D01*
X16698900Y-6909250D01*
X16699300Y-6909650D01*
X16699700Y-6910150D01*
X16700100Y-6910750D01*
X16700400Y-6911250D01*
X16700700Y-6911850D01*
X16701000Y-6912350D01*
X16701200Y-6912950D01*
X16701400Y-6913550D01*
X16701600Y-6914150D01*
X16701700Y-6914750D01*
X16701900Y-6915350D01*
X16701900Y-6915950D01*
X16702000Y-6916650D01*
X16702000Y-6917250D01*
X16702000Y-7017250D01*
X16702000Y-7017850D01*
X16701900Y-7018550D01*
X16701900Y-7019150D01*
X16701700Y-7019750D01*
X16701600Y-7020350D01*
X16701400Y-7020950D01*
X16701200Y-7021550D01*
X16701000Y-7022150D01*
X16700700Y-7022650D01*
X16700400Y-7023250D01*
X16700100Y-7023750D01*
X16699700Y-7024350D01*
X16699300Y-7024850D01*
X16698900Y-7025250D01*
X16698500Y-7025750D01*
X16698000Y-7026150D01*
X16697600Y-7026550D01*
X16697100Y-7026950D01*
X16696500Y-7027350D01*
X16696000Y-7027650D01*
X16695400Y-7027950D01*
X16694900Y-7028250D01*
X16694300Y-7028450D01*
X16693700Y-7028650D01*
X16693100Y-7028850D01*
X16692500Y-7028950D01*
X16691900Y-7029150D01*
X16691300Y-7029150D01*
X16690600Y-7029250D01*
X16690000Y-7029250D01*
G36*
X16691300Y-6905350D02*
G01*
X16691900Y-6905350D01*
X16692500Y-6905550D01*
X16693100Y-6905650D01*
X16693700Y-6905850D01*
X16694300Y-6906050D01*
X16694900Y-6906250D01*
X16695400Y-6906550D01*
X16696000Y-6906850D01*
X16696500Y-6907150D01*
X16697100Y-6907550D01*
X16697600Y-6907950D01*
X16698000Y-6908350D01*
X16698500Y-6908750D01*
X16698900Y-6909250D01*
X16699300Y-6909650D01*
X16699700Y-6910150D01*
X16700100Y-6910750D01*
X16700400Y-6911250D01*
X16700700Y-6911850D01*
X16701000Y-6912350D01*
X16701200Y-6912950D01*
X16701400Y-6913550D01*
X16701600Y-6914150D01*
X16701700Y-6914750D01*
X16701900Y-6915350D01*
X16701900Y-6915950D01*
X16702000Y-6916650D01*
X16702000Y-6917250D01*
X16702000Y-7017250D01*
X16702000Y-7017850D01*
X16701900Y-7018550D01*
X16701900Y-7019150D01*
X16701700Y-7019750D01*
X16701600Y-7020350D01*
X16701400Y-7020950D01*
X16701200Y-7021550D01*
X16701000Y-7022150D01*
X16700700Y-7022650D01*
X16700400Y-7023250D01*
X16700100Y-7023750D01*
X16699700Y-7024350D01*
X16699300Y-7024850D01*
X16698900Y-7025250D01*
X16698500Y-7025750D01*
X16698000Y-7026150D01*
X16697600Y-7026550D01*
X16697100Y-7026950D01*
X16696500Y-7027350D01*
X16696000Y-7027650D01*
X16695400Y-7027950D01*
X16694900Y-7028250D01*
X16694300Y-7028450D01*
X16693700Y-7028650D01*
X16693100Y-7028850D01*
X16692500Y-7028950D01*
X16691900Y-7029150D01*
X16691300Y-7029150D01*
X16690600Y-7029250D01*
X16690000Y-7029250D01*
X16640000Y-7029250D01*
X16639400Y-7029250D01*
X16638700Y-7029150D01*
X16638100Y-7029150D01*
X16637500Y-7028950D01*
X16636900Y-7028850D01*
X16636300Y-7028650D01*
X16635700Y-7028450D01*
X16635100Y-7028250D01*
X16634600Y-7027950D01*
X16634000Y-7027650D01*
X16633500Y-7027350D01*
X16632900Y-7026950D01*
X16632400Y-7026550D01*
X16632000Y-7026150D01*
X16631500Y-7025750D01*
X16631100Y-7025250D01*
X16630700Y-7024850D01*
X16630300Y-7024350D01*
X16629900Y-7023750D01*
X16629600Y-7023250D01*
X16629300Y-7022650D01*
X16629000Y-7022150D01*
X16628800Y-7021550D01*
X16628600Y-7020950D01*
X16628400Y-7020350D01*
X16628300Y-7019750D01*
X16628100Y-7019150D01*
X16628100Y-7018550D01*
X16628000Y-7017850D01*
X16628000Y-7017250D01*
X16628000Y-6917250D01*
X16628000Y-6916650D01*
X16628100Y-6915950D01*
X16628100Y-6915350D01*
X16628300Y-6914750D01*
X16628400Y-6914150D01*
X16628600Y-6913550D01*
X16628800Y-6912950D01*
X16629000Y-6912350D01*
X16629300Y-6911850D01*
X16629600Y-6911250D01*
X16629900Y-6910750D01*
X16630300Y-6910150D01*
X16630700Y-6909650D01*
X16631100Y-6909250D01*
X16631500Y-6908750D01*
X16632000Y-6908350D01*
X16632400Y-6907950D01*
X16632900Y-6907550D01*
X16633500Y-6907150D01*
X16634000Y-6906850D01*
X16634600Y-6906550D01*
X16635100Y-6906250D01*
X16635700Y-6906050D01*
X16636300Y-6905850D01*
X16636900Y-6905650D01*
X16637500Y-6905550D01*
X16638100Y-6905350D01*
X16638700Y-6905350D01*
X16639400Y-6905250D01*
X16640000Y-6905250D01*
X16690000Y-6905250D01*
X16690600Y-6905250D01*
X16691300Y-6905350D01*
G37*
X16690000Y-7289250D02*
X16640000Y-7289250D01*
X16639400Y-7289250D01*
X16638700Y-7289150D01*
X16638100Y-7289150D01*
X16637500Y-7288950D01*
X16636900Y-7288850D01*
X16636300Y-7288650D01*
X16635700Y-7288450D01*
X16635100Y-7288250D01*
X16634600Y-7287950D01*
X16634000Y-7287650D01*
X16633500Y-7287350D01*
X16632900Y-7286950D01*
X16632400Y-7286550D01*
X16632000Y-7286150D01*
X16631500Y-7285750D01*
X16631100Y-7285250D01*
X16630700Y-7284850D01*
X16630300Y-7284350D01*
X16629900Y-7283750D01*
X16629600Y-7283250D01*
X16629300Y-7282650D01*
X16629000Y-7282150D01*
X16628800Y-7281550D01*
X16628600Y-7280950D01*
X16628400Y-7280350D01*
X16628300Y-7279750D01*
X16628100Y-7279150D01*
X16628100Y-7278550D01*
X16628000Y-7277850D01*
X16628000Y-7277250D01*
X16628000Y-7177250D01*
X16628000Y-7176650D01*
X16628100Y-7175950D01*
X16628100Y-7175350D01*
X16628300Y-7174750D01*
X16628400Y-7174150D01*
X16628600Y-7173550D01*
X16628800Y-7172950D01*
X16629000Y-7172350D01*
X16629300Y-7171850D01*
X16629600Y-7171250D01*
X16629900Y-7170750D01*
X16630300Y-7170150D01*
X16630700Y-7169650D01*
X16631100Y-7169250D01*
X16631500Y-7168750D01*
X16632000Y-7168350D01*
X16632400Y-7167950D01*
X16632900Y-7167550D01*
X16633500Y-7167150D01*
X16634000Y-7166850D01*
X16634600Y-7166550D01*
X16635100Y-7166250D01*
X16635700Y-7166050D01*
X16636300Y-7165850D01*
X16636900Y-7165650D01*
X16637500Y-7165550D01*
X16638100Y-7165350D01*
X16638700Y-7165350D01*
X16639400Y-7165250D01*
X16640000Y-7165250D01*
X16690000Y-7165250D01*
X16690600Y-7165250D01*
X16691300Y-7165350D01*
X16691900Y-7165350D01*
X16692500Y-7165550D01*
X16693100Y-7165650D01*
X16693700Y-7165850D01*
X16694300Y-7166050D01*
X16694900Y-7166250D01*
X16695400Y-7166550D01*
X16696000Y-7166850D01*
X16696500Y-7167150D01*
X16697100Y-7167550D01*
X16697600Y-7167950D01*
X16698000Y-7168350D01*
X16698500Y-7168750D01*
X16698900Y-7169250D01*
X16699300Y-7169650D01*
X16699700Y-7170150D01*
X16700100Y-7170750D01*
X16700400Y-7171250D01*
X16700700Y-7171850D01*
X16701000Y-7172350D01*
X16701200Y-7172950D01*
X16701400Y-7173550D01*
X16701600Y-7174150D01*
X16701700Y-7174750D01*
X16701900Y-7175350D01*
X16701900Y-7175950D01*
X16702000Y-7176650D01*
X16702000Y-7177250D01*
X16702000Y-7277250D01*
X16702000Y-7277850D01*
X16701900Y-7278550D01*
X16701900Y-7279150D01*
X16701700Y-7279750D01*
X16701600Y-7280350D01*
X16701400Y-7280950D01*
X16701200Y-7281550D01*
X16701000Y-7282150D01*
X16700700Y-7282650D01*
X16700400Y-7283250D01*
X16700100Y-7283750D01*
X16699700Y-7284350D01*
X16699300Y-7284850D01*
X16698900Y-7285250D01*
X16698500Y-7285750D01*
X16698000Y-7286150D01*
X16697600Y-7286550D01*
X16697100Y-7286950D01*
X16696500Y-7287350D01*
X16696000Y-7287650D01*
X16695400Y-7287950D01*
X16694900Y-7288250D01*
X16694300Y-7288450D01*
X16693700Y-7288650D01*
X16693100Y-7288850D01*
X16692500Y-7288950D01*
X16691900Y-7289150D01*
X16691300Y-7289150D01*
X16690600Y-7289250D01*
X16690000Y-7289250D01*
G36*
X16691300Y-7165350D02*
G01*
X16691900Y-7165350D01*
X16692500Y-7165550D01*
X16693100Y-7165650D01*
X16693700Y-7165850D01*
X16694300Y-7166050D01*
X16694900Y-7166250D01*
X16695400Y-7166550D01*
X16696000Y-7166850D01*
X16696500Y-7167150D01*
X16697100Y-7167550D01*
X16697600Y-7167950D01*
X16698000Y-7168350D01*
X16698500Y-7168750D01*
X16698900Y-7169250D01*
X16699300Y-7169650D01*
X16699700Y-7170150D01*
X16700100Y-7170750D01*
X16700400Y-7171250D01*
X16700700Y-7171850D01*
X16701000Y-7172350D01*
X16701200Y-7172950D01*
X16701400Y-7173550D01*
X16701600Y-7174150D01*
X16701700Y-7174750D01*
X16701900Y-7175350D01*
X16701900Y-7175950D01*
X16702000Y-7176650D01*
X16702000Y-7177250D01*
X16702000Y-7277250D01*
X16702000Y-7277850D01*
X16701900Y-7278550D01*
X16701900Y-7279150D01*
X16701700Y-7279750D01*
X16701600Y-7280350D01*
X16701400Y-7280950D01*
X16701200Y-7281550D01*
X16701000Y-7282150D01*
X16700700Y-7282650D01*
X16700400Y-7283250D01*
X16700100Y-7283750D01*
X16699700Y-7284350D01*
X16699300Y-7284850D01*
X16698900Y-7285250D01*
X16698500Y-7285750D01*
X16698000Y-7286150D01*
X16697600Y-7286550D01*
X16697100Y-7286950D01*
X16696500Y-7287350D01*
X16696000Y-7287650D01*
X16695400Y-7287950D01*
X16694900Y-7288250D01*
X16694300Y-7288450D01*
X16693700Y-7288650D01*
X16693100Y-7288850D01*
X16692500Y-7288950D01*
X16691900Y-7289150D01*
X16691300Y-7289150D01*
X16690600Y-7289250D01*
X16690000Y-7289250D01*
X16640000Y-7289250D01*
X16639400Y-7289250D01*
X16638700Y-7289150D01*
X16638100Y-7289150D01*
X16637500Y-7288950D01*
X16636900Y-7288850D01*
X16636300Y-7288650D01*
X16635700Y-7288450D01*
X16635100Y-7288250D01*
X16634600Y-7287950D01*
X16634000Y-7287650D01*
X16633500Y-7287350D01*
X16632900Y-7286950D01*
X16632400Y-7286550D01*
X16632000Y-7286150D01*
X16631500Y-7285750D01*
X16631100Y-7285250D01*
X16630700Y-7284850D01*
X16630300Y-7284350D01*
X16629900Y-7283750D01*
X16629600Y-7283250D01*
X16629300Y-7282650D01*
X16629000Y-7282150D01*
X16628800Y-7281550D01*
X16628600Y-7280950D01*
X16628400Y-7280350D01*
X16628300Y-7279750D01*
X16628100Y-7279150D01*
X16628100Y-7278550D01*
X16628000Y-7277850D01*
X16628000Y-7277250D01*
X16628000Y-7177250D01*
X16628000Y-7176650D01*
X16628100Y-7175950D01*
X16628100Y-7175350D01*
X16628300Y-7174750D01*
X16628400Y-7174150D01*
X16628600Y-7173550D01*
X16628800Y-7172950D01*
X16629000Y-7172350D01*
X16629300Y-7171850D01*
X16629600Y-7171250D01*
X16629900Y-7170750D01*
X16630300Y-7170150D01*
X16630700Y-7169650D01*
X16631100Y-7169250D01*
X16631500Y-7168750D01*
X16632000Y-7168350D01*
X16632400Y-7167950D01*
X16632900Y-7167550D01*
X16633500Y-7167150D01*
X16634000Y-7166850D01*
X16634600Y-7166550D01*
X16635100Y-7166250D01*
X16635700Y-7166050D01*
X16636300Y-7165850D01*
X16636900Y-7165650D01*
X16637500Y-7165550D01*
X16638100Y-7165350D01*
X16638700Y-7165350D01*
X16639400Y-7165250D01*
X16640000Y-7165250D01*
X16690000Y-7165250D01*
X16690600Y-7165250D01*
X16691300Y-7165350D01*
G37*
X16785000Y-7029250D02*
X16735000Y-7029250D01*
X16734400Y-7029250D01*
X16733700Y-7029150D01*
X16733100Y-7029150D01*
X16732500Y-7028950D01*
X16731900Y-7028850D01*
X16731300Y-7028650D01*
X16730700Y-7028450D01*
X16730100Y-7028250D01*
X16729600Y-7027950D01*
X16729000Y-7027650D01*
X16728500Y-7027350D01*
X16727900Y-7026950D01*
X16727400Y-7026550D01*
X16727000Y-7026150D01*
X16726500Y-7025750D01*
X16726100Y-7025250D01*
X16725700Y-7024850D01*
X16725300Y-7024350D01*
X16724900Y-7023750D01*
X16724600Y-7023250D01*
X16724300Y-7022650D01*
X16724000Y-7022150D01*
X16723800Y-7021550D01*
X16723600Y-7020950D01*
X16723400Y-7020350D01*
X16723300Y-7019750D01*
X16723100Y-7019150D01*
X16723100Y-7018550D01*
X16723000Y-7017850D01*
X16723000Y-7017250D01*
X16723000Y-6917250D01*
X16723000Y-6916650D01*
X16723100Y-6915950D01*
X16723100Y-6915350D01*
X16723300Y-6914750D01*
X16723400Y-6914150D01*
X16723600Y-6913550D01*
X16723800Y-6912950D01*
X16724000Y-6912350D01*
X16724300Y-6911850D01*
X16724600Y-6911250D01*
X16724900Y-6910750D01*
X16725300Y-6910150D01*
X16725700Y-6909650D01*
X16726100Y-6909250D01*
X16726500Y-6908750D01*
X16727000Y-6908350D01*
X16727400Y-6907950D01*
X16727900Y-6907550D01*
X16728500Y-6907150D01*
X16729000Y-6906850D01*
X16729600Y-6906550D01*
X16730100Y-6906250D01*
X16730700Y-6906050D01*
X16731300Y-6905850D01*
X16731900Y-6905650D01*
X16732500Y-6905550D01*
X16733100Y-6905350D01*
X16733700Y-6905350D01*
X16734400Y-6905250D01*
X16735000Y-6905250D01*
X16785000Y-6905250D01*
X16785600Y-6905250D01*
X16786300Y-6905350D01*
X16786900Y-6905350D01*
X16787500Y-6905550D01*
X16788100Y-6905650D01*
X16788700Y-6905850D01*
X16789300Y-6906050D01*
X16789900Y-6906250D01*
X16790400Y-6906550D01*
X16791000Y-6906850D01*
X16791500Y-6907150D01*
X16792100Y-6907550D01*
X16792600Y-6907950D01*
X16793000Y-6908350D01*
X16793500Y-6908750D01*
X16793900Y-6909250D01*
X16794300Y-6909650D01*
X16794700Y-6910150D01*
X16795100Y-6910750D01*
X16795400Y-6911250D01*
X16795700Y-6911850D01*
X16796000Y-6912350D01*
X16796200Y-6912950D01*
X16796400Y-6913550D01*
X16796600Y-6914150D01*
X16796700Y-6914750D01*
X16796900Y-6915350D01*
X16796900Y-6915950D01*
X16797000Y-6916650D01*
X16797000Y-6917250D01*
X16797000Y-7017250D01*
X16797000Y-7017850D01*
X16796900Y-7018550D01*
X16796900Y-7019150D01*
X16796700Y-7019750D01*
X16796600Y-7020350D01*
X16796400Y-7020950D01*
X16796200Y-7021550D01*
X16796000Y-7022150D01*
X16795700Y-7022650D01*
X16795400Y-7023250D01*
X16795100Y-7023750D01*
X16794700Y-7024350D01*
X16794300Y-7024850D01*
X16793900Y-7025250D01*
X16793500Y-7025750D01*
X16793000Y-7026150D01*
X16792600Y-7026550D01*
X16792100Y-7026950D01*
X16791500Y-7027350D01*
X16791000Y-7027650D01*
X16790400Y-7027950D01*
X16789900Y-7028250D01*
X16789300Y-7028450D01*
X16788700Y-7028650D01*
X16788100Y-7028850D01*
X16787500Y-7028950D01*
X16786900Y-7029150D01*
X16786300Y-7029150D01*
X16785600Y-7029250D01*
X16785000Y-7029250D01*
G36*
X16786300Y-6905350D02*
G01*
X16786900Y-6905350D01*
X16787500Y-6905550D01*
X16788100Y-6905650D01*
X16788700Y-6905850D01*
X16789300Y-6906050D01*
X16789900Y-6906250D01*
X16790400Y-6906550D01*
X16791000Y-6906850D01*
X16791500Y-6907150D01*
X16792100Y-6907550D01*
X16792600Y-6907950D01*
X16793000Y-6908350D01*
X16793500Y-6908750D01*
X16793900Y-6909250D01*
X16794300Y-6909650D01*
X16794700Y-6910150D01*
X16795100Y-6910750D01*
X16795400Y-6911250D01*
X16795700Y-6911850D01*
X16796000Y-6912350D01*
X16796200Y-6912950D01*
X16796400Y-6913550D01*
X16796600Y-6914150D01*
X16796700Y-6914750D01*
X16796900Y-6915350D01*
X16796900Y-6915950D01*
X16797000Y-6916650D01*
X16797000Y-6917250D01*
X16797000Y-7017250D01*
X16797000Y-7017850D01*
X16796900Y-7018550D01*
X16796900Y-7019150D01*
X16796700Y-7019750D01*
X16796600Y-7020350D01*
X16796400Y-7020950D01*
X16796200Y-7021550D01*
X16796000Y-7022150D01*
X16795700Y-7022650D01*
X16795400Y-7023250D01*
X16795100Y-7023750D01*
X16794700Y-7024350D01*
X16794300Y-7024850D01*
X16793900Y-7025250D01*
X16793500Y-7025750D01*
X16793000Y-7026150D01*
X16792600Y-7026550D01*
X16792100Y-7026950D01*
X16791500Y-7027350D01*
X16791000Y-7027650D01*
X16790400Y-7027950D01*
X16789900Y-7028250D01*
X16789300Y-7028450D01*
X16788700Y-7028650D01*
X16788100Y-7028850D01*
X16787500Y-7028950D01*
X16786900Y-7029150D01*
X16786300Y-7029150D01*
X16785600Y-7029250D01*
X16785000Y-7029250D01*
X16735000Y-7029250D01*
X16734400Y-7029250D01*
X16733700Y-7029150D01*
X16733100Y-7029150D01*
X16732500Y-7028950D01*
X16731900Y-7028850D01*
X16731300Y-7028650D01*
X16730700Y-7028450D01*
X16730100Y-7028250D01*
X16729600Y-7027950D01*
X16729000Y-7027650D01*
X16728500Y-7027350D01*
X16727900Y-7026950D01*
X16727400Y-7026550D01*
X16727000Y-7026150D01*
X16726500Y-7025750D01*
X16726100Y-7025250D01*
X16725700Y-7024850D01*
X16725300Y-7024350D01*
X16724900Y-7023750D01*
X16724600Y-7023250D01*
X16724300Y-7022650D01*
X16724000Y-7022150D01*
X16723800Y-7021550D01*
X16723600Y-7020950D01*
X16723400Y-7020350D01*
X16723300Y-7019750D01*
X16723100Y-7019150D01*
X16723100Y-7018550D01*
X16723000Y-7017850D01*
X16723000Y-7017250D01*
X16723000Y-6917250D01*
X16723000Y-6916650D01*
X16723100Y-6915950D01*
X16723100Y-6915350D01*
X16723300Y-6914750D01*
X16723400Y-6914150D01*
X16723600Y-6913550D01*
X16723800Y-6912950D01*
X16724000Y-6912350D01*
X16724300Y-6911850D01*
X16724600Y-6911250D01*
X16724900Y-6910750D01*
X16725300Y-6910150D01*
X16725700Y-6909650D01*
X16726100Y-6909250D01*
X16726500Y-6908750D01*
X16727000Y-6908350D01*
X16727400Y-6907950D01*
X16727900Y-6907550D01*
X16728500Y-6907150D01*
X16729000Y-6906850D01*
X16729600Y-6906550D01*
X16730100Y-6906250D01*
X16730700Y-6906050D01*
X16731300Y-6905850D01*
X16731900Y-6905650D01*
X16732500Y-6905550D01*
X16733100Y-6905350D01*
X16733700Y-6905350D01*
X16734400Y-6905250D01*
X16735000Y-6905250D01*
X16785000Y-6905250D01*
X16785600Y-6905250D01*
X16786300Y-6905350D01*
G37*
X16785000Y-7289250D02*
X16735000Y-7289250D01*
X16734400Y-7289250D01*
X16733700Y-7289150D01*
X16733100Y-7289150D01*
X16732500Y-7288950D01*
X16731900Y-7288850D01*
X16731300Y-7288650D01*
X16730700Y-7288450D01*
X16730100Y-7288250D01*
X16729600Y-7287950D01*
X16729000Y-7287650D01*
X16728500Y-7287350D01*
X16727900Y-7286950D01*
X16727400Y-7286550D01*
X16727000Y-7286150D01*
X16726500Y-7285750D01*
X16726100Y-7285250D01*
X16725700Y-7284850D01*
X16725300Y-7284350D01*
X16724900Y-7283750D01*
X16724600Y-7283250D01*
X16724300Y-7282650D01*
X16724000Y-7282150D01*
X16723800Y-7281550D01*
X16723600Y-7280950D01*
X16723400Y-7280350D01*
X16723300Y-7279750D01*
X16723100Y-7279150D01*
X16723100Y-7278550D01*
X16723000Y-7277850D01*
X16723000Y-7277250D01*
X16723000Y-7177250D01*
X16723000Y-7176650D01*
X16723100Y-7175950D01*
X16723100Y-7175350D01*
X16723300Y-7174750D01*
X16723400Y-7174150D01*
X16723600Y-7173550D01*
X16723800Y-7172950D01*
X16724000Y-7172350D01*
X16724300Y-7171850D01*
X16724600Y-7171250D01*
X16724900Y-7170750D01*
X16725300Y-7170150D01*
X16725700Y-7169650D01*
X16726100Y-7169250D01*
X16726500Y-7168750D01*
X16727000Y-7168350D01*
X16727400Y-7167950D01*
X16727900Y-7167550D01*
X16728500Y-7167150D01*
X16729000Y-7166850D01*
X16729600Y-7166550D01*
X16730100Y-7166250D01*
X16730700Y-7166050D01*
X16731300Y-7165850D01*
X16731900Y-7165650D01*
X16732500Y-7165550D01*
X16733100Y-7165350D01*
X16733700Y-7165350D01*
X16734400Y-7165250D01*
X16735000Y-7165250D01*
X16785000Y-7165250D01*
X16785600Y-7165250D01*
X16786300Y-7165350D01*
X16786900Y-7165350D01*
X16787500Y-7165550D01*
X16788100Y-7165650D01*
X16788700Y-7165850D01*
X16789300Y-7166050D01*
X16789900Y-7166250D01*
X16790400Y-7166550D01*
X16791000Y-7166850D01*
X16791500Y-7167150D01*
X16792100Y-7167550D01*
X16792600Y-7167950D01*
X16793000Y-7168350D01*
X16793500Y-7168750D01*
X16793900Y-7169250D01*
X16794300Y-7169650D01*
X16794700Y-7170150D01*
X16795100Y-7170750D01*
X16795400Y-7171250D01*
X16795700Y-7171850D01*
X16796000Y-7172350D01*
X16796200Y-7172950D01*
X16796400Y-7173550D01*
X16796600Y-7174150D01*
X16796700Y-7174750D01*
X16796900Y-7175350D01*
X16796900Y-7175950D01*
X16797000Y-7176650D01*
X16797000Y-7177250D01*
X16797000Y-7277250D01*
X16797000Y-7277850D01*
X16796900Y-7278550D01*
X16796900Y-7279150D01*
X16796700Y-7279750D01*
X16796600Y-7280350D01*
X16796400Y-7280950D01*
X16796200Y-7281550D01*
X16796000Y-7282150D01*
X16795700Y-7282650D01*
X16795400Y-7283250D01*
X16795100Y-7283750D01*
X16794700Y-7284350D01*
X16794300Y-7284850D01*
X16793900Y-7285250D01*
X16793500Y-7285750D01*
X16793000Y-7286150D01*
X16792600Y-7286550D01*
X16792100Y-7286950D01*
X16791500Y-7287350D01*
X16791000Y-7287650D01*
X16790400Y-7287950D01*
X16789900Y-7288250D01*
X16789300Y-7288450D01*
X16788700Y-7288650D01*
X16788100Y-7288850D01*
X16787500Y-7288950D01*
X16786900Y-7289150D01*
X16786300Y-7289150D01*
X16785600Y-7289250D01*
X16785000Y-7289250D01*
G36*
X16786300Y-7165350D02*
G01*
X16786900Y-7165350D01*
X16787500Y-7165550D01*
X16788100Y-7165650D01*
X16788700Y-7165850D01*
X16789300Y-7166050D01*
X16789900Y-7166250D01*
X16790400Y-7166550D01*
X16791000Y-7166850D01*
X16791500Y-7167150D01*
X16792100Y-7167550D01*
X16792600Y-7167950D01*
X16793000Y-7168350D01*
X16793500Y-7168750D01*
X16793900Y-7169250D01*
X16794300Y-7169650D01*
X16794700Y-7170150D01*
X16795100Y-7170750D01*
X16795400Y-7171250D01*
X16795700Y-7171850D01*
X16796000Y-7172350D01*
X16796200Y-7172950D01*
X16796400Y-7173550D01*
X16796600Y-7174150D01*
X16796700Y-7174750D01*
X16796900Y-7175350D01*
X16796900Y-7175950D01*
X16797000Y-7176650D01*
X16797000Y-7177250D01*
X16797000Y-7277250D01*
X16797000Y-7277850D01*
X16796900Y-7278550D01*
X16796900Y-7279150D01*
X16796700Y-7279750D01*
X16796600Y-7280350D01*
X16796400Y-7280950D01*
X16796200Y-7281550D01*
X16796000Y-7282150D01*
X16795700Y-7282650D01*
X16795400Y-7283250D01*
X16795100Y-7283750D01*
X16794700Y-7284350D01*
X16794300Y-7284850D01*
X16793900Y-7285250D01*
X16793500Y-7285750D01*
X16793000Y-7286150D01*
X16792600Y-7286550D01*
X16792100Y-7286950D01*
X16791500Y-7287350D01*
X16791000Y-7287650D01*
X16790400Y-7287950D01*
X16789900Y-7288250D01*
X16789300Y-7288450D01*
X16788700Y-7288650D01*
X16788100Y-7288850D01*
X16787500Y-7288950D01*
X16786900Y-7289150D01*
X16786300Y-7289150D01*
X16785600Y-7289250D01*
X16785000Y-7289250D01*
X16735000Y-7289250D01*
X16734400Y-7289250D01*
X16733700Y-7289150D01*
X16733100Y-7289150D01*
X16732500Y-7288950D01*
X16731900Y-7288850D01*
X16731300Y-7288650D01*
X16730700Y-7288450D01*
X16730100Y-7288250D01*
X16729600Y-7287950D01*
X16729000Y-7287650D01*
X16728500Y-7287350D01*
X16727900Y-7286950D01*
X16727400Y-7286550D01*
X16727000Y-7286150D01*
X16726500Y-7285750D01*
X16726100Y-7285250D01*
X16725700Y-7284850D01*
X16725300Y-7284350D01*
X16724900Y-7283750D01*
X16724600Y-7283250D01*
X16724300Y-7282650D01*
X16724000Y-7282150D01*
X16723800Y-7281550D01*
X16723600Y-7280950D01*
X16723400Y-7280350D01*
X16723300Y-7279750D01*
X16723100Y-7279150D01*
X16723100Y-7278550D01*
X16723000Y-7277850D01*
X16723000Y-7277250D01*
X16723000Y-7177250D01*
X16723000Y-7176650D01*
X16723100Y-7175950D01*
X16723100Y-7175350D01*
X16723300Y-7174750D01*
X16723400Y-7174150D01*
X16723600Y-7173550D01*
X16723800Y-7172950D01*
X16724000Y-7172350D01*
X16724300Y-7171850D01*
X16724600Y-7171250D01*
X16724900Y-7170750D01*
X16725300Y-7170150D01*
X16725700Y-7169650D01*
X16726100Y-7169250D01*
X16726500Y-7168750D01*
X16727000Y-7168350D01*
X16727400Y-7167950D01*
X16727900Y-7167550D01*
X16728500Y-7167150D01*
X16729000Y-7166850D01*
X16729600Y-7166550D01*
X16730100Y-7166250D01*
X16730700Y-7166050D01*
X16731300Y-7165850D01*
X16731900Y-7165650D01*
X16732500Y-7165550D01*
X16733100Y-7165350D01*
X16733700Y-7165350D01*
X16734400Y-7165250D01*
X16735000Y-7165250D01*
X16785000Y-7165250D01*
X16785600Y-7165250D01*
X16786300Y-7165350D01*
G37*
X16880000Y-7029250D02*
X16830000Y-7029250D01*
X16829400Y-7029250D01*
X16828700Y-7029150D01*
X16828100Y-7029150D01*
X16827500Y-7028950D01*
X16826900Y-7028850D01*
X16826300Y-7028650D01*
X16825700Y-7028450D01*
X16825100Y-7028250D01*
X16824600Y-7027950D01*
X16824000Y-7027650D01*
X16823500Y-7027350D01*
X16822900Y-7026950D01*
X16822400Y-7026550D01*
X16822000Y-7026150D01*
X16821500Y-7025750D01*
X16821100Y-7025250D01*
X16820700Y-7024850D01*
X16820300Y-7024350D01*
X16819900Y-7023750D01*
X16819600Y-7023250D01*
X16819300Y-7022650D01*
X16819000Y-7022150D01*
X16818800Y-7021550D01*
X16818600Y-7020950D01*
X16818400Y-7020350D01*
X16818300Y-7019750D01*
X16818100Y-7019150D01*
X16818100Y-7018550D01*
X16818000Y-7017850D01*
X16818000Y-7017250D01*
X16818000Y-6917250D01*
X16818000Y-6916650D01*
X16818100Y-6915950D01*
X16818100Y-6915350D01*
X16818300Y-6914750D01*
X16818400Y-6914150D01*
X16818600Y-6913550D01*
X16818800Y-6912950D01*
X16819000Y-6912350D01*
X16819300Y-6911850D01*
X16819600Y-6911250D01*
X16819900Y-6910750D01*
X16820300Y-6910150D01*
X16820700Y-6909650D01*
X16821100Y-6909250D01*
X16821500Y-6908750D01*
X16822000Y-6908350D01*
X16822400Y-6907950D01*
X16822900Y-6907550D01*
X16823500Y-6907150D01*
X16824000Y-6906850D01*
X16824600Y-6906550D01*
X16825100Y-6906250D01*
X16825700Y-6906050D01*
X16826300Y-6905850D01*
X16826900Y-6905650D01*
X16827500Y-6905550D01*
X16828100Y-6905350D01*
X16828700Y-6905350D01*
X16829400Y-6905250D01*
X16830000Y-6905250D01*
X16880000Y-6905250D01*
X16880600Y-6905250D01*
X16881300Y-6905350D01*
X16881900Y-6905350D01*
X16882500Y-6905550D01*
X16883100Y-6905650D01*
X16883700Y-6905850D01*
X16884300Y-6906050D01*
X16884900Y-6906250D01*
X16885400Y-6906550D01*
X16886000Y-6906850D01*
X16886500Y-6907150D01*
X16887100Y-6907550D01*
X16887600Y-6907950D01*
X16888000Y-6908350D01*
X16888500Y-6908750D01*
X16888900Y-6909250D01*
X16889300Y-6909650D01*
X16889700Y-6910150D01*
X16890100Y-6910750D01*
X16890400Y-6911250D01*
X16890700Y-6911850D01*
X16891000Y-6912350D01*
X16891200Y-6912950D01*
X16891400Y-6913550D01*
X16891600Y-6914150D01*
X16891700Y-6914750D01*
X16891900Y-6915350D01*
X16891900Y-6915950D01*
X16892000Y-6916650D01*
X16892000Y-6917250D01*
X16892000Y-7017250D01*
X16892000Y-7017850D01*
X16891900Y-7018550D01*
X16891900Y-7019150D01*
X16891700Y-7019750D01*
X16891600Y-7020350D01*
X16891400Y-7020950D01*
X16891200Y-7021550D01*
X16891000Y-7022150D01*
X16890700Y-7022650D01*
X16890400Y-7023250D01*
X16890100Y-7023750D01*
X16889700Y-7024350D01*
X16889300Y-7024850D01*
X16888900Y-7025250D01*
X16888500Y-7025750D01*
X16888000Y-7026150D01*
X16887600Y-7026550D01*
X16887100Y-7026950D01*
X16886500Y-7027350D01*
X16886000Y-7027650D01*
X16885400Y-7027950D01*
X16884900Y-7028250D01*
X16884300Y-7028450D01*
X16883700Y-7028650D01*
X16883100Y-7028850D01*
X16882500Y-7028950D01*
X16881900Y-7029150D01*
X16881300Y-7029150D01*
X16880600Y-7029250D01*
X16880000Y-7029250D01*
G36*
X16881300Y-6905350D02*
G01*
X16881900Y-6905350D01*
X16882500Y-6905550D01*
X16883100Y-6905650D01*
X16883700Y-6905850D01*
X16884300Y-6906050D01*
X16884900Y-6906250D01*
X16885400Y-6906550D01*
X16886000Y-6906850D01*
X16886500Y-6907150D01*
X16887100Y-6907550D01*
X16887600Y-6907950D01*
X16888000Y-6908350D01*
X16888500Y-6908750D01*
X16888900Y-6909250D01*
X16889300Y-6909650D01*
X16889700Y-6910150D01*
X16890100Y-6910750D01*
X16890400Y-6911250D01*
X16890700Y-6911850D01*
X16891000Y-6912350D01*
X16891200Y-6912950D01*
X16891400Y-6913550D01*
X16891600Y-6914150D01*
X16891700Y-6914750D01*
X16891900Y-6915350D01*
X16891900Y-6915950D01*
X16892000Y-6916650D01*
X16892000Y-6917250D01*
X16892000Y-7017250D01*
X16892000Y-7017850D01*
X16891900Y-7018550D01*
X16891900Y-7019150D01*
X16891700Y-7019750D01*
X16891600Y-7020350D01*
X16891400Y-7020950D01*
X16891200Y-7021550D01*
X16891000Y-7022150D01*
X16890700Y-7022650D01*
X16890400Y-7023250D01*
X16890100Y-7023750D01*
X16889700Y-7024350D01*
X16889300Y-7024850D01*
X16888900Y-7025250D01*
X16888500Y-7025750D01*
X16888000Y-7026150D01*
X16887600Y-7026550D01*
X16887100Y-7026950D01*
X16886500Y-7027350D01*
X16886000Y-7027650D01*
X16885400Y-7027950D01*
X16884900Y-7028250D01*
X16884300Y-7028450D01*
X16883700Y-7028650D01*
X16883100Y-7028850D01*
X16882500Y-7028950D01*
X16881900Y-7029150D01*
X16881300Y-7029150D01*
X16880600Y-7029250D01*
X16880000Y-7029250D01*
X16830000Y-7029250D01*
X16829400Y-7029250D01*
X16828700Y-7029150D01*
X16828100Y-7029150D01*
X16827500Y-7028950D01*
X16826900Y-7028850D01*
X16826300Y-7028650D01*
X16825700Y-7028450D01*
X16825100Y-7028250D01*
X16824600Y-7027950D01*
X16824000Y-7027650D01*
X16823500Y-7027350D01*
X16822900Y-7026950D01*
X16822400Y-7026550D01*
X16822000Y-7026150D01*
X16821500Y-7025750D01*
X16821100Y-7025250D01*
X16820700Y-7024850D01*
X16820300Y-7024350D01*
X16819900Y-7023750D01*
X16819600Y-7023250D01*
X16819300Y-7022650D01*
X16819000Y-7022150D01*
X16818800Y-7021550D01*
X16818600Y-7020950D01*
X16818400Y-7020350D01*
X16818300Y-7019750D01*
X16818100Y-7019150D01*
X16818100Y-7018550D01*
X16818000Y-7017850D01*
X16818000Y-7017250D01*
X16818000Y-6917250D01*
X16818000Y-6916650D01*
X16818100Y-6915950D01*
X16818100Y-6915350D01*
X16818300Y-6914750D01*
X16818400Y-6914150D01*
X16818600Y-6913550D01*
X16818800Y-6912950D01*
X16819000Y-6912350D01*
X16819300Y-6911850D01*
X16819600Y-6911250D01*
X16819900Y-6910750D01*
X16820300Y-6910150D01*
X16820700Y-6909650D01*
X16821100Y-6909250D01*
X16821500Y-6908750D01*
X16822000Y-6908350D01*
X16822400Y-6907950D01*
X16822900Y-6907550D01*
X16823500Y-6907150D01*
X16824000Y-6906850D01*
X16824600Y-6906550D01*
X16825100Y-6906250D01*
X16825700Y-6906050D01*
X16826300Y-6905850D01*
X16826900Y-6905650D01*
X16827500Y-6905550D01*
X16828100Y-6905350D01*
X16828700Y-6905350D01*
X16829400Y-6905250D01*
X16830000Y-6905250D01*
X16880000Y-6905250D01*
X16880600Y-6905250D01*
X16881300Y-6905350D01*
G37*
X16880000Y-7289250D02*
X16830000Y-7289250D01*
X16829400Y-7289250D01*
X16828700Y-7289150D01*
X16828100Y-7289150D01*
X16827500Y-7288950D01*
X16826900Y-7288850D01*
X16826300Y-7288650D01*
X16825700Y-7288450D01*
X16825100Y-7288250D01*
X16824600Y-7287950D01*
X16824000Y-7287650D01*
X16823500Y-7287350D01*
X16822900Y-7286950D01*
X16822400Y-7286550D01*
X16822000Y-7286150D01*
X16821500Y-7285750D01*
X16821100Y-7285250D01*
X16820700Y-7284850D01*
X16820300Y-7284350D01*
X16819900Y-7283750D01*
X16819600Y-7283250D01*
X16819300Y-7282650D01*
X16819000Y-7282150D01*
X16818800Y-7281550D01*
X16818600Y-7280950D01*
X16818400Y-7280350D01*
X16818300Y-7279750D01*
X16818100Y-7279150D01*
X16818100Y-7278550D01*
X16818000Y-7277850D01*
X16818000Y-7277250D01*
X16818000Y-7177250D01*
X16818000Y-7176650D01*
X16818100Y-7175950D01*
X16818100Y-7175350D01*
X16818300Y-7174750D01*
X16818400Y-7174150D01*
X16818600Y-7173550D01*
X16818800Y-7172950D01*
X16819000Y-7172350D01*
X16819300Y-7171850D01*
X16819600Y-7171250D01*
X16819900Y-7170750D01*
X16820300Y-7170150D01*
X16820700Y-7169650D01*
X16821100Y-7169250D01*
X16821500Y-7168750D01*
X16822000Y-7168350D01*
X16822400Y-7167950D01*
X16822900Y-7167550D01*
X16823500Y-7167150D01*
X16824000Y-7166850D01*
X16824600Y-7166550D01*
X16825100Y-7166250D01*
X16825700Y-7166050D01*
X16826300Y-7165850D01*
X16826900Y-7165650D01*
X16827500Y-7165550D01*
X16828100Y-7165350D01*
X16828700Y-7165350D01*
X16829400Y-7165250D01*
X16830000Y-7165250D01*
X16880000Y-7165250D01*
X16880600Y-7165250D01*
X16881300Y-7165350D01*
X16881900Y-7165350D01*
X16882500Y-7165550D01*
X16883100Y-7165650D01*
X16883700Y-7165850D01*
X16884300Y-7166050D01*
X16884900Y-7166250D01*
X16885400Y-7166550D01*
X16886000Y-7166850D01*
X16886500Y-7167150D01*
X16887100Y-7167550D01*
X16887600Y-7167950D01*
X16888000Y-7168350D01*
X16888500Y-7168750D01*
X16888900Y-7169250D01*
X16889300Y-7169650D01*
X16889700Y-7170150D01*
X16890100Y-7170750D01*
X16890400Y-7171250D01*
X16890700Y-7171850D01*
X16891000Y-7172350D01*
X16891200Y-7172950D01*
X16891400Y-7173550D01*
X16891600Y-7174150D01*
X16891700Y-7174750D01*
X16891900Y-7175350D01*
X16891900Y-7175950D01*
X16892000Y-7176650D01*
X16892000Y-7177250D01*
X16892000Y-7277250D01*
X16892000Y-7277850D01*
X16891900Y-7278550D01*
X16891900Y-7279150D01*
X16891700Y-7279750D01*
X16891600Y-7280350D01*
X16891400Y-7280950D01*
X16891200Y-7281550D01*
X16891000Y-7282150D01*
X16890700Y-7282650D01*
X16890400Y-7283250D01*
X16890100Y-7283750D01*
X16889700Y-7284350D01*
X16889300Y-7284850D01*
X16888900Y-7285250D01*
X16888500Y-7285750D01*
X16888000Y-7286150D01*
X16887600Y-7286550D01*
X16887100Y-7286950D01*
X16886500Y-7287350D01*
X16886000Y-7287650D01*
X16885400Y-7287950D01*
X16884900Y-7288250D01*
X16884300Y-7288450D01*
X16883700Y-7288650D01*
X16883100Y-7288850D01*
X16882500Y-7288950D01*
X16881900Y-7289150D01*
X16881300Y-7289150D01*
X16880600Y-7289250D01*
X16880000Y-7289250D01*
G36*
X16881300Y-7165350D02*
G01*
X16881900Y-7165350D01*
X16882500Y-7165550D01*
X16883100Y-7165650D01*
X16883700Y-7165850D01*
X16884300Y-7166050D01*
X16884900Y-7166250D01*
X16885400Y-7166550D01*
X16886000Y-7166850D01*
X16886500Y-7167150D01*
X16887100Y-7167550D01*
X16887600Y-7167950D01*
X16888000Y-7168350D01*
X16888500Y-7168750D01*
X16888900Y-7169250D01*
X16889300Y-7169650D01*
X16889700Y-7170150D01*
X16890100Y-7170750D01*
X16890400Y-7171250D01*
X16890700Y-7171850D01*
X16891000Y-7172350D01*
X16891200Y-7172950D01*
X16891400Y-7173550D01*
X16891600Y-7174150D01*
X16891700Y-7174750D01*
X16891900Y-7175350D01*
X16891900Y-7175950D01*
X16892000Y-7176650D01*
X16892000Y-7177250D01*
X16892000Y-7277250D01*
X16892000Y-7277850D01*
X16891900Y-7278550D01*
X16891900Y-7279150D01*
X16891700Y-7279750D01*
X16891600Y-7280350D01*
X16891400Y-7280950D01*
X16891200Y-7281550D01*
X16891000Y-7282150D01*
X16890700Y-7282650D01*
X16890400Y-7283250D01*
X16890100Y-7283750D01*
X16889700Y-7284350D01*
X16889300Y-7284850D01*
X16888900Y-7285250D01*
X16888500Y-7285750D01*
X16888000Y-7286150D01*
X16887600Y-7286550D01*
X16887100Y-7286950D01*
X16886500Y-7287350D01*
X16886000Y-7287650D01*
X16885400Y-7287950D01*
X16884900Y-7288250D01*
X16884300Y-7288450D01*
X16883700Y-7288650D01*
X16883100Y-7288850D01*
X16882500Y-7288950D01*
X16881900Y-7289150D01*
X16881300Y-7289150D01*
X16880600Y-7289250D01*
X16880000Y-7289250D01*
X16830000Y-7289250D01*
X16829400Y-7289250D01*
X16828700Y-7289150D01*
X16828100Y-7289150D01*
X16827500Y-7288950D01*
X16826900Y-7288850D01*
X16826300Y-7288650D01*
X16825700Y-7288450D01*
X16825100Y-7288250D01*
X16824600Y-7287950D01*
X16824000Y-7287650D01*
X16823500Y-7287350D01*
X16822900Y-7286950D01*
X16822400Y-7286550D01*
X16822000Y-7286150D01*
X16821500Y-7285750D01*
X16821100Y-7285250D01*
X16820700Y-7284850D01*
X16820300Y-7284350D01*
X16819900Y-7283750D01*
X16819600Y-7283250D01*
X16819300Y-7282650D01*
X16819000Y-7282150D01*
X16818800Y-7281550D01*
X16818600Y-7280950D01*
X16818400Y-7280350D01*
X16818300Y-7279750D01*
X16818100Y-7279150D01*
X16818100Y-7278550D01*
X16818000Y-7277850D01*
X16818000Y-7277250D01*
X16818000Y-7177250D01*
X16818000Y-7176650D01*
X16818100Y-7175950D01*
X16818100Y-7175350D01*
X16818300Y-7174750D01*
X16818400Y-7174150D01*
X16818600Y-7173550D01*
X16818800Y-7172950D01*
X16819000Y-7172350D01*
X16819300Y-7171850D01*
X16819600Y-7171250D01*
X16819900Y-7170750D01*
X16820300Y-7170150D01*
X16820700Y-7169650D01*
X16821100Y-7169250D01*
X16821500Y-7168750D01*
X16822000Y-7168350D01*
X16822400Y-7167950D01*
X16822900Y-7167550D01*
X16823500Y-7167150D01*
X16824000Y-7166850D01*
X16824600Y-7166550D01*
X16825100Y-7166250D01*
X16825700Y-7166050D01*
X16826300Y-7165850D01*
X16826900Y-7165650D01*
X16827500Y-7165550D01*
X16828100Y-7165350D01*
X16828700Y-7165350D01*
X16829400Y-7165250D01*
X16830000Y-7165250D01*
X16880000Y-7165250D01*
X16880600Y-7165250D01*
X16881300Y-7165350D01*
G37*
%TD*%
D12*
%TO.C,BT2*%
X17747000Y-12406000D03*
X16173000Y-6886000D03*
D13*
X17747000Y-6048000D03*
D14*
X16960000Y-6048000D03*
X16960000Y-13270000D03*
%TD*%
D15*
%TO.C,J7*%
X14033000Y-10049000D03*
D16*
X13913000Y-10579000D03*
X14283000Y-10329000D03*
D17*
X14493000Y-9899000D03*
%TD*%
D18*
%TO.C,SW8*%
X12617500Y-14240000D03*
X12917500Y-14240000D03*
%TD*%
D19*
%TO.C,TP5*%
X14060000Y-11062500D03*
D20*
X14060000Y-11316500D03*
%TD*%
D21*
%TO.C,J1*%
X15600000Y-10061000D03*
D22*
X14850000Y-10061000D03*
D23*
X15465000Y-9846000D03*
X14985000Y-9846000D03*
X15465000Y-10276000D03*
X14985000Y-10276000D03*
%TD*%
D12*
%TO.C,BT1*%
X11653000Y-6913000D03*
X13227000Y-12433000D03*
D13*
X11653000Y-13271000D03*
D14*
X12440000Y-13271000D03*
X12440000Y-6049000D03*
%TD*%
D24*
%TO.C,TP6*%
X15081500Y-10732250D03*
D20*
X15335500Y-10732250D03*
%TD*%
D25*
%TO.C,D15*%
X12452500Y-11720000D03*
D26*
X12947500Y-11720000D03*
%TD*%
D27*
%TO.C,Q4*%
X15297000Y-13291000D03*
X15297000Y-13101000D03*
X15639000Y-13196000D03*
%TD*%
D28*
%TO.C,R25*%
X15887000Y-13197000D03*
X16197000Y-13197000D03*
%TD*%
D29*
%TO.C,L1*%
X12714725Y-7653179D03*
D30*
X12714725Y-8315678D03*
%TD*%
D31*
%TO.C,Q3*%
X16389500Y-12854000D03*
X16579500Y-12854000D03*
X16484500Y-13196000D03*
%TD*%
D32*
%TO.C,R8*%
X16920000Y-13746250D03*
X16920000Y-13928750D03*
%TD*%
D33*
%TO.C,C9*%
X17015000Y-7331250D03*
X17015000Y-7158750D03*
%TD*%
D32*
%TO.C,R11*%
X17800000Y-13746250D03*
X17800000Y-13928750D03*
%TD*%
D34*
%TO.C,C13*%
X12780000Y-12733750D03*
X12780000Y-12906250D03*
%TD*%
D35*
%TO.C,R2*%
X13371250Y-12730000D03*
X13188750Y-12730000D03*
%TD*%
D33*
%TO.C,C11*%
X12780000Y-12556250D03*
X12780000Y-12383750D03*
%TD*%
D36*
%TO.C,R23*%
X13871750Y-9329000D03*
X14054250Y-9329000D03*
%TD*%
D37*
%TO.C,Q1*%
X16305000Y-12500000D03*
X16305000Y-12310000D03*
X16605000Y-12405000D03*
%TD*%
D38*
%TO.C,C10*%
X17328640Y-7643622D03*
X17156140Y-7643622D03*
%TD*%
D34*
%TO.C,C2*%
X15286000Y-13493750D03*
X15286000Y-13666250D03*
%TD*%
D33*
%TO.C,C4*%
X13641750Y-7140250D03*
X13641750Y-6967750D03*
%TD*%
D39*
%TO.C,J2*%
X12161400Y-8744600D03*
X12666400Y-8744600D03*
X12161400Y-8998600D03*
X12666400Y-8998600D03*
X12161400Y-9252600D03*
X12666400Y-9252600D03*
X12161400Y-9506600D03*
X12666400Y-9506600D03*
X12161400Y-9760600D03*
X12666400Y-9760600D03*
X12161400Y-10014600D03*
X12666400Y-10014600D03*
X12161400Y-10268600D03*
X12666400Y-10268600D03*
X12161400Y-10522600D03*
X12666400Y-10522600D03*
X12161400Y-10776600D03*
X12666400Y-10776600D03*
X12161400Y-11030600D03*
X12666400Y-11030600D03*
X12161400Y-11284600D03*
X12666400Y-11284600D03*
%TD*%
D40*
%TO.C,C14*%
X14919750Y-9319000D03*
X15092250Y-9319000D03*
%TD*%
D41*
%TO.C,U4*%
X12255000Y-12825000D03*
X12255000Y-12730000D03*
X12255000Y-12635000D03*
X12525000Y-12635000D03*
X12525000Y-12730000D03*
X12525000Y-12825000D03*
%TD*%
D42*
%TO.C,R21*%
X12940000Y-12911250D03*
X12940000Y-12728750D03*
%TD*%
D36*
%TO.C,R19*%
X16478750Y-7450000D03*
X16661250Y-7450000D03*
%TD*%
D35*
%TO.C,R16*%
X16652082Y-12655989D03*
X16469582Y-12655989D03*
%TD*%
D38*
%TO.C,C16*%
X14376250Y-12580000D03*
X14203750Y-12580000D03*
%TD*%
D43*
%TO.C,U2*%
X12877750Y-6778500D03*
X13004750Y-6778500D03*
X13131750Y-6778500D03*
X13258750Y-6778500D03*
X13258750Y-7293500D03*
X13131750Y-7293500D03*
X13004750Y-7293500D03*
X12877750Y-7293500D03*
%TD*%
D35*
%TO.C,R28*%
X13791250Y-12300000D03*
X13608750Y-12300000D03*
%TD*%
D44*
%TO.C,D5*%
X14690000Y-10215000D03*
X14690000Y-10465000D03*
%TD*%
D38*
%TO.C,C7*%
X16716250Y-6806000D03*
X16543750Y-6806000D03*
%TD*%
D45*
%TO.C,Q5*%
X13474750Y-9549000D03*
X13664750Y-9549000D03*
X13569750Y-9849000D03*
%TD*%
D36*
%TO.C,R27*%
X13608750Y-12147000D03*
X13791250Y-12147000D03*
%TD*%
D42*
%TO.C,R20*%
X12940000Y-12561250D03*
X12940000Y-12378750D03*
%TD*%
D36*
%TO.C,R29*%
X14198750Y-12415649D03*
X14381250Y-12415649D03*
%TD*%
D46*
%TO.C,C1*%
X15121250Y-13525000D03*
X14808750Y-13525000D03*
%TD*%
%TO.C,C3*%
X12692500Y-6781000D03*
X12380000Y-6781000D03*
%TD*%
D47*
%TO.C,J5*%
X13938000Y-8565500D03*
X14192000Y-8234500D03*
X14446000Y-8565500D03*
X14700000Y-8234500D03*
X14954000Y-8565500D03*
X15208000Y-8234500D03*
X15462000Y-8565500D03*
%TD*%
D48*
%TO.C,L2*%
X17031250Y-6920000D03*
X17328750Y-6920000D03*
%TD*%
D49*
%TO.C,C8*%
X13154250Y-8985000D03*
X13795750Y-8985000D03*
%TD*%
D32*
%TO.C,R5*%
X13790000Y-11803750D03*
X13790000Y-11986250D03*
%TD*%
D39*
%TO.C,J4*%
X16733500Y-8744600D03*
X17238500Y-8744600D03*
X16733500Y-8998600D03*
X17238500Y-8998600D03*
X16733500Y-9252600D03*
X17238500Y-9252600D03*
X16733500Y-9506600D03*
X17238500Y-9506600D03*
X16733500Y-9760600D03*
X17238500Y-9760600D03*
X16733500Y-10014600D03*
X17238500Y-10014600D03*
X16733500Y-10268600D03*
X17238500Y-10268600D03*
X16733500Y-10522600D03*
X17238500Y-10522600D03*
X16733500Y-10776600D03*
X17238500Y-10776600D03*
X16733500Y-11030600D03*
X17238500Y-11030600D03*
X16733500Y-11284600D03*
X17238500Y-11284600D03*
X16733500Y-11538600D03*
X17238500Y-11538600D03*
X16733500Y-11792600D03*
X17238500Y-11792600D03*
X16733500Y-12046600D03*
X17238500Y-12046600D03*
%TD*%
D32*
%TO.C,R6*%
X16402500Y-13746250D03*
X16402500Y-13928750D03*
%TD*%
D37*
%TO.C,Q2*%
X12395000Y-6572000D03*
X12395000Y-6382000D03*
X12695000Y-6477000D03*
%TD*%
D36*
%TO.C,R18*%
X17151140Y-7483622D03*
X17333640Y-7483622D03*
%TD*%
D38*
%TO.C,C5*%
X16716250Y-6655000D03*
X16543750Y-6655000D03*
%TD*%
D50*
%TO.C,D10*%
X15962500Y-6410000D03*
X15757500Y-6410000D03*
%TD*%
D35*
%TO.C,R13*%
X15515250Y-10459250D03*
X15332750Y-10459250D03*
%TD*%
D51*
%TO.C,R24*%
X14049750Y-9519000D03*
X13849750Y-9519000D03*
%TD*%
D35*
%TO.C,R3*%
X13371250Y-13050000D03*
X13188750Y-13050000D03*
%TD*%
D32*
%TO.C,R26*%
X11980000Y-12640000D03*
X11980000Y-12822500D03*
%TD*%
D50*
%TO.C,D9*%
X15962500Y-6170000D03*
X15757500Y-6170000D03*
%TD*%
D35*
%TO.C,R12*%
X15467608Y-9671214D03*
X15285108Y-9671214D03*
%TD*%
D52*
%TO.C,D12*%
X13454000Y-7013500D03*
X13454000Y-7328500D03*
%TD*%
D53*
%TO.C,C6*%
X12200000Y-7511250D03*
X12200000Y-7718750D03*
%TD*%
D54*
%TO.C,F1*%
X12440000Y-12041250D03*
X12440000Y-12338750D03*
%TD*%
D42*
%TO.C,R17*%
X16819394Y-12655634D03*
X16819394Y-12473134D03*
%TD*%
D55*
%TO.C,D13*%
X13859750Y-9769000D03*
X14299750Y-9769000D03*
%TD*%
D56*
%TO.C,U5*%
X14291750Y-9516500D03*
X14291750Y-9451500D03*
X14291750Y-9386500D03*
X14291750Y-9321500D03*
X14714250Y-9321500D03*
X14714250Y-9386500D03*
X14714250Y-9451500D03*
X14714250Y-9516500D03*
%TD*%
D32*
%TO.C,R10*%
X17100000Y-13746250D03*
X17100000Y-13928750D03*
%TD*%
%TO.C,R9*%
X17620000Y-13746250D03*
X17620000Y-13928750D03*
%TD*%
D57*
%TO.C,D11*%
X12667500Y-7190000D03*
X12212500Y-7190000D03*
%TD*%
D32*
%TO.C,R7*%
X16220000Y-13746250D03*
X16220000Y-13928750D03*
%TD*%
D35*
%TO.C,R4*%
X13371250Y-12890000D03*
X13188750Y-12890000D03*
%TD*%
D58*
X12859000Y-12819000D03*
X12380000Y-7190000D03*
X16930000Y-12570000D03*
X16064000Y-5890000D03*
X12861000Y-12468000D03*
X15890000Y-11520000D03*
X12800000Y-13200000D03*
X16296000Y-5890000D03*
X11785000Y-13500000D03*
X17910000Y-6200000D03*
X14830000Y-5890000D03*
X13693000Y-13272000D03*
X14320000Y-5890000D03*
X17910000Y-10065262D03*
X13534000Y-12676000D03*
X13605000Y-10072000D03*
X16871000Y-13651000D03*
X13206000Y-11721000D03*
X12404000Y-13987550D03*
X11850000Y-8810000D03*
X15045000Y-6738000D03*
X16596000Y-13467000D03*
X12690000Y-14040000D03*
X12860000Y-12990000D03*
X17495000Y-12748000D03*
X11490000Y-6700000D03*
X14026000Y-13790000D03*
X16670000Y-13114000D03*
X11490000Y-14018000D03*
X16855000Y-7098000D03*
X15704000Y-11831000D03*
X16170000Y-14360000D03*
X13114000Y-5890000D03*
X12290000Y-5890000D03*
X15670000Y-10460000D03*
X13810000Y-5890000D03*
X16090000Y-13790000D03*
X16307000Y-12199000D03*
X11490000Y-10377142D03*
X14770000Y-10570000D03*
X12261000Y-14131000D03*
X17900000Y-12642104D03*
X12650000Y-5890000D03*
X12083000Y-12725000D03*
X15480000Y-11030000D03*
X15345000Y-12117000D03*
X14319000Y-7048000D03*
X13082000Y-12649000D03*
X16104000Y-13362000D03*
X14205000Y-12703000D03*
X11490000Y-12325715D03*
X16430000Y-12400000D03*
X12410000Y-9420000D03*
X15832000Y-5890000D03*
X17910000Y-5890000D03*
X17196000Y-12294000D03*
X17910000Y-7917894D03*
X11850000Y-9420000D03*
X11850000Y-8350000D03*
X13797000Y-8785000D03*
X16760000Y-7097250D03*
X13486000Y-12299000D03*
X12260000Y-14360000D03*
X13766000Y-9287000D03*
X13143000Y-14240000D03*
X13535000Y-13589000D03*
X11975000Y-13425000D03*
X13346000Y-5890000D03*
X11490000Y-8097143D03*
X11490000Y-13676000D03*
X13553000Y-9409000D03*
X13382000Y-7979000D03*
X12861000Y-12270000D03*
X11490000Y-11028570D03*
X15058000Y-13790000D03*
X11490000Y-14360000D03*
X11930000Y-14360000D03*
X17910000Y-13930525D03*
X12495000Y-14140000D03*
X13768000Y-13790000D03*
X11490000Y-7120000D03*
X17120000Y-5890000D03*
X17910000Y-14360000D03*
X13050000Y-12180000D03*
X16984000Y-11552250D03*
X17005000Y-6722250D03*
X12713000Y-12171000D03*
X15295000Y-13000000D03*
X16990000Y-10046000D03*
X17910000Y-8780000D03*
X16660000Y-14360000D03*
X11850000Y-9970000D03*
X13173000Y-13442000D03*
X11490000Y-12650000D03*
X15010000Y-9210000D03*
X11490000Y-9725714D03*
X15829000Y-12746000D03*
X13643750Y-6841250D03*
X16300000Y-12730000D03*
X14647000Y-11719000D03*
X12280000Y-13580000D03*
X14208000Y-11713000D03*
X12425000Y-8770000D03*
X12720000Y-13580000D03*
X12979000Y-13090000D03*
X16471000Y-9252000D03*
X14542000Y-13790000D03*
X15302000Y-12542000D03*
X16735000Y-12190000D03*
X13240000Y-14360000D03*
X13258000Y-6616000D03*
X16760000Y-7352250D03*
X14800000Y-13790000D03*
X11980000Y-12990000D03*
X12380000Y-6940000D03*
X15080000Y-5890000D03*
X12370000Y-13860000D03*
X16760000Y-5890000D03*
X11890000Y-5890000D03*
X13510000Y-13790000D03*
X12168000Y-13987550D03*
X17910000Y-6629474D03*
X11490000Y-13334000D03*
X17485000Y-13774000D03*
X17650000Y-7690000D03*
X13603000Y-8984000D03*
X13970806Y-12339194D03*
X17910000Y-8347368D03*
X17910000Y-10494736D03*
X13400000Y-13441400D03*
X12882000Y-5890000D03*
X13530000Y-11890000D03*
X17037000Y-7644000D03*
X11490000Y-10051428D03*
X15600000Y-5890000D03*
X11490000Y-6295000D03*
X13150000Y-13583000D03*
X13996000Y-13441400D03*
X11490000Y-7771428D03*
X17911000Y-13071578D03*
X14106955Y-13589000D03*
X16660000Y-7097250D03*
X14583000Y-9259000D03*
X13280000Y-12970000D03*
X15832000Y-13795000D03*
X11785000Y-12700000D03*
X14060000Y-5890000D03*
X13217000Y-13268000D03*
X14062000Y-7048000D03*
X17910000Y-13501051D03*
X12865000Y-13351000D03*
X11995000Y-13813000D03*
X17720000Y-7210000D03*
X17110000Y-13550000D03*
X12780000Y-14360000D03*
X14561000Y-9611000D03*
X14112000Y-9804000D03*
X11490000Y-12992000D03*
X16985000Y-9251000D03*
X13470000Y-11310000D03*
X12665000Y-10395000D03*
X15340000Y-5890000D03*
X17910000Y-11783157D03*
X16735000Y-11920000D03*
X17910000Y-12212630D03*
X16170000Y-14040000D03*
X15574000Y-13788000D03*
X11490000Y-8422857D03*
X14222000Y-13441400D03*
X17910000Y-9206315D03*
X13578000Y-5890000D03*
X17910000Y-7488421D03*
X14284000Y-13790000D03*
X11490000Y-11354285D03*
X13280000Y-12810000D03*
X17910000Y-7058947D03*
X13090000Y-14020000D03*
X16528000Y-5890000D03*
X11490000Y-11680000D03*
X14025000Y-12120000D03*
X14570000Y-5890000D03*
X12790000Y-13860000D03*
X16430000Y-6730000D03*
X12859000Y-12644000D03*
X11490000Y-9074285D03*
X17910000Y-9635789D03*
X11490000Y-5890000D03*
X15809000Y-12486000D03*
X14933000Y-12223000D03*
X13240000Y-13840000D03*
X11785000Y-13120000D03*
X17360000Y-14360000D03*
X16627000Y-8098000D03*
X13470000Y-10830000D03*
X11490000Y-10702856D03*
X17224000Y-13131000D03*
X14805000Y-13365000D03*
X12947000Y-11939000D03*
X17910000Y-10924210D03*
X17515000Y-5894750D03*
X15628000Y-8924000D03*
X11720000Y-13980000D03*
X12984000Y-13567000D03*
X17910000Y-11353683D03*
X14288000Y-9602000D03*
X13240000Y-14126000D03*
X11490000Y-8748571D03*
X12077000Y-12569000D03*
X13010000Y-14160000D03*
X16370000Y-7450000D03*
X15316000Y-13790000D03*
X11490000Y-12000000D03*
X12540000Y-14360000D03*
X17216000Y-12854000D03*
X13530000Y-13080000D03*
X15773000Y-12967000D03*
X11490000Y-7445714D03*
X13010000Y-14360000D03*
X11490000Y-9399999D03*
X15417000Y-13397000D03*
X11840000Y-13925000D03*
X12250250Y-13927750D03*
X14128000Y-12051000D03*
X13475000Y-12033500D03*
X16587131Y-13747131D03*
X17843000Y-13608000D03*
X17228234Y-13746414D03*
X15059000Y-7754000D03*
X17330000Y-7770000D03*
X14998500Y-13378500D03*
X16647000Y-12546000D03*
X17410000Y-7740000D03*
X13790000Y-11690000D03*
X15423000Y-13557000D03*
X17240000Y-7740000D03*
X12447000Y-13680000D03*
X12856500Y-13270500D03*
X13060000Y-13398996D03*
X12934000Y-13393000D03*
X17010000Y-14102000D03*
X12100000Y-11750000D03*
X12180000Y-11640000D03*
X13469750Y-9929000D03*
X12140000Y-6380000D03*
X12020000Y-11850000D03*
X12180000Y-11850000D03*
X12250000Y-6440000D03*
X12250000Y-6320000D03*
X13469750Y-9769000D03*
X13669750Y-9769000D03*
X14853000Y-9519000D03*
X12020000Y-11640000D03*
X11912500Y-12170000D03*
X12231000Y-12167500D03*
X12030000Y-6440000D03*
X13669750Y-9929000D03*
X12030000Y-6320000D03*
X14152000Y-9451500D03*
X15940000Y-13470000D03*
X15710000Y-11250000D03*
X16310000Y-14102000D03*
X16471000Y-10630000D03*
X17704375Y-13844375D03*
X13690000Y-11240000D03*
X13690000Y-11930000D03*
X12869999Y-12165467D03*
X13207468Y-13347430D03*
X12780000Y-12255000D03*
X12780000Y-13020000D03*
X13938000Y-6360000D03*
X14192000Y-6643000D03*
X14446000Y-6360000D03*
X14700000Y-6644000D03*
X14954000Y-6362000D03*
X15209000Y-6644000D03*
X15463000Y-6360000D03*
X14423000Y-9549000D03*
X15028050Y-10060000D03*
X15611000Y-6568000D03*
X15418300Y-10058000D03*
X14782000Y-9010000D03*
X14722944Y-9865444D03*
X13154000Y-9256000D03*
X16298750Y-13850000D03*
X15412000Y-13022735D03*
X17710000Y-14102000D03*
X14500000Y-12415000D03*
X15657500Y-7168500D03*
X16140000Y-12296000D03*
X15146000Y-12096000D03*
X15590000Y-8188000D03*
X15590000Y-8083000D03*
X15018427Y-12095891D03*
X14827000Y-12094000D03*
X15590000Y-7350000D03*
X15896500Y-8498500D03*
X14607000Y-11606000D03*
X14700000Y-12094000D03*
X15590000Y-7245000D03*
X14509000Y-11760000D03*
X15662000Y-8455000D03*
X12370000Y-10115000D03*
X12455000Y-10115000D03*
X13960000Y-12540000D03*
X14279000Y-12194000D03*
X14359000Y-12194000D03*
X13450000Y-13230000D03*
X13390050Y-13160000D03*
X12707000Y-12009000D03*
X15285000Y-9439000D03*
X12147000Y-12042500D03*
X16998750Y-13850000D03*
X15288300Y-9867000D03*
X15248300Y-10252000D03*
X15147000Y-10252000D03*
X15200775Y-9850512D03*
X11915000Y-8075000D03*
X15325000Y-10315000D03*
X15140000Y-9786000D03*
X12640000Y-12290000D03*
X12640000Y-12450000D03*
X12240000Y-12450000D03*
X12240000Y-12290000D03*
X12440000Y-12490000D03*
X14532000Y-13277430D03*
X14306000Y-13504000D03*
X13771750Y-7140250D03*
X13130000Y-7140000D03*
X12511812Y-7349812D03*
X13003250Y-6936000D03*
X13453750Y-6861000D03*
X14148000Y-9646000D03*
X13969000Y-9645050D03*
M02*
