%TF.GenerationSoftware,KiCad,Pcbnew,9.0.5*%
%TF.CreationDate,2026-02-12T11:30:42+01:00*%
%TF.ProjectId,ZumoComSystem,5a756d6f-436f-46d5-9379-7374656d2e6b,V3.0*%
%TF.SameCoordinates,Original*%
%TF.FileFunction,Drillmap*%
%TF.FilePolarity,Positive*%
%FSLAX45Y45*%
G04 Gerber Fmt 4.5, Leading zero omitted, Abs format (unit mm)*
G04 Created by KiCad (PCBNEW 9.0.5) date 2026-02-12 11:30:42*
%MOMM*%
%LPD*%
G01*
G04 APERTURE LIST*
%ADD10C,0.050000*%
%ADD11C,0.200000*%
%ADD12C,0.100000*%
%ADD13C,0.239000*%
%ADD14C,0.355000*%
G04 APERTURE END LIST*
D10*
X18000000Y-14370000D02*
X18000000Y-5800000D01*
X11480000Y-14450000D02*
X17920000Y-14450000D01*
X11400000Y-5800000D02*
X18000000Y-5800000D01*
X18000000Y-14370000D02*
G75*
G02*
X17920000Y-14450000I-80000J0D01*
G01*
X11400000Y-5800000D02*
X11400000Y-14370000D01*
X11480000Y-14450000D02*
G75*
G02*
X11400000Y-14370000I0J80000D01*
G01*
D11*
D12*
X14824000Y-10035000D02*
X14876000Y-10087000D01*
X14876000Y-10035000D02*
X14824000Y-10087000D01*
X14860000Y-10035000D02*
X14840000Y-10035000D01*
X14840000Y-10087000D02*
G75*
G02*
X14840000Y-10035000I0J26000D01*
G01*
X14840000Y-10087000D02*
X14860000Y-10087000D01*
X14860000Y-10087000D02*
G75*
G03*
X14860000Y-10035000I0J26000D01*
G01*
X15574000Y-10035000D02*
X15626000Y-10087000D01*
X15626000Y-10035000D02*
X15574000Y-10087000D01*
X12662500Y-14240000D02*
G75*
G02*
X12572500Y-14240000I-45000J0D01*
G01*
X12572500Y-14240000D02*
G75*
G02*
X12662500Y-14240000I45000J0D01*
G01*
X12962500Y-14240000D02*
G75*
G02*
X12872500Y-14240000I-45000J0D01*
G01*
X12872500Y-14240000D02*
G75*
G02*
X12962500Y-14240000I45000J0D01*
G01*
D13*
X11653000Y-13151500D02*
X11653000Y-13390500D01*
X11533500Y-13271000D02*
X11772500Y-13271000D01*
X17747000Y-5928500D02*
X17747000Y-6167500D01*
X17627500Y-6048000D02*
X17866500Y-6048000D01*
D14*
X11778513Y-7038513D02*
X11778513Y-6787487D01*
X11527487Y-6787487D01*
X11527487Y-7038513D01*
X11778513Y-7038513D01*
X13352513Y-12558513D02*
X13352513Y-12307487D01*
X13101487Y-12307487D01*
X13101487Y-12558513D01*
X13352513Y-12558513D01*
X16298513Y-7011513D02*
X16298513Y-6760487D01*
X16047487Y-6760487D01*
X16047487Y-7011513D01*
X16298513Y-7011513D01*
X17872513Y-12531513D02*
X17872513Y-12280487D01*
X17621487Y-12280487D01*
X17621487Y-12531513D01*
X17872513Y-12531513D01*
D11*
X11658277Y-14763984D02*
X11658277Y-14563984D01*
X11658277Y-14563984D02*
X11705896Y-14563984D01*
X11705896Y-14563984D02*
X11734467Y-14573508D01*
X11734467Y-14573508D02*
X11753515Y-14592555D01*
X11753515Y-14592555D02*
X11763039Y-14611603D01*
X11763039Y-14611603D02*
X11772562Y-14649698D01*
X11772562Y-14649698D02*
X11772562Y-14678269D01*
X11772562Y-14678269D02*
X11763039Y-14716365D01*
X11763039Y-14716365D02*
X11753515Y-14735412D01*
X11753515Y-14735412D02*
X11734467Y-14754460D01*
X11734467Y-14754460D02*
X11705896Y-14763984D01*
X11705896Y-14763984D02*
X11658277Y-14763984D01*
X11858277Y-14763984D02*
X11858277Y-14630650D01*
X11858277Y-14668746D02*
X11867801Y-14649698D01*
X11867801Y-14649698D02*
X11877324Y-14640174D01*
X11877324Y-14640174D02*
X11896372Y-14630650D01*
X11896372Y-14630650D02*
X11915420Y-14630650D01*
X11982086Y-14763984D02*
X11982086Y-14630650D01*
X11982086Y-14563984D02*
X11972562Y-14573508D01*
X11972562Y-14573508D02*
X11982086Y-14583031D01*
X11982086Y-14583031D02*
X11991610Y-14573508D01*
X11991610Y-14573508D02*
X11982086Y-14563984D01*
X11982086Y-14563984D02*
X11982086Y-14583031D01*
X12105896Y-14763984D02*
X12086848Y-14754460D01*
X12086848Y-14754460D02*
X12077324Y-14735412D01*
X12077324Y-14735412D02*
X12077324Y-14563984D01*
X12210658Y-14763984D02*
X12191610Y-14754460D01*
X12191610Y-14754460D02*
X12182086Y-14735412D01*
X12182086Y-14735412D02*
X12182086Y-14563984D01*
X12439229Y-14763984D02*
X12439229Y-14563984D01*
X12439229Y-14563984D02*
X12505896Y-14706841D01*
X12505896Y-14706841D02*
X12572562Y-14563984D01*
X12572562Y-14563984D02*
X12572562Y-14763984D01*
X12753515Y-14763984D02*
X12753515Y-14659222D01*
X12753515Y-14659222D02*
X12743991Y-14640174D01*
X12743991Y-14640174D02*
X12724943Y-14630650D01*
X12724943Y-14630650D02*
X12686848Y-14630650D01*
X12686848Y-14630650D02*
X12667801Y-14640174D01*
X12753515Y-14754460D02*
X12734467Y-14763984D01*
X12734467Y-14763984D02*
X12686848Y-14763984D01*
X12686848Y-14763984D02*
X12667801Y-14754460D01*
X12667801Y-14754460D02*
X12658277Y-14735412D01*
X12658277Y-14735412D02*
X12658277Y-14716365D01*
X12658277Y-14716365D02*
X12667801Y-14697317D01*
X12667801Y-14697317D02*
X12686848Y-14687793D01*
X12686848Y-14687793D02*
X12734467Y-14687793D01*
X12734467Y-14687793D02*
X12753515Y-14678269D01*
X12848753Y-14630650D02*
X12848753Y-14830650D01*
X12848753Y-14640174D02*
X12867801Y-14630650D01*
X12867801Y-14630650D02*
X12905896Y-14630650D01*
X12905896Y-14630650D02*
X12924943Y-14640174D01*
X12924943Y-14640174D02*
X12934467Y-14649698D01*
X12934467Y-14649698D02*
X12943991Y-14668746D01*
X12943991Y-14668746D02*
X12943991Y-14725888D01*
X12943991Y-14725888D02*
X12934467Y-14744936D01*
X12934467Y-14744936D02*
X12924943Y-14754460D01*
X12924943Y-14754460D02*
X12905896Y-14763984D01*
X12905896Y-14763984D02*
X12867801Y-14763984D01*
X12867801Y-14763984D02*
X12848753Y-14754460D01*
X13029705Y-14744936D02*
X13039229Y-14754460D01*
X13039229Y-14754460D02*
X13029705Y-14763984D01*
X13029705Y-14763984D02*
X13020182Y-14754460D01*
X13020182Y-14754460D02*
X13029705Y-14744936D01*
X13029705Y-14744936D02*
X13029705Y-14763984D01*
X13029705Y-14640174D02*
X13039229Y-14649698D01*
X13039229Y-14649698D02*
X13029705Y-14659222D01*
X13029705Y-14659222D02*
X13020182Y-14649698D01*
X13020182Y-14649698D02*
X13029705Y-14640174D01*
X13029705Y-14640174D02*
X13029705Y-14659222D01*
D12*
X11345500Y-15066500D02*
X11397500Y-15118500D01*
X11397500Y-15066500D02*
X11345500Y-15118500D01*
D11*
X11696372Y-14983984D02*
X11715420Y-14983984D01*
X11715420Y-14983984D02*
X11734467Y-14993508D01*
X11734467Y-14993508D02*
X11743991Y-15003031D01*
X11743991Y-15003031D02*
X11753515Y-15022079D01*
X11753515Y-15022079D02*
X11763039Y-15060174D01*
X11763039Y-15060174D02*
X11763039Y-15107793D01*
X11763039Y-15107793D02*
X11753515Y-15145888D01*
X11753515Y-15145888D02*
X11743991Y-15164936D01*
X11743991Y-15164936D02*
X11734467Y-15174460D01*
X11734467Y-15174460D02*
X11715420Y-15183984D01*
X11715420Y-15183984D02*
X11696372Y-15183984D01*
X11696372Y-15183984D02*
X11677324Y-15174460D01*
X11677324Y-15174460D02*
X11667801Y-15164936D01*
X11667801Y-15164936D02*
X11658277Y-15145888D01*
X11658277Y-15145888D02*
X11648753Y-15107793D01*
X11648753Y-15107793D02*
X11648753Y-15060174D01*
X11648753Y-15060174D02*
X11658277Y-15022079D01*
X11658277Y-15022079D02*
X11667801Y-15003031D01*
X11667801Y-15003031D02*
X11677324Y-14993508D01*
X11677324Y-14993508D02*
X11696372Y-14983984D01*
X11848753Y-15164936D02*
X11858277Y-15174460D01*
X11858277Y-15174460D02*
X11848753Y-15183984D01*
X11848753Y-15183984D02*
X11839229Y-15174460D01*
X11839229Y-15174460D02*
X11848753Y-15164936D01*
X11848753Y-15164936D02*
X11848753Y-15183984D01*
X12039229Y-14983984D02*
X11943991Y-14983984D01*
X11943991Y-14983984D02*
X11934467Y-15079222D01*
X11934467Y-15079222D02*
X11943991Y-15069698D01*
X11943991Y-15069698D02*
X11963039Y-15060174D01*
X11963039Y-15060174D02*
X12010658Y-15060174D01*
X12010658Y-15060174D02*
X12029705Y-15069698D01*
X12029705Y-15069698D02*
X12039229Y-15079222D01*
X12039229Y-15079222D02*
X12048753Y-15098269D01*
X12048753Y-15098269D02*
X12048753Y-15145888D01*
X12048753Y-15145888D02*
X12039229Y-15164936D01*
X12039229Y-15164936D02*
X12029705Y-15174460D01*
X12029705Y-15174460D02*
X12010658Y-15183984D01*
X12010658Y-15183984D02*
X11963039Y-15183984D01*
X11963039Y-15183984D02*
X11943991Y-15174460D01*
X11943991Y-15174460D02*
X11934467Y-15164936D01*
X12124943Y-15003031D02*
X12134467Y-14993508D01*
X12134467Y-14993508D02*
X12153515Y-14983984D01*
X12153515Y-14983984D02*
X12201134Y-14983984D01*
X12201134Y-14983984D02*
X12220182Y-14993508D01*
X12220182Y-14993508D02*
X12229705Y-15003031D01*
X12229705Y-15003031D02*
X12239229Y-15022079D01*
X12239229Y-15022079D02*
X12239229Y-15041127D01*
X12239229Y-15041127D02*
X12229705Y-15069698D01*
X12229705Y-15069698D02*
X12115420Y-15183984D01*
X12115420Y-15183984D02*
X12239229Y-15183984D01*
X12363039Y-14983984D02*
X12382086Y-14983984D01*
X12382086Y-14983984D02*
X12401134Y-14993508D01*
X12401134Y-14993508D02*
X12410658Y-15003031D01*
X12410658Y-15003031D02*
X12420182Y-15022079D01*
X12420182Y-15022079D02*
X12429705Y-15060174D01*
X12429705Y-15060174D02*
X12429705Y-15107793D01*
X12429705Y-15107793D02*
X12420182Y-15145888D01*
X12420182Y-15145888D02*
X12410658Y-15164936D01*
X12410658Y-15164936D02*
X12401134Y-15174460D01*
X12401134Y-15174460D02*
X12382086Y-15183984D01*
X12382086Y-15183984D02*
X12363039Y-15183984D01*
X12363039Y-15183984D02*
X12343991Y-15174460D01*
X12343991Y-15174460D02*
X12334467Y-15164936D01*
X12334467Y-15164936D02*
X12324943Y-15145888D01*
X12324943Y-15145888D02*
X12315420Y-15107793D01*
X12315420Y-15107793D02*
X12315420Y-15060174D01*
X12315420Y-15060174D02*
X12324943Y-15022079D01*
X12324943Y-15022079D02*
X12334467Y-15003031D01*
X12334467Y-15003031D02*
X12343991Y-14993508D01*
X12343991Y-14993508D02*
X12363039Y-14983984D01*
X12515420Y-15183984D02*
X12515420Y-15050650D01*
X12515420Y-15069698D02*
X12524943Y-15060174D01*
X12524943Y-15060174D02*
X12543991Y-15050650D01*
X12543991Y-15050650D02*
X12572563Y-15050650D01*
X12572563Y-15050650D02*
X12591610Y-15060174D01*
X12591610Y-15060174D02*
X12601134Y-15079222D01*
X12601134Y-15079222D02*
X12601134Y-15183984D01*
X12601134Y-15079222D02*
X12610658Y-15060174D01*
X12610658Y-15060174D02*
X12629705Y-15050650D01*
X12629705Y-15050650D02*
X12658277Y-15050650D01*
X12658277Y-15050650D02*
X12677324Y-15060174D01*
X12677324Y-15060174D02*
X12686848Y-15079222D01*
X12686848Y-15079222D02*
X12686848Y-15183984D01*
X12782086Y-15183984D02*
X12782086Y-15050650D01*
X12782086Y-15069698D02*
X12791610Y-15060174D01*
X12791610Y-15060174D02*
X12810658Y-15050650D01*
X12810658Y-15050650D02*
X12839229Y-15050650D01*
X12839229Y-15050650D02*
X12858277Y-15060174D01*
X12858277Y-15060174D02*
X12867801Y-15079222D01*
X12867801Y-15079222D02*
X12867801Y-15183984D01*
X12867801Y-15079222D02*
X12877324Y-15060174D01*
X12877324Y-15060174D02*
X12896372Y-15050650D01*
X12896372Y-15050650D02*
X12924943Y-15050650D01*
X12924943Y-15050650D02*
X12943991Y-15060174D01*
X12943991Y-15060174D02*
X12953515Y-15079222D01*
X12953515Y-15079222D02*
X12953515Y-15183984D01*
X13343991Y-14974460D02*
X13172563Y-15231603D01*
X13601134Y-14983984D02*
X13620182Y-14983984D01*
X13620182Y-14983984D02*
X13639229Y-14993508D01*
X13639229Y-14993508D02*
X13648753Y-15003031D01*
X13648753Y-15003031D02*
X13658277Y-15022079D01*
X13658277Y-15022079D02*
X13667801Y-15060174D01*
X13667801Y-15060174D02*
X13667801Y-15107793D01*
X13667801Y-15107793D02*
X13658277Y-15145888D01*
X13658277Y-15145888D02*
X13648753Y-15164936D01*
X13648753Y-15164936D02*
X13639229Y-15174460D01*
X13639229Y-15174460D02*
X13620182Y-15183984D01*
X13620182Y-15183984D02*
X13601134Y-15183984D01*
X13601134Y-15183984D02*
X13582086Y-15174460D01*
X13582086Y-15174460D02*
X13572563Y-15164936D01*
X13572563Y-15164936D02*
X13563039Y-15145888D01*
X13563039Y-15145888D02*
X13553515Y-15107793D01*
X13553515Y-15107793D02*
X13553515Y-15060174D01*
X13553515Y-15060174D02*
X13563039Y-15022079D01*
X13563039Y-15022079D02*
X13572563Y-15003031D01*
X13572563Y-15003031D02*
X13582086Y-14993508D01*
X13582086Y-14993508D02*
X13601134Y-14983984D01*
X13753515Y-15164936D02*
X13763039Y-15174460D01*
X13763039Y-15174460D02*
X13753515Y-15183984D01*
X13753515Y-15183984D02*
X13743991Y-15174460D01*
X13743991Y-15174460D02*
X13753515Y-15164936D01*
X13753515Y-15164936D02*
X13753515Y-15183984D01*
X13886848Y-14983984D02*
X13905896Y-14983984D01*
X13905896Y-14983984D02*
X13924944Y-14993508D01*
X13924944Y-14993508D02*
X13934467Y-15003031D01*
X13934467Y-15003031D02*
X13943991Y-15022079D01*
X13943991Y-15022079D02*
X13953515Y-15060174D01*
X13953515Y-15060174D02*
X13953515Y-15107793D01*
X13953515Y-15107793D02*
X13943991Y-15145888D01*
X13943991Y-15145888D02*
X13934467Y-15164936D01*
X13934467Y-15164936D02*
X13924944Y-15174460D01*
X13924944Y-15174460D02*
X13905896Y-15183984D01*
X13905896Y-15183984D02*
X13886848Y-15183984D01*
X13886848Y-15183984D02*
X13867801Y-15174460D01*
X13867801Y-15174460D02*
X13858277Y-15164936D01*
X13858277Y-15164936D02*
X13848753Y-15145888D01*
X13848753Y-15145888D02*
X13839229Y-15107793D01*
X13839229Y-15107793D02*
X13839229Y-15060174D01*
X13839229Y-15060174D02*
X13848753Y-15022079D01*
X13848753Y-15022079D02*
X13858277Y-15003031D01*
X13858277Y-15003031D02*
X13867801Y-14993508D01*
X13867801Y-14993508D02*
X13886848Y-14983984D01*
X14029706Y-15003031D02*
X14039229Y-14993508D01*
X14039229Y-14993508D02*
X14058277Y-14983984D01*
X14058277Y-14983984D02*
X14105896Y-14983984D01*
X14105896Y-14983984D02*
X14124944Y-14993508D01*
X14124944Y-14993508D02*
X14134467Y-15003031D01*
X14134467Y-15003031D02*
X14143991Y-15022079D01*
X14143991Y-15022079D02*
X14143991Y-15041127D01*
X14143991Y-15041127D02*
X14134467Y-15069698D01*
X14134467Y-15069698D02*
X14020182Y-15183984D01*
X14020182Y-15183984D02*
X14143991Y-15183984D01*
X14267801Y-14983984D02*
X14286848Y-14983984D01*
X14286848Y-14983984D02*
X14305896Y-14993508D01*
X14305896Y-14993508D02*
X14315420Y-15003031D01*
X14315420Y-15003031D02*
X14324944Y-15022079D01*
X14324944Y-15022079D02*
X14334467Y-15060174D01*
X14334467Y-15060174D02*
X14334467Y-15107793D01*
X14334467Y-15107793D02*
X14324944Y-15145888D01*
X14324944Y-15145888D02*
X14315420Y-15164936D01*
X14315420Y-15164936D02*
X14305896Y-15174460D01*
X14305896Y-15174460D02*
X14286848Y-15183984D01*
X14286848Y-15183984D02*
X14267801Y-15183984D01*
X14267801Y-15183984D02*
X14248753Y-15174460D01*
X14248753Y-15174460D02*
X14239229Y-15164936D01*
X14239229Y-15164936D02*
X14229706Y-15145888D01*
X14229706Y-15145888D02*
X14220182Y-15107793D01*
X14220182Y-15107793D02*
X14220182Y-15060174D01*
X14220182Y-15060174D02*
X14229706Y-15022079D01*
X14229706Y-15022079D02*
X14239229Y-15003031D01*
X14239229Y-15003031D02*
X14248753Y-14993508D01*
X14248753Y-14993508D02*
X14267801Y-14983984D01*
X14515420Y-14983984D02*
X14420182Y-14983984D01*
X14420182Y-14983984D02*
X14410658Y-15079222D01*
X14410658Y-15079222D02*
X14420182Y-15069698D01*
X14420182Y-15069698D02*
X14439229Y-15060174D01*
X14439229Y-15060174D02*
X14486848Y-15060174D01*
X14486848Y-15060174D02*
X14505896Y-15069698D01*
X14505896Y-15069698D02*
X14515420Y-15079222D01*
X14515420Y-15079222D02*
X14524944Y-15098269D01*
X14524944Y-15098269D02*
X14524944Y-15145888D01*
X14524944Y-15145888D02*
X14515420Y-15164936D01*
X14515420Y-15164936D02*
X14505896Y-15174460D01*
X14505896Y-15174460D02*
X14486848Y-15183984D01*
X14486848Y-15183984D02*
X14439229Y-15183984D01*
X14439229Y-15183984D02*
X14420182Y-15174460D01*
X14420182Y-15174460D02*
X14410658Y-15164936D01*
X14601134Y-14983984D02*
X14601134Y-15022079D01*
X14677325Y-14983984D02*
X14677325Y-15022079D01*
X14972563Y-15260174D02*
X14963039Y-15250650D01*
X14963039Y-15250650D02*
X14943991Y-15222079D01*
X14943991Y-15222079D02*
X14934468Y-15203031D01*
X14934468Y-15203031D02*
X14924944Y-15174460D01*
X14924944Y-15174460D02*
X14915420Y-15126841D01*
X14915420Y-15126841D02*
X14915420Y-15088746D01*
X14915420Y-15088746D02*
X14924944Y-15041127D01*
X14924944Y-15041127D02*
X14934468Y-15012555D01*
X14934468Y-15012555D02*
X14943991Y-14993508D01*
X14943991Y-14993508D02*
X14963039Y-14964936D01*
X14963039Y-14964936D02*
X14972563Y-14955412D01*
X15153515Y-15183984D02*
X15039229Y-15183984D01*
X15096372Y-15183984D02*
X15096372Y-14983984D01*
X15096372Y-14983984D02*
X15077325Y-15012555D01*
X15077325Y-15012555D02*
X15058277Y-15031603D01*
X15058277Y-15031603D02*
X15039229Y-15041127D01*
X15391610Y-15183984D02*
X15391610Y-14983984D01*
X15477325Y-15183984D02*
X15477325Y-15079222D01*
X15477325Y-15079222D02*
X15467801Y-15060174D01*
X15467801Y-15060174D02*
X15448753Y-15050650D01*
X15448753Y-15050650D02*
X15420182Y-15050650D01*
X15420182Y-15050650D02*
X15401134Y-15060174D01*
X15401134Y-15060174D02*
X15391610Y-15069698D01*
X15601134Y-15183984D02*
X15582087Y-15174460D01*
X15582087Y-15174460D02*
X15572563Y-15164936D01*
X15572563Y-15164936D02*
X15563039Y-15145888D01*
X15563039Y-15145888D02*
X15563039Y-15088746D01*
X15563039Y-15088746D02*
X15572563Y-15069698D01*
X15572563Y-15069698D02*
X15582087Y-15060174D01*
X15582087Y-15060174D02*
X15601134Y-15050650D01*
X15601134Y-15050650D02*
X15629706Y-15050650D01*
X15629706Y-15050650D02*
X15648753Y-15060174D01*
X15648753Y-15060174D02*
X15658277Y-15069698D01*
X15658277Y-15069698D02*
X15667801Y-15088746D01*
X15667801Y-15088746D02*
X15667801Y-15145888D01*
X15667801Y-15145888D02*
X15658277Y-15164936D01*
X15658277Y-15164936D02*
X15648753Y-15174460D01*
X15648753Y-15174460D02*
X15629706Y-15183984D01*
X15629706Y-15183984D02*
X15601134Y-15183984D01*
X15782087Y-15183984D02*
X15763039Y-15174460D01*
X15763039Y-15174460D02*
X15753515Y-15155412D01*
X15753515Y-15155412D02*
X15753515Y-14983984D01*
X15934468Y-15174460D02*
X15915420Y-15183984D01*
X15915420Y-15183984D02*
X15877325Y-15183984D01*
X15877325Y-15183984D02*
X15858277Y-15174460D01*
X15858277Y-15174460D02*
X15848753Y-15155412D01*
X15848753Y-15155412D02*
X15848753Y-15079222D01*
X15848753Y-15079222D02*
X15858277Y-15060174D01*
X15858277Y-15060174D02*
X15877325Y-15050650D01*
X15877325Y-15050650D02*
X15915420Y-15050650D01*
X15915420Y-15050650D02*
X15934468Y-15060174D01*
X15934468Y-15060174D02*
X15943991Y-15079222D01*
X15943991Y-15079222D02*
X15943991Y-15098269D01*
X15943991Y-15098269D02*
X15848753Y-15117317D01*
X16020182Y-15174460D02*
X16039230Y-15183984D01*
X16039230Y-15183984D02*
X16077325Y-15183984D01*
X16077325Y-15183984D02*
X16096372Y-15174460D01*
X16096372Y-15174460D02*
X16105896Y-15155412D01*
X16105896Y-15155412D02*
X16105896Y-15145888D01*
X16105896Y-15145888D02*
X16096372Y-15126841D01*
X16096372Y-15126841D02*
X16077325Y-15117317D01*
X16077325Y-15117317D02*
X16048753Y-15117317D01*
X16048753Y-15117317D02*
X16029706Y-15107793D01*
X16029706Y-15107793D02*
X16020182Y-15088746D01*
X16020182Y-15088746D02*
X16020182Y-15079222D01*
X16020182Y-15079222D02*
X16029706Y-15060174D01*
X16029706Y-15060174D02*
X16048753Y-15050650D01*
X16048753Y-15050650D02*
X16077325Y-15050650D01*
X16077325Y-15050650D02*
X16096372Y-15060174D01*
X16343992Y-15107793D02*
X16496373Y-15107793D01*
X16420182Y-15183984D02*
X16420182Y-15031603D01*
X16848754Y-15183984D02*
X16734468Y-15183984D01*
X16791611Y-15183984D02*
X16791611Y-14983984D01*
X16791611Y-14983984D02*
X16772563Y-15012555D01*
X16772563Y-15012555D02*
X16753515Y-15031603D01*
X16753515Y-15031603D02*
X16734468Y-15041127D01*
X17077325Y-15174460D02*
X17096373Y-15183984D01*
X17096373Y-15183984D02*
X17134468Y-15183984D01*
X17134468Y-15183984D02*
X17153516Y-15174460D01*
X17153516Y-15174460D02*
X17163039Y-15155412D01*
X17163039Y-15155412D02*
X17163039Y-15145888D01*
X17163039Y-15145888D02*
X17153516Y-15126841D01*
X17153516Y-15126841D02*
X17134468Y-15117317D01*
X17134468Y-15117317D02*
X17105896Y-15117317D01*
X17105896Y-15117317D02*
X17086849Y-15107793D01*
X17086849Y-15107793D02*
X17077325Y-15088746D01*
X17077325Y-15088746D02*
X17077325Y-15079222D01*
X17077325Y-15079222D02*
X17086849Y-15060174D01*
X17086849Y-15060174D02*
X17105896Y-15050650D01*
X17105896Y-15050650D02*
X17134468Y-15050650D01*
X17134468Y-15050650D02*
X17153516Y-15060174D01*
X17277325Y-15183984D02*
X17258277Y-15174460D01*
X17258277Y-15174460D02*
X17248754Y-15155412D01*
X17248754Y-15155412D02*
X17248754Y-14983984D01*
X17382087Y-15183984D02*
X17363039Y-15174460D01*
X17363039Y-15174460D02*
X17353516Y-15164936D01*
X17353516Y-15164936D02*
X17343992Y-15145888D01*
X17343992Y-15145888D02*
X17343992Y-15088746D01*
X17343992Y-15088746D02*
X17353516Y-15069698D01*
X17353516Y-15069698D02*
X17363039Y-15060174D01*
X17363039Y-15060174D02*
X17382087Y-15050650D01*
X17382087Y-15050650D02*
X17410658Y-15050650D01*
X17410658Y-15050650D02*
X17429706Y-15060174D01*
X17429706Y-15060174D02*
X17439230Y-15069698D01*
X17439230Y-15069698D02*
X17448754Y-15088746D01*
X17448754Y-15088746D02*
X17448754Y-15145888D01*
X17448754Y-15145888D02*
X17439230Y-15164936D01*
X17439230Y-15164936D02*
X17429706Y-15174460D01*
X17429706Y-15174460D02*
X17410658Y-15183984D01*
X17410658Y-15183984D02*
X17382087Y-15183984D01*
X17505897Y-15050650D02*
X17582087Y-15050650D01*
X17534468Y-14983984D02*
X17534468Y-15155412D01*
X17534468Y-15155412D02*
X17543992Y-15174460D01*
X17543992Y-15174460D02*
X17563039Y-15183984D01*
X17563039Y-15183984D02*
X17582087Y-15183984D01*
X17629706Y-15260174D02*
X17639230Y-15250650D01*
X17639230Y-15250650D02*
X17658277Y-15222079D01*
X17658277Y-15222079D02*
X17667801Y-15203031D01*
X17667801Y-15203031D02*
X17677325Y-15174460D01*
X17677325Y-15174460D02*
X17686849Y-15126841D01*
X17686849Y-15126841D02*
X17686849Y-15088746D01*
X17686849Y-15088746D02*
X17677325Y-15041127D01*
X17677325Y-15041127D02*
X17667801Y-15012555D01*
X17667801Y-15012555D02*
X17658277Y-14993508D01*
X17658277Y-14993508D02*
X17639230Y-14964936D01*
X17639230Y-14964936D02*
X17629706Y-14955412D01*
X17991611Y-15260174D02*
X17982087Y-15250650D01*
X17982087Y-15250650D02*
X17963039Y-15222079D01*
X17963039Y-15222079D02*
X17953516Y-15203031D01*
X17953516Y-15203031D02*
X17943992Y-15174460D01*
X17943992Y-15174460D02*
X17934468Y-15126841D01*
X17934468Y-15126841D02*
X17934468Y-15088746D01*
X17934468Y-15088746D02*
X17943992Y-15041127D01*
X17943992Y-15041127D02*
X17953516Y-15012555D01*
X17953516Y-15012555D02*
X17963039Y-14993508D01*
X17963039Y-14993508D02*
X17982087Y-14964936D01*
X17982087Y-14964936D02*
X17991611Y-14955412D01*
X18067801Y-15050650D02*
X18067801Y-15183984D01*
X18067801Y-15069698D02*
X18077325Y-15060174D01*
X18077325Y-15060174D02*
X18096373Y-15050650D01*
X18096373Y-15050650D02*
X18124944Y-15050650D01*
X18124944Y-15050650D02*
X18143992Y-15060174D01*
X18143992Y-15060174D02*
X18153516Y-15079222D01*
X18153516Y-15079222D02*
X18153516Y-15183984D01*
X18277325Y-15183984D02*
X18258277Y-15174460D01*
X18258277Y-15174460D02*
X18248754Y-15164936D01*
X18248754Y-15164936D02*
X18239230Y-15145888D01*
X18239230Y-15145888D02*
X18239230Y-15088746D01*
X18239230Y-15088746D02*
X18248754Y-15069698D01*
X18248754Y-15069698D02*
X18258277Y-15060174D01*
X18258277Y-15060174D02*
X18277325Y-15050650D01*
X18277325Y-15050650D02*
X18305897Y-15050650D01*
X18305897Y-15050650D02*
X18324944Y-15060174D01*
X18324944Y-15060174D02*
X18334468Y-15069698D01*
X18334468Y-15069698D02*
X18343992Y-15088746D01*
X18343992Y-15088746D02*
X18343992Y-15145888D01*
X18343992Y-15145888D02*
X18334468Y-15164936D01*
X18334468Y-15164936D02*
X18324944Y-15174460D01*
X18324944Y-15174460D02*
X18305897Y-15183984D01*
X18305897Y-15183984D02*
X18277325Y-15183984D01*
X18401135Y-15050650D02*
X18477325Y-15050650D01*
X18429706Y-14983984D02*
X18429706Y-15155412D01*
X18429706Y-15155412D02*
X18439230Y-15174460D01*
X18439230Y-15174460D02*
X18458277Y-15183984D01*
X18458277Y-15183984D02*
X18477325Y-15183984D01*
X18696373Y-15050650D02*
X18696373Y-15250650D01*
X18696373Y-15060174D02*
X18715420Y-15050650D01*
X18715420Y-15050650D02*
X18753516Y-15050650D01*
X18753516Y-15050650D02*
X18772563Y-15060174D01*
X18772563Y-15060174D02*
X18782087Y-15069698D01*
X18782087Y-15069698D02*
X18791611Y-15088746D01*
X18791611Y-15088746D02*
X18791611Y-15145888D01*
X18791611Y-15145888D02*
X18782087Y-15164936D01*
X18782087Y-15164936D02*
X18772563Y-15174460D01*
X18772563Y-15174460D02*
X18753516Y-15183984D01*
X18753516Y-15183984D02*
X18715420Y-15183984D01*
X18715420Y-15183984D02*
X18696373Y-15174460D01*
X18905897Y-15183984D02*
X18886849Y-15174460D01*
X18886849Y-15174460D02*
X18877325Y-15155412D01*
X18877325Y-15155412D02*
X18877325Y-14983984D01*
X19067801Y-15183984D02*
X19067801Y-15079222D01*
X19067801Y-15079222D02*
X19058278Y-15060174D01*
X19058278Y-15060174D02*
X19039230Y-15050650D01*
X19039230Y-15050650D02*
X19001135Y-15050650D01*
X19001135Y-15050650D02*
X18982087Y-15060174D01*
X19067801Y-15174460D02*
X19048754Y-15183984D01*
X19048754Y-15183984D02*
X19001135Y-15183984D01*
X19001135Y-15183984D02*
X18982087Y-15174460D01*
X18982087Y-15174460D02*
X18972563Y-15155412D01*
X18972563Y-15155412D02*
X18972563Y-15136365D01*
X18972563Y-15136365D02*
X18982087Y-15117317D01*
X18982087Y-15117317D02*
X19001135Y-15107793D01*
X19001135Y-15107793D02*
X19048754Y-15107793D01*
X19048754Y-15107793D02*
X19067801Y-15098269D01*
X19134468Y-15050650D02*
X19210658Y-15050650D01*
X19163039Y-14983984D02*
X19163039Y-15155412D01*
X19163039Y-15155412D02*
X19172563Y-15174460D01*
X19172563Y-15174460D02*
X19191611Y-15183984D01*
X19191611Y-15183984D02*
X19210658Y-15183984D01*
X19353516Y-15174460D02*
X19334468Y-15183984D01*
X19334468Y-15183984D02*
X19296373Y-15183984D01*
X19296373Y-15183984D02*
X19277325Y-15174460D01*
X19277325Y-15174460D02*
X19267801Y-15155412D01*
X19267801Y-15155412D02*
X19267801Y-15079222D01*
X19267801Y-15079222D02*
X19277325Y-15060174D01*
X19277325Y-15060174D02*
X19296373Y-15050650D01*
X19296373Y-15050650D02*
X19334468Y-15050650D01*
X19334468Y-15050650D02*
X19353516Y-15060174D01*
X19353516Y-15060174D02*
X19363039Y-15079222D01*
X19363039Y-15079222D02*
X19363039Y-15098269D01*
X19363039Y-15098269D02*
X19267801Y-15117317D01*
X19534468Y-15183984D02*
X19534468Y-14983984D01*
X19534468Y-15174460D02*
X19515420Y-15183984D01*
X19515420Y-15183984D02*
X19477325Y-15183984D01*
X19477325Y-15183984D02*
X19458278Y-15174460D01*
X19458278Y-15174460D02*
X19448754Y-15164936D01*
X19448754Y-15164936D02*
X19439230Y-15145888D01*
X19439230Y-15145888D02*
X19439230Y-15088746D01*
X19439230Y-15088746D02*
X19448754Y-15069698D01*
X19448754Y-15069698D02*
X19458278Y-15060174D01*
X19458278Y-15060174D02*
X19477325Y-15050650D01*
X19477325Y-15050650D02*
X19515420Y-15050650D01*
X19515420Y-15050650D02*
X19534468Y-15060174D01*
X19610659Y-15260174D02*
X19620182Y-15250650D01*
X19620182Y-15250650D02*
X19639230Y-15222079D01*
X19639230Y-15222079D02*
X19648754Y-15203031D01*
X19648754Y-15203031D02*
X19658278Y-15174460D01*
X19658278Y-15174460D02*
X19667801Y-15126841D01*
X19667801Y-15126841D02*
X19667801Y-15088746D01*
X19667801Y-15088746D02*
X19658278Y-15041127D01*
X19658278Y-15041127D02*
X19648754Y-15012555D01*
X19648754Y-15012555D02*
X19639230Y-14993508D01*
X19639230Y-14993508D02*
X19620182Y-14964936D01*
X19620182Y-14964936D02*
X19610659Y-14955412D01*
D12*
X11397500Y-15356500D02*
G75*
G02*
X11307500Y-15356500I-45000J0D01*
G01*
X11307500Y-15356500D02*
G75*
G02*
X11397500Y-15356500I45000J0D01*
G01*
D11*
X11696372Y-15247984D02*
X11715420Y-15247984D01*
X11715420Y-15247984D02*
X11734467Y-15257508D01*
X11734467Y-15257508D02*
X11743991Y-15267031D01*
X11743991Y-15267031D02*
X11753515Y-15286079D01*
X11753515Y-15286079D02*
X11763039Y-15324174D01*
X11763039Y-15324174D02*
X11763039Y-15371793D01*
X11763039Y-15371793D02*
X11753515Y-15409888D01*
X11753515Y-15409888D02*
X11743991Y-15428936D01*
X11743991Y-15428936D02*
X11734467Y-15438460D01*
X11734467Y-15438460D02*
X11715420Y-15447984D01*
X11715420Y-15447984D02*
X11696372Y-15447984D01*
X11696372Y-15447984D02*
X11677324Y-15438460D01*
X11677324Y-15438460D02*
X11667801Y-15428936D01*
X11667801Y-15428936D02*
X11658277Y-15409888D01*
X11658277Y-15409888D02*
X11648753Y-15371793D01*
X11648753Y-15371793D02*
X11648753Y-15324174D01*
X11648753Y-15324174D02*
X11658277Y-15286079D01*
X11658277Y-15286079D02*
X11667801Y-15267031D01*
X11667801Y-15267031D02*
X11677324Y-15257508D01*
X11677324Y-15257508D02*
X11696372Y-15247984D01*
X11848753Y-15428936D02*
X11858277Y-15438460D01*
X11858277Y-15438460D02*
X11848753Y-15447984D01*
X11848753Y-15447984D02*
X11839229Y-15438460D01*
X11839229Y-15438460D02*
X11848753Y-15428936D01*
X11848753Y-15428936D02*
X11848753Y-15447984D01*
X11953515Y-15447984D02*
X11991610Y-15447984D01*
X11991610Y-15447984D02*
X12010658Y-15438460D01*
X12010658Y-15438460D02*
X12020182Y-15428936D01*
X12020182Y-15428936D02*
X12039229Y-15400365D01*
X12039229Y-15400365D02*
X12048753Y-15362269D01*
X12048753Y-15362269D02*
X12048753Y-15286079D01*
X12048753Y-15286079D02*
X12039229Y-15267031D01*
X12039229Y-15267031D02*
X12029705Y-15257508D01*
X12029705Y-15257508D02*
X12010658Y-15247984D01*
X12010658Y-15247984D02*
X11972562Y-15247984D01*
X11972562Y-15247984D02*
X11953515Y-15257508D01*
X11953515Y-15257508D02*
X11943991Y-15267031D01*
X11943991Y-15267031D02*
X11934467Y-15286079D01*
X11934467Y-15286079D02*
X11934467Y-15333698D01*
X11934467Y-15333698D02*
X11943991Y-15352746D01*
X11943991Y-15352746D02*
X11953515Y-15362269D01*
X11953515Y-15362269D02*
X11972562Y-15371793D01*
X11972562Y-15371793D02*
X12010658Y-15371793D01*
X12010658Y-15371793D02*
X12029705Y-15362269D01*
X12029705Y-15362269D02*
X12039229Y-15352746D01*
X12039229Y-15352746D02*
X12048753Y-15333698D01*
X12172562Y-15247984D02*
X12191610Y-15247984D01*
X12191610Y-15247984D02*
X12210658Y-15257508D01*
X12210658Y-15257508D02*
X12220182Y-15267031D01*
X12220182Y-15267031D02*
X12229705Y-15286079D01*
X12229705Y-15286079D02*
X12239229Y-15324174D01*
X12239229Y-15324174D02*
X12239229Y-15371793D01*
X12239229Y-15371793D02*
X12229705Y-15409888D01*
X12229705Y-15409888D02*
X12220182Y-15428936D01*
X12220182Y-15428936D02*
X12210658Y-15438460D01*
X12210658Y-15438460D02*
X12191610Y-15447984D01*
X12191610Y-15447984D02*
X12172562Y-15447984D01*
X12172562Y-15447984D02*
X12153515Y-15438460D01*
X12153515Y-15438460D02*
X12143991Y-15428936D01*
X12143991Y-15428936D02*
X12134467Y-15409888D01*
X12134467Y-15409888D02*
X12124943Y-15371793D01*
X12124943Y-15371793D02*
X12124943Y-15324174D01*
X12124943Y-15324174D02*
X12134467Y-15286079D01*
X12134467Y-15286079D02*
X12143991Y-15267031D01*
X12143991Y-15267031D02*
X12153515Y-15257508D01*
X12153515Y-15257508D02*
X12172562Y-15247984D01*
X12363039Y-15247984D02*
X12382086Y-15247984D01*
X12382086Y-15247984D02*
X12401134Y-15257508D01*
X12401134Y-15257508D02*
X12410658Y-15267031D01*
X12410658Y-15267031D02*
X12420182Y-15286079D01*
X12420182Y-15286079D02*
X12429705Y-15324174D01*
X12429705Y-15324174D02*
X12429705Y-15371793D01*
X12429705Y-15371793D02*
X12420182Y-15409888D01*
X12420182Y-15409888D02*
X12410658Y-15428936D01*
X12410658Y-15428936D02*
X12401134Y-15438460D01*
X12401134Y-15438460D02*
X12382086Y-15447984D01*
X12382086Y-15447984D02*
X12363039Y-15447984D01*
X12363039Y-15447984D02*
X12343991Y-15438460D01*
X12343991Y-15438460D02*
X12334467Y-15428936D01*
X12334467Y-15428936D02*
X12324943Y-15409888D01*
X12324943Y-15409888D02*
X12315420Y-15371793D01*
X12315420Y-15371793D02*
X12315420Y-15324174D01*
X12315420Y-15324174D02*
X12324943Y-15286079D01*
X12324943Y-15286079D02*
X12334467Y-15267031D01*
X12334467Y-15267031D02*
X12343991Y-15257508D01*
X12343991Y-15257508D02*
X12363039Y-15247984D01*
X12515420Y-15447984D02*
X12515420Y-15314650D01*
X12515420Y-15333698D02*
X12524943Y-15324174D01*
X12524943Y-15324174D02*
X12543991Y-15314650D01*
X12543991Y-15314650D02*
X12572563Y-15314650D01*
X12572563Y-15314650D02*
X12591610Y-15324174D01*
X12591610Y-15324174D02*
X12601134Y-15343222D01*
X12601134Y-15343222D02*
X12601134Y-15447984D01*
X12601134Y-15343222D02*
X12610658Y-15324174D01*
X12610658Y-15324174D02*
X12629705Y-15314650D01*
X12629705Y-15314650D02*
X12658277Y-15314650D01*
X12658277Y-15314650D02*
X12677324Y-15324174D01*
X12677324Y-15324174D02*
X12686848Y-15343222D01*
X12686848Y-15343222D02*
X12686848Y-15447984D01*
X12782086Y-15447984D02*
X12782086Y-15314650D01*
X12782086Y-15333698D02*
X12791610Y-15324174D01*
X12791610Y-15324174D02*
X12810658Y-15314650D01*
X12810658Y-15314650D02*
X12839229Y-15314650D01*
X12839229Y-15314650D02*
X12858277Y-15324174D01*
X12858277Y-15324174D02*
X12867801Y-15343222D01*
X12867801Y-15343222D02*
X12867801Y-15447984D01*
X12867801Y-15343222D02*
X12877324Y-15324174D01*
X12877324Y-15324174D02*
X12896372Y-15314650D01*
X12896372Y-15314650D02*
X12924943Y-15314650D01*
X12924943Y-15314650D02*
X12943991Y-15324174D01*
X12943991Y-15324174D02*
X12953515Y-15343222D01*
X12953515Y-15343222D02*
X12953515Y-15447984D01*
X13343991Y-15238460D02*
X13172563Y-15495603D01*
X13601134Y-15247984D02*
X13620182Y-15247984D01*
X13620182Y-15247984D02*
X13639229Y-15257508D01*
X13639229Y-15257508D02*
X13648753Y-15267031D01*
X13648753Y-15267031D02*
X13658277Y-15286079D01*
X13658277Y-15286079D02*
X13667801Y-15324174D01*
X13667801Y-15324174D02*
X13667801Y-15371793D01*
X13667801Y-15371793D02*
X13658277Y-15409888D01*
X13658277Y-15409888D02*
X13648753Y-15428936D01*
X13648753Y-15428936D02*
X13639229Y-15438460D01*
X13639229Y-15438460D02*
X13620182Y-15447984D01*
X13620182Y-15447984D02*
X13601134Y-15447984D01*
X13601134Y-15447984D02*
X13582086Y-15438460D01*
X13582086Y-15438460D02*
X13572563Y-15428936D01*
X13572563Y-15428936D02*
X13563039Y-15409888D01*
X13563039Y-15409888D02*
X13553515Y-15371793D01*
X13553515Y-15371793D02*
X13553515Y-15324174D01*
X13553515Y-15324174D02*
X13563039Y-15286079D01*
X13563039Y-15286079D02*
X13572563Y-15267031D01*
X13572563Y-15267031D02*
X13582086Y-15257508D01*
X13582086Y-15257508D02*
X13601134Y-15247984D01*
X13753515Y-15428936D02*
X13763039Y-15438460D01*
X13763039Y-15438460D02*
X13753515Y-15447984D01*
X13753515Y-15447984D02*
X13743991Y-15438460D01*
X13743991Y-15438460D02*
X13753515Y-15428936D01*
X13753515Y-15428936D02*
X13753515Y-15447984D01*
X13886848Y-15247984D02*
X13905896Y-15247984D01*
X13905896Y-15247984D02*
X13924944Y-15257508D01*
X13924944Y-15257508D02*
X13934467Y-15267031D01*
X13934467Y-15267031D02*
X13943991Y-15286079D01*
X13943991Y-15286079D02*
X13953515Y-15324174D01*
X13953515Y-15324174D02*
X13953515Y-15371793D01*
X13953515Y-15371793D02*
X13943991Y-15409888D01*
X13943991Y-15409888D02*
X13934467Y-15428936D01*
X13934467Y-15428936D02*
X13924944Y-15438460D01*
X13924944Y-15438460D02*
X13905896Y-15447984D01*
X13905896Y-15447984D02*
X13886848Y-15447984D01*
X13886848Y-15447984D02*
X13867801Y-15438460D01*
X13867801Y-15438460D02*
X13858277Y-15428936D01*
X13858277Y-15428936D02*
X13848753Y-15409888D01*
X13848753Y-15409888D02*
X13839229Y-15371793D01*
X13839229Y-15371793D02*
X13839229Y-15324174D01*
X13839229Y-15324174D02*
X13848753Y-15286079D01*
X13848753Y-15286079D02*
X13858277Y-15267031D01*
X13858277Y-15267031D02*
X13867801Y-15257508D01*
X13867801Y-15257508D02*
X13886848Y-15247984D01*
X14020182Y-15247984D02*
X14143991Y-15247984D01*
X14143991Y-15247984D02*
X14077325Y-15324174D01*
X14077325Y-15324174D02*
X14105896Y-15324174D01*
X14105896Y-15324174D02*
X14124944Y-15333698D01*
X14124944Y-15333698D02*
X14134467Y-15343222D01*
X14134467Y-15343222D02*
X14143991Y-15362269D01*
X14143991Y-15362269D02*
X14143991Y-15409888D01*
X14143991Y-15409888D02*
X14134467Y-15428936D01*
X14134467Y-15428936D02*
X14124944Y-15438460D01*
X14124944Y-15438460D02*
X14105896Y-15447984D01*
X14105896Y-15447984D02*
X14048753Y-15447984D01*
X14048753Y-15447984D02*
X14029706Y-15438460D01*
X14029706Y-15438460D02*
X14020182Y-15428936D01*
X14324944Y-15247984D02*
X14229706Y-15247984D01*
X14229706Y-15247984D02*
X14220182Y-15343222D01*
X14220182Y-15343222D02*
X14229706Y-15333698D01*
X14229706Y-15333698D02*
X14248753Y-15324174D01*
X14248753Y-15324174D02*
X14296372Y-15324174D01*
X14296372Y-15324174D02*
X14315420Y-15333698D01*
X14315420Y-15333698D02*
X14324944Y-15343222D01*
X14324944Y-15343222D02*
X14334467Y-15362269D01*
X14334467Y-15362269D02*
X14334467Y-15409888D01*
X14334467Y-15409888D02*
X14324944Y-15428936D01*
X14324944Y-15428936D02*
X14315420Y-15438460D01*
X14315420Y-15438460D02*
X14296372Y-15447984D01*
X14296372Y-15447984D02*
X14248753Y-15447984D01*
X14248753Y-15447984D02*
X14229706Y-15438460D01*
X14229706Y-15438460D02*
X14220182Y-15428936D01*
X14505896Y-15314650D02*
X14505896Y-15447984D01*
X14458277Y-15238460D02*
X14410658Y-15381317D01*
X14410658Y-15381317D02*
X14534467Y-15381317D01*
X14601134Y-15247984D02*
X14601134Y-15286079D01*
X14677325Y-15247984D02*
X14677325Y-15286079D01*
X14972563Y-15524174D02*
X14963039Y-15514650D01*
X14963039Y-15514650D02*
X14943991Y-15486079D01*
X14943991Y-15486079D02*
X14934468Y-15467031D01*
X14934468Y-15467031D02*
X14924944Y-15438460D01*
X14924944Y-15438460D02*
X14915420Y-15390841D01*
X14915420Y-15390841D02*
X14915420Y-15352746D01*
X14915420Y-15352746D02*
X14924944Y-15305127D01*
X14924944Y-15305127D02*
X14934468Y-15276555D01*
X14934468Y-15276555D02*
X14943991Y-15257508D01*
X14943991Y-15257508D02*
X14963039Y-15228936D01*
X14963039Y-15228936D02*
X14972563Y-15219412D01*
X15039229Y-15267031D02*
X15048753Y-15257508D01*
X15048753Y-15257508D02*
X15067801Y-15247984D01*
X15067801Y-15247984D02*
X15115420Y-15247984D01*
X15115420Y-15247984D02*
X15134468Y-15257508D01*
X15134468Y-15257508D02*
X15143991Y-15267031D01*
X15143991Y-15267031D02*
X15153515Y-15286079D01*
X15153515Y-15286079D02*
X15153515Y-15305127D01*
X15153515Y-15305127D02*
X15143991Y-15333698D01*
X15143991Y-15333698D02*
X15029706Y-15447984D01*
X15029706Y-15447984D02*
X15153515Y-15447984D01*
X15391610Y-15447984D02*
X15391610Y-15247984D01*
X15477325Y-15447984D02*
X15477325Y-15343222D01*
X15477325Y-15343222D02*
X15467801Y-15324174D01*
X15467801Y-15324174D02*
X15448753Y-15314650D01*
X15448753Y-15314650D02*
X15420182Y-15314650D01*
X15420182Y-15314650D02*
X15401134Y-15324174D01*
X15401134Y-15324174D02*
X15391610Y-15333698D01*
X15601134Y-15447984D02*
X15582087Y-15438460D01*
X15582087Y-15438460D02*
X15572563Y-15428936D01*
X15572563Y-15428936D02*
X15563039Y-15409888D01*
X15563039Y-15409888D02*
X15563039Y-15352746D01*
X15563039Y-15352746D02*
X15572563Y-15333698D01*
X15572563Y-15333698D02*
X15582087Y-15324174D01*
X15582087Y-15324174D02*
X15601134Y-15314650D01*
X15601134Y-15314650D02*
X15629706Y-15314650D01*
X15629706Y-15314650D02*
X15648753Y-15324174D01*
X15648753Y-15324174D02*
X15658277Y-15333698D01*
X15658277Y-15333698D02*
X15667801Y-15352746D01*
X15667801Y-15352746D02*
X15667801Y-15409888D01*
X15667801Y-15409888D02*
X15658277Y-15428936D01*
X15658277Y-15428936D02*
X15648753Y-15438460D01*
X15648753Y-15438460D02*
X15629706Y-15447984D01*
X15629706Y-15447984D02*
X15601134Y-15447984D01*
X15782087Y-15447984D02*
X15763039Y-15438460D01*
X15763039Y-15438460D02*
X15753515Y-15419412D01*
X15753515Y-15419412D02*
X15753515Y-15247984D01*
X15934468Y-15438460D02*
X15915420Y-15447984D01*
X15915420Y-15447984D02*
X15877325Y-15447984D01*
X15877325Y-15447984D02*
X15858277Y-15438460D01*
X15858277Y-15438460D02*
X15848753Y-15419412D01*
X15848753Y-15419412D02*
X15848753Y-15343222D01*
X15848753Y-15343222D02*
X15858277Y-15324174D01*
X15858277Y-15324174D02*
X15877325Y-15314650D01*
X15877325Y-15314650D02*
X15915420Y-15314650D01*
X15915420Y-15314650D02*
X15934468Y-15324174D01*
X15934468Y-15324174D02*
X15943991Y-15343222D01*
X15943991Y-15343222D02*
X15943991Y-15362269D01*
X15943991Y-15362269D02*
X15848753Y-15381317D01*
X16020182Y-15438460D02*
X16039230Y-15447984D01*
X16039230Y-15447984D02*
X16077325Y-15447984D01*
X16077325Y-15447984D02*
X16096372Y-15438460D01*
X16096372Y-15438460D02*
X16105896Y-15419412D01*
X16105896Y-15419412D02*
X16105896Y-15409888D01*
X16105896Y-15409888D02*
X16096372Y-15390841D01*
X16096372Y-15390841D02*
X16077325Y-15381317D01*
X16077325Y-15381317D02*
X16048753Y-15381317D01*
X16048753Y-15381317D02*
X16029706Y-15371793D01*
X16029706Y-15371793D02*
X16020182Y-15352746D01*
X16020182Y-15352746D02*
X16020182Y-15343222D01*
X16020182Y-15343222D02*
X16029706Y-15324174D01*
X16029706Y-15324174D02*
X16048753Y-15314650D01*
X16048753Y-15314650D02*
X16077325Y-15314650D01*
X16077325Y-15314650D02*
X16096372Y-15324174D01*
X16172563Y-15524174D02*
X16182087Y-15514650D01*
X16182087Y-15514650D02*
X16201134Y-15486079D01*
X16201134Y-15486079D02*
X16210658Y-15467031D01*
X16210658Y-15467031D02*
X16220182Y-15438460D01*
X16220182Y-15438460D02*
X16229706Y-15390841D01*
X16229706Y-15390841D02*
X16229706Y-15352746D01*
X16229706Y-15352746D02*
X16220182Y-15305127D01*
X16220182Y-15305127D02*
X16210658Y-15276555D01*
X16210658Y-15276555D02*
X16201134Y-15257508D01*
X16201134Y-15257508D02*
X16182087Y-15228936D01*
X16182087Y-15228936D02*
X16172563Y-15219412D01*
X16534468Y-15524174D02*
X16524944Y-15514650D01*
X16524944Y-15514650D02*
X16505896Y-15486079D01*
X16505896Y-15486079D02*
X16496372Y-15467031D01*
X16496372Y-15467031D02*
X16486849Y-15438460D01*
X16486849Y-15438460D02*
X16477325Y-15390841D01*
X16477325Y-15390841D02*
X16477325Y-15352746D01*
X16477325Y-15352746D02*
X16486849Y-15305127D01*
X16486849Y-15305127D02*
X16496372Y-15276555D01*
X16496372Y-15276555D02*
X16505896Y-15257508D01*
X16505896Y-15257508D02*
X16524944Y-15228936D01*
X16524944Y-15228936D02*
X16534468Y-15219412D01*
X16610658Y-15314650D02*
X16610658Y-15447984D01*
X16610658Y-15333698D02*
X16620182Y-15324174D01*
X16620182Y-15324174D02*
X16639230Y-15314650D01*
X16639230Y-15314650D02*
X16667801Y-15314650D01*
X16667801Y-15314650D02*
X16686849Y-15324174D01*
X16686849Y-15324174D02*
X16696372Y-15343222D01*
X16696372Y-15343222D02*
X16696372Y-15447984D01*
X16820182Y-15447984D02*
X16801134Y-15438460D01*
X16801134Y-15438460D02*
X16791611Y-15428936D01*
X16791611Y-15428936D02*
X16782087Y-15409888D01*
X16782087Y-15409888D02*
X16782087Y-15352746D01*
X16782087Y-15352746D02*
X16791611Y-15333698D01*
X16791611Y-15333698D02*
X16801134Y-15324174D01*
X16801134Y-15324174D02*
X16820182Y-15314650D01*
X16820182Y-15314650D02*
X16848754Y-15314650D01*
X16848754Y-15314650D02*
X16867801Y-15324174D01*
X16867801Y-15324174D02*
X16877325Y-15333698D01*
X16877325Y-15333698D02*
X16886849Y-15352746D01*
X16886849Y-15352746D02*
X16886849Y-15409888D01*
X16886849Y-15409888D02*
X16877325Y-15428936D01*
X16877325Y-15428936D02*
X16867801Y-15438460D01*
X16867801Y-15438460D02*
X16848754Y-15447984D01*
X16848754Y-15447984D02*
X16820182Y-15447984D01*
X16943992Y-15314650D02*
X17020182Y-15314650D01*
X16972563Y-15247984D02*
X16972563Y-15419412D01*
X16972563Y-15419412D02*
X16982087Y-15438460D01*
X16982087Y-15438460D02*
X17001134Y-15447984D01*
X17001134Y-15447984D02*
X17020182Y-15447984D01*
X17239230Y-15314650D02*
X17239230Y-15514650D01*
X17239230Y-15324174D02*
X17258277Y-15314650D01*
X17258277Y-15314650D02*
X17296373Y-15314650D01*
X17296373Y-15314650D02*
X17315420Y-15324174D01*
X17315420Y-15324174D02*
X17324944Y-15333698D01*
X17324944Y-15333698D02*
X17334468Y-15352746D01*
X17334468Y-15352746D02*
X17334468Y-15409888D01*
X17334468Y-15409888D02*
X17324944Y-15428936D01*
X17324944Y-15428936D02*
X17315420Y-15438460D01*
X17315420Y-15438460D02*
X17296373Y-15447984D01*
X17296373Y-15447984D02*
X17258277Y-15447984D01*
X17258277Y-15447984D02*
X17239230Y-15438460D01*
X17448754Y-15447984D02*
X17429706Y-15438460D01*
X17429706Y-15438460D02*
X17420182Y-15419412D01*
X17420182Y-15419412D02*
X17420182Y-15247984D01*
X17610658Y-15447984D02*
X17610658Y-15343222D01*
X17610658Y-15343222D02*
X17601135Y-15324174D01*
X17601135Y-15324174D02*
X17582087Y-15314650D01*
X17582087Y-15314650D02*
X17543992Y-15314650D01*
X17543992Y-15314650D02*
X17524944Y-15324174D01*
X17610658Y-15438460D02*
X17591611Y-15447984D01*
X17591611Y-15447984D02*
X17543992Y-15447984D01*
X17543992Y-15447984D02*
X17524944Y-15438460D01*
X17524944Y-15438460D02*
X17515420Y-15419412D01*
X17515420Y-15419412D02*
X17515420Y-15400365D01*
X17515420Y-15400365D02*
X17524944Y-15381317D01*
X17524944Y-15381317D02*
X17543992Y-15371793D01*
X17543992Y-15371793D02*
X17591611Y-15371793D01*
X17591611Y-15371793D02*
X17610658Y-15362269D01*
X17677325Y-15314650D02*
X17753515Y-15314650D01*
X17705896Y-15247984D02*
X17705896Y-15419412D01*
X17705896Y-15419412D02*
X17715420Y-15438460D01*
X17715420Y-15438460D02*
X17734468Y-15447984D01*
X17734468Y-15447984D02*
X17753515Y-15447984D01*
X17896373Y-15438460D02*
X17877325Y-15447984D01*
X17877325Y-15447984D02*
X17839230Y-15447984D01*
X17839230Y-15447984D02*
X17820182Y-15438460D01*
X17820182Y-15438460D02*
X17810658Y-15419412D01*
X17810658Y-15419412D02*
X17810658Y-15343222D01*
X17810658Y-15343222D02*
X17820182Y-15324174D01*
X17820182Y-15324174D02*
X17839230Y-15314650D01*
X17839230Y-15314650D02*
X17877325Y-15314650D01*
X17877325Y-15314650D02*
X17896373Y-15324174D01*
X17896373Y-15324174D02*
X17905896Y-15343222D01*
X17905896Y-15343222D02*
X17905896Y-15362269D01*
X17905896Y-15362269D02*
X17810658Y-15381317D01*
X18077325Y-15447984D02*
X18077325Y-15247984D01*
X18077325Y-15438460D02*
X18058277Y-15447984D01*
X18058277Y-15447984D02*
X18020182Y-15447984D01*
X18020182Y-15447984D02*
X18001135Y-15438460D01*
X18001135Y-15438460D02*
X17991611Y-15428936D01*
X17991611Y-15428936D02*
X17982087Y-15409888D01*
X17982087Y-15409888D02*
X17982087Y-15352746D01*
X17982087Y-15352746D02*
X17991611Y-15333698D01*
X17991611Y-15333698D02*
X18001135Y-15324174D01*
X18001135Y-15324174D02*
X18020182Y-15314650D01*
X18020182Y-15314650D02*
X18058277Y-15314650D01*
X18058277Y-15314650D02*
X18077325Y-15324174D01*
X18153516Y-15524174D02*
X18163039Y-15514650D01*
X18163039Y-15514650D02*
X18182087Y-15486079D01*
X18182087Y-15486079D02*
X18191611Y-15467031D01*
X18191611Y-15467031D02*
X18201135Y-15438460D01*
X18201135Y-15438460D02*
X18210658Y-15390841D01*
X18210658Y-15390841D02*
X18210658Y-15352746D01*
X18210658Y-15352746D02*
X18201135Y-15305127D01*
X18201135Y-15305127D02*
X18191611Y-15276555D01*
X18191611Y-15276555D02*
X18182087Y-15257508D01*
X18182087Y-15257508D02*
X18163039Y-15228936D01*
X18163039Y-15228936D02*
X18153516Y-15219412D01*
X11297500Y-15520500D02*
X11297500Y-15720500D01*
X11197500Y-15620500D02*
X11397500Y-15620500D01*
X11648753Y-15531031D02*
X11658277Y-15521508D01*
X11658277Y-15521508D02*
X11677324Y-15511984D01*
X11677324Y-15511984D02*
X11724943Y-15511984D01*
X11724943Y-15511984D02*
X11743991Y-15521508D01*
X11743991Y-15521508D02*
X11753515Y-15531031D01*
X11753515Y-15531031D02*
X11763039Y-15550079D01*
X11763039Y-15550079D02*
X11763039Y-15569127D01*
X11763039Y-15569127D02*
X11753515Y-15597698D01*
X11753515Y-15597698D02*
X11639229Y-15711984D01*
X11639229Y-15711984D02*
X11763039Y-15711984D01*
X11848753Y-15692936D02*
X11858277Y-15702460D01*
X11858277Y-15702460D02*
X11848753Y-15711984D01*
X11848753Y-15711984D02*
X11839229Y-15702460D01*
X11839229Y-15702460D02*
X11848753Y-15692936D01*
X11848753Y-15692936D02*
X11848753Y-15711984D01*
X11924943Y-15511984D02*
X12048753Y-15511984D01*
X12048753Y-15511984D02*
X11982086Y-15588174D01*
X11982086Y-15588174D02*
X12010658Y-15588174D01*
X12010658Y-15588174D02*
X12029705Y-15597698D01*
X12029705Y-15597698D02*
X12039229Y-15607222D01*
X12039229Y-15607222D02*
X12048753Y-15626269D01*
X12048753Y-15626269D02*
X12048753Y-15673888D01*
X12048753Y-15673888D02*
X12039229Y-15692936D01*
X12039229Y-15692936D02*
X12029705Y-15702460D01*
X12029705Y-15702460D02*
X12010658Y-15711984D01*
X12010658Y-15711984D02*
X11953515Y-15711984D01*
X11953515Y-15711984D02*
X11934467Y-15702460D01*
X11934467Y-15702460D02*
X11924943Y-15692936D01*
X12143991Y-15711984D02*
X12182086Y-15711984D01*
X12182086Y-15711984D02*
X12201134Y-15702460D01*
X12201134Y-15702460D02*
X12210658Y-15692936D01*
X12210658Y-15692936D02*
X12229705Y-15664365D01*
X12229705Y-15664365D02*
X12239229Y-15626269D01*
X12239229Y-15626269D02*
X12239229Y-15550079D01*
X12239229Y-15550079D02*
X12229705Y-15531031D01*
X12229705Y-15531031D02*
X12220182Y-15521508D01*
X12220182Y-15521508D02*
X12201134Y-15511984D01*
X12201134Y-15511984D02*
X12163039Y-15511984D01*
X12163039Y-15511984D02*
X12143991Y-15521508D01*
X12143991Y-15521508D02*
X12134467Y-15531031D01*
X12134467Y-15531031D02*
X12124943Y-15550079D01*
X12124943Y-15550079D02*
X12124943Y-15597698D01*
X12124943Y-15597698D02*
X12134467Y-15616746D01*
X12134467Y-15616746D02*
X12143991Y-15626269D01*
X12143991Y-15626269D02*
X12163039Y-15635793D01*
X12163039Y-15635793D02*
X12201134Y-15635793D01*
X12201134Y-15635793D02*
X12220182Y-15626269D01*
X12220182Y-15626269D02*
X12229705Y-15616746D01*
X12229705Y-15616746D02*
X12239229Y-15597698D01*
X12363039Y-15511984D02*
X12382086Y-15511984D01*
X12382086Y-15511984D02*
X12401134Y-15521508D01*
X12401134Y-15521508D02*
X12410658Y-15531031D01*
X12410658Y-15531031D02*
X12420182Y-15550079D01*
X12420182Y-15550079D02*
X12429705Y-15588174D01*
X12429705Y-15588174D02*
X12429705Y-15635793D01*
X12429705Y-15635793D02*
X12420182Y-15673888D01*
X12420182Y-15673888D02*
X12410658Y-15692936D01*
X12410658Y-15692936D02*
X12401134Y-15702460D01*
X12401134Y-15702460D02*
X12382086Y-15711984D01*
X12382086Y-15711984D02*
X12363039Y-15711984D01*
X12363039Y-15711984D02*
X12343991Y-15702460D01*
X12343991Y-15702460D02*
X12334467Y-15692936D01*
X12334467Y-15692936D02*
X12324943Y-15673888D01*
X12324943Y-15673888D02*
X12315420Y-15635793D01*
X12315420Y-15635793D02*
X12315420Y-15588174D01*
X12315420Y-15588174D02*
X12324943Y-15550079D01*
X12324943Y-15550079D02*
X12334467Y-15531031D01*
X12334467Y-15531031D02*
X12343991Y-15521508D01*
X12343991Y-15521508D02*
X12363039Y-15511984D01*
X12515420Y-15711984D02*
X12515420Y-15578650D01*
X12515420Y-15597698D02*
X12524943Y-15588174D01*
X12524943Y-15588174D02*
X12543991Y-15578650D01*
X12543991Y-15578650D02*
X12572563Y-15578650D01*
X12572563Y-15578650D02*
X12591610Y-15588174D01*
X12591610Y-15588174D02*
X12601134Y-15607222D01*
X12601134Y-15607222D02*
X12601134Y-15711984D01*
X12601134Y-15607222D02*
X12610658Y-15588174D01*
X12610658Y-15588174D02*
X12629705Y-15578650D01*
X12629705Y-15578650D02*
X12658277Y-15578650D01*
X12658277Y-15578650D02*
X12677324Y-15588174D01*
X12677324Y-15588174D02*
X12686848Y-15607222D01*
X12686848Y-15607222D02*
X12686848Y-15711984D01*
X12782086Y-15711984D02*
X12782086Y-15578650D01*
X12782086Y-15597698D02*
X12791610Y-15588174D01*
X12791610Y-15588174D02*
X12810658Y-15578650D01*
X12810658Y-15578650D02*
X12839229Y-15578650D01*
X12839229Y-15578650D02*
X12858277Y-15588174D01*
X12858277Y-15588174D02*
X12867801Y-15607222D01*
X12867801Y-15607222D02*
X12867801Y-15711984D01*
X12867801Y-15607222D02*
X12877324Y-15588174D01*
X12877324Y-15588174D02*
X12896372Y-15578650D01*
X12896372Y-15578650D02*
X12924943Y-15578650D01*
X12924943Y-15578650D02*
X12943991Y-15588174D01*
X12943991Y-15588174D02*
X12953515Y-15607222D01*
X12953515Y-15607222D02*
X12953515Y-15711984D01*
X13343991Y-15502460D02*
X13172563Y-15759603D01*
X13601134Y-15511984D02*
X13620182Y-15511984D01*
X13620182Y-15511984D02*
X13639229Y-15521508D01*
X13639229Y-15521508D02*
X13648753Y-15531031D01*
X13648753Y-15531031D02*
X13658277Y-15550079D01*
X13658277Y-15550079D02*
X13667801Y-15588174D01*
X13667801Y-15588174D02*
X13667801Y-15635793D01*
X13667801Y-15635793D02*
X13658277Y-15673888D01*
X13658277Y-15673888D02*
X13648753Y-15692936D01*
X13648753Y-15692936D02*
X13639229Y-15702460D01*
X13639229Y-15702460D02*
X13620182Y-15711984D01*
X13620182Y-15711984D02*
X13601134Y-15711984D01*
X13601134Y-15711984D02*
X13582086Y-15702460D01*
X13582086Y-15702460D02*
X13572563Y-15692936D01*
X13572563Y-15692936D02*
X13563039Y-15673888D01*
X13563039Y-15673888D02*
X13553515Y-15635793D01*
X13553515Y-15635793D02*
X13553515Y-15588174D01*
X13553515Y-15588174D02*
X13563039Y-15550079D01*
X13563039Y-15550079D02*
X13572563Y-15531031D01*
X13572563Y-15531031D02*
X13582086Y-15521508D01*
X13582086Y-15521508D02*
X13601134Y-15511984D01*
X13753515Y-15692936D02*
X13763039Y-15702460D01*
X13763039Y-15702460D02*
X13753515Y-15711984D01*
X13753515Y-15711984D02*
X13743991Y-15702460D01*
X13743991Y-15702460D02*
X13753515Y-15692936D01*
X13753515Y-15692936D02*
X13753515Y-15711984D01*
X13886848Y-15511984D02*
X13905896Y-15511984D01*
X13905896Y-15511984D02*
X13924944Y-15521508D01*
X13924944Y-15521508D02*
X13934467Y-15531031D01*
X13934467Y-15531031D02*
X13943991Y-15550079D01*
X13943991Y-15550079D02*
X13953515Y-15588174D01*
X13953515Y-15588174D02*
X13953515Y-15635793D01*
X13953515Y-15635793D02*
X13943991Y-15673888D01*
X13943991Y-15673888D02*
X13934467Y-15692936D01*
X13934467Y-15692936D02*
X13924944Y-15702460D01*
X13924944Y-15702460D02*
X13905896Y-15711984D01*
X13905896Y-15711984D02*
X13886848Y-15711984D01*
X13886848Y-15711984D02*
X13867801Y-15702460D01*
X13867801Y-15702460D02*
X13858277Y-15692936D01*
X13858277Y-15692936D02*
X13848753Y-15673888D01*
X13848753Y-15673888D02*
X13839229Y-15635793D01*
X13839229Y-15635793D02*
X13839229Y-15588174D01*
X13839229Y-15588174D02*
X13848753Y-15550079D01*
X13848753Y-15550079D02*
X13858277Y-15531031D01*
X13858277Y-15531031D02*
X13867801Y-15521508D01*
X13867801Y-15521508D02*
X13886848Y-15511984D01*
X14048753Y-15711984D02*
X14086848Y-15711984D01*
X14086848Y-15711984D02*
X14105896Y-15702460D01*
X14105896Y-15702460D02*
X14115420Y-15692936D01*
X14115420Y-15692936D02*
X14134467Y-15664365D01*
X14134467Y-15664365D02*
X14143991Y-15626269D01*
X14143991Y-15626269D02*
X14143991Y-15550079D01*
X14143991Y-15550079D02*
X14134467Y-15531031D01*
X14134467Y-15531031D02*
X14124944Y-15521508D01*
X14124944Y-15521508D02*
X14105896Y-15511984D01*
X14105896Y-15511984D02*
X14067801Y-15511984D01*
X14067801Y-15511984D02*
X14048753Y-15521508D01*
X14048753Y-15521508D02*
X14039229Y-15531031D01*
X14039229Y-15531031D02*
X14029706Y-15550079D01*
X14029706Y-15550079D02*
X14029706Y-15597698D01*
X14029706Y-15597698D02*
X14039229Y-15616746D01*
X14039229Y-15616746D02*
X14048753Y-15626269D01*
X14048753Y-15626269D02*
X14067801Y-15635793D01*
X14067801Y-15635793D02*
X14105896Y-15635793D01*
X14105896Y-15635793D02*
X14124944Y-15626269D01*
X14124944Y-15626269D02*
X14134467Y-15616746D01*
X14134467Y-15616746D02*
X14143991Y-15597698D01*
X14315420Y-15578650D02*
X14315420Y-15711984D01*
X14267801Y-15502460D02*
X14220182Y-15645317D01*
X14220182Y-15645317D02*
X14343991Y-15645317D01*
X14524944Y-15711984D02*
X14410658Y-15711984D01*
X14467801Y-15711984D02*
X14467801Y-15511984D01*
X14467801Y-15511984D02*
X14448753Y-15540555D01*
X14448753Y-15540555D02*
X14429706Y-15559603D01*
X14429706Y-15559603D02*
X14410658Y-15569127D01*
X14601134Y-15511984D02*
X14601134Y-15550079D01*
X14677325Y-15511984D02*
X14677325Y-15550079D01*
X14972563Y-15788174D02*
X14963039Y-15778650D01*
X14963039Y-15778650D02*
X14943991Y-15750079D01*
X14943991Y-15750079D02*
X14934468Y-15731031D01*
X14934468Y-15731031D02*
X14924944Y-15702460D01*
X14924944Y-15702460D02*
X14915420Y-15654841D01*
X14915420Y-15654841D02*
X14915420Y-15616746D01*
X14915420Y-15616746D02*
X14924944Y-15569127D01*
X14924944Y-15569127D02*
X14934468Y-15540555D01*
X14934468Y-15540555D02*
X14943991Y-15521508D01*
X14943991Y-15521508D02*
X14963039Y-15492936D01*
X14963039Y-15492936D02*
X14972563Y-15483412D01*
X15039229Y-15531031D02*
X15048753Y-15521508D01*
X15048753Y-15521508D02*
X15067801Y-15511984D01*
X15067801Y-15511984D02*
X15115420Y-15511984D01*
X15115420Y-15511984D02*
X15134468Y-15521508D01*
X15134468Y-15521508D02*
X15143991Y-15531031D01*
X15143991Y-15531031D02*
X15153515Y-15550079D01*
X15153515Y-15550079D02*
X15153515Y-15569127D01*
X15153515Y-15569127D02*
X15143991Y-15597698D01*
X15143991Y-15597698D02*
X15029706Y-15711984D01*
X15029706Y-15711984D02*
X15153515Y-15711984D01*
X15391610Y-15711984D02*
X15391610Y-15511984D01*
X15477325Y-15711984D02*
X15477325Y-15607222D01*
X15477325Y-15607222D02*
X15467801Y-15588174D01*
X15467801Y-15588174D02*
X15448753Y-15578650D01*
X15448753Y-15578650D02*
X15420182Y-15578650D01*
X15420182Y-15578650D02*
X15401134Y-15588174D01*
X15401134Y-15588174D02*
X15391610Y-15597698D01*
X15601134Y-15711984D02*
X15582087Y-15702460D01*
X15582087Y-15702460D02*
X15572563Y-15692936D01*
X15572563Y-15692936D02*
X15563039Y-15673888D01*
X15563039Y-15673888D02*
X15563039Y-15616746D01*
X15563039Y-15616746D02*
X15572563Y-15597698D01*
X15572563Y-15597698D02*
X15582087Y-15588174D01*
X15582087Y-15588174D02*
X15601134Y-15578650D01*
X15601134Y-15578650D02*
X15629706Y-15578650D01*
X15629706Y-15578650D02*
X15648753Y-15588174D01*
X15648753Y-15588174D02*
X15658277Y-15597698D01*
X15658277Y-15597698D02*
X15667801Y-15616746D01*
X15667801Y-15616746D02*
X15667801Y-15673888D01*
X15667801Y-15673888D02*
X15658277Y-15692936D01*
X15658277Y-15692936D02*
X15648753Y-15702460D01*
X15648753Y-15702460D02*
X15629706Y-15711984D01*
X15629706Y-15711984D02*
X15601134Y-15711984D01*
X15782087Y-15711984D02*
X15763039Y-15702460D01*
X15763039Y-15702460D02*
X15753515Y-15683412D01*
X15753515Y-15683412D02*
X15753515Y-15511984D01*
X15934468Y-15702460D02*
X15915420Y-15711984D01*
X15915420Y-15711984D02*
X15877325Y-15711984D01*
X15877325Y-15711984D02*
X15858277Y-15702460D01*
X15858277Y-15702460D02*
X15848753Y-15683412D01*
X15848753Y-15683412D02*
X15848753Y-15607222D01*
X15848753Y-15607222D02*
X15858277Y-15588174D01*
X15858277Y-15588174D02*
X15877325Y-15578650D01*
X15877325Y-15578650D02*
X15915420Y-15578650D01*
X15915420Y-15578650D02*
X15934468Y-15588174D01*
X15934468Y-15588174D02*
X15943991Y-15607222D01*
X15943991Y-15607222D02*
X15943991Y-15626269D01*
X15943991Y-15626269D02*
X15848753Y-15645317D01*
X16020182Y-15702460D02*
X16039230Y-15711984D01*
X16039230Y-15711984D02*
X16077325Y-15711984D01*
X16077325Y-15711984D02*
X16096372Y-15702460D01*
X16096372Y-15702460D02*
X16105896Y-15683412D01*
X16105896Y-15683412D02*
X16105896Y-15673888D01*
X16105896Y-15673888D02*
X16096372Y-15654841D01*
X16096372Y-15654841D02*
X16077325Y-15645317D01*
X16077325Y-15645317D02*
X16048753Y-15645317D01*
X16048753Y-15645317D02*
X16029706Y-15635793D01*
X16029706Y-15635793D02*
X16020182Y-15616746D01*
X16020182Y-15616746D02*
X16020182Y-15607222D01*
X16020182Y-15607222D02*
X16029706Y-15588174D01*
X16029706Y-15588174D02*
X16048753Y-15578650D01*
X16048753Y-15578650D02*
X16077325Y-15578650D01*
X16077325Y-15578650D02*
X16096372Y-15588174D01*
X16172563Y-15788174D02*
X16182087Y-15778650D01*
X16182087Y-15778650D02*
X16201134Y-15750079D01*
X16201134Y-15750079D02*
X16210658Y-15731031D01*
X16210658Y-15731031D02*
X16220182Y-15702460D01*
X16220182Y-15702460D02*
X16229706Y-15654841D01*
X16229706Y-15654841D02*
X16229706Y-15616746D01*
X16229706Y-15616746D02*
X16220182Y-15569127D01*
X16220182Y-15569127D02*
X16210658Y-15540555D01*
X16210658Y-15540555D02*
X16201134Y-15521508D01*
X16201134Y-15521508D02*
X16182087Y-15492936D01*
X16182087Y-15492936D02*
X16172563Y-15483412D01*
X16534468Y-15788174D02*
X16524944Y-15778650D01*
X16524944Y-15778650D02*
X16505896Y-15750079D01*
X16505896Y-15750079D02*
X16496372Y-15731031D01*
X16496372Y-15731031D02*
X16486849Y-15702460D01*
X16486849Y-15702460D02*
X16477325Y-15654841D01*
X16477325Y-15654841D02*
X16477325Y-15616746D01*
X16477325Y-15616746D02*
X16486849Y-15569127D01*
X16486849Y-15569127D02*
X16496372Y-15540555D01*
X16496372Y-15540555D02*
X16505896Y-15521508D01*
X16505896Y-15521508D02*
X16524944Y-15492936D01*
X16524944Y-15492936D02*
X16534468Y-15483412D01*
X16610658Y-15578650D02*
X16610658Y-15711984D01*
X16610658Y-15597698D02*
X16620182Y-15588174D01*
X16620182Y-15588174D02*
X16639230Y-15578650D01*
X16639230Y-15578650D02*
X16667801Y-15578650D01*
X16667801Y-15578650D02*
X16686849Y-15588174D01*
X16686849Y-15588174D02*
X16696372Y-15607222D01*
X16696372Y-15607222D02*
X16696372Y-15711984D01*
X16820182Y-15711984D02*
X16801134Y-15702460D01*
X16801134Y-15702460D02*
X16791611Y-15692936D01*
X16791611Y-15692936D02*
X16782087Y-15673888D01*
X16782087Y-15673888D02*
X16782087Y-15616746D01*
X16782087Y-15616746D02*
X16791611Y-15597698D01*
X16791611Y-15597698D02*
X16801134Y-15588174D01*
X16801134Y-15588174D02*
X16820182Y-15578650D01*
X16820182Y-15578650D02*
X16848754Y-15578650D01*
X16848754Y-15578650D02*
X16867801Y-15588174D01*
X16867801Y-15588174D02*
X16877325Y-15597698D01*
X16877325Y-15597698D02*
X16886849Y-15616746D01*
X16886849Y-15616746D02*
X16886849Y-15673888D01*
X16886849Y-15673888D02*
X16877325Y-15692936D01*
X16877325Y-15692936D02*
X16867801Y-15702460D01*
X16867801Y-15702460D02*
X16848754Y-15711984D01*
X16848754Y-15711984D02*
X16820182Y-15711984D01*
X16943992Y-15578650D02*
X17020182Y-15578650D01*
X16972563Y-15511984D02*
X16972563Y-15683412D01*
X16972563Y-15683412D02*
X16982087Y-15702460D01*
X16982087Y-15702460D02*
X17001134Y-15711984D01*
X17001134Y-15711984D02*
X17020182Y-15711984D01*
X17239230Y-15578650D02*
X17239230Y-15778650D01*
X17239230Y-15588174D02*
X17258277Y-15578650D01*
X17258277Y-15578650D02*
X17296373Y-15578650D01*
X17296373Y-15578650D02*
X17315420Y-15588174D01*
X17315420Y-15588174D02*
X17324944Y-15597698D01*
X17324944Y-15597698D02*
X17334468Y-15616746D01*
X17334468Y-15616746D02*
X17334468Y-15673888D01*
X17334468Y-15673888D02*
X17324944Y-15692936D01*
X17324944Y-15692936D02*
X17315420Y-15702460D01*
X17315420Y-15702460D02*
X17296373Y-15711984D01*
X17296373Y-15711984D02*
X17258277Y-15711984D01*
X17258277Y-15711984D02*
X17239230Y-15702460D01*
X17448754Y-15711984D02*
X17429706Y-15702460D01*
X17429706Y-15702460D02*
X17420182Y-15683412D01*
X17420182Y-15683412D02*
X17420182Y-15511984D01*
X17610658Y-15711984D02*
X17610658Y-15607222D01*
X17610658Y-15607222D02*
X17601135Y-15588174D01*
X17601135Y-15588174D02*
X17582087Y-15578650D01*
X17582087Y-15578650D02*
X17543992Y-15578650D01*
X17543992Y-15578650D02*
X17524944Y-15588174D01*
X17610658Y-15702460D02*
X17591611Y-15711984D01*
X17591611Y-15711984D02*
X17543992Y-15711984D01*
X17543992Y-15711984D02*
X17524944Y-15702460D01*
X17524944Y-15702460D02*
X17515420Y-15683412D01*
X17515420Y-15683412D02*
X17515420Y-15664365D01*
X17515420Y-15664365D02*
X17524944Y-15645317D01*
X17524944Y-15645317D02*
X17543992Y-15635793D01*
X17543992Y-15635793D02*
X17591611Y-15635793D01*
X17591611Y-15635793D02*
X17610658Y-15626269D01*
X17677325Y-15578650D02*
X17753515Y-15578650D01*
X17705896Y-15511984D02*
X17705896Y-15683412D01*
X17705896Y-15683412D02*
X17715420Y-15702460D01*
X17715420Y-15702460D02*
X17734468Y-15711984D01*
X17734468Y-15711984D02*
X17753515Y-15711984D01*
X17896373Y-15702460D02*
X17877325Y-15711984D01*
X17877325Y-15711984D02*
X17839230Y-15711984D01*
X17839230Y-15711984D02*
X17820182Y-15702460D01*
X17820182Y-15702460D02*
X17810658Y-15683412D01*
X17810658Y-15683412D02*
X17810658Y-15607222D01*
X17810658Y-15607222D02*
X17820182Y-15588174D01*
X17820182Y-15588174D02*
X17839230Y-15578650D01*
X17839230Y-15578650D02*
X17877325Y-15578650D01*
X17877325Y-15578650D02*
X17896373Y-15588174D01*
X17896373Y-15588174D02*
X17905896Y-15607222D01*
X17905896Y-15607222D02*
X17905896Y-15626269D01*
X17905896Y-15626269D02*
X17810658Y-15645317D01*
X18077325Y-15711984D02*
X18077325Y-15511984D01*
X18077325Y-15702460D02*
X18058277Y-15711984D01*
X18058277Y-15711984D02*
X18020182Y-15711984D01*
X18020182Y-15711984D02*
X18001135Y-15702460D01*
X18001135Y-15702460D02*
X17991611Y-15692936D01*
X17991611Y-15692936D02*
X17982087Y-15673888D01*
X17982087Y-15673888D02*
X17982087Y-15616746D01*
X17982087Y-15616746D02*
X17991611Y-15597698D01*
X17991611Y-15597698D02*
X18001135Y-15588174D01*
X18001135Y-15588174D02*
X18020182Y-15578650D01*
X18020182Y-15578650D02*
X18058277Y-15578650D01*
X18058277Y-15578650D02*
X18077325Y-15588174D01*
X18153516Y-15788174D02*
X18163039Y-15778650D01*
X18163039Y-15778650D02*
X18182087Y-15750079D01*
X18182087Y-15750079D02*
X18191611Y-15731031D01*
X18191611Y-15731031D02*
X18201135Y-15702460D01*
X18201135Y-15702460D02*
X18210658Y-15654841D01*
X18210658Y-15654841D02*
X18210658Y-15616746D01*
X18210658Y-15616746D02*
X18201135Y-15569127D01*
X18201135Y-15569127D02*
X18191611Y-15540555D01*
X18191611Y-15540555D02*
X18182087Y-15521508D01*
X18182087Y-15521508D02*
X18163039Y-15492936D01*
X18163039Y-15492936D02*
X18153516Y-15483412D01*
X11368211Y-16011211D02*
X11368211Y-15869789D01*
X11226789Y-15869789D01*
X11226789Y-16011211D01*
X11368211Y-16011211D01*
X11639229Y-15831984D02*
X11763039Y-15831984D01*
X11763039Y-15831984D02*
X11696372Y-15908174D01*
X11696372Y-15908174D02*
X11724943Y-15908174D01*
X11724943Y-15908174D02*
X11743991Y-15917698D01*
X11743991Y-15917698D02*
X11753515Y-15927222D01*
X11753515Y-15927222D02*
X11763039Y-15946269D01*
X11763039Y-15946269D02*
X11763039Y-15993888D01*
X11763039Y-15993888D02*
X11753515Y-16012936D01*
X11753515Y-16012936D02*
X11743991Y-16022460D01*
X11743991Y-16022460D02*
X11724943Y-16031984D01*
X11724943Y-16031984D02*
X11667801Y-16031984D01*
X11667801Y-16031984D02*
X11648753Y-16022460D01*
X11648753Y-16022460D02*
X11639229Y-16012936D01*
X11848753Y-16012936D02*
X11858277Y-16022460D01*
X11858277Y-16022460D02*
X11848753Y-16031984D01*
X11848753Y-16031984D02*
X11839229Y-16022460D01*
X11839229Y-16022460D02*
X11848753Y-16012936D01*
X11848753Y-16012936D02*
X11848753Y-16031984D01*
X12039229Y-15831984D02*
X11943991Y-15831984D01*
X11943991Y-15831984D02*
X11934467Y-15927222D01*
X11934467Y-15927222D02*
X11943991Y-15917698D01*
X11943991Y-15917698D02*
X11963039Y-15908174D01*
X11963039Y-15908174D02*
X12010658Y-15908174D01*
X12010658Y-15908174D02*
X12029705Y-15917698D01*
X12029705Y-15917698D02*
X12039229Y-15927222D01*
X12039229Y-15927222D02*
X12048753Y-15946269D01*
X12048753Y-15946269D02*
X12048753Y-15993888D01*
X12048753Y-15993888D02*
X12039229Y-16012936D01*
X12039229Y-16012936D02*
X12029705Y-16022460D01*
X12029705Y-16022460D02*
X12010658Y-16031984D01*
X12010658Y-16031984D02*
X11963039Y-16031984D01*
X11963039Y-16031984D02*
X11943991Y-16022460D01*
X11943991Y-16022460D02*
X11934467Y-16012936D01*
X12229705Y-15831984D02*
X12134467Y-15831984D01*
X12134467Y-15831984D02*
X12124943Y-15927222D01*
X12124943Y-15927222D02*
X12134467Y-15917698D01*
X12134467Y-15917698D02*
X12153515Y-15908174D01*
X12153515Y-15908174D02*
X12201134Y-15908174D01*
X12201134Y-15908174D02*
X12220182Y-15917698D01*
X12220182Y-15917698D02*
X12229705Y-15927222D01*
X12229705Y-15927222D02*
X12239229Y-15946269D01*
X12239229Y-15946269D02*
X12239229Y-15993888D01*
X12239229Y-15993888D02*
X12229705Y-16012936D01*
X12229705Y-16012936D02*
X12220182Y-16022460D01*
X12220182Y-16022460D02*
X12201134Y-16031984D01*
X12201134Y-16031984D02*
X12153515Y-16031984D01*
X12153515Y-16031984D02*
X12134467Y-16022460D01*
X12134467Y-16022460D02*
X12124943Y-16012936D01*
X12363039Y-15831984D02*
X12382086Y-15831984D01*
X12382086Y-15831984D02*
X12401134Y-15841508D01*
X12401134Y-15841508D02*
X12410658Y-15851031D01*
X12410658Y-15851031D02*
X12420182Y-15870079D01*
X12420182Y-15870079D02*
X12429705Y-15908174D01*
X12429705Y-15908174D02*
X12429705Y-15955793D01*
X12429705Y-15955793D02*
X12420182Y-15993888D01*
X12420182Y-15993888D02*
X12410658Y-16012936D01*
X12410658Y-16012936D02*
X12401134Y-16022460D01*
X12401134Y-16022460D02*
X12382086Y-16031984D01*
X12382086Y-16031984D02*
X12363039Y-16031984D01*
X12363039Y-16031984D02*
X12343991Y-16022460D01*
X12343991Y-16022460D02*
X12334467Y-16012936D01*
X12334467Y-16012936D02*
X12324943Y-15993888D01*
X12324943Y-15993888D02*
X12315420Y-15955793D01*
X12315420Y-15955793D02*
X12315420Y-15908174D01*
X12315420Y-15908174D02*
X12324943Y-15870079D01*
X12324943Y-15870079D02*
X12334467Y-15851031D01*
X12334467Y-15851031D02*
X12343991Y-15841508D01*
X12343991Y-15841508D02*
X12363039Y-15831984D01*
X12515420Y-16031984D02*
X12515420Y-15898650D01*
X12515420Y-15917698D02*
X12524943Y-15908174D01*
X12524943Y-15908174D02*
X12543991Y-15898650D01*
X12543991Y-15898650D02*
X12572563Y-15898650D01*
X12572563Y-15898650D02*
X12591610Y-15908174D01*
X12591610Y-15908174D02*
X12601134Y-15927222D01*
X12601134Y-15927222D02*
X12601134Y-16031984D01*
X12601134Y-15927222D02*
X12610658Y-15908174D01*
X12610658Y-15908174D02*
X12629705Y-15898650D01*
X12629705Y-15898650D02*
X12658277Y-15898650D01*
X12658277Y-15898650D02*
X12677324Y-15908174D01*
X12677324Y-15908174D02*
X12686848Y-15927222D01*
X12686848Y-15927222D02*
X12686848Y-16031984D01*
X12782086Y-16031984D02*
X12782086Y-15898650D01*
X12782086Y-15917698D02*
X12791610Y-15908174D01*
X12791610Y-15908174D02*
X12810658Y-15898650D01*
X12810658Y-15898650D02*
X12839229Y-15898650D01*
X12839229Y-15898650D02*
X12858277Y-15908174D01*
X12858277Y-15908174D02*
X12867801Y-15927222D01*
X12867801Y-15927222D02*
X12867801Y-16031984D01*
X12867801Y-15927222D02*
X12877324Y-15908174D01*
X12877324Y-15908174D02*
X12896372Y-15898650D01*
X12896372Y-15898650D02*
X12924943Y-15898650D01*
X12924943Y-15898650D02*
X12943991Y-15908174D01*
X12943991Y-15908174D02*
X12953515Y-15927222D01*
X12953515Y-15927222D02*
X12953515Y-16031984D01*
X13343991Y-15822460D02*
X13172563Y-16079603D01*
X13601134Y-15831984D02*
X13620182Y-15831984D01*
X13620182Y-15831984D02*
X13639229Y-15841508D01*
X13639229Y-15841508D02*
X13648753Y-15851031D01*
X13648753Y-15851031D02*
X13658277Y-15870079D01*
X13658277Y-15870079D02*
X13667801Y-15908174D01*
X13667801Y-15908174D02*
X13667801Y-15955793D01*
X13667801Y-15955793D02*
X13658277Y-15993888D01*
X13658277Y-15993888D02*
X13648753Y-16012936D01*
X13648753Y-16012936D02*
X13639229Y-16022460D01*
X13639229Y-16022460D02*
X13620182Y-16031984D01*
X13620182Y-16031984D02*
X13601134Y-16031984D01*
X13601134Y-16031984D02*
X13582086Y-16022460D01*
X13582086Y-16022460D02*
X13572563Y-16012936D01*
X13572563Y-16012936D02*
X13563039Y-15993888D01*
X13563039Y-15993888D02*
X13553515Y-15955793D01*
X13553515Y-15955793D02*
X13553515Y-15908174D01*
X13553515Y-15908174D02*
X13563039Y-15870079D01*
X13563039Y-15870079D02*
X13572563Y-15851031D01*
X13572563Y-15851031D02*
X13582086Y-15841508D01*
X13582086Y-15841508D02*
X13601134Y-15831984D01*
X13753515Y-16012936D02*
X13763039Y-16022460D01*
X13763039Y-16022460D02*
X13753515Y-16031984D01*
X13753515Y-16031984D02*
X13743991Y-16022460D01*
X13743991Y-16022460D02*
X13753515Y-16012936D01*
X13753515Y-16012936D02*
X13753515Y-16031984D01*
X13953515Y-16031984D02*
X13839229Y-16031984D01*
X13896372Y-16031984D02*
X13896372Y-15831984D01*
X13896372Y-15831984D02*
X13877325Y-15860555D01*
X13877325Y-15860555D02*
X13858277Y-15879603D01*
X13858277Y-15879603D02*
X13839229Y-15889127D01*
X14020182Y-15831984D02*
X14143991Y-15831984D01*
X14143991Y-15831984D02*
X14077325Y-15908174D01*
X14077325Y-15908174D02*
X14105896Y-15908174D01*
X14105896Y-15908174D02*
X14124944Y-15917698D01*
X14124944Y-15917698D02*
X14134467Y-15927222D01*
X14134467Y-15927222D02*
X14143991Y-15946269D01*
X14143991Y-15946269D02*
X14143991Y-15993888D01*
X14143991Y-15993888D02*
X14134467Y-16012936D01*
X14134467Y-16012936D02*
X14124944Y-16022460D01*
X14124944Y-16022460D02*
X14105896Y-16031984D01*
X14105896Y-16031984D02*
X14048753Y-16031984D01*
X14048753Y-16031984D02*
X14029706Y-16022460D01*
X14029706Y-16022460D02*
X14020182Y-16012936D01*
X14239229Y-16031984D02*
X14277325Y-16031984D01*
X14277325Y-16031984D02*
X14296372Y-16022460D01*
X14296372Y-16022460D02*
X14305896Y-16012936D01*
X14305896Y-16012936D02*
X14324944Y-15984365D01*
X14324944Y-15984365D02*
X14334467Y-15946269D01*
X14334467Y-15946269D02*
X14334467Y-15870079D01*
X14334467Y-15870079D02*
X14324944Y-15851031D01*
X14324944Y-15851031D02*
X14315420Y-15841508D01*
X14315420Y-15841508D02*
X14296372Y-15831984D01*
X14296372Y-15831984D02*
X14258277Y-15831984D01*
X14258277Y-15831984D02*
X14239229Y-15841508D01*
X14239229Y-15841508D02*
X14229706Y-15851031D01*
X14229706Y-15851031D02*
X14220182Y-15870079D01*
X14220182Y-15870079D02*
X14220182Y-15917698D01*
X14220182Y-15917698D02*
X14229706Y-15936746D01*
X14229706Y-15936746D02*
X14239229Y-15946269D01*
X14239229Y-15946269D02*
X14258277Y-15955793D01*
X14258277Y-15955793D02*
X14296372Y-15955793D01*
X14296372Y-15955793D02*
X14315420Y-15946269D01*
X14315420Y-15946269D02*
X14324944Y-15936746D01*
X14324944Y-15936746D02*
X14334467Y-15917698D01*
X14448753Y-15917698D02*
X14429706Y-15908174D01*
X14429706Y-15908174D02*
X14420182Y-15898650D01*
X14420182Y-15898650D02*
X14410658Y-15879603D01*
X14410658Y-15879603D02*
X14410658Y-15870079D01*
X14410658Y-15870079D02*
X14420182Y-15851031D01*
X14420182Y-15851031D02*
X14429706Y-15841508D01*
X14429706Y-15841508D02*
X14448753Y-15831984D01*
X14448753Y-15831984D02*
X14486848Y-15831984D01*
X14486848Y-15831984D02*
X14505896Y-15841508D01*
X14505896Y-15841508D02*
X14515420Y-15851031D01*
X14515420Y-15851031D02*
X14524944Y-15870079D01*
X14524944Y-15870079D02*
X14524944Y-15879603D01*
X14524944Y-15879603D02*
X14515420Y-15898650D01*
X14515420Y-15898650D02*
X14505896Y-15908174D01*
X14505896Y-15908174D02*
X14486848Y-15917698D01*
X14486848Y-15917698D02*
X14448753Y-15917698D01*
X14448753Y-15917698D02*
X14429706Y-15927222D01*
X14429706Y-15927222D02*
X14420182Y-15936746D01*
X14420182Y-15936746D02*
X14410658Y-15955793D01*
X14410658Y-15955793D02*
X14410658Y-15993888D01*
X14410658Y-15993888D02*
X14420182Y-16012936D01*
X14420182Y-16012936D02*
X14429706Y-16022460D01*
X14429706Y-16022460D02*
X14448753Y-16031984D01*
X14448753Y-16031984D02*
X14486848Y-16031984D01*
X14486848Y-16031984D02*
X14505896Y-16022460D01*
X14505896Y-16022460D02*
X14515420Y-16012936D01*
X14515420Y-16012936D02*
X14524944Y-15993888D01*
X14524944Y-15993888D02*
X14524944Y-15955793D01*
X14524944Y-15955793D02*
X14515420Y-15936746D01*
X14515420Y-15936746D02*
X14505896Y-15927222D01*
X14505896Y-15927222D02*
X14486848Y-15917698D01*
X14601134Y-15831984D02*
X14601134Y-15870079D01*
X14677325Y-15831984D02*
X14677325Y-15870079D01*
X14972563Y-16108174D02*
X14963039Y-16098650D01*
X14963039Y-16098650D02*
X14943991Y-16070079D01*
X14943991Y-16070079D02*
X14934468Y-16051031D01*
X14934468Y-16051031D02*
X14924944Y-16022460D01*
X14924944Y-16022460D02*
X14915420Y-15974841D01*
X14915420Y-15974841D02*
X14915420Y-15936746D01*
X14915420Y-15936746D02*
X14924944Y-15889127D01*
X14924944Y-15889127D02*
X14934468Y-15860555D01*
X14934468Y-15860555D02*
X14943991Y-15841508D01*
X14943991Y-15841508D02*
X14963039Y-15812936D01*
X14963039Y-15812936D02*
X14972563Y-15803412D01*
X15134468Y-15898650D02*
X15134468Y-16031984D01*
X15086848Y-15822460D02*
X15039229Y-15965317D01*
X15039229Y-15965317D02*
X15163039Y-15965317D01*
X15391610Y-16031984D02*
X15391610Y-15831984D01*
X15477325Y-16031984D02*
X15477325Y-15927222D01*
X15477325Y-15927222D02*
X15467801Y-15908174D01*
X15467801Y-15908174D02*
X15448753Y-15898650D01*
X15448753Y-15898650D02*
X15420182Y-15898650D01*
X15420182Y-15898650D02*
X15401134Y-15908174D01*
X15401134Y-15908174D02*
X15391610Y-15917698D01*
X15601134Y-16031984D02*
X15582087Y-16022460D01*
X15582087Y-16022460D02*
X15572563Y-16012936D01*
X15572563Y-16012936D02*
X15563039Y-15993888D01*
X15563039Y-15993888D02*
X15563039Y-15936746D01*
X15563039Y-15936746D02*
X15572563Y-15917698D01*
X15572563Y-15917698D02*
X15582087Y-15908174D01*
X15582087Y-15908174D02*
X15601134Y-15898650D01*
X15601134Y-15898650D02*
X15629706Y-15898650D01*
X15629706Y-15898650D02*
X15648753Y-15908174D01*
X15648753Y-15908174D02*
X15658277Y-15917698D01*
X15658277Y-15917698D02*
X15667801Y-15936746D01*
X15667801Y-15936746D02*
X15667801Y-15993888D01*
X15667801Y-15993888D02*
X15658277Y-16012936D01*
X15658277Y-16012936D02*
X15648753Y-16022460D01*
X15648753Y-16022460D02*
X15629706Y-16031984D01*
X15629706Y-16031984D02*
X15601134Y-16031984D01*
X15782087Y-16031984D02*
X15763039Y-16022460D01*
X15763039Y-16022460D02*
X15753515Y-16003412D01*
X15753515Y-16003412D02*
X15753515Y-15831984D01*
X15934468Y-16022460D02*
X15915420Y-16031984D01*
X15915420Y-16031984D02*
X15877325Y-16031984D01*
X15877325Y-16031984D02*
X15858277Y-16022460D01*
X15858277Y-16022460D02*
X15848753Y-16003412D01*
X15848753Y-16003412D02*
X15848753Y-15927222D01*
X15848753Y-15927222D02*
X15858277Y-15908174D01*
X15858277Y-15908174D02*
X15877325Y-15898650D01*
X15877325Y-15898650D02*
X15915420Y-15898650D01*
X15915420Y-15898650D02*
X15934468Y-15908174D01*
X15934468Y-15908174D02*
X15943991Y-15927222D01*
X15943991Y-15927222D02*
X15943991Y-15946269D01*
X15943991Y-15946269D02*
X15848753Y-15965317D01*
X16020182Y-16022460D02*
X16039230Y-16031984D01*
X16039230Y-16031984D02*
X16077325Y-16031984D01*
X16077325Y-16031984D02*
X16096372Y-16022460D01*
X16096372Y-16022460D02*
X16105896Y-16003412D01*
X16105896Y-16003412D02*
X16105896Y-15993888D01*
X16105896Y-15993888D02*
X16096372Y-15974841D01*
X16096372Y-15974841D02*
X16077325Y-15965317D01*
X16077325Y-15965317D02*
X16048753Y-15965317D01*
X16048753Y-15965317D02*
X16029706Y-15955793D01*
X16029706Y-15955793D02*
X16020182Y-15936746D01*
X16020182Y-15936746D02*
X16020182Y-15927222D01*
X16020182Y-15927222D02*
X16029706Y-15908174D01*
X16029706Y-15908174D02*
X16048753Y-15898650D01*
X16048753Y-15898650D02*
X16077325Y-15898650D01*
X16077325Y-15898650D02*
X16096372Y-15908174D01*
X16172563Y-16108174D02*
X16182087Y-16098650D01*
X16182087Y-16098650D02*
X16201134Y-16070079D01*
X16201134Y-16070079D02*
X16210658Y-16051031D01*
X16210658Y-16051031D02*
X16220182Y-16022460D01*
X16220182Y-16022460D02*
X16229706Y-15974841D01*
X16229706Y-15974841D02*
X16229706Y-15936746D01*
X16229706Y-15936746D02*
X16220182Y-15889127D01*
X16220182Y-15889127D02*
X16210658Y-15860555D01*
X16210658Y-15860555D02*
X16201134Y-15841508D01*
X16201134Y-15841508D02*
X16182087Y-15812936D01*
X16182087Y-15812936D02*
X16172563Y-15803412D01*
X16534468Y-16108174D02*
X16524944Y-16098650D01*
X16524944Y-16098650D02*
X16505896Y-16070079D01*
X16505896Y-16070079D02*
X16496372Y-16051031D01*
X16496372Y-16051031D02*
X16486849Y-16022460D01*
X16486849Y-16022460D02*
X16477325Y-15974841D01*
X16477325Y-15974841D02*
X16477325Y-15936746D01*
X16477325Y-15936746D02*
X16486849Y-15889127D01*
X16486849Y-15889127D02*
X16496372Y-15860555D01*
X16496372Y-15860555D02*
X16505896Y-15841508D01*
X16505896Y-15841508D02*
X16524944Y-15812936D01*
X16524944Y-15812936D02*
X16534468Y-15803412D01*
X16610658Y-15898650D02*
X16610658Y-16031984D01*
X16610658Y-15917698D02*
X16620182Y-15908174D01*
X16620182Y-15908174D02*
X16639230Y-15898650D01*
X16639230Y-15898650D02*
X16667801Y-15898650D01*
X16667801Y-15898650D02*
X16686849Y-15908174D01*
X16686849Y-15908174D02*
X16696372Y-15927222D01*
X16696372Y-15927222D02*
X16696372Y-16031984D01*
X16820182Y-16031984D02*
X16801134Y-16022460D01*
X16801134Y-16022460D02*
X16791611Y-16012936D01*
X16791611Y-16012936D02*
X16782087Y-15993888D01*
X16782087Y-15993888D02*
X16782087Y-15936746D01*
X16782087Y-15936746D02*
X16791611Y-15917698D01*
X16791611Y-15917698D02*
X16801134Y-15908174D01*
X16801134Y-15908174D02*
X16820182Y-15898650D01*
X16820182Y-15898650D02*
X16848754Y-15898650D01*
X16848754Y-15898650D02*
X16867801Y-15908174D01*
X16867801Y-15908174D02*
X16877325Y-15917698D01*
X16877325Y-15917698D02*
X16886849Y-15936746D01*
X16886849Y-15936746D02*
X16886849Y-15993888D01*
X16886849Y-15993888D02*
X16877325Y-16012936D01*
X16877325Y-16012936D02*
X16867801Y-16022460D01*
X16867801Y-16022460D02*
X16848754Y-16031984D01*
X16848754Y-16031984D02*
X16820182Y-16031984D01*
X16943992Y-15898650D02*
X17020182Y-15898650D01*
X16972563Y-15831984D02*
X16972563Y-16003412D01*
X16972563Y-16003412D02*
X16982087Y-16022460D01*
X16982087Y-16022460D02*
X17001134Y-16031984D01*
X17001134Y-16031984D02*
X17020182Y-16031984D01*
X17239230Y-15898650D02*
X17239230Y-16098650D01*
X17239230Y-15908174D02*
X17258277Y-15898650D01*
X17258277Y-15898650D02*
X17296373Y-15898650D01*
X17296373Y-15898650D02*
X17315420Y-15908174D01*
X17315420Y-15908174D02*
X17324944Y-15917698D01*
X17324944Y-15917698D02*
X17334468Y-15936746D01*
X17334468Y-15936746D02*
X17334468Y-15993888D01*
X17334468Y-15993888D02*
X17324944Y-16012936D01*
X17324944Y-16012936D02*
X17315420Y-16022460D01*
X17315420Y-16022460D02*
X17296373Y-16031984D01*
X17296373Y-16031984D02*
X17258277Y-16031984D01*
X17258277Y-16031984D02*
X17239230Y-16022460D01*
X17448754Y-16031984D02*
X17429706Y-16022460D01*
X17429706Y-16022460D02*
X17420182Y-16003412D01*
X17420182Y-16003412D02*
X17420182Y-15831984D01*
X17610658Y-16031984D02*
X17610658Y-15927222D01*
X17610658Y-15927222D02*
X17601135Y-15908174D01*
X17601135Y-15908174D02*
X17582087Y-15898650D01*
X17582087Y-15898650D02*
X17543992Y-15898650D01*
X17543992Y-15898650D02*
X17524944Y-15908174D01*
X17610658Y-16022460D02*
X17591611Y-16031984D01*
X17591611Y-16031984D02*
X17543992Y-16031984D01*
X17543992Y-16031984D02*
X17524944Y-16022460D01*
X17524944Y-16022460D02*
X17515420Y-16003412D01*
X17515420Y-16003412D02*
X17515420Y-15984365D01*
X17515420Y-15984365D02*
X17524944Y-15965317D01*
X17524944Y-15965317D02*
X17543992Y-15955793D01*
X17543992Y-15955793D02*
X17591611Y-15955793D01*
X17591611Y-15955793D02*
X17610658Y-15946269D01*
X17677325Y-15898650D02*
X17753515Y-15898650D01*
X17705896Y-15831984D02*
X17705896Y-16003412D01*
X17705896Y-16003412D02*
X17715420Y-16022460D01*
X17715420Y-16022460D02*
X17734468Y-16031984D01*
X17734468Y-16031984D02*
X17753515Y-16031984D01*
X17896373Y-16022460D02*
X17877325Y-16031984D01*
X17877325Y-16031984D02*
X17839230Y-16031984D01*
X17839230Y-16031984D02*
X17820182Y-16022460D01*
X17820182Y-16022460D02*
X17810658Y-16003412D01*
X17810658Y-16003412D02*
X17810658Y-15927222D01*
X17810658Y-15927222D02*
X17820182Y-15908174D01*
X17820182Y-15908174D02*
X17839230Y-15898650D01*
X17839230Y-15898650D02*
X17877325Y-15898650D01*
X17877325Y-15898650D02*
X17896373Y-15908174D01*
X17896373Y-15908174D02*
X17905896Y-15927222D01*
X17905896Y-15927222D02*
X17905896Y-15946269D01*
X17905896Y-15946269D02*
X17810658Y-15965317D01*
X18077325Y-16031984D02*
X18077325Y-15831984D01*
X18077325Y-16022460D02*
X18058277Y-16031984D01*
X18058277Y-16031984D02*
X18020182Y-16031984D01*
X18020182Y-16031984D02*
X18001135Y-16022460D01*
X18001135Y-16022460D02*
X17991611Y-16012936D01*
X17991611Y-16012936D02*
X17982087Y-15993888D01*
X17982087Y-15993888D02*
X17982087Y-15936746D01*
X17982087Y-15936746D02*
X17991611Y-15917698D01*
X17991611Y-15917698D02*
X18001135Y-15908174D01*
X18001135Y-15908174D02*
X18020182Y-15898650D01*
X18020182Y-15898650D02*
X18058277Y-15898650D01*
X18058277Y-15898650D02*
X18077325Y-15908174D01*
X18153516Y-16108174D02*
X18163039Y-16098650D01*
X18163039Y-16098650D02*
X18182087Y-16070079D01*
X18182087Y-16070079D02*
X18191611Y-16051031D01*
X18191611Y-16051031D02*
X18201135Y-16022460D01*
X18201135Y-16022460D02*
X18210658Y-15974841D01*
X18210658Y-15974841D02*
X18210658Y-15936746D01*
X18210658Y-15936746D02*
X18201135Y-15889127D01*
X18201135Y-15889127D02*
X18191611Y-15860555D01*
X18191611Y-15860555D02*
X18182087Y-15841508D01*
X18182087Y-15841508D02*
X18163039Y-15812936D01*
X18163039Y-15812936D02*
X18153516Y-15803412D01*
M02*
