%TF.GenerationSoftware,KiCad,Pcbnew,9.0.5*%
%TF.CreationDate,2026-02-12T11:30:48+01:00*%
%TF.ProjectId,ZumoComSystem,5a756d6f-436f-46d5-9379-7374656d2e6b,V3.0*%
%TF.SameCoordinates,Original*%
%TF.FileFunction,Paste,Bot*%
%TF.FilePolarity,Positive*%
%FSLAX45Y45*%
G04 Gerber Fmt 4.5, Leading zero omitted, Abs format (unit mm)*
G04 Created by KiCad (PCBNEW 9.0.5) date 2026-02-12 11:30:48*
%MOMM*%
%LPD*%
G01*
G04 APERTURE LIST*
G04 Aperture macros list*
%AMRoundRect*
0 Rectangle with rounded corners*
0 $1 Rounding radius*
0 $2 $3 $4 $5 $6 $7 $8 $9 X,Y pos of 4 corners*
0 Add a 4 corners polygon primitive as box body*
4,1,4,$2,$3,$4,$5,$6,$7,$8,$9,$2,$3,0*
0 Add four circle primitives for the rounded corners*
1,1,$1+$1,$2,$3*
1,1,$1+$1,$4,$5*
1,1,$1+$1,$6,$7*
1,1,$1+$1,$8,$9*
0 Add four rect primitives between the rounded corners*
20,1,$1+$1,$2,$3,$4,$5,0*
20,1,$1+$1,$4,$5,$6,$7,0*
20,1,$1+$1,$6,$7,$8,$9,0*
20,1,$1+$1,$8,$9,$2,$3,0*%
G04 Aperture macros list end*
%ADD10C,0.010000*%
%ADD11RoundRect,0.239130X-1.235870X-0.860870X1.235870X-0.860870X1.235870X0.860870X-1.235870X0.860870X0*%
%ADD12RoundRect,0.239130X-1.235870X-0.860868X1.235870X-0.860868X1.235870X0.860868X-1.235870X0.860868X0*%
%ADD13RoundRect,0.137500X-0.812500X-0.137500X0.812500X-0.137500X0.812500X0.137500X-0.812500X0.137500X0*%
%ADD14RoundRect,0.230770X-0.369230X-0.594230X0.369230X-0.594230X0.369230X0.594230X-0.369230X0.594230X0*%
%ADD15R,3.399998X3.474992*%
%ADD16R,3.399998X3.474998*%
%ADD17RoundRect,0.137500X-0.137500X0.812500X-0.137500X-0.812500X0.137500X-0.812500X0.137500X0.812500X0*%
%ADD18RoundRect,0.212500X-0.212500X0.225000X-0.212500X-0.225000X0.212500X-0.225000X0.212500X0.225000X0*%
%ADD19RoundRect,0.212500X0.212500X-0.275000X0.212500X0.275000X-0.212500X0.275000X-0.212500X-0.275000X0*%
%ADD20RoundRect,0.212500X-0.212500X0.275000X-0.212500X-0.275000X0.212500X-0.275000X0.212500X0.275000X0*%
%ADD21RoundRect,0.212500X0.225000X0.212500X-0.225000X0.212500X-0.225000X-0.212500X0.225000X-0.212500X0*%
%ADD22RoundRect,0.212500X-0.225000X-0.212500X0.225000X-0.212500X0.225000X0.212500X-0.225000X0.212500X0*%
%ADD23RoundRect,0.175000X-0.725000X-0.175000X0.725000X-0.175000X0.725000X0.175000X-0.725000X0.175000X0*%
%ADD24RoundRect,0.212500X0.275000X0.212500X-0.275000X0.212500X-0.275000X-0.212500X0.275000X-0.212500X0*%
%ADD25R,3.050000X0.900000*%
%ADD26RoundRect,0.212500X-0.275000X-0.212500X0.275000X-0.212500X0.275000X0.212500X-0.275000X0.212500X0*%
%ADD27RoundRect,0.137500X-0.592500X-0.137500X0.592500X-0.137500X0.592500X0.137500X-0.592500X0.137500X0*%
%ADD28RoundRect,0.212500X0.212500X-0.225000X0.212500X0.225000X-0.212500X0.225000X-0.212500X-0.225000X0*%
%ADD29RoundRect,0.125000X-0.125000X0.700000X-0.125000X-0.700000X0.125000X-0.700000X0.125000X0.700000X0*%
%ADD30RoundRect,0.225000X-0.225000X0.225000X-0.225000X-0.225000X0.225000X-0.225000X0.225000X0.225000X0*%
%ADD31RoundRect,0.175000X-0.175000X0.725000X-0.175000X-0.725000X0.175000X-0.725000X0.175000X0.725000X0*%
%ADD32RoundRect,0.231132X0.381368X0.618868X-0.381368X0.618868X-0.381368X-0.618868X0.381368X-0.618868X0*%
%ADD33R,0.900000X2.410000*%
%ADD34RoundRect,0.232457X-0.430043X-1.042543X0.430043X-1.042543X0.430043X1.042543X-0.430043X1.042543X0*%
%ADD35RoundRect,0.238865X-0.833635X-1.006135X0.833635X-1.006135X0.833635X1.006135X-0.833635X1.006135X0*%
%ADD36RoundRect,0.228261X0.296739X0.421739X-0.296739X0.421739X-0.296739X-0.421739X0.296739X-0.421739X0*%
%ADD37RoundRect,0.229167X0.320833X0.420833X-0.320833X0.420833X-0.320833X-0.420833X0.320833X-0.420833X0*%
%ADD38RoundRect,0.228723X-0.446277X0.308777X-0.446277X-0.308777X0.446277X-0.308777X0.446277X0.308777X0*%
%ADD39RoundRect,0.232457X-1.042543X0.430043X-1.042543X-0.430043X1.042543X-0.430043X1.042543X0.430043X0*%
%ADD40RoundRect,0.232143X-0.417857X-0.767857X0.417857X-0.767857X0.417857X0.767857X-0.417857X0.767857X0*%
%ADD41RoundRect,0.075000X-0.687500X-0.075000X0.687500X-0.075000X0.687500X0.075000X-0.687500X0.075000X0*%
%ADD42RoundRect,0.236486X0.638514X1.588514X-0.638514X1.588514X-0.638514X-1.588514X0.638514X-1.588514X0*%
G04 APERTURE END LIST*
D10*
%TO.C,U3*%
X16690800Y-6912350D02*
X16691000Y-6912350D01*
X16691300Y-6912450D01*
X16691500Y-6912450D01*
X16691800Y-6912550D01*
X16692000Y-6912650D01*
X16692300Y-6912750D01*
X16692500Y-6912950D01*
X16692700Y-6913050D01*
X16692900Y-6913250D01*
X16693100Y-6913350D01*
X16693300Y-6913550D01*
X16693500Y-6913750D01*
X16693700Y-6913950D01*
X16693900Y-6914150D01*
X16694000Y-6914350D01*
X16694200Y-6914550D01*
X16694300Y-6914750D01*
X16694500Y-6914950D01*
X16694600Y-6915250D01*
X16694700Y-6915450D01*
X16694800Y-6915750D01*
X16694800Y-6915950D01*
X16694900Y-6916250D01*
X16694900Y-6916450D01*
X16695000Y-6916750D01*
X16695000Y-6916950D01*
X16695000Y-6917250D01*
X16695000Y-7017250D01*
X16695000Y-7017550D01*
X16695000Y-7017750D01*
X16694900Y-7018050D01*
X16694900Y-7018250D01*
X16694800Y-7018550D01*
X16694800Y-7018750D01*
X16694700Y-7019050D01*
X16694600Y-7019250D01*
X16694500Y-7019550D01*
X16694300Y-7019750D01*
X16694200Y-7019950D01*
X16694000Y-7020150D01*
X16693900Y-7020350D01*
X16693700Y-7020550D01*
X16693500Y-7020750D01*
X16693300Y-7020950D01*
X16693100Y-7021150D01*
X16692900Y-7021250D01*
X16692700Y-7021450D01*
X16692500Y-7021550D01*
X16692300Y-7021750D01*
X16692000Y-7021850D01*
X16691800Y-7021950D01*
X16691500Y-7022050D01*
X16691300Y-7022050D01*
X16691000Y-7022150D01*
X16690800Y-7022150D01*
X16690500Y-7022250D01*
X16690300Y-7022250D01*
X16690000Y-7022250D01*
X16640000Y-7022250D01*
X16639700Y-7022250D01*
X16639500Y-7022250D01*
X16639200Y-7022150D01*
X16639000Y-7022150D01*
X16638700Y-7022050D01*
X16638500Y-7022050D01*
X16638200Y-7021950D01*
X16638000Y-7021850D01*
X16637700Y-7021750D01*
X16637500Y-7021550D01*
X16637300Y-7021450D01*
X16637100Y-7021250D01*
X16636900Y-7021150D01*
X16636700Y-7020950D01*
X16636500Y-7020750D01*
X16636300Y-7020550D01*
X16636100Y-7020350D01*
X16636000Y-7020150D01*
X16635800Y-7019950D01*
X16635700Y-7019750D01*
X16635500Y-7019550D01*
X16635400Y-7019250D01*
X16635300Y-7019050D01*
X16635200Y-7018750D01*
X16635200Y-7018550D01*
X16635100Y-7018250D01*
X16635100Y-7018050D01*
X16635000Y-7017750D01*
X16635000Y-7017550D01*
X16635000Y-7017250D01*
X16635000Y-6917250D01*
X16635000Y-6916950D01*
X16635000Y-6916750D01*
X16635100Y-6916450D01*
X16635100Y-6916250D01*
X16635200Y-6915950D01*
X16635200Y-6915750D01*
X16635300Y-6915450D01*
X16635400Y-6915250D01*
X16635500Y-6914950D01*
X16635700Y-6914750D01*
X16635800Y-6914550D01*
X16636000Y-6914350D01*
X16636100Y-6914150D01*
X16636300Y-6913950D01*
X16636500Y-6913750D01*
X16636700Y-6913550D01*
X16636900Y-6913350D01*
X16637100Y-6913250D01*
X16637300Y-6913050D01*
X16637500Y-6912950D01*
X16637700Y-6912750D01*
X16638000Y-6912650D01*
X16638200Y-6912550D01*
X16638500Y-6912450D01*
X16638700Y-6912450D01*
X16639000Y-6912350D01*
X16639200Y-6912350D01*
X16639500Y-6912250D01*
X16639700Y-6912250D01*
X16640000Y-6912250D01*
X16690000Y-6912250D01*
X16690300Y-6912250D01*
X16690500Y-6912250D01*
X16690800Y-6912350D01*
G36*
X16690800Y-6912350D02*
G01*
X16691000Y-6912350D01*
X16691300Y-6912450D01*
X16691500Y-6912450D01*
X16691800Y-6912550D01*
X16692000Y-6912650D01*
X16692300Y-6912750D01*
X16692500Y-6912950D01*
X16692700Y-6913050D01*
X16692900Y-6913250D01*
X16693100Y-6913350D01*
X16693300Y-6913550D01*
X16693500Y-6913750D01*
X16693700Y-6913950D01*
X16693900Y-6914150D01*
X16694000Y-6914350D01*
X16694200Y-6914550D01*
X16694300Y-6914750D01*
X16694500Y-6914950D01*
X16694600Y-6915250D01*
X16694700Y-6915450D01*
X16694800Y-6915750D01*
X16694800Y-6915950D01*
X16694900Y-6916250D01*
X16694900Y-6916450D01*
X16695000Y-6916750D01*
X16695000Y-6916950D01*
X16695000Y-6917250D01*
X16695000Y-7017250D01*
X16695000Y-7017550D01*
X16695000Y-7017750D01*
X16694900Y-7018050D01*
X16694900Y-7018250D01*
X16694800Y-7018550D01*
X16694800Y-7018750D01*
X16694700Y-7019050D01*
X16694600Y-7019250D01*
X16694500Y-7019550D01*
X16694300Y-7019750D01*
X16694200Y-7019950D01*
X16694000Y-7020150D01*
X16693900Y-7020350D01*
X16693700Y-7020550D01*
X16693500Y-7020750D01*
X16693300Y-7020950D01*
X16693100Y-7021150D01*
X16692900Y-7021250D01*
X16692700Y-7021450D01*
X16692500Y-7021550D01*
X16692300Y-7021750D01*
X16692000Y-7021850D01*
X16691800Y-7021950D01*
X16691500Y-7022050D01*
X16691300Y-7022050D01*
X16691000Y-7022150D01*
X16690800Y-7022150D01*
X16690500Y-7022250D01*
X16690300Y-7022250D01*
X16690000Y-7022250D01*
X16640000Y-7022250D01*
X16639700Y-7022250D01*
X16639500Y-7022250D01*
X16639200Y-7022150D01*
X16639000Y-7022150D01*
X16638700Y-7022050D01*
X16638500Y-7022050D01*
X16638200Y-7021950D01*
X16638000Y-7021850D01*
X16637700Y-7021750D01*
X16637500Y-7021550D01*
X16637300Y-7021450D01*
X16637100Y-7021250D01*
X16636900Y-7021150D01*
X16636700Y-7020950D01*
X16636500Y-7020750D01*
X16636300Y-7020550D01*
X16636100Y-7020350D01*
X16636000Y-7020150D01*
X16635800Y-7019950D01*
X16635700Y-7019750D01*
X16635500Y-7019550D01*
X16635400Y-7019250D01*
X16635300Y-7019050D01*
X16635200Y-7018750D01*
X16635200Y-7018550D01*
X16635100Y-7018250D01*
X16635100Y-7018050D01*
X16635000Y-7017750D01*
X16635000Y-7017550D01*
X16635000Y-7017250D01*
X16635000Y-6917250D01*
X16635000Y-6916950D01*
X16635000Y-6916750D01*
X16635100Y-6916450D01*
X16635100Y-6916250D01*
X16635200Y-6915950D01*
X16635200Y-6915750D01*
X16635300Y-6915450D01*
X16635400Y-6915250D01*
X16635500Y-6914950D01*
X16635700Y-6914750D01*
X16635800Y-6914550D01*
X16636000Y-6914350D01*
X16636100Y-6914150D01*
X16636300Y-6913950D01*
X16636500Y-6913750D01*
X16636700Y-6913550D01*
X16636900Y-6913350D01*
X16637100Y-6913250D01*
X16637300Y-6913050D01*
X16637500Y-6912950D01*
X16637700Y-6912750D01*
X16638000Y-6912650D01*
X16638200Y-6912550D01*
X16638500Y-6912450D01*
X16638700Y-6912450D01*
X16639000Y-6912350D01*
X16639200Y-6912350D01*
X16639500Y-6912250D01*
X16639700Y-6912250D01*
X16640000Y-6912250D01*
X16690000Y-6912250D01*
X16690300Y-6912250D01*
X16690500Y-6912250D01*
X16690800Y-6912350D01*
G37*
X16690800Y-7172350D02*
X16691000Y-7172350D01*
X16691300Y-7172450D01*
X16691500Y-7172450D01*
X16691800Y-7172550D01*
X16692000Y-7172650D01*
X16692300Y-7172750D01*
X16692500Y-7172950D01*
X16692700Y-7173050D01*
X16692900Y-7173250D01*
X16693100Y-7173350D01*
X16693300Y-7173550D01*
X16693500Y-7173750D01*
X16693700Y-7173950D01*
X16693900Y-7174150D01*
X16694000Y-7174350D01*
X16694200Y-7174550D01*
X16694300Y-7174750D01*
X16694500Y-7174950D01*
X16694600Y-7175250D01*
X16694700Y-7175450D01*
X16694800Y-7175750D01*
X16694800Y-7175950D01*
X16694900Y-7176250D01*
X16694900Y-7176450D01*
X16695000Y-7176750D01*
X16695000Y-7176950D01*
X16695000Y-7177250D01*
X16695000Y-7277250D01*
X16695000Y-7277550D01*
X16695000Y-7277750D01*
X16694900Y-7278050D01*
X16694900Y-7278250D01*
X16694800Y-7278550D01*
X16694800Y-7278750D01*
X16694700Y-7279050D01*
X16694600Y-7279250D01*
X16694500Y-7279550D01*
X16694300Y-7279750D01*
X16694200Y-7279950D01*
X16694000Y-7280150D01*
X16693900Y-7280350D01*
X16693700Y-7280550D01*
X16693500Y-7280750D01*
X16693300Y-7280950D01*
X16693100Y-7281150D01*
X16692900Y-7281250D01*
X16692700Y-7281450D01*
X16692500Y-7281550D01*
X16692300Y-7281750D01*
X16692000Y-7281850D01*
X16691800Y-7281950D01*
X16691500Y-7282050D01*
X16691300Y-7282050D01*
X16691000Y-7282150D01*
X16690800Y-7282150D01*
X16690500Y-7282250D01*
X16690300Y-7282250D01*
X16690000Y-7282250D01*
X16640000Y-7282250D01*
X16639700Y-7282250D01*
X16639500Y-7282250D01*
X16639200Y-7282150D01*
X16639000Y-7282150D01*
X16638700Y-7282050D01*
X16638500Y-7282050D01*
X16638200Y-7281950D01*
X16638000Y-7281850D01*
X16637700Y-7281750D01*
X16637500Y-7281550D01*
X16637300Y-7281450D01*
X16637100Y-7281250D01*
X16636900Y-7281150D01*
X16636700Y-7280950D01*
X16636500Y-7280750D01*
X16636300Y-7280550D01*
X16636100Y-7280350D01*
X16636000Y-7280150D01*
X16635800Y-7279950D01*
X16635700Y-7279750D01*
X16635500Y-7279550D01*
X16635400Y-7279250D01*
X16635300Y-7279050D01*
X16635200Y-7278750D01*
X16635200Y-7278550D01*
X16635100Y-7278250D01*
X16635100Y-7278050D01*
X16635000Y-7277750D01*
X16635000Y-7277550D01*
X16635000Y-7277250D01*
X16635000Y-7177250D01*
X16635000Y-7176950D01*
X16635000Y-7176750D01*
X16635100Y-7176450D01*
X16635100Y-7176250D01*
X16635200Y-7175950D01*
X16635200Y-7175750D01*
X16635300Y-7175450D01*
X16635400Y-7175250D01*
X16635500Y-7174950D01*
X16635700Y-7174750D01*
X16635800Y-7174550D01*
X16636000Y-7174350D01*
X16636100Y-7174150D01*
X16636300Y-7173950D01*
X16636500Y-7173750D01*
X16636700Y-7173550D01*
X16636900Y-7173350D01*
X16637100Y-7173250D01*
X16637300Y-7173050D01*
X16637500Y-7172950D01*
X16637700Y-7172750D01*
X16638000Y-7172650D01*
X16638200Y-7172550D01*
X16638500Y-7172450D01*
X16638700Y-7172450D01*
X16639000Y-7172350D01*
X16639200Y-7172350D01*
X16639500Y-7172250D01*
X16639700Y-7172250D01*
X16640000Y-7172250D01*
X16690000Y-7172250D01*
X16690300Y-7172250D01*
X16690500Y-7172250D01*
X16690800Y-7172350D01*
G36*
X16690800Y-7172350D02*
G01*
X16691000Y-7172350D01*
X16691300Y-7172450D01*
X16691500Y-7172450D01*
X16691800Y-7172550D01*
X16692000Y-7172650D01*
X16692300Y-7172750D01*
X16692500Y-7172950D01*
X16692700Y-7173050D01*
X16692900Y-7173250D01*
X16693100Y-7173350D01*
X16693300Y-7173550D01*
X16693500Y-7173750D01*
X16693700Y-7173950D01*
X16693900Y-7174150D01*
X16694000Y-7174350D01*
X16694200Y-7174550D01*
X16694300Y-7174750D01*
X16694500Y-7174950D01*
X16694600Y-7175250D01*
X16694700Y-7175450D01*
X16694800Y-7175750D01*
X16694800Y-7175950D01*
X16694900Y-7176250D01*
X16694900Y-7176450D01*
X16695000Y-7176750D01*
X16695000Y-7176950D01*
X16695000Y-7177250D01*
X16695000Y-7277250D01*
X16695000Y-7277550D01*
X16695000Y-7277750D01*
X16694900Y-7278050D01*
X16694900Y-7278250D01*
X16694800Y-7278550D01*
X16694800Y-7278750D01*
X16694700Y-7279050D01*
X16694600Y-7279250D01*
X16694500Y-7279550D01*
X16694300Y-7279750D01*
X16694200Y-7279950D01*
X16694000Y-7280150D01*
X16693900Y-7280350D01*
X16693700Y-7280550D01*
X16693500Y-7280750D01*
X16693300Y-7280950D01*
X16693100Y-7281150D01*
X16692900Y-7281250D01*
X16692700Y-7281450D01*
X16692500Y-7281550D01*
X16692300Y-7281750D01*
X16692000Y-7281850D01*
X16691800Y-7281950D01*
X16691500Y-7282050D01*
X16691300Y-7282050D01*
X16691000Y-7282150D01*
X16690800Y-7282150D01*
X16690500Y-7282250D01*
X16690300Y-7282250D01*
X16690000Y-7282250D01*
X16640000Y-7282250D01*
X16639700Y-7282250D01*
X16639500Y-7282250D01*
X16639200Y-7282150D01*
X16639000Y-7282150D01*
X16638700Y-7282050D01*
X16638500Y-7282050D01*
X16638200Y-7281950D01*
X16638000Y-7281850D01*
X16637700Y-7281750D01*
X16637500Y-7281550D01*
X16637300Y-7281450D01*
X16637100Y-7281250D01*
X16636900Y-7281150D01*
X16636700Y-7280950D01*
X16636500Y-7280750D01*
X16636300Y-7280550D01*
X16636100Y-7280350D01*
X16636000Y-7280150D01*
X16635800Y-7279950D01*
X16635700Y-7279750D01*
X16635500Y-7279550D01*
X16635400Y-7279250D01*
X16635300Y-7279050D01*
X16635200Y-7278750D01*
X16635200Y-7278550D01*
X16635100Y-7278250D01*
X16635100Y-7278050D01*
X16635000Y-7277750D01*
X16635000Y-7277550D01*
X16635000Y-7277250D01*
X16635000Y-7177250D01*
X16635000Y-7176950D01*
X16635000Y-7176750D01*
X16635100Y-7176450D01*
X16635100Y-7176250D01*
X16635200Y-7175950D01*
X16635200Y-7175750D01*
X16635300Y-7175450D01*
X16635400Y-7175250D01*
X16635500Y-7174950D01*
X16635700Y-7174750D01*
X16635800Y-7174550D01*
X16636000Y-7174350D01*
X16636100Y-7174150D01*
X16636300Y-7173950D01*
X16636500Y-7173750D01*
X16636700Y-7173550D01*
X16636900Y-7173350D01*
X16637100Y-7173250D01*
X16637300Y-7173050D01*
X16637500Y-7172950D01*
X16637700Y-7172750D01*
X16638000Y-7172650D01*
X16638200Y-7172550D01*
X16638500Y-7172450D01*
X16638700Y-7172450D01*
X16639000Y-7172350D01*
X16639200Y-7172350D01*
X16639500Y-7172250D01*
X16639700Y-7172250D01*
X16640000Y-7172250D01*
X16690000Y-7172250D01*
X16690300Y-7172250D01*
X16690500Y-7172250D01*
X16690800Y-7172350D01*
G37*
X16785800Y-6912350D02*
X16786000Y-6912350D01*
X16786300Y-6912450D01*
X16786500Y-6912450D01*
X16786800Y-6912550D01*
X16787000Y-6912650D01*
X16787300Y-6912750D01*
X16787500Y-6912950D01*
X16787700Y-6913050D01*
X16787900Y-6913250D01*
X16788100Y-6913350D01*
X16788300Y-6913550D01*
X16788500Y-6913750D01*
X16788700Y-6913950D01*
X16788900Y-6914150D01*
X16789000Y-6914350D01*
X16789200Y-6914550D01*
X16789300Y-6914750D01*
X16789500Y-6914950D01*
X16789600Y-6915250D01*
X16789700Y-6915450D01*
X16789800Y-6915750D01*
X16789800Y-6915950D01*
X16789900Y-6916250D01*
X16789900Y-6916450D01*
X16790000Y-6916750D01*
X16790000Y-6916950D01*
X16790000Y-6917250D01*
X16790000Y-7017250D01*
X16790000Y-7017550D01*
X16790000Y-7017750D01*
X16789900Y-7018050D01*
X16789900Y-7018250D01*
X16789800Y-7018550D01*
X16789800Y-7018750D01*
X16789700Y-7019050D01*
X16789600Y-7019250D01*
X16789500Y-7019550D01*
X16789300Y-7019750D01*
X16789200Y-7019950D01*
X16789000Y-7020150D01*
X16788900Y-7020350D01*
X16788700Y-7020550D01*
X16788500Y-7020750D01*
X16788300Y-7020950D01*
X16788100Y-7021150D01*
X16787900Y-7021250D01*
X16787700Y-7021450D01*
X16787500Y-7021550D01*
X16787300Y-7021750D01*
X16787000Y-7021850D01*
X16786800Y-7021950D01*
X16786500Y-7022050D01*
X16786300Y-7022050D01*
X16786000Y-7022150D01*
X16785800Y-7022150D01*
X16785500Y-7022250D01*
X16785300Y-7022250D01*
X16785000Y-7022250D01*
X16735000Y-7022250D01*
X16734700Y-7022250D01*
X16734500Y-7022250D01*
X16734200Y-7022150D01*
X16734000Y-7022150D01*
X16733700Y-7022050D01*
X16733500Y-7022050D01*
X16733200Y-7021950D01*
X16733000Y-7021850D01*
X16732700Y-7021750D01*
X16732500Y-7021550D01*
X16732300Y-7021450D01*
X16732100Y-7021250D01*
X16731900Y-7021150D01*
X16731700Y-7020950D01*
X16731500Y-7020750D01*
X16731300Y-7020550D01*
X16731100Y-7020350D01*
X16731000Y-7020150D01*
X16730800Y-7019950D01*
X16730700Y-7019750D01*
X16730500Y-7019550D01*
X16730400Y-7019250D01*
X16730300Y-7019050D01*
X16730200Y-7018750D01*
X16730200Y-7018550D01*
X16730100Y-7018250D01*
X16730100Y-7018050D01*
X16730000Y-7017750D01*
X16730000Y-7017550D01*
X16730000Y-7017250D01*
X16730000Y-6917250D01*
X16730000Y-6916950D01*
X16730000Y-6916750D01*
X16730100Y-6916450D01*
X16730100Y-6916250D01*
X16730200Y-6915950D01*
X16730200Y-6915750D01*
X16730300Y-6915450D01*
X16730400Y-6915250D01*
X16730500Y-6914950D01*
X16730700Y-6914750D01*
X16730800Y-6914550D01*
X16731000Y-6914350D01*
X16731100Y-6914150D01*
X16731300Y-6913950D01*
X16731500Y-6913750D01*
X16731700Y-6913550D01*
X16731900Y-6913350D01*
X16732100Y-6913250D01*
X16732300Y-6913050D01*
X16732500Y-6912950D01*
X16732700Y-6912750D01*
X16733000Y-6912650D01*
X16733200Y-6912550D01*
X16733500Y-6912450D01*
X16733700Y-6912450D01*
X16734000Y-6912350D01*
X16734200Y-6912350D01*
X16734500Y-6912250D01*
X16734700Y-6912250D01*
X16735000Y-6912250D01*
X16785000Y-6912250D01*
X16785300Y-6912250D01*
X16785500Y-6912250D01*
X16785800Y-6912350D01*
G36*
X16785800Y-6912350D02*
G01*
X16786000Y-6912350D01*
X16786300Y-6912450D01*
X16786500Y-6912450D01*
X16786800Y-6912550D01*
X16787000Y-6912650D01*
X16787300Y-6912750D01*
X16787500Y-6912950D01*
X16787700Y-6913050D01*
X16787900Y-6913250D01*
X16788100Y-6913350D01*
X16788300Y-6913550D01*
X16788500Y-6913750D01*
X16788700Y-6913950D01*
X16788900Y-6914150D01*
X16789000Y-6914350D01*
X16789200Y-6914550D01*
X16789300Y-6914750D01*
X16789500Y-6914950D01*
X16789600Y-6915250D01*
X16789700Y-6915450D01*
X16789800Y-6915750D01*
X16789800Y-6915950D01*
X16789900Y-6916250D01*
X16789900Y-6916450D01*
X16790000Y-6916750D01*
X16790000Y-6916950D01*
X16790000Y-6917250D01*
X16790000Y-7017250D01*
X16790000Y-7017550D01*
X16790000Y-7017750D01*
X16789900Y-7018050D01*
X16789900Y-7018250D01*
X16789800Y-7018550D01*
X16789800Y-7018750D01*
X16789700Y-7019050D01*
X16789600Y-7019250D01*
X16789500Y-7019550D01*
X16789300Y-7019750D01*
X16789200Y-7019950D01*
X16789000Y-7020150D01*
X16788900Y-7020350D01*
X16788700Y-7020550D01*
X16788500Y-7020750D01*
X16788300Y-7020950D01*
X16788100Y-7021150D01*
X16787900Y-7021250D01*
X16787700Y-7021450D01*
X16787500Y-7021550D01*
X16787300Y-7021750D01*
X16787000Y-7021850D01*
X16786800Y-7021950D01*
X16786500Y-7022050D01*
X16786300Y-7022050D01*
X16786000Y-7022150D01*
X16785800Y-7022150D01*
X16785500Y-7022250D01*
X16785300Y-7022250D01*
X16785000Y-7022250D01*
X16735000Y-7022250D01*
X16734700Y-7022250D01*
X16734500Y-7022250D01*
X16734200Y-7022150D01*
X16734000Y-7022150D01*
X16733700Y-7022050D01*
X16733500Y-7022050D01*
X16733200Y-7021950D01*
X16733000Y-7021850D01*
X16732700Y-7021750D01*
X16732500Y-7021550D01*
X16732300Y-7021450D01*
X16732100Y-7021250D01*
X16731900Y-7021150D01*
X16731700Y-7020950D01*
X16731500Y-7020750D01*
X16731300Y-7020550D01*
X16731100Y-7020350D01*
X16731000Y-7020150D01*
X16730800Y-7019950D01*
X16730700Y-7019750D01*
X16730500Y-7019550D01*
X16730400Y-7019250D01*
X16730300Y-7019050D01*
X16730200Y-7018750D01*
X16730200Y-7018550D01*
X16730100Y-7018250D01*
X16730100Y-7018050D01*
X16730000Y-7017750D01*
X16730000Y-7017550D01*
X16730000Y-7017250D01*
X16730000Y-6917250D01*
X16730000Y-6916950D01*
X16730000Y-6916750D01*
X16730100Y-6916450D01*
X16730100Y-6916250D01*
X16730200Y-6915950D01*
X16730200Y-6915750D01*
X16730300Y-6915450D01*
X16730400Y-6915250D01*
X16730500Y-6914950D01*
X16730700Y-6914750D01*
X16730800Y-6914550D01*
X16731000Y-6914350D01*
X16731100Y-6914150D01*
X16731300Y-6913950D01*
X16731500Y-6913750D01*
X16731700Y-6913550D01*
X16731900Y-6913350D01*
X16732100Y-6913250D01*
X16732300Y-6913050D01*
X16732500Y-6912950D01*
X16732700Y-6912750D01*
X16733000Y-6912650D01*
X16733200Y-6912550D01*
X16733500Y-6912450D01*
X16733700Y-6912450D01*
X16734000Y-6912350D01*
X16734200Y-6912350D01*
X16734500Y-6912250D01*
X16734700Y-6912250D01*
X16735000Y-6912250D01*
X16785000Y-6912250D01*
X16785300Y-6912250D01*
X16785500Y-6912250D01*
X16785800Y-6912350D01*
G37*
X16785800Y-7172350D02*
X16786000Y-7172350D01*
X16786300Y-7172450D01*
X16786500Y-7172450D01*
X16786800Y-7172550D01*
X16787000Y-7172650D01*
X16787300Y-7172750D01*
X16787500Y-7172950D01*
X16787700Y-7173050D01*
X16787900Y-7173250D01*
X16788100Y-7173350D01*
X16788300Y-7173550D01*
X16788500Y-7173750D01*
X16788700Y-7173950D01*
X16788900Y-7174150D01*
X16789000Y-7174350D01*
X16789200Y-7174550D01*
X16789300Y-7174750D01*
X16789500Y-7174950D01*
X16789600Y-7175250D01*
X16789700Y-7175450D01*
X16789800Y-7175750D01*
X16789800Y-7175950D01*
X16789900Y-7176250D01*
X16789900Y-7176450D01*
X16790000Y-7176750D01*
X16790000Y-7176950D01*
X16790000Y-7177250D01*
X16790000Y-7277250D01*
X16790000Y-7277550D01*
X16790000Y-7277750D01*
X16789900Y-7278050D01*
X16789900Y-7278250D01*
X16789800Y-7278550D01*
X16789800Y-7278750D01*
X16789700Y-7279050D01*
X16789600Y-7279250D01*
X16789500Y-7279550D01*
X16789300Y-7279750D01*
X16789200Y-7279950D01*
X16789000Y-7280150D01*
X16788900Y-7280350D01*
X16788700Y-7280550D01*
X16788500Y-7280750D01*
X16788300Y-7280950D01*
X16788100Y-7281150D01*
X16787900Y-7281250D01*
X16787700Y-7281450D01*
X16787500Y-7281550D01*
X16787300Y-7281750D01*
X16787000Y-7281850D01*
X16786800Y-7281950D01*
X16786500Y-7282050D01*
X16786300Y-7282050D01*
X16786000Y-7282150D01*
X16785800Y-7282150D01*
X16785500Y-7282250D01*
X16785300Y-7282250D01*
X16785000Y-7282250D01*
X16735000Y-7282250D01*
X16734700Y-7282250D01*
X16734500Y-7282250D01*
X16734200Y-7282150D01*
X16734000Y-7282150D01*
X16733700Y-7282050D01*
X16733500Y-7282050D01*
X16733200Y-7281950D01*
X16733000Y-7281850D01*
X16732700Y-7281750D01*
X16732500Y-7281550D01*
X16732300Y-7281450D01*
X16732100Y-7281250D01*
X16731900Y-7281150D01*
X16731700Y-7280950D01*
X16731500Y-7280750D01*
X16731300Y-7280550D01*
X16731100Y-7280350D01*
X16731000Y-7280150D01*
X16730800Y-7279950D01*
X16730700Y-7279750D01*
X16730500Y-7279550D01*
X16730400Y-7279250D01*
X16730300Y-7279050D01*
X16730200Y-7278750D01*
X16730200Y-7278550D01*
X16730100Y-7278250D01*
X16730100Y-7278050D01*
X16730000Y-7277750D01*
X16730000Y-7277550D01*
X16730000Y-7277250D01*
X16730000Y-7177250D01*
X16730000Y-7176950D01*
X16730000Y-7176750D01*
X16730100Y-7176450D01*
X16730100Y-7176250D01*
X16730200Y-7175950D01*
X16730200Y-7175750D01*
X16730300Y-7175450D01*
X16730400Y-7175250D01*
X16730500Y-7174950D01*
X16730700Y-7174750D01*
X16730800Y-7174550D01*
X16731000Y-7174350D01*
X16731100Y-7174150D01*
X16731300Y-7173950D01*
X16731500Y-7173750D01*
X16731700Y-7173550D01*
X16731900Y-7173350D01*
X16732100Y-7173250D01*
X16732300Y-7173050D01*
X16732500Y-7172950D01*
X16732700Y-7172750D01*
X16733000Y-7172650D01*
X16733200Y-7172550D01*
X16733500Y-7172450D01*
X16733700Y-7172450D01*
X16734000Y-7172350D01*
X16734200Y-7172350D01*
X16734500Y-7172250D01*
X16734700Y-7172250D01*
X16735000Y-7172250D01*
X16785000Y-7172250D01*
X16785300Y-7172250D01*
X16785500Y-7172250D01*
X16785800Y-7172350D01*
G36*
X16785800Y-7172350D02*
G01*
X16786000Y-7172350D01*
X16786300Y-7172450D01*
X16786500Y-7172450D01*
X16786800Y-7172550D01*
X16787000Y-7172650D01*
X16787300Y-7172750D01*
X16787500Y-7172950D01*
X16787700Y-7173050D01*
X16787900Y-7173250D01*
X16788100Y-7173350D01*
X16788300Y-7173550D01*
X16788500Y-7173750D01*
X16788700Y-7173950D01*
X16788900Y-7174150D01*
X16789000Y-7174350D01*
X16789200Y-7174550D01*
X16789300Y-7174750D01*
X16789500Y-7174950D01*
X16789600Y-7175250D01*
X16789700Y-7175450D01*
X16789800Y-7175750D01*
X16789800Y-7175950D01*
X16789900Y-7176250D01*
X16789900Y-7176450D01*
X16790000Y-7176750D01*
X16790000Y-7176950D01*
X16790000Y-7177250D01*
X16790000Y-7277250D01*
X16790000Y-7277550D01*
X16790000Y-7277750D01*
X16789900Y-7278050D01*
X16789900Y-7278250D01*
X16789800Y-7278550D01*
X16789800Y-7278750D01*
X16789700Y-7279050D01*
X16789600Y-7279250D01*
X16789500Y-7279550D01*
X16789300Y-7279750D01*
X16789200Y-7279950D01*
X16789000Y-7280150D01*
X16788900Y-7280350D01*
X16788700Y-7280550D01*
X16788500Y-7280750D01*
X16788300Y-7280950D01*
X16788100Y-7281150D01*
X16787900Y-7281250D01*
X16787700Y-7281450D01*
X16787500Y-7281550D01*
X16787300Y-7281750D01*
X16787000Y-7281850D01*
X16786800Y-7281950D01*
X16786500Y-7282050D01*
X16786300Y-7282050D01*
X16786000Y-7282150D01*
X16785800Y-7282150D01*
X16785500Y-7282250D01*
X16785300Y-7282250D01*
X16785000Y-7282250D01*
X16735000Y-7282250D01*
X16734700Y-7282250D01*
X16734500Y-7282250D01*
X16734200Y-7282150D01*
X16734000Y-7282150D01*
X16733700Y-7282050D01*
X16733500Y-7282050D01*
X16733200Y-7281950D01*
X16733000Y-7281850D01*
X16732700Y-7281750D01*
X16732500Y-7281550D01*
X16732300Y-7281450D01*
X16732100Y-7281250D01*
X16731900Y-7281150D01*
X16731700Y-7280950D01*
X16731500Y-7280750D01*
X16731300Y-7280550D01*
X16731100Y-7280350D01*
X16731000Y-7280150D01*
X16730800Y-7279950D01*
X16730700Y-7279750D01*
X16730500Y-7279550D01*
X16730400Y-7279250D01*
X16730300Y-7279050D01*
X16730200Y-7278750D01*
X16730200Y-7278550D01*
X16730100Y-7278250D01*
X16730100Y-7278050D01*
X16730000Y-7277750D01*
X16730000Y-7277550D01*
X16730000Y-7277250D01*
X16730000Y-7177250D01*
X16730000Y-7176950D01*
X16730000Y-7176750D01*
X16730100Y-7176450D01*
X16730100Y-7176250D01*
X16730200Y-7175950D01*
X16730200Y-7175750D01*
X16730300Y-7175450D01*
X16730400Y-7175250D01*
X16730500Y-7174950D01*
X16730700Y-7174750D01*
X16730800Y-7174550D01*
X16731000Y-7174350D01*
X16731100Y-7174150D01*
X16731300Y-7173950D01*
X16731500Y-7173750D01*
X16731700Y-7173550D01*
X16731900Y-7173350D01*
X16732100Y-7173250D01*
X16732300Y-7173050D01*
X16732500Y-7172950D01*
X16732700Y-7172750D01*
X16733000Y-7172650D01*
X16733200Y-7172550D01*
X16733500Y-7172450D01*
X16733700Y-7172450D01*
X16734000Y-7172350D01*
X16734200Y-7172350D01*
X16734500Y-7172250D01*
X16734700Y-7172250D01*
X16735000Y-7172250D01*
X16785000Y-7172250D01*
X16785300Y-7172250D01*
X16785500Y-7172250D01*
X16785800Y-7172350D01*
G37*
X16880800Y-6912350D02*
X16881000Y-6912350D01*
X16881300Y-6912450D01*
X16881500Y-6912450D01*
X16881800Y-6912550D01*
X16882000Y-6912650D01*
X16882300Y-6912750D01*
X16882500Y-6912950D01*
X16882700Y-6913050D01*
X16882900Y-6913250D01*
X16883100Y-6913350D01*
X16883300Y-6913550D01*
X16883500Y-6913750D01*
X16883700Y-6913950D01*
X16883900Y-6914150D01*
X16884000Y-6914350D01*
X16884200Y-6914550D01*
X16884300Y-6914750D01*
X16884500Y-6914950D01*
X16884600Y-6915250D01*
X16884700Y-6915450D01*
X16884800Y-6915750D01*
X16884800Y-6915950D01*
X16884900Y-6916250D01*
X16884900Y-6916450D01*
X16885000Y-6916750D01*
X16885000Y-6916950D01*
X16885000Y-6917250D01*
X16885000Y-7017250D01*
X16885000Y-7017550D01*
X16885000Y-7017750D01*
X16884900Y-7018050D01*
X16884900Y-7018250D01*
X16884800Y-7018550D01*
X16884800Y-7018750D01*
X16884700Y-7019050D01*
X16884600Y-7019250D01*
X16884500Y-7019550D01*
X16884300Y-7019750D01*
X16884200Y-7019950D01*
X16884000Y-7020150D01*
X16883900Y-7020350D01*
X16883700Y-7020550D01*
X16883500Y-7020750D01*
X16883300Y-7020950D01*
X16883100Y-7021150D01*
X16882900Y-7021250D01*
X16882700Y-7021450D01*
X16882500Y-7021550D01*
X16882300Y-7021750D01*
X16882000Y-7021850D01*
X16881800Y-7021950D01*
X16881500Y-7022050D01*
X16881300Y-7022050D01*
X16881000Y-7022150D01*
X16880800Y-7022150D01*
X16880500Y-7022250D01*
X16880300Y-7022250D01*
X16880000Y-7022250D01*
X16830000Y-7022250D01*
X16829700Y-7022250D01*
X16829500Y-7022250D01*
X16829200Y-7022150D01*
X16829000Y-7022150D01*
X16828700Y-7022050D01*
X16828500Y-7022050D01*
X16828200Y-7021950D01*
X16828000Y-7021850D01*
X16827700Y-7021750D01*
X16827500Y-7021550D01*
X16827300Y-7021450D01*
X16827100Y-7021250D01*
X16826900Y-7021150D01*
X16826700Y-7020950D01*
X16826500Y-7020750D01*
X16826300Y-7020550D01*
X16826100Y-7020350D01*
X16826000Y-7020150D01*
X16825800Y-7019950D01*
X16825700Y-7019750D01*
X16825500Y-7019550D01*
X16825400Y-7019250D01*
X16825300Y-7019050D01*
X16825200Y-7018750D01*
X16825200Y-7018550D01*
X16825100Y-7018250D01*
X16825100Y-7018050D01*
X16825000Y-7017750D01*
X16825000Y-7017550D01*
X16825000Y-7017250D01*
X16825000Y-6917250D01*
X16825000Y-6916950D01*
X16825000Y-6916750D01*
X16825100Y-6916450D01*
X16825100Y-6916250D01*
X16825200Y-6915950D01*
X16825200Y-6915750D01*
X16825300Y-6915450D01*
X16825400Y-6915250D01*
X16825500Y-6914950D01*
X16825700Y-6914750D01*
X16825800Y-6914550D01*
X16826000Y-6914350D01*
X16826100Y-6914150D01*
X16826300Y-6913950D01*
X16826500Y-6913750D01*
X16826700Y-6913550D01*
X16826900Y-6913350D01*
X16827100Y-6913250D01*
X16827300Y-6913050D01*
X16827500Y-6912950D01*
X16827700Y-6912750D01*
X16828000Y-6912650D01*
X16828200Y-6912550D01*
X16828500Y-6912450D01*
X16828700Y-6912450D01*
X16829000Y-6912350D01*
X16829200Y-6912350D01*
X16829500Y-6912250D01*
X16829700Y-6912250D01*
X16830000Y-6912250D01*
X16880000Y-6912250D01*
X16880300Y-6912250D01*
X16880500Y-6912250D01*
X16880800Y-6912350D01*
G36*
X16880800Y-6912350D02*
G01*
X16881000Y-6912350D01*
X16881300Y-6912450D01*
X16881500Y-6912450D01*
X16881800Y-6912550D01*
X16882000Y-6912650D01*
X16882300Y-6912750D01*
X16882500Y-6912950D01*
X16882700Y-6913050D01*
X16882900Y-6913250D01*
X16883100Y-6913350D01*
X16883300Y-6913550D01*
X16883500Y-6913750D01*
X16883700Y-6913950D01*
X16883900Y-6914150D01*
X16884000Y-6914350D01*
X16884200Y-6914550D01*
X16884300Y-6914750D01*
X16884500Y-6914950D01*
X16884600Y-6915250D01*
X16884700Y-6915450D01*
X16884800Y-6915750D01*
X16884800Y-6915950D01*
X16884900Y-6916250D01*
X16884900Y-6916450D01*
X16885000Y-6916750D01*
X16885000Y-6916950D01*
X16885000Y-6917250D01*
X16885000Y-7017250D01*
X16885000Y-7017550D01*
X16885000Y-7017750D01*
X16884900Y-7018050D01*
X16884900Y-7018250D01*
X16884800Y-7018550D01*
X16884800Y-7018750D01*
X16884700Y-7019050D01*
X16884600Y-7019250D01*
X16884500Y-7019550D01*
X16884300Y-7019750D01*
X16884200Y-7019950D01*
X16884000Y-7020150D01*
X16883900Y-7020350D01*
X16883700Y-7020550D01*
X16883500Y-7020750D01*
X16883300Y-7020950D01*
X16883100Y-7021150D01*
X16882900Y-7021250D01*
X16882700Y-7021450D01*
X16882500Y-7021550D01*
X16882300Y-7021750D01*
X16882000Y-7021850D01*
X16881800Y-7021950D01*
X16881500Y-7022050D01*
X16881300Y-7022050D01*
X16881000Y-7022150D01*
X16880800Y-7022150D01*
X16880500Y-7022250D01*
X16880300Y-7022250D01*
X16880000Y-7022250D01*
X16830000Y-7022250D01*
X16829700Y-7022250D01*
X16829500Y-7022250D01*
X16829200Y-7022150D01*
X16829000Y-7022150D01*
X16828700Y-7022050D01*
X16828500Y-7022050D01*
X16828200Y-7021950D01*
X16828000Y-7021850D01*
X16827700Y-7021750D01*
X16827500Y-7021550D01*
X16827300Y-7021450D01*
X16827100Y-7021250D01*
X16826900Y-7021150D01*
X16826700Y-7020950D01*
X16826500Y-7020750D01*
X16826300Y-7020550D01*
X16826100Y-7020350D01*
X16826000Y-7020150D01*
X16825800Y-7019950D01*
X16825700Y-7019750D01*
X16825500Y-7019550D01*
X16825400Y-7019250D01*
X16825300Y-7019050D01*
X16825200Y-7018750D01*
X16825200Y-7018550D01*
X16825100Y-7018250D01*
X16825100Y-7018050D01*
X16825000Y-7017750D01*
X16825000Y-7017550D01*
X16825000Y-7017250D01*
X16825000Y-6917250D01*
X16825000Y-6916950D01*
X16825000Y-6916750D01*
X16825100Y-6916450D01*
X16825100Y-6916250D01*
X16825200Y-6915950D01*
X16825200Y-6915750D01*
X16825300Y-6915450D01*
X16825400Y-6915250D01*
X16825500Y-6914950D01*
X16825700Y-6914750D01*
X16825800Y-6914550D01*
X16826000Y-6914350D01*
X16826100Y-6914150D01*
X16826300Y-6913950D01*
X16826500Y-6913750D01*
X16826700Y-6913550D01*
X16826900Y-6913350D01*
X16827100Y-6913250D01*
X16827300Y-6913050D01*
X16827500Y-6912950D01*
X16827700Y-6912750D01*
X16828000Y-6912650D01*
X16828200Y-6912550D01*
X16828500Y-6912450D01*
X16828700Y-6912450D01*
X16829000Y-6912350D01*
X16829200Y-6912350D01*
X16829500Y-6912250D01*
X16829700Y-6912250D01*
X16830000Y-6912250D01*
X16880000Y-6912250D01*
X16880300Y-6912250D01*
X16880500Y-6912250D01*
X16880800Y-6912350D01*
G37*
X16880800Y-7172350D02*
X16881000Y-7172350D01*
X16881300Y-7172450D01*
X16881500Y-7172450D01*
X16881800Y-7172550D01*
X16882000Y-7172650D01*
X16882300Y-7172750D01*
X16882500Y-7172950D01*
X16882700Y-7173050D01*
X16882900Y-7173250D01*
X16883100Y-7173350D01*
X16883300Y-7173550D01*
X16883500Y-7173750D01*
X16883700Y-7173950D01*
X16883900Y-7174150D01*
X16884000Y-7174350D01*
X16884200Y-7174550D01*
X16884300Y-7174750D01*
X16884500Y-7174950D01*
X16884600Y-7175250D01*
X16884700Y-7175450D01*
X16884800Y-7175750D01*
X16884800Y-7175950D01*
X16884900Y-7176250D01*
X16884900Y-7176450D01*
X16885000Y-7176750D01*
X16885000Y-7176950D01*
X16885000Y-7177250D01*
X16885000Y-7277250D01*
X16885000Y-7277550D01*
X16885000Y-7277750D01*
X16884900Y-7278050D01*
X16884900Y-7278250D01*
X16884800Y-7278550D01*
X16884800Y-7278750D01*
X16884700Y-7279050D01*
X16884600Y-7279250D01*
X16884500Y-7279550D01*
X16884300Y-7279750D01*
X16884200Y-7279950D01*
X16884000Y-7280150D01*
X16883900Y-7280350D01*
X16883700Y-7280550D01*
X16883500Y-7280750D01*
X16883300Y-7280950D01*
X16883100Y-7281150D01*
X16882900Y-7281250D01*
X16882700Y-7281450D01*
X16882500Y-7281550D01*
X16882300Y-7281750D01*
X16882000Y-7281850D01*
X16881800Y-7281950D01*
X16881500Y-7282050D01*
X16881300Y-7282050D01*
X16881000Y-7282150D01*
X16880800Y-7282150D01*
X16880500Y-7282250D01*
X16880300Y-7282250D01*
X16880000Y-7282250D01*
X16830000Y-7282250D01*
X16829700Y-7282250D01*
X16829500Y-7282250D01*
X16829200Y-7282150D01*
X16829000Y-7282150D01*
X16828700Y-7282050D01*
X16828500Y-7282050D01*
X16828200Y-7281950D01*
X16828000Y-7281850D01*
X16827700Y-7281750D01*
X16827500Y-7281550D01*
X16827300Y-7281450D01*
X16827100Y-7281250D01*
X16826900Y-7281150D01*
X16826700Y-7280950D01*
X16826500Y-7280750D01*
X16826300Y-7280550D01*
X16826100Y-7280350D01*
X16826000Y-7280150D01*
X16825800Y-7279950D01*
X16825700Y-7279750D01*
X16825500Y-7279550D01*
X16825400Y-7279250D01*
X16825300Y-7279050D01*
X16825200Y-7278750D01*
X16825200Y-7278550D01*
X16825100Y-7278250D01*
X16825100Y-7278050D01*
X16825000Y-7277750D01*
X16825000Y-7277550D01*
X16825000Y-7277250D01*
X16825000Y-7177250D01*
X16825000Y-7176950D01*
X16825000Y-7176750D01*
X16825100Y-7176450D01*
X16825100Y-7176250D01*
X16825200Y-7175950D01*
X16825200Y-7175750D01*
X16825300Y-7175450D01*
X16825400Y-7175250D01*
X16825500Y-7174950D01*
X16825700Y-7174750D01*
X16825800Y-7174550D01*
X16826000Y-7174350D01*
X16826100Y-7174150D01*
X16826300Y-7173950D01*
X16826500Y-7173750D01*
X16826700Y-7173550D01*
X16826900Y-7173350D01*
X16827100Y-7173250D01*
X16827300Y-7173050D01*
X16827500Y-7172950D01*
X16827700Y-7172750D01*
X16828000Y-7172650D01*
X16828200Y-7172550D01*
X16828500Y-7172450D01*
X16828700Y-7172450D01*
X16829000Y-7172350D01*
X16829200Y-7172350D01*
X16829500Y-7172250D01*
X16829700Y-7172250D01*
X16830000Y-7172250D01*
X16880000Y-7172250D01*
X16880300Y-7172250D01*
X16880500Y-7172250D01*
X16880800Y-7172350D01*
G36*
X16880800Y-7172350D02*
G01*
X16881000Y-7172350D01*
X16881300Y-7172450D01*
X16881500Y-7172450D01*
X16881800Y-7172550D01*
X16882000Y-7172650D01*
X16882300Y-7172750D01*
X16882500Y-7172950D01*
X16882700Y-7173050D01*
X16882900Y-7173250D01*
X16883100Y-7173350D01*
X16883300Y-7173550D01*
X16883500Y-7173750D01*
X16883700Y-7173950D01*
X16883900Y-7174150D01*
X16884000Y-7174350D01*
X16884200Y-7174550D01*
X16884300Y-7174750D01*
X16884500Y-7174950D01*
X16884600Y-7175250D01*
X16884700Y-7175450D01*
X16884800Y-7175750D01*
X16884800Y-7175950D01*
X16884900Y-7176250D01*
X16884900Y-7176450D01*
X16885000Y-7176750D01*
X16885000Y-7176950D01*
X16885000Y-7177250D01*
X16885000Y-7277250D01*
X16885000Y-7277550D01*
X16885000Y-7277750D01*
X16884900Y-7278050D01*
X16884900Y-7278250D01*
X16884800Y-7278550D01*
X16884800Y-7278750D01*
X16884700Y-7279050D01*
X16884600Y-7279250D01*
X16884500Y-7279550D01*
X16884300Y-7279750D01*
X16884200Y-7279950D01*
X16884000Y-7280150D01*
X16883900Y-7280350D01*
X16883700Y-7280550D01*
X16883500Y-7280750D01*
X16883300Y-7280950D01*
X16883100Y-7281150D01*
X16882900Y-7281250D01*
X16882700Y-7281450D01*
X16882500Y-7281550D01*
X16882300Y-7281750D01*
X16882000Y-7281850D01*
X16881800Y-7281950D01*
X16881500Y-7282050D01*
X16881300Y-7282050D01*
X16881000Y-7282150D01*
X16880800Y-7282150D01*
X16880500Y-7282250D01*
X16880300Y-7282250D01*
X16880000Y-7282250D01*
X16830000Y-7282250D01*
X16829700Y-7282250D01*
X16829500Y-7282250D01*
X16829200Y-7282150D01*
X16829000Y-7282150D01*
X16828700Y-7282050D01*
X16828500Y-7282050D01*
X16828200Y-7281950D01*
X16828000Y-7281850D01*
X16827700Y-7281750D01*
X16827500Y-7281550D01*
X16827300Y-7281450D01*
X16827100Y-7281250D01*
X16826900Y-7281150D01*
X16826700Y-7280950D01*
X16826500Y-7280750D01*
X16826300Y-7280550D01*
X16826100Y-7280350D01*
X16826000Y-7280150D01*
X16825800Y-7279950D01*
X16825700Y-7279750D01*
X16825500Y-7279550D01*
X16825400Y-7279250D01*
X16825300Y-7279050D01*
X16825200Y-7278750D01*
X16825200Y-7278550D01*
X16825100Y-7278250D01*
X16825100Y-7278050D01*
X16825000Y-7277750D01*
X16825000Y-7277550D01*
X16825000Y-7277250D01*
X16825000Y-7177250D01*
X16825000Y-7176950D01*
X16825000Y-7176750D01*
X16825100Y-7176450D01*
X16825100Y-7176250D01*
X16825200Y-7175950D01*
X16825200Y-7175750D01*
X16825300Y-7175450D01*
X16825400Y-7175250D01*
X16825500Y-7174950D01*
X16825700Y-7174750D01*
X16825800Y-7174550D01*
X16826000Y-7174350D01*
X16826100Y-7174150D01*
X16826300Y-7173950D01*
X16826500Y-7173750D01*
X16826700Y-7173550D01*
X16826900Y-7173350D01*
X16827100Y-7173250D01*
X16827300Y-7173050D01*
X16827500Y-7172950D01*
X16827700Y-7172750D01*
X16828000Y-7172650D01*
X16828200Y-7172550D01*
X16828500Y-7172450D01*
X16828700Y-7172450D01*
X16829000Y-7172350D01*
X16829200Y-7172350D01*
X16829500Y-7172250D01*
X16829700Y-7172250D01*
X16830000Y-7172250D01*
X16880000Y-7172250D01*
X16880300Y-7172250D01*
X16880500Y-7172250D01*
X16880800Y-7172350D01*
G37*
%TD*%
D11*
%TO.C,D15*%
X12452500Y-11720000D03*
D12*
X12947500Y-11720000D03*
%TD*%
D13*
%TO.C,Q4*%
X15297000Y-13291000D03*
X15297000Y-13101000D03*
X15639000Y-13196000D03*
%TD*%
D14*
%TO.C,R25*%
X15887000Y-13197000D03*
X16197000Y-13197000D03*
%TD*%
D15*
%TO.C,L1*%
X12714725Y-7653179D03*
D16*
X12714725Y-8315678D03*
%TD*%
D17*
%TO.C,Q3*%
X16389500Y-12854000D03*
X16579500Y-12854000D03*
X16484500Y-13196000D03*
%TD*%
D18*
%TO.C,R8*%
X16920000Y-13746250D03*
X16920000Y-13928750D03*
%TD*%
D19*
%TO.C,C9*%
X17015000Y-7331250D03*
X17015000Y-7158750D03*
%TD*%
D18*
%TO.C,R11*%
X17800000Y-13746250D03*
X17800000Y-13928750D03*
%TD*%
D20*
%TO.C,C13*%
X12780000Y-12733750D03*
X12780000Y-12906250D03*
%TD*%
D21*
%TO.C,R2*%
X13371250Y-12730000D03*
X13188750Y-12730000D03*
%TD*%
D19*
%TO.C,C11*%
X12780000Y-12556250D03*
X12780000Y-12383750D03*
%TD*%
D22*
%TO.C,R23*%
X13871750Y-9329000D03*
X14054250Y-9329000D03*
%TD*%
D23*
%TO.C,Q1*%
X16305000Y-12500000D03*
X16305000Y-12310000D03*
X16605000Y-12405000D03*
%TD*%
D24*
%TO.C,C10*%
X17328640Y-7643622D03*
X17156140Y-7643622D03*
%TD*%
D20*
%TO.C,C2*%
X15286000Y-13493750D03*
X15286000Y-13666250D03*
%TD*%
D19*
%TO.C,C4*%
X13630000Y-7140000D03*
X13630000Y-6967500D03*
%TD*%
D25*
%TO.C,J2*%
X12666400Y-8744600D03*
X12161400Y-8744600D03*
X12666400Y-8998600D03*
X12161400Y-8998600D03*
X12666400Y-9252600D03*
X12161400Y-9252600D03*
X12666400Y-9506600D03*
X12161400Y-9506600D03*
X12666400Y-9760600D03*
X12161400Y-9760600D03*
X12666400Y-10014600D03*
X12161400Y-10014600D03*
X12666400Y-10268600D03*
X12161400Y-10268600D03*
X12666400Y-10522600D03*
X12161400Y-10522600D03*
X12666400Y-10776600D03*
X12161400Y-10776600D03*
X12666400Y-11030600D03*
X12161400Y-11030600D03*
X12666400Y-11284600D03*
X12161400Y-11284600D03*
%TD*%
D26*
%TO.C,C14*%
X14919750Y-9319000D03*
X15092250Y-9319000D03*
%TD*%
D27*
%TO.C,U4*%
X12255000Y-12825000D03*
X12255000Y-12730000D03*
X12255000Y-12635000D03*
X12525000Y-12635000D03*
X12525000Y-12730000D03*
X12525000Y-12825000D03*
%TD*%
D28*
%TO.C,R21*%
X12940000Y-12911250D03*
X12940000Y-12728750D03*
%TD*%
D22*
%TO.C,R19*%
X16478750Y-7450000D03*
X16661250Y-7450000D03*
%TD*%
D21*
%TO.C,R16*%
X16652082Y-12655989D03*
X16469582Y-12655989D03*
%TD*%
D24*
%TO.C,C16*%
X14376250Y-12580000D03*
X14203750Y-12580000D03*
%TD*%
D29*
%TO.C,U2*%
X12877750Y-6778500D03*
X13004750Y-6778500D03*
X13131750Y-6778500D03*
X13258750Y-6778500D03*
X13258750Y-7293500D03*
X13131750Y-7293500D03*
X13004750Y-7293500D03*
X12877750Y-7293500D03*
%TD*%
D21*
%TO.C,R28*%
X13791250Y-12300000D03*
X13608750Y-12300000D03*
%TD*%
D30*
%TO.C,D5*%
X14690000Y-10215000D03*
X14690000Y-10465000D03*
%TD*%
D24*
%TO.C,C7*%
X16716250Y-6806000D03*
X16543750Y-6806000D03*
%TD*%
D31*
%TO.C,Q5*%
X13474750Y-9549000D03*
X13664750Y-9549000D03*
X13569750Y-9849000D03*
%TD*%
D22*
%TO.C,R27*%
X13608750Y-12147000D03*
X13791250Y-12147000D03*
%TD*%
D28*
%TO.C,R20*%
X12940000Y-12561250D03*
X12940000Y-12378750D03*
%TD*%
D22*
%TO.C,R29*%
X14198750Y-12415649D03*
X14381250Y-12415649D03*
%TD*%
D32*
%TO.C,C1*%
X15121250Y-13525000D03*
X14808750Y-13525000D03*
%TD*%
%TO.C,C3*%
X12692500Y-6781000D03*
X12380000Y-6781000D03*
%TD*%
D33*
%TO.C,J5*%
X13938000Y-8565500D03*
X14192000Y-8234500D03*
X14446000Y-8565500D03*
X14700000Y-8234500D03*
X14954000Y-8565500D03*
X15208000Y-8234500D03*
X15462000Y-8565500D03*
%TD*%
D34*
%TO.C,L2*%
X17031250Y-6920000D03*
X17328750Y-6920000D03*
%TD*%
D35*
%TO.C,C8*%
X13154250Y-8985000D03*
X13795750Y-8985000D03*
%TD*%
D18*
%TO.C,R5*%
X13790000Y-11803750D03*
X13790000Y-11986250D03*
%TD*%
D25*
%TO.C,J4*%
X17238500Y-8744600D03*
X16733500Y-8744600D03*
X17238500Y-8998600D03*
X16733500Y-8998600D03*
X17238500Y-9252600D03*
X16733500Y-9252600D03*
X17238500Y-9506600D03*
X16733500Y-9506600D03*
X17238500Y-9760600D03*
X16733500Y-9760600D03*
X17238500Y-10014600D03*
X16733500Y-10014600D03*
X17238500Y-10268600D03*
X16733500Y-10268600D03*
X17238500Y-10522600D03*
X16733500Y-10522600D03*
X17238500Y-10776600D03*
X16733500Y-10776600D03*
X17238500Y-11030600D03*
X16733500Y-11030600D03*
X17238500Y-11284600D03*
X16733500Y-11284600D03*
X17238500Y-11538600D03*
X16733500Y-11538600D03*
X17238500Y-11792600D03*
X16733500Y-11792600D03*
X17238500Y-12046600D03*
X16733500Y-12046600D03*
%TD*%
D18*
%TO.C,R6*%
X16402500Y-13746250D03*
X16402500Y-13928750D03*
%TD*%
D23*
%TO.C,Q2*%
X12395000Y-6572000D03*
X12395000Y-6382000D03*
X12695000Y-6477000D03*
%TD*%
D22*
%TO.C,R18*%
X17151140Y-7483622D03*
X17333640Y-7483622D03*
%TD*%
D24*
%TO.C,C5*%
X16716250Y-6655000D03*
X16543750Y-6655000D03*
%TD*%
D36*
%TO.C,D10*%
X15962500Y-6410000D03*
X15757500Y-6410000D03*
%TD*%
D21*
%TO.C,R13*%
X15515250Y-10459250D03*
X15332750Y-10459250D03*
%TD*%
D37*
%TO.C,R24*%
X14049750Y-9519000D03*
X13849750Y-9519000D03*
%TD*%
D21*
%TO.C,R3*%
X13371250Y-13050000D03*
X13188750Y-13050000D03*
%TD*%
D18*
%TO.C,R26*%
X11980000Y-12640000D03*
X11980000Y-12822500D03*
%TD*%
D36*
%TO.C,D9*%
X15962500Y-6170000D03*
X15757500Y-6170000D03*
%TD*%
D21*
%TO.C,R12*%
X15467608Y-9671214D03*
X15285108Y-9671214D03*
%TD*%
D30*
%TO.C,D12*%
X13459250Y-7046000D03*
X13459250Y-7296000D03*
%TD*%
D38*
%TO.C,C6*%
X12200000Y-7511250D03*
X12200000Y-7718750D03*
%TD*%
D39*
%TO.C,F1*%
X12440000Y-12041250D03*
X12440000Y-12338750D03*
%TD*%
D28*
%TO.C,R17*%
X16819394Y-12655634D03*
X16819394Y-12473134D03*
%TD*%
D40*
%TO.C,D13*%
X13859750Y-9769000D03*
X14299750Y-9769000D03*
%TD*%
D41*
%TO.C,U5*%
X14291750Y-9516500D03*
X14291750Y-9451500D03*
X14291750Y-9386500D03*
X14291750Y-9321500D03*
X14714250Y-9321500D03*
X14714250Y-9386500D03*
X14714250Y-9451500D03*
X14714250Y-9516500D03*
%TD*%
D18*
%TO.C,R10*%
X17100000Y-13746250D03*
X17100000Y-13928750D03*
%TD*%
%TO.C,R9*%
X17620000Y-13746250D03*
X17620000Y-13928750D03*
%TD*%
D42*
%TO.C,D11*%
X12667500Y-7190000D03*
X12212500Y-7190000D03*
%TD*%
D18*
%TO.C,R7*%
X16220000Y-13746250D03*
X16220000Y-13928750D03*
%TD*%
D21*
%TO.C,R4*%
X13371250Y-12890000D03*
X13188750Y-12890000D03*
%TD*%
M02*
