M48
; DRILL file {KiCad 9.0.5} date 2026-01-12T16:44:47+0100
; FORMAT={-:-/ absolute / metric / decimal}
; #@! TF.CreationDate,2026-01-12T16:44:47+01:00
; #@! TF.GenerationSoftware,Kicad,Pcbnew,9.0.5
; #@! TF.FileFunction,Plated,1,4,PTH
FMAT,2
METRIC
; #@! TA.AperFunction,Plated,PTH,ViaDrill
T1C0.300
; #@! TA.AperFunction,Plated,PTH,ViaDrill
T2C0.400
; #@! TA.AperFunction,Plated,PTH,ComponentDrill
T3C0.500
; #@! TA.AperFunction,Plated,PTH,ComponentDrill
T4C0.900
; #@! TA.AperFunction,Plated,PTH,ComponentDrill
T5C1.000
; #@! TA.AperFunction,Plated,PTH,ComponentDrill
T6C1.300
; #@! TA.AperFunction,Plated,PTH,ComponentDrill
T7C1.320
; #@! TA.AperFunction,Plated,PTH,ComponentDrill
T8C2.000
; #@! TA.AperFunction,Plated,PTH,ComponentDrill
T9C3.000
%
G90
G05
T1
X114.9Y-58.9
X114.9Y-62.95
X114.9Y-67.0
X114.9Y-71.2
X114.9Y-74.457
X114.9Y-77.714
X114.9Y-80.971
X114.9Y-84.229
X114.9Y-87.486
X114.9Y-90.743
X114.9Y-94.0
X114.9Y-97.257
X114.9Y-100.514
X114.9Y-103.771
X114.9Y-107.029
X114.9Y-110.286
X114.9Y-113.543
X114.9Y-116.8
X114.9Y-126.5
X114.9Y-129.92
X114.9Y-133.34
X114.9Y-136.76
X114.9Y-140.18
X114.9Y-143.6
X115.7Y-119.7
X115.8Y-121.8
X116.5Y-120.8
X117.2Y-121.8
X117.2Y-139.8
X117.3Y-119.7
X117.8Y-120.8
X117.85Y-127.0
X117.85Y-131.2
X117.85Y-135.0
X118.3Y-100.1
X118.4Y-139.25
X118.71Y-79.555
X118.9Y-58.9
X118.9Y-72.9
X119.0Y-88.1
X119.0Y-94.2
X119.009Y-82.709
X119.15Y-80.75
X119.158Y-120.642
X119.19Y-118.85
X119.3Y-143.6
X119.75Y-134.25
X119.8Y-89.7
X119.8Y-92.8
X119.8Y-121.7
X119.8Y-129.9
X119.95Y-138.13
X120.3Y-63.2
X120.3Y-64.4
X120.7Y-125.8
X120.83Y-127.25
X121.2Y-121.7
X121.4Y-63.8
X121.5Y-89.71
X121.5Y-92.79
X121.542Y-105.347
X121.6Y-115.4
X121.68Y-139.875
X121.7Y-107.7
X121.7Y-110.3
X121.7Y-112.8
X121.7Y-118.0
X122.5Y-63.2
X122.5Y-64.4
X122.502Y-139.278
X122.6Y-143.6
X122.62Y-141.516
X122.8Y-135.8
X122.9Y-58.9
X123.3Y-89.71
X123.3Y-92.79
X123.7Y-138.6
X124.04Y-139.875
X124.1Y-94.2
X124.4Y-88.5
X124.5Y-101.347
X124.5Y-122.2
X124.5Y-123.5
X124.5Y-124.9
X124.6Y-136.796
X124.95Y-141.4
X125.4Y-74.6
X125.4Y-143.6
X125.47Y-66.04
X126.0Y-122.2
X126.0Y-123.5
X126.0Y-124.9
X126.4Y-76.7
X126.46Y-72.73
X126.5Y-58.9
X126.9Y-87.1
X126.9Y-140.4
X127.2Y-135.8
X127.28Y-97.376
X127.7Y-121.7
X127.8Y-143.6
X127.8Y-122.55
X127.8Y-130.2
X127.9Y-138.6
X128.0Y-132.0
X128.565Y-132.705
X128.59Y-126.44
X128.59Y-128.19
X128.6Y-129.9
X128.61Y-122.7
X128.61Y-124.68
X128.65Y-133.51
X128.7Y-121.655
X128.82Y-58.9
X129.0Y-105.4
X129.1Y-74.4
X129.1Y-116.2
X129.2Y-88.5
X129.2Y-99.2
X129.34Y-133.93
X129.68Y-135.73
X129.79Y-130.9
X130.0Y-121.7
X130.1Y-141.6
X130.1Y-143.6
X130.6Y-133.99
X130.81Y-126.36
X130.9Y-140.2
X131.14Y-58.9
X131.24Y-77.46
X131.336Y-133.615
X131.43Y-142.4
X131.5Y-135.83
X131.64Y-134.42
X131.81Y-73.26
X131.83Y-72.27
X131.86Y-132.97
X132.11Y-136.41
X132.4Y-138.4
X132.4Y-141.26
X132.4Y-143.6
X132.454Y-69.7
X132.454Y-71.1
X132.8Y-128.1
X132.8Y-129.7
X133.195Y-65.895
X133.335Y-67.165
X133.46Y-58.9
X133.633Y-68.523
X133.85Y-71.26
X133.9Y-131.6
X134.0Y-134.414
X134.22Y-122.47
X134.47Y-84.75
X134.5Y-132.3
X134.52Y-125.3
X134.6Y-68.44
X134.7Y-108.3
X134.7Y-113.1
X134.7Y-118.1
X134.75Y-120.335
X135.0Y-128.5
X135.1Y-100.825
X135.1Y-137.9
X135.3Y-130.8
X135.35Y-135.89
X135.448Y-126.448
X135.5Y-94.2
X135.55Y-89.3
X135.576Y-119.3
X135.78Y-58.9
X136.0Y-104.9
X136.1Y-123.8
X136.3Y-103.1
X136.5Y-110.3
X136.53Y-109.28
X136.8Y-128.6
X136.9Y-133.0
X137.03Y-77.83
X137.368Y-90.2
X137.368Y-91.8
X137.5Y-107.8
X137.6Y-105.8
X137.68Y-137.9
X137.76Y-112.16
X137.9Y-66.3
X138.1Y-58.9
X138.2Y-86.6
X138.67Y-110.41
X138.9Y-72.9
X138.934Y-115.129
X139.1Y-69.6
X139.18Y-116.87
X139.368Y-90.2
X139.368Y-91.8
X139.5Y-120.38
X139.51Y-131.99
X139.6Y-125.4
X139.658Y-112.271
X139.85Y-95.6
X139.9Y-129.7
X139.96Y-134.414
X140.0Y-101.1
X140.1Y-103.4
X140.1Y-121.5
X140.1Y-126.6
X140.2Y-122.9
X140.2Y-133.0
X140.26Y-137.9
X140.33Y-85.38
X140.36Y-115.964
X140.6Y-58.9
X140.624Y-116.937
X141.07Y-135.89
X141.73Y-112.705
X141.86Y-68.01
X142.01Y-72.96
X142.08Y-78.38
X142.16Y-131.73
X142.22Y-134.414
X142.36Y-88.96
X142.43Y-129.604
X142.49Y-126.89
X142.675Y-113.805
X142.675Y-116.205
X142.84Y-137.9
X143.06Y-135.04
X143.15Y-81.75
X143.2Y-58.9
X143.25Y-107.55
X143.25Y-109.87
X143.3Y-132.5
X143.4Y-121.3
X143.4Y-124.2
X143.7Y-111.425
X143.7Y-120.4
X143.88Y-127.53
X143.89Y-131.43
X143.98Y-90.6
X144.15Y-89.01
X144.19Y-87.025
X144.44Y-68.02
X144.46Y-72.32
X144.46Y-77.56
X144.46Y-78.64
X144.52Y-73.34
X144.55Y-111.425
X144.76Y-122.98
X145.075Y-113.805
X145.075Y-116.205
X145.1Y-125.1
X145.12Y-132.98
X145.42Y-137.9
X145.55Y-88.53
X145.7Y-58.9
X145.8Y-127.75
X145.8Y-131.0
X145.88Y-122.06
X146.11Y-112.77
X146.33Y-108.65
X146.5Y-112.01
X146.5Y-117.5
X146.815Y-100.5
X146.9Y-88.0
X147.0Y-72.34
X147.0Y-73.35
X147.0Y-77.57
X147.0Y-78.64
X147.0Y-134.53
X147.09Y-68.02
X147.7Y-122.052
X147.72Y-123.302
X147.87Y-110.11
X147.958Y-88.108
X147.96Y-114.005
X148.0Y-137.9
X148.28Y-66.14
X148.3Y-58.9
X148.3Y-100.5
X148.5Y-85.1
X148.7Y-125.1
X148.7Y-135.6
X149.1Y-98.6
X149.31Y-132.52
X149.49Y-108.67
X149.53Y-73.29
X149.54Y-72.33
X149.54Y-77.56
X149.56Y-67.99
X149.739Y-79.157
X149.77Y-88.9
X150.175Y-120.34
X150.238Y-90.294
X150.37Y-110.4
X150.5Y-124.0
X150.58Y-137.9
X150.6Y-114.0
X150.8Y-58.9
X151.1Y-107.9
X151.2Y-87.7
X151.2Y-120.4
X151.36Y-128.45
X151.36Y-131.11
X151.6Y-104.5
X151.7Y-96.0
X151.8Y-125.3
X151.96Y-121.49
X152.07Y-68.04
X152.09Y-78.05
X152.14Y-73.19
X152.7Y-110.4
X152.77Y-93.69
X153.16Y-137.9
X153.26Y-88.15
X153.4Y-58.9
X153.542Y-136.547
X153.58Y-66.48
X153.58Y-131.75
X153.63Y-129.7
X154.1Y-131.1
X154.2Y-124.56
X154.2Y-126.6
X154.461Y-120.55
X154.461Y-121.4
X154.5Y-68.547
X154.5Y-71.665
X154.5Y-77.9
X155.3Y-113.5
X155.74Y-137.88
X155.942Y-84.547
X156.0Y-58.9
X156.2Y-88.7
X156.5Y-117.7
X156.742Y-78.947
X157.09Y-135.7
X157.25Y-128.75
X157.542Y-70.947
X157.86Y-123.57
X158.1Y-126.044
X158.15Y-130.925
X158.32Y-58.9
X158.32Y-137.95
X158.35Y-105.75
X159.13Y-117.72
X159.142Y-66.147
X159.28Y-75.25
X159.694Y-131.094
X160.64Y-58.9
X160.9Y-137.9
X161.0Y-135.2
X161.59Y-101.4
X161.68Y-116.17
X161.7Y-140.4
X161.7Y-143.6
X161.76Y-93.76
X161.8Y-82.3
X161.98Y-96.57
X162.0Y-85.8
X162.18Y-111.37
X162.258Y-126.058
X162.78Y-90.32
X162.96Y-58.9
X162.987Y-138.5
X163.0Y-66.3
X163.1Y-140.65
X163.142Y-71.748
X163.142Y-78.947
X163.8Y-101.2
X163.85Y-85.65
X163.95Y-119.4
X164.4Y-122.9
X164.69Y-68.69
X164.85Y-128.35
X164.9Y-93.85
X165.0Y-118.0
X165.08Y-96.4
X165.1Y-88.7
X165.28Y-58.9
X165.542Y-82.947
X165.7Y-75.9
X166.4Y-70.3
X166.6Y-136.0
X166.6Y-138.422
X166.6Y-141.0
X166.6Y-143.6
X167.25Y-107.747
X167.25Y-110.36
X167.25Y-112.85
X167.25Y-115.3
X167.3Y-117.95
X167.35Y-121.9
X167.6Y-58.9
X167.85Y-85.7
X168.6Y-80.8
X168.71Y-136.51
X168.9Y-130.3
X169.25Y-124.55
X169.3Y-75.0
X169.37Y-71.27
X169.83Y-103.96
X169.85Y-91.35
X169.85Y-116.75
X169.9Y-88.05
X169.9Y-100.46
X169.987Y-138.5
X170.05Y-94.6
X170.1Y-140.65
X170.2Y-64.1
X170.25Y-122.0
X170.5Y-68.6
X171.1Y-135.5
X171.2Y-58.9
X171.62Y-133.52
X171.657Y-126.2
X172.375Y-120.55
X172.4Y-117.95
X172.45Y-112.85
X172.45Y-115.45
X172.8Y-138.4
X173.21Y-131.57
X173.275Y-122.0
X173.275Y-124.66
X173.54Y-63.11
X173.6Y-78.3
X173.6Y-84.4
X173.6Y-141.0
X173.6Y-143.6
X173.73Y-134.41
X174.3Y-90.05
X174.6Y-125.5
X175.0Y-138.4
X175.15Y-58.947
X175.65Y-129.8
X175.8Y-98.1
X175.8Y-104.5
X175.8Y-110.9
X175.8Y-117.3
X175.8Y-121.3
X176.1Y-92.5
X176.5Y-76.9
X176.5Y-81.5
X176.5Y-86.9
X176.501Y-135.374
X176.7Y-133.0
X177.044Y-138.444
X177.1Y-140.65
X177.2Y-72.1
X178.6Y-87.768
X179.0Y-126.421
X179.1Y-58.9
X179.1Y-62.0
X179.1Y-66.295
X179.1Y-70.589
X179.1Y-74.884
X179.1Y-79.179
X179.1Y-83.474
X179.1Y-92.063
X179.1Y-96.358
X179.1Y-100.653
X179.1Y-104.947
X179.1Y-109.242
X179.1Y-113.537
X179.1Y-117.832
X179.1Y-122.126
X179.1Y-135.011
X179.1Y-139.305
X179.1Y-143.6
X179.11Y-130.716
T2
X170.7Y-92.5
X174.6Y-92.5
X175.245Y-135.505
T4
X157.085Y-96.5
X157.085Y-99.0
X157.085Y-101.0
X157.085Y-103.5
T5
X137.8Y-113.6
X137.8Y-116.14
X139.335Y-80.485
X139.335Y-83.025
X141.875Y-80.485
X141.875Y-83.025
X144.415Y-80.485
X144.415Y-83.025
X146.955Y-80.485
X146.955Y-83.025
X149.495Y-80.485
X149.495Y-83.025
X152.035Y-80.485
X152.035Y-83.025
X154.575Y-80.485
X154.575Y-83.025
X157.2Y-110.235
X157.2Y-112.775
T7
X124.4Y-60.49
X124.4Y-132.71
X169.6Y-60.48
X169.6Y-132.7
T8
X143.0Y-93.0
X143.875Y-115.005
T9
X148.5Y-129.13
T3
G00X141.35Y-106.525
M15
G01X140.65Y-106.525
M16
G05
G00X144.35Y-104.375
M15
G01X143.25Y-104.375
M16
G05
G00X146.95Y-106.525
M15
G01X146.25Y-106.525
M16
G05
T5
G00X140.9Y-98.3
M15
G01X142.7Y-98.3
M16
G05
G00X144.6Y-95.8
M15
G01X146.4Y-95.8
M16
G05
G00X147.6Y-90.75
M15
G01X147.6Y-92.25
M16
G05
T6
G00X152.305Y-100.5
M15
G01X152.305Y-99.5
M16
G05
G00X155.985Y-93.43
M15
G01X156.985Y-93.43
M16
G05
G00X156.985Y-106.57
M15
G01X155.985Y-106.57
M16
G05
M30
