%TF.GenerationSoftware,KiCad,Pcbnew,9.0.5*%
%TF.CreationDate,2026-01-12T16:44:52+01:00*%
%TF.ProjectId,ZumoComSystem,5a756d6f-436f-46d5-9379-7374656d2e6b,V1.2*%
%TF.SameCoordinates,Original*%
%TF.FileFunction,Other,Comment*%
%FSLAX45Y45*%
G04 Gerber Fmt 4.5, Leading zero omitted, Abs format (unit mm)*
G04 Created by KiCad (PCBNEW 9.0.5) date 2026-01-12 16:44:52*
%MOMM*%
%LPD*%
G01*
G04 APERTURE LIST*
%ADD10C,0.150000*%
G04 APERTURE END LIST*
D10*
X13490714Y-14809244D02*
X13490714Y-14609244D01*
X13605000Y-14809244D02*
X13519286Y-14694958D01*
X13605000Y-14609244D02*
X13490714Y-14723529D01*
X13690714Y-14704482D02*
X13757381Y-14704482D01*
X13785952Y-14809244D02*
X13690714Y-14809244D01*
X13690714Y-14809244D02*
X13690714Y-14609244D01*
X13690714Y-14609244D02*
X13785952Y-14609244D01*
X13871667Y-14704482D02*
X13938333Y-14704482D01*
X13966905Y-14809244D02*
X13871667Y-14809244D01*
X13871667Y-14809244D02*
X13871667Y-14609244D01*
X13871667Y-14609244D02*
X13966905Y-14609244D01*
X14052619Y-14809244D02*
X14052619Y-14609244D01*
X14052619Y-14609244D02*
X14128809Y-14609244D01*
X14128809Y-14609244D02*
X14147857Y-14618768D01*
X14147857Y-14618768D02*
X14157381Y-14628291D01*
X14157381Y-14628291D02*
X14166905Y-14647339D01*
X14166905Y-14647339D02*
X14166905Y-14675910D01*
X14166905Y-14675910D02*
X14157381Y-14694958D01*
X14157381Y-14694958D02*
X14147857Y-14704482D01*
X14147857Y-14704482D02*
X14128809Y-14714006D01*
X14128809Y-14714006D02*
X14052619Y-14714006D01*
X14252619Y-14733053D02*
X14405000Y-14733053D01*
X14538333Y-14609244D02*
X14576428Y-14609244D01*
X14576428Y-14609244D02*
X14595476Y-14618768D01*
X14595476Y-14618768D02*
X14614524Y-14637815D01*
X14614524Y-14637815D02*
X14624047Y-14675910D01*
X14624047Y-14675910D02*
X14624047Y-14742577D01*
X14624047Y-14742577D02*
X14614524Y-14780672D01*
X14614524Y-14780672D02*
X14595476Y-14799720D01*
X14595476Y-14799720D02*
X14576428Y-14809244D01*
X14576428Y-14809244D02*
X14538333Y-14809244D01*
X14538333Y-14809244D02*
X14519286Y-14799720D01*
X14519286Y-14799720D02*
X14500238Y-14780672D01*
X14500238Y-14780672D02*
X14490714Y-14742577D01*
X14490714Y-14742577D02*
X14490714Y-14675910D01*
X14490714Y-14675910D02*
X14500238Y-14637815D01*
X14500238Y-14637815D02*
X14519286Y-14618768D01*
X14519286Y-14618768D02*
X14538333Y-14609244D01*
X14709762Y-14609244D02*
X14709762Y-14771148D01*
X14709762Y-14771148D02*
X14719286Y-14790196D01*
X14719286Y-14790196D02*
X14728809Y-14799720D01*
X14728809Y-14799720D02*
X14747857Y-14809244D01*
X14747857Y-14809244D02*
X14785952Y-14809244D01*
X14785952Y-14809244D02*
X14805000Y-14799720D01*
X14805000Y-14799720D02*
X14814524Y-14790196D01*
X14814524Y-14790196D02*
X14824047Y-14771148D01*
X14824047Y-14771148D02*
X14824047Y-14609244D01*
X14890714Y-14609244D02*
X15005000Y-14609244D01*
X14947857Y-14809244D02*
X14947857Y-14609244D01*
X15205000Y-14609244D02*
X15338333Y-14609244D01*
X15338333Y-14609244D02*
X15205000Y-14809244D01*
X15205000Y-14809244D02*
X15338333Y-14809244D01*
X15452619Y-14609244D02*
X15490714Y-14609244D01*
X15490714Y-14609244D02*
X15509762Y-14618768D01*
X15509762Y-14618768D02*
X15528809Y-14637815D01*
X15528809Y-14637815D02*
X15538333Y-14675910D01*
X15538333Y-14675910D02*
X15538333Y-14742577D01*
X15538333Y-14742577D02*
X15528809Y-14780672D01*
X15528809Y-14780672D02*
X15509762Y-14799720D01*
X15509762Y-14799720D02*
X15490714Y-14809244D01*
X15490714Y-14809244D02*
X15452619Y-14809244D01*
X15452619Y-14809244D02*
X15433571Y-14799720D01*
X15433571Y-14799720D02*
X15414524Y-14780672D01*
X15414524Y-14780672D02*
X15405000Y-14742577D01*
X15405000Y-14742577D02*
X15405000Y-14675910D01*
X15405000Y-14675910D02*
X15414524Y-14637815D01*
X15414524Y-14637815D02*
X15433571Y-14618768D01*
X15433571Y-14618768D02*
X15452619Y-14609244D01*
X15624048Y-14809244D02*
X15624048Y-14609244D01*
X15624048Y-14609244D02*
X15738333Y-14809244D01*
X15738333Y-14809244D02*
X15738333Y-14609244D01*
X15833571Y-14704482D02*
X15900238Y-14704482D01*
X15928809Y-14809244D02*
X15833571Y-14809244D01*
X15833571Y-14809244D02*
X15833571Y-14609244D01*
X15833571Y-14609244D02*
X15928809Y-14609244D01*
X14428809Y-14119910D02*
X14476428Y-14119910D01*
X14419286Y-14148482D02*
X14452619Y-14048482D01*
X14452619Y-14048482D02*
X14485952Y-14148482D01*
X14519286Y-14081815D02*
X14519286Y-14148482D01*
X14519286Y-14091339D02*
X14524048Y-14086577D01*
X14524048Y-14086577D02*
X14533571Y-14081815D01*
X14533571Y-14081815D02*
X14547857Y-14081815D01*
X14547857Y-14081815D02*
X14557381Y-14086577D01*
X14557381Y-14086577D02*
X14562143Y-14096101D01*
X14562143Y-14096101D02*
X14562143Y-14148482D01*
X14595476Y-14081815D02*
X14633571Y-14081815D01*
X14609762Y-14048482D02*
X14609762Y-14134196D01*
X14609762Y-14134196D02*
X14614524Y-14143720D01*
X14614524Y-14143720D02*
X14624048Y-14148482D01*
X14624048Y-14148482D02*
X14633571Y-14148482D01*
X14705000Y-14143720D02*
X14695476Y-14148482D01*
X14695476Y-14148482D02*
X14676429Y-14148482D01*
X14676429Y-14148482D02*
X14666905Y-14143720D01*
X14666905Y-14143720D02*
X14662143Y-14134196D01*
X14662143Y-14134196D02*
X14662143Y-14096101D01*
X14662143Y-14096101D02*
X14666905Y-14086577D01*
X14666905Y-14086577D02*
X14676429Y-14081815D01*
X14676429Y-14081815D02*
X14695476Y-14081815D01*
X14695476Y-14081815D02*
X14705000Y-14086577D01*
X14705000Y-14086577D02*
X14709762Y-14096101D01*
X14709762Y-14096101D02*
X14709762Y-14105625D01*
X14709762Y-14105625D02*
X14662143Y-14115148D01*
X14752619Y-14081815D02*
X14752619Y-14148482D01*
X14752619Y-14091339D02*
X14757381Y-14086577D01*
X14757381Y-14086577D02*
X14766905Y-14081815D01*
X14766905Y-14081815D02*
X14781190Y-14081815D01*
X14781190Y-14081815D02*
X14790714Y-14086577D01*
X14790714Y-14086577D02*
X14795476Y-14096101D01*
X14795476Y-14096101D02*
X14795476Y-14148482D01*
X14843095Y-14081815D02*
X14843095Y-14148482D01*
X14843095Y-14091339D02*
X14847857Y-14086577D01*
X14847857Y-14086577D02*
X14857381Y-14081815D01*
X14857381Y-14081815D02*
X14871667Y-14081815D01*
X14871667Y-14081815D02*
X14881190Y-14086577D01*
X14881190Y-14086577D02*
X14885952Y-14096101D01*
X14885952Y-14096101D02*
X14885952Y-14148482D01*
X14976429Y-14148482D02*
X14976429Y-14096101D01*
X14976429Y-14096101D02*
X14971667Y-14086577D01*
X14971667Y-14086577D02*
X14962143Y-14081815D01*
X14962143Y-14081815D02*
X14943095Y-14081815D01*
X14943095Y-14081815D02*
X14933571Y-14086577D01*
X14976429Y-14143720D02*
X14966905Y-14148482D01*
X14966905Y-14148482D02*
X14943095Y-14148482D01*
X14943095Y-14148482D02*
X14933571Y-14143720D01*
X14933571Y-14143720D02*
X14928810Y-14134196D01*
X14928810Y-14134196D02*
X14928810Y-14124672D01*
X14928810Y-14124672D02*
X14933571Y-14115148D01*
X14933571Y-14115148D02*
X14943095Y-14110387D01*
X14943095Y-14110387D02*
X14966905Y-14110387D01*
X14966905Y-14110387D02*
X14976429Y-14105625D01*
M02*
