%TF.GenerationSoftware,KiCad,Pcbnew,9.0.5*%
%TF.CreationDate,2026-01-12T16:44:52+01:00*%
%TF.ProjectId,ZumoComSystem,5a756d6f-436f-46d5-9379-7374656d2e6b,V1.2*%
%TF.SameCoordinates,Original*%
%TF.FileFunction,Legend,Bot*%
%TF.FilePolarity,Positive*%
%FSLAX45Y45*%
G04 Gerber Fmt 4.5, Leading zero omitted, Abs format (unit mm)*
G04 Created by KiCad (PCBNEW 9.0.5) date 2026-01-12 16:44:52*
%MOMM*%
%LPD*%
G01*
G04 APERTURE LIST*
%ADD10C,0.120000*%
%ADD11C,0.150000*%
%ADD12C,0.200000*%
%ADD13C,0.127000*%
G04 APERTURE END LIST*
D10*
X13851000Y-14080000D02*
X15551000Y-14080000D01*
D11*
X15276786Y-14210985D02*
X15264286Y-14110985D01*
X15264286Y-14110985D02*
X15219643Y-14210985D01*
X15219643Y-14210985D02*
X15207143Y-14110985D01*
X15133333Y-14206223D02*
X15143452Y-14210985D01*
X15143452Y-14210985D02*
X15162500Y-14210985D01*
X15162500Y-14210985D02*
X15171428Y-14206223D01*
X15171428Y-14206223D02*
X15175000Y-14196699D01*
X15175000Y-14196699D02*
X15170238Y-14158604D01*
X15170238Y-14158604D02*
X15164286Y-14149080D01*
X15164286Y-14149080D02*
X15154167Y-14144318D01*
X15154167Y-14144318D02*
X15135119Y-14144318D01*
X15135119Y-14144318D02*
X15126190Y-14149080D01*
X15126190Y-14149080D02*
X15122619Y-14158604D01*
X15122619Y-14158604D02*
X15123809Y-14168127D01*
X15123809Y-14168127D02*
X15172619Y-14177651D01*
X15087500Y-14144318D02*
X15076786Y-14210985D01*
X15076786Y-14210985D02*
X15051786Y-14163366D01*
X15051786Y-14163366D02*
X15038690Y-14210985D01*
X15038690Y-14210985D02*
X15011309Y-14144318D01*
X14983333Y-14110985D02*
X14926190Y-14110985D01*
X14967262Y-14210985D02*
X14954762Y-14110985D01*
X14866667Y-14206223D02*
X14876786Y-14210985D01*
X14876786Y-14210985D02*
X14895833Y-14210985D01*
X14895833Y-14210985D02*
X14904762Y-14206223D01*
X14904762Y-14206223D02*
X14908333Y-14196699D01*
X14908333Y-14196699D02*
X14903571Y-14158604D01*
X14903571Y-14158604D02*
X14897619Y-14149080D01*
X14897619Y-14149080D02*
X14887500Y-14144318D01*
X14887500Y-14144318D02*
X14868452Y-14144318D01*
X14868452Y-14144318D02*
X14859524Y-14149080D01*
X14859524Y-14149080D02*
X14855952Y-14158604D01*
X14855952Y-14158604D02*
X14857143Y-14168127D01*
X14857143Y-14168127D02*
X14905952Y-14177651D01*
X14776190Y-14206223D02*
X14786309Y-14210985D01*
X14786309Y-14210985D02*
X14805357Y-14210985D01*
X14805357Y-14210985D02*
X14814286Y-14206223D01*
X14814286Y-14206223D02*
X14818452Y-14201461D01*
X14818452Y-14201461D02*
X14822024Y-14191937D01*
X14822024Y-14191937D02*
X14818452Y-14163366D01*
X14818452Y-14163366D02*
X14812500Y-14153842D01*
X14812500Y-14153842D02*
X14807143Y-14149080D01*
X14807143Y-14149080D02*
X14797024Y-14144318D01*
X14797024Y-14144318D02*
X14777976Y-14144318D01*
X14777976Y-14144318D02*
X14769047Y-14149080D01*
X14729167Y-14172889D02*
X14652976Y-14172889D01*
X14545833Y-14115747D02*
X14554762Y-14110985D01*
X14554762Y-14110985D02*
X14569047Y-14110985D01*
X14569047Y-14110985D02*
X14583928Y-14115747D01*
X14583928Y-14115747D02*
X14594643Y-14125270D01*
X14594643Y-14125270D02*
X14600595Y-14134794D01*
X14600595Y-14134794D02*
X14607738Y-14153842D01*
X14607738Y-14153842D02*
X14609524Y-14168127D01*
X14609524Y-14168127D02*
X14607143Y-14187175D01*
X14607143Y-14187175D02*
X14603571Y-14196699D01*
X14603571Y-14196699D02*
X14595238Y-14206223D01*
X14595238Y-14206223D02*
X14581547Y-14210985D01*
X14581547Y-14210985D02*
X14572024Y-14210985D01*
X14572024Y-14210985D02*
X14557143Y-14206223D01*
X14557143Y-14206223D02*
X14551786Y-14201461D01*
X14551786Y-14201461D02*
X14547619Y-14168127D01*
X14547619Y-14168127D02*
X14566667Y-14168127D01*
X14510119Y-14210985D02*
X14501786Y-14144318D01*
X14502976Y-14153842D02*
X14497619Y-14149080D01*
X14497619Y-14149080D02*
X14487500Y-14144318D01*
X14487500Y-14144318D02*
X14473214Y-14144318D01*
X14473214Y-14144318D02*
X14464286Y-14149080D01*
X14464286Y-14149080D02*
X14460714Y-14158604D01*
X14460714Y-14158604D02*
X14467262Y-14210985D01*
X14460714Y-14158604D02*
X14454762Y-14149080D01*
X14454762Y-14149080D02*
X14444643Y-14144318D01*
X14444643Y-14144318D02*
X14430357Y-14144318D01*
X14430357Y-14144318D02*
X14421428Y-14149080D01*
X14421428Y-14149080D02*
X14417857Y-14158604D01*
X14417857Y-14158604D02*
X14424405Y-14210985D01*
X14376786Y-14210985D02*
X14364286Y-14110985D01*
X14369048Y-14149080D02*
X14358928Y-14144318D01*
X14358928Y-14144318D02*
X14339881Y-14144318D01*
X14339881Y-14144318D02*
X14330952Y-14149080D01*
X14330952Y-14149080D02*
X14326786Y-14153842D01*
X14326786Y-14153842D02*
X14323214Y-14163366D01*
X14323214Y-14163366D02*
X14326786Y-14191937D01*
X14326786Y-14191937D02*
X14332738Y-14201461D01*
X14332738Y-14201461D02*
X14338095Y-14206223D01*
X14338095Y-14206223D02*
X14348214Y-14210985D01*
X14348214Y-14210985D02*
X14367262Y-14210985D01*
X14367262Y-14210985D02*
X14376190Y-14206223D01*
X14286309Y-14210985D02*
X14273809Y-14110985D01*
X14279762Y-14158604D02*
X14222619Y-14158604D01*
X14229167Y-14210985D02*
X14216667Y-14110985D01*
X14097024Y-14106223D02*
X14198809Y-14234794D01*
X15304762Y-14271979D02*
X15238095Y-14271979D01*
X15238095Y-14271979D02*
X15317262Y-14371979D01*
X15317262Y-14371979D02*
X15250595Y-14371979D01*
X15161309Y-14305312D02*
X15169643Y-14371979D01*
X15204167Y-14305312D02*
X15210714Y-14357693D01*
X15210714Y-14357693D02*
X15207143Y-14367217D01*
X15207143Y-14367217D02*
X15198214Y-14371979D01*
X15198214Y-14371979D02*
X15183928Y-14371979D01*
X15183928Y-14371979D02*
X15173809Y-14367217D01*
X15173809Y-14367217D02*
X15168452Y-14362455D01*
X15122024Y-14371979D02*
X15113690Y-14305312D01*
X15114881Y-14314836D02*
X15109524Y-14310074D01*
X15109524Y-14310074D02*
X15099405Y-14305312D01*
X15099405Y-14305312D02*
X15085119Y-14305312D01*
X15085119Y-14305312D02*
X15076190Y-14310074D01*
X15076190Y-14310074D02*
X15072619Y-14319598D01*
X15072619Y-14319598D02*
X15079167Y-14371979D01*
X15072619Y-14319598D02*
X15066667Y-14310074D01*
X15066667Y-14310074D02*
X15056548Y-14305312D01*
X15056548Y-14305312D02*
X15042262Y-14305312D01*
X15042262Y-14305312D02*
X15033333Y-14310074D01*
X15033333Y-14310074D02*
X15029762Y-14319598D01*
X15029762Y-14319598D02*
X15036309Y-14371979D01*
X14974405Y-14371979D02*
X14983333Y-14367217D01*
X14983333Y-14367217D02*
X14987500Y-14362455D01*
X14987500Y-14362455D02*
X14991071Y-14352931D01*
X14991071Y-14352931D02*
X14987500Y-14324360D01*
X14987500Y-14324360D02*
X14981548Y-14314836D01*
X14981548Y-14314836D02*
X14976190Y-14310074D01*
X14976190Y-14310074D02*
X14966071Y-14305312D01*
X14966071Y-14305312D02*
X14951786Y-14305312D01*
X14951786Y-14305312D02*
X14942857Y-14310074D01*
X14942857Y-14310074D02*
X14938690Y-14314836D01*
X14938690Y-14314836D02*
X14935119Y-14324360D01*
X14935119Y-14324360D02*
X14938690Y-14352931D01*
X14938690Y-14352931D02*
X14944643Y-14362455D01*
X14944643Y-14362455D02*
X14950000Y-14367217D01*
X14950000Y-14367217D02*
X14960119Y-14371979D01*
X14960119Y-14371979D02*
X14974405Y-14371979D01*
X14839881Y-14362455D02*
X14845238Y-14367217D01*
X14845238Y-14367217D02*
X14860119Y-14371979D01*
X14860119Y-14371979D02*
X14869643Y-14371979D01*
X14869643Y-14371979D02*
X14883333Y-14367217D01*
X14883333Y-14367217D02*
X14891667Y-14357693D01*
X14891667Y-14357693D02*
X14895238Y-14348169D01*
X14895238Y-14348169D02*
X14897619Y-14329122D01*
X14897619Y-14329122D02*
X14895833Y-14314836D01*
X14895833Y-14314836D02*
X14888690Y-14295789D01*
X14888690Y-14295789D02*
X14882738Y-14286265D01*
X14882738Y-14286265D02*
X14872024Y-14276741D01*
X14872024Y-14276741D02*
X14857143Y-14271979D01*
X14857143Y-14271979D02*
X14847619Y-14271979D01*
X14847619Y-14271979D02*
X14833929Y-14276741D01*
X14833929Y-14276741D02*
X14829762Y-14281503D01*
X14783929Y-14371979D02*
X14792857Y-14367217D01*
X14792857Y-14367217D02*
X14797024Y-14362455D01*
X14797024Y-14362455D02*
X14800595Y-14352931D01*
X14800595Y-14352931D02*
X14797024Y-14324360D01*
X14797024Y-14324360D02*
X14791071Y-14314836D01*
X14791071Y-14314836D02*
X14785714Y-14310074D01*
X14785714Y-14310074D02*
X14775595Y-14305312D01*
X14775595Y-14305312D02*
X14761309Y-14305312D01*
X14761309Y-14305312D02*
X14752381Y-14310074D01*
X14752381Y-14310074D02*
X14748214Y-14314836D01*
X14748214Y-14314836D02*
X14744643Y-14324360D01*
X14744643Y-14324360D02*
X14748214Y-14352931D01*
X14748214Y-14352931D02*
X14754167Y-14362455D01*
X14754167Y-14362455D02*
X14759524Y-14367217D01*
X14759524Y-14367217D02*
X14769643Y-14371979D01*
X14769643Y-14371979D02*
X14783929Y-14371979D01*
X14707738Y-14371979D02*
X14699405Y-14305312D01*
X14700595Y-14314836D02*
X14695238Y-14310074D01*
X14695238Y-14310074D02*
X14685119Y-14305312D01*
X14685119Y-14305312D02*
X14670833Y-14305312D01*
X14670833Y-14305312D02*
X14661905Y-14310074D01*
X14661905Y-14310074D02*
X14658333Y-14319598D01*
X14658333Y-14319598D02*
X14664881Y-14371979D01*
X14658333Y-14319598D02*
X14652381Y-14310074D01*
X14652381Y-14310074D02*
X14642262Y-14305312D01*
X14642262Y-14305312D02*
X14627976Y-14305312D01*
X14627976Y-14305312D02*
X14619048Y-14310074D01*
X14619048Y-14310074D02*
X14615476Y-14319598D01*
X14615476Y-14319598D02*
X14622024Y-14371979D01*
X14578571Y-14367217D02*
X14564881Y-14371979D01*
X14564881Y-14371979D02*
X14541071Y-14371979D01*
X14541071Y-14371979D02*
X14530952Y-14367217D01*
X14530952Y-14367217D02*
X14525595Y-14362455D01*
X14525595Y-14362455D02*
X14519643Y-14352931D01*
X14519643Y-14352931D02*
X14518452Y-14343408D01*
X14518452Y-14343408D02*
X14522024Y-14333884D01*
X14522024Y-14333884D02*
X14526190Y-14329122D01*
X14526190Y-14329122D02*
X14535119Y-14324360D01*
X14535119Y-14324360D02*
X14553571Y-14319598D01*
X14553571Y-14319598D02*
X14562500Y-14314836D01*
X14562500Y-14314836D02*
X14566667Y-14310074D01*
X14566667Y-14310074D02*
X14570238Y-14300550D01*
X14570238Y-14300550D02*
X14569048Y-14291027D01*
X14569048Y-14291027D02*
X14563095Y-14281503D01*
X14563095Y-14281503D02*
X14557738Y-14276741D01*
X14557738Y-14276741D02*
X14547619Y-14271979D01*
X14547619Y-14271979D02*
X14523809Y-14271979D01*
X14523809Y-14271979D02*
X14510119Y-14276741D01*
X14480357Y-14305312D02*
X14464881Y-14371979D01*
X14432738Y-14305312D02*
X14464881Y-14371979D01*
X14464881Y-14371979D02*
X14477381Y-14395789D01*
X14477381Y-14395789D02*
X14482738Y-14400550D01*
X14482738Y-14400550D02*
X14492857Y-14405312D01*
X14407143Y-14367217D02*
X14398214Y-14371979D01*
X14398214Y-14371979D02*
X14379167Y-14371979D01*
X14379167Y-14371979D02*
X14369048Y-14367217D01*
X14369048Y-14367217D02*
X14363095Y-14357693D01*
X14363095Y-14357693D02*
X14362500Y-14352931D01*
X14362500Y-14352931D02*
X14366071Y-14343408D01*
X14366071Y-14343408D02*
X14375000Y-14338646D01*
X14375000Y-14338646D02*
X14389286Y-14338646D01*
X14389286Y-14338646D02*
X14398214Y-14333884D01*
X14398214Y-14333884D02*
X14401786Y-14324360D01*
X14401786Y-14324360D02*
X14401190Y-14319598D01*
X14401190Y-14319598D02*
X14395238Y-14310074D01*
X14395238Y-14310074D02*
X14385119Y-14305312D01*
X14385119Y-14305312D02*
X14370833Y-14305312D01*
X14370833Y-14305312D02*
X14361905Y-14310074D01*
X14327976Y-14305312D02*
X14289881Y-14305312D01*
X14309524Y-14271979D02*
X14320238Y-14357693D01*
X14320238Y-14357693D02*
X14316667Y-14367217D01*
X14316667Y-14367217D02*
X14307738Y-14371979D01*
X14307738Y-14371979D02*
X14298214Y-14371979D01*
X14226190Y-14367217D02*
X14236309Y-14371979D01*
X14236309Y-14371979D02*
X14255357Y-14371979D01*
X14255357Y-14371979D02*
X14264286Y-14367217D01*
X14264286Y-14367217D02*
X14267857Y-14357693D01*
X14267857Y-14357693D02*
X14263095Y-14319598D01*
X14263095Y-14319598D02*
X14257143Y-14310074D01*
X14257143Y-14310074D02*
X14247024Y-14305312D01*
X14247024Y-14305312D02*
X14227976Y-14305312D01*
X14227976Y-14305312D02*
X14219047Y-14310074D01*
X14219047Y-14310074D02*
X14215476Y-14319598D01*
X14215476Y-14319598D02*
X14216667Y-14329122D01*
X14216667Y-14329122D02*
X14265476Y-14338646D01*
X14179167Y-14371979D02*
X14170833Y-14305312D01*
X14172024Y-14314836D02*
X14166667Y-14310074D01*
X14166667Y-14310074D02*
X14156547Y-14305312D01*
X14156547Y-14305312D02*
X14142262Y-14305312D01*
X14142262Y-14305312D02*
X14133333Y-14310074D01*
X14133333Y-14310074D02*
X14129762Y-14319598D01*
X14129762Y-14319598D02*
X14136309Y-14371979D01*
X14129762Y-14319598D02*
X14123809Y-14310074D01*
X14123809Y-14310074D02*
X14113690Y-14305312D01*
X14113690Y-14305312D02*
X14099405Y-14305312D01*
X14099405Y-14305312D02*
X14090476Y-14310074D01*
X14090476Y-14310074D02*
X14086905Y-14319598D01*
X14086905Y-14319598D02*
X14093452Y-14371979D01*
D12*
X15466714Y-13897188D02*
X15478143Y-13891474D01*
X15478143Y-13891474D02*
X15495286Y-13891474D01*
X15495286Y-13891474D02*
X15512428Y-13897188D01*
X15512428Y-13897188D02*
X15523857Y-13908617D01*
X15523857Y-13908617D02*
X15529571Y-13920046D01*
X15529571Y-13920046D02*
X15535286Y-13942903D01*
X15535286Y-13942903D02*
X15535286Y-13960046D01*
X15535286Y-13960046D02*
X15529571Y-13982903D01*
X15529571Y-13982903D02*
X15523857Y-13994331D01*
X15523857Y-13994331D02*
X15512428Y-14005760D01*
X15512428Y-14005760D02*
X15495286Y-14011474D01*
X15495286Y-14011474D02*
X15483857Y-14011474D01*
X15483857Y-14011474D02*
X15466714Y-14005760D01*
X15466714Y-14005760D02*
X15461000Y-14000046D01*
X15461000Y-14000046D02*
X15461000Y-13960046D01*
X15461000Y-13960046D02*
X15483857Y-13960046D01*
X15409571Y-14011474D02*
X15409571Y-13931474D01*
X15409571Y-13891474D02*
X15415286Y-13897188D01*
X15415286Y-13897188D02*
X15409571Y-13902903D01*
X15409571Y-13902903D02*
X15403857Y-13897188D01*
X15403857Y-13897188D02*
X15409571Y-13891474D01*
X15409571Y-13891474D02*
X15409571Y-13902903D01*
X15369571Y-13931474D02*
X15323857Y-13931474D01*
X15352428Y-13891474D02*
X15352428Y-13994331D01*
X15352428Y-13994331D02*
X15346714Y-14005760D01*
X15346714Y-14005760D02*
X15335286Y-14011474D01*
X15335286Y-14011474D02*
X15323857Y-14011474D01*
X15283857Y-14011474D02*
X15283857Y-13891474D01*
X15232428Y-14011474D02*
X15232428Y-13948617D01*
X15232428Y-13948617D02*
X15238143Y-13937188D01*
X15238143Y-13937188D02*
X15249571Y-13931474D01*
X15249571Y-13931474D02*
X15266714Y-13931474D01*
X15266714Y-13931474D02*
X15278143Y-13937188D01*
X15278143Y-13937188D02*
X15283857Y-13942903D01*
X15123857Y-13931474D02*
X15123857Y-14011474D01*
X15175286Y-13931474D02*
X15175286Y-13994331D01*
X15175286Y-13994331D02*
X15169571Y-14005760D01*
X15169571Y-14005760D02*
X15158143Y-14011474D01*
X15158143Y-14011474D02*
X15141000Y-14011474D01*
X15141000Y-14011474D02*
X15129571Y-14005760D01*
X15129571Y-14005760D02*
X15123857Y-14000046D01*
X15066714Y-14011474D02*
X15066714Y-13891474D01*
X15066714Y-13937188D02*
X15055286Y-13931474D01*
X15055286Y-13931474D02*
X15032428Y-13931474D01*
X15032428Y-13931474D02*
X15021000Y-13937188D01*
X15021000Y-13937188D02*
X15015286Y-13942903D01*
X15015286Y-13942903D02*
X15009571Y-13954331D01*
X15009571Y-13954331D02*
X15009571Y-13988617D01*
X15009571Y-13988617D02*
X15015286Y-14000046D01*
X15015286Y-14000046D02*
X15021000Y-14005760D01*
X15021000Y-14005760D02*
X15032428Y-14011474D01*
X15032428Y-14011474D02*
X15055286Y-14011474D01*
X15055286Y-14011474D02*
X15066714Y-14005760D01*
X14958143Y-13965760D02*
X14866714Y-13965760D01*
X14741000Y-14011474D02*
X14781000Y-13954331D01*
X14809571Y-14011474D02*
X14809571Y-13891474D01*
X14809571Y-13891474D02*
X14763857Y-13891474D01*
X14763857Y-13891474D02*
X14752429Y-13897188D01*
X14752429Y-13897188D02*
X14746714Y-13902903D01*
X14746714Y-13902903D02*
X14741000Y-13914331D01*
X14741000Y-13914331D02*
X14741000Y-13931474D01*
X14741000Y-13931474D02*
X14746714Y-13942903D01*
X14746714Y-13942903D02*
X14752429Y-13948617D01*
X14752429Y-13948617D02*
X14763857Y-13954331D01*
X14763857Y-13954331D02*
X14809571Y-13954331D01*
X14643857Y-14005760D02*
X14655286Y-14011474D01*
X14655286Y-14011474D02*
X14678143Y-14011474D01*
X14678143Y-14011474D02*
X14689571Y-14005760D01*
X14689571Y-14005760D02*
X14695286Y-13994331D01*
X14695286Y-13994331D02*
X14695286Y-13948617D01*
X14695286Y-13948617D02*
X14689571Y-13937188D01*
X14689571Y-13937188D02*
X14678143Y-13931474D01*
X14678143Y-13931474D02*
X14655286Y-13931474D01*
X14655286Y-13931474D02*
X14643857Y-13937188D01*
X14643857Y-13937188D02*
X14638143Y-13948617D01*
X14638143Y-13948617D02*
X14638143Y-13960046D01*
X14638143Y-13960046D02*
X14695286Y-13971474D01*
X14586714Y-13931474D02*
X14586714Y-14051474D01*
X14586714Y-13937188D02*
X14575286Y-13931474D01*
X14575286Y-13931474D02*
X14552429Y-13931474D01*
X14552429Y-13931474D02*
X14541000Y-13937188D01*
X14541000Y-13937188D02*
X14535286Y-13942903D01*
X14535286Y-13942903D02*
X14529571Y-13954331D01*
X14529571Y-13954331D02*
X14529571Y-13988617D01*
X14529571Y-13988617D02*
X14535286Y-14000046D01*
X14535286Y-14000046D02*
X14541000Y-14005760D01*
X14541000Y-14005760D02*
X14552429Y-14011474D01*
X14552429Y-14011474D02*
X14575286Y-14011474D01*
X14575286Y-14011474D02*
X14586714Y-14005760D01*
X14461000Y-14011474D02*
X14472429Y-14005760D01*
X14472429Y-14005760D02*
X14478143Y-14000046D01*
X14478143Y-14000046D02*
X14483857Y-13988617D01*
X14483857Y-13988617D02*
X14483857Y-13954331D01*
X14483857Y-13954331D02*
X14478143Y-13942903D01*
X14478143Y-13942903D02*
X14472429Y-13937188D01*
X14472429Y-13937188D02*
X14461000Y-13931474D01*
X14461000Y-13931474D02*
X14443857Y-13931474D01*
X14443857Y-13931474D02*
X14432429Y-13937188D01*
X14432429Y-13937188D02*
X14426714Y-13942903D01*
X14426714Y-13942903D02*
X14421000Y-13954331D01*
X14421000Y-13954331D02*
X14421000Y-13988617D01*
X14421000Y-13988617D02*
X14426714Y-14000046D01*
X14426714Y-14000046D02*
X14432429Y-14005760D01*
X14432429Y-14005760D02*
X14443857Y-14011474D01*
X14443857Y-14011474D02*
X14461000Y-14011474D01*
X14375286Y-14005760D02*
X14363857Y-14011474D01*
X14363857Y-14011474D02*
X14341000Y-14011474D01*
X14341000Y-14011474D02*
X14329571Y-14005760D01*
X14329571Y-14005760D02*
X14323857Y-13994331D01*
X14323857Y-13994331D02*
X14323857Y-13988617D01*
X14323857Y-13988617D02*
X14329571Y-13977188D01*
X14329571Y-13977188D02*
X14341000Y-13971474D01*
X14341000Y-13971474D02*
X14358143Y-13971474D01*
X14358143Y-13971474D02*
X14369571Y-13965760D01*
X14369571Y-13965760D02*
X14375286Y-13954331D01*
X14375286Y-13954331D02*
X14375286Y-13948617D01*
X14375286Y-13948617D02*
X14369571Y-13937188D01*
X14369571Y-13937188D02*
X14358143Y-13931474D01*
X14358143Y-13931474D02*
X14341000Y-13931474D01*
X14341000Y-13931474D02*
X14329571Y-13937188D01*
X14272429Y-14011474D02*
X14272429Y-13931474D01*
X14272429Y-13891474D02*
X14278143Y-13897188D01*
X14278143Y-13897188D02*
X14272429Y-13902903D01*
X14272429Y-13902903D02*
X14266714Y-13897188D01*
X14266714Y-13897188D02*
X14272429Y-13891474D01*
X14272429Y-13891474D02*
X14272429Y-13902903D01*
X14232429Y-13931474D02*
X14186714Y-13931474D01*
X14215286Y-13891474D02*
X14215286Y-13994331D01*
X14215286Y-13994331D02*
X14209571Y-14005760D01*
X14209571Y-14005760D02*
X14198143Y-14011474D01*
X14198143Y-14011474D02*
X14186714Y-14011474D01*
X14129571Y-14011474D02*
X14141000Y-14005760D01*
X14141000Y-14005760D02*
X14146714Y-14000046D01*
X14146714Y-14000046D02*
X14152429Y-13988617D01*
X14152429Y-13988617D02*
X14152429Y-13954331D01*
X14152429Y-13954331D02*
X14146714Y-13942903D01*
X14146714Y-13942903D02*
X14141000Y-13937188D01*
X14141000Y-13937188D02*
X14129571Y-13931474D01*
X14129571Y-13931474D02*
X14112429Y-13931474D01*
X14112429Y-13931474D02*
X14101000Y-13937188D01*
X14101000Y-13937188D02*
X14095286Y-13942903D01*
X14095286Y-13942903D02*
X14089571Y-13954331D01*
X14089571Y-13954331D02*
X14089571Y-13988617D01*
X14089571Y-13988617D02*
X14095286Y-14000046D01*
X14095286Y-14000046D02*
X14101000Y-14005760D01*
X14101000Y-14005760D02*
X14112429Y-14011474D01*
X14112429Y-14011474D02*
X14129571Y-14011474D01*
X14038143Y-14011474D02*
X14038143Y-13931474D01*
X14038143Y-13954331D02*
X14032429Y-13942903D01*
X14032429Y-13942903D02*
X14026714Y-13937188D01*
X14026714Y-13937188D02*
X14015286Y-13931474D01*
X14015286Y-13931474D02*
X14003857Y-13931474D01*
X13975286Y-13931474D02*
X13946714Y-14011474D01*
X13918143Y-13931474D02*
X13946714Y-14011474D01*
X13946714Y-14011474D02*
X13958143Y-14040046D01*
X13958143Y-14040046D02*
X13963857Y-14045760D01*
X13963857Y-14045760D02*
X13975286Y-14051474D01*
X13872429Y-14000046D02*
X13866714Y-14005760D01*
X13866714Y-14005760D02*
X13872429Y-14011474D01*
X13872429Y-14011474D02*
X13878143Y-14005760D01*
X13878143Y-14005760D02*
X13872429Y-14000046D01*
X13872429Y-14000046D02*
X13872429Y-14011474D01*
X13872429Y-13937188D02*
X13866714Y-13942903D01*
X13866714Y-13942903D02*
X13872429Y-13948617D01*
X13872429Y-13948617D02*
X13878143Y-13942903D01*
X13878143Y-13942903D02*
X13872429Y-13937188D01*
X13872429Y-13937188D02*
X13872429Y-13948617D01*
D11*
X14878190Y-11687482D02*
X14878190Y-11768434D01*
X14878190Y-11768434D02*
X14873428Y-11777958D01*
X14873428Y-11777958D02*
X14868667Y-11782720D01*
X14868667Y-11782720D02*
X14859143Y-11787482D01*
X14859143Y-11787482D02*
X14840095Y-11787482D01*
X14840095Y-11787482D02*
X14830571Y-11782720D01*
X14830571Y-11782720D02*
X14825809Y-11777958D01*
X14825809Y-11777958D02*
X14821048Y-11768434D01*
X14821048Y-11768434D02*
X14821048Y-11687482D01*
X14778190Y-11697006D02*
X14773428Y-11692244D01*
X14773428Y-11692244D02*
X14763905Y-11687482D01*
X14763905Y-11687482D02*
X14740095Y-11687482D01*
X14740095Y-11687482D02*
X14730571Y-11692244D01*
X14730571Y-11692244D02*
X14725809Y-11697006D01*
X14725809Y-11697006D02*
X14721048Y-11706529D01*
X14721048Y-11706529D02*
X14721048Y-11716053D01*
X14721048Y-11716053D02*
X14725809Y-11730339D01*
X14725809Y-11730339D02*
X14782952Y-11787482D01*
X14782952Y-11787482D02*
X14721048Y-11787482D01*
X15849524Y-13170006D02*
X15859048Y-13165244D01*
X15859048Y-13165244D02*
X15868571Y-13155720D01*
X15868571Y-13155720D02*
X15882857Y-13141434D01*
X15882857Y-13141434D02*
X15892381Y-13136672D01*
X15892381Y-13136672D02*
X15901905Y-13136672D01*
X15897143Y-13160482D02*
X15906667Y-13155720D01*
X15906667Y-13155720D02*
X15916190Y-13146196D01*
X15916190Y-13146196D02*
X15920952Y-13127148D01*
X15920952Y-13127148D02*
X15920952Y-13093815D01*
X15920952Y-13093815D02*
X15916190Y-13074768D01*
X15916190Y-13074768D02*
X15906667Y-13065244D01*
X15906667Y-13065244D02*
X15897143Y-13060482D01*
X15897143Y-13060482D02*
X15878095Y-13060482D01*
X15878095Y-13060482D02*
X15868571Y-13065244D01*
X15868571Y-13065244D02*
X15859048Y-13074768D01*
X15859048Y-13074768D02*
X15854286Y-13093815D01*
X15854286Y-13093815D02*
X15854286Y-13127148D01*
X15854286Y-13127148D02*
X15859048Y-13146196D01*
X15859048Y-13146196D02*
X15868571Y-13155720D01*
X15868571Y-13155720D02*
X15878095Y-13160482D01*
X15878095Y-13160482D02*
X15897143Y-13160482D01*
X15763809Y-13060482D02*
X15811428Y-13060482D01*
X15811428Y-13060482D02*
X15816190Y-13108101D01*
X15816190Y-13108101D02*
X15811428Y-13103339D01*
X15811428Y-13103339D02*
X15801905Y-13098577D01*
X15801905Y-13098577D02*
X15778095Y-13098577D01*
X15778095Y-13098577D02*
X15768571Y-13103339D01*
X15768571Y-13103339D02*
X15763809Y-13108101D01*
X15763809Y-13108101D02*
X15759048Y-13117625D01*
X15759048Y-13117625D02*
X15759048Y-13141434D01*
X15759048Y-13141434D02*
X15763809Y-13150958D01*
X15763809Y-13150958D02*
X15768571Y-13155720D01*
X15768571Y-13155720D02*
X15778095Y-13160482D01*
X15778095Y-13160482D02*
X15801905Y-13160482D01*
X15801905Y-13160482D02*
X15811428Y-13155720D01*
X15811428Y-13155720D02*
X15816190Y-13150958D01*
X12047833Y-8614482D02*
X12047833Y-8685910D01*
X12047833Y-8685910D02*
X12052595Y-8700196D01*
X12052595Y-8700196D02*
X12062119Y-8709720D01*
X12062119Y-8709720D02*
X12076405Y-8714482D01*
X12076405Y-8714482D02*
X12085928Y-8714482D01*
X12004976Y-8624006D02*
X12000214Y-8619244D01*
X12000214Y-8619244D02*
X11990690Y-8614482D01*
X11990690Y-8614482D02*
X11966881Y-8614482D01*
X11966881Y-8614482D02*
X11957357Y-8619244D01*
X11957357Y-8619244D02*
X11952595Y-8624006D01*
X11952595Y-8624006D02*
X11947833Y-8633530D01*
X11947833Y-8633530D02*
X11947833Y-8643053D01*
X11947833Y-8643053D02*
X11952595Y-8657339D01*
X11952595Y-8657339D02*
X12009738Y-8714482D01*
X12009738Y-8714482D02*
X11947833Y-8714482D01*
X13416190Y-6345482D02*
X13416190Y-6426434D01*
X13416190Y-6426434D02*
X13411428Y-6435958D01*
X13411428Y-6435958D02*
X13406667Y-6440720D01*
X13406667Y-6440720D02*
X13397143Y-6445482D01*
X13397143Y-6445482D02*
X13378095Y-6445482D01*
X13378095Y-6445482D02*
X13368571Y-6440720D01*
X13368571Y-6440720D02*
X13363809Y-6435958D01*
X13363809Y-6435958D02*
X13359048Y-6426434D01*
X13359048Y-6426434D02*
X13359048Y-6345482D01*
X13320952Y-6345482D02*
X13259048Y-6345482D01*
X13259048Y-6345482D02*
X13292381Y-6383577D01*
X13292381Y-6383577D02*
X13278095Y-6383577D01*
X13278095Y-6383577D02*
X13268571Y-6388339D01*
X13268571Y-6388339D02*
X13263809Y-6393101D01*
X13263809Y-6393101D02*
X13259048Y-6402625D01*
X13259048Y-6402625D02*
X13259048Y-6426434D01*
X13259048Y-6426434D02*
X13263809Y-6435958D01*
X13263809Y-6435958D02*
X13268571Y-6440720D01*
X13268571Y-6440720D02*
X13278095Y-6445482D01*
X13278095Y-6445482D02*
X13306667Y-6445482D01*
X13306667Y-6445482D02*
X13316190Y-6440720D01*
X13316190Y-6440720D02*
X13320952Y-6435958D01*
X16886190Y-7045482D02*
X16886190Y-7126434D01*
X16886190Y-7126434D02*
X16881429Y-7135958D01*
X16881429Y-7135958D02*
X16876667Y-7140720D01*
X16876667Y-7140720D02*
X16867143Y-7145482D01*
X16867143Y-7145482D02*
X16848095Y-7145482D01*
X16848095Y-7145482D02*
X16838571Y-7140720D01*
X16838571Y-7140720D02*
X16833810Y-7135958D01*
X16833810Y-7135958D02*
X16829048Y-7126434D01*
X16829048Y-7126434D02*
X16829048Y-7045482D01*
X16738571Y-7078815D02*
X16738571Y-7145482D01*
X16762381Y-7040720D02*
X16786190Y-7112148D01*
X16786190Y-7112148D02*
X16724286Y-7112148D01*
X16613833Y-8615482D02*
X16613833Y-8686910D01*
X16613833Y-8686910D02*
X16618595Y-8701196D01*
X16618595Y-8701196D02*
X16628119Y-8710720D01*
X16628119Y-8710720D02*
X16642405Y-8715482D01*
X16642405Y-8715482D02*
X16651928Y-8715482D01*
X16575738Y-8615482D02*
X16513833Y-8615482D01*
X16513833Y-8615482D02*
X16547167Y-8653577D01*
X16547167Y-8653577D02*
X16532881Y-8653577D01*
X16532881Y-8653577D02*
X16523357Y-8658339D01*
X16523357Y-8658339D02*
X16518595Y-8663101D01*
X16518595Y-8663101D02*
X16513833Y-8672625D01*
X16513833Y-8672625D02*
X16513833Y-8696434D01*
X16513833Y-8696434D02*
X16518595Y-8705958D01*
X16518595Y-8705958D02*
X16523357Y-8710720D01*
X16523357Y-8710720D02*
X16532881Y-8715482D01*
X16532881Y-8715482D02*
X16561452Y-8715482D01*
X16561452Y-8715482D02*
X16570976Y-8710720D01*
X16570976Y-8710720D02*
X16575738Y-8705958D01*
X14733333Y-7705482D02*
X14733333Y-7776910D01*
X14733333Y-7776910D02*
X14738095Y-7791196D01*
X14738095Y-7791196D02*
X14747619Y-7800720D01*
X14747619Y-7800720D02*
X14761905Y-7805482D01*
X14761905Y-7805482D02*
X14771428Y-7805482D01*
X14642857Y-7738815D02*
X14642857Y-7805482D01*
X14666667Y-7700720D02*
X14690476Y-7772148D01*
X14690476Y-7772148D02*
X14628571Y-7772148D01*
X12487619Y-13065482D02*
X12487619Y-12965482D01*
X12382857Y-13055958D02*
X12387619Y-13060720D01*
X12387619Y-13060720D02*
X12401905Y-13065482D01*
X12401905Y-13065482D02*
X12411428Y-13065482D01*
X12411428Y-13065482D02*
X12425714Y-13060720D01*
X12425714Y-13060720D02*
X12435238Y-13051196D01*
X12435238Y-13051196D02*
X12440000Y-13041672D01*
X12440000Y-13041672D02*
X12444762Y-13022625D01*
X12444762Y-13022625D02*
X12444762Y-13008339D01*
X12444762Y-13008339D02*
X12440000Y-12989291D01*
X12440000Y-12989291D02*
X12435238Y-12979768D01*
X12435238Y-12979768D02*
X12425714Y-12970244D01*
X12425714Y-12970244D02*
X12411428Y-12965482D01*
X12411428Y-12965482D02*
X12401905Y-12965482D01*
X12401905Y-12965482D02*
X12387619Y-12970244D01*
X12387619Y-12970244D02*
X12382857Y-12975006D01*
X12287619Y-13065482D02*
X12344762Y-13065482D01*
X12316190Y-13065482D02*
X12316190Y-12965482D01*
X12316190Y-12965482D02*
X12325714Y-12979768D01*
X12325714Y-12979768D02*
X12335238Y-12989291D01*
X12335238Y-12989291D02*
X12344762Y-12994053D01*
X14867619Y-8960482D02*
X14867619Y-8860482D01*
X14762857Y-8950958D02*
X14767619Y-8955720D01*
X14767619Y-8955720D02*
X14781905Y-8960482D01*
X14781905Y-8960482D02*
X14791428Y-8960482D01*
X14791428Y-8960482D02*
X14805714Y-8955720D01*
X14805714Y-8955720D02*
X14815238Y-8946196D01*
X14815238Y-8946196D02*
X14820000Y-8936672D01*
X14820000Y-8936672D02*
X14824762Y-8917625D01*
X14824762Y-8917625D02*
X14824762Y-8903339D01*
X14824762Y-8903339D02*
X14820000Y-8884291D01*
X14820000Y-8884291D02*
X14815238Y-8874768D01*
X14815238Y-8874768D02*
X14805714Y-8865244D01*
X14805714Y-8865244D02*
X14791428Y-8860482D01*
X14791428Y-8860482D02*
X14781905Y-8860482D01*
X14781905Y-8860482D02*
X14767619Y-8865244D01*
X14767619Y-8865244D02*
X14762857Y-8870006D01*
X14724762Y-8870006D02*
X14720000Y-8865244D01*
X14720000Y-8865244D02*
X14710476Y-8860482D01*
X14710476Y-8860482D02*
X14686667Y-8860482D01*
X14686667Y-8860482D02*
X14677143Y-8865244D01*
X14677143Y-8865244D02*
X14672381Y-8870006D01*
X14672381Y-8870006D02*
X14667619Y-8879530D01*
X14667619Y-8879530D02*
X14667619Y-8889053D01*
X14667619Y-8889053D02*
X14672381Y-8903339D01*
X14672381Y-8903339D02*
X14729524Y-8960482D01*
X14729524Y-8960482D02*
X14667619Y-8960482D01*
D12*
%TO.C,U2*%
X14247500Y-11146500D02*
G75*
G02*
X14227500Y-11146500I-10000J0D01*
G01*
X14227500Y-11146500D02*
G75*
G02*
X14247500Y-11146500I10000J0D01*
G01*
D13*
X14637500Y-11750500D02*
X14637500Y-11695500D01*
X14137500Y-11750500D02*
X14137500Y-11695500D01*
X14637500Y-11250500D02*
X14637500Y-11305500D01*
X14137500Y-11250500D02*
X14137500Y-11305500D01*
X14637500Y-11750500D02*
X14582500Y-11750500D01*
X14137500Y-11750500D02*
X14192500Y-11750500D01*
X14637500Y-11250500D02*
X14582500Y-11250500D01*
X14137500Y-11250500D02*
X14192500Y-11250500D01*
D10*
%TO.C,Q5*%
X15710000Y-12913000D02*
X15686000Y-12880000D01*
X15734000Y-12880000D01*
X15710000Y-12913000D01*
G36*
X15710000Y-12913000D02*
G01*
X15686000Y-12880000D01*
X15734000Y-12880000D01*
X15710000Y-12913000D01*
G37*
X15916000Y-12719000D02*
X15764000Y-12719000D01*
X15916000Y-12819000D02*
X15916000Y-12719000D01*
X15916000Y-13031000D02*
X15916000Y-12931000D01*
X15764000Y-12719000D02*
X15764000Y-12724000D01*
X15764000Y-12836000D02*
X15764000Y-12914000D01*
X15764000Y-13026000D02*
X15764000Y-13031000D01*
X15764000Y-13031000D02*
X15916000Y-13031000D01*
%TO.C,D10*%
X11445000Y-12179000D02*
X11445000Y-12920000D01*
X11445000Y-12179000D02*
X11875000Y-12179000D01*
X11875000Y-12179000D02*
X11875000Y-12920000D01*
%TO.C,Q3*%
X15580500Y-13193000D02*
X15395500Y-13193000D01*
X15580500Y-13282000D02*
X15580500Y-13193000D01*
X15582000Y-13505000D02*
X15397000Y-13505000D01*
X15582000Y-13505000D02*
X15582000Y-13416000D01*
X15382000Y-13537000D02*
X15334000Y-13537000D01*
X15358000Y-13504000D01*
X15382000Y-13537000D01*
G36*
X15382000Y-13537000D02*
G01*
X15334000Y-13537000D01*
X15358000Y-13504000D01*
X15382000Y-13537000D01*
G37*
%TO.C,R21*%
X15987294Y-13259000D02*
X16132706Y-13259000D01*
X15987294Y-13441000D02*
X16132706Y-13441000D01*
%TO.C,L1*%
X12442000Y-7602000D02*
X12442000Y-7842500D01*
X12442000Y-8638000D02*
X12442000Y-8397500D01*
X13478000Y-7602000D02*
X12442000Y-7602000D01*
X13478000Y-7842500D02*
X13478000Y-7602000D01*
X13478000Y-8397500D02*
X13478000Y-8638000D01*
X13478000Y-8638000D02*
X12442000Y-8638000D01*
%TO.C,Q2*%
X16346500Y-13274000D02*
X16346500Y-13089000D01*
X16346500Y-13274000D02*
X16435500Y-13274000D01*
X16569500Y-13272500D02*
X16658500Y-13272500D01*
X16658500Y-13272500D02*
X16658500Y-13087500D01*
X16347500Y-13050000D02*
X16314500Y-13074000D01*
X16314500Y-13026000D01*
X16347500Y-13050000D01*
G36*
X16347500Y-13050000D02*
G01*
X16314500Y-13074000D01*
X16314500Y-13026000D01*
X16347500Y-13050000D01*
G37*
%TO.C,R13*%
X15117750Y-11754528D02*
X15117750Y-11805472D01*
X15222250Y-11754528D02*
X15222250Y-11805472D01*
%TO.C,R12*%
X15277750Y-11754528D02*
X15277750Y-11805472D01*
X15382250Y-11754528D02*
X15382250Y-11805472D01*
%TO.C,R8*%
X16867750Y-13812028D02*
X16867750Y-13862972D01*
X16972250Y-13812028D02*
X16972250Y-13862972D01*
%TO.C,R11*%
X17747750Y-13812028D02*
X17747750Y-13862972D01*
X17852250Y-13812028D02*
X17852250Y-13862972D01*
%TO.C,C3*%
X12729000Y-12805373D02*
X12729000Y-12834627D01*
X12831000Y-12805373D02*
X12831000Y-12834627D01*
%TO.C,C7*%
X14678875Y-10970000D02*
X14821125Y-10970000D01*
X14678875Y-11152000D02*
X14821125Y-11152000D01*
%TO.C,C8*%
X14865373Y-11219000D02*
X14894627Y-11219000D01*
X14865373Y-11321000D02*
X14894627Y-11321000D01*
%TO.C,R2*%
X13305472Y-12677750D02*
X13254528Y-12677750D01*
X13305472Y-12782250D02*
X13254528Y-12782250D01*
%TO.C,C1*%
X12729000Y-12484627D02*
X12729000Y-12455373D01*
X12831000Y-12484627D02*
X12831000Y-12455373D01*
%TO.C,R19*%
X14204528Y-8527750D02*
X14255472Y-8527750D01*
X14204528Y-8632250D02*
X14255472Y-8632250D01*
%TO.C,Q1*%
X16446000Y-12448000D02*
X16366000Y-12448000D01*
X16446000Y-12448000D02*
X16526000Y-12448000D01*
X16526000Y-12132000D02*
X16380000Y-12132000D01*
X16526000Y-12132000D02*
X16526000Y-12225000D01*
X16526000Y-12448000D02*
X16526000Y-12355000D01*
X16340000Y-12484000D02*
X16292000Y-12484000D01*
X16316000Y-12451000D01*
X16340000Y-12484000D01*
G36*
X16340000Y-12484000D02*
G01*
X16292000Y-12484000D01*
X16316000Y-12451000D01*
X16340000Y-12484000D01*
G37*
%TO.C,J2*%
X12157000Y-8738000D02*
X12157000Y-8795000D01*
X12157000Y-8795000D02*
X12013000Y-8795000D01*
X12157000Y-8947000D02*
X12157000Y-9049000D01*
X12157000Y-9201000D02*
X12157000Y-9303000D01*
X12157000Y-9455000D02*
X12157000Y-9557000D01*
X12157000Y-9709000D02*
X12157000Y-9811000D01*
X12157000Y-9963000D02*
X12157000Y-10065000D01*
X12157000Y-10217000D02*
X12157000Y-10319000D01*
X12157000Y-10471000D02*
X12157000Y-10573000D01*
X12157000Y-10725000D02*
X12157000Y-10827000D01*
X12157000Y-10979000D02*
X12157000Y-11081000D01*
X12157000Y-11233000D02*
X12157000Y-11335000D01*
X12157000Y-11487000D02*
X12157000Y-11589000D01*
X12157000Y-11741000D02*
X12157000Y-11843000D01*
X12157000Y-11995000D02*
X12157000Y-12052000D01*
X12677000Y-8738000D02*
X12157000Y-8738000D01*
X12677000Y-8738000D02*
X12677000Y-8795000D01*
X12677000Y-8947000D02*
X12677000Y-9049000D01*
X12677000Y-9201000D02*
X12677000Y-9303000D01*
X12677000Y-9455000D02*
X12677000Y-9557000D01*
X12677000Y-9709000D02*
X12677000Y-9811000D01*
X12677000Y-9963000D02*
X12677000Y-10065000D01*
X12677000Y-10217000D02*
X12677000Y-10319000D01*
X12677000Y-10471000D02*
X12677000Y-10573000D01*
X12677000Y-10725000D02*
X12677000Y-10827000D01*
X12677000Y-10979000D02*
X12677000Y-11081000D01*
X12677000Y-11233000D02*
X12677000Y-11335000D01*
X12677000Y-11487000D02*
X12677000Y-11589000D01*
X12677000Y-11741000D02*
X12677000Y-11843000D01*
X12677000Y-11995000D02*
X12677000Y-12052000D01*
X12677000Y-12052000D02*
X12157000Y-12052000D01*
%TO.C,C4*%
X15258373Y-8519000D02*
X15287627Y-8519000D01*
X15258373Y-8621000D02*
X15287627Y-8621000D01*
%TO.C,D16*%
X15080000Y-10250000D02*
X14665000Y-10250000D01*
X15080000Y-10250000D02*
X15080000Y-10450000D01*
X15080000Y-10450000D02*
X14665000Y-10450000D01*
%TO.C,R17*%
X12887750Y-12845472D02*
X12887750Y-12794528D01*
X12992250Y-12845472D02*
X12992250Y-12794528D01*
%TO.C,R14*%
X16575472Y-12497750D02*
X16524528Y-12497750D01*
X16575472Y-12602250D02*
X16524528Y-12602250D01*
%TO.C,C6*%
X14829000Y-12165373D02*
X14829000Y-12194627D01*
X14931000Y-12165373D02*
X14931000Y-12194627D01*
%TO.C,U3*%
X13134000Y-6524000D02*
X13134000Y-6533500D01*
X13134000Y-7026500D02*
X13134000Y-7036000D01*
X13134000Y-7036000D02*
X13546000Y-7036000D01*
X13546000Y-6524000D02*
X13134000Y-6524000D01*
X13546000Y-6533500D02*
X13546000Y-6524000D01*
X13546000Y-7036000D02*
X13546000Y-7026500D01*
X13104000Y-7060000D02*
X13056000Y-7060000D01*
X13080000Y-7027000D01*
X13104000Y-7060000D01*
G36*
X13104000Y-7060000D02*
G01*
X13056000Y-7060000D01*
X13080000Y-7027000D01*
X13104000Y-7060000D01*
G37*
%TO.C,D6*%
X15895000Y-9986000D02*
X15895000Y-9660000D01*
X16065000Y-9986000D02*
X15895000Y-9986000D01*
X16065000Y-9986000D02*
X16065000Y-9660000D01*
%TO.C,R24*%
X13661065Y-12334958D02*
X13625042Y-12298935D01*
X13734958Y-12261065D02*
X13698935Y-12225042D01*
%TO.C,Q4*%
X13678750Y-8946000D02*
X13678750Y-8866000D01*
X13678750Y-8946000D02*
X13678750Y-9026000D01*
X13678750Y-9026000D02*
X13771750Y-9026000D01*
X13994750Y-9026000D02*
X13901750Y-9026000D01*
X13994750Y-9026000D02*
X13994750Y-8880000D01*
X13675750Y-8816000D02*
X13642750Y-8840000D01*
X13642750Y-8792000D01*
X13675750Y-8816000D01*
G36*
X13675750Y-8816000D02*
G01*
X13642750Y-8840000D01*
X13642750Y-8792000D01*
X13675750Y-8816000D01*
G37*
%TO.C,R23*%
X13745042Y-12178935D02*
X13781065Y-12214958D01*
X13818935Y-12105042D02*
X13854958Y-12141065D01*
%TO.C,C11*%
X16406500Y-6301500D02*
X16593500Y-6301500D01*
X16406500Y-6710000D02*
X16406500Y-6301500D01*
X16593500Y-6301500D02*
X16593500Y-6710000D01*
%TO.C,R16*%
X12887750Y-12495472D02*
X12887750Y-12444528D01*
X12992250Y-12495472D02*
X12992250Y-12444528D01*
%TO.C,R25*%
X14584528Y-12037750D02*
X14635472Y-12037750D01*
X14584528Y-12142250D02*
X14635472Y-12142250D01*
%TO.C,C9*%
X12729000Y-7048875D02*
X12729000Y-7191125D01*
X12911000Y-7048875D02*
X12911000Y-7191125D01*
%TO.C,C14*%
X17100000Y-7036500D02*
X17508500Y-7036500D01*
X17508500Y-7036500D02*
X17508500Y-7223500D01*
X17508500Y-7223500D02*
X17100000Y-7223500D01*
%TO.C,U4*%
X16905000Y-6295000D02*
X17281000Y-6295000D01*
X16905000Y-6977000D02*
X17281000Y-6977000D01*
X17281000Y-6295000D02*
X17281000Y-6421000D01*
X17281000Y-6977000D02*
X17281000Y-6851000D01*
X16801000Y-7000000D02*
X16753000Y-7000000D01*
X16777000Y-6967000D01*
X16801000Y-7000000D01*
G36*
X16801000Y-7000000D02*
G01*
X16753000Y-7000000D01*
X16777000Y-6967000D01*
X16801000Y-7000000D01*
G37*
%TO.C,C13*%
X13328875Y-8689000D02*
X13471125Y-8689000D01*
X13328875Y-8871000D02*
X13471125Y-8871000D01*
%TO.C,R5*%
X13735042Y-11938935D02*
X13771065Y-11974958D01*
X13808935Y-11865042D02*
X13844958Y-11901065D01*
%TO.C,D7*%
X15895000Y-10014000D02*
X15895000Y-10340000D01*
X15895000Y-10014000D02*
X16065000Y-10014000D01*
X16065000Y-10014000D02*
X16065000Y-10340000D01*
%TO.C,R26*%
X15417750Y-12894222D02*
X15417750Y-12843278D01*
X15522250Y-12894222D02*
X15522250Y-12843278D01*
%TO.C,D5*%
X15270000Y-10274000D02*
X15270000Y-10600000D01*
X15270000Y-10274000D02*
X15440000Y-10274000D01*
X15440000Y-10274000D02*
X15440000Y-10600000D01*
%TO.C,J3*%
X16723000Y-8739000D02*
X16723000Y-8796000D01*
X16723000Y-8796000D02*
X16579000Y-8796000D01*
X16723000Y-8948000D02*
X16723000Y-9050000D01*
X16723000Y-9202000D02*
X16723000Y-9304000D01*
X16723000Y-9456000D02*
X16723000Y-9558000D01*
X16723000Y-9710000D02*
X16723000Y-9812000D01*
X16723000Y-9964000D02*
X16723000Y-10066000D01*
X16723000Y-10218000D02*
X16723000Y-10320000D01*
X16723000Y-10472000D02*
X16723000Y-10574000D01*
X16723000Y-10726000D02*
X16723000Y-10828000D01*
X16723000Y-10980000D02*
X16723000Y-11082000D01*
X16723000Y-11234000D02*
X16723000Y-11336000D01*
X16723000Y-11488000D02*
X16723000Y-11590000D01*
X16723000Y-11742000D02*
X16723000Y-11844000D01*
X16723000Y-11996000D02*
X16723000Y-12053000D01*
X17243000Y-8739000D02*
X16723000Y-8739000D01*
X17243000Y-8739000D02*
X17243000Y-8796000D01*
X17243000Y-8948000D02*
X17243000Y-9050000D01*
X17243000Y-9202000D02*
X17243000Y-9304000D01*
X17243000Y-9456000D02*
X17243000Y-9558000D01*
X17243000Y-9710000D02*
X17243000Y-9812000D01*
X17243000Y-9964000D02*
X17243000Y-10066000D01*
X17243000Y-10218000D02*
X17243000Y-10320000D01*
X17243000Y-10472000D02*
X17243000Y-10574000D01*
X17243000Y-10726000D02*
X17243000Y-10828000D01*
X17243000Y-10980000D02*
X17243000Y-11082000D01*
X17243000Y-11234000D02*
X17243000Y-11336000D01*
X17243000Y-11488000D02*
X17243000Y-11590000D01*
X17243000Y-11742000D02*
X17243000Y-11844000D01*
X17243000Y-11996000D02*
X17243000Y-12053000D01*
X17243000Y-12053000D02*
X16723000Y-12053000D01*
%TO.C,R6*%
X16350250Y-13812028D02*
X16350250Y-13862972D01*
X16454750Y-13812028D02*
X16454750Y-13862972D01*
%TO.C,Q7*%
X12541000Y-6635000D02*
X12461000Y-6635000D01*
X12541000Y-6635000D02*
X12621000Y-6635000D01*
X12621000Y-6319000D02*
X12475000Y-6319000D01*
X12621000Y-6319000D02*
X12621000Y-6412000D01*
X12621000Y-6635000D02*
X12621000Y-6542000D01*
X12435000Y-6671000D02*
X12387000Y-6671000D01*
X12411000Y-6638000D01*
X12435000Y-6671000D01*
G36*
X12435000Y-6671000D02*
G01*
X12387000Y-6671000D01*
X12411000Y-6638000D01*
X12435000Y-6671000D01*
G37*
%TO.C,J4*%
X13795500Y-7910500D02*
X13795500Y-8048500D01*
X13795500Y-8175500D02*
X13795500Y-8440500D01*
X13795500Y-8440500D02*
X15595500Y-8440500D01*
X13933500Y-7910500D02*
X13795500Y-7910500D01*
X14060500Y-7910500D02*
X14060500Y-8175500D01*
X14060500Y-7910500D02*
X15595500Y-7910500D01*
X14060500Y-8175500D02*
X13795500Y-8175500D01*
X15595500Y-7910500D02*
X15595500Y-8440500D01*
%TO.C,R31*%
X14853278Y-11447750D02*
X14904222Y-11447750D01*
X14853278Y-11552250D02*
X14904222Y-11552250D01*
%TO.C,R28*%
X15087750Y-11065472D02*
X15087750Y-11014528D01*
X15192250Y-11065472D02*
X15192250Y-11014528D01*
%TO.C,R20*%
X14239456Y-8696500D02*
X14194044Y-8696500D01*
X14239456Y-8843500D02*
X14194044Y-8843500D01*
%TO.C,R3*%
X13305472Y-12997750D02*
X13254528Y-12997750D01*
X13305472Y-13102250D02*
X13254528Y-13102250D01*
%TO.C,R22*%
X11927750Y-12705778D02*
X11927750Y-12756722D01*
X12032250Y-12705778D02*
X12032250Y-12756722D01*
%TO.C,D15*%
X13396000Y-7145000D02*
X13070000Y-7145000D01*
X13396000Y-7145000D02*
X13396000Y-7315000D01*
X13396000Y-7315000D02*
X13070000Y-7315000D01*
%TO.C,C12*%
X13253875Y-7396500D02*
X13306125Y-7396500D01*
X13253875Y-7543500D02*
X13306125Y-7543500D01*
%TO.C,C10*%
X13925373Y-6789000D02*
X13954627Y-6789000D01*
X13925373Y-6891000D02*
X13954627Y-6891000D01*
%TO.C,F1*%
X12069794Y-12214000D02*
X12190206Y-12214000D01*
X12069794Y-12486000D02*
X12190206Y-12486000D01*
%TO.C,R15*%
X16757750Y-12484222D02*
X16757750Y-12433278D01*
X16862250Y-12484222D02*
X16862250Y-12433278D01*
%TO.C,D8*%
X14030750Y-8884000D02*
X14536750Y-8884000D01*
X14030750Y-9156000D02*
X14030750Y-8884000D01*
X14030750Y-9156000D02*
X14536750Y-9156000D01*
%TO.C,R29*%
X15087750Y-11374528D02*
X15087750Y-11425472D01*
X15192250Y-11374528D02*
X15192250Y-11425472D01*
%TO.C,IC1*%
X12300000Y-12569000D02*
X12480000Y-12569000D01*
X12400000Y-12891000D02*
X12320000Y-12891000D01*
X12400000Y-12891000D02*
X12480000Y-12891000D01*
X12294000Y-12919000D02*
X12246000Y-12919000D01*
X12270000Y-12886000D01*
X12294000Y-12919000D01*
G36*
X12294000Y-12919000D02*
G01*
X12246000Y-12919000D01*
X12270000Y-12886000D01*
X12294000Y-12919000D01*
G37*
%TO.C,IC2*%
X14609000Y-8509000D02*
X14609000Y-8526500D01*
X14609000Y-8813500D02*
X14609000Y-8831000D01*
X14609000Y-8831000D02*
X14931000Y-8831000D01*
X14931000Y-8509000D02*
X14609000Y-8509000D01*
X14931000Y-8526500D02*
X14931000Y-8509000D01*
X14931000Y-8831000D02*
X14931000Y-8813500D01*
X14578000Y-8847000D02*
X14530000Y-8847000D01*
X14554000Y-8814000D01*
X14578000Y-8847000D01*
G36*
X14578000Y-8847000D02*
G01*
X14530000Y-8847000D01*
X14554000Y-8814000D01*
X14578000Y-8847000D01*
G37*
%TO.C,R10*%
X17047750Y-13812028D02*
X17047750Y-13862972D01*
X17152250Y-13812028D02*
X17152250Y-13862972D01*
%TO.C,R9*%
X17567750Y-13812028D02*
X17567750Y-13862972D01*
X17672250Y-13812028D02*
X17672250Y-13862972D01*
%TO.C,D14*%
X13484000Y-7076500D02*
X14090000Y-7076500D01*
X13484000Y-7503500D02*
X13484000Y-7076500D01*
X14090000Y-7503500D02*
X13484000Y-7503500D01*
%TO.C,R7*%
X16167750Y-13812028D02*
X16167750Y-13862972D01*
X16272250Y-13812028D02*
X16272250Y-13862972D01*
%TO.C,R4*%
X13305472Y-12837750D02*
X13254528Y-12837750D01*
X13305472Y-12942250D02*
X13254528Y-12942250D01*
%TD*%
M02*
