%TF.GenerationSoftware,KiCad,Pcbnew,9.0.5*%
%TF.CreationDate,2026-01-12T16:44:52+01:00*%
%TF.ProjectId,ZumoComSystem,5a756d6f-436f-46d5-9379-7374656d2e6b,V1.2*%
%TF.SameCoordinates,Original*%
%TF.FileFunction,Legend,Top*%
%TF.FilePolarity,Positive*%
%FSLAX45Y45*%
G04 Gerber Fmt 4.5, Leading zero omitted, Abs format (unit mm)*
G04 Created by KiCad (PCBNEW 9.0.5) date 2026-01-12 16:44:52*
%MOMM*%
%LPD*%
G01*
G04 APERTURE LIST*
%ADD10C,0.120000*%
%ADD11C,0.150000*%
%ADD12C,0.300000*%
%ADD13C,0.010000*%
%ADD14C,0.127000*%
%ADD15C,0.200000*%
G04 APERTURE END LIST*
D10*
X13600000Y-11690000D02*
X13600000Y-11177500D01*
X15357500Y-10820000D02*
X15477500Y-10820000D01*
X15830000Y-13890000D02*
X15925000Y-13795000D01*
X15340000Y-8875000D02*
X15340000Y-8990000D01*
X15830000Y-14360000D02*
X15830000Y-13890000D01*
X13610000Y-11940000D02*
X13600000Y-11690000D01*
X15360000Y-11320000D02*
X15475000Y-11320000D01*
X15840000Y-8872500D02*
X15840000Y-8992500D01*
X11601759Y-14306667D02*
X11568426Y-14330000D01*
X11601759Y-14346667D02*
X11531759Y-14346667D01*
X11531759Y-14346667D02*
X11531759Y-14320000D01*
X11531759Y-14320000D02*
X11535093Y-14313333D01*
X11535093Y-14313333D02*
X11538426Y-14310000D01*
X11538426Y-14310000D02*
X11545093Y-14306667D01*
X11545093Y-14306667D02*
X11555093Y-14306667D01*
X11555093Y-14306667D02*
X11561759Y-14310000D01*
X11561759Y-14310000D02*
X11565093Y-14313333D01*
X11565093Y-14313333D02*
X11568426Y-14320000D01*
X11568426Y-14320000D02*
X11568426Y-14346667D01*
X11598426Y-14280000D02*
X11601759Y-14270000D01*
X11601759Y-14270000D02*
X11601759Y-14253333D01*
X11601759Y-14253333D02*
X11598426Y-14246667D01*
X11598426Y-14246667D02*
X11595093Y-14243333D01*
X11595093Y-14243333D02*
X11588426Y-14240000D01*
X11588426Y-14240000D02*
X11581759Y-14240000D01*
X11581759Y-14240000D02*
X11575093Y-14243333D01*
X11575093Y-14243333D02*
X11571759Y-14246667D01*
X11571759Y-14246667D02*
X11568426Y-14253333D01*
X11568426Y-14253333D02*
X11565093Y-14266667D01*
X11565093Y-14266667D02*
X11561759Y-14273333D01*
X11561759Y-14273333D02*
X11558426Y-14276667D01*
X11558426Y-14276667D02*
X11551759Y-14280000D01*
X11551759Y-14280000D02*
X11545093Y-14280000D01*
X11545093Y-14280000D02*
X11538426Y-14276667D01*
X11538426Y-14276667D02*
X11535093Y-14273333D01*
X11535093Y-14273333D02*
X11531759Y-14266667D01*
X11531759Y-14266667D02*
X11531759Y-14250000D01*
X11531759Y-14250000D02*
X11535093Y-14240000D01*
X11531759Y-14220000D02*
X11531759Y-14180000D01*
X11601759Y-14200000D02*
X11531759Y-14200000D01*
X11528426Y-14106667D02*
X11618426Y-14166667D01*
X11581759Y-14086667D02*
X11581759Y-14053333D01*
X11601759Y-14093333D02*
X11531759Y-14070000D01*
X11531759Y-14070000D02*
X11601759Y-14046667D01*
X11601759Y-14023333D02*
X11531759Y-14023333D01*
X11531759Y-14023333D02*
X11531759Y-13996667D01*
X11531759Y-13996667D02*
X11535093Y-13990000D01*
X11535093Y-13990000D02*
X11538426Y-13986667D01*
X11538426Y-13986667D02*
X11545093Y-13983333D01*
X11545093Y-13983333D02*
X11555093Y-13983333D01*
X11555093Y-13983333D02*
X11561759Y-13986667D01*
X11561759Y-13986667D02*
X11565093Y-13990000D01*
X11565093Y-13990000D02*
X11568426Y-13996667D01*
X11568426Y-13996667D02*
X11568426Y-14023333D01*
X11575093Y-13953333D02*
X11575093Y-13900000D01*
X11601759Y-13866667D02*
X11531759Y-13866667D01*
X11531759Y-13866667D02*
X11581759Y-13843333D01*
X11581759Y-13843333D02*
X11531759Y-13820000D01*
X11531759Y-13820000D02*
X11601759Y-13820000D01*
X11601759Y-13776667D02*
X11598426Y-13783333D01*
X11598426Y-13783333D02*
X11595093Y-13786667D01*
X11595093Y-13786667D02*
X11588426Y-13790000D01*
X11588426Y-13790000D02*
X11568426Y-13790000D01*
X11568426Y-13790000D02*
X11561759Y-13786667D01*
X11561759Y-13786667D02*
X11558426Y-13783333D01*
X11558426Y-13783333D02*
X11555093Y-13776667D01*
X11555093Y-13776667D02*
X11555093Y-13766667D01*
X11555093Y-13766667D02*
X11558426Y-13760000D01*
X11558426Y-13760000D02*
X11561759Y-13756667D01*
X11561759Y-13756667D02*
X11568426Y-13753333D01*
X11568426Y-13753333D02*
X11588426Y-13753333D01*
X11588426Y-13753333D02*
X11595093Y-13756667D01*
X11595093Y-13756667D02*
X11598426Y-13760000D01*
X11598426Y-13760000D02*
X11601759Y-13766667D01*
X11601759Y-13766667D02*
X11601759Y-13776667D01*
X11601759Y-13693333D02*
X11531759Y-13693333D01*
X11598426Y-13693333D02*
X11601759Y-13700000D01*
X11601759Y-13700000D02*
X11601759Y-13713333D01*
X11601759Y-13713333D02*
X11598426Y-13720000D01*
X11598426Y-13720000D02*
X11595093Y-13723333D01*
X11595093Y-13723333D02*
X11588426Y-13726667D01*
X11588426Y-13726667D02*
X11568426Y-13726667D01*
X11568426Y-13726667D02*
X11561759Y-13723333D01*
X11561759Y-13723333D02*
X11558426Y-13720000D01*
X11558426Y-13720000D02*
X11555093Y-13713333D01*
X11555093Y-13713333D02*
X11555093Y-13700000D01*
X11555093Y-13700000D02*
X11558426Y-13693333D01*
X11598426Y-13633333D02*
X11601759Y-13640000D01*
X11601759Y-13640000D02*
X11601759Y-13653333D01*
X11601759Y-13653333D02*
X11598426Y-13660000D01*
X11598426Y-13660000D02*
X11591759Y-13663333D01*
X11591759Y-13663333D02*
X11565093Y-13663333D01*
X11565093Y-13663333D02*
X11558426Y-13660000D01*
X11558426Y-13660000D02*
X11555093Y-13653333D01*
X11555093Y-13653333D02*
X11555093Y-13640000D01*
X11555093Y-13640000D02*
X11558426Y-13633333D01*
X11558426Y-13633333D02*
X11565093Y-13630000D01*
X11565093Y-13630000D02*
X11571759Y-13630000D01*
X11571759Y-13630000D02*
X11578426Y-13663333D01*
D11*
X13248095Y-14231229D02*
X13263333Y-14231229D01*
X13263333Y-14231229D02*
X13270952Y-14235039D01*
X13270952Y-14235039D02*
X13278571Y-14242658D01*
X13278571Y-14242658D02*
X13282381Y-14257896D01*
X13282381Y-14257896D02*
X13282381Y-14284563D01*
X13282381Y-14284563D02*
X13278571Y-14299801D01*
X13278571Y-14299801D02*
X13270952Y-14307420D01*
X13270952Y-14307420D02*
X13263333Y-14311229D01*
X13263333Y-14311229D02*
X13248095Y-14311229D01*
X13248095Y-14311229D02*
X13240476Y-14307420D01*
X13240476Y-14307420D02*
X13232857Y-14299801D01*
X13232857Y-14299801D02*
X13229048Y-14284563D01*
X13229048Y-14284563D02*
X13229048Y-14257896D01*
X13229048Y-14257896D02*
X13232857Y-14242658D01*
X13232857Y-14242658D02*
X13240476Y-14235039D01*
X13240476Y-14235039D02*
X13248095Y-14231229D01*
X13343333Y-14269325D02*
X13316667Y-14269325D01*
X13316667Y-14311229D02*
X13316667Y-14231229D01*
X13316667Y-14231229D02*
X13354762Y-14231229D01*
X13411905Y-14269325D02*
X13385238Y-14269325D01*
X13385238Y-14311229D02*
X13385238Y-14231229D01*
X13385238Y-14231229D02*
X13423333Y-14231229D01*
X13510952Y-14227420D02*
X13442381Y-14330277D01*
X13552857Y-14231229D02*
X13568095Y-14231229D01*
X13568095Y-14231229D02*
X13575714Y-14235039D01*
X13575714Y-14235039D02*
X13583333Y-14242658D01*
X13583333Y-14242658D02*
X13587143Y-14257896D01*
X13587143Y-14257896D02*
X13587143Y-14284563D01*
X13587143Y-14284563D02*
X13583333Y-14299801D01*
X13583333Y-14299801D02*
X13575714Y-14307420D01*
X13575714Y-14307420D02*
X13568095Y-14311229D01*
X13568095Y-14311229D02*
X13552857Y-14311229D01*
X13552857Y-14311229D02*
X13545238Y-14307420D01*
X13545238Y-14307420D02*
X13537619Y-14299801D01*
X13537619Y-14299801D02*
X13533809Y-14284563D01*
X13533809Y-14284563D02*
X13533809Y-14257896D01*
X13533809Y-14257896D02*
X13537619Y-14242658D01*
X13537619Y-14242658D02*
X13545238Y-14235039D01*
X13545238Y-14235039D02*
X13552857Y-14231229D01*
X13621428Y-14311229D02*
X13621428Y-14231229D01*
X13621428Y-14231229D02*
X13667143Y-14311229D01*
X13667143Y-14311229D02*
X13667143Y-14231229D01*
X17740952Y-13645458D02*
X17736190Y-13650220D01*
X17736190Y-13650220D02*
X17721905Y-13654982D01*
X17721905Y-13654982D02*
X17712381Y-13654982D01*
X17712381Y-13654982D02*
X17698095Y-13650220D01*
X17698095Y-13650220D02*
X17688571Y-13640696D01*
X17688571Y-13640696D02*
X17683810Y-13631172D01*
X17683810Y-13631172D02*
X17679048Y-13612125D01*
X17679048Y-13612125D02*
X17679048Y-13597839D01*
X17679048Y-13597839D02*
X17683810Y-13578791D01*
X17683810Y-13578791D02*
X17688571Y-13569268D01*
X17688571Y-13569268D02*
X17698095Y-13559744D01*
X17698095Y-13559744D02*
X17712381Y-13554982D01*
X17712381Y-13554982D02*
X17721905Y-13554982D01*
X17721905Y-13554982D02*
X17736190Y-13559744D01*
X17736190Y-13559744D02*
X17740952Y-13564506D01*
X17017143Y-13603101D02*
X17031429Y-13607863D01*
X17031429Y-13607863D02*
X17036190Y-13612625D01*
X17036190Y-13612625D02*
X17040952Y-13622148D01*
X17040952Y-13622148D02*
X17040952Y-13636434D01*
X17040952Y-13636434D02*
X17036190Y-13645958D01*
X17036190Y-13645958D02*
X17031429Y-13650720D01*
X17031429Y-13650720D02*
X17021905Y-13655482D01*
X17021905Y-13655482D02*
X16983810Y-13655482D01*
X16983810Y-13655482D02*
X16983810Y-13555482D01*
X16983810Y-13555482D02*
X17017143Y-13555482D01*
X17017143Y-13555482D02*
X17026667Y-13560244D01*
X17026667Y-13560244D02*
X17031429Y-13565006D01*
X17031429Y-13565006D02*
X17036190Y-13574529D01*
X17036190Y-13574529D02*
X17036190Y-13584053D01*
X17036190Y-13584053D02*
X17031429Y-13593577D01*
X17031429Y-13593577D02*
X17026667Y-13598339D01*
X17026667Y-13598339D02*
X17017143Y-13603101D01*
X17017143Y-13603101D02*
X16983810Y-13603101D01*
D10*
X15400000Y-8982133D02*
X15380000Y-8953562D01*
X15365714Y-8982133D02*
X15365714Y-8922133D01*
X15365714Y-8922133D02*
X15388571Y-8922133D01*
X15388571Y-8922133D02*
X15394286Y-8924990D01*
X15394286Y-8924990D02*
X15397143Y-8927847D01*
X15397143Y-8927847D02*
X15400000Y-8933562D01*
X15400000Y-8933562D02*
X15400000Y-8942133D01*
X15400000Y-8942133D02*
X15397143Y-8947847D01*
X15397143Y-8947847D02*
X15394286Y-8950705D01*
X15394286Y-8950705D02*
X15388571Y-8953562D01*
X15388571Y-8953562D02*
X15365714Y-8953562D01*
X15448571Y-8979276D02*
X15442857Y-8982133D01*
X15442857Y-8982133D02*
X15431429Y-8982133D01*
X15431429Y-8982133D02*
X15425714Y-8979276D01*
X15425714Y-8979276D02*
X15422857Y-8973562D01*
X15422857Y-8973562D02*
X15422857Y-8950705D01*
X15422857Y-8950705D02*
X15425714Y-8944990D01*
X15425714Y-8944990D02*
X15431429Y-8942133D01*
X15431429Y-8942133D02*
X15442857Y-8942133D01*
X15442857Y-8942133D02*
X15448571Y-8944990D01*
X15448571Y-8944990D02*
X15451429Y-8950705D01*
X15451429Y-8950705D02*
X15451429Y-8956419D01*
X15451429Y-8956419D02*
X15422857Y-8962133D01*
X15474286Y-8979276D02*
X15480000Y-8982133D01*
X15480000Y-8982133D02*
X15491429Y-8982133D01*
X15491429Y-8982133D02*
X15497143Y-8979276D01*
X15497143Y-8979276D02*
X15500000Y-8973562D01*
X15500000Y-8973562D02*
X15500000Y-8970705D01*
X15500000Y-8970705D02*
X15497143Y-8964990D01*
X15497143Y-8964990D02*
X15491429Y-8962133D01*
X15491429Y-8962133D02*
X15482857Y-8962133D01*
X15482857Y-8962133D02*
X15477143Y-8959276D01*
X15477143Y-8959276D02*
X15474286Y-8953562D01*
X15474286Y-8953562D02*
X15474286Y-8950705D01*
X15474286Y-8950705D02*
X15477143Y-8944990D01*
X15477143Y-8944990D02*
X15482857Y-8942133D01*
X15482857Y-8942133D02*
X15491429Y-8942133D01*
X15491429Y-8942133D02*
X15497143Y-8944990D01*
X15548571Y-8979276D02*
X15542857Y-8982133D01*
X15542857Y-8982133D02*
X15531429Y-8982133D01*
X15531429Y-8982133D02*
X15525714Y-8979276D01*
X15525714Y-8979276D02*
X15522857Y-8973562D01*
X15522857Y-8973562D02*
X15522857Y-8950705D01*
X15522857Y-8950705D02*
X15525714Y-8944990D01*
X15525714Y-8944990D02*
X15531429Y-8942133D01*
X15531429Y-8942133D02*
X15542857Y-8942133D01*
X15542857Y-8942133D02*
X15548571Y-8944990D01*
X15548571Y-8944990D02*
X15551429Y-8950705D01*
X15551429Y-8950705D02*
X15551429Y-8956419D01*
X15551429Y-8956419D02*
X15522857Y-8962133D01*
X15568571Y-8942133D02*
X15591429Y-8942133D01*
X15577143Y-8922133D02*
X15577143Y-8973562D01*
X15577143Y-8973562D02*
X15580000Y-8979276D01*
X15580000Y-8979276D02*
X15585714Y-8982133D01*
X15585714Y-8982133D02*
X15591429Y-8982133D01*
X15677143Y-8950705D02*
X15685714Y-8953562D01*
X15685714Y-8953562D02*
X15688571Y-8956419D01*
X15688571Y-8956419D02*
X15691429Y-8962133D01*
X15691429Y-8962133D02*
X15691429Y-8970705D01*
X15691429Y-8970705D02*
X15688571Y-8976419D01*
X15688571Y-8976419D02*
X15685714Y-8979276D01*
X15685714Y-8979276D02*
X15680000Y-8982133D01*
X15680000Y-8982133D02*
X15657143Y-8982133D01*
X15657143Y-8982133D02*
X15657143Y-8922133D01*
X15657143Y-8922133D02*
X15677143Y-8922133D01*
X15677143Y-8922133D02*
X15682857Y-8924990D01*
X15682857Y-8924990D02*
X15685714Y-8927847D01*
X15685714Y-8927847D02*
X15688571Y-8933562D01*
X15688571Y-8933562D02*
X15688571Y-8939276D01*
X15688571Y-8939276D02*
X15685714Y-8944990D01*
X15685714Y-8944990D02*
X15682857Y-8947847D01*
X15682857Y-8947847D02*
X15677143Y-8950705D01*
X15677143Y-8950705D02*
X15657143Y-8950705D01*
X15717143Y-8982133D02*
X15717143Y-8922133D01*
X15717143Y-8922133D02*
X15737143Y-8964990D01*
X15737143Y-8964990D02*
X15757143Y-8922133D01*
X15757143Y-8922133D02*
X15757143Y-8982133D01*
X15782857Y-8979276D02*
X15791429Y-8982133D01*
X15791429Y-8982133D02*
X15805714Y-8982133D01*
X15805714Y-8982133D02*
X15811429Y-8979276D01*
X15811429Y-8979276D02*
X15814286Y-8976419D01*
X15814286Y-8976419D02*
X15817143Y-8970705D01*
X15817143Y-8970705D02*
X15817143Y-8964990D01*
X15817143Y-8964990D02*
X15814286Y-8959276D01*
X15814286Y-8959276D02*
X15811429Y-8956419D01*
X15811429Y-8956419D02*
X15805714Y-8953562D01*
X15805714Y-8953562D02*
X15794286Y-8950705D01*
X15794286Y-8950705D02*
X15788571Y-8947847D01*
X15788571Y-8947847D02*
X15785714Y-8944990D01*
X15785714Y-8944990D02*
X15782857Y-8939276D01*
X15782857Y-8939276D02*
X15782857Y-8933562D01*
X15782857Y-8933562D02*
X15785714Y-8927847D01*
X15785714Y-8927847D02*
X15788571Y-8924990D01*
X15788571Y-8924990D02*
X15794286Y-8922133D01*
X15794286Y-8922133D02*
X15808571Y-8922133D01*
X15808571Y-8922133D02*
X15817143Y-8924990D01*
D11*
X16281190Y-13626410D02*
X16328809Y-13626410D01*
X16271667Y-13654982D02*
X16305000Y-13554982D01*
X16305000Y-13554982D02*
X16338333Y-13654982D01*
X13095714Y-13782420D02*
X13107143Y-13786229D01*
X13107143Y-13786229D02*
X13126190Y-13786229D01*
X13126190Y-13786229D02*
X13133809Y-13782420D01*
X13133809Y-13782420D02*
X13137619Y-13778610D01*
X13137619Y-13778610D02*
X13141428Y-13770991D01*
X13141428Y-13770991D02*
X13141428Y-13763372D01*
X13141428Y-13763372D02*
X13137619Y-13755753D01*
X13137619Y-13755753D02*
X13133809Y-13751944D01*
X13133809Y-13751944D02*
X13126190Y-13748134D01*
X13126190Y-13748134D02*
X13110952Y-13744325D01*
X13110952Y-13744325D02*
X13103333Y-13740515D01*
X13103333Y-13740515D02*
X13099524Y-13736706D01*
X13099524Y-13736706D02*
X13095714Y-13729087D01*
X13095714Y-13729087D02*
X13095714Y-13721468D01*
X13095714Y-13721468D02*
X13099524Y-13713848D01*
X13099524Y-13713848D02*
X13103333Y-13710039D01*
X13103333Y-13710039D02*
X13110952Y-13706229D01*
X13110952Y-13706229D02*
X13130000Y-13706229D01*
X13130000Y-13706229D02*
X13141428Y-13710039D01*
X13164286Y-13706229D02*
X13210000Y-13706229D01*
X13187143Y-13786229D02*
X13187143Y-13706229D01*
X13232857Y-13763372D02*
X13270952Y-13763372D01*
X13225238Y-13786229D02*
X13251905Y-13706229D01*
X13251905Y-13706229D02*
X13278571Y-13786229D01*
X13293809Y-13706229D02*
X13339524Y-13706229D01*
X13316667Y-13786229D02*
X13316667Y-13706229D01*
X13366190Y-13744325D02*
X13392857Y-13744325D01*
X13404286Y-13786229D02*
X13366190Y-13786229D01*
X13366190Y-13786229D02*
X13366190Y-13706229D01*
X13366190Y-13706229D02*
X13404286Y-13706229D01*
D10*
X15467133Y-11248571D02*
X15438562Y-11268571D01*
X15467133Y-11282857D02*
X15407133Y-11282857D01*
X15407133Y-11282857D02*
X15407133Y-11260000D01*
X15407133Y-11260000D02*
X15409990Y-11254286D01*
X15409990Y-11254286D02*
X15412847Y-11251429D01*
X15412847Y-11251429D02*
X15418562Y-11248571D01*
X15418562Y-11248571D02*
X15427133Y-11248571D01*
X15427133Y-11248571D02*
X15432847Y-11251429D01*
X15432847Y-11251429D02*
X15435704Y-11254286D01*
X15435704Y-11254286D02*
X15438562Y-11260000D01*
X15438562Y-11260000D02*
X15438562Y-11282857D01*
X15464276Y-11225714D02*
X15467133Y-11217143D01*
X15467133Y-11217143D02*
X15467133Y-11202857D01*
X15467133Y-11202857D02*
X15464276Y-11197143D01*
X15464276Y-11197143D02*
X15461419Y-11194286D01*
X15461419Y-11194286D02*
X15455704Y-11191429D01*
X15455704Y-11191429D02*
X15449990Y-11191429D01*
X15449990Y-11191429D02*
X15444276Y-11194286D01*
X15444276Y-11194286D02*
X15441419Y-11197143D01*
X15441419Y-11197143D02*
X15438562Y-11202857D01*
X15438562Y-11202857D02*
X15435704Y-11214286D01*
X15435704Y-11214286D02*
X15432847Y-11220000D01*
X15432847Y-11220000D02*
X15429990Y-11222857D01*
X15429990Y-11222857D02*
X15424276Y-11225714D01*
X15424276Y-11225714D02*
X15418562Y-11225714D01*
X15418562Y-11225714D02*
X15412847Y-11222857D01*
X15412847Y-11222857D02*
X15409990Y-11220000D01*
X15409990Y-11220000D02*
X15407133Y-11214286D01*
X15407133Y-11214286D02*
X15407133Y-11200000D01*
X15407133Y-11200000D02*
X15409990Y-11191429D01*
X15407133Y-11174286D02*
X15407133Y-11140000D01*
X15467133Y-11157143D02*
X15407133Y-11157143D01*
X15407133Y-11080000D02*
X15407133Y-11040000D01*
X15407133Y-11040000D02*
X15467133Y-11080000D01*
X15467133Y-11080000D02*
X15467133Y-11040000D01*
X15427133Y-10991429D02*
X15467133Y-10991429D01*
X15427133Y-11017143D02*
X15458562Y-11017143D01*
X15458562Y-11017143D02*
X15464276Y-11014286D01*
X15464276Y-11014286D02*
X15467133Y-11008571D01*
X15467133Y-11008571D02*
X15467133Y-11000000D01*
X15467133Y-11000000D02*
X15464276Y-10994286D01*
X15464276Y-10994286D02*
X15461419Y-10991429D01*
X15467133Y-10962857D02*
X15427133Y-10962857D01*
X15432847Y-10962857D02*
X15429990Y-10960000D01*
X15429990Y-10960000D02*
X15427133Y-10954286D01*
X15427133Y-10954286D02*
X15427133Y-10945714D01*
X15427133Y-10945714D02*
X15429990Y-10940000D01*
X15429990Y-10940000D02*
X15435704Y-10937143D01*
X15435704Y-10937143D02*
X15467133Y-10937143D01*
X15435704Y-10937143D02*
X15429990Y-10934286D01*
X15429990Y-10934286D02*
X15427133Y-10928571D01*
X15427133Y-10928571D02*
X15427133Y-10920000D01*
X15427133Y-10920000D02*
X15429990Y-10914286D01*
X15429990Y-10914286D02*
X15435704Y-10911429D01*
X15435704Y-10911429D02*
X15467133Y-10911429D01*
X15467133Y-10874286D02*
X15464276Y-10880000D01*
X15464276Y-10880000D02*
X15461419Y-10882857D01*
X15461419Y-10882857D02*
X15455704Y-10885714D01*
X15455704Y-10885714D02*
X15438562Y-10885714D01*
X15438562Y-10885714D02*
X15432847Y-10882857D01*
X15432847Y-10882857D02*
X15429990Y-10880000D01*
X15429990Y-10880000D02*
X15427133Y-10874286D01*
X15427133Y-10874286D02*
X15427133Y-10865714D01*
X15427133Y-10865714D02*
X15429990Y-10860000D01*
X15429990Y-10860000D02*
X15432847Y-10857143D01*
X15432847Y-10857143D02*
X15438562Y-10854286D01*
X15438562Y-10854286D02*
X15455704Y-10854286D01*
X15455704Y-10854286D02*
X15461419Y-10857143D01*
X15461419Y-10857143D02*
X15464276Y-10860000D01*
X15464276Y-10860000D02*
X15467133Y-10865714D01*
X15467133Y-10865714D02*
X15467133Y-10874286D01*
X13535704Y-11658571D02*
X13538562Y-11650000D01*
X13538562Y-11650000D02*
X13541419Y-11647143D01*
X13541419Y-11647143D02*
X13547133Y-11644286D01*
X13547133Y-11644286D02*
X13555704Y-11644286D01*
X13555704Y-11644286D02*
X13561419Y-11647143D01*
X13561419Y-11647143D02*
X13564276Y-11650000D01*
X13564276Y-11650000D02*
X13567133Y-11655714D01*
X13567133Y-11655714D02*
X13567133Y-11678571D01*
X13567133Y-11678571D02*
X13507133Y-11678571D01*
X13507133Y-11678571D02*
X13507133Y-11658571D01*
X13507133Y-11658571D02*
X13509990Y-11652857D01*
X13509990Y-11652857D02*
X13512847Y-11650000D01*
X13512847Y-11650000D02*
X13518562Y-11647143D01*
X13518562Y-11647143D02*
X13524276Y-11647143D01*
X13524276Y-11647143D02*
X13529990Y-11650000D01*
X13529990Y-11650000D02*
X13532847Y-11652857D01*
X13532847Y-11652857D02*
X13535704Y-11658571D01*
X13535704Y-11658571D02*
X13535704Y-11678571D01*
X13507133Y-11607143D02*
X13507133Y-11595714D01*
X13507133Y-11595714D02*
X13509990Y-11590000D01*
X13509990Y-11590000D02*
X13515704Y-11584286D01*
X13515704Y-11584286D02*
X13527133Y-11581428D01*
X13527133Y-11581428D02*
X13547133Y-11581428D01*
X13547133Y-11581428D02*
X13558562Y-11584286D01*
X13558562Y-11584286D02*
X13564276Y-11590000D01*
X13564276Y-11590000D02*
X13567133Y-11595714D01*
X13567133Y-11595714D02*
X13567133Y-11607143D01*
X13567133Y-11607143D02*
X13564276Y-11612857D01*
X13564276Y-11612857D02*
X13558562Y-11618571D01*
X13558562Y-11618571D02*
X13547133Y-11621428D01*
X13547133Y-11621428D02*
X13527133Y-11621428D01*
X13527133Y-11621428D02*
X13515704Y-11618571D01*
X13515704Y-11618571D02*
X13509990Y-11612857D01*
X13509990Y-11612857D02*
X13507133Y-11607143D01*
X13507133Y-11544286D02*
X13507133Y-11532857D01*
X13507133Y-11532857D02*
X13509990Y-11527143D01*
X13509990Y-11527143D02*
X13515704Y-11521428D01*
X13515704Y-11521428D02*
X13527133Y-11518571D01*
X13527133Y-11518571D02*
X13547133Y-11518571D01*
X13547133Y-11518571D02*
X13558562Y-11521428D01*
X13558562Y-11521428D02*
X13564276Y-11527143D01*
X13564276Y-11527143D02*
X13567133Y-11532857D01*
X13567133Y-11532857D02*
X13567133Y-11544286D01*
X13567133Y-11544286D02*
X13564276Y-11550000D01*
X13564276Y-11550000D02*
X13558562Y-11555714D01*
X13558562Y-11555714D02*
X13547133Y-11558571D01*
X13547133Y-11558571D02*
X13527133Y-11558571D01*
X13527133Y-11558571D02*
X13515704Y-11555714D01*
X13515704Y-11555714D02*
X13509990Y-11550000D01*
X13509990Y-11550000D02*
X13507133Y-11544286D01*
X13507133Y-11501429D02*
X13507133Y-11467143D01*
X13567133Y-11484286D02*
X13507133Y-11484286D01*
X13567133Y-11401428D02*
X13507133Y-11401428D01*
X13507133Y-11401428D02*
X13549990Y-11381428D01*
X13549990Y-11381428D02*
X13507133Y-11361428D01*
X13507133Y-11361428D02*
X13567133Y-11361428D01*
X13567133Y-11324286D02*
X13564276Y-11330000D01*
X13564276Y-11330000D02*
X13561419Y-11332857D01*
X13561419Y-11332857D02*
X13555704Y-11335714D01*
X13555704Y-11335714D02*
X13538562Y-11335714D01*
X13538562Y-11335714D02*
X13532847Y-11332857D01*
X13532847Y-11332857D02*
X13529990Y-11330000D01*
X13529990Y-11330000D02*
X13527133Y-11324286D01*
X13527133Y-11324286D02*
X13527133Y-11315714D01*
X13527133Y-11315714D02*
X13529990Y-11310000D01*
X13529990Y-11310000D02*
X13532847Y-11307143D01*
X13532847Y-11307143D02*
X13538562Y-11304286D01*
X13538562Y-11304286D02*
X13555704Y-11304286D01*
X13555704Y-11304286D02*
X13561419Y-11307143D01*
X13561419Y-11307143D02*
X13564276Y-11310000D01*
X13564276Y-11310000D02*
X13567133Y-11315714D01*
X13567133Y-11315714D02*
X13567133Y-11324286D01*
X13567133Y-11252857D02*
X13507133Y-11252857D01*
X13564276Y-11252857D02*
X13567133Y-11258571D01*
X13567133Y-11258571D02*
X13567133Y-11270000D01*
X13567133Y-11270000D02*
X13564276Y-11275714D01*
X13564276Y-11275714D02*
X13561419Y-11278571D01*
X13561419Y-11278571D02*
X13555704Y-11281429D01*
X13555704Y-11281429D02*
X13538562Y-11281429D01*
X13538562Y-11281429D02*
X13532847Y-11278571D01*
X13532847Y-11278571D02*
X13529990Y-11275714D01*
X13529990Y-11275714D02*
X13527133Y-11270000D01*
X13527133Y-11270000D02*
X13527133Y-11258571D01*
X13527133Y-11258571D02*
X13529990Y-11252857D01*
X13564276Y-11201429D02*
X13567133Y-11207143D01*
X13567133Y-11207143D02*
X13567133Y-11218571D01*
X13567133Y-11218571D02*
X13564276Y-11224286D01*
X13564276Y-11224286D02*
X13558562Y-11227143D01*
X13558562Y-11227143D02*
X13535704Y-11227143D01*
X13535704Y-11227143D02*
X13529990Y-11224286D01*
X13529990Y-11224286D02*
X13527133Y-11218571D01*
X13527133Y-11218571D02*
X13527133Y-11207143D01*
X13527133Y-11207143D02*
X13529990Y-11201429D01*
X13529990Y-11201429D02*
X13535704Y-11198571D01*
X13535704Y-11198571D02*
X13541419Y-11198571D01*
X13541419Y-11198571D02*
X13547133Y-11227143D01*
D12*
X14501286Y-10985833D02*
X14532536Y-11135833D01*
X14532536Y-11135833D02*
X14601286Y-10985833D01*
X14642357Y-11000119D02*
X14650393Y-10992976D01*
X14650393Y-10992976D02*
X14665571Y-10985833D01*
X14665571Y-10985833D02*
X14701286Y-10985833D01*
X14701286Y-10985833D02*
X14714678Y-10992976D01*
X14714678Y-10992976D02*
X14720928Y-11000119D01*
X14720928Y-11000119D02*
X14726286Y-11014404D01*
X14726286Y-11014404D02*
X14724500Y-11028690D01*
X14724500Y-11028690D02*
X14714678Y-11050119D01*
X14714678Y-11050119D02*
X14618250Y-11135833D01*
X14618250Y-11135833D02*
X14711107Y-11135833D01*
X14777178Y-11121547D02*
X14783428Y-11128690D01*
X14783428Y-11128690D02*
X14775393Y-11135833D01*
X14775393Y-11135833D02*
X14769143Y-11128690D01*
X14769143Y-11128690D02*
X14777178Y-11121547D01*
X14777178Y-11121547D02*
X14775393Y-11135833D01*
X14894143Y-10985833D02*
X14908428Y-10985833D01*
X14908428Y-10985833D02*
X14921821Y-10992976D01*
X14921821Y-10992976D02*
X14928071Y-11000119D01*
X14928071Y-11000119D02*
X14933428Y-11014404D01*
X14933428Y-11014404D02*
X14937000Y-11042976D01*
X14937000Y-11042976D02*
X14932536Y-11078690D01*
X14932536Y-11078690D02*
X14921821Y-11107261D01*
X14921821Y-11107261D02*
X14912893Y-11121547D01*
X14912893Y-11121547D02*
X14904857Y-11128690D01*
X14904857Y-11128690D02*
X14889678Y-11135833D01*
X14889678Y-11135833D02*
X14875393Y-11135833D01*
X14875393Y-11135833D02*
X14862000Y-11128690D01*
X14862000Y-11128690D02*
X14855750Y-11121547D01*
X14855750Y-11121547D02*
X14850393Y-11107261D01*
X14850393Y-11107261D02*
X14846821Y-11078690D01*
X14846821Y-11078690D02*
X14851286Y-11042976D01*
X14851286Y-11042976D02*
X14862000Y-11014404D01*
X14862000Y-11014404D02*
X14870928Y-11000119D01*
X14870928Y-11000119D02*
X14878964Y-10992976D01*
X14878964Y-10992976D02*
X14894143Y-10985833D01*
D10*
X15797133Y-14312857D02*
X15768562Y-14332857D01*
X15797133Y-14347143D02*
X15737133Y-14347143D01*
X15737133Y-14347143D02*
X15737133Y-14324286D01*
X15737133Y-14324286D02*
X15739990Y-14318571D01*
X15739990Y-14318571D02*
X15742847Y-14315714D01*
X15742847Y-14315714D02*
X15748562Y-14312857D01*
X15748562Y-14312857D02*
X15757133Y-14312857D01*
X15757133Y-14312857D02*
X15762847Y-14315714D01*
X15762847Y-14315714D02*
X15765704Y-14318571D01*
X15765704Y-14318571D02*
X15768562Y-14324286D01*
X15768562Y-14324286D02*
X15768562Y-14347143D01*
X15794276Y-14264286D02*
X15797133Y-14270000D01*
X15797133Y-14270000D02*
X15797133Y-14281429D01*
X15797133Y-14281429D02*
X15794276Y-14287143D01*
X15794276Y-14287143D02*
X15788562Y-14290000D01*
X15788562Y-14290000D02*
X15765704Y-14290000D01*
X15765704Y-14290000D02*
X15759990Y-14287143D01*
X15759990Y-14287143D02*
X15757133Y-14281429D01*
X15757133Y-14281429D02*
X15757133Y-14270000D01*
X15757133Y-14270000D02*
X15759990Y-14264286D01*
X15759990Y-14264286D02*
X15765704Y-14261429D01*
X15765704Y-14261429D02*
X15771419Y-14261429D01*
X15771419Y-14261429D02*
X15777133Y-14290000D01*
X15794276Y-14238571D02*
X15797133Y-14232857D01*
X15797133Y-14232857D02*
X15797133Y-14221428D01*
X15797133Y-14221428D02*
X15794276Y-14215714D01*
X15794276Y-14215714D02*
X15788562Y-14212857D01*
X15788562Y-14212857D02*
X15785704Y-14212857D01*
X15785704Y-14212857D02*
X15779990Y-14215714D01*
X15779990Y-14215714D02*
X15777133Y-14221428D01*
X15777133Y-14221428D02*
X15777133Y-14230000D01*
X15777133Y-14230000D02*
X15774276Y-14235714D01*
X15774276Y-14235714D02*
X15768562Y-14238571D01*
X15768562Y-14238571D02*
X15765704Y-14238571D01*
X15765704Y-14238571D02*
X15759990Y-14235714D01*
X15759990Y-14235714D02*
X15757133Y-14230000D01*
X15757133Y-14230000D02*
X15757133Y-14221428D01*
X15757133Y-14221428D02*
X15759990Y-14215714D01*
X15794276Y-14164286D02*
X15797133Y-14170000D01*
X15797133Y-14170000D02*
X15797133Y-14181429D01*
X15797133Y-14181429D02*
X15794276Y-14187143D01*
X15794276Y-14187143D02*
X15788562Y-14190000D01*
X15788562Y-14190000D02*
X15765704Y-14190000D01*
X15765704Y-14190000D02*
X15759990Y-14187143D01*
X15759990Y-14187143D02*
X15757133Y-14181429D01*
X15757133Y-14181429D02*
X15757133Y-14170000D01*
X15757133Y-14170000D02*
X15759990Y-14164286D01*
X15759990Y-14164286D02*
X15765704Y-14161429D01*
X15765704Y-14161429D02*
X15771419Y-14161429D01*
X15771419Y-14161429D02*
X15777133Y-14190000D01*
X15757133Y-14144286D02*
X15757133Y-14121428D01*
X15737133Y-14135714D02*
X15788562Y-14135714D01*
X15788562Y-14135714D02*
X15794276Y-14132857D01*
X15794276Y-14132857D02*
X15797133Y-14127143D01*
X15797133Y-14127143D02*
X15797133Y-14121428D01*
X15765704Y-14055714D02*
X15765704Y-14035714D01*
X15797133Y-14027143D02*
X15797133Y-14055714D01*
X15797133Y-14055714D02*
X15737133Y-14055714D01*
X15737133Y-14055714D02*
X15737133Y-14027143D01*
X15794276Y-14004286D02*
X15797133Y-13995714D01*
X15797133Y-13995714D02*
X15797133Y-13981428D01*
X15797133Y-13981428D02*
X15794276Y-13975714D01*
X15794276Y-13975714D02*
X15791419Y-13972857D01*
X15791419Y-13972857D02*
X15785704Y-13970000D01*
X15785704Y-13970000D02*
X15779990Y-13970000D01*
X15779990Y-13970000D02*
X15774276Y-13972857D01*
X15774276Y-13972857D02*
X15771419Y-13975714D01*
X15771419Y-13975714D02*
X15768562Y-13981428D01*
X15768562Y-13981428D02*
X15765704Y-13992857D01*
X15765704Y-13992857D02*
X15762847Y-13998571D01*
X15762847Y-13998571D02*
X15759990Y-14001428D01*
X15759990Y-14001428D02*
X15754276Y-14004286D01*
X15754276Y-14004286D02*
X15748562Y-14004286D01*
X15748562Y-14004286D02*
X15742847Y-14001428D01*
X15742847Y-14001428D02*
X15739990Y-13998571D01*
X15739990Y-13998571D02*
X15737133Y-13992857D01*
X15737133Y-13992857D02*
X15737133Y-13978571D01*
X15737133Y-13978571D02*
X15739990Y-13970000D01*
X15797133Y-13944286D02*
X15737133Y-13944286D01*
X15737133Y-13944286D02*
X15737133Y-13921428D01*
X15737133Y-13921428D02*
X15739990Y-13915714D01*
X15739990Y-13915714D02*
X15742847Y-13912857D01*
X15742847Y-13912857D02*
X15748562Y-13910000D01*
X15748562Y-13910000D02*
X15757133Y-13910000D01*
X15757133Y-13910000D02*
X15762847Y-13912857D01*
X15762847Y-13912857D02*
X15765704Y-13915714D01*
X15765704Y-13915714D02*
X15768562Y-13921428D01*
X15768562Y-13921428D02*
X15768562Y-13944286D01*
D11*
X13860667Y-7360482D02*
X13860667Y-7431910D01*
X13860667Y-7431910D02*
X13855905Y-7446196D01*
X13855905Y-7446196D02*
X13846381Y-7455720D01*
X13846381Y-7455720D02*
X13832095Y-7460482D01*
X13832095Y-7460482D02*
X13822571Y-7460482D01*
X13922571Y-7403339D02*
X13913048Y-7398577D01*
X13913048Y-7398577D02*
X13908286Y-7393815D01*
X13908286Y-7393815D02*
X13903524Y-7384291D01*
X13903524Y-7384291D02*
X13903524Y-7379529D01*
X13903524Y-7379529D02*
X13908286Y-7370006D01*
X13908286Y-7370006D02*
X13913048Y-7365244D01*
X13913048Y-7365244D02*
X13922571Y-7360482D01*
X13922571Y-7360482D02*
X13941619Y-7360482D01*
X13941619Y-7360482D02*
X13951143Y-7365244D01*
X13951143Y-7365244D02*
X13955905Y-7370006D01*
X13955905Y-7370006D02*
X13960667Y-7379529D01*
X13960667Y-7379529D02*
X13960667Y-7384291D01*
X13960667Y-7384291D02*
X13955905Y-7393815D01*
X13955905Y-7393815D02*
X13951143Y-7398577D01*
X13951143Y-7398577D02*
X13941619Y-7403339D01*
X13941619Y-7403339D02*
X13922571Y-7403339D01*
X13922571Y-7403339D02*
X13913048Y-7408101D01*
X13913048Y-7408101D02*
X13908286Y-7412863D01*
X13908286Y-7412863D02*
X13903524Y-7422387D01*
X13903524Y-7422387D02*
X13903524Y-7441434D01*
X13903524Y-7441434D02*
X13908286Y-7450958D01*
X13908286Y-7450958D02*
X13913048Y-7455720D01*
X13913048Y-7455720D02*
X13922571Y-7460482D01*
X13922571Y-7460482D02*
X13941619Y-7460482D01*
X13941619Y-7460482D02*
X13951143Y-7455720D01*
X13951143Y-7455720D02*
X13955905Y-7450958D01*
X13955905Y-7450958D02*
X13960667Y-7441434D01*
X13960667Y-7441434D02*
X13960667Y-7422387D01*
X13960667Y-7422387D02*
X13955905Y-7412863D01*
X13955905Y-7412863D02*
X13951143Y-7408101D01*
X13951143Y-7408101D02*
X13941619Y-7403339D01*
X14045006Y-10883524D02*
X14040244Y-10893048D01*
X14040244Y-10893048D02*
X14030720Y-10902571D01*
X14030720Y-10902571D02*
X14016434Y-10916857D01*
X14016434Y-10916857D02*
X14011672Y-10926381D01*
X14011672Y-10926381D02*
X14011672Y-10935905D01*
X14035482Y-10931143D02*
X14030720Y-10940667D01*
X14030720Y-10940667D02*
X14021196Y-10950190D01*
X14021196Y-10950190D02*
X14002148Y-10954952D01*
X14002148Y-10954952D02*
X13968815Y-10954952D01*
X13968815Y-10954952D02*
X13949768Y-10950190D01*
X13949768Y-10950190D02*
X13940244Y-10940667D01*
X13940244Y-10940667D02*
X13935482Y-10931143D01*
X13935482Y-10931143D02*
X13935482Y-10912095D01*
X13935482Y-10912095D02*
X13940244Y-10902571D01*
X13940244Y-10902571D02*
X13949768Y-10893048D01*
X13949768Y-10893048D02*
X13968815Y-10888286D01*
X13968815Y-10888286D02*
X14002148Y-10888286D01*
X14002148Y-10888286D02*
X14021196Y-10893048D01*
X14021196Y-10893048D02*
X14030720Y-10902571D01*
X14030720Y-10902571D02*
X14035482Y-10912095D01*
X14035482Y-10912095D02*
X14035482Y-10931143D01*
X13935482Y-10802571D02*
X13935482Y-10821619D01*
X13935482Y-10821619D02*
X13940244Y-10831143D01*
X13940244Y-10831143D02*
X13945006Y-10835905D01*
X13945006Y-10835905D02*
X13959291Y-10845429D01*
X13959291Y-10845429D02*
X13978339Y-10850190D01*
X13978339Y-10850190D02*
X14016434Y-10850190D01*
X14016434Y-10850190D02*
X14025958Y-10845429D01*
X14025958Y-10845429D02*
X14030720Y-10840667D01*
X14030720Y-10840667D02*
X14035482Y-10831143D01*
X14035482Y-10831143D02*
X14035482Y-10812095D01*
X14035482Y-10812095D02*
X14030720Y-10802571D01*
X14030720Y-10802571D02*
X14025958Y-10797810D01*
X14025958Y-10797810D02*
X14016434Y-10793048D01*
X14016434Y-10793048D02*
X13992625Y-10793048D01*
X13992625Y-10793048D02*
X13983101Y-10797810D01*
X13983101Y-10797810D02*
X13978339Y-10802571D01*
X13978339Y-10802571D02*
X13973577Y-10812095D01*
X13973577Y-10812095D02*
X13973577Y-10831143D01*
X13973577Y-10831143D02*
X13978339Y-10840667D01*
X13978339Y-10840667D02*
X13983101Y-10845429D01*
X13983101Y-10845429D02*
X13992625Y-10850190D01*
X13638667Y-6243482D02*
X13638667Y-6314910D01*
X13638667Y-6314910D02*
X13633905Y-6329196D01*
X13633905Y-6329196D02*
X13624381Y-6338720D01*
X13624381Y-6338720D02*
X13610095Y-6343482D01*
X13610095Y-6343482D02*
X13600571Y-6343482D01*
X13733905Y-6243482D02*
X13686286Y-6243482D01*
X13686286Y-6243482D02*
X13681524Y-6291101D01*
X13681524Y-6291101D02*
X13686286Y-6286339D01*
X13686286Y-6286339D02*
X13695809Y-6281577D01*
X13695809Y-6281577D02*
X13719619Y-6281577D01*
X13719619Y-6281577D02*
X13729143Y-6286339D01*
X13729143Y-6286339D02*
X13733905Y-6291101D01*
X13733905Y-6291101D02*
X13738667Y-6300625D01*
X13738667Y-6300625D02*
X13738667Y-6324434D01*
X13738667Y-6324434D02*
X13733905Y-6333958D01*
X13733905Y-6333958D02*
X13729143Y-6338720D01*
X13729143Y-6338720D02*
X13719619Y-6343482D01*
X13719619Y-6343482D02*
X13695809Y-6343482D01*
X13695809Y-6343482D02*
X13686286Y-6338720D01*
X13686286Y-6338720D02*
X13681524Y-6333958D01*
X15026667Y-9335482D02*
X15026667Y-9406910D01*
X15026667Y-9406910D02*
X15021905Y-9421196D01*
X15021905Y-9421196D02*
X15012381Y-9430720D01*
X15012381Y-9430720D02*
X14998095Y-9435482D01*
X14998095Y-9435482D02*
X14988571Y-9435482D01*
X15126667Y-9435482D02*
X15069524Y-9435482D01*
X15098095Y-9435482D02*
X15098095Y-9335482D01*
X15098095Y-9335482D02*
X15088571Y-9349768D01*
X15088571Y-9349768D02*
X15079048Y-9359291D01*
X15079048Y-9359291D02*
X15069524Y-9364053D01*
X13796667Y-10370482D02*
X13796667Y-10441910D01*
X13796667Y-10441910D02*
X13791905Y-10456196D01*
X13791905Y-10456196D02*
X13782381Y-10465720D01*
X13782381Y-10465720D02*
X13768095Y-10470482D01*
X13768095Y-10470482D02*
X13758571Y-10470482D01*
X13834762Y-10370482D02*
X13901428Y-10370482D01*
X13901428Y-10370482D02*
X13858571Y-10470482D01*
X13656667Y-8835482D02*
X13656667Y-8906910D01*
X13656667Y-8906910D02*
X13651905Y-8921196D01*
X13651905Y-8921196D02*
X13642381Y-8930720D01*
X13642381Y-8930720D02*
X13628095Y-8935482D01*
X13628095Y-8935482D02*
X13618571Y-8935482D01*
X13747143Y-8835482D02*
X13728095Y-8835482D01*
X13728095Y-8835482D02*
X13718571Y-8840244D01*
X13718571Y-8840244D02*
X13713809Y-8845006D01*
X13713809Y-8845006D02*
X13704286Y-8859291D01*
X13704286Y-8859291D02*
X13699524Y-8878339D01*
X13699524Y-8878339D02*
X13699524Y-8916434D01*
X13699524Y-8916434D02*
X13704286Y-8925958D01*
X13704286Y-8925958D02*
X13709048Y-8930720D01*
X13709048Y-8930720D02*
X13718571Y-8935482D01*
X13718571Y-8935482D02*
X13737619Y-8935482D01*
X13737619Y-8935482D02*
X13747143Y-8930720D01*
X13747143Y-8930720D02*
X13751905Y-8925958D01*
X13751905Y-8925958D02*
X13756667Y-8916434D01*
X13756667Y-8916434D02*
X13756667Y-8892625D01*
X13756667Y-8892625D02*
X13751905Y-8883101D01*
X13751905Y-8883101D02*
X13747143Y-8878339D01*
X13747143Y-8878339D02*
X13737619Y-8873577D01*
X13737619Y-8873577D02*
X13718571Y-8873577D01*
X13718571Y-8873577D02*
X13709048Y-8878339D01*
X13709048Y-8878339D02*
X13704286Y-8883101D01*
X13704286Y-8883101D02*
X13699524Y-8892625D01*
X14133809Y-11685482D02*
X14133809Y-11766434D01*
X14133809Y-11766434D02*
X14138571Y-11775958D01*
X14138571Y-11775958D02*
X14143333Y-11780720D01*
X14143333Y-11780720D02*
X14152857Y-11785482D01*
X14152857Y-11785482D02*
X14171905Y-11785482D01*
X14171905Y-11785482D02*
X14181428Y-11780720D01*
X14181428Y-11780720D02*
X14186190Y-11775958D01*
X14186190Y-11775958D02*
X14190952Y-11766434D01*
X14190952Y-11766434D02*
X14190952Y-11685482D01*
X14290952Y-11785482D02*
X14233809Y-11785482D01*
X14262381Y-11785482D02*
X14262381Y-11685482D01*
X14262381Y-11685482D02*
X14252857Y-11699768D01*
X14252857Y-11699768D02*
X14243333Y-11709291D01*
X14243333Y-11709291D02*
X14233809Y-11714053D01*
D10*
%TO.C,J8*%
X14059000Y-7560000D02*
X14116000Y-7560000D01*
X14059000Y-7560000D02*
X14059000Y-7040000D01*
X14268000Y-7560000D02*
X14370000Y-7560000D01*
X14522000Y-7560000D02*
X14624000Y-7560000D01*
X14776000Y-7560000D02*
X14878000Y-7560000D01*
X15030000Y-7560000D02*
X15132000Y-7560000D01*
X15284000Y-7560000D02*
X15341000Y-7560000D01*
X15341000Y-7560000D02*
X15341000Y-7040000D01*
X14059000Y-7040000D02*
X14116000Y-7040000D01*
X14116000Y-7040000D02*
X14116000Y-6904000D01*
X14268000Y-7040000D02*
X14370000Y-7040000D01*
X14522000Y-7040000D02*
X14624000Y-7040000D01*
X14776000Y-7040000D02*
X14878000Y-7040000D01*
X15030000Y-7040000D02*
X15132000Y-7040000D01*
X15284000Y-7040000D02*
X15341000Y-7040000D01*
%TO.C,Q6*%
X13788000Y-10744000D02*
X13755000Y-10768000D01*
X13755000Y-10720000D01*
X13788000Y-10744000D01*
G36*
X13788000Y-10744000D02*
G01*
X13755000Y-10768000D01*
X13755000Y-10720000D01*
X13788000Y-10744000D01*
G37*
X13594000Y-10950000D02*
X13594000Y-10798000D01*
X13694000Y-10950000D02*
X13594000Y-10950000D01*
X13906000Y-10950000D02*
X13806000Y-10950000D01*
X13594000Y-10798000D02*
X13599000Y-10798000D01*
X13711000Y-10798000D02*
X13789000Y-10798000D01*
X13901000Y-10798000D02*
X13906000Y-10798000D01*
X13906000Y-10798000D02*
X13906000Y-10950000D01*
%TO.C,J5*%
X13805000Y-6035000D02*
X13862000Y-6035000D01*
X13805000Y-6555000D02*
X13805000Y-6035000D01*
X13805000Y-6555000D02*
X13862000Y-6555000D01*
X13862000Y-6035000D02*
X13862000Y-5899000D01*
X14014000Y-6035000D02*
X14116000Y-6035000D01*
X14014000Y-6555000D02*
X14116000Y-6555000D01*
X14268000Y-6035000D02*
X14370000Y-6035000D01*
X14268000Y-6555000D02*
X14370000Y-6555000D01*
X14522000Y-6035000D02*
X14624000Y-6035000D01*
X14522000Y-6555000D02*
X14624000Y-6555000D01*
X14776000Y-6035000D02*
X14878000Y-6035000D01*
X14776000Y-6555000D02*
X14878000Y-6555000D01*
X15030000Y-6035000D02*
X15132000Y-6035000D01*
X15030000Y-6555000D02*
X15132000Y-6555000D01*
X15284000Y-6035000D02*
X15386000Y-6035000D01*
X15284000Y-6555000D02*
X15386000Y-6555000D01*
X15538000Y-6035000D02*
X15595000Y-6035000D01*
X15538000Y-6555000D02*
X15595000Y-6555000D01*
X15595000Y-6555000D02*
X15595000Y-6035000D01*
%TO.C,SW1*%
X11640000Y-14112500D02*
X11640000Y-13862500D01*
X11685000Y-13817500D02*
X11640000Y-13862500D01*
X11685000Y-14157500D02*
X11640000Y-14112500D01*
X11815000Y-13712500D02*
X12015000Y-13712500D01*
X11815000Y-14262500D02*
X12015000Y-14262500D01*
X12145000Y-13817500D02*
X12190000Y-13862500D01*
X12145000Y-14157500D02*
X12190000Y-14112500D01*
X12190000Y-14112500D02*
X12190000Y-13862500D01*
%TO.C,J1*%
X15218500Y-9330000D02*
X15218500Y-9825000D01*
X15218500Y-9330000D02*
X15478500Y-9330000D01*
X15218500Y-10670000D02*
X15218500Y-10175000D01*
X15218500Y-10670000D02*
X15478500Y-10670000D01*
X15818500Y-9330000D02*
X15818500Y-10670000D01*
D11*
%TO.C,D1*%
X12487500Y-13700000D02*
X12487500Y-13600000D01*
X13037500Y-13600000D02*
X12487500Y-13600000D01*
X13037500Y-13900000D02*
X12497500Y-13900000D01*
D10*
%TO.C,J7*%
X13965000Y-10372500D02*
X14255000Y-10372500D01*
X13965000Y-10727500D02*
X13965000Y-10372500D01*
X14180000Y-10727500D02*
X13965000Y-10727500D01*
X14550000Y-10652500D02*
X14550000Y-10727500D01*
X14550000Y-10727500D02*
X14490000Y-10727500D01*
X14580000Y-10727500D02*
X14795000Y-10727500D01*
X14795000Y-10372500D02*
X14505000Y-10372500D01*
X14795000Y-10727500D02*
X14795000Y-10372500D01*
D13*
%TO.C,Logo1*%
X15417422Y-11376974D02*
X15419325Y-11377192D01*
X15423285Y-11378765D01*
X15425728Y-11381567D01*
X15426539Y-11385360D01*
X15425605Y-11389903D01*
X15425501Y-11390168D01*
X15423747Y-11393074D01*
X15420706Y-11396679D01*
X15416799Y-11400585D01*
X15412449Y-11404392D01*
X15408078Y-11407703D01*
X15404737Y-11409787D01*
X15401646Y-11411342D01*
X15399328Y-11411979D01*
X15396831Y-11411851D01*
X15394619Y-11411422D01*
X15387838Y-11410498D01*
X15380193Y-11410509D01*
X15371326Y-11411467D01*
X15365553Y-11412448D01*
X15354191Y-11414587D01*
X15351611Y-11421855D01*
X15349160Y-11429567D01*
X15346620Y-11439065D01*
X15344030Y-11450110D01*
X15341432Y-11462460D01*
X15338867Y-11475876D01*
X15336375Y-11490116D01*
X15333997Y-11504940D01*
X15331775Y-11520107D01*
X15329748Y-11535376D01*
X15327958Y-11550506D01*
X15326445Y-11565258D01*
X15325557Y-11575436D01*
X15325093Y-11581582D01*
X15324847Y-11586299D01*
X15324840Y-11590181D01*
X15325092Y-11593820D01*
X15325621Y-11597811D01*
X15326447Y-11602747D01*
X15326468Y-11602868D01*
X15329816Y-11623849D01*
X15332245Y-11643554D01*
X15333799Y-11662497D01*
X15334518Y-11681195D01*
X15334447Y-11700162D01*
X15334442Y-11700345D01*
X15333935Y-11714362D01*
X15333116Y-11726472D01*
X15331968Y-11736779D01*
X15330472Y-11745387D01*
X15328609Y-11752398D01*
X15326362Y-11757918D01*
X15323710Y-11762050D01*
X15323356Y-11762467D01*
X15320827Y-11764894D01*
X15318483Y-11765747D01*
X15315580Y-11765183D01*
X15313823Y-11764477D01*
X15311370Y-11762945D01*
X15309229Y-11760479D01*
X15307246Y-11756801D01*
X15305268Y-11751633D01*
X15303403Y-11745608D01*
X15300357Y-11733727D01*
X15297764Y-11720683D01*
X15295614Y-11706359D01*
X15293897Y-11690638D01*
X15292602Y-11673403D01*
X15291719Y-11654537D01*
X15291237Y-11633924D01*
X15291146Y-11611446D01*
X15291162Y-11608448D01*
X15291441Y-11564252D01*
X15287730Y-11554980D01*
X15284599Y-11545914D01*
X15282971Y-11538021D01*
X15282833Y-11531123D01*
X15284173Y-11525041D01*
X15285405Y-11522225D01*
X15287257Y-11519569D01*
X15289403Y-11518712D01*
X15292312Y-11519527D01*
X15293355Y-11520052D01*
X15296870Y-11521937D01*
X15298024Y-11516678D01*
X15298641Y-11513471D01*
X15299405Y-11508920D01*
X15300207Y-11503701D01*
X15300770Y-11499736D01*
X15301399Y-11495699D01*
X15302390Y-11490051D01*
X15303673Y-11483166D01*
X15305174Y-11475420D01*
X15306824Y-11467186D01*
X15308549Y-11458839D01*
X15308906Y-11457149D01*
X15310521Y-11449491D01*
X15311992Y-11442471D01*
X15313266Y-11436334D01*
X15314294Y-11431329D01*
X15315023Y-11427704D01*
X15315404Y-11425704D01*
X15315448Y-11425399D01*
X15314580Y-11424755D01*
X15312984Y-11424552D01*
X15311072Y-11424884D01*
X15307519Y-11425819D01*
X15302595Y-11427269D01*
X15296570Y-11429144D01*
X15289712Y-11431355D01*
X15282292Y-11433811D01*
X15274578Y-11436424D01*
X15266841Y-11439104D01*
X15259350Y-11441762D01*
X15252375Y-11444308D01*
X15246184Y-11446653D01*
X15244983Y-11447122D01*
X15238505Y-11449637D01*
X15233629Y-11451448D01*
X15230083Y-11452636D01*
X15227593Y-11453279D01*
X15225887Y-11453458D01*
X15224693Y-11453253D01*
X15224437Y-11453149D01*
X15222237Y-11451281D01*
X15221288Y-11448148D01*
X15221550Y-11443579D01*
X15221918Y-11441626D01*
X15224509Y-11433681D01*
X15228699Y-11426853D01*
X15234587Y-11421015D01*
X15241870Y-11416259D01*
X15244689Y-11414952D01*
X15249148Y-11413156D01*
X15254942Y-11410974D01*
X15261768Y-11408508D01*
X15269320Y-11405864D01*
X15277296Y-11403143D01*
X15285390Y-11400449D01*
X15293300Y-11397885D01*
X15300719Y-11395554D01*
X15307346Y-11393561D01*
X15312874Y-11392008D01*
X15314587Y-11391564D01*
X15322434Y-11389723D01*
X15331268Y-11387879D01*
X15340832Y-11386066D01*
X15350869Y-11384320D01*
X15361123Y-11382676D01*
X15371338Y-11381169D01*
X15381256Y-11379834D01*
X15390621Y-11378706D01*
X15399177Y-11377821D01*
X15406667Y-11377214D01*
X15412834Y-11376920D01*
X15417422Y-11376974D01*
G36*
X15417422Y-11376974D02*
G01*
X15419325Y-11377192D01*
X15423285Y-11378765D01*
X15425728Y-11381567D01*
X15426539Y-11385360D01*
X15425605Y-11389903D01*
X15425501Y-11390168D01*
X15423747Y-11393074D01*
X15420706Y-11396679D01*
X15416799Y-11400585D01*
X15412449Y-11404392D01*
X15408078Y-11407703D01*
X15404737Y-11409787D01*
X15401646Y-11411342D01*
X15399328Y-11411979D01*
X15396831Y-11411851D01*
X15394619Y-11411422D01*
X15387838Y-11410498D01*
X15380193Y-11410509D01*
X15371326Y-11411467D01*
X15365553Y-11412448D01*
X15354191Y-11414587D01*
X15351611Y-11421855D01*
X15349160Y-11429567D01*
X15346620Y-11439065D01*
X15344030Y-11450110D01*
X15341432Y-11462460D01*
X15338867Y-11475876D01*
X15336375Y-11490116D01*
X15333997Y-11504940D01*
X15331775Y-11520107D01*
X15329748Y-11535376D01*
X15327958Y-11550506D01*
X15326445Y-11565258D01*
X15325557Y-11575436D01*
X15325093Y-11581582D01*
X15324847Y-11586299D01*
X15324840Y-11590181D01*
X15325092Y-11593820D01*
X15325621Y-11597811D01*
X15326447Y-11602747D01*
X15326468Y-11602868D01*
X15329816Y-11623849D01*
X15332245Y-11643554D01*
X15333799Y-11662497D01*
X15334518Y-11681195D01*
X15334447Y-11700162D01*
X15334442Y-11700345D01*
X15333935Y-11714362D01*
X15333116Y-11726472D01*
X15331968Y-11736779D01*
X15330472Y-11745387D01*
X15328609Y-11752398D01*
X15326362Y-11757918D01*
X15323710Y-11762050D01*
X15323356Y-11762467D01*
X15320827Y-11764894D01*
X15318483Y-11765747D01*
X15315580Y-11765183D01*
X15313823Y-11764477D01*
X15311370Y-11762945D01*
X15309229Y-11760479D01*
X15307246Y-11756801D01*
X15305268Y-11751633D01*
X15303403Y-11745608D01*
X15300357Y-11733727D01*
X15297764Y-11720683D01*
X15295614Y-11706359D01*
X15293897Y-11690638D01*
X15292602Y-11673403D01*
X15291719Y-11654537D01*
X15291237Y-11633924D01*
X15291146Y-11611446D01*
X15291162Y-11608448D01*
X15291441Y-11564252D01*
X15287730Y-11554980D01*
X15284599Y-11545914D01*
X15282971Y-11538021D01*
X15282833Y-11531123D01*
X15284173Y-11525041D01*
X15285405Y-11522225D01*
X15287257Y-11519569D01*
X15289403Y-11518712D01*
X15292312Y-11519527D01*
X15293355Y-11520052D01*
X15296870Y-11521937D01*
X15298024Y-11516678D01*
X15298641Y-11513471D01*
X15299405Y-11508920D01*
X15300207Y-11503701D01*
X15300770Y-11499736D01*
X15301399Y-11495699D01*
X15302390Y-11490051D01*
X15303673Y-11483166D01*
X15305174Y-11475420D01*
X15306824Y-11467186D01*
X15308549Y-11458839D01*
X15308906Y-11457149D01*
X15310521Y-11449491D01*
X15311992Y-11442471D01*
X15313266Y-11436334D01*
X15314294Y-11431329D01*
X15315023Y-11427704D01*
X15315404Y-11425704D01*
X15315448Y-11425399D01*
X15314580Y-11424755D01*
X15312984Y-11424552D01*
X15311072Y-11424884D01*
X15307519Y-11425819D01*
X15302595Y-11427269D01*
X15296570Y-11429144D01*
X15289712Y-11431355D01*
X15282292Y-11433811D01*
X15274578Y-11436424D01*
X15266841Y-11439104D01*
X15259350Y-11441762D01*
X15252375Y-11444308D01*
X15246184Y-11446653D01*
X15244983Y-11447122D01*
X15238505Y-11449637D01*
X15233629Y-11451448D01*
X15230083Y-11452636D01*
X15227593Y-11453279D01*
X15225887Y-11453458D01*
X15224693Y-11453253D01*
X15224437Y-11453149D01*
X15222237Y-11451281D01*
X15221288Y-11448148D01*
X15221550Y-11443579D01*
X15221918Y-11441626D01*
X15224509Y-11433681D01*
X15228699Y-11426853D01*
X15234587Y-11421015D01*
X15241870Y-11416259D01*
X15244689Y-11414952D01*
X15249148Y-11413156D01*
X15254942Y-11410974D01*
X15261768Y-11408508D01*
X15269320Y-11405864D01*
X15277296Y-11403143D01*
X15285390Y-11400449D01*
X15293300Y-11397885D01*
X15300719Y-11395554D01*
X15307346Y-11393561D01*
X15312874Y-11392008D01*
X15314587Y-11391564D01*
X15322434Y-11389723D01*
X15331268Y-11387879D01*
X15340832Y-11386066D01*
X15350869Y-11384320D01*
X15361123Y-11382676D01*
X15371338Y-11381169D01*
X15381256Y-11379834D01*
X15390621Y-11378706D01*
X15399177Y-11377821D01*
X15406667Y-11377214D01*
X15412834Y-11376920D01*
X15417422Y-11376974D01*
G37*
X14889483Y-11389906D02*
X14891159Y-11391120D01*
X14893036Y-11392897D01*
X14894693Y-11395227D01*
X14896241Y-11398387D01*
X14897791Y-11402654D01*
X14899457Y-11408303D01*
X14901349Y-11415613D01*
X14901820Y-11417526D01*
X14904662Y-11429705D01*
X14907141Y-11441602D01*
X14909286Y-11453478D01*
X14911126Y-11465591D01*
X14912690Y-11478201D01*
X14914007Y-11491565D01*
X14915105Y-11505942D01*
X14916015Y-11521593D01*
X14916764Y-11538775D01*
X14917338Y-11556210D01*
X14917672Y-11570888D01*
X14917851Y-11585983D01*
X14917879Y-11601216D01*
X14917763Y-11616305D01*
X14917509Y-11630972D01*
X14917123Y-11644937D01*
X14916610Y-11657918D01*
X14915977Y-11669637D01*
X14915229Y-11679813D01*
X14914607Y-11686172D01*
X14913036Y-11698069D01*
X14911037Y-11709749D01*
X14908691Y-11720876D01*
X14906079Y-11731111D01*
X14903282Y-11740118D01*
X14900382Y-11747557D01*
X14899275Y-11749892D01*
X14895952Y-11755086D01*
X14891700Y-11759723D01*
X14887148Y-11763135D01*
X14886500Y-11763489D01*
X14882268Y-11764635D01*
X14877024Y-11764436D01*
X14871161Y-11763017D01*
X14865071Y-11760501D01*
X14859147Y-11757013D01*
X14854552Y-11753392D01*
X14852191Y-11750971D01*
X14848838Y-11747127D01*
X14844675Y-11742094D01*
X14839884Y-11736106D01*
X14834649Y-11729397D01*
X14829151Y-11722203D01*
X14823574Y-11714756D01*
X14818099Y-11707292D01*
X14812910Y-11700046D01*
X14812084Y-11698872D01*
X14804412Y-11687759D01*
X14796535Y-11675992D01*
X14788669Y-11663915D01*
X14781028Y-11651870D01*
X14773829Y-11640200D01*
X14767287Y-11629248D01*
X14761619Y-11619357D01*
X14758578Y-11613796D01*
X14756567Y-11610158D01*
X14754868Y-11607316D01*
X14753725Y-11605668D01*
X14753427Y-11605414D01*
X14752803Y-11606395D01*
X14752311Y-11609291D01*
X14751956Y-11613990D01*
X14751742Y-11620379D01*
X14751673Y-11628346D01*
X14751753Y-11637779D01*
X14751909Y-11645532D01*
X14752845Y-11669849D01*
X14754426Y-11692387D01*
X14756647Y-11713100D01*
X14759503Y-11731938D01*
X14760214Y-11735814D01*
X14761541Y-11746726D01*
X14761192Y-11756572D01*
X14759172Y-11765320D01*
X14755490Y-11772942D01*
X14750387Y-11779178D01*
X14747096Y-11781939D01*
X14744422Y-11782997D01*
X14741947Y-11782397D01*
X14739444Y-11780377D01*
X14738133Y-11778768D01*
X14736977Y-11776566D01*
X14735836Y-11773396D01*
X14734572Y-11768885D01*
X14733452Y-11764375D01*
X14732012Y-11758122D01*
X14730736Y-11751949D01*
X14729615Y-11745697D01*
X14728638Y-11739206D01*
X14727796Y-11732316D01*
X14727079Y-11724868D01*
X14726478Y-11716702D01*
X14725982Y-11707659D01*
X14725582Y-11697578D01*
X14725267Y-11686301D01*
X14725028Y-11673668D01*
X14724855Y-11659519D01*
X14724739Y-11643694D01*
X14724669Y-11626034D01*
X14724658Y-11621656D01*
X14724495Y-11546980D01*
X14718104Y-11530724D01*
X14714452Y-11521165D01*
X14711618Y-11513057D01*
X14709513Y-11506029D01*
X14708045Y-11499715D01*
X14707126Y-11493745D01*
X14706665Y-11487753D01*
X14706568Y-11483480D01*
X14706618Y-11477759D01*
X14706884Y-11473438D01*
X14707445Y-11469891D01*
X14708377Y-11466491D01*
X14708815Y-11465192D01*
X14710139Y-11461759D01*
X14711390Y-11459117D01*
X14712294Y-11457842D01*
X14715172Y-11457009D01*
X14717934Y-11458158D01*
X14720230Y-11460874D01*
X14721140Y-11462518D01*
X14722856Y-11465793D01*
X14725283Y-11470506D01*
X14728324Y-11476470D01*
X14731882Y-11483492D01*
X14735861Y-11491383D01*
X14740163Y-11499953D01*
X14744693Y-11509011D01*
X14745642Y-11510912D01*
X14756250Y-11531991D01*
X14766237Y-11551422D01*
X14775737Y-11569442D01*
X14784885Y-11586290D01*
X14793815Y-11602204D01*
X14802663Y-11617422D01*
X14811562Y-11632181D01*
X14820648Y-11646719D01*
X14830054Y-11661276D01*
X14834420Y-11667884D01*
X14840965Y-11677647D01*
X14846578Y-11685837D01*
X14851383Y-11692617D01*
X14855505Y-11698151D01*
X14859066Y-11702602D01*
X14862191Y-11706134D01*
X14865004Y-11708910D01*
X14866376Y-11710103D01*
X14870077Y-11712956D01*
X14872841Y-11714396D01*
X14875126Y-11714486D01*
X14877392Y-11713291D01*
X14879043Y-11711880D01*
X14880461Y-11710491D01*
X14881521Y-11709121D01*
X14882348Y-11707395D01*
X14883069Y-11704939D01*
X14883809Y-11701377D01*
X14884694Y-11696335D01*
X14885122Y-11693792D01*
X14888632Y-11667897D01*
X14890735Y-11640539D01*
X14891432Y-11611722D01*
X14890721Y-11581449D01*
X14888603Y-11549723D01*
X14885079Y-11516548D01*
X14883055Y-11501297D01*
X14881154Y-11488475D01*
X14879250Y-11477205D01*
X14877244Y-11467007D01*
X14875037Y-11457401D01*
X14872528Y-11447910D01*
X14870476Y-11440866D01*
X14865442Y-11424159D01*
X14868635Y-11414529D01*
X14871884Y-11406277D01*
X14875671Y-11399344D01*
X14879832Y-11393999D01*
X14882575Y-11391567D01*
X14885415Y-11389693D01*
X14887477Y-11389152D01*
X14889483Y-11389906D01*
G36*
X14889483Y-11389906D02*
G01*
X14891159Y-11391120D01*
X14893036Y-11392897D01*
X14894693Y-11395227D01*
X14896241Y-11398387D01*
X14897791Y-11402654D01*
X14899457Y-11408303D01*
X14901349Y-11415613D01*
X14901820Y-11417526D01*
X14904662Y-11429705D01*
X14907141Y-11441602D01*
X14909286Y-11453478D01*
X14911126Y-11465591D01*
X14912690Y-11478201D01*
X14914007Y-11491565D01*
X14915105Y-11505942D01*
X14916015Y-11521593D01*
X14916764Y-11538775D01*
X14917338Y-11556210D01*
X14917672Y-11570888D01*
X14917851Y-11585983D01*
X14917879Y-11601216D01*
X14917763Y-11616305D01*
X14917509Y-11630972D01*
X14917123Y-11644937D01*
X14916610Y-11657918D01*
X14915977Y-11669637D01*
X14915229Y-11679813D01*
X14914607Y-11686172D01*
X14913036Y-11698069D01*
X14911037Y-11709749D01*
X14908691Y-11720876D01*
X14906079Y-11731111D01*
X14903282Y-11740118D01*
X14900382Y-11747557D01*
X14899275Y-11749892D01*
X14895952Y-11755086D01*
X14891700Y-11759723D01*
X14887148Y-11763135D01*
X14886500Y-11763489D01*
X14882268Y-11764635D01*
X14877024Y-11764436D01*
X14871161Y-11763017D01*
X14865071Y-11760501D01*
X14859147Y-11757013D01*
X14854552Y-11753392D01*
X14852191Y-11750971D01*
X14848838Y-11747127D01*
X14844675Y-11742094D01*
X14839884Y-11736106D01*
X14834649Y-11729397D01*
X14829151Y-11722203D01*
X14823574Y-11714756D01*
X14818099Y-11707292D01*
X14812910Y-11700046D01*
X14812084Y-11698872D01*
X14804412Y-11687759D01*
X14796535Y-11675992D01*
X14788669Y-11663915D01*
X14781028Y-11651870D01*
X14773829Y-11640200D01*
X14767287Y-11629248D01*
X14761619Y-11619357D01*
X14758578Y-11613796D01*
X14756567Y-11610158D01*
X14754868Y-11607316D01*
X14753725Y-11605668D01*
X14753427Y-11605414D01*
X14752803Y-11606395D01*
X14752311Y-11609291D01*
X14751956Y-11613990D01*
X14751742Y-11620379D01*
X14751673Y-11628346D01*
X14751753Y-11637779D01*
X14751909Y-11645532D01*
X14752845Y-11669849D01*
X14754426Y-11692387D01*
X14756647Y-11713100D01*
X14759503Y-11731938D01*
X14760214Y-11735814D01*
X14761541Y-11746726D01*
X14761192Y-11756572D01*
X14759172Y-11765320D01*
X14755490Y-11772942D01*
X14750387Y-11779178D01*
X14747096Y-11781939D01*
X14744422Y-11782997D01*
X14741947Y-11782397D01*
X14739444Y-11780377D01*
X14738133Y-11778768D01*
X14736977Y-11776566D01*
X14735836Y-11773396D01*
X14734572Y-11768885D01*
X14733452Y-11764375D01*
X14732012Y-11758122D01*
X14730736Y-11751949D01*
X14729615Y-11745697D01*
X14728638Y-11739206D01*
X14727796Y-11732316D01*
X14727079Y-11724868D01*
X14726478Y-11716702D01*
X14725982Y-11707659D01*
X14725582Y-11697578D01*
X14725267Y-11686301D01*
X14725028Y-11673668D01*
X14724855Y-11659519D01*
X14724739Y-11643694D01*
X14724669Y-11626034D01*
X14724658Y-11621656D01*
X14724495Y-11546980D01*
X14718104Y-11530724D01*
X14714452Y-11521165D01*
X14711618Y-11513057D01*
X14709513Y-11506029D01*
X14708045Y-11499715D01*
X14707126Y-11493745D01*
X14706665Y-11487753D01*
X14706568Y-11483480D01*
X14706618Y-11477759D01*
X14706884Y-11473438D01*
X14707445Y-11469891D01*
X14708377Y-11466491D01*
X14708815Y-11465192D01*
X14710139Y-11461759D01*
X14711390Y-11459117D01*
X14712294Y-11457842D01*
X14715172Y-11457009D01*
X14717934Y-11458158D01*
X14720230Y-11460874D01*
X14721140Y-11462518D01*
X14722856Y-11465793D01*
X14725283Y-11470506D01*
X14728324Y-11476470D01*
X14731882Y-11483492D01*
X14735861Y-11491383D01*
X14740163Y-11499953D01*
X14744693Y-11509011D01*
X14745642Y-11510912D01*
X14756250Y-11531991D01*
X14766237Y-11551422D01*
X14775737Y-11569442D01*
X14784885Y-11586290D01*
X14793815Y-11602204D01*
X14802663Y-11617422D01*
X14811562Y-11632181D01*
X14820648Y-11646719D01*
X14830054Y-11661276D01*
X14834420Y-11667884D01*
X14840965Y-11677647D01*
X14846578Y-11685837D01*
X14851383Y-11692617D01*
X14855505Y-11698151D01*
X14859066Y-11702602D01*
X14862191Y-11706134D01*
X14865004Y-11708910D01*
X14866376Y-11710103D01*
X14870077Y-11712956D01*
X14872841Y-11714396D01*
X14875126Y-11714486D01*
X14877392Y-11713291D01*
X14879043Y-11711880D01*
X14880461Y-11710491D01*
X14881521Y-11709121D01*
X14882348Y-11707395D01*
X14883069Y-11704939D01*
X14883809Y-11701377D01*
X14884694Y-11696335D01*
X14885122Y-11693792D01*
X14888632Y-11667897D01*
X14890735Y-11640539D01*
X14891432Y-11611722D01*
X14890721Y-11581449D01*
X14888603Y-11549723D01*
X14885079Y-11516548D01*
X14883055Y-11501297D01*
X14881154Y-11488475D01*
X14879250Y-11477205D01*
X14877244Y-11467007D01*
X14875037Y-11457401D01*
X14872528Y-11447910D01*
X14870476Y-11440866D01*
X14865442Y-11424159D01*
X14868635Y-11414529D01*
X14871884Y-11406277D01*
X14875671Y-11399344D01*
X14879832Y-11393999D01*
X14882575Y-11391567D01*
X14885415Y-11389693D01*
X14887477Y-11389152D01*
X14889483Y-11389906D01*
G37*
X15593232Y-11523935D02*
X15596026Y-11525875D01*
X15596794Y-11527007D01*
X15597550Y-11529406D01*
X15598243Y-11533415D01*
X15598838Y-11538612D01*
X15599304Y-11544576D01*
X15599609Y-11550884D01*
X15599719Y-11557114D01*
X15599603Y-11562846D01*
X15599583Y-11563272D01*
X15599128Y-11569455D01*
X15598389Y-11576091D01*
X15597440Y-11582746D01*
X15596355Y-11588983D01*
X15595206Y-11594368D01*
X15594067Y-11598466D01*
X15593316Y-11600336D01*
X15591342Y-11603084D01*
X15588255Y-11606278D01*
X15584689Y-11609330D01*
X15581281Y-11611652D01*
X15580791Y-11611917D01*
X15577711Y-11613130D01*
X15574141Y-11614048D01*
X15573717Y-11614121D01*
X15570960Y-11614386D01*
X15569315Y-11613830D01*
X15567931Y-11612157D01*
X15567880Y-11612079D01*
X15567195Y-11610855D01*
X15566763Y-11609425D01*
X15566573Y-11607423D01*
X15566610Y-11604477D01*
X15566861Y-11600218D01*
X15567274Y-11594797D01*
X15567970Y-11584875D01*
X15568326Y-11576850D01*
X15568343Y-11570614D01*
X15568021Y-11566060D01*
X15567361Y-11563082D01*
X15567348Y-11563048D01*
X15564935Y-11558756D01*
X15561631Y-11556288D01*
X15558062Y-11555616D01*
X15552354Y-11556609D01*
X15546709Y-11559498D01*
X15541205Y-11564147D01*
X15535925Y-11570419D01*
X15530946Y-11578179D01*
X15526349Y-11587290D01*
X15522214Y-11597616D01*
X15518621Y-11609022D01*
X15515650Y-11621370D01*
X15513936Y-11630800D01*
X15513059Y-11638063D01*
X15512487Y-11646469D01*
X15512219Y-11655468D01*
X15512256Y-11664514D01*
X15512598Y-11673057D01*
X15513244Y-11680551D01*
X15513930Y-11685156D01*
X15516461Y-11696321D01*
X15519564Y-11706226D01*
X15523152Y-11714658D01*
X15527143Y-11721404D01*
X15529417Y-11724250D01*
X15533303Y-11727707D01*
X15537984Y-11730620D01*
X15542785Y-11732640D01*
X15547028Y-11733415D01*
X15547114Y-11733416D01*
X15553201Y-11732450D01*
X15559477Y-11729664D01*
X15565713Y-11725228D01*
X15571679Y-11719309D01*
X15577145Y-11712078D01*
X15578048Y-11710666D01*
X15581611Y-11704482D01*
X15585451Y-11697028D01*
X15589249Y-11688979D01*
X15592687Y-11681007D01*
X15595379Y-11673980D01*
X15597068Y-11669318D01*
X15598381Y-11666256D01*
X15599568Y-11664459D01*
X15600883Y-11663593D01*
X15602575Y-11663326D01*
X15603418Y-11663312D01*
X15606820Y-11664262D01*
X15609939Y-11666855D01*
X15612363Y-11670705D01*
X15612950Y-11672217D01*
X15613589Y-11676311D01*
X15613396Y-11681815D01*
X15612462Y-11688331D01*
X15610881Y-11695460D01*
X15608744Y-11702804D01*
X15606144Y-11709963D01*
X15603173Y-11716540D01*
X15602312Y-11718176D01*
X15595170Y-11730298D01*
X15587992Y-11740471D01*
X15580700Y-11748776D01*
X15573213Y-11755295D01*
X15565452Y-11760110D01*
X15558973Y-11762796D01*
X15549159Y-11765093D01*
X15539726Y-11765413D01*
X15530710Y-11763782D01*
X15522150Y-11760225D01*
X15514083Y-11754767D01*
X15506546Y-11747436D01*
X15499578Y-11738256D01*
X15493215Y-11727253D01*
X15487495Y-11714453D01*
X15487164Y-11713604D01*
X15485843Y-11710328D01*
X15484740Y-11707834D01*
X15484148Y-11706745D01*
X15483401Y-11707221D01*
X15481951Y-11709135D01*
X15480051Y-11712133D01*
X15479052Y-11713857D01*
X15471277Y-11726765D01*
X15463601Y-11737711D01*
X15455959Y-11746762D01*
X15448288Y-11753983D01*
X15440527Y-11759438D01*
X15432611Y-11763192D01*
X15430476Y-11763911D01*
X15422945Y-11765441D01*
X15414644Y-11765798D01*
X15406466Y-11764979D01*
X15402316Y-11764018D01*
X15397815Y-11762603D01*
X15394263Y-11761129D01*
X15390888Y-11759203D01*
X15386917Y-11756432D01*
X15385866Y-11755655D01*
X15380042Y-11750272D01*
X15374515Y-11743131D01*
X15369411Y-11734498D01*
X15364854Y-11724639D01*
X15360970Y-11713820D01*
X15357886Y-11702308D01*
X15355999Y-11692268D01*
X15355361Y-11686263D01*
X15354984Y-11678802D01*
X15354860Y-11670441D01*
X15354915Y-11666608D01*
X15384536Y-11666608D01*
X15386822Y-11665111D01*
X15388360Y-11663800D01*
X15390897Y-11661310D01*
X15394090Y-11657989D01*
X15397598Y-11654184D01*
X15397879Y-11653872D01*
X15408424Y-11640947D01*
X15416956Y-11627816D01*
X15423491Y-11614449D01*
X15428041Y-11600814D01*
X15430620Y-11586881D01*
X15431272Y-11575244D01*
X15431042Y-11569504D01*
X15430253Y-11565268D01*
X15428754Y-11562047D01*
X15426393Y-11559355D01*
X15426337Y-11559303D01*
X15423798Y-11557980D01*
X15420894Y-11558403D01*
X15417471Y-11560623D01*
X15414950Y-11562995D01*
X15411642Y-11567152D01*
X15408061Y-11572969D01*
X15404356Y-11580117D01*
X15400671Y-11588266D01*
X15397154Y-11597089D01*
X15393949Y-11606254D01*
X15391204Y-11615435D01*
X15390538Y-11617959D01*
X15389198Y-11623873D01*
X15387889Y-11630840D01*
X15386691Y-11638294D01*
X15385685Y-11645674D01*
X15384952Y-11652416D01*
X15384574Y-11657957D01*
X15384541Y-11659626D01*
X15384536Y-11666608D01*
X15354915Y-11666608D01*
X15354985Y-11661737D01*
X15355351Y-11653248D01*
X15355952Y-11645532D01*
X15356575Y-11640452D01*
X15359196Y-11625745D01*
X15362579Y-11611229D01*
X15366622Y-11597190D01*
X15371221Y-11583914D01*
X15376273Y-11571686D01*
X15381676Y-11560792D01*
X15387327Y-11551517D01*
X15389831Y-11548067D01*
X15396233Y-11540854D01*
X15403139Y-11535039D01*
X15410337Y-11530708D01*
X15417614Y-11527943D01*
X15424757Y-11526829D01*
X15431554Y-11527451D01*
X15436953Y-11529434D01*
X15443072Y-11533586D01*
X15448450Y-11539100D01*
X15452618Y-11545422D01*
X15454654Y-11550313D01*
X15457490Y-11562906D01*
X15458436Y-11576076D01*
X15457514Y-11589723D01*
X15454750Y-11603746D01*
X15450168Y-11618044D01*
X15443793Y-11632518D01*
X15435650Y-11647067D01*
X15428209Y-11658232D01*
X15423577Y-11664163D01*
X15417596Y-11670942D01*
X15410576Y-11678247D01*
X15402828Y-11685756D01*
X15394664Y-11693145D01*
X15393841Y-11693861D01*
X15387399Y-11699447D01*
X15389130Y-11705510D01*
X15392207Y-11714006D01*
X15396187Y-11721407D01*
X15400896Y-11727558D01*
X15406163Y-11732305D01*
X15411815Y-11735494D01*
X15417680Y-11736972D01*
X15423585Y-11736584D01*
X15423887Y-11736511D01*
X15430199Y-11733932D01*
X15436422Y-11729453D01*
X15441687Y-11724031D01*
X15444479Y-11720616D01*
X15446992Y-11717285D01*
X15449417Y-11713726D01*
X15451948Y-11709626D01*
X15454776Y-11704671D01*
X15458093Y-11698550D01*
X15462091Y-11690949D01*
X15462549Y-11690071D01*
X15465785Y-11683922D01*
X15468975Y-11677983D01*
X15471907Y-11672638D01*
X15474370Y-11668273D01*
X15476151Y-11665271D01*
X15476353Y-11664951D01*
X15478001Y-11662288D01*
X15479135Y-11660028D01*
X15479892Y-11657646D01*
X15480412Y-11654620D01*
X15480830Y-11650425D01*
X15481111Y-11646869D01*
X15481902Y-11637918D01*
X15482877Y-11630143D01*
X15484171Y-11622691D01*
X15485919Y-11614708D01*
X15486823Y-11610988D01*
X15490870Y-11597017D01*
X15495861Y-11583713D01*
X15501652Y-11571358D01*
X15508099Y-11560236D01*
X15515057Y-11550630D01*
X15520601Y-11544518D01*
X15529187Y-11536881D01*
X15537599Y-11531140D01*
X15546031Y-11527194D01*
X15554679Y-11524940D01*
X15559288Y-11524406D01*
X15563663Y-11524214D01*
X15566958Y-11524467D01*
X15570100Y-11525306D01*
X15573212Y-11526530D01*
X15579517Y-11529187D01*
X15582226Y-11526676D01*
X15585830Y-11524324D01*
X15589666Y-11523414D01*
X15593232Y-11523935D01*
G36*
X15593232Y-11523935D02*
G01*
X15596026Y-11525875D01*
X15596794Y-11527007D01*
X15597550Y-11529406D01*
X15598243Y-11533415D01*
X15598838Y-11538612D01*
X15599304Y-11544576D01*
X15599609Y-11550884D01*
X15599719Y-11557114D01*
X15599603Y-11562846D01*
X15599583Y-11563272D01*
X15599128Y-11569455D01*
X15598389Y-11576091D01*
X15597440Y-11582746D01*
X15596355Y-11588983D01*
X15595206Y-11594368D01*
X15594067Y-11598466D01*
X15593316Y-11600336D01*
X15591342Y-11603084D01*
X15588255Y-11606278D01*
X15584689Y-11609330D01*
X15581281Y-11611652D01*
X15580791Y-11611917D01*
X15577711Y-11613130D01*
X15574141Y-11614048D01*
X15573717Y-11614121D01*
X15570960Y-11614386D01*
X15569315Y-11613830D01*
X15567931Y-11612157D01*
X15567880Y-11612079D01*
X15567195Y-11610855D01*
X15566763Y-11609425D01*
X15566573Y-11607423D01*
X15566610Y-11604477D01*
X15566861Y-11600218D01*
X15567274Y-11594797D01*
X15567970Y-11584875D01*
X15568326Y-11576850D01*
X15568343Y-11570614D01*
X15568021Y-11566060D01*
X15567361Y-11563082D01*
X15567348Y-11563048D01*
X15564935Y-11558756D01*
X15561631Y-11556288D01*
X15558062Y-11555616D01*
X15552354Y-11556609D01*
X15546709Y-11559498D01*
X15541205Y-11564147D01*
X15535925Y-11570419D01*
X15530946Y-11578179D01*
X15526349Y-11587290D01*
X15522214Y-11597616D01*
X15518621Y-11609022D01*
X15515650Y-11621370D01*
X15513936Y-11630800D01*
X15513059Y-11638063D01*
X15512487Y-11646469D01*
X15512219Y-11655468D01*
X15512256Y-11664514D01*
X15512598Y-11673057D01*
X15513244Y-11680551D01*
X15513930Y-11685156D01*
X15516461Y-11696321D01*
X15519564Y-11706226D01*
X15523152Y-11714658D01*
X15527143Y-11721404D01*
X15529417Y-11724250D01*
X15533303Y-11727707D01*
X15537984Y-11730620D01*
X15542785Y-11732640D01*
X15547028Y-11733415D01*
X15547114Y-11733416D01*
X15553201Y-11732450D01*
X15559477Y-11729664D01*
X15565713Y-11725228D01*
X15571679Y-11719309D01*
X15577145Y-11712078D01*
X15578048Y-11710666D01*
X15581611Y-11704482D01*
X15585451Y-11697028D01*
X15589249Y-11688979D01*
X15592687Y-11681007D01*
X15595379Y-11673980D01*
X15597068Y-11669318D01*
X15598381Y-11666256D01*
X15599568Y-11664459D01*
X15600883Y-11663593D01*
X15602575Y-11663326D01*
X15603418Y-11663312D01*
X15606820Y-11664262D01*
X15609939Y-11666855D01*
X15612363Y-11670705D01*
X15612950Y-11672217D01*
X15613589Y-11676311D01*
X15613396Y-11681815D01*
X15612462Y-11688331D01*
X15610881Y-11695460D01*
X15608744Y-11702804D01*
X15606144Y-11709963D01*
X15603173Y-11716540D01*
X15602312Y-11718176D01*
X15595170Y-11730298D01*
X15587992Y-11740471D01*
X15580700Y-11748776D01*
X15573213Y-11755295D01*
X15565452Y-11760110D01*
X15558973Y-11762796D01*
X15549159Y-11765093D01*
X15539726Y-11765413D01*
X15530710Y-11763782D01*
X15522150Y-11760225D01*
X15514083Y-11754767D01*
X15506546Y-11747436D01*
X15499578Y-11738256D01*
X15493215Y-11727253D01*
X15487495Y-11714453D01*
X15487164Y-11713604D01*
X15485843Y-11710328D01*
X15484740Y-11707834D01*
X15484148Y-11706745D01*
X15483401Y-11707221D01*
X15481951Y-11709135D01*
X15480051Y-11712133D01*
X15479052Y-11713857D01*
X15471277Y-11726765D01*
X15463601Y-11737711D01*
X15455959Y-11746762D01*
X15448288Y-11753983D01*
X15440527Y-11759438D01*
X15432611Y-11763192D01*
X15430476Y-11763911D01*
X15422945Y-11765441D01*
X15414644Y-11765798D01*
X15406466Y-11764979D01*
X15402316Y-11764018D01*
X15397815Y-11762603D01*
X15394263Y-11761129D01*
X15390888Y-11759203D01*
X15386917Y-11756432D01*
X15385866Y-11755655D01*
X15380042Y-11750272D01*
X15374515Y-11743131D01*
X15369411Y-11734498D01*
X15364854Y-11724639D01*
X15360970Y-11713820D01*
X15357886Y-11702308D01*
X15355999Y-11692268D01*
X15355361Y-11686263D01*
X15354984Y-11678802D01*
X15354860Y-11670441D01*
X15354915Y-11666608D01*
X15384536Y-11666608D01*
X15386822Y-11665111D01*
X15388360Y-11663800D01*
X15390897Y-11661310D01*
X15394090Y-11657989D01*
X15397598Y-11654184D01*
X15397879Y-11653872D01*
X15408424Y-11640947D01*
X15416956Y-11627816D01*
X15423491Y-11614449D01*
X15428041Y-11600814D01*
X15430620Y-11586881D01*
X15431272Y-11575244D01*
X15431042Y-11569504D01*
X15430253Y-11565268D01*
X15428754Y-11562047D01*
X15426393Y-11559355D01*
X15426337Y-11559303D01*
X15423798Y-11557980D01*
X15420894Y-11558403D01*
X15417471Y-11560623D01*
X15414950Y-11562995D01*
X15411642Y-11567152D01*
X15408061Y-11572969D01*
X15404356Y-11580117D01*
X15400671Y-11588266D01*
X15397154Y-11597089D01*
X15393949Y-11606254D01*
X15391204Y-11615435D01*
X15390538Y-11617959D01*
X15389198Y-11623873D01*
X15387889Y-11630840D01*
X15386691Y-11638294D01*
X15385685Y-11645674D01*
X15384952Y-11652416D01*
X15384574Y-11657957D01*
X15384541Y-11659626D01*
X15384536Y-11666608D01*
X15354915Y-11666608D01*
X15354985Y-11661737D01*
X15355351Y-11653248D01*
X15355952Y-11645532D01*
X15356575Y-11640452D01*
X15359196Y-11625745D01*
X15362579Y-11611229D01*
X15366622Y-11597190D01*
X15371221Y-11583914D01*
X15376273Y-11571686D01*
X15381676Y-11560792D01*
X15387327Y-11551517D01*
X15389831Y-11548067D01*
X15396233Y-11540854D01*
X15403139Y-11535039D01*
X15410337Y-11530708D01*
X15417614Y-11527943D01*
X15424757Y-11526829D01*
X15431554Y-11527451D01*
X15436953Y-11529434D01*
X15443072Y-11533586D01*
X15448450Y-11539100D01*
X15452618Y-11545422D01*
X15454654Y-11550313D01*
X15457490Y-11562906D01*
X15458436Y-11576076D01*
X15457514Y-11589723D01*
X15454750Y-11603746D01*
X15450168Y-11618044D01*
X15443793Y-11632518D01*
X15435650Y-11647067D01*
X15428209Y-11658232D01*
X15423577Y-11664163D01*
X15417596Y-11670942D01*
X15410576Y-11678247D01*
X15402828Y-11685756D01*
X15394664Y-11693145D01*
X15393841Y-11693861D01*
X15387399Y-11699447D01*
X15389130Y-11705510D01*
X15392207Y-11714006D01*
X15396187Y-11721407D01*
X15400896Y-11727558D01*
X15406163Y-11732305D01*
X15411815Y-11735494D01*
X15417680Y-11736972D01*
X15423585Y-11736584D01*
X15423887Y-11736511D01*
X15430199Y-11733932D01*
X15436422Y-11729453D01*
X15441687Y-11724031D01*
X15444479Y-11720616D01*
X15446992Y-11717285D01*
X15449417Y-11713726D01*
X15451948Y-11709626D01*
X15454776Y-11704671D01*
X15458093Y-11698550D01*
X15462091Y-11690949D01*
X15462549Y-11690071D01*
X15465785Y-11683922D01*
X15468975Y-11677983D01*
X15471907Y-11672638D01*
X15474370Y-11668273D01*
X15476151Y-11665271D01*
X15476353Y-11664951D01*
X15478001Y-11662288D01*
X15479135Y-11660028D01*
X15479892Y-11657646D01*
X15480412Y-11654620D01*
X15480830Y-11650425D01*
X15481111Y-11646869D01*
X15481902Y-11637918D01*
X15482877Y-11630143D01*
X15484171Y-11622691D01*
X15485919Y-11614708D01*
X15486823Y-11610988D01*
X15490870Y-11597017D01*
X15495861Y-11583713D01*
X15501652Y-11571358D01*
X15508099Y-11560236D01*
X15515057Y-11550630D01*
X15520601Y-11544518D01*
X15529187Y-11536881D01*
X15537599Y-11531140D01*
X15546031Y-11527194D01*
X15554679Y-11524940D01*
X15559288Y-11524406D01*
X15563663Y-11524214D01*
X15566958Y-11524467D01*
X15570100Y-11525306D01*
X15573212Y-11526530D01*
X15579517Y-11529187D01*
X15582226Y-11526676D01*
X15585830Y-11524324D01*
X15589666Y-11523414D01*
X15593232Y-11523935D01*
G37*
X15006440Y-11530047D02*
X15013019Y-11533411D01*
X15017551Y-11537151D01*
X15021574Y-11541722D01*
X15024658Y-11546777D01*
X15026892Y-11552618D01*
X15028369Y-11559549D01*
X15029176Y-11567871D01*
X15029405Y-11576952D01*
X15028770Y-11590290D01*
X15026753Y-11602898D01*
X15023232Y-11615257D01*
X15018087Y-11627851D01*
X15015121Y-11633896D01*
X15005266Y-11651018D01*
X14993781Y-11667180D01*
X14980532Y-11682562D01*
X14973050Y-11690165D01*
X14961648Y-11701269D01*
X14963318Y-11707276D01*
X14966014Y-11714900D01*
X14969633Y-11722154D01*
X14973226Y-11727513D01*
X14975931Y-11730125D01*
X14979725Y-11732780D01*
X14983968Y-11735126D01*
X14988019Y-11736810D01*
X14991239Y-11737479D01*
X14991322Y-11737480D01*
X14997323Y-11736517D01*
X15003595Y-11733725D01*
X15009926Y-11729251D01*
X15016106Y-11723238D01*
X15021248Y-11716796D01*
X15022924Y-11714172D01*
X15025315Y-11710045D01*
X15028243Y-11704741D01*
X15031534Y-11698584D01*
X15035010Y-11691899D01*
X15037914Y-11686172D01*
X15050129Y-11661788D01*
X15049161Y-11653152D01*
X15048676Y-11647183D01*
X15048348Y-11639661D01*
X15048173Y-11631057D01*
X15048146Y-11621845D01*
X15048266Y-11612496D01*
X15048527Y-11603483D01*
X15048926Y-11595278D01*
X15049459Y-11588354D01*
X15049683Y-11586268D01*
X15051132Y-11576008D01*
X15052830Y-11567718D01*
X15054798Y-11561350D01*
X15057060Y-11556854D01*
X15059637Y-11554182D01*
X15062550Y-11553284D01*
X15064362Y-11553546D01*
X15069691Y-11556124D01*
X15074477Y-11560623D01*
X15078673Y-11566990D01*
X15080661Y-11571151D01*
X15081293Y-11572654D01*
X15081757Y-11574015D01*
X15082047Y-11575512D01*
X15082158Y-11577426D01*
X15082083Y-11580033D01*
X15081816Y-11583614D01*
X15081352Y-11588446D01*
X15080685Y-11594809D01*
X15080039Y-11600828D01*
X15078505Y-11624087D01*
X15078870Y-11647312D01*
X15081113Y-11670268D01*
X15085217Y-11692717D01*
X15088531Y-11705730D01*
X15089752Y-11709756D01*
X15090869Y-11712920D01*
X15091722Y-11714797D01*
X15092038Y-11715128D01*
X15092808Y-11714188D01*
X15093802Y-11711616D01*
X15094914Y-11707785D01*
X15096034Y-11703067D01*
X15097045Y-11697890D01*
X15099554Y-11686705D01*
X15103226Y-11674732D01*
X15107843Y-11662471D01*
X15113191Y-11650426D01*
X15119051Y-11639097D01*
X15125209Y-11628987D01*
X15129074Y-11623560D01*
X15135538Y-11615688D01*
X15141537Y-11609651D01*
X15147207Y-11605343D01*
X15152683Y-11602657D01*
X15157032Y-11601603D01*
X15162716Y-11601442D01*
X15167044Y-11602690D01*
X15170032Y-11605380D01*
X15171698Y-11609544D01*
X15172058Y-11615217D01*
X15171129Y-11622430D01*
X15170077Y-11627061D01*
X15169369Y-11630085D01*
X15168831Y-11633107D01*
X15168440Y-11636478D01*
X15168170Y-11640548D01*
X15167998Y-11645667D01*
X15167897Y-11652184D01*
X15167853Y-11658727D01*
X15167876Y-11667475D01*
X15168025Y-11675226D01*
X15168289Y-11681699D01*
X15168659Y-11686616D01*
X15168974Y-11688985D01*
X15171821Y-11700883D01*
X15175817Y-11711260D01*
X15180925Y-11720046D01*
X15187112Y-11727171D01*
X15189238Y-11729029D01*
X15194844Y-11732672D01*
X15200258Y-11734293D01*
X15205493Y-11733895D01*
X15210568Y-11731475D01*
X15213288Y-11729291D01*
X15217211Y-11724806D01*
X15220926Y-11718984D01*
X15224037Y-11712514D01*
X15225611Y-11708066D01*
X15227366Y-11699748D01*
X15228213Y-11689784D01*
X15228156Y-11678345D01*
X15227195Y-11665601D01*
X15225334Y-11651725D01*
X15224898Y-11649088D01*
X15223030Y-11639709D01*
X15220646Y-11630930D01*
X15217534Y-11622097D01*
X15213477Y-11612556D01*
X15211651Y-11608623D01*
X15207502Y-11599692D01*
X15204338Y-11592510D01*
X15202150Y-11587054D01*
X15200928Y-11583300D01*
X15200640Y-11581542D01*
X15201547Y-11578707D01*
X15204057Y-11576767D01*
X15207855Y-11575948D01*
X15208442Y-11575936D01*
X15214028Y-11576551D01*
X15219216Y-11578482D01*
X15224148Y-11581860D01*
X15228968Y-11586813D01*
X15233822Y-11593472D01*
X15238853Y-11601966D01*
X15240262Y-11604595D01*
X15246655Y-11618769D01*
X15251477Y-11633834D01*
X15254718Y-11649510D01*
X15256370Y-11665515D01*
X15256424Y-11681567D01*
X15254871Y-11697385D01*
X15251703Y-11712686D01*
X15246910Y-11727190D01*
X15244276Y-11733264D01*
X15239432Y-11741575D01*
X15233210Y-11749064D01*
X15225940Y-11755466D01*
X15217950Y-11760513D01*
X15209569Y-11763940D01*
X15205053Y-11765014D01*
X15197100Y-11765394D01*
X15188970Y-11763839D01*
X15180838Y-11760413D01*
X15172881Y-11755181D01*
X15168487Y-11751413D01*
X15161681Y-11744171D01*
X15156079Y-11736179D01*
X15151415Y-11727007D01*
X15147963Y-11717871D01*
X15145795Y-11711036D01*
X15144163Y-11705017D01*
X15142995Y-11699316D01*
X15142222Y-11693433D01*
X15141771Y-11686872D01*
X15141572Y-11679131D01*
X15141545Y-11672710D01*
X15141509Y-11666825D01*
X15141394Y-11661710D01*
X15141213Y-11657684D01*
X15140981Y-11655064D01*
X15140722Y-11654168D01*
X15139489Y-11655087D01*
X15137755Y-11657656D01*
X15135644Y-11661590D01*
X15133282Y-11666605D01*
X15130792Y-11672418D01*
X15128300Y-11678745D01*
X15125930Y-11685301D01*
X15123807Y-11691804D01*
X15123005Y-11694500D01*
X15120743Y-11702851D01*
X15118718Y-11711459D01*
X15116844Y-11720745D01*
X15115038Y-11731135D01*
X15113215Y-11743049D01*
X15112862Y-11745507D01*
X15111935Y-11751808D01*
X15111164Y-11756420D01*
X15110468Y-11759671D01*
X15109763Y-11761890D01*
X15108965Y-11763405D01*
X15108076Y-11764464D01*
X15104565Y-11766774D01*
X15100214Y-11767414D01*
X15094833Y-11766409D01*
X15094557Y-11766324D01*
X15089561Y-11763792D01*
X15084496Y-11759405D01*
X15079477Y-11753333D01*
X15074618Y-11745745D01*
X15070034Y-11736810D01*
X15065839Y-11726698D01*
X15063788Y-11720846D01*
X15062136Y-11715949D01*
X15060642Y-11711744D01*
X15059448Y-11708611D01*
X15058694Y-11706933D01*
X15058587Y-11706781D01*
X15057779Y-11707267D01*
X15056204Y-11709217D01*
X15054086Y-11712321D01*
X15051651Y-11716270D01*
X15051592Y-11716372D01*
X15043435Y-11729267D01*
X15035327Y-11740152D01*
X15027251Y-11749046D01*
X15019189Y-11755971D01*
X15016309Y-11757971D01*
X15007611Y-11762512D01*
X14998578Y-11765147D01*
X14989423Y-11765926D01*
X14980358Y-11764902D01*
X14971594Y-11762124D01*
X14963345Y-11757645D01*
X14955821Y-11751515D01*
X14949235Y-11743785D01*
X14947642Y-11741426D01*
X14941269Y-11730106D01*
X14936290Y-11718100D01*
X14932650Y-11705187D01*
X14930292Y-11691144D01*
X14929160Y-11675749D01*
X14929036Y-11667884D01*
X14929176Y-11664701D01*
X14957684Y-11664701D01*
X14958038Y-11667406D01*
X14958808Y-11668391D01*
X14958829Y-11668392D01*
X14960092Y-11667758D01*
X14962266Y-11666126D01*
X14964013Y-11664624D01*
X14969190Y-11659214D01*
X14974638Y-11652211D01*
X14980134Y-11643995D01*
X14985453Y-11634944D01*
X14990372Y-11625438D01*
X14994669Y-11615854D01*
X14997949Y-11607087D01*
X15000251Y-11599162D01*
X15001940Y-11591227D01*
X15002998Y-11583594D01*
X15003408Y-11576577D01*
X15003155Y-11570488D01*
X15002220Y-11565639D01*
X15000588Y-11562344D01*
X15000358Y-11562082D01*
X14997364Y-11560228D01*
X14993566Y-11559645D01*
X14989828Y-11560443D01*
X14989322Y-11560691D01*
X14987478Y-11562394D01*
X14985080Y-11565669D01*
X14982299Y-11570192D01*
X14979308Y-11575636D01*
X14976278Y-11581676D01*
X14973380Y-11587986D01*
X14970786Y-11594241D01*
X14968872Y-11599501D01*
X14967109Y-11605299D01*
X14965389Y-11611940D01*
X14963750Y-11619169D01*
X14962230Y-11626730D01*
X14960865Y-11634365D01*
X14959694Y-11641820D01*
X14958752Y-11648837D01*
X14958079Y-11655160D01*
X14957710Y-11660534D01*
X14957684Y-11664701D01*
X14929176Y-11664701D01*
X14929931Y-11647599D01*
X14932529Y-11627226D01*
X14936745Y-11607291D01*
X14941597Y-11590904D01*
X14946516Y-11577656D01*
X14951685Y-11566256D01*
X14957207Y-11556523D01*
X14963183Y-11548279D01*
X14969479Y-11541562D01*
X14977000Y-11535520D01*
X14984581Y-11531335D01*
X14992097Y-11529021D01*
X14999425Y-11528587D01*
X15006440Y-11530047D01*
G36*
X15006440Y-11530047D02*
G01*
X15013019Y-11533411D01*
X15017551Y-11537151D01*
X15021574Y-11541722D01*
X15024658Y-11546777D01*
X15026892Y-11552618D01*
X15028369Y-11559549D01*
X15029176Y-11567871D01*
X15029405Y-11576952D01*
X15028770Y-11590290D01*
X15026753Y-11602898D01*
X15023232Y-11615257D01*
X15018087Y-11627851D01*
X15015121Y-11633896D01*
X15005266Y-11651018D01*
X14993781Y-11667180D01*
X14980532Y-11682562D01*
X14973050Y-11690165D01*
X14961648Y-11701269D01*
X14963318Y-11707276D01*
X14966014Y-11714900D01*
X14969633Y-11722154D01*
X14973226Y-11727513D01*
X14975931Y-11730125D01*
X14979725Y-11732780D01*
X14983968Y-11735126D01*
X14988019Y-11736810D01*
X14991239Y-11737479D01*
X14991322Y-11737480D01*
X14997323Y-11736517D01*
X15003595Y-11733725D01*
X15009926Y-11729251D01*
X15016106Y-11723238D01*
X15021248Y-11716796D01*
X15022924Y-11714172D01*
X15025315Y-11710045D01*
X15028243Y-11704741D01*
X15031534Y-11698584D01*
X15035010Y-11691899D01*
X15037914Y-11686172D01*
X15050129Y-11661788D01*
X15049161Y-11653152D01*
X15048676Y-11647183D01*
X15048348Y-11639661D01*
X15048173Y-11631057D01*
X15048146Y-11621845D01*
X15048266Y-11612496D01*
X15048527Y-11603483D01*
X15048926Y-11595278D01*
X15049459Y-11588354D01*
X15049683Y-11586268D01*
X15051132Y-11576008D01*
X15052830Y-11567718D01*
X15054798Y-11561350D01*
X15057060Y-11556854D01*
X15059637Y-11554182D01*
X15062550Y-11553284D01*
X15064362Y-11553546D01*
X15069691Y-11556124D01*
X15074477Y-11560623D01*
X15078673Y-11566990D01*
X15080661Y-11571151D01*
X15081293Y-11572654D01*
X15081757Y-11574015D01*
X15082047Y-11575512D01*
X15082158Y-11577426D01*
X15082083Y-11580033D01*
X15081816Y-11583614D01*
X15081352Y-11588446D01*
X15080685Y-11594809D01*
X15080039Y-11600828D01*
X15078505Y-11624087D01*
X15078870Y-11647312D01*
X15081113Y-11670268D01*
X15085217Y-11692717D01*
X15088531Y-11705730D01*
X15089752Y-11709756D01*
X15090869Y-11712920D01*
X15091722Y-11714797D01*
X15092038Y-11715128D01*
X15092808Y-11714188D01*
X15093802Y-11711616D01*
X15094914Y-11707785D01*
X15096034Y-11703067D01*
X15097045Y-11697890D01*
X15099554Y-11686705D01*
X15103226Y-11674732D01*
X15107843Y-11662471D01*
X15113191Y-11650426D01*
X15119051Y-11639097D01*
X15125209Y-11628987D01*
X15129074Y-11623560D01*
X15135538Y-11615688D01*
X15141537Y-11609651D01*
X15147207Y-11605343D01*
X15152683Y-11602657D01*
X15157032Y-11601603D01*
X15162716Y-11601442D01*
X15167044Y-11602690D01*
X15170032Y-11605380D01*
X15171698Y-11609544D01*
X15172058Y-11615217D01*
X15171129Y-11622430D01*
X15170077Y-11627061D01*
X15169369Y-11630085D01*
X15168831Y-11633107D01*
X15168440Y-11636478D01*
X15168170Y-11640548D01*
X15167998Y-11645667D01*
X15167897Y-11652184D01*
X15167853Y-11658727D01*
X15167876Y-11667475D01*
X15168025Y-11675226D01*
X15168289Y-11681699D01*
X15168659Y-11686616D01*
X15168974Y-11688985D01*
X15171821Y-11700883D01*
X15175817Y-11711260D01*
X15180925Y-11720046D01*
X15187112Y-11727171D01*
X15189238Y-11729029D01*
X15194844Y-11732672D01*
X15200258Y-11734293D01*
X15205493Y-11733895D01*
X15210568Y-11731475D01*
X15213288Y-11729291D01*
X15217211Y-11724806D01*
X15220926Y-11718984D01*
X15224037Y-11712514D01*
X15225611Y-11708066D01*
X15227366Y-11699748D01*
X15228213Y-11689784D01*
X15228156Y-11678345D01*
X15227195Y-11665601D01*
X15225334Y-11651725D01*
X15224898Y-11649088D01*
X15223030Y-11639709D01*
X15220646Y-11630930D01*
X15217534Y-11622097D01*
X15213477Y-11612556D01*
X15211651Y-11608623D01*
X15207502Y-11599692D01*
X15204338Y-11592510D01*
X15202150Y-11587054D01*
X15200928Y-11583300D01*
X15200640Y-11581542D01*
X15201547Y-11578707D01*
X15204057Y-11576767D01*
X15207855Y-11575948D01*
X15208442Y-11575936D01*
X15214028Y-11576551D01*
X15219216Y-11578482D01*
X15224148Y-11581860D01*
X15228968Y-11586813D01*
X15233822Y-11593472D01*
X15238853Y-11601966D01*
X15240262Y-11604595D01*
X15246655Y-11618769D01*
X15251477Y-11633834D01*
X15254718Y-11649510D01*
X15256370Y-11665515D01*
X15256424Y-11681567D01*
X15254871Y-11697385D01*
X15251703Y-11712686D01*
X15246910Y-11727190D01*
X15244276Y-11733264D01*
X15239432Y-11741575D01*
X15233210Y-11749064D01*
X15225940Y-11755466D01*
X15217950Y-11760513D01*
X15209569Y-11763940D01*
X15205053Y-11765014D01*
X15197100Y-11765394D01*
X15188970Y-11763839D01*
X15180838Y-11760413D01*
X15172881Y-11755181D01*
X15168487Y-11751413D01*
X15161681Y-11744171D01*
X15156079Y-11736179D01*
X15151415Y-11727007D01*
X15147963Y-11717871D01*
X15145795Y-11711036D01*
X15144163Y-11705017D01*
X15142995Y-11699316D01*
X15142222Y-11693433D01*
X15141771Y-11686872D01*
X15141572Y-11679131D01*
X15141545Y-11672710D01*
X15141509Y-11666825D01*
X15141394Y-11661710D01*
X15141213Y-11657684D01*
X15140981Y-11655064D01*
X15140722Y-11654168D01*
X15139489Y-11655087D01*
X15137755Y-11657656D01*
X15135644Y-11661590D01*
X15133282Y-11666605D01*
X15130792Y-11672418D01*
X15128300Y-11678745D01*
X15125930Y-11685301D01*
X15123807Y-11691804D01*
X15123005Y-11694500D01*
X15120743Y-11702851D01*
X15118718Y-11711459D01*
X15116844Y-11720745D01*
X15115038Y-11731135D01*
X15113215Y-11743049D01*
X15112862Y-11745507D01*
X15111935Y-11751808D01*
X15111164Y-11756420D01*
X15110468Y-11759671D01*
X15109763Y-11761890D01*
X15108965Y-11763405D01*
X15108076Y-11764464D01*
X15104565Y-11766774D01*
X15100214Y-11767414D01*
X15094833Y-11766409D01*
X15094557Y-11766324D01*
X15089561Y-11763792D01*
X15084496Y-11759405D01*
X15079477Y-11753333D01*
X15074618Y-11745745D01*
X15070034Y-11736810D01*
X15065839Y-11726698D01*
X15063788Y-11720846D01*
X15062136Y-11715949D01*
X15060642Y-11711744D01*
X15059448Y-11708611D01*
X15058694Y-11706933D01*
X15058587Y-11706781D01*
X15057779Y-11707267D01*
X15056204Y-11709217D01*
X15054086Y-11712321D01*
X15051651Y-11716270D01*
X15051592Y-11716372D01*
X15043435Y-11729267D01*
X15035327Y-11740152D01*
X15027251Y-11749046D01*
X15019189Y-11755971D01*
X15016309Y-11757971D01*
X15007611Y-11762512D01*
X14998578Y-11765147D01*
X14989423Y-11765926D01*
X14980358Y-11764902D01*
X14971594Y-11762124D01*
X14963345Y-11757645D01*
X14955821Y-11751515D01*
X14949235Y-11743785D01*
X14947642Y-11741426D01*
X14941269Y-11730106D01*
X14936290Y-11718100D01*
X14932650Y-11705187D01*
X14930292Y-11691144D01*
X14929160Y-11675749D01*
X14929036Y-11667884D01*
X14929176Y-11664701D01*
X14957684Y-11664701D01*
X14958038Y-11667406D01*
X14958808Y-11668391D01*
X14958829Y-11668392D01*
X14960092Y-11667758D01*
X14962266Y-11666126D01*
X14964013Y-11664624D01*
X14969190Y-11659214D01*
X14974638Y-11652211D01*
X14980134Y-11643995D01*
X14985453Y-11634944D01*
X14990372Y-11625438D01*
X14994669Y-11615854D01*
X14997949Y-11607087D01*
X15000251Y-11599162D01*
X15001940Y-11591227D01*
X15002998Y-11583594D01*
X15003408Y-11576577D01*
X15003155Y-11570488D01*
X15002220Y-11565639D01*
X15000588Y-11562344D01*
X15000358Y-11562082D01*
X14997364Y-11560228D01*
X14993566Y-11559645D01*
X14989828Y-11560443D01*
X14989322Y-11560691D01*
X14987478Y-11562394D01*
X14985080Y-11565669D01*
X14982299Y-11570192D01*
X14979308Y-11575636D01*
X14976278Y-11581676D01*
X14973380Y-11587986D01*
X14970786Y-11594241D01*
X14968872Y-11599501D01*
X14967109Y-11605299D01*
X14965389Y-11611940D01*
X14963750Y-11619169D01*
X14962230Y-11626730D01*
X14960865Y-11634365D01*
X14959694Y-11641820D01*
X14958752Y-11648837D01*
X14958079Y-11655160D01*
X14957710Y-11660534D01*
X14957684Y-11664701D01*
X14929176Y-11664701D01*
X14929931Y-11647599D01*
X14932529Y-11627226D01*
X14936745Y-11607291D01*
X14941597Y-11590904D01*
X14946516Y-11577656D01*
X14951685Y-11566256D01*
X14957207Y-11556523D01*
X14963183Y-11548279D01*
X14969479Y-11541562D01*
X14977000Y-11535520D01*
X14984581Y-11531335D01*
X14992097Y-11529021D01*
X14999425Y-11528587D01*
X15006440Y-11530047D01*
G37*
D10*
%TO.C,SW3*%
X16870000Y-13975000D02*
X16900000Y-13975000D01*
X16870000Y-14305000D02*
X16870000Y-13975000D01*
X16900000Y-14305000D02*
X16870000Y-14305000D01*
X17120000Y-14305000D02*
X17150000Y-14305000D01*
X17150000Y-13975000D02*
X17120000Y-13975000D01*
X17150000Y-14305000D02*
X17150000Y-13975000D01*
%TO.C,C5*%
X15099000Y-8831125D02*
X15099000Y-8688875D01*
X15281000Y-8831125D02*
X15281000Y-8688875D01*
%TO.C,C2*%
X14161125Y-8579000D02*
X14018875Y-8579000D01*
X14161125Y-8761000D02*
X14018875Y-8761000D01*
%TO.C,R1*%
X15747750Y-13405472D02*
X15747750Y-13354528D01*
X15852250Y-13405472D02*
X15852250Y-13354528D01*
%TO.C,TP5*%
X15582000Y-11150500D02*
X15582000Y-10885500D01*
X15858000Y-10885500D02*
X15582000Y-10885500D01*
X15858000Y-11150500D02*
X15582000Y-11150500D01*
X15858000Y-11150500D02*
X15858000Y-10885500D01*
X15858000Y-11277500D02*
X15858000Y-11415500D01*
X15858000Y-11415500D02*
X15720000Y-11415500D01*
%TO.C,D13*%
X14431500Y-10775000D02*
X14431500Y-10945000D01*
X14431500Y-10775000D02*
X14757500Y-10775000D01*
X14431500Y-10945000D02*
X14757500Y-10945000D01*
%TO.C,SW2*%
X16170000Y-13975000D02*
X16200000Y-13975000D01*
X16170000Y-14305000D02*
X16170000Y-13975000D01*
X16200000Y-14305000D02*
X16170000Y-14305000D01*
X16420000Y-14305000D02*
X16450000Y-14305000D01*
X16450000Y-13975000D02*
X16420000Y-13975000D01*
X16450000Y-14305000D02*
X16450000Y-13975000D01*
%TO.C,D11*%
X14865000Y-10831000D02*
X14865000Y-10505000D01*
X14865000Y-10831000D02*
X15035000Y-10831000D01*
X15035000Y-10831000D02*
X15035000Y-10505000D01*
%TO.C,SW7*%
X15070000Y-10905000D02*
X15070000Y-11235000D01*
X15070000Y-11235000D02*
X15100000Y-11235000D01*
X15100000Y-10905000D02*
X15070000Y-10905000D01*
X15320000Y-10905000D02*
X15350000Y-10905000D01*
X15350000Y-10905000D02*
X15350000Y-11235000D01*
X15350000Y-11235000D02*
X15320000Y-11235000D01*
%TO.C,D4*%
X17630000Y-13843500D02*
X17876000Y-13843500D01*
X17876000Y-13696500D02*
X17630000Y-13696500D01*
X17876000Y-13843500D02*
X17876000Y-13696500D01*
%TO.C,TP3*%
X13690000Y-12970000D02*
G75*
G02*
X13550000Y-12970000I-70000J0D01*
G01*
X13550000Y-12970000D02*
G75*
G02*
X13690000Y-12970000I70000J0D01*
G01*
%TO.C,JP1*%
X13500000Y-12170000D02*
X13500000Y-12030000D01*
X13570000Y-11960000D02*
X13630000Y-11960000D01*
X13630000Y-12240000D02*
X13570000Y-12240000D01*
X13700000Y-12030000D02*
X13700000Y-12170000D01*
X13500000Y-12030000D02*
G75*
G02*
X13570000Y-11960000I70000J0D01*
G01*
X13570000Y-12240000D02*
G75*
G02*
X13500000Y-12170000I0J70000D01*
G01*
X13630000Y-11960000D02*
G75*
G02*
X13700000Y-12030000I0J-70000D01*
G01*
X13700000Y-12170000D02*
G75*
G02*
X13630000Y-12240000I-70000J0D01*
G01*
D14*
%TO.C,BT2*%
X15927500Y-5806500D02*
X15927500Y-13511500D01*
X15927500Y-13511500D02*
X17992500Y-13511500D01*
X16960000Y-6584000D02*
X16960000Y-6434000D01*
X16960000Y-12734000D02*
X16960000Y-12884000D01*
X17035000Y-6509000D02*
X16885000Y-6509000D01*
X17992500Y-5806500D02*
X15927500Y-5806500D01*
X17992500Y-13511500D02*
X17992500Y-5806500D01*
D10*
%TO.C,R27*%
X14017750Y-11114528D02*
X14017750Y-11165472D01*
X14122250Y-11114528D02*
X14122250Y-11165472D01*
%TO.C,TP4*%
X13690000Y-13190000D02*
G75*
G02*
X13550000Y-13190000I-70000J0D01*
G01*
X13550000Y-13190000D02*
G75*
G02*
X13690000Y-13190000I70000J0D01*
G01*
%TO.C,TP1*%
X13690000Y-12530000D02*
G75*
G02*
X13550000Y-12530000I-70000J0D01*
G01*
X13550000Y-12530000D02*
G75*
G02*
X13690000Y-12530000I70000J0D01*
G01*
%TO.C,D12*%
X14391000Y-10775000D02*
X14065000Y-10775000D01*
X14391000Y-10945000D02*
X14065000Y-10945000D01*
X14391000Y-10945000D02*
X14391000Y-10775000D01*
%TO.C,TP7*%
X13642000Y-11222000D02*
X13780000Y-11222000D01*
X13642000Y-11360000D02*
X13642000Y-11222000D01*
X13642000Y-11487000D02*
X13642000Y-11752000D01*
X13642000Y-11487000D02*
X13918000Y-11487000D01*
X13642000Y-11752000D02*
X13918000Y-11752000D01*
X13918000Y-11487000D02*
X13918000Y-11752000D01*
D14*
%TO.C,J6*%
X13825000Y-8855000D02*
X14775000Y-8855000D01*
X13825000Y-9975000D02*
X13825000Y-8855000D01*
X14775000Y-8855000D02*
X14775000Y-8968650D01*
X14775000Y-9975000D02*
X13825000Y-9975000D01*
X14775000Y-9975000D02*
X14775000Y-9331350D01*
D15*
X13770000Y-9280000D02*
G75*
G02*
X13750000Y-9280000I-10000J0D01*
G01*
X13750000Y-9280000D02*
G75*
G02*
X13770000Y-9280000I10000J0D01*
G01*
D10*
%TO.C,D9*%
X14524000Y-8596500D02*
X14524000Y-8743500D01*
X14524000Y-8743500D02*
X14770000Y-8743500D01*
X14770000Y-8596500D02*
X14524000Y-8596500D01*
%TO.C,R30*%
X14895472Y-11201750D02*
X14844528Y-11201750D01*
X14895472Y-11306250D02*
X14844528Y-11306250D01*
%TO.C,D2*%
X16230000Y-13843500D02*
X16476000Y-13843500D01*
X16476000Y-13696500D02*
X16230000Y-13696500D01*
X16476000Y-13843500D02*
X16476000Y-13696500D01*
%TO.C,U1*%
X13780000Y-11864000D02*
X13780000Y-11964000D01*
X13780000Y-11864000D02*
X13930000Y-11864000D01*
X13780000Y-14449000D02*
X13780000Y-13829000D01*
X15620000Y-11864000D02*
X15470000Y-11864000D01*
X15620000Y-11964000D02*
X15620000Y-11864000D01*
X15620000Y-13769000D02*
X15620000Y-14449000D01*
X15620000Y-13769000D02*
X15660000Y-13769000D01*
X15620000Y-14449000D02*
X13780000Y-14449000D01*
%TO.C,JP2*%
X15800000Y-13700000D02*
X15800000Y-13640000D01*
X15870000Y-13570000D02*
X16010000Y-13570000D01*
X16010000Y-13770000D02*
X15870000Y-13770000D01*
X16080000Y-13640000D02*
X16080000Y-13700000D01*
X15800000Y-13640000D02*
G75*
G02*
X15870000Y-13570000I70000J0D01*
G01*
X15870000Y-13770000D02*
G75*
G02*
X15800000Y-13700000I0J70000D01*
G01*
X16010000Y-13570000D02*
G75*
G02*
X16080000Y-13640000I0J-70000D01*
G01*
X16080000Y-13700000D02*
G75*
G02*
X16010000Y-13770000I-70000J0D01*
G01*
%TO.C,SW5*%
X15425000Y-8550000D02*
X15425000Y-8580000D01*
X15425000Y-8830000D02*
X15425000Y-8800000D01*
X15755000Y-8550000D02*
X15425000Y-8550000D01*
X15755000Y-8580000D02*
X15755000Y-8550000D01*
X15755000Y-8800000D02*
X15755000Y-8830000D01*
X15755000Y-8830000D02*
X15425000Y-8830000D01*
%TO.C,D3*%
X16930000Y-13843500D02*
X17176000Y-13843500D01*
X17176000Y-13696500D02*
X16930000Y-13696500D01*
X17176000Y-13843500D02*
X17176000Y-13696500D01*
%TO.C,R18*%
X14917750Y-8705472D02*
X14917750Y-8654528D01*
X15022250Y-8705472D02*
X15022250Y-8654528D01*
%TO.C,SW4*%
X17570000Y-13975000D02*
X17600000Y-13975000D01*
X17570000Y-14305000D02*
X17570000Y-13975000D01*
X17600000Y-14305000D02*
X17570000Y-14305000D01*
X17820000Y-14305000D02*
X17850000Y-14305000D01*
X17850000Y-13975000D02*
X17820000Y-13975000D01*
X17850000Y-14305000D02*
X17850000Y-13975000D01*
%TO.C,TP2*%
X13690000Y-12750000D02*
G75*
G02*
X13550000Y-12750000I-70000J0D01*
G01*
X13550000Y-12750000D02*
G75*
G02*
X13690000Y-12750000I70000J0D01*
G01*
D14*
%TO.C,SW6*%
X12432500Y-14190000D02*
X12432500Y-14290000D01*
X12467500Y-14105000D02*
X13067500Y-14105000D01*
X12467500Y-14375000D02*
X13067500Y-14375000D01*
X12617500Y-14375000D02*
X12617500Y-14525000D01*
X12617500Y-14525000D02*
X12767500Y-14525000D01*
X12767500Y-14525000D02*
X12767500Y-14375000D01*
X13102500Y-14190000D02*
X13102500Y-14290000D01*
D15*
X12552500Y-13935000D02*
G75*
G02*
X12532500Y-13935000I-10000J0D01*
G01*
X12532500Y-13935000D02*
G75*
G02*
X12552500Y-13935000I10000J0D01*
G01*
D14*
%TO.C,BT1*%
X11407500Y-5807500D02*
X11407500Y-13512500D01*
X11407500Y-13512500D02*
X13472500Y-13512500D01*
X12365000Y-12810000D02*
X12515000Y-12810000D01*
X12440000Y-6585000D02*
X12440000Y-6435000D01*
X12440000Y-12735000D02*
X12440000Y-12885000D01*
X13472500Y-5807500D02*
X11407500Y-5807500D01*
X13472500Y-13512500D02*
X13472500Y-5807500D01*
%TD*%
M02*
