M48
; DRILL file {KiCad 9.0.5} date 2026-02-12T11:30:42+0100
; FORMAT={-:-/ absolute / metric / decimal}
; #@! TF.CreationDate,2026-02-12T11:30:42+01:00
; #@! TF.GenerationSoftware,Kicad,Pcbnew,9.0.5
; #@! TF.FileFunction,Plated,1,4,PTH
FMAT,2
METRIC
; #@! TA.AperFunction,Plated,PTH,ViaDrill
T1C0.300
; #@! TA.AperFunction,Plated,PTH,ComponentDrill
T2C0.600
; #@! TA.AperFunction,Plated,PTH,ComponentDrill
T3C1.000
; #@! TA.AperFunction,Plated,PTH,ComponentDrill
T4C1.320
; #@! TA.AperFunction,Plated,PTH,ComponentDrill
T5C2.000
; #@! TA.AperFunction,Plated,PTH,ComponentDrill
T6C3.000
%
G90
G05
T1
X114.9Y-58.9
X114.9Y-62.95
X114.9Y-67.0
X114.9Y-71.2
X114.9Y-74.457
X114.9Y-77.714
X114.9Y-80.971
X114.9Y-84.229
X114.9Y-87.486
X114.9Y-90.743
X114.9Y-94.0
X114.9Y-97.257
X114.9Y-100.514
X114.9Y-103.771
X114.9Y-107.029
X114.9Y-110.286
X114.9Y-113.543
X114.9Y-116.8
X114.9Y-120.0
X114.9Y-123.257
X114.9Y-126.5
X114.9Y-129.92
X114.9Y-133.34
X114.9Y-136.76
X114.9Y-140.18
X114.9Y-143.6
X117.2Y-139.8
X117.85Y-127.0
X117.85Y-131.2
X117.85Y-135.0
X118.4Y-139.25
X118.5Y-83.5
X118.5Y-88.1
X118.5Y-94.2
X118.5Y-99.7
X118.9Y-58.9
X119.125Y-121.7
X119.15Y-80.75
X119.3Y-143.6
X119.75Y-134.25
X119.8Y-129.9
X119.95Y-138.13
X120.2Y-116.4
X120.2Y-118.5
X120.3Y-63.2
X120.3Y-64.4
X120.77Y-125.89
X120.83Y-127.25
X121.0Y-117.5
X121.2Y-120.425
X121.4Y-63.8
X121.68Y-139.875
X121.8Y-116.4
X121.8Y-118.5
X122.093Y-121.7
X122.4Y-122.9
X122.4Y-124.5
X122.5Y-63.2
X122.5Y-64.4
X122.502Y-139.278
X122.6Y-143.6
X122.62Y-141.516
X122.8Y-135.8
X122.9Y-58.9
X123.7Y-101.15
X123.7Y-138.6
X123.8Y-69.4
X123.8Y-71.9
X124.04Y-139.875
X124.1Y-94.2
X124.25Y-87.7
X124.4Y-124.9
X124.47Y-136.8
X124.55Y-101.15
X124.95Y-141.4
X125.118Y-73.498
X125.4Y-143.6
X126.4Y-122.9
X126.4Y-124.5
X126.5Y-58.9
X126.65Y-103.95
X126.9Y-140.4
X126.916Y-120.333
X127.13Y-121.71
X127.2Y-135.8
X127.8Y-143.6
X127.8Y-122.55
X127.8Y-130.2
X127.9Y-138.6
X128.0Y-132.0
X128.565Y-132.705
X128.59Y-126.44
X128.59Y-128.19
X128.6Y-129.9
X128.61Y-122.7
X128.61Y-124.68
X128.65Y-133.51
X128.7Y-121.655
X128.82Y-58.9
X128.844Y-110.306
X128.85Y-112.86
X128.86Y-107.77
X129.34Y-133.93
X129.47Y-119.39
X129.68Y-135.73
X129.79Y-130.9
X130.032Y-69.36
X130.1Y-141.6
X130.1Y-143.6
X130.5Y-121.8
X130.6Y-133.99
X130.86Y-126.48
X130.9Y-140.2
X131.14Y-58.9
X131.3Y-71.4
X131.336Y-133.615
X131.43Y-142.4
X131.5Y-135.83
X131.54Y-92.56
X131.64Y-134.42
X131.86Y-132.97
X132.06Y-117.21
X132.4Y-138.4
X132.4Y-141.26
X132.4Y-143.6
X132.58Y-66.16
X132.8Y-128.1
X132.8Y-129.7
X133.46Y-58.9
X133.82Y-79.79
X133.9Y-131.6
X134.0Y-134.414
X134.5Y-132.3
X134.593Y-69.36
X134.697Y-97.69
X134.697Y-99.29
X134.7Y-108.3
X134.7Y-113.1
X134.75Y-120.335
X134.86Y-122.99
X135.1Y-137.9
X135.3Y-118.9
X135.3Y-130.8
X135.34Y-126.76
X135.35Y-135.89
X135.53Y-94.09
X135.78Y-58.9
X136.03Y-89.84
X136.05Y-100.72
X136.32Y-68.41
X136.697Y-97.69
X136.697Y-99.29
X136.9Y-133.0
X137.6Y-71.4
X137.66Y-92.87
X137.68Y-137.9
X137.9Y-116.9
X137.97Y-87.85
X138.1Y-58.9
X139.38Y-63.6
X139.6Y-125.4
X139.69Y-96.45
X139.708Y-123.392
X139.96Y-134.414
X140.25Y-121.2
X140.26Y-137.9
X140.6Y-58.9
X140.62Y-70.48
X141.07Y-135.89
X141.12Y-98.04
X141.28Y-120.51
X141.48Y-96.5
X141.52Y-94.515
X141.92Y-66.43
X142.05Y-127.03
X142.08Y-117.13
X142.22Y-134.414
X142.79Y-121.94
X142.84Y-137.9
X142.88Y-96.02
X143.06Y-135.04
X143.19Y-70.48
X143.2Y-58.9
X143.59Y-121.94
X144.23Y-95.49
X144.46Y-63.6
X145.0Y-124.15
X145.09Y-117.6
X145.1Y-133.0
X145.42Y-137.9
X145.61Y-96.11
X145.7Y-58.9
X145.83Y-92.59
X146.07Y-116.06
X146.47Y-117.124
X147.0Y-66.44
X147.0Y-120.94
X147.229Y-98.654
X147.7Y-105.7
X147.82Y-90.1
X148.0Y-137.9
X148.05Y-133.65
X148.27Y-120.94
X148.3Y-58.9
X148.53Y-95.19
X149.33Y-122.23
X149.54Y-63.62
X149.985Y-133.785
X150.1Y-92.1
X150.184Y-120.959
X150.28Y-100.6
X150.45Y-67.38
X150.58Y-137.9
X150.59Y-77.54
X150.8Y-58.9
X151.46Y-120.96
X151.47Y-98.02
X151.634Y-102.519
X152.009Y-98.62
X152.09Y-66.44
X152.483Y-102.52
X152.62Y-94.38
X152.883Y-98.67
X152.95Y-130.0
X153.02Y-125.42
X153.16Y-137.9
X153.25Y-103.15
X153.4Y-58.9
X153.45Y-121.17
X154.12Y-130.227
X154.17Y-133.97
X154.183Y-100.58
X154.23Y-135.57
X154.63Y-63.6
X155.74Y-137.88
X155.85Y-112.2
X155.9Y-72.45
X155.9Y-73.5
X155.9Y-80.83
X155.9Y-81.88
X156.0Y-58.9
X156.28Y-89.24
X156.62Y-84.55
X156.7Y-104.6
X156.83Y-72.06
X157.04Y-118.31
X157.56Y-65.68
X157.73Y-129.67
X158.09Y-124.86
X158.29Y-127.46
X158.32Y-58.9
X158.32Y-137.95
X158.72Y-115.71
X158.965Y-84.985
X160.64Y-58.9
X160.9Y-137.9
X161.04Y-133.62
X161.4Y-122.96
X161.7Y-140.4
X161.7Y-143.6
X162.96Y-58.9
X162.987Y-138.5
X163.0Y-127.3
X163.07Y-121.99
X163.1Y-141.02
X163.7Y-74.5
X164.3Y-67.3
X164.3Y-124.0
X164.71Y-92.52
X164.71Y-109.861
X165.28Y-58.9
X165.871Y-137.471
X165.96Y-134.67
X166.27Y-80.98
X166.47Y-125.46
X166.6Y-70.972
X166.6Y-143.6
X166.7Y-131.14
X167.35Y-119.2
X167.35Y-121.9
X167.6Y-58.9
X167.6Y-70.972
X167.6Y-73.522
X168.55Y-70.98
X168.71Y-136.51
X169.3Y-125.7
X169.84Y-115.522
X169.85Y-92.51
X169.9Y-100.46
X169.987Y-138.5
X170.05Y-67.222
X170.1Y-141.02
X170.37Y-76.44
X171.1Y-135.5
X171.2Y-58.9
X171.96Y-122.94
X172.16Y-128.54
X172.24Y-131.31
X172.282Y-137.464
X172.4Y-77.4
X173.3Y-77.7
X173.6Y-143.6
X174.1Y-77.4
X174.85Y-137.74
X174.95Y-127.48
X175.15Y-58.947
X176.5Y-76.9
X177.044Y-138.444
X177.1Y-141.02
X177.2Y-72.1
X178.43Y-136.08
X179.0Y-126.421
X179.1Y-58.9
X179.1Y-62.0
X179.1Y-66.295
X179.1Y-70.589
X179.1Y-74.884
X179.1Y-79.179
X179.1Y-83.474
X179.1Y-87.8
X179.1Y-92.063
X179.1Y-96.358
X179.1Y-100.653
X179.1Y-104.947
X179.1Y-109.242
X179.1Y-113.537
X179.1Y-117.832
X179.1Y-122.126
X179.1Y-135.011
X179.1Y-139.305
X179.1Y-143.6
X179.11Y-130.716
T3
X136.9Y-110.625
X136.9Y-113.165
X150.815Y-107.322
X153.355Y-107.322
T4
X124.4Y-60.49
X124.4Y-132.71
X169.6Y-60.48
X169.6Y-132.7
T5
X140.33Y-100.49
T6
X148.5Y-129.13
T2
G00X149.975Y-98.46
M15
G01X149.725Y-98.46
M16
G05
G00X149.975Y-102.76
M15
G01X149.725Y-102.76
M16
G05
G00X154.775Y-98.46
M15
G01X154.525Y-98.46
M16
G05
G00X154.775Y-102.76
M15
G01X154.525Y-102.76
M16
G05
T3
G00X138.23Y-105.79
M15
G01X140.03Y-105.79
M16
G05
G00X141.93Y-103.29
M15
G01X143.73Y-103.29
M16
G05
G00X144.93Y-98.24
M15
G01X144.93Y-99.74
M16
G05
M30
