%TF.GenerationSoftware,KiCad,Pcbnew,9.0.5*%
%TF.CreationDate,2026-01-12T16:44:52+01:00*%
%TF.ProjectId,ZumoComSystem,5a756d6f-436f-46d5-9379-7374656d2e6b,V1.2*%
%TF.SameCoordinates,Original*%
%TF.FileFunction,OtherDrawing,Comment*%
%FSLAX45Y45*%
G04 Gerber Fmt 4.5, Leading zero omitted, Abs format (unit mm)*
G04 Created by KiCad (PCBNEW 9.0.5) date 2026-01-12 16:44:52*
%MOMM*%
%LPD*%
G01*
G04 APERTURE LIST*
%ADD10C,0.120000*%
%ADD11C,0.150000*%
G04 APERTURE END LIST*
D10*
X15457500Y-8872500D02*
X15457500Y-8302500D01*
D11*
X16982500Y-10395000D02*
X16982500Y-10322500D01*
X12417500Y-10395000D02*
X12417500Y-10375000D01*
X12417500Y-10375000D02*
X12417500Y-10415000D01*
X11400000Y-10395000D02*
X12417500Y-10395000D01*
D10*
X18000000Y-11920000D02*
X17110000Y-11920000D01*
X11400000Y-11920000D02*
X12290000Y-11920000D01*
D11*
X16982500Y-10322500D02*
X16982500Y-10472500D01*
D10*
X17110000Y-11920000D02*
X17110000Y-5800000D01*
X12290000Y-11920000D02*
X12290000Y-5800000D01*
X16856000Y-8873000D02*
X15459000Y-8873000D01*
D11*
X18000000Y-10395000D02*
X16982500Y-10395000D01*
X14285714Y-4807982D02*
X14266667Y-4807982D01*
X14266667Y-4807982D02*
X14257143Y-4812744D01*
X14257143Y-4812744D02*
X14252381Y-4817506D01*
X14252381Y-4817506D02*
X14242857Y-4831791D01*
X14242857Y-4831791D02*
X14238095Y-4850839D01*
X14238095Y-4850839D02*
X14238095Y-4888934D01*
X14238095Y-4888934D02*
X14242857Y-4898458D01*
X14242857Y-4898458D02*
X14247619Y-4903220D01*
X14247619Y-4903220D02*
X14257143Y-4907982D01*
X14257143Y-4907982D02*
X14276190Y-4907982D01*
X14276190Y-4907982D02*
X14285714Y-4903220D01*
X14285714Y-4903220D02*
X14290476Y-4898458D01*
X14290476Y-4898458D02*
X14295238Y-4888934D01*
X14295238Y-4888934D02*
X14295238Y-4865125D01*
X14295238Y-4865125D02*
X14290476Y-4855601D01*
X14290476Y-4855601D02*
X14285714Y-4850839D01*
X14285714Y-4850839D02*
X14276190Y-4846077D01*
X14276190Y-4846077D02*
X14257143Y-4846077D01*
X14257143Y-4846077D02*
X14247619Y-4850839D01*
X14247619Y-4850839D02*
X14242857Y-4855601D01*
X14242857Y-4855601D02*
X14238095Y-4865125D01*
X14380952Y-4807982D02*
X14361905Y-4807982D01*
X14361905Y-4807982D02*
X14352381Y-4812744D01*
X14352381Y-4812744D02*
X14347619Y-4817506D01*
X14347619Y-4817506D02*
X14338095Y-4831791D01*
X14338095Y-4831791D02*
X14333333Y-4850839D01*
X14333333Y-4850839D02*
X14333333Y-4888934D01*
X14333333Y-4888934D02*
X14338095Y-4898458D01*
X14338095Y-4898458D02*
X14342857Y-4903220D01*
X14342857Y-4903220D02*
X14352381Y-4907982D01*
X14352381Y-4907982D02*
X14371429Y-4907982D01*
X14371429Y-4907982D02*
X14380952Y-4903220D01*
X14380952Y-4903220D02*
X14385714Y-4898458D01*
X14385714Y-4898458D02*
X14390476Y-4888934D01*
X14390476Y-4888934D02*
X14390476Y-4865125D01*
X14390476Y-4865125D02*
X14385714Y-4855601D01*
X14385714Y-4855601D02*
X14380952Y-4850839D01*
X14380952Y-4850839D02*
X14371429Y-4846077D01*
X14371429Y-4846077D02*
X14352381Y-4846077D01*
X14352381Y-4846077D02*
X14342857Y-4850839D01*
X14342857Y-4850839D02*
X14338095Y-4855601D01*
X14338095Y-4855601D02*
X14333333Y-4865125D01*
X14433333Y-4898458D02*
X14438095Y-4903220D01*
X14438095Y-4903220D02*
X14433333Y-4907982D01*
X14433333Y-4907982D02*
X14428571Y-4903220D01*
X14428571Y-4903220D02*
X14433333Y-4898458D01*
X14433333Y-4898458D02*
X14433333Y-4907982D01*
X14500000Y-4807982D02*
X14509524Y-4807982D01*
X14509524Y-4807982D02*
X14519048Y-4812744D01*
X14519048Y-4812744D02*
X14523809Y-4817506D01*
X14523809Y-4817506D02*
X14528571Y-4827030D01*
X14528571Y-4827030D02*
X14533333Y-4846077D01*
X14533333Y-4846077D02*
X14533333Y-4869887D01*
X14533333Y-4869887D02*
X14528571Y-4888934D01*
X14528571Y-4888934D02*
X14523809Y-4898458D01*
X14523809Y-4898458D02*
X14519048Y-4903220D01*
X14519048Y-4903220D02*
X14509524Y-4907982D01*
X14509524Y-4907982D02*
X14500000Y-4907982D01*
X14500000Y-4907982D02*
X14490476Y-4903220D01*
X14490476Y-4903220D02*
X14485714Y-4898458D01*
X14485714Y-4898458D02*
X14480952Y-4888934D01*
X14480952Y-4888934D02*
X14476190Y-4869887D01*
X14476190Y-4869887D02*
X14476190Y-4846077D01*
X14476190Y-4846077D02*
X14480952Y-4827030D01*
X14480952Y-4827030D02*
X14485714Y-4817506D01*
X14485714Y-4817506D02*
X14490476Y-4812744D01*
X14490476Y-4812744D02*
X14500000Y-4807982D01*
X14595238Y-4807982D02*
X14604762Y-4807982D01*
X14604762Y-4807982D02*
X14614286Y-4812744D01*
X14614286Y-4812744D02*
X14619048Y-4817506D01*
X14619048Y-4817506D02*
X14623809Y-4827030D01*
X14623809Y-4827030D02*
X14628571Y-4846077D01*
X14628571Y-4846077D02*
X14628571Y-4869887D01*
X14628571Y-4869887D02*
X14623809Y-4888934D01*
X14623809Y-4888934D02*
X14619048Y-4898458D01*
X14619048Y-4898458D02*
X14614286Y-4903220D01*
X14614286Y-4903220D02*
X14604762Y-4907982D01*
X14604762Y-4907982D02*
X14595238Y-4907982D01*
X14595238Y-4907982D02*
X14585714Y-4903220D01*
X14585714Y-4903220D02*
X14580952Y-4898458D01*
X14580952Y-4898458D02*
X14576190Y-4888934D01*
X14576190Y-4888934D02*
X14571429Y-4869887D01*
X14571429Y-4869887D02*
X14571429Y-4846077D01*
X14571429Y-4846077D02*
X14576190Y-4827030D01*
X14576190Y-4827030D02*
X14580952Y-4817506D01*
X14580952Y-4817506D02*
X14585714Y-4812744D01*
X14585714Y-4812744D02*
X14595238Y-4807982D01*
X14690476Y-4807982D02*
X14700000Y-4807982D01*
X14700000Y-4807982D02*
X14709524Y-4812744D01*
X14709524Y-4812744D02*
X14714286Y-4817506D01*
X14714286Y-4817506D02*
X14719048Y-4827030D01*
X14719048Y-4827030D02*
X14723809Y-4846077D01*
X14723809Y-4846077D02*
X14723809Y-4869887D01*
X14723809Y-4869887D02*
X14719048Y-4888934D01*
X14719048Y-4888934D02*
X14714286Y-4898458D01*
X14714286Y-4898458D02*
X14709524Y-4903220D01*
X14709524Y-4903220D02*
X14700000Y-4907982D01*
X14700000Y-4907982D02*
X14690476Y-4907982D01*
X14690476Y-4907982D02*
X14680952Y-4903220D01*
X14680952Y-4903220D02*
X14676190Y-4898458D01*
X14676190Y-4898458D02*
X14671429Y-4888934D01*
X14671429Y-4888934D02*
X14666667Y-4869887D01*
X14666667Y-4869887D02*
X14666667Y-4846077D01*
X14666667Y-4846077D02*
X14671429Y-4827030D01*
X14671429Y-4827030D02*
X14676190Y-4817506D01*
X14676190Y-4817506D02*
X14680952Y-4812744D01*
X14680952Y-4812744D02*
X14690476Y-4807982D01*
X14785714Y-4807982D02*
X14795238Y-4807982D01*
X14795238Y-4807982D02*
X14804762Y-4812744D01*
X14804762Y-4812744D02*
X14809524Y-4817506D01*
X14809524Y-4817506D02*
X14814286Y-4827030D01*
X14814286Y-4827030D02*
X14819048Y-4846077D01*
X14819048Y-4846077D02*
X14819048Y-4869887D01*
X14819048Y-4869887D02*
X14814286Y-4888934D01*
X14814286Y-4888934D02*
X14809524Y-4898458D01*
X14809524Y-4898458D02*
X14804762Y-4903220D01*
X14804762Y-4903220D02*
X14795238Y-4907982D01*
X14795238Y-4907982D02*
X14785714Y-4907982D01*
X14785714Y-4907982D02*
X14776190Y-4903220D01*
X14776190Y-4903220D02*
X14771429Y-4898458D01*
X14771429Y-4898458D02*
X14766667Y-4888934D01*
X14766667Y-4888934D02*
X14761905Y-4869887D01*
X14761905Y-4869887D02*
X14761905Y-4846077D01*
X14761905Y-4846077D02*
X14766667Y-4827030D01*
X14766667Y-4827030D02*
X14771429Y-4817506D01*
X14771429Y-4817506D02*
X14776190Y-4812744D01*
X14776190Y-4812744D02*
X14785714Y-4807982D01*
X14938095Y-4907982D02*
X14938095Y-4841315D01*
X14938095Y-4850839D02*
X14942857Y-4846077D01*
X14942857Y-4846077D02*
X14952381Y-4841315D01*
X14952381Y-4841315D02*
X14966667Y-4841315D01*
X14966667Y-4841315D02*
X14976190Y-4846077D01*
X14976190Y-4846077D02*
X14980952Y-4855601D01*
X14980952Y-4855601D02*
X14980952Y-4907982D01*
X14980952Y-4855601D02*
X14985714Y-4846077D01*
X14985714Y-4846077D02*
X14995238Y-4841315D01*
X14995238Y-4841315D02*
X15009524Y-4841315D01*
X15009524Y-4841315D02*
X15019048Y-4846077D01*
X15019048Y-4846077D02*
X15023810Y-4855601D01*
X15023810Y-4855601D02*
X15023810Y-4907982D01*
X15071429Y-4907982D02*
X15071429Y-4841315D01*
X15071429Y-4850839D02*
X15076190Y-4846077D01*
X15076190Y-4846077D02*
X15085714Y-4841315D01*
X15085714Y-4841315D02*
X15100000Y-4841315D01*
X15100000Y-4841315D02*
X15109524Y-4846077D01*
X15109524Y-4846077D02*
X15114286Y-4855601D01*
X15114286Y-4855601D02*
X15114286Y-4907982D01*
X15114286Y-4855601D02*
X15119048Y-4846077D01*
X15119048Y-4846077D02*
X15128571Y-4841315D01*
X15128571Y-4841315D02*
X15142857Y-4841315D01*
X15142857Y-4841315D02*
X15152381Y-4846077D01*
X15152381Y-4846077D02*
X15157143Y-4855601D01*
X15157143Y-4855601D02*
X15157143Y-4907982D01*
D10*
X18000000Y-5800000D02*
X18000000Y-4918858D01*
X11400000Y-5800000D02*
X11400000Y-4918858D01*
X18000000Y-4977500D02*
X11400000Y-4977500D01*
X18000000Y-4977500D02*
X17887350Y-5036142D01*
X18000000Y-4977500D02*
X17887350Y-4918858D01*
X11400000Y-4977500D02*
X11512650Y-4918858D01*
X11400000Y-4977500D02*
X11512650Y-5036142D01*
D11*
X10838339Y-10567857D02*
X10833577Y-10577381D01*
X10833577Y-10577381D02*
X10828815Y-10582143D01*
X10828815Y-10582143D02*
X10819291Y-10586905D01*
X10819291Y-10586905D02*
X10814530Y-10586905D01*
X10814530Y-10586905D02*
X10805006Y-10582143D01*
X10805006Y-10582143D02*
X10800244Y-10577381D01*
X10800244Y-10577381D02*
X10795482Y-10567857D01*
X10795482Y-10567857D02*
X10795482Y-10548809D01*
X10795482Y-10548809D02*
X10800244Y-10539286D01*
X10800244Y-10539286D02*
X10805006Y-10534524D01*
X10805006Y-10534524D02*
X10814530Y-10529762D01*
X10814530Y-10529762D02*
X10819291Y-10529762D01*
X10819291Y-10529762D02*
X10828815Y-10534524D01*
X10828815Y-10534524D02*
X10833577Y-10539286D01*
X10833577Y-10539286D02*
X10838339Y-10548809D01*
X10838339Y-10548809D02*
X10838339Y-10567857D01*
X10838339Y-10567857D02*
X10843101Y-10577381D01*
X10843101Y-10577381D02*
X10847863Y-10582143D01*
X10847863Y-10582143D02*
X10857387Y-10586905D01*
X10857387Y-10586905D02*
X10876434Y-10586905D01*
X10876434Y-10586905D02*
X10885958Y-10582143D01*
X10885958Y-10582143D02*
X10890720Y-10577381D01*
X10890720Y-10577381D02*
X10895482Y-10567857D01*
X10895482Y-10567857D02*
X10895482Y-10548809D01*
X10895482Y-10548809D02*
X10890720Y-10539286D01*
X10890720Y-10539286D02*
X10885958Y-10534524D01*
X10885958Y-10534524D02*
X10876434Y-10529762D01*
X10876434Y-10529762D02*
X10857387Y-10529762D01*
X10857387Y-10529762D02*
X10847863Y-10534524D01*
X10847863Y-10534524D02*
X10843101Y-10539286D01*
X10843101Y-10539286D02*
X10838339Y-10548809D01*
X10795482Y-10444048D02*
X10795482Y-10463095D01*
X10795482Y-10463095D02*
X10800244Y-10472619D01*
X10800244Y-10472619D02*
X10805006Y-10477381D01*
X10805006Y-10477381D02*
X10819291Y-10486905D01*
X10819291Y-10486905D02*
X10838339Y-10491667D01*
X10838339Y-10491667D02*
X10876434Y-10491667D01*
X10876434Y-10491667D02*
X10885958Y-10486905D01*
X10885958Y-10486905D02*
X10890720Y-10482143D01*
X10890720Y-10482143D02*
X10895482Y-10472619D01*
X10895482Y-10472619D02*
X10895482Y-10453571D01*
X10895482Y-10453571D02*
X10890720Y-10444048D01*
X10890720Y-10444048D02*
X10885958Y-10439286D01*
X10885958Y-10439286D02*
X10876434Y-10434524D01*
X10876434Y-10434524D02*
X10852625Y-10434524D01*
X10852625Y-10434524D02*
X10843101Y-10439286D01*
X10843101Y-10439286D02*
X10838339Y-10444048D01*
X10838339Y-10444048D02*
X10833577Y-10453571D01*
X10833577Y-10453571D02*
X10833577Y-10472619D01*
X10833577Y-10472619D02*
X10838339Y-10482143D01*
X10838339Y-10482143D02*
X10843101Y-10486905D01*
X10843101Y-10486905D02*
X10852625Y-10491667D01*
X10885958Y-10391667D02*
X10890720Y-10386905D01*
X10890720Y-10386905D02*
X10895482Y-10391667D01*
X10895482Y-10391667D02*
X10890720Y-10396428D01*
X10890720Y-10396428D02*
X10885958Y-10391667D01*
X10885958Y-10391667D02*
X10895482Y-10391667D01*
X10795482Y-10296429D02*
X10795482Y-10344048D01*
X10795482Y-10344048D02*
X10843101Y-10348809D01*
X10843101Y-10348809D02*
X10838339Y-10344048D01*
X10838339Y-10344048D02*
X10833577Y-10334524D01*
X10833577Y-10334524D02*
X10833577Y-10310714D01*
X10833577Y-10310714D02*
X10838339Y-10301190D01*
X10838339Y-10301190D02*
X10843101Y-10296429D01*
X10843101Y-10296429D02*
X10852625Y-10291667D01*
X10852625Y-10291667D02*
X10876434Y-10291667D01*
X10876434Y-10291667D02*
X10885958Y-10296429D01*
X10885958Y-10296429D02*
X10890720Y-10301190D01*
X10890720Y-10301190D02*
X10895482Y-10310714D01*
X10895482Y-10310714D02*
X10895482Y-10334524D01*
X10895482Y-10334524D02*
X10890720Y-10344048D01*
X10890720Y-10344048D02*
X10885958Y-10348809D01*
X10795482Y-10229762D02*
X10795482Y-10220238D01*
X10795482Y-10220238D02*
X10800244Y-10210714D01*
X10800244Y-10210714D02*
X10805006Y-10205952D01*
X10805006Y-10205952D02*
X10814530Y-10201190D01*
X10814530Y-10201190D02*
X10833577Y-10196429D01*
X10833577Y-10196429D02*
X10857387Y-10196429D01*
X10857387Y-10196429D02*
X10876434Y-10201190D01*
X10876434Y-10201190D02*
X10885958Y-10205952D01*
X10885958Y-10205952D02*
X10890720Y-10210714D01*
X10890720Y-10210714D02*
X10895482Y-10220238D01*
X10895482Y-10220238D02*
X10895482Y-10229762D01*
X10895482Y-10229762D02*
X10890720Y-10239286D01*
X10890720Y-10239286D02*
X10885958Y-10244048D01*
X10885958Y-10244048D02*
X10876434Y-10248809D01*
X10876434Y-10248809D02*
X10857387Y-10253571D01*
X10857387Y-10253571D02*
X10833577Y-10253571D01*
X10833577Y-10253571D02*
X10814530Y-10248809D01*
X10814530Y-10248809D02*
X10805006Y-10244048D01*
X10805006Y-10244048D02*
X10800244Y-10239286D01*
X10800244Y-10239286D02*
X10795482Y-10229762D01*
X10795482Y-10134524D02*
X10795482Y-10125000D01*
X10795482Y-10125000D02*
X10800244Y-10115476D01*
X10800244Y-10115476D02*
X10805006Y-10110714D01*
X10805006Y-10110714D02*
X10814530Y-10105952D01*
X10814530Y-10105952D02*
X10833577Y-10101190D01*
X10833577Y-10101190D02*
X10857387Y-10101190D01*
X10857387Y-10101190D02*
X10876434Y-10105952D01*
X10876434Y-10105952D02*
X10885958Y-10110714D01*
X10885958Y-10110714D02*
X10890720Y-10115476D01*
X10890720Y-10115476D02*
X10895482Y-10125000D01*
X10895482Y-10125000D02*
X10895482Y-10134524D01*
X10895482Y-10134524D02*
X10890720Y-10144048D01*
X10890720Y-10144048D02*
X10885958Y-10148809D01*
X10885958Y-10148809D02*
X10876434Y-10153571D01*
X10876434Y-10153571D02*
X10857387Y-10158333D01*
X10857387Y-10158333D02*
X10833577Y-10158333D01*
X10833577Y-10158333D02*
X10814530Y-10153571D01*
X10814530Y-10153571D02*
X10805006Y-10148809D01*
X10805006Y-10148809D02*
X10800244Y-10144048D01*
X10800244Y-10144048D02*
X10795482Y-10134524D01*
X10795482Y-10039286D02*
X10795482Y-10029762D01*
X10795482Y-10029762D02*
X10800244Y-10020238D01*
X10800244Y-10020238D02*
X10805006Y-10015476D01*
X10805006Y-10015476D02*
X10814530Y-10010714D01*
X10814530Y-10010714D02*
X10833577Y-10005952D01*
X10833577Y-10005952D02*
X10857387Y-10005952D01*
X10857387Y-10005952D02*
X10876434Y-10010714D01*
X10876434Y-10010714D02*
X10885958Y-10015476D01*
X10885958Y-10015476D02*
X10890720Y-10020238D01*
X10890720Y-10020238D02*
X10895482Y-10029762D01*
X10895482Y-10029762D02*
X10895482Y-10039286D01*
X10895482Y-10039286D02*
X10890720Y-10048809D01*
X10890720Y-10048809D02*
X10885958Y-10053571D01*
X10885958Y-10053571D02*
X10876434Y-10058333D01*
X10876434Y-10058333D02*
X10857387Y-10063095D01*
X10857387Y-10063095D02*
X10833577Y-10063095D01*
X10833577Y-10063095D02*
X10814530Y-10058333D01*
X10814530Y-10058333D02*
X10805006Y-10053571D01*
X10805006Y-10053571D02*
X10800244Y-10048809D01*
X10800244Y-10048809D02*
X10795482Y-10039286D01*
X10895482Y-9886905D02*
X10828815Y-9886905D01*
X10838339Y-9886905D02*
X10833577Y-9882143D01*
X10833577Y-9882143D02*
X10828815Y-9872619D01*
X10828815Y-9872619D02*
X10828815Y-9858333D01*
X10828815Y-9858333D02*
X10833577Y-9848809D01*
X10833577Y-9848809D02*
X10843101Y-9844048D01*
X10843101Y-9844048D02*
X10895482Y-9844048D01*
X10843101Y-9844048D02*
X10833577Y-9839286D01*
X10833577Y-9839286D02*
X10828815Y-9829762D01*
X10828815Y-9829762D02*
X10828815Y-9815476D01*
X10828815Y-9815476D02*
X10833577Y-9805952D01*
X10833577Y-9805952D02*
X10843101Y-9801190D01*
X10843101Y-9801190D02*
X10895482Y-9801190D01*
X10895482Y-9753571D02*
X10828815Y-9753571D01*
X10838339Y-9753571D02*
X10833577Y-9748809D01*
X10833577Y-9748809D02*
X10828815Y-9739286D01*
X10828815Y-9739286D02*
X10828815Y-9725000D01*
X10828815Y-9725000D02*
X10833577Y-9715476D01*
X10833577Y-9715476D02*
X10843101Y-9710714D01*
X10843101Y-9710714D02*
X10895482Y-9710714D01*
X10843101Y-9710714D02*
X10833577Y-9705952D01*
X10833577Y-9705952D02*
X10828815Y-9696429D01*
X10828815Y-9696429D02*
X10828815Y-9682143D01*
X10828815Y-9682143D02*
X10833577Y-9672619D01*
X10833577Y-9672619D02*
X10843101Y-9667857D01*
X10843101Y-9667857D02*
X10895482Y-9667857D01*
X11500000Y-5800000D02*
X10906358Y-5800000D01*
X11500000Y-14450000D02*
X10906358Y-14450000D01*
X10965000Y-5800000D02*
X10965000Y-14450000D01*
X10965000Y-5800000D02*
X11023642Y-5912650D01*
X10965000Y-5800000D02*
X10906358Y-5912650D01*
X10965000Y-14450000D02*
X10906358Y-14337350D01*
X10965000Y-14450000D02*
X11023642Y-14337350D01*
X18273815Y-12836786D02*
X18340482Y-12836786D01*
X18235720Y-12860595D02*
X18307149Y-12884405D01*
X18307149Y-12884405D02*
X18307149Y-12822500D01*
X18240482Y-12765357D02*
X18240482Y-12755833D01*
X18240482Y-12755833D02*
X18245244Y-12746309D01*
X18245244Y-12746309D02*
X18250006Y-12741547D01*
X18250006Y-12741547D02*
X18259530Y-12736786D01*
X18259530Y-12736786D02*
X18278577Y-12732024D01*
X18278577Y-12732024D02*
X18302387Y-12732024D01*
X18302387Y-12732024D02*
X18321434Y-12736786D01*
X18321434Y-12736786D02*
X18330958Y-12741547D01*
X18330958Y-12741547D02*
X18335720Y-12746309D01*
X18335720Y-12746309D02*
X18340482Y-12755833D01*
X18340482Y-12755833D02*
X18340482Y-12765357D01*
X18340482Y-12765357D02*
X18335720Y-12774881D01*
X18335720Y-12774881D02*
X18330958Y-12779643D01*
X18330958Y-12779643D02*
X18321434Y-12784405D01*
X18321434Y-12784405D02*
X18302387Y-12789166D01*
X18302387Y-12789166D02*
X18278577Y-12789166D01*
X18278577Y-12789166D02*
X18259530Y-12784405D01*
X18259530Y-12784405D02*
X18250006Y-12779643D01*
X18250006Y-12779643D02*
X18245244Y-12774881D01*
X18245244Y-12774881D02*
X18240482Y-12765357D01*
X18330958Y-12689166D02*
X18335720Y-12684405D01*
X18335720Y-12684405D02*
X18340482Y-12689166D01*
X18340482Y-12689166D02*
X18335720Y-12693928D01*
X18335720Y-12693928D02*
X18330958Y-12689166D01*
X18330958Y-12689166D02*
X18340482Y-12689166D01*
X18240482Y-12593928D02*
X18240482Y-12641547D01*
X18240482Y-12641547D02*
X18288101Y-12646309D01*
X18288101Y-12646309D02*
X18283339Y-12641547D01*
X18283339Y-12641547D02*
X18278577Y-12632024D01*
X18278577Y-12632024D02*
X18278577Y-12608214D01*
X18278577Y-12608214D02*
X18283339Y-12598690D01*
X18283339Y-12598690D02*
X18288101Y-12593928D01*
X18288101Y-12593928D02*
X18297625Y-12589167D01*
X18297625Y-12589167D02*
X18321434Y-12589167D01*
X18321434Y-12589167D02*
X18330958Y-12593928D01*
X18330958Y-12593928D02*
X18335720Y-12598690D01*
X18335720Y-12598690D02*
X18340482Y-12608214D01*
X18340482Y-12608214D02*
X18340482Y-12632024D01*
X18340482Y-12632024D02*
X18335720Y-12641547D01*
X18335720Y-12641547D02*
X18330958Y-12646309D01*
X18240482Y-12498690D02*
X18240482Y-12546309D01*
X18240482Y-12546309D02*
X18288101Y-12551071D01*
X18288101Y-12551071D02*
X18283339Y-12546309D01*
X18283339Y-12546309D02*
X18278577Y-12536786D01*
X18278577Y-12536786D02*
X18278577Y-12512976D01*
X18278577Y-12512976D02*
X18283339Y-12503452D01*
X18283339Y-12503452D02*
X18288101Y-12498690D01*
X18288101Y-12498690D02*
X18297625Y-12493928D01*
X18297625Y-12493928D02*
X18321434Y-12493928D01*
X18321434Y-12493928D02*
X18330958Y-12498690D01*
X18330958Y-12498690D02*
X18335720Y-12503452D01*
X18335720Y-12503452D02*
X18340482Y-12512976D01*
X18340482Y-12512976D02*
X18340482Y-12536786D01*
X18340482Y-12536786D02*
X18335720Y-12546309D01*
X18335720Y-12546309D02*
X18330958Y-12551071D01*
X18240482Y-12432024D02*
X18240482Y-12422500D01*
X18240482Y-12422500D02*
X18245244Y-12412976D01*
X18245244Y-12412976D02*
X18250006Y-12408214D01*
X18250006Y-12408214D02*
X18259530Y-12403452D01*
X18259530Y-12403452D02*
X18278577Y-12398690D01*
X18278577Y-12398690D02*
X18302387Y-12398690D01*
X18302387Y-12398690D02*
X18321434Y-12403452D01*
X18321434Y-12403452D02*
X18330958Y-12408214D01*
X18330958Y-12408214D02*
X18335720Y-12412976D01*
X18335720Y-12412976D02*
X18340482Y-12422500D01*
X18340482Y-12422500D02*
X18340482Y-12432024D01*
X18340482Y-12432024D02*
X18335720Y-12441547D01*
X18335720Y-12441547D02*
X18330958Y-12446309D01*
X18330958Y-12446309D02*
X18321434Y-12451071D01*
X18321434Y-12451071D02*
X18302387Y-12455833D01*
X18302387Y-12455833D02*
X18278577Y-12455833D01*
X18278577Y-12455833D02*
X18259530Y-12451071D01*
X18259530Y-12451071D02*
X18250006Y-12446309D01*
X18250006Y-12446309D02*
X18245244Y-12441547D01*
X18245244Y-12441547D02*
X18240482Y-12432024D01*
X18240482Y-12336786D02*
X18240482Y-12327262D01*
X18240482Y-12327262D02*
X18245244Y-12317738D01*
X18245244Y-12317738D02*
X18250006Y-12312976D01*
X18250006Y-12312976D02*
X18259530Y-12308214D01*
X18259530Y-12308214D02*
X18278577Y-12303452D01*
X18278577Y-12303452D02*
X18302387Y-12303452D01*
X18302387Y-12303452D02*
X18321434Y-12308214D01*
X18321434Y-12308214D02*
X18330958Y-12312976D01*
X18330958Y-12312976D02*
X18335720Y-12317738D01*
X18335720Y-12317738D02*
X18340482Y-12327262D01*
X18340482Y-12327262D02*
X18340482Y-12336786D01*
X18340482Y-12336786D02*
X18335720Y-12346309D01*
X18335720Y-12346309D02*
X18330958Y-12351071D01*
X18330958Y-12351071D02*
X18321434Y-12355833D01*
X18321434Y-12355833D02*
X18302387Y-12360595D01*
X18302387Y-12360595D02*
X18278577Y-12360595D01*
X18278577Y-12360595D02*
X18259530Y-12355833D01*
X18259530Y-12355833D02*
X18250006Y-12351071D01*
X18250006Y-12351071D02*
X18245244Y-12346309D01*
X18245244Y-12346309D02*
X18240482Y-12336786D01*
X18340482Y-12184405D02*
X18273815Y-12184405D01*
X18283339Y-12184405D02*
X18278577Y-12179643D01*
X18278577Y-12179643D02*
X18273815Y-12170119D01*
X18273815Y-12170119D02*
X18273815Y-12155833D01*
X18273815Y-12155833D02*
X18278577Y-12146309D01*
X18278577Y-12146309D02*
X18288101Y-12141547D01*
X18288101Y-12141547D02*
X18340482Y-12141547D01*
X18288101Y-12141547D02*
X18278577Y-12136786D01*
X18278577Y-12136786D02*
X18273815Y-12127262D01*
X18273815Y-12127262D02*
X18273815Y-12112976D01*
X18273815Y-12112976D02*
X18278577Y-12103452D01*
X18278577Y-12103452D02*
X18288101Y-12098690D01*
X18288101Y-12098690D02*
X18340482Y-12098690D01*
X18340482Y-12051071D02*
X18273815Y-12051071D01*
X18283339Y-12051071D02*
X18278577Y-12046309D01*
X18278577Y-12046309D02*
X18273815Y-12036786D01*
X18273815Y-12036786D02*
X18273815Y-12022500D01*
X18273815Y-12022500D02*
X18278577Y-12012976D01*
X18278577Y-12012976D02*
X18288101Y-12008214D01*
X18288101Y-12008214D02*
X18340482Y-12008214D01*
X18288101Y-12008214D02*
X18278577Y-12003452D01*
X18278577Y-12003452D02*
X18273815Y-11993928D01*
X18273815Y-11993928D02*
X18273815Y-11979643D01*
X18273815Y-11979643D02*
X18278577Y-11970119D01*
X18278577Y-11970119D02*
X18288101Y-11965357D01*
X18288101Y-11965357D02*
X18340482Y-11965357D01*
X18000000Y-14450000D02*
X18468642Y-14450000D01*
X18000000Y-10395000D02*
X18468642Y-10395000D01*
X18410000Y-14450000D02*
X18410000Y-10395000D01*
X18410000Y-14450000D02*
X18351358Y-14337350D01*
X18410000Y-14450000D02*
X18468642Y-14337350D01*
X18410000Y-10395000D02*
X18468642Y-10507650D01*
X18410000Y-10395000D02*
X18351358Y-10507650D01*
X12583333Y-5037982D02*
X12645238Y-5037982D01*
X12645238Y-5037982D02*
X12611905Y-5076077D01*
X12611905Y-5076077D02*
X12626190Y-5076077D01*
X12626190Y-5076077D02*
X12635714Y-5080839D01*
X12635714Y-5080839D02*
X12640476Y-5085601D01*
X12640476Y-5085601D02*
X12645238Y-5095125D01*
X12645238Y-5095125D02*
X12645238Y-5118934D01*
X12645238Y-5118934D02*
X12640476Y-5128458D01*
X12640476Y-5128458D02*
X12635714Y-5133220D01*
X12635714Y-5133220D02*
X12626190Y-5137982D01*
X12626190Y-5137982D02*
X12597619Y-5137982D01*
X12597619Y-5137982D02*
X12588095Y-5133220D01*
X12588095Y-5133220D02*
X12583333Y-5128458D01*
X12678571Y-5037982D02*
X12740476Y-5037982D01*
X12740476Y-5037982D02*
X12707143Y-5076077D01*
X12707143Y-5076077D02*
X12721429Y-5076077D01*
X12721429Y-5076077D02*
X12730952Y-5080839D01*
X12730952Y-5080839D02*
X12735714Y-5085601D01*
X12735714Y-5085601D02*
X12740476Y-5095125D01*
X12740476Y-5095125D02*
X12740476Y-5118934D01*
X12740476Y-5118934D02*
X12735714Y-5128458D01*
X12735714Y-5128458D02*
X12730952Y-5133220D01*
X12730952Y-5133220D02*
X12721429Y-5137982D01*
X12721429Y-5137982D02*
X12692857Y-5137982D01*
X12692857Y-5137982D02*
X12683333Y-5133220D01*
X12683333Y-5133220D02*
X12678571Y-5128458D01*
X12783333Y-5128458D02*
X12788095Y-5133220D01*
X12788095Y-5133220D02*
X12783333Y-5137982D01*
X12783333Y-5137982D02*
X12778571Y-5133220D01*
X12778571Y-5133220D02*
X12783333Y-5128458D01*
X12783333Y-5128458D02*
X12783333Y-5137982D01*
X12850000Y-5037982D02*
X12859524Y-5037982D01*
X12859524Y-5037982D02*
X12869048Y-5042744D01*
X12869048Y-5042744D02*
X12873809Y-5047506D01*
X12873809Y-5047506D02*
X12878571Y-5057030D01*
X12878571Y-5057030D02*
X12883333Y-5076077D01*
X12883333Y-5076077D02*
X12883333Y-5099887D01*
X12883333Y-5099887D02*
X12878571Y-5118934D01*
X12878571Y-5118934D02*
X12873809Y-5128458D01*
X12873809Y-5128458D02*
X12869048Y-5133220D01*
X12869048Y-5133220D02*
X12859524Y-5137982D01*
X12859524Y-5137982D02*
X12850000Y-5137982D01*
X12850000Y-5137982D02*
X12840476Y-5133220D01*
X12840476Y-5133220D02*
X12835714Y-5128458D01*
X12835714Y-5128458D02*
X12830952Y-5118934D01*
X12830952Y-5118934D02*
X12826190Y-5099887D01*
X12826190Y-5099887D02*
X12826190Y-5076077D01*
X12826190Y-5076077D02*
X12830952Y-5057030D01*
X12830952Y-5057030D02*
X12835714Y-5047506D01*
X12835714Y-5047506D02*
X12840476Y-5042744D01*
X12840476Y-5042744D02*
X12850000Y-5037982D01*
X12945238Y-5037982D02*
X12954762Y-5037982D01*
X12954762Y-5037982D02*
X12964286Y-5042744D01*
X12964286Y-5042744D02*
X12969048Y-5047506D01*
X12969048Y-5047506D02*
X12973809Y-5057030D01*
X12973809Y-5057030D02*
X12978571Y-5076077D01*
X12978571Y-5076077D02*
X12978571Y-5099887D01*
X12978571Y-5099887D02*
X12973809Y-5118934D01*
X12973809Y-5118934D02*
X12969048Y-5128458D01*
X12969048Y-5128458D02*
X12964286Y-5133220D01*
X12964286Y-5133220D02*
X12954762Y-5137982D01*
X12954762Y-5137982D02*
X12945238Y-5137982D01*
X12945238Y-5137982D02*
X12935714Y-5133220D01*
X12935714Y-5133220D02*
X12930952Y-5128458D01*
X12930952Y-5128458D02*
X12926190Y-5118934D01*
X12926190Y-5118934D02*
X12921429Y-5099887D01*
X12921429Y-5099887D02*
X12921429Y-5076077D01*
X12921429Y-5076077D02*
X12926190Y-5057030D01*
X12926190Y-5057030D02*
X12930952Y-5047506D01*
X12930952Y-5047506D02*
X12935714Y-5042744D01*
X12935714Y-5042744D02*
X12945238Y-5037982D01*
X13040476Y-5037982D02*
X13050000Y-5037982D01*
X13050000Y-5037982D02*
X13059524Y-5042744D01*
X13059524Y-5042744D02*
X13064286Y-5047506D01*
X13064286Y-5047506D02*
X13069048Y-5057030D01*
X13069048Y-5057030D02*
X13073809Y-5076077D01*
X13073809Y-5076077D02*
X13073809Y-5099887D01*
X13073809Y-5099887D02*
X13069048Y-5118934D01*
X13069048Y-5118934D02*
X13064286Y-5128458D01*
X13064286Y-5128458D02*
X13059524Y-5133220D01*
X13059524Y-5133220D02*
X13050000Y-5137982D01*
X13050000Y-5137982D02*
X13040476Y-5137982D01*
X13040476Y-5137982D02*
X13030952Y-5133220D01*
X13030952Y-5133220D02*
X13026190Y-5128458D01*
X13026190Y-5128458D02*
X13021429Y-5118934D01*
X13021429Y-5118934D02*
X13016667Y-5099887D01*
X13016667Y-5099887D02*
X13016667Y-5076077D01*
X13016667Y-5076077D02*
X13021429Y-5057030D01*
X13021429Y-5057030D02*
X13026190Y-5047506D01*
X13026190Y-5047506D02*
X13030952Y-5042744D01*
X13030952Y-5042744D02*
X13040476Y-5037982D01*
X13135714Y-5037982D02*
X13145238Y-5037982D01*
X13145238Y-5037982D02*
X13154762Y-5042744D01*
X13154762Y-5042744D02*
X13159524Y-5047506D01*
X13159524Y-5047506D02*
X13164286Y-5057030D01*
X13164286Y-5057030D02*
X13169048Y-5076077D01*
X13169048Y-5076077D02*
X13169048Y-5099887D01*
X13169048Y-5099887D02*
X13164286Y-5118934D01*
X13164286Y-5118934D02*
X13159524Y-5128458D01*
X13159524Y-5128458D02*
X13154762Y-5133220D01*
X13154762Y-5133220D02*
X13145238Y-5137982D01*
X13145238Y-5137982D02*
X13135714Y-5137982D01*
X13135714Y-5137982D02*
X13126190Y-5133220D01*
X13126190Y-5133220D02*
X13121429Y-5128458D01*
X13121429Y-5128458D02*
X13116667Y-5118934D01*
X13116667Y-5118934D02*
X13111905Y-5099887D01*
X13111905Y-5099887D02*
X13111905Y-5076077D01*
X13111905Y-5076077D02*
X13116667Y-5057030D01*
X13116667Y-5057030D02*
X13121429Y-5047506D01*
X13121429Y-5047506D02*
X13126190Y-5042744D01*
X13126190Y-5042744D02*
X13135714Y-5037982D01*
X13288095Y-5137982D02*
X13288095Y-5071315D01*
X13288095Y-5080839D02*
X13292857Y-5076077D01*
X13292857Y-5076077D02*
X13302381Y-5071315D01*
X13302381Y-5071315D02*
X13316667Y-5071315D01*
X13316667Y-5071315D02*
X13326190Y-5076077D01*
X13326190Y-5076077D02*
X13330952Y-5085601D01*
X13330952Y-5085601D02*
X13330952Y-5137982D01*
X13330952Y-5085601D02*
X13335714Y-5076077D01*
X13335714Y-5076077D02*
X13345238Y-5071315D01*
X13345238Y-5071315D02*
X13359524Y-5071315D01*
X13359524Y-5071315D02*
X13369048Y-5076077D01*
X13369048Y-5076077D02*
X13373810Y-5085601D01*
X13373810Y-5085601D02*
X13373810Y-5137982D01*
X13421429Y-5137982D02*
X13421429Y-5071315D01*
X13421429Y-5080839D02*
X13426190Y-5076077D01*
X13426190Y-5076077D02*
X13435714Y-5071315D01*
X13435714Y-5071315D02*
X13450000Y-5071315D01*
X13450000Y-5071315D02*
X13459524Y-5076077D01*
X13459524Y-5076077D02*
X13464286Y-5085601D01*
X13464286Y-5085601D02*
X13464286Y-5137982D01*
X13464286Y-5085601D02*
X13469048Y-5076077D01*
X13469048Y-5076077D02*
X13478571Y-5071315D01*
X13478571Y-5071315D02*
X13492857Y-5071315D01*
X13492857Y-5071315D02*
X13502381Y-5076077D01*
X13502381Y-5076077D02*
X13507143Y-5085601D01*
X13507143Y-5085601D02*
X13507143Y-5137982D01*
X14700000Y-5800000D02*
X14700000Y-5148858D01*
X11400000Y-5800000D02*
X11400000Y-5148858D01*
X14700000Y-5207500D02*
X11400000Y-5207500D01*
X14700000Y-5207500D02*
X14587350Y-5266142D01*
X14700000Y-5207500D02*
X14587350Y-5148858D01*
X11400000Y-5207500D02*
X11512650Y-5148858D01*
X11400000Y-5207500D02*
X11512650Y-5266142D01*
X12208095Y-5340006D02*
X12212857Y-5335244D01*
X12212857Y-5335244D02*
X12222381Y-5330482D01*
X12222381Y-5330482D02*
X12246190Y-5330482D01*
X12246190Y-5330482D02*
X12255714Y-5335244D01*
X12255714Y-5335244D02*
X12260476Y-5340006D01*
X12260476Y-5340006D02*
X12265238Y-5349530D01*
X12265238Y-5349530D02*
X12265238Y-5359053D01*
X12265238Y-5359053D02*
X12260476Y-5373339D01*
X12260476Y-5373339D02*
X12203333Y-5430482D01*
X12203333Y-5430482D02*
X12265238Y-5430482D01*
X12355714Y-5330482D02*
X12308095Y-5330482D01*
X12308095Y-5330482D02*
X12303333Y-5378101D01*
X12303333Y-5378101D02*
X12308095Y-5373339D01*
X12308095Y-5373339D02*
X12317619Y-5368577D01*
X12317619Y-5368577D02*
X12341429Y-5368577D01*
X12341429Y-5368577D02*
X12350952Y-5373339D01*
X12350952Y-5373339D02*
X12355714Y-5378101D01*
X12355714Y-5378101D02*
X12360476Y-5387625D01*
X12360476Y-5387625D02*
X12360476Y-5411434D01*
X12360476Y-5411434D02*
X12355714Y-5420958D01*
X12355714Y-5420958D02*
X12350952Y-5425720D01*
X12350952Y-5425720D02*
X12341429Y-5430482D01*
X12341429Y-5430482D02*
X12317619Y-5430482D01*
X12317619Y-5430482D02*
X12308095Y-5425720D01*
X12308095Y-5425720D02*
X12303333Y-5420958D01*
X12403333Y-5420958D02*
X12408095Y-5425720D01*
X12408095Y-5425720D02*
X12403333Y-5430482D01*
X12403333Y-5430482D02*
X12398571Y-5425720D01*
X12398571Y-5425720D02*
X12403333Y-5420958D01*
X12403333Y-5420958D02*
X12403333Y-5430482D01*
X12493809Y-5363815D02*
X12493809Y-5430482D01*
X12470000Y-5325720D02*
X12446190Y-5397149D01*
X12446190Y-5397149D02*
X12508095Y-5397149D01*
X12565238Y-5330482D02*
X12574762Y-5330482D01*
X12574762Y-5330482D02*
X12584286Y-5335244D01*
X12584286Y-5335244D02*
X12589048Y-5340006D01*
X12589048Y-5340006D02*
X12593809Y-5349530D01*
X12593809Y-5349530D02*
X12598571Y-5368577D01*
X12598571Y-5368577D02*
X12598571Y-5392387D01*
X12598571Y-5392387D02*
X12593809Y-5411434D01*
X12593809Y-5411434D02*
X12589048Y-5420958D01*
X12589048Y-5420958D02*
X12584286Y-5425720D01*
X12584286Y-5425720D02*
X12574762Y-5430482D01*
X12574762Y-5430482D02*
X12565238Y-5430482D01*
X12565238Y-5430482D02*
X12555714Y-5425720D01*
X12555714Y-5425720D02*
X12550952Y-5420958D01*
X12550952Y-5420958D02*
X12546190Y-5411434D01*
X12546190Y-5411434D02*
X12541429Y-5392387D01*
X12541429Y-5392387D02*
X12541429Y-5368577D01*
X12541429Y-5368577D02*
X12546190Y-5349530D01*
X12546190Y-5349530D02*
X12550952Y-5340006D01*
X12550952Y-5340006D02*
X12555714Y-5335244D01*
X12555714Y-5335244D02*
X12565238Y-5330482D01*
X12660476Y-5330482D02*
X12670000Y-5330482D01*
X12670000Y-5330482D02*
X12679524Y-5335244D01*
X12679524Y-5335244D02*
X12684286Y-5340006D01*
X12684286Y-5340006D02*
X12689048Y-5349530D01*
X12689048Y-5349530D02*
X12693809Y-5368577D01*
X12693809Y-5368577D02*
X12693809Y-5392387D01*
X12693809Y-5392387D02*
X12689048Y-5411434D01*
X12689048Y-5411434D02*
X12684286Y-5420958D01*
X12684286Y-5420958D02*
X12679524Y-5425720D01*
X12679524Y-5425720D02*
X12670000Y-5430482D01*
X12670000Y-5430482D02*
X12660476Y-5430482D01*
X12660476Y-5430482D02*
X12650952Y-5425720D01*
X12650952Y-5425720D02*
X12646190Y-5420958D01*
X12646190Y-5420958D02*
X12641429Y-5411434D01*
X12641429Y-5411434D02*
X12636667Y-5392387D01*
X12636667Y-5392387D02*
X12636667Y-5368577D01*
X12636667Y-5368577D02*
X12641429Y-5349530D01*
X12641429Y-5349530D02*
X12646190Y-5340006D01*
X12646190Y-5340006D02*
X12650952Y-5335244D01*
X12650952Y-5335244D02*
X12660476Y-5330482D01*
X12755714Y-5330482D02*
X12765238Y-5330482D01*
X12765238Y-5330482D02*
X12774762Y-5335244D01*
X12774762Y-5335244D02*
X12779524Y-5340006D01*
X12779524Y-5340006D02*
X12784286Y-5349530D01*
X12784286Y-5349530D02*
X12789048Y-5368577D01*
X12789048Y-5368577D02*
X12789048Y-5392387D01*
X12789048Y-5392387D02*
X12784286Y-5411434D01*
X12784286Y-5411434D02*
X12779524Y-5420958D01*
X12779524Y-5420958D02*
X12774762Y-5425720D01*
X12774762Y-5425720D02*
X12765238Y-5430482D01*
X12765238Y-5430482D02*
X12755714Y-5430482D01*
X12755714Y-5430482D02*
X12746190Y-5425720D01*
X12746190Y-5425720D02*
X12741429Y-5420958D01*
X12741429Y-5420958D02*
X12736667Y-5411434D01*
X12736667Y-5411434D02*
X12731905Y-5392387D01*
X12731905Y-5392387D02*
X12731905Y-5368577D01*
X12731905Y-5368577D02*
X12736667Y-5349530D01*
X12736667Y-5349530D02*
X12741429Y-5340006D01*
X12741429Y-5340006D02*
X12746190Y-5335244D01*
X12746190Y-5335244D02*
X12755714Y-5330482D01*
X12908095Y-5430482D02*
X12908095Y-5363815D01*
X12908095Y-5373339D02*
X12912857Y-5368577D01*
X12912857Y-5368577D02*
X12922381Y-5363815D01*
X12922381Y-5363815D02*
X12936667Y-5363815D01*
X12936667Y-5363815D02*
X12946190Y-5368577D01*
X12946190Y-5368577D02*
X12950952Y-5378101D01*
X12950952Y-5378101D02*
X12950952Y-5430482D01*
X12950952Y-5378101D02*
X12955714Y-5368577D01*
X12955714Y-5368577D02*
X12965238Y-5363815D01*
X12965238Y-5363815D02*
X12979524Y-5363815D01*
X12979524Y-5363815D02*
X12989048Y-5368577D01*
X12989048Y-5368577D02*
X12993810Y-5378101D01*
X12993810Y-5378101D02*
X12993810Y-5430482D01*
X13041429Y-5430482D02*
X13041429Y-5363815D01*
X13041429Y-5373339D02*
X13046190Y-5368577D01*
X13046190Y-5368577D02*
X13055714Y-5363815D01*
X13055714Y-5363815D02*
X13070000Y-5363815D01*
X13070000Y-5363815D02*
X13079524Y-5368577D01*
X13079524Y-5368577D02*
X13084286Y-5378101D01*
X13084286Y-5378101D02*
X13084286Y-5430482D01*
X13084286Y-5378101D02*
X13089048Y-5368577D01*
X13089048Y-5368577D02*
X13098571Y-5363815D01*
X13098571Y-5363815D02*
X13112857Y-5363815D01*
X13112857Y-5363815D02*
X13122381Y-5368577D01*
X13122381Y-5368577D02*
X13127143Y-5378101D01*
X13127143Y-5378101D02*
X13127143Y-5430482D01*
X13940000Y-5800000D02*
X13940000Y-5441358D01*
X11400000Y-5800000D02*
X11400000Y-5441358D01*
X13940000Y-5500000D02*
X11400000Y-5500000D01*
X13940000Y-5500000D02*
X13827350Y-5558642D01*
X13940000Y-5500000D02*
X13827350Y-5441358D01*
X11400000Y-5500000D02*
X11512650Y-5441358D01*
X11400000Y-5500000D02*
X11512650Y-5558642D01*
X11093815Y-12836786D02*
X11160482Y-12836786D01*
X11055720Y-12860595D02*
X11127149Y-12884405D01*
X11127149Y-12884405D02*
X11127149Y-12822500D01*
X11060482Y-12765357D02*
X11060482Y-12755833D01*
X11060482Y-12755833D02*
X11065244Y-12746309D01*
X11065244Y-12746309D02*
X11070006Y-12741547D01*
X11070006Y-12741547D02*
X11079530Y-12736786D01*
X11079530Y-12736786D02*
X11098577Y-12732024D01*
X11098577Y-12732024D02*
X11122387Y-12732024D01*
X11122387Y-12732024D02*
X11141434Y-12736786D01*
X11141434Y-12736786D02*
X11150958Y-12741547D01*
X11150958Y-12741547D02*
X11155720Y-12746309D01*
X11155720Y-12746309D02*
X11160482Y-12755833D01*
X11160482Y-12755833D02*
X11160482Y-12765357D01*
X11160482Y-12765357D02*
X11155720Y-12774881D01*
X11155720Y-12774881D02*
X11150958Y-12779643D01*
X11150958Y-12779643D02*
X11141434Y-12784405D01*
X11141434Y-12784405D02*
X11122387Y-12789166D01*
X11122387Y-12789166D02*
X11098577Y-12789166D01*
X11098577Y-12789166D02*
X11079530Y-12784405D01*
X11079530Y-12784405D02*
X11070006Y-12779643D01*
X11070006Y-12779643D02*
X11065244Y-12774881D01*
X11065244Y-12774881D02*
X11060482Y-12765357D01*
X11150958Y-12689166D02*
X11155720Y-12684405D01*
X11155720Y-12684405D02*
X11160482Y-12689166D01*
X11160482Y-12689166D02*
X11155720Y-12693928D01*
X11155720Y-12693928D02*
X11150958Y-12689166D01*
X11150958Y-12689166D02*
X11160482Y-12689166D01*
X11060482Y-12593928D02*
X11060482Y-12641547D01*
X11060482Y-12641547D02*
X11108101Y-12646309D01*
X11108101Y-12646309D02*
X11103339Y-12641547D01*
X11103339Y-12641547D02*
X11098577Y-12632024D01*
X11098577Y-12632024D02*
X11098577Y-12608214D01*
X11098577Y-12608214D02*
X11103339Y-12598690D01*
X11103339Y-12598690D02*
X11108101Y-12593928D01*
X11108101Y-12593928D02*
X11117625Y-12589167D01*
X11117625Y-12589167D02*
X11141434Y-12589167D01*
X11141434Y-12589167D02*
X11150958Y-12593928D01*
X11150958Y-12593928D02*
X11155720Y-12598690D01*
X11155720Y-12598690D02*
X11160482Y-12608214D01*
X11160482Y-12608214D02*
X11160482Y-12632024D01*
X11160482Y-12632024D02*
X11155720Y-12641547D01*
X11155720Y-12641547D02*
X11150958Y-12646309D01*
X11060482Y-12498690D02*
X11060482Y-12546309D01*
X11060482Y-12546309D02*
X11108101Y-12551071D01*
X11108101Y-12551071D02*
X11103339Y-12546309D01*
X11103339Y-12546309D02*
X11098577Y-12536786D01*
X11098577Y-12536786D02*
X11098577Y-12512976D01*
X11098577Y-12512976D02*
X11103339Y-12503452D01*
X11103339Y-12503452D02*
X11108101Y-12498690D01*
X11108101Y-12498690D02*
X11117625Y-12493928D01*
X11117625Y-12493928D02*
X11141434Y-12493928D01*
X11141434Y-12493928D02*
X11150958Y-12498690D01*
X11150958Y-12498690D02*
X11155720Y-12503452D01*
X11155720Y-12503452D02*
X11160482Y-12512976D01*
X11160482Y-12512976D02*
X11160482Y-12536786D01*
X11160482Y-12536786D02*
X11155720Y-12546309D01*
X11155720Y-12546309D02*
X11150958Y-12551071D01*
X11060482Y-12432024D02*
X11060482Y-12422500D01*
X11060482Y-12422500D02*
X11065244Y-12412976D01*
X11065244Y-12412976D02*
X11070006Y-12408214D01*
X11070006Y-12408214D02*
X11079530Y-12403452D01*
X11079530Y-12403452D02*
X11098577Y-12398690D01*
X11098577Y-12398690D02*
X11122387Y-12398690D01*
X11122387Y-12398690D02*
X11141434Y-12403452D01*
X11141434Y-12403452D02*
X11150958Y-12408214D01*
X11150958Y-12408214D02*
X11155720Y-12412976D01*
X11155720Y-12412976D02*
X11160482Y-12422500D01*
X11160482Y-12422500D02*
X11160482Y-12432024D01*
X11160482Y-12432024D02*
X11155720Y-12441547D01*
X11155720Y-12441547D02*
X11150958Y-12446309D01*
X11150958Y-12446309D02*
X11141434Y-12451071D01*
X11141434Y-12451071D02*
X11122387Y-12455833D01*
X11122387Y-12455833D02*
X11098577Y-12455833D01*
X11098577Y-12455833D02*
X11079530Y-12451071D01*
X11079530Y-12451071D02*
X11070006Y-12446309D01*
X11070006Y-12446309D02*
X11065244Y-12441547D01*
X11065244Y-12441547D02*
X11060482Y-12432024D01*
X11060482Y-12336786D02*
X11060482Y-12327262D01*
X11060482Y-12327262D02*
X11065244Y-12317738D01*
X11065244Y-12317738D02*
X11070006Y-12312976D01*
X11070006Y-12312976D02*
X11079530Y-12308214D01*
X11079530Y-12308214D02*
X11098577Y-12303452D01*
X11098577Y-12303452D02*
X11122387Y-12303452D01*
X11122387Y-12303452D02*
X11141434Y-12308214D01*
X11141434Y-12308214D02*
X11150958Y-12312976D01*
X11150958Y-12312976D02*
X11155720Y-12317738D01*
X11155720Y-12317738D02*
X11160482Y-12327262D01*
X11160482Y-12327262D02*
X11160482Y-12336786D01*
X11160482Y-12336786D02*
X11155720Y-12346309D01*
X11155720Y-12346309D02*
X11150958Y-12351071D01*
X11150958Y-12351071D02*
X11141434Y-12355833D01*
X11141434Y-12355833D02*
X11122387Y-12360595D01*
X11122387Y-12360595D02*
X11098577Y-12360595D01*
X11098577Y-12360595D02*
X11079530Y-12355833D01*
X11079530Y-12355833D02*
X11070006Y-12351071D01*
X11070006Y-12351071D02*
X11065244Y-12346309D01*
X11065244Y-12346309D02*
X11060482Y-12336786D01*
X11160482Y-12184405D02*
X11093815Y-12184405D01*
X11103339Y-12184405D02*
X11098577Y-12179643D01*
X11098577Y-12179643D02*
X11093815Y-12170119D01*
X11093815Y-12170119D02*
X11093815Y-12155833D01*
X11093815Y-12155833D02*
X11098577Y-12146309D01*
X11098577Y-12146309D02*
X11108101Y-12141547D01*
X11108101Y-12141547D02*
X11160482Y-12141547D01*
X11108101Y-12141547D02*
X11098577Y-12136786D01*
X11098577Y-12136786D02*
X11093815Y-12127262D01*
X11093815Y-12127262D02*
X11093815Y-12112976D01*
X11093815Y-12112976D02*
X11098577Y-12103452D01*
X11098577Y-12103452D02*
X11108101Y-12098690D01*
X11108101Y-12098690D02*
X11160482Y-12098690D01*
X11160482Y-12051071D02*
X11093815Y-12051071D01*
X11103339Y-12051071D02*
X11098577Y-12046309D01*
X11098577Y-12046309D02*
X11093815Y-12036786D01*
X11093815Y-12036786D02*
X11093815Y-12022500D01*
X11093815Y-12022500D02*
X11098577Y-12012976D01*
X11098577Y-12012976D02*
X11108101Y-12008214D01*
X11108101Y-12008214D02*
X11160482Y-12008214D01*
X11108101Y-12008214D02*
X11098577Y-12003452D01*
X11098577Y-12003452D02*
X11093815Y-11993928D01*
X11093815Y-11993928D02*
X11093815Y-11979643D01*
X11093815Y-11979643D02*
X11098577Y-11970119D01*
X11098577Y-11970119D02*
X11108101Y-11965357D01*
X11108101Y-11965357D02*
X11160482Y-11965357D01*
X11400000Y-14450000D02*
X11171358Y-14450000D01*
X11400000Y-10395000D02*
X11171358Y-10395000D01*
X11230000Y-14450000D02*
X11230000Y-10395000D01*
X11230000Y-14450000D02*
X11171358Y-14337350D01*
X11230000Y-14450000D02*
X11288642Y-14337350D01*
X11230000Y-10395000D02*
X11288642Y-10507650D01*
X11230000Y-10395000D02*
X11171358Y-10507650D01*
M02*
