%TF.GenerationSoftware,KiCad,Pcbnew,9.0.5*%
%TF.CreationDate,2026-01-12T16:44:51+01:00*%
%TF.ProjectId,ZumoComSystem,5a756d6f-436f-46d5-9379-7374656d2e6b,V1.2*%
%TF.SameCoordinates,Original*%
%TF.FileFunction,Copper,L3,Inr*%
%TF.FilePolarity,Positive*%
%FSLAX45Y45*%
G04 Gerber Fmt 4.5, Leading zero omitted, Abs format (unit mm)*
G04 Created by KiCad (PCBNEW 9.0.5) date 2026-01-12 16:44:51*
%MOMM*%
%LPD*%
G01*
G04 APERTURE LIST*
%ADD10C,0.300000*%
%TA.AperFunction,ComponentPad*%
%ADD11R,1.300000X1.300000*%
%TD*%
%TA.AperFunction,ComponentPad*%
%ADD12C,1.300000*%
%TD*%
%TA.AperFunction,ComponentPad*%
%ADD13O,2.900000X1.900000*%
%TD*%
%TA.AperFunction,ComponentPad*%
%ADD14O,1.900000X2.900000*%
%TD*%
%TA.AperFunction,ComponentPad*%
%ADD15O,1.800000X1.100000*%
%TD*%
%TA.AperFunction,ComponentPad*%
%ADD16O,2.200000X1.100000*%
%TD*%
%TA.AperFunction,ComponentPad*%
%ADD17R,1.700000X1.700000*%
%TD*%
%TA.AperFunction,ComponentPad*%
%ADD18C,1.700000*%
%TD*%
%TA.AperFunction,ComponentPad*%
%ADD19C,1.980000*%
%TD*%
%TA.AperFunction,ComponentPad*%
%ADD20C,3.000000*%
%TD*%
%TA.AperFunction,ComponentPad*%
%ADD21O,3.600000X1.800000*%
%TD*%
%TA.AperFunction,ComponentPad*%
%ADD22O,1.508000X3.016000*%
%TD*%
%TA.AperFunction,ComponentPad*%
%ADD23R,3.900000X3.900000*%
%TD*%
%TA.AperFunction,ViaPad*%
%ADD24C,0.600000*%
%TD*%
%TA.AperFunction,ViaPad*%
%ADD25C,1.000000*%
%TD*%
%TA.AperFunction,Conductor*%
%ADD26C,0.250000*%
%TD*%
G04 APERTURE END LIST*
D10*
G36*
X17848500Y-6647378D02*
G01*
X17635166Y-6647378D01*
X17635166Y-6551714D01*
X17651833Y-6551714D01*
X17651833Y-6587428D01*
X17652121Y-6590355D01*
X17652327Y-6590853D01*
X17652366Y-6591390D01*
X17653416Y-6594137D01*
X17660559Y-6608422D01*
X17661352Y-6609682D01*
X17661504Y-6610048D01*
X17661842Y-6610460D01*
X17662126Y-6610911D01*
X17662425Y-6611171D01*
X17663369Y-6612321D01*
X17670512Y-6619464D01*
X17672785Y-6621329D01*
X17678192Y-6623569D01*
X17684045Y-6623569D01*
X17689452Y-6621329D01*
X17693591Y-6617190D01*
X17695830Y-6611783D01*
X17695830Y-6605931D01*
X17693591Y-6600523D01*
X17691725Y-6598250D01*
X17686304Y-6592829D01*
X17681833Y-6583887D01*
X17681833Y-6555255D01*
X17686304Y-6546314D01*
X17690004Y-6542613D01*
X17698945Y-6538143D01*
X17707256Y-6538143D01*
X17723016Y-6543396D01*
X17806226Y-6626606D01*
X17808499Y-6628472D01*
X17812323Y-6630056D01*
X17813906Y-6630712D01*
X17813907Y-6630712D01*
X17819759Y-6630712D01*
X17819759Y-6630712D01*
X17821999Y-6629784D01*
X17825166Y-6628472D01*
X17829305Y-6624333D01*
X17831545Y-6618926D01*
X17831833Y-6616000D01*
X17831833Y-6523143D01*
X17831545Y-6520216D01*
X17829305Y-6514809D01*
X17825166Y-6510671D01*
X17819759Y-6508431D01*
X17813906Y-6508431D01*
X17808499Y-6510671D01*
X17804361Y-6514809D01*
X17802121Y-6520216D01*
X17801833Y-6523143D01*
X17801833Y-6579787D01*
X17741725Y-6519679D01*
X17739452Y-6517813D01*
X17738954Y-6517607D01*
X17738547Y-6517254D01*
X17735862Y-6516055D01*
X17714434Y-6508912D01*
X17712983Y-6508582D01*
X17712616Y-6508431D01*
X17712086Y-6508379D01*
X17711566Y-6508260D01*
X17711171Y-6508288D01*
X17709690Y-6508143D01*
X17695404Y-6508143D01*
X17692478Y-6508431D01*
X17691980Y-6508637D01*
X17691442Y-6508675D01*
X17688696Y-6509726D01*
X17674410Y-6516869D01*
X17673151Y-6517662D01*
X17672785Y-6517814D01*
X17672373Y-6518151D01*
X17671922Y-6518436D01*
X17671662Y-6518735D01*
X17670512Y-6519679D01*
X17663369Y-6526822D01*
X17662425Y-6527972D01*
X17662126Y-6528232D01*
X17661842Y-6528683D01*
X17661504Y-6529095D01*
X17661352Y-6529461D01*
X17660559Y-6530720D01*
X17653416Y-6545006D01*
X17652366Y-6547752D01*
X17652327Y-6548290D01*
X17652121Y-6548788D01*
X17651833Y-6551714D01*
X17635166Y-6551714D01*
X17635166Y-6491476D01*
X17848500Y-6491476D01*
X17848500Y-6647378D01*
G37*
D11*
%TO.N,Net-(D16-K)*%
%TO.C,J1*%
X15708500Y-10350000D03*
D12*
%TO.N,/Zumo_Connector/D-*%
X15708500Y-10100000D03*
%TO.N,/Zumo_Connector/D+*%
X15708500Y-9900000D03*
%TO.N,GND*%
X15708500Y-9650000D03*
D13*
X15648500Y-10657000D03*
D14*
X15230500Y-10000000D03*
D13*
X15648500Y-9343000D03*
%TD*%
D15*
%TO.N,GND*%
%TO.C,J7*%
X14660000Y-10652500D03*
D16*
X14380000Y-10437500D03*
D15*
X14100000Y-10652500D03*
%TD*%
D17*
%TO.N,/Zumo_Connector/D+*%
%TO.C,TP5*%
X15720000Y-11277500D03*
D18*
%TO.N,/Zumo_Connector/D-*%
X15720000Y-11023500D03*
%TD*%
D19*
%TO.N,Net-(BT1--)*%
%TO.C,BT2*%
X16960000Y-6048000D03*
%TO.N,GNDREF*%
X16960000Y-13270000D03*
%TD*%
D17*
%TO.N,/MCU/ESP_RX*%
%TO.C,TP7*%
X13780000Y-11360000D03*
D18*
%TO.N,/MCU/ESP_TX*%
X13780000Y-11614000D03*
%TD*%
D20*
%TO.N,Net-(D8-A)*%
%TO.C,J6*%
X14300000Y-9300000D03*
D21*
%TO.N,GND*%
X14180000Y-9830000D03*
X14550000Y-9580000D03*
D22*
X14760000Y-9150000D03*
%TD*%
D23*
%TO.N,GND*%
%TO.C,U1*%
X14850000Y-12913000D03*
%TD*%
D19*
%TO.N,/Battery/RAW_VBatt*%
%TO.C,BT1*%
X12440000Y-13271000D03*
%TO.N,Net-(BT1--)*%
X12440000Y-6049000D03*
%TD*%
D17*
%TO.N,Net-(J4-Pin_1)*%
%TO.C,J4*%
X13933500Y-8048500D03*
D18*
%TO.N,Net-(J4-Pin_2)*%
X13933500Y-8302500D03*
%TO.N,Net-(J4-Pin_3)*%
X14187500Y-8048500D03*
%TO.N,Net-(J4-Pin_4)*%
X14187500Y-8302500D03*
%TO.N,Net-(J4-Pin_5)*%
X14441500Y-8048500D03*
%TO.N,Net-(J4-Pin_6)*%
X14441500Y-8302500D03*
%TO.N,Net-(J4-Pin_7)*%
X14695500Y-8048500D03*
%TO.N,Net-(J4-Pin_8)*%
X14695500Y-8302500D03*
%TO.N,Net-(J4-Pin_9)*%
X14949500Y-8048500D03*
%TO.N,Net-(J4-Pin_10)*%
X14949500Y-8302500D03*
%TO.N,Net-(J4-Pin_11)*%
X15203500Y-8048500D03*
%TO.N,Net-(J4-Pin_12)*%
X15203500Y-8302500D03*
%TO.N,Net-(J4-Pin_13)*%
X15457500Y-8048500D03*
%TO.N,Net-(J4-Pin_14)*%
X15457500Y-8302500D03*
%TD*%
D24*
%TO.N,GND*%
X14700000Y-7864000D03*
X14446000Y-7864000D03*
X14452000Y-7334000D03*
X14953000Y-7329000D03*
X14700000Y-7335000D03*
%TO.N,/MCU/EXT_SPI_MOSI*%
X14954000Y-7233000D03*
%TO.N,GND*%
X15214000Y-7319000D03*
%TO.N,+5V*%
X14446000Y-7232000D03*
%TO.N,/USB_UART/DTR*%
X13653000Y-10928000D03*
%TO.N,/MCU/EXT_SPI_MISO*%
X14700000Y-7234000D03*
X14588000Y-12206000D03*
%TO.N,/MCU/EXT_SPI_MOSI*%
X14772000Y-12330200D03*
%TO.N,/MCU/EXT_SPI_CLK*%
X14770000Y-12205200D03*
X14446000Y-7756000D03*
%TO.N,/MCU/EXT_SPI_CS*%
X14700000Y-7757000D03*
X15913000Y-11772000D03*
%TO.N,+3V3*%
X14954000Y-7756000D03*
%TO.N,GND*%
X14956000Y-6799000D03*
X14709000Y-6802000D03*
X14444000Y-6802000D03*
X14243000Y-12960393D03*
X16380000Y-10120000D03*
X15196000Y-12149000D03*
X14249000Y-12689000D03*
%TO.N,+3V3*%
X15709000Y-13570000D03*
X13211000Y-13641000D03*
D25*
X17070000Y-9250000D03*
X17524507Y-13550493D03*
D24*
X12460000Y-13679550D03*
X14650000Y-11201000D03*
X14830000Y-10050000D03*
X17460000Y-12550000D03*
X13557550Y-11930000D03*
D25*
X17460000Y-9250000D03*
D24*
%TO.N,GND*%
X15110000Y-10790000D03*
X15450000Y-6854750D03*
X15450000Y-7166500D03*
X12859000Y-12819000D03*
X15354167Y-13654750D03*
X12170000Y-11280000D03*
X16925000Y-12455000D03*
X15277000Y-9369000D03*
X16725000Y-11285000D03*
X16064000Y-5890000D03*
X16168000Y-11617000D03*
X12861000Y-12468000D03*
X12800000Y-13200000D03*
X16660000Y-14100000D03*
X16296000Y-5890000D03*
X11785000Y-13500000D03*
X17910000Y-6200000D03*
X14830000Y-5890000D03*
X14580000Y-12775000D03*
X13985000Y-9560000D03*
X12910000Y-7440000D03*
X13690000Y-13300000D03*
X17237500Y-12055000D03*
X16860000Y-8080000D03*
X14320000Y-5890000D03*
X17910000Y-10065262D03*
X17670000Y-13300000D03*
X16725000Y-11530000D03*
X13544784Y-12644784D03*
X15270000Y-11040000D03*
X14000000Y-10110000D03*
X14173001Y-11270500D03*
X16871000Y-13651000D03*
X12404000Y-13987550D03*
X11900000Y-8810000D03*
X15358000Y-6648000D03*
X12690000Y-14040000D03*
X12860000Y-12990000D03*
X15120000Y-12040000D03*
X14389000Y-13143000D03*
X14931000Y-13252000D03*
X14325000Y-10987000D03*
X17050000Y-6860000D03*
X17565000Y-12980000D03*
X11490000Y-6700000D03*
X12154167Y-10534750D03*
X17245000Y-11285000D03*
X14026000Y-13790000D03*
X15420000Y-12660000D03*
X16660000Y-13600000D03*
X11490000Y-14018000D03*
X15650000Y-11770000D03*
X15136000Y-13111000D03*
X16170000Y-14360000D03*
X14633000Y-10865000D03*
X13114000Y-5890000D03*
X12290000Y-5890000D03*
X13810000Y-5890000D03*
X16090000Y-13790000D03*
X11490000Y-10377142D03*
X12262000Y-14151550D03*
X17900000Y-12642104D03*
X12650000Y-5890000D03*
X14870000Y-13560000D03*
X12083000Y-12725000D03*
X13447000Y-8475000D03*
X17005000Y-9460000D03*
X15530000Y-11350000D03*
X15023843Y-9029450D03*
X17327550Y-12466000D03*
X15928000Y-7525000D03*
X13081000Y-12636000D03*
X13245450Y-7110000D03*
X16100000Y-13520000D03*
X14208000Y-7838000D03*
X16395000Y-11940000D03*
X13510000Y-10082450D03*
X16440000Y-12290000D03*
X14910000Y-9860000D03*
X12410000Y-9420000D03*
X15832000Y-5890000D03*
X17910000Y-5890000D03*
X15136000Y-12845000D03*
X14267500Y-11620500D03*
X16469000Y-6869000D03*
X12170000Y-11800000D03*
X15160000Y-10450000D03*
X17165671Y-12619950D03*
X17910000Y-7917894D03*
X16725000Y-10774750D03*
X11900000Y-9420000D03*
X11900943Y-8270943D03*
X13422000Y-12247000D03*
X13910000Y-6960000D03*
X12260000Y-14360000D03*
X13550000Y-9420000D03*
X17373000Y-13441000D03*
X14033000Y-8538000D03*
X12170000Y-10770000D03*
X13143000Y-14240000D03*
X17650000Y-8690000D03*
X17580000Y-12130000D03*
X13703000Y-7783000D03*
X13535000Y-13589000D03*
X16640000Y-7030000D03*
X15037000Y-11040000D03*
X11975000Y-13425000D03*
X12920000Y-8850000D03*
X13346000Y-5890000D03*
X13363341Y-6852341D03*
X11490000Y-8097143D03*
X11490000Y-13676000D03*
X12170000Y-11030000D03*
X13820000Y-8660000D03*
X13470000Y-11810000D03*
X14315000Y-8175000D03*
X13893389Y-11512950D03*
X12861000Y-12270000D03*
X14330000Y-13250000D03*
X11490000Y-11028570D03*
X15058000Y-13790000D03*
X11490000Y-14360000D03*
X11930000Y-14360000D03*
X17910000Y-13930525D03*
X15363000Y-12970000D03*
X12495000Y-14140000D03*
X13768000Y-13790000D03*
X12900000Y-10540000D03*
X17580000Y-11090000D03*
X11490000Y-7120000D03*
X13867000Y-11041000D03*
X17120000Y-5890000D03*
X16730000Y-11795000D03*
X12450000Y-10134750D03*
X13890000Y-7290000D03*
X17910000Y-14360000D03*
X13000000Y-12170000D03*
X16985000Y-11675000D03*
X16660000Y-13842193D03*
X17360000Y-8440000D03*
X12770000Y-12170000D03*
X15358000Y-13175000D03*
X16990000Y-10046000D03*
X17860000Y-8776842D03*
X17354000Y-6311000D03*
X14507500Y-11620500D03*
X16660000Y-14360000D03*
X11830000Y-10010000D03*
X14681533Y-10050000D03*
X15815000Y-13092500D03*
X13164000Y-13442000D03*
X17162000Y-13352000D03*
X11490000Y-12650000D03*
X15326000Y-8815000D03*
X17500000Y-13840000D03*
X14580000Y-13100000D03*
X11490000Y-9725714D03*
X14010000Y-12660000D03*
X16485000Y-12835000D03*
X14650000Y-11750000D03*
X12280000Y-13580000D03*
X16490000Y-9385000D03*
X16198000Y-9657000D03*
X12440000Y-8850000D03*
X12720000Y-13580000D03*
X12979000Y-13090000D03*
X12728000Y-9737550D03*
X15420000Y-12456000D03*
X15180000Y-12530000D03*
X14542000Y-13790000D03*
X14340000Y-12420000D03*
X16735000Y-12190000D03*
X13500000Y-12850000D03*
X13452000Y-12530000D03*
X13240000Y-14360000D03*
X14977000Y-8890000D03*
X16176000Y-9376000D03*
X16300000Y-6630000D03*
X14186000Y-6801000D03*
X16314167Y-7894750D03*
X15050000Y-12400000D03*
X13650000Y-11030000D03*
X14800000Y-13790000D03*
X14216000Y-13173000D03*
X11980000Y-12990000D03*
X16570000Y-7590000D03*
X15754167Y-7094750D03*
X17240000Y-11795000D03*
X17245000Y-11545000D03*
X11890000Y-7290000D03*
X13750000Y-10780000D03*
X15080000Y-5890000D03*
X12370000Y-13860000D03*
X15450000Y-7790000D03*
X16760000Y-5890000D03*
X17360000Y-14100000D03*
X14476000Y-12298000D03*
X11890000Y-5890000D03*
X13510000Y-13790000D03*
X13124000Y-7746000D03*
X12168000Y-13987550D03*
X17910000Y-6629474D03*
X15674167Y-7894750D03*
X13610000Y-12380000D03*
X16725000Y-11036000D03*
X11490000Y-13334000D03*
X17650000Y-7690000D03*
X13776000Y-11216000D03*
X12910000Y-11620000D03*
X14787000Y-11011000D03*
X17430000Y-9005000D03*
X16510000Y-8870000D03*
X14020000Y-12290000D03*
X16983000Y-10396000D03*
X17910000Y-8347368D03*
X17910000Y-10494736D03*
X13400000Y-13441400D03*
X16314167Y-7174750D03*
X12882000Y-5890000D03*
X14828000Y-6614000D03*
X11490000Y-10051428D03*
X15600000Y-5890000D03*
X11490000Y-6295000D03*
X14388000Y-12753000D03*
X13150000Y-13583000D03*
X17580000Y-9810000D03*
X17650000Y-8150000D03*
X13996000Y-13441400D03*
X11490000Y-7771428D03*
X17911000Y-13071578D03*
X14106955Y-13589000D03*
X14850000Y-8510000D03*
X14611000Y-11277000D03*
X13280000Y-12970000D03*
X15832000Y-13795000D03*
X11785000Y-12700000D03*
X14060000Y-5890000D03*
X16990000Y-8805000D03*
X13186000Y-13297000D03*
X14870000Y-12510000D03*
X17910000Y-13501051D03*
X15914167Y-6614750D03*
X17610000Y-9250000D03*
X12865000Y-13351000D03*
X11995000Y-13813000D03*
X12160000Y-11540000D03*
X17720000Y-7210000D03*
X11871030Y-7955483D03*
X17110000Y-13550000D03*
X12780000Y-14360000D03*
X13181000Y-7326000D03*
X16937000Y-7127000D03*
X14795841Y-8810841D03*
X16218000Y-11137000D03*
X15207000Y-6804000D03*
X13630000Y-10310000D03*
X14398000Y-9060000D03*
X11490000Y-12992000D03*
X16930000Y-7500000D03*
X16985000Y-9135000D03*
X16508000Y-9640000D03*
X13470000Y-11310000D03*
X17280000Y-13840000D03*
X17327550Y-12200000D03*
X15340000Y-5890000D03*
X13760000Y-10580000D03*
X14510000Y-12510000D03*
X17910000Y-11783157D03*
X16200000Y-8580000D03*
X15725000Y-12875000D03*
X17910000Y-12212630D03*
X13680000Y-12860000D03*
X16170000Y-14040000D03*
X15574000Y-13788000D03*
X16554167Y-8294750D03*
X13555000Y-8930000D03*
X11490000Y-8422857D03*
X14222000Y-13441400D03*
X17020000Y-6410000D03*
X17910000Y-9206315D03*
X13578000Y-5890000D03*
X17910000Y-7488421D03*
X14010000Y-10340000D03*
X17360000Y-7830000D03*
X14284000Y-13790000D03*
X11490000Y-11354285D03*
X13280000Y-12810000D03*
X17910000Y-7058947D03*
X13090000Y-14020000D03*
X16528000Y-5890000D03*
X11490000Y-11680000D03*
X14340000Y-12130000D03*
X12640000Y-7670000D03*
X14570000Y-5890000D03*
X12790000Y-13860000D03*
X15170000Y-9600000D03*
X13600000Y-10490000D03*
X12859000Y-12644000D03*
X15810000Y-12604450D03*
X13990000Y-12970000D03*
X17650095Y-13537437D03*
X11490000Y-9074285D03*
X17025000Y-12200000D03*
X17910000Y-9635789D03*
X11490000Y-5890000D03*
X16180000Y-8230000D03*
X15786000Y-12357000D03*
X16225841Y-12605841D03*
X17580000Y-11730000D03*
X14507500Y-11380500D03*
X13240000Y-13840000D03*
X11785000Y-13120000D03*
X13319500Y-6589500D03*
X13790000Y-6630000D03*
X17360000Y-14360000D03*
X16785000Y-8570000D03*
X13470000Y-10830000D03*
X11490000Y-10702856D03*
X13918000Y-11687000D03*
X16385000Y-8565000D03*
X17321000Y-13157000D03*
X12646000Y-7273000D03*
X14700000Y-13453000D03*
X17910000Y-10924210D03*
X12547000Y-6604000D03*
X17515000Y-5894750D03*
X15594167Y-8454750D03*
X12690000Y-8710000D03*
X11720000Y-13980000D03*
X16159000Y-10140000D03*
X13385000Y-7126000D03*
X16278000Y-9032000D03*
X12968000Y-13573000D03*
X15620000Y-8870000D03*
X17910000Y-11353683D03*
X14555000Y-8853000D03*
X13240000Y-14126000D03*
X11490000Y-8748571D03*
X12070000Y-12580000D03*
X13010000Y-14160000D03*
X15316000Y-13790000D03*
X12540000Y-7460000D03*
X12540000Y-14360000D03*
X16890000Y-13030000D03*
X12920000Y-9920000D03*
X13530000Y-13080000D03*
X15835000Y-10575000D03*
X14325000Y-10755000D03*
X14267500Y-11380500D03*
X17580000Y-10450000D03*
X15209000Y-7805000D03*
X11490000Y-7445714D03*
X13010000Y-14360000D03*
X15060000Y-11400000D03*
X14201000Y-7296000D03*
X11490000Y-9399999D03*
%TO.N,+5V*%
X13183000Y-7227000D03*
X13333500Y-6716500D03*
%TO.N,GNDREF*%
X13133597Y-13361518D03*
X12780000Y-12255000D03*
X12780000Y-13020000D03*
%TO.N,/Battery/VM*%
X11919000Y-11885000D03*
X12120000Y-12170000D03*
X11915805Y-12064195D03*
%TO.N,/Power_Supply/Switched_V_Batt*%
X13460000Y-6844000D03*
X13245450Y-6970000D03*
%TO.N,Net-(D8-K)*%
X14419000Y-8702500D03*
%TO.N,Net-(D9-K)*%
X14690000Y-8800000D03*
%TO.N,/Battery/V_Batt*%
X11650000Y-12080000D03*
X11730000Y-11970000D03*
X11980000Y-9280000D03*
X13736750Y-9180000D03*
X12140000Y-6380000D03*
X12150000Y-8971000D03*
X11580000Y-12180000D03*
X11720000Y-12180000D03*
X12250000Y-6440000D03*
X11780000Y-12080000D03*
X12250000Y-6320000D03*
X11980000Y-8970000D03*
X13736750Y-9020000D03*
X13936750Y-9020000D03*
X12330000Y-8971000D03*
X15120000Y-8770000D03*
X11570000Y-11970000D03*
X12330000Y-9279000D03*
X11980000Y-12170000D03*
X12030000Y-6440000D03*
X13936750Y-9180000D03*
X12150000Y-9279000D03*
X12030000Y-6320000D03*
%TO.N,/USB_UART/VBUS*%
X14949000Y-10867000D03*
%TO.N,/USB_UART/D+*%
X14370000Y-11142500D03*
%TO.N,/USB_UART/D-*%
X14455000Y-11142500D03*
%TO.N,Net-(IC1-DO)*%
X14512000Y-13298000D03*
X14306000Y-13504000D03*
%TO.N,Net-(IC2-SENSE)*%
X14415000Y-8901000D03*
X14236000Y-8896050D03*
%TO.N,/Zumo_Connector/nRESET*%
X16500000Y-11800000D03*
%TO.N,/USB_UART/EN*%
X15969375Y-13109375D03*
%TO.N,/MCU/Zumo_RST*%
X15410000Y-13110000D03*
%TO.N,/USB_UART/RTS*%
X14036002Y-11596385D03*
%TO.N,/USB_UART/DTR*%
X13965836Y-11227096D03*
X14062450Y-11693714D03*
%TO.N,Net-(Q7-G)*%
X11915000Y-8075000D03*
%TO.N,/MCU/User_Button*%
X11840000Y-13925000D03*
X12250250Y-13927750D03*
X13950000Y-12038000D03*
X13475000Y-12033500D03*
%TO.N,/MCU/Button_A*%
X16310000Y-14065000D03*
%TO.N,/MCU/Button_B*%
X17010000Y-14065000D03*
%TO.N,/MCU/Button_C*%
X17710000Y-14065000D03*
%TO.N,/MCU/ESP_RX*%
X13951000Y-13199000D03*
%TO.N,/MCU/ESP_TX*%
X14020000Y-13300000D03*
%TO.N,/Battery/V_Batt_Scaled*%
X15017500Y-12034000D03*
%TO.N,/MCU/Info_LED_R*%
X13960000Y-12540000D03*
%TO.N,/MCU/Info_LED_G*%
X13390050Y-13160000D03*
%TO.N,/MCU/Info_LED_B*%
X13450000Y-13230000D03*
%TO.N,/MCU/ESP_USB_D-*%
X15446062Y-12140000D03*
%TO.N,/MCU/ESP_USB_D+*%
X15446062Y-12055000D03*
%TO.N,/Battery/RAW_VBatt*%
X12600000Y-12350000D03*
X12450000Y-12350000D03*
X12600000Y-12490000D03*
X12600000Y-12220000D03*
X12450000Y-12220000D03*
X12450000Y-12490000D03*
%TO.N,Net-(BT1--)*%
X12869999Y-12165467D03*
%TO.N,Net-(D2-A)*%
X16298750Y-13850000D03*
%TO.N,Net-(D3-A)*%
X16998750Y-13850000D03*
%TO.N,Net-(D4-A)*%
X17704375Y-13844375D03*
%TO.N,Net-(J4-Pin_10)*%
X14973911Y-7915725D03*
%TO.N,Net-(U2-~{RST})*%
X14796000Y-11400500D03*
%TO.N,Net-(D1-GK)*%
X13060000Y-13398996D03*
%TO.N,Net-(D1-BK)*%
X12934000Y-13393000D03*
%TO.N,Net-(D1-RK)*%
X12856500Y-13270500D03*
%TO.N,Net-(R23-Pad2)*%
X14010000Y-12150000D03*
X14370000Y-12040000D03*
%TD*%
D26*
%TO.N,/MCU/EXT_SPI_MOSI*%
X14789200Y-12313000D02*
X14772000Y-12330200D01*
X16079300Y-7913957D02*
X16079300Y-7914381D01*
X16080000Y-11827562D02*
X15594562Y-12313000D01*
X15594562Y-12313000D02*
X14789200Y-12313000D01*
X15570343Y-7405000D02*
X16079300Y-7913957D01*
X16079300Y-7914381D02*
X16080000Y-7915081D01*
X15126000Y-7405000D02*
X15570343Y-7405000D01*
X14954000Y-7233000D02*
X15126000Y-7405000D01*
X16080000Y-7915081D02*
X16080000Y-11827562D01*
%TO.N,/MCU/EXT_SPI_CS*%
X14917000Y-7540000D02*
X14700000Y-7757000D01*
X15514000Y-7540000D02*
X14917000Y-7540000D01*
X15945000Y-7971000D02*
X15514000Y-7540000D01*
X15945000Y-11740000D02*
X15945000Y-7971000D01*
X15913000Y-11772000D02*
X15945000Y-11740000D01*
%TO.N,/MCU/EXT_SPI_MISO*%
X15551562Y-7450000D02*
X14916000Y-7450000D01*
X16034200Y-7932638D02*
X15551562Y-7450000D01*
X16034200Y-7932921D02*
X16034200Y-7932638D01*
X16035000Y-7933721D02*
X16034200Y-7932921D01*
X16035000Y-11808781D02*
X16035000Y-7933721D01*
X14649700Y-12267700D02*
X15576081Y-12267700D01*
X15576081Y-12267700D02*
X16035000Y-11808781D01*
%TO.N,/MCU/EXT_SPI_CLK*%
X15989100Y-7951319D02*
X15532781Y-7495000D01*
X15989100Y-7951460D02*
X15989100Y-7951319D01*
X15990000Y-11790000D02*
X15990000Y-7952360D01*
X14787400Y-12222600D02*
X15557400Y-12222600D01*
X15557400Y-12222600D02*
X15990000Y-11790000D01*
X14707000Y-7495000D02*
X14446000Y-7756000D01*
%TO.N,/MCU/EXT_SPI_MISO*%
X14916000Y-7450000D02*
X14700000Y-7234000D01*
%TO.N,/MCU/EXT_SPI_CLK*%
X15990000Y-7952360D02*
X15989100Y-7951460D01*
%TO.N,/MCU/EXT_SPI_MISO*%
X14588000Y-12206000D02*
X14649700Y-12267700D01*
%TO.N,/MCU/EXT_SPI_CLK*%
X15532781Y-7495000D02*
X14707000Y-7495000D01*
X14770000Y-12205200D02*
X14787400Y-12222600D01*
%TD*%
%TA.AperFunction,Conductor*%
%TO.N,/Battery/V_Batt*%
G36*
X12240806Y-6280106D02*
G01*
X12251322Y-6281491D01*
X12254449Y-6282328D01*
X12263492Y-6286074D01*
X12266295Y-6287692D01*
X12274060Y-6293651D01*
X12276349Y-6295940D01*
X12282307Y-6303705D01*
X12283926Y-6306508D01*
X12287671Y-6315551D01*
X12288509Y-6318677D01*
X12289894Y-6329194D01*
X12290000Y-6330812D01*
X12290000Y-8840000D01*
X12424780Y-8974780D01*
X12425850Y-8976000D01*
X12432307Y-8984416D01*
X12433926Y-8987219D01*
X12437671Y-8996262D01*
X12438509Y-8999388D01*
X12439894Y-9009905D01*
X12440000Y-9011523D01*
X12440000Y-9218477D01*
X12439894Y-9220095D01*
X12439894Y-9220095D01*
X12438509Y-9230612D01*
X12437671Y-9233738D01*
X12433926Y-9242781D01*
X12432307Y-9245584D01*
X12425850Y-9254000D01*
X12424780Y-9255220D01*
X12290000Y-9390000D01*
X12290000Y-10058477D01*
X12289894Y-10060095D01*
X12288509Y-10070612D01*
X12287671Y-10073738D01*
X12283926Y-10082781D01*
X12282307Y-10085584D01*
X12275850Y-10094000D01*
X12274780Y-10095220D01*
X11980000Y-10390000D01*
X11980000Y-11668477D01*
X11979894Y-11670095D01*
X11978509Y-11680612D01*
X11977671Y-11683738D01*
X11973926Y-11692781D01*
X11972307Y-11695584D01*
X11965850Y-11704000D01*
X11964780Y-11705220D01*
X11840000Y-11830000D01*
X11840000Y-11830000D01*
X11840000Y-12090000D01*
X11890000Y-12140000D01*
X12000168Y-12140000D01*
X12001793Y-12140107D01*
X12012353Y-12141503D01*
X12015492Y-12142348D01*
X12024567Y-12146125D01*
X12027378Y-12147756D01*
X12035159Y-12153761D01*
X12037450Y-12156068D01*
X12043902Y-12164544D01*
X12044801Y-12165902D01*
X12048399Y-12172198D01*
X12049715Y-12176325D01*
X12049831Y-12176302D01*
X12052642Y-12190432D01*
X12052642Y-12190433D01*
X12057922Y-12203180D01*
X12057923Y-12203182D01*
X12064551Y-12213101D01*
X12065589Y-12214654D01*
X12066368Y-12215433D01*
X12069716Y-12221565D01*
X12070000Y-12224202D01*
X12070000Y-12464030D01*
X12069856Y-12465917D01*
X12067975Y-12478131D01*
X12066840Y-12481729D01*
X12061798Y-12491951D01*
X12059633Y-12495042D01*
X12051750Y-12503274D01*
X12048755Y-12505571D01*
X12037919Y-12511512D01*
X12036195Y-12512293D01*
X11858787Y-12576804D01*
X11857756Y-12577129D01*
X11850913Y-12578961D01*
X11848786Y-12579336D01*
X11841730Y-12579953D01*
X11840650Y-12580000D01*
X11580813Y-12580000D01*
X11579194Y-12579894D01*
X11577892Y-12579722D01*
X11568677Y-12578509D01*
X11565551Y-12577671D01*
X11556508Y-12573926D01*
X11553705Y-12572307D01*
X11545940Y-12566349D01*
X11543651Y-12564060D01*
X11537692Y-12556295D01*
X11536074Y-12553492D01*
X11532328Y-12544449D01*
X11531491Y-12541322D01*
X11530106Y-12530806D01*
X11530000Y-12529187D01*
X11530000Y-11781523D01*
X11530106Y-11779905D01*
X11531491Y-11769388D01*
X11532328Y-11766262D01*
X11536074Y-11757219D01*
X11537692Y-11754416D01*
X11544150Y-11746000D01*
X11545219Y-11744781D01*
X11705355Y-11584645D01*
X11720000Y-11570000D01*
X11720000Y-10270974D01*
X11720101Y-10269393D01*
X11721423Y-10259113D01*
X11722223Y-10256054D01*
X11725802Y-10247185D01*
X11727350Y-10244428D01*
X11733535Y-10236110D01*
X11734557Y-10234904D01*
X11975992Y-9984527D01*
X11975992Y-9984527D01*
X11990000Y-9970000D01*
X11990000Y-9390000D01*
X11855220Y-9255220D01*
X11854150Y-9254000D01*
X11847692Y-9245584D01*
X11846074Y-9242781D01*
X11842328Y-9233738D01*
X11841491Y-9230612D01*
X11840106Y-9220095D01*
X11840000Y-9218477D01*
X11840000Y-9011523D01*
X11840106Y-9009905D01*
X11841491Y-8999388D01*
X11841491Y-8999388D01*
X11842328Y-8996262D01*
X11846074Y-8987219D01*
X11847692Y-8984416D01*
X11854150Y-8976000D01*
X11855219Y-8974781D01*
X11975355Y-8854645D01*
X11990000Y-8840000D01*
X11990000Y-6330812D01*
X11990106Y-6329194D01*
X11991491Y-6318678D01*
X11991491Y-6318677D01*
X11992328Y-6315551D01*
X11996074Y-6306508D01*
X11997692Y-6303705D01*
X12003651Y-6295939D01*
X12005939Y-6293651D01*
X12013705Y-6287692D01*
X12016508Y-6286074D01*
X12025551Y-6282328D01*
X12028677Y-6281491D01*
X12039194Y-6280106D01*
X12040813Y-6280000D01*
X12239187Y-6280000D01*
X12240806Y-6280106D01*
G37*
%TD.AperFunction*%
%TD*%
%TA.AperFunction,Conductor*%
%TO.N,Net-(BT1--)*%
G36*
X12549195Y-5920061D02*
G01*
X12566853Y-5921800D01*
X12569275Y-5922281D01*
X12585660Y-5927252D01*
X12587941Y-5928197D01*
X12603041Y-5936268D01*
X12605095Y-5937640D01*
X12618811Y-5948897D01*
X12619726Y-5949726D01*
X12650000Y-5980000D01*
X16680742Y-5980000D01*
X16700000Y-5980000D01*
X16700000Y-5980000D01*
X16773223Y-5950711D01*
X16775000Y-5950000D01*
X16831564Y-5927374D01*
X16832694Y-5926984D01*
X16849194Y-5922143D01*
X16851544Y-5921690D01*
X16868661Y-5920057D01*
X16869858Y-5920000D01*
X17009381Y-5920000D01*
X17010616Y-5920061D01*
X17028274Y-5921800D01*
X17030696Y-5922281D01*
X17047082Y-5927252D01*
X17049362Y-5928197D01*
X17061915Y-5934906D01*
X17064463Y-5936268D01*
X17066517Y-5937640D01*
X17079751Y-5948502D01*
X17081498Y-5950248D01*
X17092360Y-5963483D01*
X17093732Y-5965537D01*
X17099218Y-5975801D01*
X17101462Y-5980000D01*
X17101803Y-5980637D01*
X17102748Y-5982919D01*
X17107718Y-5999304D01*
X17108200Y-6001726D01*
X17109939Y-6019384D01*
X17110000Y-6020619D01*
X17110000Y-6107960D01*
X17109939Y-6109195D01*
X17108200Y-6126852D01*
X17107718Y-6129275D01*
X17102748Y-6145659D01*
X17101803Y-6147942D01*
X17093732Y-6163041D01*
X17092360Y-6165095D01*
X17081103Y-6178811D01*
X17080273Y-6179727D01*
X17009727Y-6250272D01*
X17008811Y-6251103D01*
X16995095Y-6262360D01*
X16993041Y-6263732D01*
X16977942Y-6271803D01*
X16975660Y-6272748D01*
X16959275Y-6277718D01*
X16956853Y-6278200D01*
X16941964Y-6279666D01*
X16939195Y-6279939D01*
X16937960Y-6280000D01*
X12441141Y-6280000D01*
X12439489Y-6279891D01*
X12423909Y-6277831D01*
X12420720Y-6276973D01*
X12406984Y-6271256D01*
X12404127Y-6269598D01*
X12392348Y-6260508D01*
X12390021Y-6258165D01*
X12380502Y-6245659D01*
X12379588Y-6244280D01*
X12373531Y-6233679D01*
X12373531Y-6233679D01*
X12360000Y-6210000D01*
X12325719Y-6190411D01*
X12324340Y-6189497D01*
X12311835Y-6179979D01*
X12309492Y-6177652D01*
X12300401Y-6165873D01*
X12298744Y-6163016D01*
X12293027Y-6149280D01*
X12292169Y-6146091D01*
X12290109Y-6130511D01*
X12290000Y-6128859D01*
X12290000Y-6020619D01*
X12290061Y-6019384D01*
X12291800Y-6001726D01*
X12291800Y-6001725D01*
X12292281Y-5999304D01*
X12297252Y-5982918D01*
X12298196Y-5980638D01*
X12306268Y-5965537D01*
X12307640Y-5963484D01*
X12318502Y-5950248D01*
X12320248Y-5948502D01*
X12333484Y-5937640D01*
X12335537Y-5936268D01*
X12350638Y-5928196D01*
X12352918Y-5927252D01*
X12369304Y-5922281D01*
X12371726Y-5921800D01*
X12389384Y-5920061D01*
X12390619Y-5920000D01*
X12547960Y-5920000D01*
X12549195Y-5920061D01*
G37*
%TD.AperFunction*%
%TD*%
%TA.AperFunction,Conductor*%
%TO.N,GND*%
G36*
X17947783Y-5852217D02*
G01*
X17949950Y-5857450D01*
X17949950Y-12363255D01*
X17947783Y-12368487D01*
X17942550Y-12370655D01*
X17937317Y-12368487D01*
X17935402Y-12365170D01*
X17929723Y-12343974D01*
X17922193Y-12325795D01*
X17920063Y-12320655D01*
X17907443Y-12298795D01*
X17892077Y-12278771D01*
X17874229Y-12260923D01*
X17854205Y-12245557D01*
X17854205Y-12245557D01*
X17854205Y-12245557D01*
X17843398Y-12239318D01*
X17832345Y-12232937D01*
X17832345Y-12232936D01*
X17832345Y-12232936D01*
X17809026Y-12223277D01*
X17784645Y-12216744D01*
X17766209Y-12214317D01*
X17759620Y-12213450D01*
X17734380Y-12213450D01*
X17728557Y-12214216D01*
X17709355Y-12216744D01*
X17684974Y-12223277D01*
X17661655Y-12232936D01*
X17661655Y-12232937D01*
X17639795Y-12245557D01*
X17623296Y-12258217D01*
X17620908Y-12260050D01*
X17619770Y-12260923D01*
X17601923Y-12278770D01*
X17586557Y-12298795D01*
X17573937Y-12320655D01*
X17573937Y-12320655D01*
X17564277Y-12343974D01*
X17557745Y-12368355D01*
X17554450Y-12393380D01*
X17554450Y-12418620D01*
X17557745Y-12443645D01*
X17564277Y-12468026D01*
X17573515Y-12490327D01*
X17573937Y-12491345D01*
X17576062Y-12495026D01*
X17584678Y-12509950D01*
X17586557Y-12513205D01*
X17601923Y-12533229D01*
X17619771Y-12551077D01*
X17639795Y-12566443D01*
X17661655Y-12579063D01*
X17684974Y-12588723D01*
X17709355Y-12595255D01*
X17734380Y-12598550D01*
X17734380Y-12598550D01*
X17759620Y-12598550D01*
X17759620Y-12598550D01*
X17784645Y-12595255D01*
X17809026Y-12588723D01*
X17832345Y-12579063D01*
X17854205Y-12566443D01*
X17874229Y-12551077D01*
X17892077Y-12533229D01*
X17907443Y-12513205D01*
X17920063Y-12491345D01*
X17929723Y-12468026D01*
X17935402Y-12446830D01*
X17938850Y-12442336D01*
X17944465Y-12441597D01*
X17948959Y-12445045D01*
X17949950Y-12448745D01*
X17949950Y-14369417D01*
X17949859Y-14370575D01*
X17949859Y-14370575D01*
X17948667Y-14378097D01*
X17947952Y-14380299D01*
X17944762Y-14386560D01*
X17943401Y-14388433D01*
X17938433Y-14393401D01*
X17936560Y-14394762D01*
X17930299Y-14397952D01*
X17928097Y-14398667D01*
X17922375Y-14399574D01*
X17920575Y-14399859D01*
X17919418Y-14399950D01*
X16132300Y-14399950D01*
X16127067Y-14397783D01*
X16124900Y-14392550D01*
X16124900Y-14058410D01*
X16259950Y-14058410D01*
X16259950Y-14071589D01*
X16263361Y-14084318D01*
X16263361Y-14084318D01*
X16263361Y-14084319D01*
X16269950Y-14095731D01*
X16279269Y-14105050D01*
X16290681Y-14111639D01*
X16303410Y-14115050D01*
X16303411Y-14115050D01*
X16303411Y-14115050D01*
X16316589Y-14115050D01*
X16316589Y-14115050D01*
X16329319Y-14111639D01*
X16340731Y-14105050D01*
X16350050Y-14095731D01*
X16356639Y-14084319D01*
X16360050Y-14071589D01*
X16360050Y-14071589D01*
X16360050Y-14058411D01*
X16360050Y-14058410D01*
X16959950Y-14058410D01*
X16959950Y-14071589D01*
X16963361Y-14084318D01*
X16963361Y-14084318D01*
X16963361Y-14084319D01*
X16969950Y-14095731D01*
X16979269Y-14105050D01*
X16990681Y-14111639D01*
X17003411Y-14115050D01*
X17003411Y-14115050D01*
X17003411Y-14115050D01*
X17016589Y-14115050D01*
X17016589Y-14115050D01*
X17029319Y-14111639D01*
X17040731Y-14105050D01*
X17050050Y-14095731D01*
X17056639Y-14084319D01*
X17060050Y-14071589D01*
X17060050Y-14071589D01*
X17060050Y-14058411D01*
X17060050Y-14058410D01*
X17659950Y-14058410D01*
X17659950Y-14071589D01*
X17663361Y-14084318D01*
X17663361Y-14084318D01*
X17663361Y-14084319D01*
X17669950Y-14095731D01*
X17679269Y-14105050D01*
X17690681Y-14111639D01*
X17703411Y-14115050D01*
X17703411Y-14115050D01*
X17703411Y-14115050D01*
X17716589Y-14115050D01*
X17716589Y-14115050D01*
X17729319Y-14111639D01*
X17740731Y-14105050D01*
X17750050Y-14095731D01*
X17756639Y-14084319D01*
X17760050Y-14071589D01*
X17760050Y-14071589D01*
X17760050Y-14058411D01*
X17760050Y-14058410D01*
X17756639Y-14045682D01*
X17756639Y-14045681D01*
X17750050Y-14034269D01*
X17740731Y-14024950D01*
X17729319Y-14018361D01*
X17729318Y-14018361D01*
X17716589Y-14014950D01*
X17716589Y-14014950D01*
X17703411Y-14014950D01*
X17703411Y-14014950D01*
X17690682Y-14018361D01*
X17690681Y-14018361D01*
X17679269Y-14024950D01*
X17669950Y-14034268D01*
X17663361Y-14045681D01*
X17663361Y-14045682D01*
X17659950Y-14058410D01*
X17060050Y-14058410D01*
X17056639Y-14045682D01*
X17056639Y-14045681D01*
X17050050Y-14034269D01*
X17040731Y-14024950D01*
X17029319Y-14018361D01*
X17029318Y-14018361D01*
X17016589Y-14014950D01*
X17016589Y-14014950D01*
X17003411Y-14014950D01*
X17003411Y-14014950D01*
X16990682Y-14018361D01*
X16990681Y-14018361D01*
X16979269Y-14024950D01*
X16969950Y-14034268D01*
X16963361Y-14045681D01*
X16963361Y-14045682D01*
X16959950Y-14058410D01*
X16360050Y-14058410D01*
X16356639Y-14045682D01*
X16356639Y-14045681D01*
X16350050Y-14034269D01*
X16340731Y-14024950D01*
X16329319Y-14018361D01*
X16329318Y-14018361D01*
X16316589Y-14014950D01*
X16316589Y-14014950D01*
X16303411Y-14014950D01*
X16303411Y-14014950D01*
X16290682Y-14018361D01*
X16290681Y-14018361D01*
X16279268Y-14024950D01*
X16269950Y-14034268D01*
X16263361Y-14045681D01*
X16263361Y-14045682D01*
X16259950Y-14058410D01*
X16124900Y-14058410D01*
X16124900Y-13843410D01*
X16248700Y-13843410D01*
X16248700Y-13856589D01*
X16252110Y-13869318D01*
X16252110Y-13869318D01*
X16252111Y-13869319D01*
X16258700Y-13880731D01*
X16268018Y-13890050D01*
X16279431Y-13896639D01*
X16292160Y-13900050D01*
X16292160Y-13900050D01*
X16292161Y-13900050D01*
X16305339Y-13900050D01*
X16305339Y-13900050D01*
X16318068Y-13896639D01*
X16329481Y-13890050D01*
X16338800Y-13880731D01*
X16345389Y-13869319D01*
X16348800Y-13856589D01*
X16348800Y-13856589D01*
X16348800Y-13843411D01*
X16348800Y-13843410D01*
X16948700Y-13843410D01*
X16948700Y-13856589D01*
X16952110Y-13869318D01*
X16952111Y-13869318D01*
X16952111Y-13869319D01*
X16958700Y-13880731D01*
X16968018Y-13890050D01*
X16979431Y-13896639D01*
X16992160Y-13900050D01*
X16992160Y-13900050D01*
X16992161Y-13900050D01*
X17005339Y-13900050D01*
X17005339Y-13900050D01*
X17018068Y-13896639D01*
X17029481Y-13890050D01*
X17038800Y-13880731D01*
X17045389Y-13869319D01*
X17048800Y-13856589D01*
X17048800Y-13856589D01*
X17048800Y-13843411D01*
X17047676Y-13839216D01*
X17047676Y-13839216D01*
X17047293Y-13837785D01*
X17654325Y-13837785D01*
X17654325Y-13850964D01*
X17657736Y-13863693D01*
X17657736Y-13863693D01*
X17657736Y-13863694D01*
X17664325Y-13875106D01*
X17673644Y-13884425D01*
X17685056Y-13891014D01*
X17697786Y-13894425D01*
X17697786Y-13894425D01*
X17697786Y-13894425D01*
X17710964Y-13894425D01*
X17710964Y-13894425D01*
X17723694Y-13891014D01*
X17735106Y-13884425D01*
X17744425Y-13875106D01*
X17751014Y-13863694D01*
X17754425Y-13850964D01*
X17754425Y-13850964D01*
X17754425Y-13837786D01*
X17754425Y-13837785D01*
X17751014Y-13825057D01*
X17751014Y-13825056D01*
X17744425Y-13813644D01*
X17735106Y-13804325D01*
X17727529Y-13799950D01*
X17723694Y-13797736D01*
X17723693Y-13797736D01*
X17710964Y-13794325D01*
X17710964Y-13794325D01*
X17697786Y-13794325D01*
X17697786Y-13794325D01*
X17685057Y-13797736D01*
X17685056Y-13797736D01*
X17673644Y-13804325D01*
X17664325Y-13813643D01*
X17657736Y-13825056D01*
X17657736Y-13825057D01*
X17654325Y-13837785D01*
X17047293Y-13837785D01*
X17045389Y-13830682D01*
X17045389Y-13830681D01*
X17038800Y-13819269D01*
X17029481Y-13809950D01*
X17018069Y-13803361D01*
X17018068Y-13803361D01*
X17005339Y-13799950D01*
X17005339Y-13799950D01*
X16992161Y-13799950D01*
X16992160Y-13799950D01*
X16979432Y-13803361D01*
X16979431Y-13803361D01*
X16968018Y-13809950D01*
X16958700Y-13819268D01*
X16952111Y-13830681D01*
X16952110Y-13830682D01*
X16948700Y-13843410D01*
X16348800Y-13843410D01*
X16347676Y-13839216D01*
X16345389Y-13830681D01*
X16338800Y-13819269D01*
X16329481Y-13809950D01*
X16318069Y-13803361D01*
X16318068Y-13803361D01*
X16305339Y-13799950D01*
X16305339Y-13799950D01*
X16292161Y-13799950D01*
X16292160Y-13799950D01*
X16279432Y-13803361D01*
X16279431Y-13803361D01*
X16268018Y-13809950D01*
X16258700Y-13819268D01*
X16252111Y-13830681D01*
X16252110Y-13830682D01*
X16248700Y-13843410D01*
X16124900Y-13843410D01*
X16124900Y-13833900D01*
X16124900Y-13833900D01*
X13274900Y-13833500D01*
X13274900Y-14392550D01*
X13272733Y-14397783D01*
X13267500Y-14399950D01*
X11480582Y-14399950D01*
X11479425Y-14399859D01*
X11477224Y-14399510D01*
X11471902Y-14398667D01*
X11469701Y-14397952D01*
X11463440Y-14394762D01*
X11461567Y-14393401D01*
X11456599Y-14388433D01*
X11455238Y-14386560D01*
X11452048Y-14380299D01*
X11451332Y-14378097D01*
X11450141Y-14370575D01*
X11450050Y-14369417D01*
X11450050Y-14232094D01*
X12557450Y-14232094D01*
X12557450Y-14247906D01*
X12561542Y-14263178D01*
X12561542Y-14263178D01*
X12561542Y-14263178D01*
X12569448Y-14276872D01*
X12580628Y-14288052D01*
X12594322Y-14295958D01*
X12609594Y-14300050D01*
X12609594Y-14300050D01*
X12609594Y-14300050D01*
X12625406Y-14300050D01*
X12625406Y-14300050D01*
X12640678Y-14295958D01*
X12654372Y-14288052D01*
X12665552Y-14276872D01*
X12673458Y-14263178D01*
X12677550Y-14247906D01*
X12677550Y-14247906D01*
X12677550Y-14232094D01*
X12677550Y-14232094D01*
X12857450Y-14232094D01*
X12857450Y-14247906D01*
X12861542Y-14263178D01*
X12861542Y-14263178D01*
X12861542Y-14263178D01*
X12869448Y-14276872D01*
X12880628Y-14288052D01*
X12894322Y-14295958D01*
X12909594Y-14300050D01*
X12909594Y-14300050D01*
X12909594Y-14300050D01*
X12925406Y-14300050D01*
X12925406Y-14300050D01*
X12940678Y-14295958D01*
X12954372Y-14288052D01*
X12965552Y-14276872D01*
X12973458Y-14263178D01*
X12977550Y-14247906D01*
X12977550Y-14247906D01*
X12977550Y-14232094D01*
X12977550Y-14232094D01*
X12973458Y-14216822D01*
X12973458Y-14216822D01*
X12965552Y-14203128D01*
X12954372Y-14191948D01*
X12940678Y-14184042D01*
X12940678Y-14184042D01*
X12940678Y-14184042D01*
X12925406Y-14179950D01*
X12925406Y-14179950D01*
X12909594Y-14179950D01*
X12909594Y-14179950D01*
X12894322Y-14184042D01*
X12894321Y-14184042D01*
X12880628Y-14191948D01*
X12869448Y-14203128D01*
X12861542Y-14216821D01*
X12861542Y-14216822D01*
X12857450Y-14232094D01*
X12677550Y-14232094D01*
X12673458Y-14216822D01*
X12673458Y-14216822D01*
X12665552Y-14203128D01*
X12654372Y-14191948D01*
X12640678Y-14184042D01*
X12640678Y-14184042D01*
X12640678Y-14184042D01*
X12625406Y-14179950D01*
X12625406Y-14179950D01*
X12609594Y-14179950D01*
X12609594Y-14179950D01*
X12594322Y-14184042D01*
X12594321Y-14184042D01*
X12580628Y-14191948D01*
X12569448Y-14203128D01*
X12561542Y-14216821D01*
X12561542Y-14216822D01*
X12557450Y-14232094D01*
X11450050Y-14232094D01*
X11450050Y-13918410D01*
X11789950Y-13918410D01*
X11789950Y-13931589D01*
X11793361Y-13944318D01*
X11793361Y-13944318D01*
X11793361Y-13944319D01*
X11799950Y-13955731D01*
X11809269Y-13965050D01*
X11820681Y-13971639D01*
X11833410Y-13975050D01*
X11833411Y-13975050D01*
X11833411Y-13975050D01*
X11846589Y-13975050D01*
X11846589Y-13975050D01*
X11859319Y-13971639D01*
X11870731Y-13965050D01*
X11880050Y-13955731D01*
X11886639Y-13944319D01*
X11890050Y-13931589D01*
X11890050Y-13931589D01*
X11890050Y-13921160D01*
X12200200Y-13921160D01*
X12200200Y-13934339D01*
X12203611Y-13947068D01*
X12203611Y-13947068D01*
X12203611Y-13947069D01*
X12210200Y-13958481D01*
X12219519Y-13967800D01*
X12230931Y-13974389D01*
X12243660Y-13977800D01*
X12243661Y-13977800D01*
X12243661Y-13977800D01*
X12256839Y-13977800D01*
X12256839Y-13977800D01*
X12269569Y-13974389D01*
X12280981Y-13967800D01*
X12290300Y-13958481D01*
X12296889Y-13947069D01*
X12300300Y-13934339D01*
X12300300Y-13934339D01*
X12300300Y-13921161D01*
X12300300Y-13921160D01*
X12299563Y-13918410D01*
X12296889Y-13908431D01*
X12290300Y-13897019D01*
X12280981Y-13887700D01*
X12276218Y-13884950D01*
X12269569Y-13881111D01*
X12269568Y-13881111D01*
X12256839Y-13877700D01*
X12256839Y-13877700D01*
X12243661Y-13877700D01*
X12243661Y-13877700D01*
X12230932Y-13881111D01*
X12230931Y-13881111D01*
X12219518Y-13887700D01*
X12210200Y-13897018D01*
X12203611Y-13908431D01*
X12203611Y-13908432D01*
X12200200Y-13921160D01*
X11890050Y-13921160D01*
X11890050Y-13918411D01*
X11890050Y-13918410D01*
X11887376Y-13908431D01*
X11886639Y-13905681D01*
X11880050Y-13894269D01*
X11870731Y-13884950D01*
X11864082Y-13881111D01*
X11859319Y-13878361D01*
X11859318Y-13878361D01*
X11846589Y-13874950D01*
X11846589Y-13874950D01*
X11833411Y-13874950D01*
X11833411Y-13874950D01*
X11820682Y-13878361D01*
X11820681Y-13878361D01*
X11809268Y-13884950D01*
X11799950Y-13894268D01*
X11793361Y-13905681D01*
X11793361Y-13905682D01*
X11789950Y-13918410D01*
X11450050Y-13918410D01*
X11450050Y-13672960D01*
X12409950Y-13672960D01*
X12409950Y-13686139D01*
X12413360Y-13698868D01*
X12413360Y-13698868D01*
X12413360Y-13698869D01*
X12419950Y-13710281D01*
X12429268Y-13719600D01*
X12440681Y-13726189D01*
X12453410Y-13729600D01*
X12453410Y-13729600D01*
X12453410Y-13729600D01*
X12466589Y-13729600D01*
X12466589Y-13729600D01*
X12479318Y-13726189D01*
X12490731Y-13719600D01*
X12500050Y-13710281D01*
X12506639Y-13698869D01*
X12510049Y-13686139D01*
X12510050Y-13686139D01*
X12510050Y-13672961D01*
X12510049Y-13672960D01*
X12506639Y-13660232D01*
X12506639Y-13660231D01*
X12500050Y-13648819D01*
X12490731Y-13639500D01*
X12481916Y-13634411D01*
X12481916Y-13634410D01*
X13160950Y-13634410D01*
X13160950Y-13647589D01*
X13164361Y-13660318D01*
X13164361Y-13660318D01*
X13164361Y-13660319D01*
X13170950Y-13671731D01*
X13180269Y-13681050D01*
X13191681Y-13687639D01*
X13204410Y-13691050D01*
X13204411Y-13691050D01*
X13204411Y-13691050D01*
X13217589Y-13691050D01*
X13217589Y-13691050D01*
X13230319Y-13687639D01*
X13241731Y-13681050D01*
X13251050Y-13671731D01*
X13257639Y-13660319D01*
X13261050Y-13647589D01*
X13261050Y-13647589D01*
X13261050Y-13634411D01*
X13261050Y-13634410D01*
X13257639Y-13621682D01*
X13257639Y-13621681D01*
X13251050Y-13610269D01*
X13241731Y-13600950D01*
X13231679Y-13595146D01*
X13230319Y-13594361D01*
X13230318Y-13594361D01*
X13217589Y-13590950D01*
X13217589Y-13590950D01*
X13204411Y-13590950D01*
X13204411Y-13590950D01*
X13191682Y-13594361D01*
X13191681Y-13594361D01*
X13180268Y-13600950D01*
X13170950Y-13610268D01*
X13164361Y-13621681D01*
X13164361Y-13621682D01*
X13160950Y-13634410D01*
X12481916Y-13634410D01*
X12479319Y-13632911D01*
X12479318Y-13632911D01*
X12466589Y-13629500D01*
X12466589Y-13629500D01*
X12453410Y-13629500D01*
X12453410Y-13629500D01*
X12440681Y-13632911D01*
X12440680Y-13632911D01*
X12429268Y-13639500D01*
X12419950Y-13648818D01*
X12413361Y-13660231D01*
X12413360Y-13660232D01*
X12409950Y-13672960D01*
X11450050Y-13672960D01*
X11450050Y-13563410D01*
X15658950Y-13563410D01*
X15658950Y-13576589D01*
X15662361Y-13589318D01*
X15662361Y-13589318D01*
X15662361Y-13589319D01*
X15668950Y-13600731D01*
X15678269Y-13610050D01*
X15689681Y-13616639D01*
X15702410Y-13620050D01*
X15702411Y-13620050D01*
X15702411Y-13620050D01*
X15715589Y-13620050D01*
X15715589Y-13620050D01*
X15728319Y-13616639D01*
X15739731Y-13610050D01*
X15749050Y-13600731D01*
X15755639Y-13589319D01*
X15759050Y-13576589D01*
X15759050Y-13576589D01*
X15759050Y-13563411D01*
X15759050Y-13563410D01*
X15757437Y-13557392D01*
X15755639Y-13550681D01*
X15751547Y-13543593D01*
X17454457Y-13543593D01*
X17454457Y-13557392D01*
X17457149Y-13570925D01*
X17457150Y-13570926D01*
X17462430Y-13583673D01*
X17469571Y-13594361D01*
X17470096Y-13595147D01*
X17479853Y-13604904D01*
X17491326Y-13612570D01*
X17491326Y-13612570D01*
X17491327Y-13612570D01*
X17504074Y-13617850D01*
X17504075Y-13617851D01*
X17517608Y-13620543D01*
X17517608Y-13620543D01*
X17531407Y-13620543D01*
X17531407Y-13620543D01*
X17544940Y-13617851D01*
X17557689Y-13612570D01*
X17569162Y-13604904D01*
X17578919Y-13595147D01*
X17586585Y-13583674D01*
X17591865Y-13570925D01*
X17594557Y-13557392D01*
X17594557Y-13543593D01*
X17591865Y-13530060D01*
X17586585Y-13517311D01*
X17578919Y-13505838D01*
X17569162Y-13496081D01*
X17557689Y-13488415D01*
X17557688Y-13488415D01*
X17557688Y-13488415D01*
X17544941Y-13483135D01*
X17544940Y-13483134D01*
X17535877Y-13481332D01*
X17531407Y-13480443D01*
X17517608Y-13480443D01*
X17513772Y-13481206D01*
X17504075Y-13483134D01*
X17504074Y-13483135D01*
X17491327Y-13488415D01*
X17479854Y-13496081D01*
X17470096Y-13505839D01*
X17462430Y-13517312D01*
X17457150Y-13530059D01*
X17457149Y-13530060D01*
X17454457Y-13543593D01*
X15751547Y-13543593D01*
X15749050Y-13539269D01*
X15739731Y-13529950D01*
X15728319Y-13523361D01*
X15728318Y-13523361D01*
X15715589Y-13519950D01*
X15715589Y-13519950D01*
X15702411Y-13519950D01*
X15702411Y-13519950D01*
X15689682Y-13523361D01*
X15689681Y-13523361D01*
X15678268Y-13529950D01*
X15668950Y-13539268D01*
X15662361Y-13550681D01*
X15662361Y-13550682D01*
X15658950Y-13563410D01*
X11450050Y-13563410D01*
X11450050Y-13497410D01*
X14255950Y-13497410D01*
X14255950Y-13510589D01*
X14259361Y-13523318D01*
X14259361Y-13523319D01*
X14263253Y-13530060D01*
X14265950Y-13534731D01*
X14275269Y-13544050D01*
X14286681Y-13550639D01*
X14299411Y-13554050D01*
X14299411Y-13554050D01*
X14299411Y-13554050D01*
X14312589Y-13554050D01*
X14312589Y-13554050D01*
X14325319Y-13550639D01*
X14336731Y-13544050D01*
X14346050Y-13534731D01*
X14352639Y-13523319D01*
X14356050Y-13510589D01*
X14356050Y-13510589D01*
X14356050Y-13497411D01*
X14356050Y-13497410D01*
X14355694Y-13496081D01*
X14352639Y-13484681D01*
X14346050Y-13473269D01*
X14336731Y-13463950D01*
X14325319Y-13457361D01*
X14325318Y-13457361D01*
X14312589Y-13453950D01*
X14312589Y-13453950D01*
X14299411Y-13453950D01*
X14299411Y-13453950D01*
X14286682Y-13457361D01*
X14286681Y-13457361D01*
X14275269Y-13463950D01*
X14265950Y-13473268D01*
X14259361Y-13484681D01*
X14259361Y-13484682D01*
X14255950Y-13497410D01*
X11450050Y-13497410D01*
X11450050Y-13260411D01*
X11518450Y-13260411D01*
X11518450Y-13281589D01*
X11521763Y-13302507D01*
X11521763Y-13302508D01*
X11528307Y-13322648D01*
X11537922Y-13341519D01*
X11547665Y-13354929D01*
X11550371Y-13358653D01*
X11565346Y-13373629D01*
X11565347Y-13373629D01*
X11565347Y-13373629D01*
X11575943Y-13381328D01*
X11582480Y-13386077D01*
X11601351Y-13395692D01*
X11601351Y-13395692D01*
X11601351Y-13395693D01*
X11621492Y-13402237D01*
X11621492Y-13402237D01*
X11621493Y-13402237D01*
X11635438Y-13404446D01*
X11642411Y-13405550D01*
X11642411Y-13405550D01*
X11663589Y-13405550D01*
X11668819Y-13404722D01*
X11684507Y-13402237D01*
X11684508Y-13402237D01*
X11684508Y-13402237D01*
X11704648Y-13395693D01*
X11704649Y-13395692D01*
X11704649Y-13395692D01*
X11723520Y-13386077D01*
X11740653Y-13373629D01*
X11755629Y-13358653D01*
X11768077Y-13341520D01*
X11777692Y-13322649D01*
X11778374Y-13320550D01*
X11784237Y-13302508D01*
X11784237Y-13302508D01*
X11784237Y-13302507D01*
X11787550Y-13281589D01*
X11787550Y-13261630D01*
X12320950Y-13261630D01*
X12320950Y-13280369D01*
X12323881Y-13298877D01*
X12323882Y-13298879D01*
X12329672Y-13316699D01*
X12329672Y-13316699D01*
X12338179Y-13333396D01*
X12348826Y-13348050D01*
X12349194Y-13348556D01*
X12362444Y-13361806D01*
X12362444Y-13361806D01*
X12362444Y-13361806D01*
X12377604Y-13372821D01*
X12394301Y-13381328D01*
X12394301Y-13381328D01*
X12412121Y-13387118D01*
X12412122Y-13387118D01*
X12412122Y-13387119D01*
X12424317Y-13389050D01*
X12430630Y-13390050D01*
X12430631Y-13390050D01*
X12449369Y-13390050D01*
X12453996Y-13389317D01*
X12467878Y-13387119D01*
X12467878Y-13387118D01*
X12467879Y-13387118D01*
X12470057Y-13386410D01*
X12883950Y-13386410D01*
X12883950Y-13399589D01*
X12887361Y-13412318D01*
X12887361Y-13412319D01*
X12890823Y-13418315D01*
X12893950Y-13423731D01*
X12903269Y-13433050D01*
X12914681Y-13439639D01*
X12927410Y-13443050D01*
X12927411Y-13443050D01*
X12927411Y-13443050D01*
X12940589Y-13443050D01*
X12940589Y-13443050D01*
X12953319Y-13439639D01*
X12964731Y-13433050D01*
X12974050Y-13423731D01*
X12980639Y-13412319D01*
X12984050Y-13399589D01*
X12984050Y-13399589D01*
X12984050Y-13392407D01*
X13009950Y-13392407D01*
X13009950Y-13405585D01*
X13013360Y-13418314D01*
X13013360Y-13418314D01*
X13013360Y-13418315D01*
X13019950Y-13429727D01*
X13029268Y-13439046D01*
X13040681Y-13445635D01*
X13053410Y-13449046D01*
X13053410Y-13449046D01*
X13053410Y-13449046D01*
X13066589Y-13449046D01*
X13066589Y-13449046D01*
X13079318Y-13445635D01*
X13090731Y-13439046D01*
X13100050Y-13429727D01*
X13106639Y-13418315D01*
X13107775Y-13414076D01*
X13111222Y-13409583D01*
X13116837Y-13408843D01*
X13127008Y-13411568D01*
X13127008Y-13411568D01*
X13127008Y-13411568D01*
X13140186Y-13411568D01*
X13140186Y-13411568D01*
X13152916Y-13408158D01*
X13164328Y-13401568D01*
X13173647Y-13392250D01*
X13180236Y-13380837D01*
X13183647Y-13368108D01*
X13183647Y-13368108D01*
X13183647Y-13354929D01*
X13183647Y-13354929D01*
X13183117Y-13352950D01*
X13180236Y-13342200D01*
X13173647Y-13330787D01*
X13164328Y-13321468D01*
X13157140Y-13317318D01*
X13152916Y-13314879D01*
X13152915Y-13314879D01*
X13140186Y-13311468D01*
X13140186Y-13311468D01*
X13127008Y-13311468D01*
X13127008Y-13311468D01*
X13114279Y-13314879D01*
X13114278Y-13314879D01*
X13102866Y-13321468D01*
X13093547Y-13330787D01*
X13086958Y-13342200D01*
X13086958Y-13342200D01*
X13085822Y-13346439D01*
X13082374Y-13350932D01*
X13076759Y-13351671D01*
X13066589Y-13348946D01*
X13066589Y-13348946D01*
X13053410Y-13348946D01*
X13053410Y-13348946D01*
X13040681Y-13352357D01*
X13040681Y-13352357D01*
X13029268Y-13358946D01*
X13019950Y-13368265D01*
X13013361Y-13379677D01*
X13013360Y-13379678D01*
X13009950Y-13392407D01*
X12984050Y-13392407D01*
X12984050Y-13386411D01*
X12984050Y-13386410D01*
X12982688Y-13381328D01*
X12980639Y-13373681D01*
X12974050Y-13362269D01*
X12964731Y-13352950D01*
X12957121Y-13348556D01*
X12953319Y-13346361D01*
X12953318Y-13346361D01*
X12940589Y-13342950D01*
X12940589Y-13342950D01*
X12927411Y-13342950D01*
X12927411Y-13342950D01*
X12914682Y-13346361D01*
X12914681Y-13346361D01*
X12903268Y-13352950D01*
X12893950Y-13362268D01*
X12887361Y-13373681D01*
X12887361Y-13373682D01*
X12883950Y-13386410D01*
X12470057Y-13386410D01*
X12485699Y-13381328D01*
X12485699Y-13381328D01*
X12489616Y-13379332D01*
X12494977Y-13376600D01*
X12502396Y-13372821D01*
X12517556Y-13361806D01*
X12530806Y-13348556D01*
X12541821Y-13333396D01*
X12550328Y-13316699D01*
X12550653Y-13315699D01*
X12556118Y-13298879D01*
X12556118Y-13298878D01*
X12556119Y-13298878D01*
X12559050Y-13280369D01*
X12559050Y-13263911D01*
X12806450Y-13263911D01*
X12806450Y-13277090D01*
X12809860Y-13289818D01*
X12809861Y-13289819D01*
X12815091Y-13298879D01*
X12816450Y-13301232D01*
X12825768Y-13310550D01*
X12837181Y-13317139D01*
X12849910Y-13320550D01*
X12849910Y-13320550D01*
X12849910Y-13320550D01*
X12863089Y-13320550D01*
X12863089Y-13320550D01*
X12875818Y-13317139D01*
X12887231Y-13310550D01*
X12896550Y-13301232D01*
X12901065Y-13293410D01*
X13969950Y-13293410D01*
X13969950Y-13306589D01*
X13973361Y-13319318D01*
X13973361Y-13319319D01*
X13974072Y-13320550D01*
X13979950Y-13330731D01*
X13989269Y-13340050D01*
X14000681Y-13346639D01*
X14013410Y-13350050D01*
X14013411Y-13350050D01*
X14013411Y-13350050D01*
X14026589Y-13350050D01*
X14026589Y-13350050D01*
X14039319Y-13346639D01*
X14050731Y-13340050D01*
X14060050Y-13330731D01*
X14066639Y-13319319D01*
X14070050Y-13306589D01*
X14070050Y-13306589D01*
X14070050Y-13293411D01*
X14069897Y-13292841D01*
X14069897Y-13292841D01*
X14069514Y-13291410D01*
X14461950Y-13291410D01*
X14461950Y-13304589D01*
X14465361Y-13317318D01*
X14465361Y-13317319D01*
X14468438Y-13322648D01*
X14471950Y-13328731D01*
X14481269Y-13338050D01*
X14492682Y-13344639D01*
X14505411Y-13348050D01*
X14505411Y-13348050D01*
X14505411Y-13348050D01*
X14518590Y-13348050D01*
X14518590Y-13348050D01*
X14531319Y-13344639D01*
X14542732Y-13338050D01*
X14552050Y-13328731D01*
X14558639Y-13317319D01*
X14562050Y-13304589D01*
X14562050Y-13304589D01*
X14562050Y-13291411D01*
X14562050Y-13291410D01*
X14561624Y-13289819D01*
X14558639Y-13278681D01*
X14552050Y-13267269D01*
X14545412Y-13260630D01*
X16840950Y-13260630D01*
X16840950Y-13279369D01*
X16843881Y-13297877D01*
X16843882Y-13297879D01*
X16849672Y-13315699D01*
X16849672Y-13315699D01*
X16858179Y-13332396D01*
X16868528Y-13346639D01*
X16869194Y-13347556D01*
X16882444Y-13360806D01*
X16882444Y-13360806D01*
X16882445Y-13360806D01*
X16897604Y-13371821D01*
X16914301Y-13380328D01*
X16914301Y-13380328D01*
X16932121Y-13386118D01*
X16932122Y-13386118D01*
X16932122Y-13386119D01*
X16944461Y-13388073D01*
X16950631Y-13389050D01*
X16950631Y-13389050D01*
X16969370Y-13389050D01*
X16973996Y-13388317D01*
X16987878Y-13386119D01*
X16987878Y-13386118D01*
X16987879Y-13386118D01*
X17005699Y-13380328D01*
X17005699Y-13380328D01*
X17018744Y-13373681D01*
X17022396Y-13371821D01*
X17037556Y-13360806D01*
X17050806Y-13347556D01*
X17061821Y-13332396D01*
X17070328Y-13315699D01*
X17070594Y-13314879D01*
X17076118Y-13297879D01*
X17076118Y-13297878D01*
X17076119Y-13297878D01*
X17079050Y-13279369D01*
X17079050Y-13260631D01*
X17076119Y-13242122D01*
X17076118Y-13242122D01*
X17076118Y-13242121D01*
X17070328Y-13224301D01*
X17070328Y-13224301D01*
X17061821Y-13207604D01*
X17050807Y-13192444D01*
X17050806Y-13192444D01*
X17050806Y-13192444D01*
X17037556Y-13179194D01*
X17037556Y-13179193D01*
X17037555Y-13179193D01*
X17022396Y-13168179D01*
X17005699Y-13159672D01*
X17005699Y-13159672D01*
X16987879Y-13153882D01*
X16987877Y-13153881D01*
X16969370Y-13150950D01*
X16969369Y-13150950D01*
X16950631Y-13150950D01*
X16950631Y-13150950D01*
X16932123Y-13153881D01*
X16932121Y-13153882D01*
X16914301Y-13159672D01*
X16914301Y-13159672D01*
X16897604Y-13168179D01*
X16882445Y-13179193D01*
X16869193Y-13192444D01*
X16858179Y-13207604D01*
X16849672Y-13224301D01*
X16849672Y-13224301D01*
X16843882Y-13242121D01*
X16843881Y-13242123D01*
X16840950Y-13260630D01*
X14545412Y-13260630D01*
X14542732Y-13257950D01*
X14531319Y-13251361D01*
X14531318Y-13251361D01*
X14518590Y-13247950D01*
X14518589Y-13247950D01*
X14505411Y-13247950D01*
X14505411Y-13247950D01*
X14492682Y-13251361D01*
X14492681Y-13251361D01*
X14481269Y-13257950D01*
X14471950Y-13267268D01*
X14465361Y-13278681D01*
X14465361Y-13278682D01*
X14461950Y-13291410D01*
X14069514Y-13291410D01*
X14066639Y-13280682D01*
X14066639Y-13280681D01*
X14060050Y-13269269D01*
X14050731Y-13259950D01*
X14047267Y-13257950D01*
X14039319Y-13253361D01*
X14039318Y-13253361D01*
X14026589Y-13249950D01*
X14026589Y-13249950D01*
X14013411Y-13249950D01*
X14013411Y-13249950D01*
X14000682Y-13253361D01*
X14000681Y-13253361D01*
X13989268Y-13259950D01*
X13979950Y-13269268D01*
X13973361Y-13280681D01*
X13973361Y-13280682D01*
X13969950Y-13293410D01*
X12901065Y-13293410D01*
X12903139Y-13289819D01*
X12906550Y-13277090D01*
X12906550Y-13277090D01*
X12906550Y-13263911D01*
X12906550Y-13263911D01*
X12905612Y-13260411D01*
X12903139Y-13251182D01*
X12896550Y-13239769D01*
X12887231Y-13230450D01*
X12885986Y-13229731D01*
X12875819Y-13223861D01*
X12875818Y-13223861D01*
X12863089Y-13220450D01*
X12863089Y-13220450D01*
X12849910Y-13220450D01*
X12849910Y-13220450D01*
X12837181Y-13223861D01*
X12837181Y-13223861D01*
X12825768Y-13230450D01*
X12816450Y-13239769D01*
X12809861Y-13251181D01*
X12809860Y-13251182D01*
X12806450Y-13263911D01*
X12559050Y-13263911D01*
X12559050Y-13261631D01*
X12556119Y-13243122D01*
X12556118Y-13243122D01*
X12556118Y-13243121D01*
X12550328Y-13225301D01*
X12550328Y-13225301D01*
X12541821Y-13208604D01*
X12530806Y-13193444D01*
X12530806Y-13193444D01*
X12530806Y-13193444D01*
X12517556Y-13180194D01*
X12517556Y-13180193D01*
X12517555Y-13180193D01*
X12502396Y-13169179D01*
X12485699Y-13160672D01*
X12485699Y-13160672D01*
X12483519Y-13159964D01*
X12483519Y-13159964D01*
X12467878Y-13154881D01*
X12467877Y-13154881D01*
X12458591Y-13153410D01*
X13340000Y-13153410D01*
X13340000Y-13166589D01*
X13343411Y-13179318D01*
X13343411Y-13179319D01*
X13345745Y-13183361D01*
X13350000Y-13190731D01*
X13359319Y-13200050D01*
X13370731Y-13206639D01*
X13383460Y-13210050D01*
X13383461Y-13210050D01*
X13393886Y-13210050D01*
X13399119Y-13212217D01*
X13401286Y-13217450D01*
X13401034Y-13219365D01*
X13399950Y-13223411D01*
X13399950Y-13236589D01*
X13403361Y-13249318D01*
X13403361Y-13249319D01*
X13409499Y-13259950D01*
X13409950Y-13260731D01*
X13419269Y-13270050D01*
X13430681Y-13276639D01*
X13443410Y-13280050D01*
X13443411Y-13280050D01*
X13443411Y-13280050D01*
X13456589Y-13280050D01*
X13456589Y-13280050D01*
X13469319Y-13276639D01*
X13480731Y-13270050D01*
X13490050Y-13260731D01*
X13496639Y-13249319D01*
X13500050Y-13236589D01*
X13500050Y-13236589D01*
X13500050Y-13223411D01*
X13500050Y-13223410D01*
X13498685Y-13218319D01*
X13496639Y-13210681D01*
X13490050Y-13199269D01*
X13483192Y-13192410D01*
X13900950Y-13192410D01*
X13900950Y-13205589D01*
X13904361Y-13218318D01*
X13904361Y-13218319D01*
X13910950Y-13229731D01*
X13920269Y-13239050D01*
X13931681Y-13245639D01*
X13944410Y-13249050D01*
X13944411Y-13249050D01*
X13944411Y-13249050D01*
X13957589Y-13249050D01*
X13957589Y-13249050D01*
X13970319Y-13245639D01*
X13981731Y-13239050D01*
X13991050Y-13229731D01*
X13997639Y-13218319D01*
X14001050Y-13205589D01*
X14001050Y-13205589D01*
X14001050Y-13192411D01*
X14001050Y-13192410D01*
X13998621Y-13183347D01*
X13997639Y-13179681D01*
X13991050Y-13168269D01*
X13981731Y-13158950D01*
X13977728Y-13156639D01*
X13970319Y-13152361D01*
X13970318Y-13152361D01*
X13957589Y-13148950D01*
X13957589Y-13148950D01*
X13944411Y-13148950D01*
X13944411Y-13148950D01*
X13931682Y-13152361D01*
X13931681Y-13152361D01*
X13920268Y-13158950D01*
X13910950Y-13168268D01*
X13904361Y-13179681D01*
X13904361Y-13179682D01*
X13900950Y-13192410D01*
X13483192Y-13192410D01*
X13480731Y-13189950D01*
X13469319Y-13183361D01*
X13469318Y-13183361D01*
X13456589Y-13179950D01*
X13456589Y-13179950D01*
X13446164Y-13179950D01*
X13440931Y-13177783D01*
X13438764Y-13172550D01*
X13439016Y-13170635D01*
X13440100Y-13166589D01*
X13440100Y-13153411D01*
X13440100Y-13153410D01*
X13439819Y-13152361D01*
X13436689Y-13140681D01*
X13430100Y-13129269D01*
X13420781Y-13119950D01*
X13414961Y-13116589D01*
X13409369Y-13113361D01*
X13409368Y-13113361D01*
X13396639Y-13109950D01*
X13396639Y-13109950D01*
X13383461Y-13109950D01*
X13383461Y-13109950D01*
X13370732Y-13113361D01*
X13370731Y-13113361D01*
X13359318Y-13119950D01*
X13350000Y-13129268D01*
X13343411Y-13140681D01*
X13343411Y-13140682D01*
X13340000Y-13153410D01*
X12458591Y-13153410D01*
X12449369Y-13151950D01*
X12449369Y-13151950D01*
X12430631Y-13151950D01*
X12430630Y-13151950D01*
X12412123Y-13154881D01*
X12412121Y-13154882D01*
X12394301Y-13160672D01*
X12394301Y-13160672D01*
X12377604Y-13169179D01*
X12362444Y-13180193D01*
X12349193Y-13193444D01*
X12338179Y-13208604D01*
X12329672Y-13225301D01*
X12329672Y-13225301D01*
X12323882Y-13243121D01*
X12323881Y-13243123D01*
X12320950Y-13261630D01*
X11787550Y-13261630D01*
X11787550Y-13260411D01*
X11784237Y-13239493D01*
X11784237Y-13239492D01*
X11784237Y-13239492D01*
X11777693Y-13219351D01*
X11777692Y-13219351D01*
X11777692Y-13219351D01*
X11768077Y-13200480D01*
X11755639Y-13183361D01*
X11755629Y-13183347D01*
X11755629Y-13183347D01*
X11755629Y-13183346D01*
X11740653Y-13168371D01*
X11740653Y-13168371D01*
X11740653Y-13168371D01*
X11723519Y-13155922D01*
X11704648Y-13146307D01*
X11684508Y-13139763D01*
X11684507Y-13139763D01*
X11663589Y-13136450D01*
X11663589Y-13136450D01*
X11642411Y-13136450D01*
X11642411Y-13136450D01*
X11621493Y-13139763D01*
X11621492Y-13139763D01*
X11601351Y-13146307D01*
X11582480Y-13155922D01*
X11565347Y-13168371D01*
X11550371Y-13183347D01*
X11537922Y-13200480D01*
X11528307Y-13219351D01*
X11521763Y-13239492D01*
X11521763Y-13239493D01*
X11518450Y-13260411D01*
X11450050Y-13260411D01*
X11450050Y-13013411D01*
X12729950Y-13013411D01*
X12729950Y-13026590D01*
X12733361Y-13039318D01*
X12733361Y-13039319D01*
X12733361Y-13039319D01*
X12739950Y-13050732D01*
X12749269Y-13060050D01*
X12760681Y-13066639D01*
X12773411Y-13070050D01*
X12773411Y-13070050D01*
X12773411Y-13070050D01*
X12786589Y-13070050D01*
X12786589Y-13070050D01*
X12799319Y-13066639D01*
X12810731Y-13060050D01*
X12820050Y-13050732D01*
X12826639Y-13039319D01*
X12830050Y-13026590D01*
X12830050Y-13026590D01*
X12830050Y-13013411D01*
X12830050Y-13013411D01*
X12826639Y-13000682D01*
X12826639Y-13000682D01*
X12820050Y-12989269D01*
X12810731Y-12979950D01*
X12799319Y-12973361D01*
X12799318Y-12973361D01*
X12786589Y-12969950D01*
X12786589Y-12969950D01*
X12773411Y-12969950D01*
X12773411Y-12969950D01*
X12760682Y-12973361D01*
X12760681Y-12973361D01*
X12749269Y-12979950D01*
X12739950Y-12989269D01*
X12733361Y-13000681D01*
X12733361Y-13000682D01*
X12729950Y-13013411D01*
X11450050Y-13013411D01*
X11450050Y-12716030D01*
X14635000Y-12716030D01*
X14635000Y-12838000D01*
X14719865Y-12838000D01*
X14710990Y-12855420D01*
X14703693Y-12877875D01*
X14700000Y-12901195D01*
X14700000Y-12924805D01*
X14703693Y-12948125D01*
X14710990Y-12970580D01*
X14719865Y-12988000D01*
X14635000Y-12988000D01*
X14635000Y-13109970D01*
X14636160Y-13115803D01*
X14640581Y-13122419D01*
X14640581Y-13122419D01*
X14647196Y-13126840D01*
X14653030Y-13128000D01*
X14775000Y-13128000D01*
X14775000Y-13043134D01*
X14792420Y-13052010D01*
X14814875Y-13059306D01*
X14838195Y-13063000D01*
X14861805Y-13063000D01*
X14885125Y-13059306D01*
X14907580Y-13052010D01*
X14925000Y-13043134D01*
X14925000Y-13128000D01*
X15046970Y-13128000D01*
X15052803Y-13126840D01*
X15059419Y-13122419D01*
X15059419Y-13122419D01*
X15063840Y-13115803D01*
X15065000Y-13109970D01*
X15065000Y-13103410D01*
X15359950Y-13103410D01*
X15359950Y-13116589D01*
X15363361Y-13129318D01*
X15363361Y-13129318D01*
X15363361Y-13129319D01*
X15369950Y-13140731D01*
X15379269Y-13150050D01*
X15390681Y-13156639D01*
X15403410Y-13160050D01*
X15403411Y-13160050D01*
X15403411Y-13160050D01*
X15416589Y-13160050D01*
X15416589Y-13160050D01*
X15429319Y-13156639D01*
X15440731Y-13150050D01*
X15450050Y-13140731D01*
X15456639Y-13129319D01*
X15460050Y-13116589D01*
X15460050Y-13116589D01*
X15460050Y-13103411D01*
X15460050Y-13103410D01*
X15459882Y-13102785D01*
X15919325Y-13102785D01*
X15919325Y-13115964D01*
X15922736Y-13128693D01*
X15922736Y-13128694D01*
X15927214Y-13136450D01*
X15929325Y-13140106D01*
X15938644Y-13149425D01*
X15950056Y-13156014D01*
X15962785Y-13159425D01*
X15962786Y-13159425D01*
X15962786Y-13159425D01*
X15975964Y-13159425D01*
X15975964Y-13159425D01*
X15988694Y-13156014D01*
X16000106Y-13149425D01*
X16009425Y-13140106D01*
X16016014Y-13128694D01*
X16019425Y-13115964D01*
X16019425Y-13115964D01*
X16019425Y-13102786D01*
X16019425Y-13102785D01*
X16016014Y-13090057D01*
X16016014Y-13090056D01*
X16009425Y-13078644D01*
X16000106Y-13069325D01*
X15989776Y-13063361D01*
X15988694Y-13062736D01*
X15988693Y-13062736D01*
X15975964Y-13059325D01*
X15975964Y-13059325D01*
X15962786Y-13059325D01*
X15962786Y-13059325D01*
X15950057Y-13062736D01*
X15950056Y-13062736D01*
X15938643Y-13069325D01*
X15929325Y-13078643D01*
X15922736Y-13090056D01*
X15922736Y-13090057D01*
X15919325Y-13102785D01*
X15459882Y-13102785D01*
X15456639Y-13090682D01*
X15456639Y-13090681D01*
X15450050Y-13079269D01*
X15440731Y-13069950D01*
X15439649Y-13069325D01*
X15429319Y-13063361D01*
X15429318Y-13063361D01*
X15416589Y-13059950D01*
X15416589Y-13059950D01*
X15403411Y-13059950D01*
X15403411Y-13059950D01*
X15390682Y-13063361D01*
X15390681Y-13063361D01*
X15379268Y-13069950D01*
X15369950Y-13079268D01*
X15363361Y-13090681D01*
X15363361Y-13090682D01*
X15359950Y-13103410D01*
X15065000Y-13103410D01*
X15065000Y-12988000D01*
X14980134Y-12988000D01*
X14989010Y-12970580D01*
X14996306Y-12948125D01*
X15000000Y-12924805D01*
X15000000Y-12901195D01*
X14996306Y-12877875D01*
X14989010Y-12855420D01*
X14980134Y-12838000D01*
X15065000Y-12838000D01*
X15065000Y-12716030D01*
X15063840Y-12710196D01*
X15059419Y-12703581D01*
X15059419Y-12703581D01*
X15052803Y-12699160D01*
X15046970Y-12698000D01*
X14925000Y-12698000D01*
X14925000Y-12782865D01*
X14907580Y-12773990D01*
X14885125Y-12766693D01*
X14861805Y-12763000D01*
X14838195Y-12763000D01*
X14814875Y-12766693D01*
X14792420Y-12773990D01*
X14775000Y-12782865D01*
X14775000Y-12698000D01*
X14653030Y-12698000D01*
X14647196Y-12699160D01*
X14640581Y-12703581D01*
X14640581Y-12703581D01*
X14636160Y-12710196D01*
X14635000Y-12716030D01*
X11450050Y-12716030D01*
X11450050Y-11781522D01*
X11489450Y-11781522D01*
X11489450Y-12529189D01*
X11489537Y-12531839D01*
X11489643Y-12533456D01*
X11489643Y-12533458D01*
X11489903Y-12536099D01*
X11489903Y-12536100D01*
X11491287Y-12546614D01*
X11491288Y-12546616D01*
X11492322Y-12551815D01*
X11492322Y-12551817D01*
X11493160Y-12554944D01*
X11493160Y-12554945D01*
X11494865Y-12559966D01*
X11497548Y-12566443D01*
X11498611Y-12569010D01*
X11500957Y-12573767D01*
X11502575Y-12576570D01*
X11504241Y-12579063D01*
X11505522Y-12580981D01*
X11511480Y-12588745D01*
X11514977Y-12592733D01*
X11517267Y-12595022D01*
X11521255Y-12598520D01*
X11529019Y-12604477D01*
X11529019Y-12604478D01*
X11533430Y-12607425D01*
X11536233Y-12609043D01*
X11540990Y-12611389D01*
X11550033Y-12615135D01*
X11550034Y-12615135D01*
X11550035Y-12615135D01*
X11555056Y-12616840D01*
X11558180Y-12617677D01*
X11558182Y-12617677D01*
X11558182Y-12617678D01*
X11558183Y-12617678D01*
X11558184Y-12617678D01*
X11560291Y-12618097D01*
X11563384Y-12618712D01*
X11573901Y-12620097D01*
X11576542Y-12620357D01*
X11578160Y-12620463D01*
X11578657Y-12620479D01*
X11580811Y-12620550D01*
X11580813Y-12620550D01*
X11840652Y-12620550D01*
X11842414Y-12620512D01*
X11842416Y-12620511D01*
X11842417Y-12620511D01*
X11843497Y-12620464D01*
X11845261Y-12620349D01*
X11852317Y-12619732D01*
X11855823Y-12619271D01*
X11857950Y-12618896D01*
X11861400Y-12618132D01*
X11861401Y-12618131D01*
X11861402Y-12618131D01*
X11868244Y-12616300D01*
X11869939Y-12615806D01*
X11869941Y-12615805D01*
X11870971Y-12615481D01*
X11872645Y-12614913D01*
X12050053Y-12550401D01*
X12052919Y-12549233D01*
X12054643Y-12548453D01*
X12057414Y-12547068D01*
X12068250Y-12541127D01*
X12073434Y-12537746D01*
X12076428Y-12535450D01*
X12081036Y-12531320D01*
X12081648Y-12530681D01*
X12084415Y-12527792D01*
X12088919Y-12523089D01*
X12092846Y-12518306D01*
X12095011Y-12515215D01*
X12098164Y-12509890D01*
X12103206Y-12499668D01*
X12105513Y-12493925D01*
X12106647Y-12490327D01*
X12108053Y-12484301D01*
X12108190Y-12483410D01*
X12399950Y-12483410D01*
X12399950Y-12496589D01*
X12403361Y-12509318D01*
X12403361Y-12509318D01*
X12403361Y-12509319D01*
X12409950Y-12520731D01*
X12419269Y-12530050D01*
X12430681Y-12536639D01*
X12443410Y-12540050D01*
X12443411Y-12540050D01*
X12443411Y-12540050D01*
X12456589Y-12540050D01*
X12456589Y-12540050D01*
X12469319Y-12536639D01*
X12480731Y-12530050D01*
X12490050Y-12520731D01*
X12496639Y-12509319D01*
X12500050Y-12496589D01*
X12500050Y-12496589D01*
X12500050Y-12483411D01*
X12500050Y-12483410D01*
X12549950Y-12483410D01*
X12549950Y-12496589D01*
X12553361Y-12509318D01*
X12553361Y-12509318D01*
X12553361Y-12509319D01*
X12559950Y-12520731D01*
X12569269Y-12530050D01*
X12580681Y-12536639D01*
X12593410Y-12540050D01*
X12593411Y-12540050D01*
X12593411Y-12540050D01*
X12606589Y-12540050D01*
X12606589Y-12540050D01*
X12619319Y-12536639D01*
X12630731Y-12530050D01*
X12640050Y-12520731D01*
X12646639Y-12509319D01*
X12650050Y-12496589D01*
X12650050Y-12496589D01*
X12650050Y-12483411D01*
X12650050Y-12483410D01*
X12646639Y-12470682D01*
X12646639Y-12470681D01*
X12640050Y-12459269D01*
X12630731Y-12449950D01*
X12625327Y-12446830D01*
X12619319Y-12443361D01*
X12619318Y-12443361D01*
X12606589Y-12439950D01*
X12606589Y-12439950D01*
X12593411Y-12439950D01*
X12593411Y-12439950D01*
X12580682Y-12443361D01*
X12580681Y-12443361D01*
X12569268Y-12449950D01*
X12559950Y-12459268D01*
X12553361Y-12470681D01*
X12553361Y-12470682D01*
X12549950Y-12483410D01*
X12500050Y-12483410D01*
X12496639Y-12470682D01*
X12496639Y-12470681D01*
X12490050Y-12459269D01*
X12480731Y-12449950D01*
X12475327Y-12446830D01*
X12469319Y-12443361D01*
X12469318Y-12443361D01*
X12456589Y-12439950D01*
X12456589Y-12439950D01*
X12443411Y-12439950D01*
X12443411Y-12439950D01*
X12430682Y-12443361D01*
X12430681Y-12443361D01*
X12419268Y-12449950D01*
X12409950Y-12459268D01*
X12403361Y-12470681D01*
X12403361Y-12470682D01*
X12399950Y-12483410D01*
X12108190Y-12483410D01*
X12109933Y-12472087D01*
X12110287Y-12469011D01*
X12110432Y-12467124D01*
X12110550Y-12464030D01*
X12110550Y-12420380D01*
X13034450Y-12420380D01*
X13034450Y-12445620D01*
X13037744Y-12470645D01*
X13044277Y-12495026D01*
X13053920Y-12518306D01*
X13053937Y-12518345D01*
X13060694Y-12530050D01*
X13066468Y-12540050D01*
X13066557Y-12540205D01*
X13081923Y-12560229D01*
X13099771Y-12578077D01*
X13119795Y-12593443D01*
X13141655Y-12606063D01*
X13164974Y-12615723D01*
X13189355Y-12622255D01*
X13214380Y-12625550D01*
X13214380Y-12625550D01*
X13239620Y-12625550D01*
X13239620Y-12625550D01*
X13264645Y-12622255D01*
X13289026Y-12615723D01*
X13312345Y-12606063D01*
X13334205Y-12593443D01*
X13354229Y-12578077D01*
X13372077Y-12560229D01*
X13387443Y-12540205D01*
X13391365Y-12533410D01*
X13909950Y-12533410D01*
X13909950Y-12546589D01*
X13913361Y-12559318D01*
X13913361Y-12559319D01*
X13913887Y-12560230D01*
X13919950Y-12570731D01*
X13929269Y-12580050D01*
X13940681Y-12586639D01*
X13953410Y-12590050D01*
X13953411Y-12590050D01*
X13953411Y-12590050D01*
X13966589Y-12590050D01*
X13966589Y-12590050D01*
X13979319Y-12586639D01*
X13990731Y-12580050D01*
X14000050Y-12570731D01*
X14006639Y-12559319D01*
X14010050Y-12546589D01*
X14010050Y-12546589D01*
X14010050Y-12543410D01*
X17409950Y-12543410D01*
X17409950Y-12556589D01*
X17413361Y-12569318D01*
X17413361Y-12569319D01*
X17418987Y-12579063D01*
X17419950Y-12580731D01*
X17429269Y-12590050D01*
X17440681Y-12596639D01*
X17453411Y-12600050D01*
X17453411Y-12600050D01*
X17453411Y-12600050D01*
X17466589Y-12600050D01*
X17466589Y-12600050D01*
X17479319Y-12596639D01*
X17490731Y-12590050D01*
X17500050Y-12580731D01*
X17506639Y-12569319D01*
X17510050Y-12556589D01*
X17510050Y-12556589D01*
X17510050Y-12543411D01*
X17510050Y-12543410D01*
X17509438Y-12541127D01*
X17506639Y-12530681D01*
X17500050Y-12519269D01*
X17490731Y-12509950D01*
X17489551Y-12509268D01*
X17479319Y-12503361D01*
X17479318Y-12503361D01*
X17466589Y-12499950D01*
X17466589Y-12499950D01*
X17453411Y-12499950D01*
X17453411Y-12499950D01*
X17440682Y-12503361D01*
X17440681Y-12503361D01*
X17429269Y-12509950D01*
X17419950Y-12519268D01*
X17413361Y-12530681D01*
X17413361Y-12530682D01*
X17409950Y-12543410D01*
X14010050Y-12543410D01*
X14010050Y-12533411D01*
X14010050Y-12533410D01*
X14009319Y-12530681D01*
X14006639Y-12520681D01*
X14000050Y-12509269D01*
X13990731Y-12499950D01*
X13984911Y-12496589D01*
X13979319Y-12493361D01*
X13979318Y-12493361D01*
X13966589Y-12489950D01*
X13966589Y-12489950D01*
X13953411Y-12489950D01*
X13953411Y-12489950D01*
X13940682Y-12493361D01*
X13940681Y-12493361D01*
X13929268Y-12499950D01*
X13919950Y-12509268D01*
X13913361Y-12520681D01*
X13913361Y-12520682D01*
X13909950Y-12533410D01*
X13391365Y-12533410D01*
X13392272Y-12531840D01*
X13393782Y-12529226D01*
X13393782Y-12529226D01*
X13397667Y-12522496D01*
X13400063Y-12518345D01*
X13409723Y-12495026D01*
X13416255Y-12470645D01*
X13419550Y-12445620D01*
X13419550Y-12420380D01*
X13416255Y-12395355D01*
X13409723Y-12370974D01*
X13400063Y-12347655D01*
X13387443Y-12325795D01*
X13372077Y-12305771D01*
X13354229Y-12287923D01*
X13336501Y-12274319D01*
X13334204Y-12272557D01*
X13323955Y-12266639D01*
X13312345Y-12259937D01*
X13312345Y-12259936D01*
X13312345Y-12259936D01*
X13289026Y-12250277D01*
X13264645Y-12243744D01*
X13246209Y-12241317D01*
X13239620Y-12240450D01*
X13214380Y-12240450D01*
X13208557Y-12241216D01*
X13189355Y-12243744D01*
X13164974Y-12250277D01*
X13141655Y-12259936D01*
X13141655Y-12259937D01*
X13119795Y-12272557D01*
X13111698Y-12278770D01*
X13099771Y-12287923D01*
X13099770Y-12287923D01*
X13081923Y-12305770D01*
X13066557Y-12325795D01*
X13053937Y-12347655D01*
X13053936Y-12347655D01*
X13044277Y-12370974D01*
X13037744Y-12395355D01*
X13034450Y-12420380D01*
X12110550Y-12420380D01*
X12110550Y-12343410D01*
X12399950Y-12343410D01*
X12399950Y-12356589D01*
X12403361Y-12369318D01*
X12403361Y-12369319D01*
X12407703Y-12376839D01*
X12409950Y-12380731D01*
X12419269Y-12390050D01*
X12430681Y-12396639D01*
X12443410Y-12400050D01*
X12443411Y-12400050D01*
X12443411Y-12400050D01*
X12456589Y-12400050D01*
X12456589Y-12400050D01*
X12469319Y-12396639D01*
X12480731Y-12390050D01*
X12490050Y-12380731D01*
X12496639Y-12369319D01*
X12500050Y-12356589D01*
X12500050Y-12356589D01*
X12500050Y-12343411D01*
X12500050Y-12343410D01*
X12549950Y-12343410D01*
X12549950Y-12356589D01*
X12553361Y-12369318D01*
X12553361Y-12369319D01*
X12557703Y-12376839D01*
X12559950Y-12380731D01*
X12569269Y-12390050D01*
X12580681Y-12396639D01*
X12593410Y-12400050D01*
X12593411Y-12400050D01*
X12593411Y-12400050D01*
X12606589Y-12400050D01*
X12606589Y-12400050D01*
X12619319Y-12396639D01*
X12630731Y-12390050D01*
X12640050Y-12380731D01*
X12646639Y-12369319D01*
X12650050Y-12356589D01*
X12650050Y-12356589D01*
X12650050Y-12343411D01*
X12650050Y-12343410D01*
X12650029Y-12343331D01*
X12646639Y-12330681D01*
X12640050Y-12319269D01*
X12630731Y-12309950D01*
X12623492Y-12305771D01*
X12619319Y-12303361D01*
X12619318Y-12303361D01*
X12606589Y-12299950D01*
X12606589Y-12299950D01*
X12593411Y-12299950D01*
X12593411Y-12299950D01*
X12580682Y-12303361D01*
X12580681Y-12303361D01*
X12569268Y-12309950D01*
X12559950Y-12319268D01*
X12553361Y-12330681D01*
X12553361Y-12330682D01*
X12549950Y-12343410D01*
X12500050Y-12343410D01*
X12500029Y-12343331D01*
X12496639Y-12330681D01*
X12490050Y-12319269D01*
X12480731Y-12309950D01*
X12473492Y-12305771D01*
X12469319Y-12303361D01*
X12469318Y-12303361D01*
X12456589Y-12299950D01*
X12456589Y-12299950D01*
X12443411Y-12299950D01*
X12443411Y-12299950D01*
X12430682Y-12303361D01*
X12430681Y-12303361D01*
X12419268Y-12309950D01*
X12409950Y-12319268D01*
X12403361Y-12330681D01*
X12403361Y-12330682D01*
X12399950Y-12343410D01*
X12110550Y-12343410D01*
X12110550Y-12227450D01*
X12112717Y-12222217D01*
X12117950Y-12220050D01*
X12126589Y-12220050D01*
X12126589Y-12220050D01*
X12139319Y-12216639D01*
X12144911Y-12213410D01*
X12399950Y-12213410D01*
X12399950Y-12226589D01*
X12403361Y-12239318D01*
X12403361Y-12239319D01*
X12407247Y-12246050D01*
X12409950Y-12250731D01*
X12419269Y-12260050D01*
X12430681Y-12266639D01*
X12443410Y-12270050D01*
X12443411Y-12270050D01*
X12443411Y-12270050D01*
X12456589Y-12270050D01*
X12456589Y-12270050D01*
X12469319Y-12266639D01*
X12480731Y-12260050D01*
X12490050Y-12250731D01*
X12496639Y-12239319D01*
X12500050Y-12226589D01*
X12500050Y-12226589D01*
X12500050Y-12213411D01*
X12500050Y-12213410D01*
X12549950Y-12213410D01*
X12549950Y-12226589D01*
X12553361Y-12239318D01*
X12553361Y-12239319D01*
X12557247Y-12246050D01*
X12559950Y-12250731D01*
X12569269Y-12260050D01*
X12580681Y-12266639D01*
X12593410Y-12270050D01*
X12593411Y-12270050D01*
X12593411Y-12270050D01*
X12606589Y-12270050D01*
X12606589Y-12270050D01*
X12619319Y-12266639D01*
X12630731Y-12260050D01*
X12640050Y-12250731D01*
X12641390Y-12248411D01*
X12729950Y-12248411D01*
X12729950Y-12261590D01*
X12733361Y-12274319D01*
X12733361Y-12274319D01*
X12733361Y-12274319D01*
X12739950Y-12285732D01*
X12749269Y-12295050D01*
X12760681Y-12301640D01*
X12773411Y-12305050D01*
X12773411Y-12305050D01*
X12773411Y-12305050D01*
X12786589Y-12305050D01*
X12786589Y-12305050D01*
X12799319Y-12301640D01*
X12810731Y-12295050D01*
X12820050Y-12285732D01*
X12826639Y-12274319D01*
X12830050Y-12261590D01*
X12830050Y-12261590D01*
X12830050Y-12248411D01*
X12830050Y-12248411D01*
X12826639Y-12235682D01*
X12826639Y-12235682D01*
X12820050Y-12224269D01*
X12810731Y-12214950D01*
X12808064Y-12213411D01*
X12799319Y-12208361D01*
X12799318Y-12208361D01*
X12786589Y-12204950D01*
X12786589Y-12204950D01*
X12773411Y-12204950D01*
X12773411Y-12204950D01*
X12760682Y-12208361D01*
X12760681Y-12208361D01*
X12749269Y-12214950D01*
X12739950Y-12224269D01*
X12733361Y-12235681D01*
X12733361Y-12235682D01*
X12729950Y-12248411D01*
X12641390Y-12248411D01*
X12646639Y-12239319D01*
X12650050Y-12226589D01*
X12650050Y-12226589D01*
X12650050Y-12213411D01*
X12650050Y-12213410D01*
X12649830Y-12212589D01*
X12646639Y-12200681D01*
X12640050Y-12189269D01*
X12630731Y-12179950D01*
X12624911Y-12176589D01*
X12619319Y-12173361D01*
X12619318Y-12173361D01*
X12606589Y-12169950D01*
X12606589Y-12169950D01*
X12593411Y-12169950D01*
X12593411Y-12169950D01*
X12580682Y-12173361D01*
X12580681Y-12173361D01*
X12569268Y-12179950D01*
X12559950Y-12189268D01*
X12553361Y-12200681D01*
X12553361Y-12200682D01*
X12549950Y-12213410D01*
X12500050Y-12213410D01*
X12499830Y-12212589D01*
X12496639Y-12200681D01*
X12490050Y-12189269D01*
X12480731Y-12179950D01*
X12474911Y-12176589D01*
X12469319Y-12173361D01*
X12469318Y-12173361D01*
X12456589Y-12169950D01*
X12456589Y-12169950D01*
X12443411Y-12169950D01*
X12443411Y-12169950D01*
X12430682Y-12173361D01*
X12430681Y-12173361D01*
X12419268Y-12179950D01*
X12409950Y-12189268D01*
X12403361Y-12200681D01*
X12403361Y-12200682D01*
X12399950Y-12213410D01*
X12144911Y-12213410D01*
X12150731Y-12210050D01*
X12160050Y-12200731D01*
X12166639Y-12189319D01*
X12170050Y-12176589D01*
X12170050Y-12176589D01*
X12170050Y-12163411D01*
X12170050Y-12163410D01*
X12168835Y-12158878D01*
X12819949Y-12158878D01*
X12819949Y-12172057D01*
X12823360Y-12184786D01*
X12823360Y-12184786D01*
X12826399Y-12190050D01*
X12829949Y-12196199D01*
X12839268Y-12205517D01*
X12850680Y-12212107D01*
X12863409Y-12215517D01*
X12863410Y-12215517D01*
X12863410Y-12215517D01*
X12876588Y-12215517D01*
X12876588Y-12215517D01*
X12889318Y-12212107D01*
X12900730Y-12205517D01*
X12910049Y-12196199D01*
X12916638Y-12184786D01*
X12920049Y-12172057D01*
X12920049Y-12172057D01*
X12920049Y-12158878D01*
X12920049Y-12158878D01*
X12919050Y-12155150D01*
X12916638Y-12146149D01*
X12915057Y-12143410D01*
X13959950Y-12143410D01*
X13959950Y-12156589D01*
X13963361Y-12169318D01*
X13963361Y-12169319D01*
X13969499Y-12179950D01*
X13969950Y-12180731D01*
X13979269Y-12190050D01*
X13990681Y-12196639D01*
X14003410Y-12200050D01*
X14003411Y-12200050D01*
X14003411Y-12200050D01*
X14016589Y-12200050D01*
X14016589Y-12200050D01*
X14029319Y-12196639D01*
X14040731Y-12190050D01*
X14050050Y-12180731D01*
X14056639Y-12169319D01*
X14060050Y-12156589D01*
X14060050Y-12156589D01*
X14060050Y-12143411D01*
X14060050Y-12143410D01*
X14059837Y-12142617D01*
X14056639Y-12130681D01*
X14050050Y-12119269D01*
X14040731Y-12109950D01*
X14039551Y-12109268D01*
X14029319Y-12103361D01*
X14029318Y-12103361D01*
X14016589Y-12099950D01*
X14016589Y-12099950D01*
X14003411Y-12099950D01*
X14003411Y-12099950D01*
X13990682Y-12103361D01*
X13990681Y-12103361D01*
X13979268Y-12109950D01*
X13969950Y-12119268D01*
X13963361Y-12130681D01*
X13963361Y-12130682D01*
X13959950Y-12143410D01*
X12915057Y-12143410D01*
X12910049Y-12134736D01*
X12900730Y-12125417D01*
X12900326Y-12125184D01*
X12889318Y-12118828D01*
X12889317Y-12118828D01*
X12876588Y-12115417D01*
X12876588Y-12115417D01*
X12863410Y-12115417D01*
X12863410Y-12115417D01*
X12850681Y-12118828D01*
X12850680Y-12118828D01*
X12839267Y-12125417D01*
X12829949Y-12134736D01*
X12823360Y-12146148D01*
X12823360Y-12146149D01*
X12819949Y-12158878D01*
X12168835Y-12158878D01*
X12166639Y-12150681D01*
X12160050Y-12139269D01*
X12150731Y-12129950D01*
X12142476Y-12125184D01*
X12139319Y-12123361D01*
X12139318Y-12123361D01*
X12126589Y-12119950D01*
X12126589Y-12119950D01*
X12113411Y-12119950D01*
X12113411Y-12119950D01*
X12100682Y-12123361D01*
X12100681Y-12123361D01*
X12089268Y-12129950D01*
X12083483Y-12135735D01*
X12078251Y-12137902D01*
X12073018Y-12135735D01*
X12072363Y-12134985D01*
X12069716Y-12131508D01*
X12066219Y-12127491D01*
X12066218Y-12127489D01*
X12063928Y-12125184D01*
X12059935Y-12121660D01*
X12059934Y-12121660D01*
X12059934Y-12121660D01*
X12052152Y-12115654D01*
X12047732Y-12112685D01*
X12047732Y-12112684D01*
X12044924Y-12111055D01*
X12044922Y-12111054D01*
X12044922Y-12111053D01*
X12041320Y-12109268D01*
X12040147Y-12108687D01*
X12031072Y-12104910D01*
X12031072Y-12104910D01*
X12031072Y-12104910D01*
X12026030Y-12103191D01*
X12026029Y-12103191D01*
X12026029Y-12103191D01*
X12022892Y-12102346D01*
X12022890Y-12102346D01*
X12017668Y-12101303D01*
X12007111Y-12099907D01*
X12007109Y-12099907D01*
X12007108Y-12099907D01*
X12006455Y-12099842D01*
X12004454Y-12099644D01*
X12002828Y-12099537D01*
X12000168Y-12099450D01*
X12000168Y-12099450D01*
X11966060Y-12099450D01*
X11960828Y-12097283D01*
X11958660Y-12092050D01*
X11959652Y-12088350D01*
X11962444Y-12083513D01*
X11965855Y-12070784D01*
X11965855Y-12070784D01*
X11965855Y-12057605D01*
X11965855Y-12057605D01*
X11964706Y-12053318D01*
X11962444Y-12044876D01*
X11955855Y-12033463D01*
X11949302Y-12026911D01*
X13424950Y-12026911D01*
X13424950Y-12040089D01*
X13428361Y-12052818D01*
X13428361Y-12052819D01*
X13433424Y-12061589D01*
X13434950Y-12064231D01*
X13444269Y-12073550D01*
X13455681Y-12080139D01*
X13468410Y-12083550D01*
X13468411Y-12083550D01*
X13468411Y-12083550D01*
X13481589Y-12083550D01*
X13481589Y-12083550D01*
X13494319Y-12080139D01*
X13505731Y-12073550D01*
X13515050Y-12064231D01*
X13521639Y-12052819D01*
X13525050Y-12040089D01*
X13525050Y-12040089D01*
X13525050Y-12031410D01*
X13899950Y-12031410D01*
X13899950Y-12044589D01*
X13903361Y-12057318D01*
X13903361Y-12057319D01*
X13907352Y-12064231D01*
X13909950Y-12068731D01*
X13919269Y-12078050D01*
X13930681Y-12084639D01*
X13943410Y-12088050D01*
X13943411Y-12088050D01*
X13943411Y-12088050D01*
X13956589Y-12088050D01*
X13956589Y-12088050D01*
X13969319Y-12084639D01*
X13980731Y-12078050D01*
X13990050Y-12068731D01*
X13996639Y-12057319D01*
X14000050Y-12044589D01*
X14000050Y-12044589D01*
X14000050Y-12033410D01*
X14319950Y-12033410D01*
X14319950Y-12046589D01*
X14323361Y-12059318D01*
X14323361Y-12059319D01*
X14326197Y-12064231D01*
X14329950Y-12070731D01*
X14339269Y-12080050D01*
X14350681Y-12086639D01*
X14363410Y-12090050D01*
X14363411Y-12090050D01*
X14363411Y-12090050D01*
X14376589Y-12090050D01*
X14376589Y-12090050D01*
X14389319Y-12086639D01*
X14400731Y-12080050D01*
X14410050Y-12070731D01*
X14416639Y-12059319D01*
X14420050Y-12046589D01*
X14420050Y-12046589D01*
X14420050Y-12033411D01*
X14420050Y-12033410D01*
X14418826Y-12028841D01*
X14418442Y-12027410D01*
X14967450Y-12027410D01*
X14967450Y-12040589D01*
X14970861Y-12053318D01*
X14970861Y-12053319D01*
X14974325Y-12059318D01*
X14977450Y-12064731D01*
X14986769Y-12074050D01*
X14998181Y-12080639D01*
X15010910Y-12084050D01*
X15010911Y-12084050D01*
X15010911Y-12084050D01*
X15024089Y-12084050D01*
X15024089Y-12084050D01*
X15036819Y-12080639D01*
X15048231Y-12074050D01*
X15057550Y-12064731D01*
X15064139Y-12053319D01*
X15067550Y-12040589D01*
X15067550Y-12040589D01*
X15067550Y-12027411D01*
X15067550Y-12027410D01*
X15067416Y-12026911D01*
X15064139Y-12014681D01*
X15057550Y-12003269D01*
X15048231Y-11993950D01*
X15047210Y-11993361D01*
X15036819Y-11987361D01*
X15036818Y-11987361D01*
X15024089Y-11983950D01*
X15024089Y-11983950D01*
X15010911Y-11983950D01*
X15010911Y-11983950D01*
X14998182Y-11987361D01*
X14998181Y-11987361D01*
X14986768Y-11993950D01*
X14977450Y-12003268D01*
X14970861Y-12014681D01*
X14970861Y-12014682D01*
X14967450Y-12027410D01*
X14418442Y-12027410D01*
X14416639Y-12020682D01*
X14416639Y-12020681D01*
X14410050Y-12009269D01*
X14400731Y-11999950D01*
X14397267Y-11997950D01*
X14389319Y-11993361D01*
X14389318Y-11993361D01*
X14376589Y-11989950D01*
X14376589Y-11989950D01*
X14363411Y-11989950D01*
X14363411Y-11989950D01*
X14350682Y-11993361D01*
X14350681Y-11993361D01*
X14339268Y-11999950D01*
X14329950Y-12009268D01*
X14323361Y-12020681D01*
X14323361Y-12020682D01*
X14319950Y-12033410D01*
X14000050Y-12033410D01*
X14000050Y-12031411D01*
X14000050Y-12031410D01*
X13999361Y-12028841D01*
X13996639Y-12018681D01*
X13990050Y-12007269D01*
X13980731Y-11997950D01*
X13972937Y-11993450D01*
X13969319Y-11991361D01*
X13969318Y-11991361D01*
X13956589Y-11987950D01*
X13956589Y-11987950D01*
X13943411Y-11987950D01*
X13943411Y-11987950D01*
X13930682Y-11991361D01*
X13930681Y-11991361D01*
X13919268Y-11997950D01*
X13909950Y-12007268D01*
X13903361Y-12018681D01*
X13903361Y-12018682D01*
X13899950Y-12031410D01*
X13525050Y-12031410D01*
X13525050Y-12026911D01*
X13525050Y-12026911D01*
X13524309Y-12024145D01*
X13521639Y-12014181D01*
X13515050Y-12002769D01*
X13505731Y-11993450D01*
X13502113Y-11991361D01*
X13494319Y-11986861D01*
X13494318Y-11986861D01*
X13481589Y-11983450D01*
X13481589Y-11983450D01*
X13468411Y-11983450D01*
X13468411Y-11983450D01*
X13455682Y-11986861D01*
X13455681Y-11986861D01*
X13444268Y-11993450D01*
X13434950Y-12002769D01*
X13428361Y-12014181D01*
X13428361Y-12014182D01*
X13424950Y-12026911D01*
X11949302Y-12026911D01*
X11946536Y-12024145D01*
X11935269Y-12017639D01*
X11935124Y-12017556D01*
X11935123Y-12017555D01*
X11922394Y-12014145D01*
X11922394Y-12014145D01*
X11909216Y-12014145D01*
X11909216Y-12014145D01*
X11896487Y-12017555D01*
X11896486Y-12017556D01*
X11891650Y-12020348D01*
X11886035Y-12021087D01*
X11881541Y-12017639D01*
X11880550Y-12013939D01*
X11880550Y-11933411D01*
X11882717Y-11928178D01*
X11887950Y-11926011D01*
X11891650Y-11927002D01*
X11899681Y-11931639D01*
X11912410Y-11935050D01*
X11912411Y-11935050D01*
X11912411Y-11935050D01*
X11925589Y-11935050D01*
X11925589Y-11935050D01*
X11938319Y-11931639D01*
X11949731Y-11925050D01*
X11951371Y-11923410D01*
X13507500Y-11923410D01*
X13507500Y-11936589D01*
X13510911Y-11949318D01*
X13510911Y-11949318D01*
X13510911Y-11949319D01*
X13517500Y-11960731D01*
X13526819Y-11970050D01*
X13538231Y-11976639D01*
X13550960Y-11980050D01*
X13550961Y-11980050D01*
X13550961Y-11980050D01*
X13564139Y-11980050D01*
X13564139Y-11980050D01*
X13576869Y-11976639D01*
X13588281Y-11970050D01*
X13597600Y-11960731D01*
X13604189Y-11949319D01*
X13607600Y-11936589D01*
X13607600Y-11936589D01*
X13607600Y-11923411D01*
X13607600Y-11923410D01*
X13604189Y-11910682D01*
X13604189Y-11910681D01*
X13597600Y-11899269D01*
X13588281Y-11889950D01*
X13576869Y-11883361D01*
X13576868Y-11883361D01*
X13564139Y-11879950D01*
X13564139Y-11879950D01*
X13550961Y-11879950D01*
X13550961Y-11879950D01*
X13538232Y-11883361D01*
X13538231Y-11883361D01*
X13526818Y-11889950D01*
X13517500Y-11899268D01*
X13510911Y-11910681D01*
X13510911Y-11910682D01*
X13507500Y-11923410D01*
X11951371Y-11923410D01*
X11959050Y-11915731D01*
X11965639Y-11904319D01*
X11969050Y-11891589D01*
X11969050Y-11891589D01*
X11969050Y-11878411D01*
X11969050Y-11878410D01*
X11965639Y-11865682D01*
X11965639Y-11865681D01*
X11959050Y-11854269D01*
X11949731Y-11844950D01*
X11938319Y-11838361D01*
X11938318Y-11838361D01*
X11925589Y-11834950D01*
X11925589Y-11834950D01*
X11912411Y-11834950D01*
X11912411Y-11834950D01*
X11911746Y-11835128D01*
X11906131Y-11834388D01*
X11902683Y-11829895D01*
X11903423Y-11824280D01*
X11904598Y-11822748D01*
X11993453Y-11733893D01*
X11995267Y-11731957D01*
X11996336Y-11730737D01*
X11998020Y-11728686D01*
X12004478Y-11720269D01*
X12007425Y-11715859D01*
X12009044Y-11713055D01*
X12011389Y-11708298D01*
X12015135Y-11699256D01*
X12016840Y-11694234D01*
X12017677Y-11691107D01*
X12018712Y-11685905D01*
X12020097Y-11675388D01*
X12020357Y-11672748D01*
X12020463Y-11671129D01*
X12020550Y-11668477D01*
X12020550Y-11603653D01*
X13674950Y-11603653D01*
X13674950Y-11624346D01*
X13678987Y-11644641D01*
X13678987Y-11644642D01*
X13686906Y-11663760D01*
X13694012Y-11674396D01*
X13698402Y-11680965D01*
X13713034Y-11695598D01*
X13730240Y-11707094D01*
X13749358Y-11715013D01*
X13769653Y-11719050D01*
X13769654Y-11719050D01*
X13790346Y-11719050D01*
X13790346Y-11719050D01*
X13810642Y-11715013D01*
X13829760Y-11707094D01*
X13846965Y-11695598D01*
X13861598Y-11680965D01*
X13873094Y-11663760D01*
X13881013Y-11644642D01*
X13885050Y-11624346D01*
X13885050Y-11603653D01*
X13882293Y-11589795D01*
X13985952Y-11589795D01*
X13985952Y-11602974D01*
X13989362Y-11615703D01*
X13989363Y-11615704D01*
X13992132Y-11620500D01*
X13995952Y-11627116D01*
X14005270Y-11636435D01*
X14016683Y-11643024D01*
X14024552Y-11645133D01*
X14029046Y-11648580D01*
X14029785Y-11654196D01*
X14027870Y-11657513D01*
X14022400Y-11662982D01*
X14015811Y-11674395D01*
X14015811Y-11674396D01*
X14012400Y-11687125D01*
X14012400Y-11700304D01*
X14015811Y-11713032D01*
X14015811Y-11713033D01*
X14020887Y-11721824D01*
X14022400Y-11724446D01*
X14031719Y-11733764D01*
X14043131Y-11740353D01*
X14055860Y-11743764D01*
X14055861Y-11743764D01*
X14055861Y-11743764D01*
X14069039Y-11743764D01*
X14069039Y-11743764D01*
X14081769Y-11740353D01*
X14093181Y-11733764D01*
X14102500Y-11724446D01*
X14109089Y-11713033D01*
X14112500Y-11700304D01*
X14112500Y-11700304D01*
X14112500Y-11687125D01*
X14112500Y-11687125D01*
X14112173Y-11685905D01*
X14109089Y-11674396D01*
X14102500Y-11662983D01*
X14093181Y-11653664D01*
X14084376Y-11648580D01*
X14081769Y-11647075D01*
X14081768Y-11647075D01*
X14073899Y-11644966D01*
X14069406Y-11641519D01*
X14068667Y-11635903D01*
X14070582Y-11632586D01*
X14076052Y-11627117D01*
X14076052Y-11627116D01*
X14082641Y-11615704D01*
X14086052Y-11602974D01*
X14086052Y-11602974D01*
X14086052Y-11589796D01*
X14086052Y-11589795D01*
X14082641Y-11577067D01*
X14082641Y-11577066D01*
X14076052Y-11565654D01*
X14066733Y-11556335D01*
X14061309Y-11553203D01*
X14055321Y-11549746D01*
X14055320Y-11549746D01*
X14042591Y-11546335D01*
X14042591Y-11546335D01*
X14029413Y-11546335D01*
X14029412Y-11546335D01*
X14016684Y-11549746D01*
X14016683Y-11549746D01*
X14005270Y-11556335D01*
X13995952Y-11565653D01*
X13989363Y-11577066D01*
X13989362Y-11577067D01*
X13985952Y-11589795D01*
X13882293Y-11589795D01*
X13881013Y-11583358D01*
X13873094Y-11564240D01*
X13861598Y-11547034D01*
X13846965Y-11532402D01*
X13829760Y-11520906D01*
X13810642Y-11512987D01*
X13810641Y-11512987D01*
X13795345Y-11509944D01*
X13790346Y-11508950D01*
X13769653Y-11508950D01*
X13765638Y-11509749D01*
X13749359Y-11512987D01*
X13749358Y-11512987D01*
X13730240Y-11520906D01*
X13713034Y-11532402D01*
X13713034Y-11532402D01*
X13698402Y-11547034D01*
X13698402Y-11547034D01*
X13686906Y-11564240D01*
X13678987Y-11583358D01*
X13678987Y-11583359D01*
X13674950Y-11603653D01*
X12020550Y-11603653D01*
X12020550Y-11491056D01*
X14267500Y-11491056D01*
X14267500Y-11509944D01*
X14270455Y-11528600D01*
X14270455Y-11528601D01*
X14276291Y-11546564D01*
X14276292Y-11546564D01*
X14284867Y-11563393D01*
X14284867Y-11563394D01*
X14295969Y-11578674D01*
X14295970Y-11578675D01*
X14309325Y-11592030D01*
X14309326Y-11592031D01*
X14324606Y-11603133D01*
X14324607Y-11603133D01*
X14341436Y-11611708D01*
X14341436Y-11611708D01*
X14359399Y-11617545D01*
X14359400Y-11617545D01*
X14378056Y-11620500D01*
X14396944Y-11620500D01*
X14415600Y-11617545D01*
X14415601Y-11617545D01*
X14433564Y-11611708D01*
X14433564Y-11611708D01*
X14450393Y-11603133D01*
X14450394Y-11603133D01*
X14465674Y-11592031D01*
X14465675Y-11592030D01*
X14479030Y-11578675D01*
X14479031Y-11578674D01*
X14490133Y-11563394D01*
X14490133Y-11563393D01*
X14498708Y-11546564D01*
X14498708Y-11546564D01*
X14504545Y-11528601D01*
X14504545Y-11528600D01*
X14507500Y-11509944D01*
X14507500Y-11491056D01*
X14504545Y-11472400D01*
X14504545Y-11472399D01*
X14498708Y-11454436D01*
X14498708Y-11454436D01*
X14490133Y-11437607D01*
X14490133Y-11437606D01*
X14479031Y-11422326D01*
X14479030Y-11422325D01*
X14465675Y-11408970D01*
X14465674Y-11408969D01*
X14452521Y-11399412D01*
X14450394Y-11397867D01*
X14450393Y-11397867D01*
X14442629Y-11393910D01*
X14745950Y-11393910D01*
X14745950Y-11407089D01*
X14749361Y-11419818D01*
X14749361Y-11419818D01*
X14749361Y-11419819D01*
X14755950Y-11431231D01*
X14765269Y-11440550D01*
X14776681Y-11447139D01*
X14789410Y-11450550D01*
X14789411Y-11450550D01*
X14789411Y-11450550D01*
X14802589Y-11450550D01*
X14802589Y-11450550D01*
X14815319Y-11447139D01*
X14826731Y-11440550D01*
X14836050Y-11431231D01*
X14842639Y-11419819D01*
X14846050Y-11407089D01*
X14846050Y-11407089D01*
X14846050Y-11393911D01*
X14846050Y-11393910D01*
X14842639Y-11381182D01*
X14842639Y-11381181D01*
X14836050Y-11369769D01*
X14826731Y-11360450D01*
X14815319Y-11353861D01*
X14815318Y-11353861D01*
X14802589Y-11350450D01*
X14802589Y-11350450D01*
X14789411Y-11350450D01*
X14789411Y-11350450D01*
X14776682Y-11353861D01*
X14776681Y-11353861D01*
X14765268Y-11360450D01*
X14755950Y-11369768D01*
X14749361Y-11381181D01*
X14749361Y-11381182D01*
X14745950Y-11393910D01*
X14442629Y-11393910D01*
X14433564Y-11389292D01*
X14433564Y-11389291D01*
X14415601Y-11383455D01*
X14415600Y-11383455D01*
X14396944Y-11380500D01*
X14378056Y-11380500D01*
X14359400Y-11383455D01*
X14359399Y-11383455D01*
X14341436Y-11389291D01*
X14341436Y-11389292D01*
X14324607Y-11397867D01*
X14324606Y-11397867D01*
X14309326Y-11408969D01*
X14309325Y-11408970D01*
X14295970Y-11422325D01*
X14295969Y-11422326D01*
X14284867Y-11437606D01*
X14284867Y-11437607D01*
X14276292Y-11454436D01*
X14276291Y-11454436D01*
X14270455Y-11472399D01*
X14270455Y-11472400D01*
X14267500Y-11491056D01*
X12020550Y-11491056D01*
X12020550Y-11273025D01*
X13674950Y-11273025D01*
X13674950Y-11446975D01*
X13675661Y-11450550D01*
X13676113Y-11452823D01*
X13679061Y-11457234D01*
X13680545Y-11459455D01*
X13684956Y-11462403D01*
X13687177Y-11463887D01*
X13687177Y-11463887D01*
X13687177Y-11463887D01*
X13693025Y-11465050D01*
X13693025Y-11465050D01*
X13866975Y-11465050D01*
X13866975Y-11465050D01*
X13872823Y-11463887D01*
X13879455Y-11459455D01*
X13883887Y-11452823D01*
X13885050Y-11446975D01*
X13885050Y-11273025D01*
X13883887Y-11267177D01*
X13879455Y-11260545D01*
X13877234Y-11259061D01*
X13872823Y-11256113D01*
X13872823Y-11256113D01*
X13869899Y-11255532D01*
X13866975Y-11254950D01*
X13693025Y-11254950D01*
X13690101Y-11255532D01*
X13687177Y-11256113D01*
X13680545Y-11260545D01*
X13680545Y-11260545D01*
X13676113Y-11267177D01*
X13676113Y-11267177D01*
X13674950Y-11273025D01*
X12020550Y-11273025D01*
X12020550Y-11220506D01*
X13915786Y-11220506D01*
X13915786Y-11233685D01*
X13919197Y-11246414D01*
X13919197Y-11246415D01*
X13921874Y-11251050D01*
X13925786Y-11257827D01*
X13935105Y-11267146D01*
X13946518Y-11273735D01*
X13959247Y-11277146D01*
X13959247Y-11277146D01*
X13959247Y-11277146D01*
X13972426Y-11277146D01*
X13972426Y-11277146D01*
X13985155Y-11273735D01*
X13996568Y-11267146D01*
X14005886Y-11257827D01*
X14012476Y-11246414D01*
X14015886Y-11233685D01*
X14015886Y-11233685D01*
X14015886Y-11220506D01*
X14015886Y-11220506D01*
X14015836Y-11220319D01*
X14012476Y-11207777D01*
X14005886Y-11196364D01*
X14003933Y-11194410D01*
X14599950Y-11194410D01*
X14599950Y-11207589D01*
X14603361Y-11220318D01*
X14603361Y-11220319D01*
X14603469Y-11220506D01*
X14609950Y-11231731D01*
X14619269Y-11241050D01*
X14630681Y-11247639D01*
X14643410Y-11251050D01*
X14643411Y-11251050D01*
X14643411Y-11251050D01*
X14656589Y-11251050D01*
X14656589Y-11251050D01*
X14669319Y-11247639D01*
X14680731Y-11241050D01*
X14690050Y-11231731D01*
X14696639Y-11220319D01*
X14700050Y-11207589D01*
X14700050Y-11207589D01*
X14700050Y-11194411D01*
X14700050Y-11194410D01*
X14699551Y-11192550D01*
X14699009Y-11190525D01*
X15614950Y-11190525D01*
X15614950Y-11364475D01*
X15616113Y-11370323D01*
X15619061Y-11374734D01*
X15620545Y-11376955D01*
X15624956Y-11379903D01*
X15627177Y-11381387D01*
X15627177Y-11381387D01*
X15627177Y-11381387D01*
X15633025Y-11382550D01*
X15633025Y-11382550D01*
X15806975Y-11382550D01*
X15806975Y-11382550D01*
X15812823Y-11381387D01*
X15819455Y-11376955D01*
X15823887Y-11370323D01*
X15825050Y-11364475D01*
X15825050Y-11190525D01*
X15823887Y-11184677D01*
X15819455Y-11178045D01*
X15817234Y-11176561D01*
X15812823Y-11173613D01*
X15812823Y-11173613D01*
X15809899Y-11173032D01*
X15806975Y-11172450D01*
X15633025Y-11172450D01*
X15630101Y-11173032D01*
X15627177Y-11173613D01*
X15620545Y-11178045D01*
X15620545Y-11178045D01*
X15616113Y-11184677D01*
X15614950Y-11190525D01*
X14699009Y-11190525D01*
X14696639Y-11181681D01*
X14690050Y-11170269D01*
X14680731Y-11160950D01*
X14669319Y-11154361D01*
X14669318Y-11154361D01*
X14656589Y-11150950D01*
X14656589Y-11150950D01*
X14643411Y-11150950D01*
X14643411Y-11150950D01*
X14630682Y-11154361D01*
X14630681Y-11154361D01*
X14619268Y-11160950D01*
X14609950Y-11170269D01*
X14603361Y-11181681D01*
X14603361Y-11181682D01*
X14599950Y-11194410D01*
X14003933Y-11194410D01*
X13996568Y-11187046D01*
X13992465Y-11184677D01*
X13985155Y-11180457D01*
X13985155Y-11180456D01*
X13972426Y-11177046D01*
X13972426Y-11177046D01*
X13959247Y-11177046D01*
X13959247Y-11177046D01*
X13946518Y-11180456D01*
X13946517Y-11180457D01*
X13935105Y-11187046D01*
X13925786Y-11196364D01*
X13919197Y-11207777D01*
X13919197Y-11207777D01*
X13915786Y-11220506D01*
X12020550Y-11220506D01*
X12020550Y-11135911D01*
X14319950Y-11135911D01*
X14319950Y-11149089D01*
X14323361Y-11161818D01*
X14323361Y-11161819D01*
X14328239Y-11170269D01*
X14329950Y-11173231D01*
X14339269Y-11182550D01*
X14350681Y-11189139D01*
X14363410Y-11192550D01*
X14363411Y-11192550D01*
X14363411Y-11192550D01*
X14376589Y-11192550D01*
X14376589Y-11192550D01*
X14389319Y-11189139D01*
X14400731Y-11182550D01*
X14407267Y-11176014D01*
X14412500Y-11173847D01*
X14417733Y-11176014D01*
X14424269Y-11182550D01*
X14435681Y-11189139D01*
X14448410Y-11192550D01*
X14448411Y-11192550D01*
X14448411Y-11192550D01*
X14461589Y-11192550D01*
X14461589Y-11192550D01*
X14474319Y-11189139D01*
X14485731Y-11182550D01*
X14495050Y-11173231D01*
X14501639Y-11161819D01*
X14505050Y-11149089D01*
X14505050Y-11149089D01*
X14505050Y-11135911D01*
X14505050Y-11135911D01*
X14501639Y-11123182D01*
X14501639Y-11123181D01*
X14495050Y-11111769D01*
X14485731Y-11102450D01*
X14474319Y-11095861D01*
X14474318Y-11095861D01*
X14461589Y-11092450D01*
X14461589Y-11092450D01*
X14448411Y-11092450D01*
X14448411Y-11092450D01*
X14435682Y-11095861D01*
X14435681Y-11095861D01*
X14424268Y-11102450D01*
X14417733Y-11108986D01*
X14412500Y-11111153D01*
X14407267Y-11108986D01*
X14400731Y-11102450D01*
X14389319Y-11095861D01*
X14389318Y-11095861D01*
X14376589Y-11092450D01*
X14376589Y-11092450D01*
X14363411Y-11092450D01*
X14363411Y-11092450D01*
X14350682Y-11095861D01*
X14350681Y-11095861D01*
X14339268Y-11102450D01*
X14329950Y-11111769D01*
X14323361Y-11123181D01*
X14323361Y-11123182D01*
X14319950Y-11135911D01*
X12020550Y-11135911D01*
X12020550Y-11013154D01*
X15614950Y-11013154D01*
X15614950Y-11033846D01*
X15618987Y-11054141D01*
X15618987Y-11054142D01*
X15626906Y-11073260D01*
X15638402Y-11090466D01*
X15653034Y-11105098D01*
X15670240Y-11116594D01*
X15689358Y-11124513D01*
X15709653Y-11128550D01*
X15709654Y-11128550D01*
X15730346Y-11128550D01*
X15730346Y-11128550D01*
X15750642Y-11124513D01*
X15769760Y-11116594D01*
X15786965Y-11105098D01*
X15801598Y-11090466D01*
X15813094Y-11073260D01*
X15821013Y-11054142D01*
X15825050Y-11033847D01*
X15825050Y-11013154D01*
X15821013Y-10992858D01*
X15813094Y-10973740D01*
X15801598Y-10956535D01*
X15786965Y-10941902D01*
X15769760Y-10930406D01*
X15750642Y-10922487D01*
X15750641Y-10922487D01*
X15735352Y-10919446D01*
X15730346Y-10918450D01*
X15709653Y-10918450D01*
X15705638Y-10919249D01*
X15689359Y-10922487D01*
X15689358Y-10922487D01*
X15670240Y-10930406D01*
X15653034Y-10941902D01*
X15653034Y-10941902D01*
X15638402Y-10956534D01*
X15638402Y-10956535D01*
X15626906Y-10973740D01*
X15618987Y-10992858D01*
X15618987Y-10992859D01*
X15614950Y-11013154D01*
X12020550Y-11013154D01*
X12020550Y-10921411D01*
X13602950Y-10921411D01*
X13602950Y-10934589D01*
X13606361Y-10947318D01*
X13606361Y-10947318D01*
X13606361Y-10947319D01*
X13612950Y-10958731D01*
X13622269Y-10968050D01*
X13633681Y-10974639D01*
X13646410Y-10978050D01*
X13646411Y-10978050D01*
X13646411Y-10978050D01*
X13659589Y-10978050D01*
X13659589Y-10978050D01*
X13672319Y-10974639D01*
X13683731Y-10968050D01*
X13693050Y-10958731D01*
X13699639Y-10947319D01*
X13703050Y-10934589D01*
X13703050Y-10934589D01*
X13703050Y-10921411D01*
X13703050Y-10921411D01*
X13702257Y-10918450D01*
X13699639Y-10908681D01*
X13693050Y-10897269D01*
X13683731Y-10887950D01*
X13680906Y-10886319D01*
X13672319Y-10881361D01*
X13672318Y-10881361D01*
X13659589Y-10877950D01*
X13659589Y-10877950D01*
X13646411Y-10877950D01*
X13646411Y-10877950D01*
X13633682Y-10881361D01*
X13633681Y-10881361D01*
X13622268Y-10887950D01*
X13612950Y-10897269D01*
X13606361Y-10908681D01*
X13606361Y-10908682D01*
X13602950Y-10921411D01*
X12020550Y-10921411D01*
X12020550Y-10860411D01*
X14898950Y-10860411D01*
X14898950Y-10873589D01*
X14902361Y-10886318D01*
X14902361Y-10886318D01*
X14902361Y-10886319D01*
X14908950Y-10897731D01*
X14918269Y-10907050D01*
X14929681Y-10913639D01*
X14942410Y-10917050D01*
X14942411Y-10917050D01*
X14942411Y-10917050D01*
X14955589Y-10917050D01*
X14955589Y-10917050D01*
X14968319Y-10913639D01*
X14979731Y-10907050D01*
X14989050Y-10897731D01*
X14995639Y-10886319D01*
X14999050Y-10873589D01*
X14999050Y-10873589D01*
X14999050Y-10860411D01*
X14999050Y-10860411D01*
X14995639Y-10847682D01*
X14995639Y-10847681D01*
X14989050Y-10836269D01*
X14979731Y-10826950D01*
X14968319Y-10820361D01*
X14968318Y-10820361D01*
X14955589Y-10816950D01*
X14955589Y-10816950D01*
X14942411Y-10816950D01*
X14942411Y-10816950D01*
X14929682Y-10820361D01*
X14929681Y-10820361D01*
X14918268Y-10826950D01*
X14908950Y-10836269D01*
X14902361Y-10847681D01*
X14902361Y-10847682D01*
X14898950Y-10860411D01*
X12020550Y-10860411D01*
X12020550Y-10627500D01*
X13994176Y-10627500D01*
X13994176Y-10627500D01*
X14060027Y-10627500D01*
X14050839Y-10631306D01*
X14043806Y-10638339D01*
X14040000Y-10647527D01*
X14040000Y-10657473D01*
X14043806Y-10666661D01*
X14050839Y-10673694D01*
X14060027Y-10677500D01*
X13994176Y-10677500D01*
X13998536Y-10688025D01*
X14006744Y-10700310D01*
X14017190Y-10710756D01*
X14029474Y-10718964D01*
X14043123Y-10724618D01*
X14043124Y-10724618D01*
X14057613Y-10727500D01*
X14075000Y-10727500D01*
X14075000Y-10677500D01*
X14125000Y-10677500D01*
X14125000Y-10727500D01*
X14142387Y-10727500D01*
X14156876Y-10724618D01*
X14156877Y-10724618D01*
X14170525Y-10718964D01*
X14182810Y-10710756D01*
X14182810Y-10710756D01*
X14193256Y-10700310D01*
X14193256Y-10700310D01*
X14201464Y-10688025D01*
X14205824Y-10677500D01*
X14139973Y-10677500D01*
X14149161Y-10673694D01*
X14156194Y-10666661D01*
X14160000Y-10657473D01*
X14160000Y-10647527D01*
X14156194Y-10638339D01*
X14149161Y-10631306D01*
X14139973Y-10627500D01*
X14205824Y-10627500D01*
X14205824Y-10627500D01*
X14554176Y-10627500D01*
X14554176Y-10627500D01*
X14620027Y-10627500D01*
X14610839Y-10631306D01*
X14603806Y-10638339D01*
X14600000Y-10647527D01*
X14600000Y-10657473D01*
X14603806Y-10666661D01*
X14610839Y-10673694D01*
X14620027Y-10677500D01*
X14554176Y-10677500D01*
X14558536Y-10688025D01*
X14566744Y-10700310D01*
X14577190Y-10710756D01*
X14589474Y-10718964D01*
X14603123Y-10724618D01*
X14603124Y-10724618D01*
X14617613Y-10727500D01*
X14635000Y-10727500D01*
X14635000Y-10677500D01*
X14685000Y-10677500D01*
X14685000Y-10727500D01*
X14702387Y-10727500D01*
X14716876Y-10724618D01*
X14716877Y-10724618D01*
X14730525Y-10718964D01*
X14742810Y-10710756D01*
X14742810Y-10710756D01*
X14753256Y-10700310D01*
X14753256Y-10700310D01*
X14761464Y-10688025D01*
X14765824Y-10677500D01*
X14699973Y-10677500D01*
X14709161Y-10673694D01*
X14716194Y-10666661D01*
X14720000Y-10657473D01*
X14720000Y-10647527D01*
X14716194Y-10638339D01*
X14709855Y-10632000D01*
X15486026Y-10632000D01*
X15538500Y-10632000D01*
X15535998Y-10638040D01*
X15533500Y-10650598D01*
X15533500Y-10663402D01*
X15535998Y-10675960D01*
X15538500Y-10682000D01*
X15486026Y-10682000D01*
X15486332Y-10683929D01*
X15486332Y-10683930D01*
X15491925Y-10701144D01*
X15500143Y-10717273D01*
X15500143Y-10717273D01*
X15510783Y-10731917D01*
X15510783Y-10731918D01*
X15523582Y-10744717D01*
X15523583Y-10744717D01*
X15538227Y-10755357D01*
X15554356Y-10763575D01*
X15554355Y-10763575D01*
X15571570Y-10769168D01*
X15571571Y-10769168D01*
X15589449Y-10772000D01*
X15623500Y-10772000D01*
X15623500Y-10722000D01*
X15673500Y-10722000D01*
X15673500Y-10772000D01*
X15707551Y-10772000D01*
X15725429Y-10769168D01*
X15725430Y-10769168D01*
X15742644Y-10763575D01*
X15758773Y-10755357D01*
X15758773Y-10755357D01*
X15773417Y-10744717D01*
X15773418Y-10744717D01*
X15786217Y-10731918D01*
X15786217Y-10731917D01*
X15796857Y-10717273D01*
X15796857Y-10717273D01*
X15805075Y-10701144D01*
X15810668Y-10683930D01*
X15810668Y-10683929D01*
X15810974Y-10682000D01*
X15758500Y-10682000D01*
X15761002Y-10675960D01*
X15763500Y-10663402D01*
X15763500Y-10650598D01*
X15761002Y-10638040D01*
X15758500Y-10632000D01*
X15810974Y-10632000D01*
X15810668Y-10630071D01*
X15810668Y-10630070D01*
X15805075Y-10612856D01*
X15796857Y-10596727D01*
X15796857Y-10596727D01*
X15786217Y-10582083D01*
X15786217Y-10582082D01*
X15773418Y-10569283D01*
X15773417Y-10569283D01*
X15758773Y-10558643D01*
X15742644Y-10550425D01*
X15742644Y-10550425D01*
X15725430Y-10544832D01*
X15725429Y-10544832D01*
X15707551Y-10542000D01*
X15673500Y-10542000D01*
X15673500Y-10592000D01*
X15623500Y-10592000D01*
X15623500Y-10542000D01*
X15589449Y-10542000D01*
X15571571Y-10544832D01*
X15571570Y-10544832D01*
X15554356Y-10550425D01*
X15538227Y-10558643D01*
X15538227Y-10558643D01*
X15523583Y-10569283D01*
X15523582Y-10569283D01*
X15510783Y-10582082D01*
X15510783Y-10582083D01*
X15500143Y-10596727D01*
X15500143Y-10596727D01*
X15491925Y-10612856D01*
X15486332Y-10630070D01*
X15486332Y-10630071D01*
X15486026Y-10632000D01*
X14709855Y-10632000D01*
X14709161Y-10631306D01*
X14699973Y-10627500D01*
X14765824Y-10627500D01*
X14765824Y-10627500D01*
X14761464Y-10616975D01*
X14753256Y-10604690D01*
X14742810Y-10594244D01*
X14730525Y-10586036D01*
X14716877Y-10580382D01*
X14716876Y-10580382D01*
X14702387Y-10577500D01*
X14685000Y-10577500D01*
X14685000Y-10627500D01*
X14635000Y-10627500D01*
X14635000Y-10577500D01*
X14617613Y-10577500D01*
X14603124Y-10580382D01*
X14603123Y-10580382D01*
X14589474Y-10586036D01*
X14577190Y-10594244D01*
X14577190Y-10594244D01*
X14566744Y-10604690D01*
X14566744Y-10604690D01*
X14558536Y-10616975D01*
X14554176Y-10627500D01*
X14205824Y-10627500D01*
X14201464Y-10616975D01*
X14193256Y-10604690D01*
X14182810Y-10594244D01*
X14170525Y-10586036D01*
X14156877Y-10580382D01*
X14156876Y-10580382D01*
X14142387Y-10577500D01*
X14125000Y-10577500D01*
X14125000Y-10627500D01*
X14075000Y-10627500D01*
X14075000Y-10577500D01*
X14057613Y-10577500D01*
X14043124Y-10580382D01*
X14043123Y-10580382D01*
X14029474Y-10586036D01*
X14017190Y-10594244D01*
X14017190Y-10594244D01*
X14006744Y-10604690D01*
X14006744Y-10604690D01*
X13998536Y-10616975D01*
X13994176Y-10627500D01*
X12020550Y-10627500D01*
X12020550Y-10412500D01*
X14254176Y-10412500D01*
X14254176Y-10412500D01*
X14320027Y-10412500D01*
X14310839Y-10416306D01*
X14303806Y-10423339D01*
X14300000Y-10432527D01*
X14300000Y-10442473D01*
X14303806Y-10451661D01*
X14310839Y-10458694D01*
X14320027Y-10462500D01*
X14254176Y-10462500D01*
X14258536Y-10473025D01*
X14266744Y-10485310D01*
X14277190Y-10495756D01*
X14289474Y-10503964D01*
X14303123Y-10509618D01*
X14303124Y-10509618D01*
X14317613Y-10512500D01*
X14355000Y-10512500D01*
X14355000Y-10462500D01*
X14405000Y-10462500D01*
X14405000Y-10512500D01*
X14442387Y-10512500D01*
X14456876Y-10509618D01*
X14456877Y-10509618D01*
X14470525Y-10503964D01*
X14482810Y-10495756D01*
X14482810Y-10495756D01*
X14493256Y-10485310D01*
X14493256Y-10485310D01*
X14501464Y-10473025D01*
X14505824Y-10462500D01*
X14439973Y-10462500D01*
X14449161Y-10458694D01*
X14456194Y-10451661D01*
X14460000Y-10442473D01*
X14460000Y-10432527D01*
X14456194Y-10423339D01*
X14449161Y-10416306D01*
X14439973Y-10412500D01*
X14505824Y-10412500D01*
X14505824Y-10412500D01*
X14501464Y-10401975D01*
X14493256Y-10389690D01*
X14482810Y-10379244D01*
X14470525Y-10371036D01*
X14456877Y-10365382D01*
X14456876Y-10365382D01*
X14442387Y-10362500D01*
X14405000Y-10362500D01*
X14405000Y-10412500D01*
X14355000Y-10412500D01*
X14355000Y-10362500D01*
X14317613Y-10362500D01*
X14303124Y-10365382D01*
X14303123Y-10365382D01*
X14289474Y-10371036D01*
X14277190Y-10379244D01*
X14277190Y-10379244D01*
X14266744Y-10389690D01*
X14266744Y-10389690D01*
X14258536Y-10401975D01*
X14254176Y-10412500D01*
X12020550Y-10412500D01*
X12020550Y-10409862D01*
X12022717Y-10404629D01*
X12144321Y-10283025D01*
X15623450Y-10283025D01*
X15623450Y-10416975D01*
X15624613Y-10422823D01*
X15627561Y-10427234D01*
X15629045Y-10429455D01*
X15633456Y-10432403D01*
X15635677Y-10433887D01*
X15635677Y-10433887D01*
X15635677Y-10433887D01*
X15641525Y-10435050D01*
X15641525Y-10435050D01*
X15775475Y-10435050D01*
X15775475Y-10435050D01*
X15781323Y-10433887D01*
X15787955Y-10429455D01*
X15792387Y-10422823D01*
X15793550Y-10416975D01*
X15793550Y-10283025D01*
X15792387Y-10277177D01*
X15787955Y-10270545D01*
X15785734Y-10269061D01*
X15781323Y-10266113D01*
X15781323Y-10266113D01*
X15778399Y-10265532D01*
X15775475Y-10264950D01*
X15641525Y-10264950D01*
X15638601Y-10265532D01*
X15635677Y-10266113D01*
X15629045Y-10270545D01*
X15629045Y-10270545D01*
X15624613Y-10277177D01*
X15623450Y-10283025D01*
X12144321Y-10283025D01*
X12149917Y-10277429D01*
X12220591Y-10206756D01*
X12303453Y-10123893D01*
X12305267Y-10121957D01*
X12306336Y-10120737D01*
X12308020Y-10118686D01*
X12314478Y-10110270D01*
X12317425Y-10105859D01*
X12319044Y-10103055D01*
X12321389Y-10098299D01*
X12325135Y-10089256D01*
X12326840Y-10084234D01*
X12327677Y-10081107D01*
X12328712Y-10075905D01*
X12330097Y-10065389D01*
X12330357Y-10062748D01*
X12330463Y-10061129D01*
X12330550Y-10058477D01*
X12330550Y-10043411D01*
X14779950Y-10043411D01*
X14779950Y-10056589D01*
X14783361Y-10069318D01*
X14783361Y-10069318D01*
X14783361Y-10069319D01*
X14789950Y-10080731D01*
X14799269Y-10090050D01*
X14810681Y-10096639D01*
X14823410Y-10100050D01*
X14823411Y-10100050D01*
X14823411Y-10100050D01*
X14836589Y-10100050D01*
X14836589Y-10100050D01*
X14849319Y-10096639D01*
X14860731Y-10090050D01*
X14870050Y-10080731D01*
X14876639Y-10069319D01*
X14880050Y-10056589D01*
X14880050Y-10056589D01*
X14880050Y-10043411D01*
X14880050Y-10043411D01*
X14877511Y-10033937D01*
X14876639Y-10030681D01*
X14870050Y-10019269D01*
X14860731Y-10009950D01*
X14849319Y-10003361D01*
X14849318Y-10003361D01*
X14836589Y-9999950D01*
X14836589Y-9999950D01*
X14823411Y-9999950D01*
X14823411Y-9999950D01*
X14810682Y-10003361D01*
X14810681Y-10003361D01*
X14799268Y-10009950D01*
X14789950Y-10019269D01*
X14783361Y-10030681D01*
X14783361Y-10030682D01*
X14779950Y-10043411D01*
X12330550Y-10043411D01*
X12330550Y-9940949D01*
X15115500Y-9940949D01*
X15115500Y-9975000D01*
X15165500Y-9975000D01*
X15165500Y-10025000D01*
X15115500Y-10025000D01*
X15115500Y-10059051D01*
X15118332Y-10076929D01*
X15118332Y-10076930D01*
X15123925Y-10094144D01*
X15132143Y-10110273D01*
X15132143Y-10110273D01*
X15142783Y-10124917D01*
X15142783Y-10124918D01*
X15155582Y-10137717D01*
X15155583Y-10137717D01*
X15170227Y-10148357D01*
X15186356Y-10156575D01*
X15186355Y-10156575D01*
X15203570Y-10162168D01*
X15205500Y-10162474D01*
X15205500Y-10110000D01*
X15211540Y-10112502D01*
X15224098Y-10115000D01*
X15236902Y-10115000D01*
X15249460Y-10112502D01*
X15255500Y-10110000D01*
X15255500Y-10162474D01*
X15257429Y-10162168D01*
X15274644Y-10156575D01*
X15290773Y-10148357D01*
X15290773Y-10148357D01*
X15305417Y-10137717D01*
X15305418Y-10137717D01*
X15318217Y-10124918D01*
X15318217Y-10124917D01*
X15328857Y-10110273D01*
X15328857Y-10110273D01*
X15337075Y-10094144D01*
X15337894Y-10091623D01*
X15623450Y-10091623D01*
X15623450Y-10108377D01*
X15626718Y-10124808D01*
X15626718Y-10124808D01*
X15633130Y-10140286D01*
X15633130Y-10140286D01*
X15642437Y-10154216D01*
X15654284Y-10166063D01*
X15668214Y-10175370D01*
X15683692Y-10181782D01*
X15700123Y-10185050D01*
X15700123Y-10185050D01*
X15716877Y-10185050D01*
X15716877Y-10185050D01*
X15733308Y-10181782D01*
X15748786Y-10175370D01*
X15762716Y-10166063D01*
X15774563Y-10154216D01*
X15783870Y-10140286D01*
X15790282Y-10124808D01*
X15793550Y-10108377D01*
X15793550Y-10091623D01*
X15790282Y-10075192D01*
X15783870Y-10059714D01*
X15774563Y-10045784D01*
X15762716Y-10033937D01*
X15757843Y-10030681D01*
X15748786Y-10024630D01*
X15733308Y-10018218D01*
X15733307Y-10018218D01*
X15720929Y-10015756D01*
X15716877Y-10014950D01*
X15700123Y-10014950D01*
X15696873Y-10015597D01*
X15683692Y-10018218D01*
X15683692Y-10018218D01*
X15668214Y-10024630D01*
X15654284Y-10033937D01*
X15642437Y-10045784D01*
X15633130Y-10059714D01*
X15626718Y-10075192D01*
X15626718Y-10075192D01*
X15623450Y-10091623D01*
X15337894Y-10091623D01*
X15338755Y-10088973D01*
X15342668Y-10076930D01*
X15342668Y-10076929D01*
X15345500Y-10059051D01*
X15345500Y-10025000D01*
X15295500Y-10025000D01*
X15295500Y-9975000D01*
X15345500Y-9975000D01*
X15345500Y-9940949D01*
X15342668Y-9923071D01*
X15342668Y-9923070D01*
X15337075Y-9905856D01*
X15331350Y-9894619D01*
X15331349Y-9894619D01*
X15329823Y-9891623D01*
X15623450Y-9891623D01*
X15623450Y-9908377D01*
X15624256Y-9912429D01*
X15626718Y-9924808D01*
X15626718Y-9924808D01*
X15633130Y-9940286D01*
X15635343Y-9943598D01*
X15642437Y-9954216D01*
X15654284Y-9966063D01*
X15668214Y-9975370D01*
X15683692Y-9981782D01*
X15700123Y-9985050D01*
X15700123Y-9985050D01*
X15716877Y-9985050D01*
X15716877Y-9985050D01*
X15733308Y-9981782D01*
X15748786Y-9975370D01*
X15762716Y-9966063D01*
X15774563Y-9954216D01*
X15783870Y-9940286D01*
X15790282Y-9924808D01*
X15793550Y-9908377D01*
X15793550Y-9891623D01*
X15790282Y-9875192D01*
X15783870Y-9859714D01*
X15774563Y-9845784D01*
X15762716Y-9833937D01*
X15748786Y-9824630D01*
X15748786Y-9824630D01*
X15748786Y-9824630D01*
X15733308Y-9818218D01*
X15733307Y-9818218D01*
X15720929Y-9815756D01*
X15716877Y-9814950D01*
X15700123Y-9814950D01*
X15696873Y-9815597D01*
X15683692Y-9818218D01*
X15683692Y-9818218D01*
X15668214Y-9824630D01*
X15654284Y-9833937D01*
X15642437Y-9845784D01*
X15633130Y-9859714D01*
X15626718Y-9875192D01*
X15626718Y-9875192D01*
X15623450Y-9891623D01*
X15329823Y-9891623D01*
X15328856Y-9889726D01*
X15318217Y-9875083D01*
X15318217Y-9875082D01*
X15305418Y-9862283D01*
X15305417Y-9862283D01*
X15290773Y-9851643D01*
X15274644Y-9843425D01*
X15274644Y-9843425D01*
X15257430Y-9837832D01*
X15257429Y-9837832D01*
X15255500Y-9837526D01*
X15255500Y-9890000D01*
X15249460Y-9887498D01*
X15236902Y-9885000D01*
X15224098Y-9885000D01*
X15211540Y-9887498D01*
X15205500Y-9890000D01*
X15205500Y-9837526D01*
X15203570Y-9837832D01*
X15203570Y-9837832D01*
X15186356Y-9843425D01*
X15170227Y-9851643D01*
X15170227Y-9851643D01*
X15155583Y-9862283D01*
X15155582Y-9862283D01*
X15142783Y-9875082D01*
X15142783Y-9875083D01*
X15132143Y-9889727D01*
X15132143Y-9889727D01*
X15123925Y-9905856D01*
X15118332Y-9923070D01*
X15118332Y-9923071D01*
X15115500Y-9940949D01*
X12330550Y-9940949D01*
X12330550Y-9805000D01*
X13982588Y-9805000D01*
X14046699Y-9805000D01*
X14043407Y-9810701D01*
X14040000Y-9823417D01*
X14040000Y-9836583D01*
X14043407Y-9849299D01*
X14046699Y-9855000D01*
X13982588Y-9855000D01*
X13982709Y-9855759D01*
X13982709Y-9855759D01*
X13988059Y-9872225D01*
X13995920Y-9887653D01*
X13995920Y-9887653D01*
X14006096Y-9901660D01*
X14006097Y-9901661D01*
X14018339Y-9913903D01*
X14018340Y-9913904D01*
X14032347Y-9924080D01*
X14032347Y-9924080D01*
X14047775Y-9931941D01*
X14047775Y-9931941D01*
X14064240Y-9937291D01*
X14064242Y-9937291D01*
X14081343Y-9940000D01*
X14155000Y-9940000D01*
X14155000Y-9880000D01*
X14205000Y-9880000D01*
X14205000Y-9940000D01*
X14278657Y-9940000D01*
X14295758Y-9937291D01*
X14295759Y-9937291D01*
X14307055Y-9933621D01*
X14312225Y-9931941D01*
X14327653Y-9924080D01*
X14327653Y-9924080D01*
X14341660Y-9913904D01*
X14341661Y-9913903D01*
X14353903Y-9901661D01*
X14353903Y-9901660D01*
X14364080Y-9887653D01*
X14364080Y-9887653D01*
X14371941Y-9872225D01*
X14377291Y-9855759D01*
X14377291Y-9855759D01*
X14377411Y-9855000D01*
X14313301Y-9855000D01*
X14316592Y-9849299D01*
X14320000Y-9836583D01*
X14320000Y-9823417D01*
X14316592Y-9810701D01*
X14313301Y-9805000D01*
X14377411Y-9805000D01*
X14377291Y-9804241D01*
X14377291Y-9804241D01*
X14371941Y-9787775D01*
X14364080Y-9772347D01*
X14364080Y-9772347D01*
X14353903Y-9758340D01*
X14353903Y-9758339D01*
X14341661Y-9746097D01*
X14341660Y-9746096D01*
X14327653Y-9735920D01*
X14327653Y-9735920D01*
X14315189Y-9729569D01*
X14315189Y-9729569D01*
X14312225Y-9728059D01*
X14312225Y-9728059D01*
X14295759Y-9722709D01*
X14295758Y-9722709D01*
X14278657Y-9720000D01*
X14205000Y-9720000D01*
X14205000Y-9780000D01*
X14155000Y-9780000D01*
X14155000Y-9720000D01*
X14081343Y-9720000D01*
X14064242Y-9722709D01*
X14064240Y-9722709D01*
X14047775Y-9728059D01*
X14032347Y-9735920D01*
X14032347Y-9735920D01*
X14018340Y-9746096D01*
X14018339Y-9746097D01*
X14006097Y-9758339D01*
X14006096Y-9758340D01*
X13995920Y-9772347D01*
X13995920Y-9772347D01*
X13988059Y-9787775D01*
X13982709Y-9804241D01*
X13982709Y-9804241D01*
X13982588Y-9805000D01*
X12330550Y-9805000D01*
X12330550Y-9555000D01*
X14352588Y-9555000D01*
X14416699Y-9555000D01*
X14413407Y-9560701D01*
X14410000Y-9573417D01*
X14410000Y-9586583D01*
X14413407Y-9599299D01*
X14416699Y-9605000D01*
X14352588Y-9605000D01*
X14352709Y-9605759D01*
X14352709Y-9605759D01*
X14358059Y-9622225D01*
X14365920Y-9637653D01*
X14365920Y-9637653D01*
X14376096Y-9651660D01*
X14376097Y-9651661D01*
X14388339Y-9663903D01*
X14388340Y-9663904D01*
X14402347Y-9674080D01*
X14402347Y-9674080D01*
X14417775Y-9681941D01*
X14417775Y-9681941D01*
X14434240Y-9687291D01*
X14434242Y-9687291D01*
X14451343Y-9690000D01*
X14525000Y-9690000D01*
X14525000Y-9630000D01*
X14575000Y-9630000D01*
X14575000Y-9690000D01*
X14648657Y-9690000D01*
X14665758Y-9687291D01*
X14665759Y-9687291D01*
X14682225Y-9681941D01*
X14697653Y-9674080D01*
X14697653Y-9674080D01*
X14711660Y-9663904D01*
X14711661Y-9663903D01*
X14723903Y-9651661D01*
X14723903Y-9651660D01*
X14731192Y-9641628D01*
X15623500Y-9641628D01*
X15623500Y-9658372D01*
X15626766Y-9674793D01*
X15626766Y-9674794D01*
X15633088Y-9690056D01*
X15664286Y-9658858D01*
X15666567Y-9667369D01*
X15672491Y-9677631D01*
X15680869Y-9686009D01*
X15691131Y-9691933D01*
X15699641Y-9694214D01*
X15668444Y-9725411D01*
X15683706Y-9731733D01*
X15683707Y-9731734D01*
X15700128Y-9735000D01*
X15716872Y-9735000D01*
X15733293Y-9731734D01*
X15733294Y-9731733D01*
X15748556Y-9725411D01*
X15717358Y-9694214D01*
X15725869Y-9691933D01*
X15736131Y-9686009D01*
X15744509Y-9677631D01*
X15750433Y-9667369D01*
X15752714Y-9658859D01*
X15783911Y-9690056D01*
X15790233Y-9674794D01*
X15790234Y-9674793D01*
X15793500Y-9658372D01*
X15793500Y-9641628D01*
X15790234Y-9625207D01*
X15790233Y-9625206D01*
X15783911Y-9609944D01*
X15752714Y-9641141D01*
X15750433Y-9632631D01*
X15744509Y-9622369D01*
X15736131Y-9613991D01*
X15725869Y-9608067D01*
X15717358Y-9605786D01*
X15748556Y-9574589D01*
X15733294Y-9568267D01*
X15733293Y-9568266D01*
X15716872Y-9565000D01*
X15700128Y-9565000D01*
X15683707Y-9568266D01*
X15683706Y-9568267D01*
X15668444Y-9574589D01*
X15699641Y-9605786D01*
X15691131Y-9608067D01*
X15680869Y-9613991D01*
X15672491Y-9622369D01*
X15666567Y-9632631D01*
X15664286Y-9641141D01*
X15633088Y-9609944D01*
X15626766Y-9625206D01*
X15626766Y-9625207D01*
X15623500Y-9641628D01*
X14731192Y-9641628D01*
X14734080Y-9637653D01*
X14734081Y-9637652D01*
X14741941Y-9622225D01*
X14741941Y-9622225D01*
X14747291Y-9605759D01*
X14747291Y-9605759D01*
X14747411Y-9605000D01*
X14683301Y-9605000D01*
X14686592Y-9599299D01*
X14690000Y-9586583D01*
X14690000Y-9573417D01*
X14686592Y-9560701D01*
X14683301Y-9555000D01*
X14747411Y-9555000D01*
X14747291Y-9554241D01*
X14747291Y-9554241D01*
X14741941Y-9537775D01*
X14734080Y-9522347D01*
X14734080Y-9522347D01*
X14723903Y-9508340D01*
X14723903Y-9508339D01*
X14711661Y-9496097D01*
X14711660Y-9496096D01*
X14697653Y-9485920D01*
X14697653Y-9485920D01*
X14682225Y-9478059D01*
X14682225Y-9478059D01*
X14665759Y-9472709D01*
X14665758Y-9472709D01*
X14648657Y-9470000D01*
X14575000Y-9470000D01*
X14575000Y-9530000D01*
X14525000Y-9530000D01*
X14525000Y-9470000D01*
X14451343Y-9470000D01*
X14434242Y-9472709D01*
X14434240Y-9472709D01*
X14417775Y-9478059D01*
X14402347Y-9485920D01*
X14402347Y-9485920D01*
X14388340Y-9496096D01*
X14388339Y-9496097D01*
X14376097Y-9508339D01*
X14376096Y-9508340D01*
X14365920Y-9522347D01*
X14365920Y-9522347D01*
X14358059Y-9537775D01*
X14352709Y-9554241D01*
X14352709Y-9554241D01*
X14352588Y-9555000D01*
X12330550Y-9555000D01*
X12330550Y-9409862D01*
X12332717Y-9404629D01*
X12387944Y-9349402D01*
X12448492Y-9288854D01*
X14129950Y-9288854D01*
X14129950Y-9311146D01*
X14130243Y-9313375D01*
X14132859Y-9333246D01*
X14138629Y-9354778D01*
X14147159Y-9375372D01*
X14147159Y-9375373D01*
X14158305Y-9394677D01*
X14158305Y-9394678D01*
X14171875Y-9412362D01*
X14187638Y-9428125D01*
X14204882Y-9441357D01*
X14205323Y-9441695D01*
X14224627Y-9452841D01*
X14245222Y-9461371D01*
X14266754Y-9467140D01*
X14288854Y-9470050D01*
X14288854Y-9470050D01*
X14311145Y-9470050D01*
X14311146Y-9470050D01*
X14333246Y-9467140D01*
X14354778Y-9461371D01*
X14375373Y-9452841D01*
X14394677Y-9441695D01*
X14404231Y-9434364D01*
X14412362Y-9428125D01*
X14412362Y-9428125D01*
X14412362Y-9428125D01*
X14428125Y-9412362D01*
X14441695Y-9394677D01*
X14452840Y-9375373D01*
X14461371Y-9354778D01*
X14467140Y-9333246D01*
X14469148Y-9318000D01*
X15486026Y-9318000D01*
X15538500Y-9318000D01*
X15535998Y-9324040D01*
X15533500Y-9336598D01*
X15533500Y-9349402D01*
X15535998Y-9361960D01*
X15538500Y-9368000D01*
X15486026Y-9368000D01*
X15486332Y-9369929D01*
X15486332Y-9369930D01*
X15491925Y-9387144D01*
X15500143Y-9403273D01*
X15500143Y-9403273D01*
X15510783Y-9417917D01*
X15510783Y-9417918D01*
X15523582Y-9430717D01*
X15523583Y-9430717D01*
X15538227Y-9441357D01*
X15554356Y-9449575D01*
X15554355Y-9449575D01*
X15571570Y-9455168D01*
X15571571Y-9455168D01*
X15589449Y-9458000D01*
X15623500Y-9458000D01*
X15623500Y-9408000D01*
X15673500Y-9408000D01*
X15673500Y-9458000D01*
X15707551Y-9458000D01*
X15725429Y-9455168D01*
X15725430Y-9455168D01*
X15742644Y-9449575D01*
X15758773Y-9441357D01*
X15758773Y-9441357D01*
X15773417Y-9430717D01*
X15773418Y-9430717D01*
X15786217Y-9417918D01*
X15786217Y-9417917D01*
X15796857Y-9403273D01*
X15796857Y-9403273D01*
X15805075Y-9387144D01*
X15810668Y-9369930D01*
X15810668Y-9369929D01*
X15810974Y-9368000D01*
X15758500Y-9368000D01*
X15761002Y-9361960D01*
X15763500Y-9349402D01*
X15763500Y-9336598D01*
X15761002Y-9324040D01*
X15758500Y-9318000D01*
X15810974Y-9318000D01*
X15810668Y-9316071D01*
X15810668Y-9316070D01*
X15805075Y-9298856D01*
X15796857Y-9282727D01*
X15796857Y-9282727D01*
X15786217Y-9268083D01*
X15786217Y-9268082D01*
X15773418Y-9255283D01*
X15773417Y-9255283D01*
X15758773Y-9244643D01*
X15742644Y-9236425D01*
X15742644Y-9236425D01*
X15725430Y-9230832D01*
X15725429Y-9230832D01*
X15707551Y-9228000D01*
X15673500Y-9228000D01*
X15673500Y-9278000D01*
X15623500Y-9278000D01*
X15623500Y-9228000D01*
X15589449Y-9228000D01*
X15571571Y-9230832D01*
X15571570Y-9230832D01*
X15554356Y-9236425D01*
X15538227Y-9244643D01*
X15538227Y-9244643D01*
X15523583Y-9255283D01*
X15523582Y-9255283D01*
X15510783Y-9268082D01*
X15510783Y-9268083D01*
X15500143Y-9282727D01*
X15500143Y-9282727D01*
X15491925Y-9298856D01*
X15486332Y-9316070D01*
X15486332Y-9316071D01*
X15486026Y-9318000D01*
X14469148Y-9318000D01*
X14470050Y-9311146D01*
X14470050Y-9288854D01*
X14467140Y-9266754D01*
X14461371Y-9245222D01*
X14452840Y-9224627D01*
X14441695Y-9205323D01*
X14441695Y-9205322D01*
X14428125Y-9187638D01*
X14412362Y-9171875D01*
X14394678Y-9158305D01*
X14394677Y-9158305D01*
X14375372Y-9147159D01*
X14375372Y-9147159D01*
X14354778Y-9138629D01*
X14333246Y-9132860D01*
X14316965Y-9130716D01*
X14311146Y-9129950D01*
X14288854Y-9129950D01*
X14283712Y-9130627D01*
X14266754Y-9132860D01*
X14245222Y-9138629D01*
X14224628Y-9147159D01*
X14224627Y-9147159D01*
X14205323Y-9158305D01*
X14205322Y-9158305D01*
X14187638Y-9171875D01*
X14171875Y-9187638D01*
X14158305Y-9205322D01*
X14158305Y-9205323D01*
X14147159Y-9224627D01*
X14147159Y-9224628D01*
X14138629Y-9245222D01*
X14132859Y-9266754D01*
X14131379Y-9278000D01*
X14129950Y-9288854D01*
X12448492Y-9288854D01*
X12453453Y-9283893D01*
X12455267Y-9281957D01*
X12456336Y-9280737D01*
X12458020Y-9278686D01*
X12464478Y-9270270D01*
X12467425Y-9265859D01*
X12469044Y-9263055D01*
X12471389Y-9258299D01*
X12475135Y-9249256D01*
X12476840Y-9244234D01*
X12477677Y-9241107D01*
X12478712Y-9235905D01*
X12480097Y-9225389D01*
X12480357Y-9222748D01*
X12480463Y-9221129D01*
X12480550Y-9218477D01*
X12480550Y-9173411D01*
X13686700Y-9173411D01*
X13686700Y-9186589D01*
X13690111Y-9199318D01*
X13690111Y-9199318D01*
X13690111Y-9199319D01*
X13696700Y-9210731D01*
X13706019Y-9220050D01*
X13717431Y-9226639D01*
X13730160Y-9230050D01*
X13730161Y-9230050D01*
X13730161Y-9230050D01*
X13743339Y-9230050D01*
X13743339Y-9230050D01*
X13756069Y-9226639D01*
X13767481Y-9220050D01*
X13776800Y-9210731D01*
X13783389Y-9199319D01*
X13786800Y-9186589D01*
X13786800Y-9186589D01*
X13786800Y-9173411D01*
X13786800Y-9173411D01*
X13886700Y-9173411D01*
X13886700Y-9186589D01*
X13890111Y-9199318D01*
X13890111Y-9199318D01*
X13890111Y-9199319D01*
X13896700Y-9210731D01*
X13906019Y-9220050D01*
X13917431Y-9226639D01*
X13930160Y-9230050D01*
X13930161Y-9230050D01*
X13930161Y-9230050D01*
X13943339Y-9230050D01*
X13943339Y-9230050D01*
X13956069Y-9226639D01*
X13967481Y-9220050D01*
X13976800Y-9210731D01*
X13983389Y-9199319D01*
X13986800Y-9186589D01*
X13986800Y-9186589D01*
X13986800Y-9173411D01*
X13986800Y-9173411D01*
X13986388Y-9171875D01*
X13983389Y-9160681D01*
X13976800Y-9149269D01*
X13967481Y-9139950D01*
X13965193Y-9138629D01*
X13956069Y-9133361D01*
X13956068Y-9133361D01*
X13943339Y-9129950D01*
X13943339Y-9129950D01*
X13930161Y-9129950D01*
X13930161Y-9129950D01*
X13917432Y-9133361D01*
X13917431Y-9133361D01*
X13906018Y-9139950D01*
X13896700Y-9149269D01*
X13890111Y-9160681D01*
X13890111Y-9160682D01*
X13886700Y-9173411D01*
X13786800Y-9173411D01*
X13786388Y-9171875D01*
X13783389Y-9160681D01*
X13776800Y-9149269D01*
X13767481Y-9139950D01*
X13765193Y-9138629D01*
X13756069Y-9133361D01*
X13756068Y-9133361D01*
X13743339Y-9129950D01*
X13743339Y-9129950D01*
X13730161Y-9129950D01*
X13730161Y-9129950D01*
X13717432Y-9133361D01*
X13717431Y-9133361D01*
X13706018Y-9139950D01*
X13696700Y-9149269D01*
X13690111Y-9160681D01*
X13690111Y-9160682D01*
X13686700Y-9173411D01*
X12480550Y-9173411D01*
X12480550Y-9013411D01*
X13686700Y-9013411D01*
X13686700Y-9026589D01*
X13690111Y-9039318D01*
X13690111Y-9039318D01*
X13690111Y-9039319D01*
X13696700Y-9050731D01*
X13706019Y-9060050D01*
X13717431Y-9066639D01*
X13730160Y-9070050D01*
X13730161Y-9070050D01*
X13730161Y-9070050D01*
X13743339Y-9070050D01*
X13743339Y-9070050D01*
X13756069Y-9066639D01*
X13767481Y-9060050D01*
X13776800Y-9050731D01*
X13783389Y-9039319D01*
X13786800Y-9026589D01*
X13786800Y-9026589D01*
X13786800Y-9013411D01*
X13786800Y-9013411D01*
X13886700Y-9013411D01*
X13886700Y-9026589D01*
X13890111Y-9039318D01*
X13890111Y-9039318D01*
X13890111Y-9039319D01*
X13896700Y-9050731D01*
X13906019Y-9060050D01*
X13917431Y-9066639D01*
X13930160Y-9070050D01*
X13930161Y-9070050D01*
X13930161Y-9070050D01*
X13943339Y-9070050D01*
X13943339Y-9070050D01*
X13956069Y-9066639D01*
X13958554Y-9065204D01*
X14664600Y-9065204D01*
X14664600Y-9125000D01*
X14710000Y-9125000D01*
X14710000Y-9175000D01*
X14664600Y-9175000D01*
X14664600Y-9234796D01*
X14668266Y-9253227D01*
X14668266Y-9253228D01*
X14675457Y-9270588D01*
X14685898Y-9286214D01*
X14699186Y-9299502D01*
X14714812Y-9309943D01*
X14714812Y-9309943D01*
X14732172Y-9317134D01*
X14732173Y-9317134D01*
X14735000Y-9317696D01*
X14735000Y-9317696D01*
X14735000Y-9268301D01*
X14740701Y-9271593D01*
X14753417Y-9275000D01*
X14766583Y-9275000D01*
X14779299Y-9271593D01*
X14785000Y-9268301D01*
X14785000Y-9317696D01*
X14787826Y-9317134D01*
X14787828Y-9317134D01*
X14796902Y-9313375D01*
X14805188Y-9309943D01*
X14820814Y-9299502D01*
X14820814Y-9299502D01*
X14834102Y-9286214D01*
X14834102Y-9286214D01*
X14844543Y-9270588D01*
X14851734Y-9253228D01*
X14851734Y-9253227D01*
X14855400Y-9234796D01*
X14855400Y-9175000D01*
X14810000Y-9175000D01*
X14810000Y-9125000D01*
X14855400Y-9125000D01*
X14855400Y-9065204D01*
X14851734Y-9046773D01*
X14851734Y-9046772D01*
X14844543Y-9029412D01*
X14834102Y-9013786D01*
X14820814Y-9000498D01*
X14805188Y-8990057D01*
X14805188Y-8990057D01*
X14787827Y-8982866D01*
X14787827Y-8982866D01*
X14785000Y-8982304D01*
X14785000Y-9031699D01*
X14779299Y-9028408D01*
X14766583Y-9025000D01*
X14753417Y-9025000D01*
X14740701Y-9028408D01*
X14735000Y-9031699D01*
X14735000Y-8982304D01*
X14732173Y-8982866D01*
X14732172Y-8982866D01*
X14714812Y-8990057D01*
X14699186Y-9000498D01*
X14699186Y-9000498D01*
X14685898Y-9013786D01*
X14685898Y-9013786D01*
X14675457Y-9029412D01*
X14668266Y-9046772D01*
X14668266Y-9046773D01*
X14664600Y-9065204D01*
X13958554Y-9065204D01*
X13967481Y-9060050D01*
X13976800Y-9050731D01*
X13983389Y-9039319D01*
X13986800Y-9026589D01*
X13986800Y-9026589D01*
X13986800Y-9013411D01*
X13986800Y-9013411D01*
X13983389Y-9000682D01*
X13983389Y-9000681D01*
X13976800Y-8989269D01*
X13967481Y-8979950D01*
X13956069Y-8973361D01*
X13956068Y-8973361D01*
X13943339Y-8969950D01*
X13943339Y-8969950D01*
X13930161Y-8969950D01*
X13930161Y-8969950D01*
X13917432Y-8973361D01*
X13917431Y-8973361D01*
X13906018Y-8979950D01*
X13896700Y-8989269D01*
X13890111Y-9000681D01*
X13890111Y-9000682D01*
X13886700Y-9013411D01*
X13786800Y-9013411D01*
X13783389Y-9000682D01*
X13783389Y-9000681D01*
X13776800Y-8989269D01*
X13767481Y-8979950D01*
X13756069Y-8973361D01*
X13756068Y-8973361D01*
X13743339Y-8969950D01*
X13743339Y-8969950D01*
X13730161Y-8969950D01*
X13730161Y-8969950D01*
X13717432Y-8973361D01*
X13717431Y-8973361D01*
X13706018Y-8979950D01*
X13696700Y-8989269D01*
X13690111Y-9000681D01*
X13690111Y-9000682D01*
X13686700Y-9013411D01*
X12480550Y-9013411D01*
X12480550Y-9011523D01*
X12480463Y-9008871D01*
X12480357Y-9007252D01*
X12480097Y-9004611D01*
X12478712Y-8994095D01*
X12477677Y-8988893D01*
X12477677Y-8988893D01*
X12477677Y-8988892D01*
X12476840Y-8985767D01*
X12475855Y-8982866D01*
X12475135Y-8980744D01*
X12471389Y-8971701D01*
X12469044Y-8966945D01*
X12467425Y-8964141D01*
X12464478Y-8959730D01*
X12464478Y-8959730D01*
X12458021Y-8951315D01*
X12457790Y-8951035D01*
X12456336Y-8949263D01*
X12455270Y-8948047D01*
X12455268Y-8948044D01*
X12453453Y-8946107D01*
X12396807Y-8889461D01*
X14185950Y-8889461D01*
X14185950Y-8902639D01*
X14189361Y-8915368D01*
X14189361Y-8915368D01*
X14189361Y-8915369D01*
X14195950Y-8926781D01*
X14205269Y-8936100D01*
X14216681Y-8942689D01*
X14229410Y-8946100D01*
X14229411Y-8946100D01*
X14229411Y-8946100D01*
X14242589Y-8946100D01*
X14242589Y-8946100D01*
X14255319Y-8942689D01*
X14266731Y-8936100D01*
X14276050Y-8926781D01*
X14282639Y-8915369D01*
X14286050Y-8902639D01*
X14286050Y-8902639D01*
X14286050Y-8894411D01*
X14364950Y-8894411D01*
X14364950Y-8907589D01*
X14368361Y-8920318D01*
X14368361Y-8920318D01*
X14368361Y-8920319D01*
X14374950Y-8931731D01*
X14384269Y-8941050D01*
X14395681Y-8947639D01*
X14408410Y-8951050D01*
X14408411Y-8951050D01*
X14408411Y-8951050D01*
X14421589Y-8951050D01*
X14421589Y-8951050D01*
X14434319Y-8947639D01*
X14445731Y-8941050D01*
X14455050Y-8931731D01*
X14461639Y-8920319D01*
X14465050Y-8907589D01*
X14465050Y-8907589D01*
X14465050Y-8894411D01*
X14465050Y-8894411D01*
X14463724Y-8889461D01*
X14461639Y-8881681D01*
X14455050Y-8870269D01*
X14445731Y-8860950D01*
X14437158Y-8856000D01*
X14434319Y-8854361D01*
X14434318Y-8854361D01*
X14421589Y-8850950D01*
X14421589Y-8850950D01*
X14408411Y-8850950D01*
X14408411Y-8850950D01*
X14395682Y-8854361D01*
X14395681Y-8854361D01*
X14384268Y-8860950D01*
X14374950Y-8870269D01*
X14368361Y-8881681D01*
X14368361Y-8881682D01*
X14364950Y-8894411D01*
X14286050Y-8894411D01*
X14286050Y-8889461D01*
X14286050Y-8889461D01*
X14282639Y-8876732D01*
X14282639Y-8876731D01*
X14276050Y-8865319D01*
X14266731Y-8856000D01*
X14257985Y-8850950D01*
X14255319Y-8849411D01*
X14255318Y-8849411D01*
X14242589Y-8846000D01*
X14242589Y-8846000D01*
X14229411Y-8846000D01*
X14229411Y-8846000D01*
X14216682Y-8849411D01*
X14216681Y-8849411D01*
X14205268Y-8856000D01*
X14195950Y-8865319D01*
X14189361Y-8876731D01*
X14189361Y-8876732D01*
X14185950Y-8889461D01*
X12396807Y-8889461D01*
X12332717Y-8825371D01*
X12330550Y-8820138D01*
X12330550Y-8793411D01*
X14639950Y-8793411D01*
X14639950Y-8806589D01*
X14643361Y-8819318D01*
X14643361Y-8819319D01*
X14649950Y-8830731D01*
X14659269Y-8840050D01*
X14670681Y-8846639D01*
X14683410Y-8850050D01*
X14683411Y-8850050D01*
X14683411Y-8850050D01*
X14696589Y-8850050D01*
X14696589Y-8850050D01*
X14709319Y-8846639D01*
X14720731Y-8840050D01*
X14730050Y-8830731D01*
X14736639Y-8819319D01*
X14740050Y-8806589D01*
X14740050Y-8806589D01*
X14740050Y-8793411D01*
X14740050Y-8793411D01*
X14736639Y-8780682D01*
X14736639Y-8780681D01*
X14730050Y-8769269D01*
X14724192Y-8763411D01*
X15069950Y-8763411D01*
X15069950Y-8776589D01*
X15073361Y-8789318D01*
X15073361Y-8789319D01*
X15075723Y-8793411D01*
X15079950Y-8800731D01*
X15089269Y-8810050D01*
X15100681Y-8816639D01*
X15113410Y-8820050D01*
X15113411Y-8820050D01*
X15113411Y-8820050D01*
X15126589Y-8820050D01*
X15126589Y-8820050D01*
X15139319Y-8816639D01*
X15150731Y-8810050D01*
X15160050Y-8800731D01*
X15166639Y-8789319D01*
X15170050Y-8776589D01*
X15170050Y-8776589D01*
X15170050Y-8763411D01*
X15170050Y-8763411D01*
X15167140Y-8752550D01*
X15166639Y-8750681D01*
X15160050Y-8739269D01*
X15150731Y-8729950D01*
X15139319Y-8723361D01*
X15139318Y-8723361D01*
X15126589Y-8719950D01*
X15126589Y-8719950D01*
X15113411Y-8719950D01*
X15113411Y-8719950D01*
X15100682Y-8723361D01*
X15100681Y-8723361D01*
X15089268Y-8729950D01*
X15079950Y-8739269D01*
X15073361Y-8750681D01*
X15073361Y-8750682D01*
X15069950Y-8763411D01*
X14724192Y-8763411D01*
X14720731Y-8759950D01*
X14709319Y-8753361D01*
X14709318Y-8753361D01*
X14696589Y-8749950D01*
X14696589Y-8749950D01*
X14683411Y-8749950D01*
X14683411Y-8749950D01*
X14670682Y-8753361D01*
X14670681Y-8753361D01*
X14659268Y-8759950D01*
X14649950Y-8769269D01*
X14643361Y-8780681D01*
X14643361Y-8780682D01*
X14639950Y-8793411D01*
X12330550Y-8793411D01*
X12330550Y-8695911D01*
X14368950Y-8695911D01*
X14368950Y-8709089D01*
X14372361Y-8721818D01*
X14372361Y-8721819D01*
X14373251Y-8723361D01*
X14378950Y-8733231D01*
X14388269Y-8742550D01*
X14399681Y-8749139D01*
X14412410Y-8752550D01*
X14412411Y-8752550D01*
X14412411Y-8752550D01*
X14425589Y-8752550D01*
X14425589Y-8752550D01*
X14438319Y-8749139D01*
X14449731Y-8742550D01*
X14459050Y-8733231D01*
X14465639Y-8721819D01*
X14469050Y-8709089D01*
X14469050Y-8709089D01*
X14469050Y-8695911D01*
X14469050Y-8695911D01*
X14465639Y-8683182D01*
X14465639Y-8683181D01*
X14459050Y-8671769D01*
X14449731Y-8662450D01*
X14438319Y-8655861D01*
X14438318Y-8655861D01*
X14425589Y-8652450D01*
X14425589Y-8652450D01*
X14412411Y-8652450D01*
X14412411Y-8652450D01*
X14399682Y-8655861D01*
X14399681Y-8655861D01*
X14388268Y-8662450D01*
X14378950Y-8671769D01*
X14372361Y-8683181D01*
X14372361Y-8683182D01*
X14368950Y-8695911D01*
X12330550Y-8695911D01*
X12330550Y-8292153D01*
X13828450Y-8292153D01*
X13828450Y-8312846D01*
X13832487Y-8333141D01*
X13832487Y-8333142D01*
X13840406Y-8352260D01*
X13851902Y-8369465D01*
X13866534Y-8384098D01*
X13883740Y-8395594D01*
X13902858Y-8403513D01*
X13923153Y-8407550D01*
X13923154Y-8407550D01*
X13943846Y-8407550D01*
X13943846Y-8407550D01*
X13964142Y-8403513D01*
X13983260Y-8395594D01*
X14000465Y-8384098D01*
X14015098Y-8369465D01*
X14026594Y-8352260D01*
X14034513Y-8333142D01*
X14038550Y-8312846D01*
X14038550Y-8292153D01*
X14082450Y-8292153D01*
X14082450Y-8312846D01*
X14086487Y-8333141D01*
X14086487Y-8333142D01*
X14094406Y-8352260D01*
X14105902Y-8369465D01*
X14120534Y-8384098D01*
X14137740Y-8395594D01*
X14156858Y-8403513D01*
X14177153Y-8407550D01*
X14177154Y-8407550D01*
X14197846Y-8407550D01*
X14197846Y-8407550D01*
X14218142Y-8403513D01*
X14237260Y-8395594D01*
X14254465Y-8384098D01*
X14269098Y-8369465D01*
X14280594Y-8352260D01*
X14288513Y-8333142D01*
X14292550Y-8312846D01*
X14292550Y-8292153D01*
X14336450Y-8292153D01*
X14336450Y-8312846D01*
X14340487Y-8333141D01*
X14340487Y-8333142D01*
X14348406Y-8352260D01*
X14359902Y-8369465D01*
X14374534Y-8384098D01*
X14391740Y-8395594D01*
X14410858Y-8403513D01*
X14431153Y-8407550D01*
X14431154Y-8407550D01*
X14451846Y-8407550D01*
X14451846Y-8407550D01*
X14472142Y-8403513D01*
X14491260Y-8395594D01*
X14508465Y-8384098D01*
X14523098Y-8369465D01*
X14534594Y-8352260D01*
X14542513Y-8333142D01*
X14546550Y-8312846D01*
X14546550Y-8292153D01*
X14590450Y-8292153D01*
X14590450Y-8312846D01*
X14594487Y-8333141D01*
X14594487Y-8333142D01*
X14602406Y-8352260D01*
X14613902Y-8369465D01*
X14628534Y-8384098D01*
X14645740Y-8395594D01*
X14664858Y-8403513D01*
X14685153Y-8407550D01*
X14685154Y-8407550D01*
X14705846Y-8407550D01*
X14705846Y-8407550D01*
X14726142Y-8403513D01*
X14745260Y-8395594D01*
X14762465Y-8384098D01*
X14777098Y-8369465D01*
X14788594Y-8352260D01*
X14796513Y-8333142D01*
X14800550Y-8312846D01*
X14800550Y-8292153D01*
X14844450Y-8292153D01*
X14844450Y-8312846D01*
X14848487Y-8333141D01*
X14848487Y-8333142D01*
X14856406Y-8352260D01*
X14867902Y-8369465D01*
X14882534Y-8384098D01*
X14899740Y-8395594D01*
X14918858Y-8403513D01*
X14939153Y-8407550D01*
X14939154Y-8407550D01*
X14959846Y-8407550D01*
X14959846Y-8407550D01*
X14980142Y-8403513D01*
X14999260Y-8395594D01*
X15016465Y-8384098D01*
X15031098Y-8369465D01*
X15042594Y-8352260D01*
X15050513Y-8333142D01*
X15054550Y-8312846D01*
X15054550Y-8292153D01*
X15098450Y-8292153D01*
X15098450Y-8312846D01*
X15102487Y-8333141D01*
X15102487Y-8333142D01*
X15110406Y-8352260D01*
X15121902Y-8369465D01*
X15136534Y-8384098D01*
X15153740Y-8395594D01*
X15172858Y-8403513D01*
X15193153Y-8407550D01*
X15193154Y-8407550D01*
X15213846Y-8407550D01*
X15213846Y-8407550D01*
X15234142Y-8403513D01*
X15253260Y-8395594D01*
X15270465Y-8384098D01*
X15285098Y-8369465D01*
X15296594Y-8352260D01*
X15304513Y-8333142D01*
X15308550Y-8312846D01*
X15308550Y-8292153D01*
X15352450Y-8292153D01*
X15352450Y-8312846D01*
X15356487Y-8333141D01*
X15356487Y-8333142D01*
X15364406Y-8352260D01*
X15375902Y-8369465D01*
X15390534Y-8384098D01*
X15407740Y-8395594D01*
X15426858Y-8403513D01*
X15447153Y-8407550D01*
X15447154Y-8407550D01*
X15467846Y-8407550D01*
X15467846Y-8407550D01*
X15488142Y-8403513D01*
X15507260Y-8395594D01*
X15524465Y-8384098D01*
X15539098Y-8369465D01*
X15550594Y-8352260D01*
X15558513Y-8333142D01*
X15562550Y-8312846D01*
X15562550Y-8292153D01*
X15558513Y-8271858D01*
X15550594Y-8252740D01*
X15539098Y-8235534D01*
X15524465Y-8220902D01*
X15507260Y-8209406D01*
X15488142Y-8201487D01*
X15488141Y-8201487D01*
X15472852Y-8198445D01*
X15467846Y-8197450D01*
X15447153Y-8197450D01*
X15443138Y-8198249D01*
X15426859Y-8201487D01*
X15426858Y-8201487D01*
X15407740Y-8209406D01*
X15390534Y-8220902D01*
X15390534Y-8220902D01*
X15375902Y-8235534D01*
X15375902Y-8235534D01*
X15364406Y-8252740D01*
X15356487Y-8271858D01*
X15356487Y-8271859D01*
X15352450Y-8292153D01*
X15308550Y-8292153D01*
X15304513Y-8271858D01*
X15296594Y-8252740D01*
X15285098Y-8235534D01*
X15270465Y-8220902D01*
X15253260Y-8209406D01*
X15234142Y-8201487D01*
X15234141Y-8201487D01*
X15218852Y-8198445D01*
X15213846Y-8197450D01*
X15193153Y-8197450D01*
X15189138Y-8198249D01*
X15172859Y-8201487D01*
X15172858Y-8201487D01*
X15153740Y-8209406D01*
X15136534Y-8220902D01*
X15136534Y-8220902D01*
X15121902Y-8235534D01*
X15121902Y-8235534D01*
X15110406Y-8252740D01*
X15102487Y-8271858D01*
X15102487Y-8271859D01*
X15098450Y-8292153D01*
X15054550Y-8292153D01*
X15050513Y-8271858D01*
X15042594Y-8252740D01*
X15031098Y-8235534D01*
X15016465Y-8220902D01*
X14999260Y-8209406D01*
X14980142Y-8201487D01*
X14980141Y-8201487D01*
X14964852Y-8198445D01*
X14959846Y-8197450D01*
X14939153Y-8197450D01*
X14935138Y-8198249D01*
X14918859Y-8201487D01*
X14918858Y-8201487D01*
X14899740Y-8209406D01*
X14882534Y-8220902D01*
X14882534Y-8220902D01*
X14867902Y-8235534D01*
X14867902Y-8235534D01*
X14856406Y-8252740D01*
X14848487Y-8271858D01*
X14848487Y-8271859D01*
X14844450Y-8292153D01*
X14800550Y-8292153D01*
X14796513Y-8271858D01*
X14788594Y-8252740D01*
X14777098Y-8235534D01*
X14762465Y-8220902D01*
X14745260Y-8209406D01*
X14726142Y-8201487D01*
X14726141Y-8201487D01*
X14710852Y-8198445D01*
X14705846Y-8197450D01*
X14685153Y-8197450D01*
X14681138Y-8198249D01*
X14664859Y-8201487D01*
X14664858Y-8201487D01*
X14645740Y-8209406D01*
X14628534Y-8220902D01*
X14628534Y-8220902D01*
X14613902Y-8235534D01*
X14613902Y-8235534D01*
X14602406Y-8252740D01*
X14594487Y-8271858D01*
X14594487Y-8271859D01*
X14590450Y-8292153D01*
X14546550Y-8292153D01*
X14542513Y-8271858D01*
X14534594Y-8252740D01*
X14523098Y-8235534D01*
X14508465Y-8220902D01*
X14491260Y-8209406D01*
X14472142Y-8201487D01*
X14472141Y-8201487D01*
X14456852Y-8198445D01*
X14451846Y-8197450D01*
X14431153Y-8197450D01*
X14427138Y-8198249D01*
X14410859Y-8201487D01*
X14410858Y-8201487D01*
X14391740Y-8209406D01*
X14374534Y-8220902D01*
X14374534Y-8220902D01*
X14359902Y-8235534D01*
X14359902Y-8235534D01*
X14348406Y-8252740D01*
X14340487Y-8271858D01*
X14340487Y-8271859D01*
X14336450Y-8292153D01*
X14292550Y-8292153D01*
X14288513Y-8271858D01*
X14280594Y-8252740D01*
X14269098Y-8235534D01*
X14254465Y-8220902D01*
X14237260Y-8209406D01*
X14218142Y-8201487D01*
X14218141Y-8201487D01*
X14202852Y-8198445D01*
X14197846Y-8197450D01*
X14177153Y-8197450D01*
X14173138Y-8198249D01*
X14156859Y-8201487D01*
X14156858Y-8201487D01*
X14137740Y-8209406D01*
X14120534Y-8220902D01*
X14120534Y-8220902D01*
X14105902Y-8235534D01*
X14105902Y-8235534D01*
X14094406Y-8252740D01*
X14086487Y-8271858D01*
X14086487Y-8271859D01*
X14082450Y-8292153D01*
X14038550Y-8292153D01*
X14034513Y-8271858D01*
X14026594Y-8252740D01*
X14015098Y-8235534D01*
X14000465Y-8220902D01*
X13983260Y-8209406D01*
X13964142Y-8201487D01*
X13964141Y-8201487D01*
X13948852Y-8198445D01*
X13943846Y-8197450D01*
X13923153Y-8197450D01*
X13919138Y-8198249D01*
X13902859Y-8201487D01*
X13902858Y-8201487D01*
X13883740Y-8209406D01*
X13866534Y-8220902D01*
X13866534Y-8220902D01*
X13851902Y-8235534D01*
X13851902Y-8235534D01*
X13840406Y-8252740D01*
X13832487Y-8271858D01*
X13832487Y-8271859D01*
X13828450Y-8292153D01*
X12330550Y-8292153D01*
X12330550Y-7961525D01*
X13828450Y-7961525D01*
X13828450Y-8135475D01*
X13829613Y-8141323D01*
X13832561Y-8145734D01*
X13834045Y-8147955D01*
X13838456Y-8150903D01*
X13840677Y-8152387D01*
X13840677Y-8152387D01*
X13840677Y-8152387D01*
X13846525Y-8153550D01*
X13846525Y-8153550D01*
X14020475Y-8153550D01*
X14020475Y-8153550D01*
X14026323Y-8152387D01*
X14032955Y-8147955D01*
X14037387Y-8141323D01*
X14038550Y-8135475D01*
X14038550Y-8038153D01*
X14082450Y-8038153D01*
X14082450Y-8058846D01*
X14086487Y-8079141D01*
X14086487Y-8079142D01*
X14094406Y-8098260D01*
X14105625Y-8115050D01*
X14105902Y-8115465D01*
X14120534Y-8130098D01*
X14137740Y-8141594D01*
X14156858Y-8149513D01*
X14177153Y-8153550D01*
X14177154Y-8153550D01*
X14197846Y-8153550D01*
X14197846Y-8153550D01*
X14218142Y-8149513D01*
X14237260Y-8141594D01*
X14254465Y-8130098D01*
X14269098Y-8115465D01*
X14280594Y-8098260D01*
X14288513Y-8079142D01*
X14292550Y-8058846D01*
X14292550Y-8038153D01*
X14336450Y-8038153D01*
X14336450Y-8058846D01*
X14340487Y-8079141D01*
X14340487Y-8079142D01*
X14348406Y-8098260D01*
X14359625Y-8115050D01*
X14359902Y-8115465D01*
X14374534Y-8130098D01*
X14391740Y-8141594D01*
X14410858Y-8149513D01*
X14431153Y-8153550D01*
X14431154Y-8153550D01*
X14451846Y-8153550D01*
X14451846Y-8153550D01*
X14472142Y-8149513D01*
X14491260Y-8141594D01*
X14508465Y-8130098D01*
X14523098Y-8115465D01*
X14534594Y-8098260D01*
X14542513Y-8079142D01*
X14546550Y-8058846D01*
X14546550Y-8038153D01*
X14590450Y-8038153D01*
X14590450Y-8058846D01*
X14594487Y-8079141D01*
X14594487Y-8079142D01*
X14602406Y-8098260D01*
X14613625Y-8115050D01*
X14613902Y-8115465D01*
X14628534Y-8130098D01*
X14645740Y-8141594D01*
X14664858Y-8149513D01*
X14685153Y-8153550D01*
X14685154Y-8153550D01*
X14705846Y-8153550D01*
X14705846Y-8153550D01*
X14726142Y-8149513D01*
X14745260Y-8141594D01*
X14762465Y-8130098D01*
X14777098Y-8115465D01*
X14788594Y-8098260D01*
X14796513Y-8079142D01*
X14800550Y-8058846D01*
X14800550Y-8038153D01*
X14844450Y-8038153D01*
X14844450Y-8058846D01*
X14848487Y-8079141D01*
X14848487Y-8079142D01*
X14856406Y-8098260D01*
X14867625Y-8115050D01*
X14867902Y-8115465D01*
X14882534Y-8130098D01*
X14899740Y-8141594D01*
X14918858Y-8149513D01*
X14939153Y-8153550D01*
X14939154Y-8153550D01*
X14959846Y-8153550D01*
X14959846Y-8153550D01*
X14980142Y-8149513D01*
X14999260Y-8141594D01*
X15016465Y-8130098D01*
X15031098Y-8115465D01*
X15042594Y-8098260D01*
X15050513Y-8079142D01*
X15054550Y-8058846D01*
X15054550Y-8038153D01*
X15098450Y-8038153D01*
X15098450Y-8058846D01*
X15102487Y-8079141D01*
X15102487Y-8079142D01*
X15110406Y-8098260D01*
X15121625Y-8115050D01*
X15121902Y-8115465D01*
X15136534Y-8130098D01*
X15153740Y-8141594D01*
X15172858Y-8149513D01*
X15193153Y-8153550D01*
X15193154Y-8153550D01*
X15213846Y-8153550D01*
X15213846Y-8153550D01*
X15234142Y-8149513D01*
X15253260Y-8141594D01*
X15270465Y-8130098D01*
X15285098Y-8115465D01*
X15296594Y-8098260D01*
X15304513Y-8079142D01*
X15308550Y-8058846D01*
X15308550Y-8038153D01*
X15352450Y-8038153D01*
X15352450Y-8058846D01*
X15356487Y-8079141D01*
X15356487Y-8079142D01*
X15364406Y-8098260D01*
X15375625Y-8115050D01*
X15375902Y-8115465D01*
X15390534Y-8130098D01*
X15407740Y-8141594D01*
X15426858Y-8149513D01*
X15447153Y-8153550D01*
X15447154Y-8153550D01*
X15467846Y-8153550D01*
X15467846Y-8153550D01*
X15488142Y-8149513D01*
X15507260Y-8141594D01*
X15524465Y-8130098D01*
X15539098Y-8115465D01*
X15550594Y-8098260D01*
X15558513Y-8079142D01*
X15562550Y-8058846D01*
X15562550Y-8038153D01*
X15558513Y-8017858D01*
X15550594Y-7998740D01*
X15539098Y-7981534D01*
X15524465Y-7966902D01*
X15516418Y-7961525D01*
X15507260Y-7955406D01*
X15488142Y-7947487D01*
X15488141Y-7947487D01*
X15472852Y-7944445D01*
X15467846Y-7943450D01*
X15447153Y-7943450D01*
X15443138Y-7944249D01*
X15426859Y-7947487D01*
X15426858Y-7947487D01*
X15407740Y-7955406D01*
X15390534Y-7966902D01*
X15390534Y-7966902D01*
X15375902Y-7981534D01*
X15375902Y-7981534D01*
X15364406Y-7998740D01*
X15356487Y-8017858D01*
X15356487Y-8017859D01*
X15352450Y-8038153D01*
X15308550Y-8038153D01*
X15304513Y-8017858D01*
X15296594Y-7998740D01*
X15285098Y-7981534D01*
X15270465Y-7966902D01*
X15262418Y-7961525D01*
X15253260Y-7955406D01*
X15234142Y-7947487D01*
X15234141Y-7947487D01*
X15218852Y-7944445D01*
X15213846Y-7943450D01*
X15193153Y-7943450D01*
X15189138Y-7944249D01*
X15172859Y-7947487D01*
X15172858Y-7947487D01*
X15153740Y-7955406D01*
X15136534Y-7966902D01*
X15136534Y-7966902D01*
X15121902Y-7981534D01*
X15121902Y-7981534D01*
X15110406Y-7998740D01*
X15102487Y-8017858D01*
X15102487Y-8017859D01*
X15098450Y-8038153D01*
X15054550Y-8038153D01*
X15050513Y-8017858D01*
X15042594Y-7998740D01*
X15031098Y-7981534D01*
X15016465Y-7966902D01*
X15010205Y-7962719D01*
X15007059Y-7958010D01*
X15008164Y-7952455D01*
X15009084Y-7951334D01*
X15013961Y-7946457D01*
X15013961Y-7946457D01*
X15020551Y-7935044D01*
X15023961Y-7922315D01*
X15023961Y-7922315D01*
X15023961Y-7909136D01*
X15023961Y-7909136D01*
X15020551Y-7896407D01*
X15020551Y-7896407D01*
X15013961Y-7884994D01*
X15004643Y-7875675D01*
X14993230Y-7869086D01*
X14993230Y-7869086D01*
X14980501Y-7865675D01*
X14980501Y-7865675D01*
X14967322Y-7865675D01*
X14967322Y-7865675D01*
X14954593Y-7869086D01*
X14954592Y-7869086D01*
X14943180Y-7875675D01*
X14933861Y-7884994D01*
X14927272Y-7896406D01*
X14927272Y-7896407D01*
X14923861Y-7909136D01*
X14923861Y-7922315D01*
X14927272Y-7935043D01*
X14927272Y-7935044D01*
X14927686Y-7935761D01*
X14928425Y-7941376D01*
X14924977Y-7945869D01*
X14922721Y-7946718D01*
X14918858Y-7947487D01*
X14918858Y-7947487D01*
X14899740Y-7955406D01*
X14882534Y-7966902D01*
X14882534Y-7966902D01*
X14867902Y-7981534D01*
X14867902Y-7981534D01*
X14856406Y-7998740D01*
X14848487Y-8017858D01*
X14848487Y-8017859D01*
X14844450Y-8038153D01*
X14800550Y-8038153D01*
X14796513Y-8017858D01*
X14788594Y-7998740D01*
X14777098Y-7981534D01*
X14762465Y-7966902D01*
X14754418Y-7961525D01*
X14745260Y-7955406D01*
X14726142Y-7947487D01*
X14726141Y-7947487D01*
X14710852Y-7944445D01*
X14705846Y-7943450D01*
X14685153Y-7943450D01*
X14681138Y-7944249D01*
X14664859Y-7947487D01*
X14664858Y-7947487D01*
X14645740Y-7955406D01*
X14628534Y-7966902D01*
X14628534Y-7966902D01*
X14613902Y-7981534D01*
X14613902Y-7981534D01*
X14602406Y-7998740D01*
X14594487Y-8017858D01*
X14594487Y-8017859D01*
X14590450Y-8038153D01*
X14546550Y-8038153D01*
X14542513Y-8017858D01*
X14534594Y-7998740D01*
X14523098Y-7981534D01*
X14508465Y-7966902D01*
X14500418Y-7961525D01*
X14491260Y-7955406D01*
X14472142Y-7947487D01*
X14472141Y-7947487D01*
X14456852Y-7944445D01*
X14451846Y-7943450D01*
X14431153Y-7943450D01*
X14427138Y-7944249D01*
X14410859Y-7947487D01*
X14410858Y-7947487D01*
X14391740Y-7955406D01*
X14374534Y-7966902D01*
X14374534Y-7966902D01*
X14359902Y-7981534D01*
X14359902Y-7981534D01*
X14348406Y-7998740D01*
X14340487Y-8017858D01*
X14340487Y-8017859D01*
X14336450Y-8038153D01*
X14292550Y-8038153D01*
X14288513Y-8017858D01*
X14280594Y-7998740D01*
X14269098Y-7981534D01*
X14254465Y-7966902D01*
X14246418Y-7961525D01*
X14237260Y-7955406D01*
X14218142Y-7947487D01*
X14218141Y-7947487D01*
X14202852Y-7944445D01*
X14197846Y-7943450D01*
X14177153Y-7943450D01*
X14173138Y-7944249D01*
X14156859Y-7947487D01*
X14156858Y-7947487D01*
X14137740Y-7955406D01*
X14120534Y-7966902D01*
X14120534Y-7966902D01*
X14105902Y-7981534D01*
X14105902Y-7981534D01*
X14094406Y-7998740D01*
X14086487Y-8017858D01*
X14086487Y-8017859D01*
X14082450Y-8038153D01*
X14038550Y-8038153D01*
X14038550Y-7961525D01*
X14037387Y-7955677D01*
X14037206Y-7955406D01*
X14034485Y-7951334D01*
X14032955Y-7949045D01*
X14029474Y-7946718D01*
X14026323Y-7944613D01*
X14026323Y-7944613D01*
X14023399Y-7944032D01*
X14020475Y-7943450D01*
X13846525Y-7943450D01*
X13843601Y-7944032D01*
X13840677Y-7944613D01*
X13834045Y-7949045D01*
X13834045Y-7949045D01*
X13829613Y-7955677D01*
X13828450Y-7961525D01*
X12330550Y-7961525D01*
X12330550Y-7749410D01*
X14395950Y-7749410D01*
X14395950Y-7762589D01*
X14399361Y-7775318D01*
X14399361Y-7775319D01*
X14399938Y-7776319D01*
X14405950Y-7786731D01*
X14415269Y-7796050D01*
X14426681Y-7802639D01*
X14439410Y-7806050D01*
X14439411Y-7806050D01*
X14439411Y-7806050D01*
X14452589Y-7806050D01*
X14452589Y-7806050D01*
X14465319Y-7802639D01*
X14476731Y-7796050D01*
X14486050Y-7786731D01*
X14492639Y-7775319D01*
X14496050Y-7762589D01*
X14496050Y-7762589D01*
X14496050Y-7755048D01*
X14498217Y-7749815D01*
X14718315Y-7529717D01*
X14723548Y-7527550D01*
X14865552Y-7527550D01*
X14870785Y-7529717D01*
X14872952Y-7534950D01*
X14870785Y-7540183D01*
X14706185Y-7704783D01*
X14700952Y-7706950D01*
X14693411Y-7706950D01*
X14680682Y-7710361D01*
X14680681Y-7710361D01*
X14669268Y-7716950D01*
X14659950Y-7726268D01*
X14653361Y-7737681D01*
X14653361Y-7737682D01*
X14649950Y-7750410D01*
X14649950Y-7763589D01*
X14653361Y-7776318D01*
X14653361Y-7776318D01*
X14653361Y-7776319D01*
X14659950Y-7787731D01*
X14669269Y-7797050D01*
X14680681Y-7803639D01*
X14693410Y-7807050D01*
X14693411Y-7807050D01*
X14693411Y-7807050D01*
X14706589Y-7807050D01*
X14706589Y-7807050D01*
X14719319Y-7803639D01*
X14730731Y-7797050D01*
X14740050Y-7787731D01*
X14746639Y-7776319D01*
X14750050Y-7763589D01*
X14750050Y-7763589D01*
X14750050Y-7756048D01*
X14752217Y-7750815D01*
X14753622Y-7749410D01*
X14903950Y-7749410D01*
X14903950Y-7762589D01*
X14907361Y-7775318D01*
X14907361Y-7775319D01*
X14907938Y-7776319D01*
X14913950Y-7786731D01*
X14923269Y-7796050D01*
X14934681Y-7802639D01*
X14947410Y-7806050D01*
X14947411Y-7806050D01*
X14947411Y-7806050D01*
X14960589Y-7806050D01*
X14960589Y-7806050D01*
X14973319Y-7802639D01*
X14984731Y-7796050D01*
X14994050Y-7786731D01*
X15000639Y-7775319D01*
X15004050Y-7762589D01*
X15004050Y-7762589D01*
X15004050Y-7749411D01*
X15004050Y-7749410D01*
X15000907Y-7737682D01*
X15000639Y-7736681D01*
X14994050Y-7725269D01*
X14984731Y-7715950D01*
X14975051Y-7710361D01*
X14973319Y-7709361D01*
X14973318Y-7709361D01*
X14960589Y-7705950D01*
X14960589Y-7705950D01*
X14947411Y-7705950D01*
X14947411Y-7705950D01*
X14934682Y-7709361D01*
X14934681Y-7709361D01*
X14923268Y-7715950D01*
X14913950Y-7725268D01*
X14907361Y-7736681D01*
X14907361Y-7736682D01*
X14903950Y-7749410D01*
X14753622Y-7749410D01*
X14928315Y-7574717D01*
X14933548Y-7572550D01*
X15497452Y-7572550D01*
X15502685Y-7574717D01*
X15910283Y-7982315D01*
X15912450Y-7987548D01*
X15912450Y-11714665D01*
X15910283Y-11719898D01*
X15906821Y-11721607D01*
X15906879Y-11721824D01*
X15893682Y-11725361D01*
X15893681Y-11725361D01*
X15882268Y-11731950D01*
X15872950Y-11741268D01*
X15866361Y-11752681D01*
X15866361Y-11752682D01*
X15862950Y-11765410D01*
X15862950Y-11778589D01*
X15866361Y-11791318D01*
X15866361Y-11791319D01*
X15867569Y-11793411D01*
X15872950Y-11802731D01*
X15882269Y-11812050D01*
X15893681Y-11818639D01*
X15898373Y-11819896D01*
X15902866Y-11823344D01*
X15903606Y-11828959D01*
X15901690Y-11832277D01*
X15546085Y-12187883D01*
X15540852Y-12190050D01*
X15484659Y-12190050D01*
X15479426Y-12187883D01*
X15477259Y-12182650D01*
X15479426Y-12177417D01*
X15482375Y-12174468D01*
X15486112Y-12170731D01*
X15492701Y-12159319D01*
X15496112Y-12146589D01*
X15496112Y-12146589D01*
X15496112Y-12133411D01*
X15496112Y-12133410D01*
X15495381Y-12130681D01*
X15492701Y-12120681D01*
X15486112Y-12109269D01*
X15479576Y-12102733D01*
X15477409Y-12097500D01*
X15479576Y-12092267D01*
X15481794Y-12090050D01*
X15486112Y-12085731D01*
X15492701Y-12074319D01*
X15496112Y-12061589D01*
X15496112Y-12061589D01*
X15496112Y-12048411D01*
X15496112Y-12048410D01*
X15495624Y-12046589D01*
X15492701Y-12035681D01*
X15486112Y-12024269D01*
X15476794Y-12014950D01*
X15466953Y-12009268D01*
X15465381Y-12008361D01*
X15465380Y-12008361D01*
X15452652Y-12004950D01*
X15452651Y-12004950D01*
X15439473Y-12004950D01*
X15439473Y-12004950D01*
X15426744Y-12008361D01*
X15426743Y-12008361D01*
X15415331Y-12014950D01*
X15406012Y-12024268D01*
X15399423Y-12035681D01*
X15399423Y-12035682D01*
X15396012Y-12048410D01*
X15396012Y-12061589D01*
X15399423Y-12074318D01*
X15399423Y-12074319D01*
X15406012Y-12085731D01*
X15412548Y-12092267D01*
X15414716Y-12097500D01*
X15412548Y-12102733D01*
X15406012Y-12109268D01*
X15399423Y-12120681D01*
X15399423Y-12120682D01*
X15396012Y-12133410D01*
X15396012Y-12146589D01*
X15399423Y-12159318D01*
X15399423Y-12159319D01*
X15406012Y-12170731D01*
X15412698Y-12177417D01*
X15414866Y-12182650D01*
X15412698Y-12187883D01*
X15407466Y-12190050D01*
X14823310Y-12190050D01*
X14818078Y-12187883D01*
X14816983Y-12186243D01*
X14816882Y-12186301D01*
X14811274Y-12176589D01*
X14810050Y-12174469D01*
X14800731Y-12165150D01*
X14790705Y-12159361D01*
X14789319Y-12158561D01*
X14789318Y-12158561D01*
X14776589Y-12155150D01*
X14776589Y-12155150D01*
X14763411Y-12155150D01*
X14763411Y-12155150D01*
X14750682Y-12158561D01*
X14750681Y-12158561D01*
X14739268Y-12165150D01*
X14729950Y-12174468D01*
X14723361Y-12185881D01*
X14723361Y-12185882D01*
X14719950Y-12198610D01*
X14719950Y-12198611D01*
X14719950Y-12211789D01*
X14723361Y-12224519D01*
X14723361Y-12224519D01*
X14723526Y-12224918D01*
X14723526Y-12230582D01*
X14719521Y-12234587D01*
X14716690Y-12235150D01*
X14666248Y-12235150D01*
X14661015Y-12232983D01*
X14640217Y-12212185D01*
X14638050Y-12206952D01*
X14638050Y-12199411D01*
X14638050Y-12199410D01*
X14637835Y-12198610D01*
X14634639Y-12186681D01*
X14628050Y-12175269D01*
X14618731Y-12165950D01*
X14614333Y-12163411D01*
X14607319Y-12159361D01*
X14607318Y-12159361D01*
X14594589Y-12155950D01*
X14594589Y-12155950D01*
X14581411Y-12155950D01*
X14581411Y-12155950D01*
X14568682Y-12159361D01*
X14568681Y-12159361D01*
X14557268Y-12165950D01*
X14547950Y-12175268D01*
X14541361Y-12186681D01*
X14541361Y-12186682D01*
X14537950Y-12199410D01*
X14537950Y-12212589D01*
X14541361Y-12225318D01*
X14541361Y-12225319D01*
X14547037Y-12235150D01*
X14547950Y-12236731D01*
X14557269Y-12246050D01*
X14568681Y-12252639D01*
X14581410Y-12256050D01*
X14581411Y-12256050D01*
X14581411Y-12256050D01*
X14588952Y-12256050D01*
X14594185Y-12258217D01*
X14623395Y-12287427D01*
X14623395Y-12287428D01*
X14623653Y-12287686D01*
X14629714Y-12293746D01*
X14633425Y-12295889D01*
X14633425Y-12295889D01*
X14633425Y-12295889D01*
X14637136Y-12298032D01*
X14637136Y-12298032D01*
X14637136Y-12298032D01*
X14639986Y-12298795D01*
X14645414Y-12300250D01*
X14645414Y-12300250D01*
X14645415Y-12300250D01*
X14654438Y-12300250D01*
X14654440Y-12300250D01*
X14718690Y-12300250D01*
X14723922Y-12302417D01*
X14726090Y-12307650D01*
X14725526Y-12310482D01*
X14725361Y-12310881D01*
X14721950Y-12323611D01*
X14721950Y-12336789D01*
X14725361Y-12349518D01*
X14725361Y-12349518D01*
X14725361Y-12349519D01*
X14731950Y-12360931D01*
X14741269Y-12370250D01*
X14752681Y-12376839D01*
X14765410Y-12380250D01*
X14765411Y-12380250D01*
X14765411Y-12380250D01*
X14778589Y-12380250D01*
X14778589Y-12380250D01*
X14791319Y-12376839D01*
X14802731Y-12370250D01*
X14812050Y-12360931D01*
X14818639Y-12349519D01*
X14818639Y-12349519D01*
X14818794Y-12349250D01*
X14823288Y-12345802D01*
X14825203Y-12345550D01*
X15598847Y-12345550D01*
X15598847Y-12345550D01*
X15607126Y-12343332D01*
X15614548Y-12339046D01*
X16106046Y-11847548D01*
X16110332Y-11840126D01*
X16112550Y-11831847D01*
X16112550Y-11823277D01*
X16112550Y-11793410D01*
X16449950Y-11793410D01*
X16449950Y-11806589D01*
X16453361Y-11819318D01*
X16453361Y-11819319D01*
X16454938Y-11822050D01*
X16459950Y-11830731D01*
X16469269Y-11840050D01*
X16480682Y-11846639D01*
X16493411Y-11850050D01*
X16493411Y-11850050D01*
X16493411Y-11850050D01*
X16506590Y-11850050D01*
X16506590Y-11850050D01*
X16519319Y-11846639D01*
X16530732Y-11840050D01*
X16540050Y-11830731D01*
X16546639Y-11819319D01*
X16550050Y-11806589D01*
X16550050Y-11806589D01*
X16550050Y-11793411D01*
X16550050Y-11793410D01*
X16546865Y-11781523D01*
X16546639Y-11780681D01*
X16540050Y-11769269D01*
X16530732Y-11759950D01*
X16523485Y-11755766D01*
X16519319Y-11753361D01*
X16519318Y-11753361D01*
X16506590Y-11749950D01*
X16506589Y-11749950D01*
X16493411Y-11749950D01*
X16493411Y-11749950D01*
X16480682Y-11753361D01*
X16480681Y-11753361D01*
X16469269Y-11759950D01*
X16459950Y-11769268D01*
X16453361Y-11780681D01*
X16453361Y-11780682D01*
X16449950Y-11793410D01*
X16112550Y-11793410D01*
X16112550Y-9243101D01*
X16999950Y-9243101D01*
X16999950Y-9256899D01*
X17000228Y-9258299D01*
X17002642Y-9270432D01*
X17002642Y-9270433D01*
X17007922Y-9283181D01*
X17009949Y-9286214D01*
X17015589Y-9294654D01*
X17025346Y-9304411D01*
X17036819Y-9312078D01*
X17036819Y-9312078D01*
X17036819Y-9312078D01*
X17046459Y-9316071D01*
X17049567Y-9317358D01*
X17063101Y-9320050D01*
X17063101Y-9320050D01*
X17076899Y-9320050D01*
X17076899Y-9320050D01*
X17090433Y-9317358D01*
X17103181Y-9312078D01*
X17114654Y-9304411D01*
X17124411Y-9294654D01*
X17132078Y-9283181D01*
X17137358Y-9270433D01*
X17140050Y-9256899D01*
X17140050Y-9243101D01*
X17389950Y-9243101D01*
X17389950Y-9256899D01*
X17392642Y-9270432D01*
X17392642Y-9270433D01*
X17397922Y-9283181D01*
X17405588Y-9294654D01*
X17405589Y-9294654D01*
X17415346Y-9304412D01*
X17426819Y-9312078D01*
X17426819Y-9312078D01*
X17426819Y-9312078D01*
X17439026Y-9317134D01*
X17439567Y-9317358D01*
X17453101Y-9320050D01*
X17453101Y-9320050D01*
X17466899Y-9320050D01*
X17466899Y-9320050D01*
X17480433Y-9317358D01*
X17493181Y-9312078D01*
X17504654Y-9304412D01*
X17514412Y-9294654D01*
X17522078Y-9283181D01*
X17527358Y-9270433D01*
X17530050Y-9256899D01*
X17530050Y-9243101D01*
X17527358Y-9229567D01*
X17526145Y-9226639D01*
X17522078Y-9216819D01*
X17514412Y-9205346D01*
X17514412Y-9205346D01*
X17514412Y-9205346D01*
X17504654Y-9195589D01*
X17504654Y-9195588D01*
X17493181Y-9187922D01*
X17480433Y-9182642D01*
X17480432Y-9182642D01*
X17471370Y-9180839D01*
X17466899Y-9179950D01*
X17453101Y-9179950D01*
X17449264Y-9180713D01*
X17439568Y-9182642D01*
X17439567Y-9182642D01*
X17426819Y-9187922D01*
X17415346Y-9195588D01*
X17405588Y-9205346D01*
X17397922Y-9216819D01*
X17392642Y-9229567D01*
X17392642Y-9229568D01*
X17389950Y-9243101D01*
X17140050Y-9243101D01*
X17140050Y-9243101D01*
X17137358Y-9229567D01*
X17137358Y-9229567D01*
X17132078Y-9216819D01*
X17128010Y-9210731D01*
X17124411Y-9205346D01*
X17114654Y-9195589D01*
X17103181Y-9187923D01*
X17103181Y-9187922D01*
X17103181Y-9187922D01*
X17090433Y-9182642D01*
X17090432Y-9182642D01*
X17081369Y-9180839D01*
X17076899Y-9179950D01*
X17063101Y-9179950D01*
X17059264Y-9180713D01*
X17049568Y-9182642D01*
X17049567Y-9182642D01*
X17036819Y-9187922D01*
X17025346Y-9195588D01*
X17015588Y-9205346D01*
X17007922Y-9216819D01*
X17002642Y-9229567D01*
X17002642Y-9229568D01*
X17000395Y-9240866D01*
X16999950Y-9243101D01*
X16112550Y-9243101D01*
X16112550Y-7910796D01*
X16112550Y-7910796D01*
X16112550Y-7910796D01*
X16112105Y-7909136D01*
X16110332Y-7902517D01*
X16106046Y-7895095D01*
X16106046Y-7895095D01*
X16105973Y-7894967D01*
X16105598Y-7894407D01*
X16105346Y-7893971D01*
X15590329Y-7378953D01*
X15590329Y-7378953D01*
X15590329Y-7378953D01*
X15582907Y-7374668D01*
X15582907Y-7374668D01*
X15582907Y-7374668D01*
X15582907Y-7374668D01*
X15574628Y-7372450D01*
X15574628Y-7372450D01*
X15142548Y-7372450D01*
X15137315Y-7370283D01*
X15006217Y-7239185D01*
X15004050Y-7233952D01*
X15004050Y-7226411D01*
X15004050Y-7226410D01*
X15003782Y-7225411D01*
X15000639Y-7213681D01*
X14994050Y-7202269D01*
X14984731Y-7192950D01*
X14975051Y-7187361D01*
X14973319Y-7186361D01*
X14973318Y-7186361D01*
X14960589Y-7182950D01*
X14960589Y-7182950D01*
X14947411Y-7182950D01*
X14947411Y-7182950D01*
X14934682Y-7186361D01*
X14934681Y-7186361D01*
X14923268Y-7192950D01*
X14913950Y-7202268D01*
X14907361Y-7213681D01*
X14907361Y-7213682D01*
X14903950Y-7226410D01*
X14903950Y-7239589D01*
X14907361Y-7252318D01*
X14907361Y-7252319D01*
X14907938Y-7253319D01*
X14913950Y-7263731D01*
X14923269Y-7273050D01*
X14934681Y-7279639D01*
X14947410Y-7283050D01*
X14947411Y-7283050D01*
X14947411Y-7283050D01*
X14954952Y-7283050D01*
X14960185Y-7285217D01*
X15079785Y-7404817D01*
X15081952Y-7410050D01*
X15079785Y-7415283D01*
X15074552Y-7417450D01*
X14932548Y-7417450D01*
X14927315Y-7415283D01*
X14752217Y-7240185D01*
X14750050Y-7234952D01*
X14750050Y-7227411D01*
X14750050Y-7227410D01*
X14749782Y-7226411D01*
X14746639Y-7214681D01*
X14740050Y-7203269D01*
X14730731Y-7193950D01*
X14727267Y-7191950D01*
X14719319Y-7187361D01*
X14719318Y-7187361D01*
X14706589Y-7183950D01*
X14706589Y-7183950D01*
X14693411Y-7183950D01*
X14693411Y-7183950D01*
X14680682Y-7187361D01*
X14680681Y-7187361D01*
X14669268Y-7193950D01*
X14659950Y-7203268D01*
X14653361Y-7214681D01*
X14653361Y-7214682D01*
X14649950Y-7227410D01*
X14649950Y-7240589D01*
X14653361Y-7253318D01*
X14653361Y-7253318D01*
X14653361Y-7253319D01*
X14659950Y-7264731D01*
X14669269Y-7274050D01*
X14680681Y-7280639D01*
X14693410Y-7284050D01*
X14693411Y-7284050D01*
X14693411Y-7284050D01*
X14700952Y-7284050D01*
X14706185Y-7286217D01*
X14869785Y-7449817D01*
X14871952Y-7455050D01*
X14869785Y-7460283D01*
X14864552Y-7462450D01*
X14702714Y-7462450D01*
X14694437Y-7464668D01*
X14694436Y-7464668D01*
X14687014Y-7468953D01*
X14452185Y-7703783D01*
X14446952Y-7705950D01*
X14439411Y-7705950D01*
X14426682Y-7709361D01*
X14426681Y-7709361D01*
X14415268Y-7715950D01*
X14405950Y-7725268D01*
X14399361Y-7736681D01*
X14399361Y-7736682D01*
X14395950Y-7749410D01*
X12330550Y-7749410D01*
X12330550Y-7220410D01*
X13132950Y-7220410D01*
X13132950Y-7233589D01*
X13136361Y-7246318D01*
X13136361Y-7246319D01*
X13139248Y-7251319D01*
X13142950Y-7257731D01*
X13152269Y-7267050D01*
X13163681Y-7273639D01*
X13176410Y-7277050D01*
X13176411Y-7277050D01*
X13176411Y-7277050D01*
X13189589Y-7277050D01*
X13189589Y-7277050D01*
X13202319Y-7273639D01*
X13213731Y-7267050D01*
X13223050Y-7257731D01*
X13229639Y-7246319D01*
X13233050Y-7233589D01*
X13233050Y-7233589D01*
X13233050Y-7225410D01*
X14395950Y-7225410D01*
X14395950Y-7238589D01*
X14399361Y-7251318D01*
X14399361Y-7251319D01*
X14399938Y-7252319D01*
X14405950Y-7262731D01*
X14415269Y-7272050D01*
X14426681Y-7278639D01*
X14439410Y-7282050D01*
X14439411Y-7282050D01*
X14439411Y-7282050D01*
X14452589Y-7282050D01*
X14452589Y-7282050D01*
X14465319Y-7278639D01*
X14476731Y-7272050D01*
X14486050Y-7262731D01*
X14492639Y-7251319D01*
X14496050Y-7238589D01*
X14496050Y-7238589D01*
X14496050Y-7225411D01*
X14496050Y-7225410D01*
X14492907Y-7213682D01*
X14492639Y-7212681D01*
X14486050Y-7201269D01*
X14476731Y-7191950D01*
X14465319Y-7185361D01*
X14465318Y-7185361D01*
X14452589Y-7181950D01*
X14452589Y-7181950D01*
X14439411Y-7181950D01*
X14439411Y-7181950D01*
X14426682Y-7185361D01*
X14426681Y-7185361D01*
X14415268Y-7191950D01*
X14405950Y-7201268D01*
X14399361Y-7212681D01*
X14399361Y-7212682D01*
X14395950Y-7225410D01*
X13233050Y-7225410D01*
X13233050Y-7220411D01*
X13233050Y-7220410D01*
X13229639Y-7207682D01*
X13229639Y-7207681D01*
X13223050Y-7196269D01*
X13213731Y-7186950D01*
X13205071Y-7181950D01*
X13202319Y-7180361D01*
X13202318Y-7180361D01*
X13189589Y-7176950D01*
X13189589Y-7176950D01*
X13176411Y-7176950D01*
X13176411Y-7176950D01*
X13163682Y-7180361D01*
X13163681Y-7180361D01*
X13152268Y-7186950D01*
X13142950Y-7196268D01*
X13136361Y-7207681D01*
X13136361Y-7207682D01*
X13132950Y-7220410D01*
X12330550Y-7220410D01*
X12330550Y-6963410D01*
X13195400Y-6963410D01*
X13195400Y-6976589D01*
X13198811Y-6989318D01*
X13198811Y-6989318D01*
X13198811Y-6989319D01*
X13205400Y-7000731D01*
X13214719Y-7010050D01*
X13226131Y-7016639D01*
X13238860Y-7020050D01*
X13238861Y-7020050D01*
X13238861Y-7020050D01*
X13252039Y-7020050D01*
X13252039Y-7020050D01*
X13264769Y-7016639D01*
X13276181Y-7010050D01*
X13285500Y-7000731D01*
X13292089Y-6989319D01*
X13295500Y-6976589D01*
X13295500Y-6976589D01*
X13295500Y-6963411D01*
X13295500Y-6963410D01*
X13292089Y-6950682D01*
X13292089Y-6950681D01*
X13285500Y-6939269D01*
X13276181Y-6929950D01*
X13264769Y-6923361D01*
X13264768Y-6923361D01*
X13252039Y-6919950D01*
X13252039Y-6919950D01*
X13238861Y-6919950D01*
X13238861Y-6919950D01*
X13226132Y-6923361D01*
X13226131Y-6923361D01*
X13214718Y-6929950D01*
X13205400Y-6939268D01*
X13198811Y-6950681D01*
X13198811Y-6950682D01*
X13195400Y-6963410D01*
X12330550Y-6963410D01*
X12330550Y-6837410D01*
X13409950Y-6837410D01*
X13409950Y-6850589D01*
X13413361Y-6863318D01*
X13413361Y-6863318D01*
X13413361Y-6863319D01*
X13419950Y-6874731D01*
X13429269Y-6884050D01*
X13440681Y-6890639D01*
X13453410Y-6894050D01*
X13453411Y-6894050D01*
X13453411Y-6894050D01*
X13466589Y-6894050D01*
X13466589Y-6894050D01*
X13479319Y-6890639D01*
X13490731Y-6884050D01*
X13500050Y-6874731D01*
X13500830Y-6873380D01*
X15980450Y-6873380D01*
X15980450Y-6898620D01*
X15983744Y-6923645D01*
X15990277Y-6948026D01*
X15997821Y-6966237D01*
X15999937Y-6971345D01*
X16002062Y-6975026D01*
X16010314Y-6989319D01*
X16012557Y-6993205D01*
X16027923Y-7013229D01*
X16045771Y-7031077D01*
X16065795Y-7046443D01*
X16087655Y-7059063D01*
X16110974Y-7068723D01*
X16135355Y-7075255D01*
X16160380Y-7078550D01*
X16160380Y-7078550D01*
X16185620Y-7078550D01*
X16185620Y-7078550D01*
X16210645Y-7075255D01*
X16235026Y-7068723D01*
X16258345Y-7059063D01*
X16280205Y-7046443D01*
X16300229Y-7031077D01*
X16318077Y-7013229D01*
X16333443Y-6993205D01*
X16346063Y-6971345D01*
X16348179Y-6966237D01*
X17625000Y-6966237D01*
X17857237Y-6966237D01*
X17857237Y-6327237D01*
X17625000Y-6327237D01*
X17625000Y-6966237D01*
X16348179Y-6966237D01*
X16355723Y-6948026D01*
X16362255Y-6923645D01*
X16365550Y-6898620D01*
X16365550Y-6873380D01*
X16362255Y-6848355D01*
X16355723Y-6823974D01*
X16346063Y-6800655D01*
X16333443Y-6778795D01*
X16318077Y-6758771D01*
X16300229Y-6740923D01*
X16280205Y-6725557D01*
X16280205Y-6725557D01*
X16280204Y-6725557D01*
X16270966Y-6720223D01*
X16258345Y-6712937D01*
X16258345Y-6712936D01*
X16258345Y-6712936D01*
X16235026Y-6703277D01*
X16210645Y-6696744D01*
X16192209Y-6694317D01*
X16185620Y-6693450D01*
X16160380Y-6693450D01*
X16154557Y-6694216D01*
X16135355Y-6696744D01*
X16110974Y-6703277D01*
X16087655Y-6712936D01*
X16087655Y-6712937D01*
X16065795Y-6725557D01*
X16045770Y-6740923D01*
X16027923Y-6758770D01*
X16012557Y-6778795D01*
X15999937Y-6800655D01*
X15999936Y-6800655D01*
X15990277Y-6823974D01*
X15983744Y-6848355D01*
X15980450Y-6873380D01*
X13500830Y-6873380D01*
X13506639Y-6863319D01*
X13510050Y-6850589D01*
X13510050Y-6850589D01*
X13510050Y-6837411D01*
X13510050Y-6837410D01*
X13507436Y-6827655D01*
X13506639Y-6824681D01*
X13500050Y-6813269D01*
X13490731Y-6803950D01*
X13479319Y-6797361D01*
X13479318Y-6797361D01*
X13466589Y-6793950D01*
X13466589Y-6793950D01*
X13453411Y-6793950D01*
X13453411Y-6793950D01*
X13440682Y-6797361D01*
X13440681Y-6797361D01*
X13429268Y-6803950D01*
X13419950Y-6813268D01*
X13413361Y-6824681D01*
X13413361Y-6824682D01*
X13409950Y-6837410D01*
X12330550Y-6837410D01*
X12330550Y-6709910D01*
X13283450Y-6709910D01*
X13283450Y-6723089D01*
X13286860Y-6735818D01*
X13286861Y-6735819D01*
X13289808Y-6740923D01*
X13293450Y-6747231D01*
X13302768Y-6756550D01*
X13314181Y-6763139D01*
X13326910Y-6766550D01*
X13326910Y-6766550D01*
X13326911Y-6766550D01*
X13340089Y-6766550D01*
X13340089Y-6766550D01*
X13352818Y-6763139D01*
X13364231Y-6756550D01*
X13373550Y-6747231D01*
X13380139Y-6735819D01*
X13383550Y-6723089D01*
X13383550Y-6723089D01*
X13383550Y-6709911D01*
X13383550Y-6709910D01*
X13380139Y-6697182D01*
X13380139Y-6697181D01*
X13373550Y-6685769D01*
X13364231Y-6676450D01*
X13352819Y-6669861D01*
X13352818Y-6669861D01*
X13340089Y-6666450D01*
X13340089Y-6666450D01*
X13326911Y-6666450D01*
X13326910Y-6666450D01*
X13314182Y-6669861D01*
X13314181Y-6669861D01*
X13302768Y-6676450D01*
X13293450Y-6685768D01*
X13286861Y-6697181D01*
X13286860Y-6697182D01*
X13283450Y-6709910D01*
X12330550Y-6709910D01*
X12330550Y-6330811D01*
X12330463Y-6328160D01*
X12330403Y-6327237D01*
X12330357Y-6326541D01*
X12330097Y-6323901D01*
X12328712Y-6313384D01*
X12327678Y-6308182D01*
X12327677Y-6308182D01*
X12327677Y-6308181D01*
X12326840Y-6305056D01*
X12325135Y-6300035D01*
X12325135Y-6300034D01*
X12325135Y-6300033D01*
X12321389Y-6290990D01*
X12319043Y-6286233D01*
X12317425Y-6283430D01*
X12314478Y-6279019D01*
X12314477Y-6279019D01*
X12308520Y-6271255D01*
X12305022Y-6267267D01*
X12302734Y-6264978D01*
X12302734Y-6264978D01*
X12302733Y-6264978D01*
X12298746Y-6261481D01*
X12298745Y-6261480D01*
X12290981Y-6255522D01*
X12286570Y-6252575D01*
X12286569Y-6252575D01*
X12283766Y-6250956D01*
X12283765Y-6250956D01*
X12283764Y-6250955D01*
X12279010Y-6248611D01*
X12279009Y-6248610D01*
X12269966Y-6244865D01*
X12264944Y-6243160D01*
X12264944Y-6243160D01*
X12264944Y-6243160D01*
X12262859Y-6242601D01*
X12261817Y-6242322D01*
X12261815Y-6242322D01*
X12256616Y-6241288D01*
X12256616Y-6241288D01*
X12256615Y-6241287D01*
X12256614Y-6241287D01*
X12256614Y-6241287D01*
X12246100Y-6239903D01*
X12246099Y-6239903D01*
X12246099Y-6239903D01*
X12243458Y-6239643D01*
X12243457Y-6239643D01*
X12243456Y-6239643D01*
X12241839Y-6239537D01*
X12239189Y-6239450D01*
X12239187Y-6239450D01*
X12040813Y-6239450D01*
X12040811Y-6239450D01*
X12038160Y-6239537D01*
X12036544Y-6239643D01*
X12036542Y-6239643D01*
X12036542Y-6239643D01*
X12033901Y-6239903D01*
X12033900Y-6239903D01*
X12023386Y-6241287D01*
X12023384Y-6241288D01*
X12018184Y-6242322D01*
X12018183Y-6242322D01*
X12015057Y-6243160D01*
X12010033Y-6244865D01*
X12000992Y-6248610D01*
X12000988Y-6248611D01*
X11996234Y-6250956D01*
X11996231Y-6250957D01*
X11993430Y-6252575D01*
X11993429Y-6252575D01*
X11989021Y-6255521D01*
X11989020Y-6255522D01*
X11989019Y-6255522D01*
X11984421Y-6259051D01*
X11981252Y-6261482D01*
X11977267Y-6264977D01*
X11974977Y-6267267D01*
X11971482Y-6271252D01*
X11965522Y-6279020D01*
X11962575Y-6283430D01*
X11962574Y-6283431D01*
X11960956Y-6286233D01*
X11959314Y-6289564D01*
X11958766Y-6290675D01*
X11958610Y-6290992D01*
X11954866Y-6300031D01*
X11954864Y-6300035D01*
X11953160Y-6305056D01*
X11952323Y-6308181D01*
X11952322Y-6308182D01*
X11951288Y-6313384D01*
X11951287Y-6313386D01*
X11949903Y-6323900D01*
X11949643Y-6326544D01*
X11949537Y-6328160D01*
X11949450Y-6330811D01*
X11949450Y-8024280D01*
X11947283Y-8029512D01*
X11942050Y-8031680D01*
X11938350Y-8030688D01*
X11934319Y-8028361D01*
X11934318Y-8028361D01*
X11921589Y-8024950D01*
X11921589Y-8024950D01*
X11908411Y-8024950D01*
X11908411Y-8024950D01*
X11895682Y-8028361D01*
X11895681Y-8028361D01*
X11884268Y-8034950D01*
X11874950Y-8044268D01*
X11868361Y-8055681D01*
X11868361Y-8055682D01*
X11864950Y-8068410D01*
X11864950Y-8081589D01*
X11868361Y-8094318D01*
X11868361Y-8094319D01*
X11874950Y-8105731D01*
X11884269Y-8115050D01*
X11895681Y-8121639D01*
X11908410Y-8125050D01*
X11908411Y-8125050D01*
X11908411Y-8125050D01*
X11921589Y-8125050D01*
X11921589Y-8125050D01*
X11934319Y-8121639D01*
X11938350Y-8119312D01*
X11943965Y-8118572D01*
X11948458Y-8122020D01*
X11949450Y-8125720D01*
X11949450Y-8820138D01*
X11947283Y-8825371D01*
X11826546Y-8946108D01*
X11824730Y-8948047D01*
X11823663Y-8949263D01*
X11821979Y-8951316D01*
X11815522Y-8959730D01*
X11812575Y-8964141D01*
X11812575Y-8964141D01*
X11810957Y-8966944D01*
X11808610Y-8971702D01*
X11804865Y-8980744D01*
X11803160Y-8985767D01*
X11802322Y-8988892D01*
X11802322Y-8988893D01*
X11801288Y-8994094D01*
X11801287Y-8994097D01*
X11799903Y-9004611D01*
X11799643Y-9007255D01*
X11799537Y-9008871D01*
X11799450Y-9011522D01*
X11799450Y-9218478D01*
X11799537Y-9221129D01*
X11799643Y-9222745D01*
X11799903Y-9225389D01*
X11801287Y-9235903D01*
X11801288Y-9235906D01*
X11802322Y-9241107D01*
X11802322Y-9241107D01*
X11803160Y-9244232D01*
X11803160Y-9244234D01*
X11804865Y-9249256D01*
X11808610Y-9258298D01*
X11808610Y-9258299D01*
X11810956Y-9263055D01*
X11812575Y-9265859D01*
X11813173Y-9266754D01*
X11815522Y-9270270D01*
X11821979Y-9278685D01*
X11821980Y-9278686D01*
X11823663Y-9280737D01*
X11824450Y-9281634D01*
X11824732Y-9281956D01*
X11826546Y-9283893D01*
X11947283Y-9404629D01*
X11949450Y-9409862D01*
X11949450Y-9950647D01*
X11947377Y-9955784D01*
X11946849Y-9956332D01*
X11946848Y-9956332D01*
X11705368Y-10206756D01*
X11703627Y-10208681D01*
X11702607Y-10209884D01*
X11700994Y-10211915D01*
X11694810Y-10220231D01*
X11694808Y-10220234D01*
X11691990Y-10224579D01*
X11691989Y-10224581D01*
X11690443Y-10227335D01*
X11690442Y-10227336D01*
X11688200Y-10232007D01*
X11688199Y-10232010D01*
X11684620Y-10240878D01*
X11682992Y-10245795D01*
X11682992Y-10245795D01*
X11682192Y-10248855D01*
X11681204Y-10253942D01*
X11681204Y-10253943D01*
X11679882Y-10264223D01*
X11679634Y-10266802D01*
X11679533Y-10268385D01*
X11679450Y-10270974D01*
X11679450Y-11550138D01*
X11677283Y-11555371D01*
X11516546Y-11716108D01*
X11514730Y-11718047D01*
X11513663Y-11719262D01*
X11511979Y-11721315D01*
X11505522Y-11729730D01*
X11502575Y-11734141D01*
X11502575Y-11734141D01*
X11500957Y-11736943D01*
X11498610Y-11741702D01*
X11494865Y-11750744D01*
X11493160Y-11755766D01*
X11493160Y-11755768D01*
X11492322Y-11758893D01*
X11492322Y-11758893D01*
X11491288Y-11764094D01*
X11491287Y-11764097D01*
X11489903Y-11774611D01*
X11489643Y-11777254D01*
X11489537Y-11778871D01*
X11489450Y-11781522D01*
X11450050Y-11781522D01*
X11450050Y-6955745D01*
X11452217Y-6950512D01*
X11457450Y-6948345D01*
X11462683Y-6950512D01*
X11464598Y-6953830D01*
X11470277Y-6975026D01*
X11477807Y-6993205D01*
X11479937Y-6998345D01*
X11486694Y-7010050D01*
X11492468Y-7020050D01*
X11492557Y-7020205D01*
X11507923Y-7040229D01*
X11525771Y-7058077D01*
X11545795Y-7073443D01*
X11567655Y-7086063D01*
X11590974Y-7095723D01*
X11615355Y-7102255D01*
X11640380Y-7105550D01*
X11640380Y-7105550D01*
X11665620Y-7105550D01*
X11665620Y-7105550D01*
X11690645Y-7102255D01*
X11715026Y-7095723D01*
X11738345Y-7086063D01*
X11760205Y-7073443D01*
X11780229Y-7058077D01*
X11798077Y-7040229D01*
X11813443Y-7020205D01*
X11826063Y-6998345D01*
X11835723Y-6975026D01*
X11842255Y-6950645D01*
X11845550Y-6925620D01*
X11845550Y-6900380D01*
X11842255Y-6875355D01*
X11835723Y-6850974D01*
X11826063Y-6827655D01*
X11813443Y-6805795D01*
X11798077Y-6785771D01*
X11780229Y-6767923D01*
X11760205Y-6752557D01*
X11760205Y-6752557D01*
X11760204Y-6752557D01*
X11750966Y-6747223D01*
X11738345Y-6739937D01*
X11738345Y-6739936D01*
X11738345Y-6739936D01*
X11715026Y-6730277D01*
X11690645Y-6723744D01*
X11672209Y-6721317D01*
X11665620Y-6720450D01*
X11640380Y-6720450D01*
X11634557Y-6721216D01*
X11615355Y-6723744D01*
X11590974Y-6730277D01*
X11567655Y-6739936D01*
X11567655Y-6739937D01*
X11545795Y-6752557D01*
X11525770Y-6767923D01*
X11507923Y-6785770D01*
X11492557Y-6805795D01*
X11479937Y-6827655D01*
X11479936Y-6827655D01*
X11470277Y-6850974D01*
X11464598Y-6872170D01*
X11461150Y-6876663D01*
X11455535Y-6877403D01*
X11451041Y-6873955D01*
X11450050Y-6870255D01*
X11450050Y-6020620D01*
X12259450Y-6020620D01*
X12259450Y-6128859D01*
X12259516Y-6130866D01*
X12259625Y-6132516D01*
X12259822Y-6134514D01*
X12261882Y-6150096D01*
X12262668Y-6154030D01*
X12263526Y-6157218D01*
X12263527Y-6157220D01*
X12263571Y-6157350D01*
X12264822Y-6161018D01*
X12269681Y-6172692D01*
X12270539Y-6174755D01*
X12272320Y-6178348D01*
X12272320Y-6178349D01*
X12272320Y-6178349D01*
X12273978Y-6181206D01*
X12276216Y-6184538D01*
X12276216Y-6184538D01*
X12285307Y-6196317D01*
X12285308Y-6196318D01*
X12286961Y-6198191D01*
X12287963Y-6199327D01*
X12290306Y-6201654D01*
X12293332Y-6204288D01*
X12293332Y-6204289D01*
X12293333Y-6204289D01*
X12305836Y-6213806D01*
X12305837Y-6213807D01*
X12307472Y-6214969D01*
X12308852Y-6215882D01*
X12310562Y-6216936D01*
X12335857Y-6231390D01*
X12338610Y-6234143D01*
X12353063Y-6259436D01*
X12353840Y-6260697D01*
X12354116Y-6261145D01*
X12354338Y-6261481D01*
X12355029Y-6262525D01*
X12356193Y-6264163D01*
X12365711Y-6276668D01*
X12365711Y-6276668D01*
X12368346Y-6279695D01*
X12370673Y-6282037D01*
X12373683Y-6284693D01*
X12385462Y-6293783D01*
X12385462Y-6293784D01*
X12385463Y-6293784D01*
X12388792Y-6296021D01*
X12388793Y-6296021D01*
X12388793Y-6296022D01*
X12391650Y-6297679D01*
X12395245Y-6299461D01*
X12408982Y-6305178D01*
X12412780Y-6306473D01*
X12415969Y-6307331D01*
X12415970Y-6307331D01*
X12415971Y-6307332D01*
X12417721Y-6307681D01*
X12419905Y-6308118D01*
X12435485Y-6310178D01*
X12437483Y-6310375D01*
X12439134Y-6310484D01*
X12441141Y-6310550D01*
X16937959Y-6310550D01*
X16937960Y-6310550D01*
X16939460Y-6310513D01*
X16940695Y-6310452D01*
X16940697Y-6310452D01*
X16940698Y-6310452D01*
X16942186Y-6310342D01*
X16942187Y-6310342D01*
X16942189Y-6310342D01*
X16959847Y-6308603D01*
X16962812Y-6308163D01*
X16965234Y-6307681D01*
X16968143Y-6306953D01*
X16984528Y-6301983D01*
X16987351Y-6300973D01*
X16989633Y-6300027D01*
X16989635Y-6300026D01*
X16989635Y-6300026D01*
X16990428Y-6299651D01*
X16992343Y-6298746D01*
X17004005Y-6292512D01*
X17007440Y-6290676D01*
X17007441Y-6290675D01*
X17007442Y-6290675D01*
X17010014Y-6289133D01*
X17012068Y-6287761D01*
X17014476Y-6285975D01*
X17028192Y-6274718D01*
X17029329Y-6273738D01*
X17030245Y-6272907D01*
X17031330Y-6271875D01*
X17101875Y-6201329D01*
X17102907Y-6200245D01*
X17103738Y-6199329D01*
X17104718Y-6198192D01*
X17115975Y-6184476D01*
X17117761Y-6182067D01*
X17119133Y-6180014D01*
X17120675Y-6177442D01*
X17128746Y-6162343D01*
X17130027Y-6159633D01*
X17130973Y-6157351D01*
X17131983Y-6154527D01*
X17136953Y-6138143D01*
X17137681Y-6135234D01*
X17138163Y-6132812D01*
X17138603Y-6129847D01*
X17140342Y-6112189D01*
X17140453Y-6110694D01*
X17140513Y-6109459D01*
X17140550Y-6107960D01*
X17140550Y-6037411D01*
X17612450Y-6037411D01*
X17612450Y-6058589D01*
X17615763Y-6079507D01*
X17615763Y-6079508D01*
X17622307Y-6099648D01*
X17631922Y-6118519D01*
X17642092Y-6132517D01*
X17644371Y-6135653D01*
X17659347Y-6150629D01*
X17659347Y-6150629D01*
X17659347Y-6150629D01*
X17673646Y-6161018D01*
X17676480Y-6163077D01*
X17695351Y-6172692D01*
X17695351Y-6172692D01*
X17695351Y-6172693D01*
X17715492Y-6179237D01*
X17715492Y-6179237D01*
X17715493Y-6179237D01*
X17729438Y-6181446D01*
X17736411Y-6182550D01*
X17736411Y-6182550D01*
X17757589Y-6182550D01*
X17762819Y-6181722D01*
X17778507Y-6179237D01*
X17778508Y-6179237D01*
X17778508Y-6179237D01*
X17798649Y-6172693D01*
X17798649Y-6172692D01*
X17798649Y-6172692D01*
X17817520Y-6163077D01*
X17834654Y-6150629D01*
X17849629Y-6135653D01*
X17862078Y-6118520D01*
X17871692Y-6099649D01*
X17878237Y-6079507D01*
X17881550Y-6058589D01*
X17881550Y-6037411D01*
X17878237Y-6016493D01*
X17878237Y-6016492D01*
X17878237Y-6016492D01*
X17871693Y-5996351D01*
X17871692Y-5996351D01*
X17871692Y-5996351D01*
X17862078Y-5977480D01*
X17849629Y-5960346D01*
X17834654Y-5945371D01*
X17834653Y-5945371D01*
X17834653Y-5945371D01*
X17817520Y-5932922D01*
X17798649Y-5923307D01*
X17778508Y-5916763D01*
X17778507Y-5916763D01*
X17757589Y-5913450D01*
X17757589Y-5913450D01*
X17736411Y-5913450D01*
X17736411Y-5913450D01*
X17715493Y-5916763D01*
X17715492Y-5916763D01*
X17695351Y-5923307D01*
X17676480Y-5932922D01*
X17659347Y-5945371D01*
X17644371Y-5960347D01*
X17631922Y-5977480D01*
X17622307Y-5996351D01*
X17615763Y-6016492D01*
X17615763Y-6016493D01*
X17612450Y-6037411D01*
X17140550Y-6037411D01*
X17140550Y-6020619D01*
X17140513Y-6019119D01*
X17140453Y-6017884D01*
X17140342Y-6016389D01*
X17138603Y-5998731D01*
X17138163Y-5995767D01*
X17137681Y-5993344D01*
X17136953Y-5990436D01*
X17131983Y-5974051D01*
X17130973Y-5971228D01*
X17130027Y-5968946D01*
X17129455Y-5967736D01*
X17128746Y-5966237D01*
X17128746Y-5966237D01*
X17128746Y-5966236D01*
X17120674Y-5951136D01*
X17119133Y-5948565D01*
X17117761Y-5946511D01*
X17115975Y-5944103D01*
X17106800Y-5932922D01*
X17105114Y-5930868D01*
X17103100Y-5928646D01*
X17101354Y-5926900D01*
X17099132Y-5924886D01*
X17085898Y-5914025D01*
X17083489Y-5912239D01*
X17083488Y-5912238D01*
X17081435Y-5910867D01*
X17078865Y-5909326D01*
X17076427Y-5908023D01*
X17076422Y-5908020D01*
X17063765Y-5901255D01*
X17063760Y-5901252D01*
X17061056Y-5899973D01*
X17061054Y-5899972D01*
X17058773Y-5899028D01*
X17058772Y-5899027D01*
X17057306Y-5898503D01*
X17055950Y-5898017D01*
X17039564Y-5893047D01*
X17039563Y-5893047D01*
X17039563Y-5893047D01*
X17038148Y-5892692D01*
X17036655Y-5892318D01*
X17036655Y-5892318D01*
X17036654Y-5892318D01*
X17034236Y-5891837D01*
X17034234Y-5891837D01*
X17034234Y-5891837D01*
X17034233Y-5891837D01*
X17034229Y-5891836D01*
X17031269Y-5891397D01*
X17031268Y-5891397D01*
X17013610Y-5889658D01*
X17012114Y-5889547D01*
X17010878Y-5889487D01*
X17009556Y-5889454D01*
X17009381Y-5889450D01*
X16869858Y-5889450D01*
X16869857Y-5889450D01*
X16868409Y-5889484D01*
X16867209Y-5889541D01*
X16865757Y-5889645D01*
X16848644Y-5891278D01*
X16848643Y-5891278D01*
X16845769Y-5891691D01*
X16845765Y-5891692D01*
X16843418Y-5892144D01*
X16840596Y-5892827D01*
X16840591Y-5892829D01*
X16824095Y-5897668D01*
X16822705Y-5898113D01*
X16821577Y-5898503D01*
X16820217Y-5899010D01*
X16695440Y-5948921D01*
X16692691Y-5949450D01*
X12665719Y-5949450D01*
X12660487Y-5947283D01*
X12641330Y-5928125D01*
X12641328Y-5928124D01*
X12640242Y-5927090D01*
X12639327Y-5926261D01*
X12638192Y-5925282D01*
X12638191Y-5925281D01*
X12624476Y-5914025D01*
X12624476Y-5914025D01*
X12622067Y-5912239D01*
X12622067Y-5912238D01*
X12620013Y-5910866D01*
X12617442Y-5909325D01*
X12602343Y-5901255D01*
X12602343Y-5901255D01*
X12602342Y-5901254D01*
X12599632Y-5899972D01*
X12599630Y-5899972D01*
X12597354Y-5899028D01*
X12597351Y-5899027D01*
X12595885Y-5898503D01*
X12594528Y-5898017D01*
X12578143Y-5893047D01*
X12578142Y-5893047D01*
X12578141Y-5893047D01*
X12576727Y-5892692D01*
X12575234Y-5892318D01*
X12575234Y-5892318D01*
X12575233Y-5892318D01*
X12572814Y-5891837D01*
X12572812Y-5891837D01*
X12572812Y-5891837D01*
X12572812Y-5891837D01*
X12572808Y-5891836D01*
X12569848Y-5891397D01*
X12569846Y-5891397D01*
X12552189Y-5889658D01*
X12550692Y-5889547D01*
X12549457Y-5889487D01*
X12548134Y-5889454D01*
X12547960Y-5889450D01*
X12390619Y-5889450D01*
X12390178Y-5889461D01*
X12389120Y-5889487D01*
X12387889Y-5889547D01*
X12386389Y-5889658D01*
X12368732Y-5891397D01*
X12365766Y-5891837D01*
X12363345Y-5892318D01*
X12360437Y-5893046D01*
X12360437Y-5893047D01*
X12344049Y-5898018D01*
X12341230Y-5899026D01*
X12341229Y-5899027D01*
X12338948Y-5899971D01*
X12338944Y-5899973D01*
X12336240Y-5901252D01*
X12336237Y-5901254D01*
X12336237Y-5901254D01*
X12336235Y-5901255D01*
X12321138Y-5909324D01*
X12321136Y-5909325D01*
X12318563Y-5910867D01*
X12316512Y-5912238D01*
X12316511Y-5912239D01*
X12314105Y-5914023D01*
X12314103Y-5914025D01*
X12300867Y-5924887D01*
X12298646Y-5926900D01*
X12296900Y-5928646D01*
X12294887Y-5930867D01*
X12284025Y-5944103D01*
X12284023Y-5944105D01*
X12282239Y-5946511D01*
X12282238Y-5946512D01*
X12280867Y-5948563D01*
X12279325Y-5951136D01*
X12279324Y-5951138D01*
X12271255Y-5966235D01*
X12271253Y-5966239D01*
X12269973Y-5968944D01*
X12269971Y-5968948D01*
X12269027Y-5971229D01*
X12269026Y-5971230D01*
X12268018Y-5974049D01*
X12263046Y-5990437D01*
X12262318Y-5993347D01*
X12261836Y-5995767D01*
X12261397Y-5998730D01*
X12261397Y-5998732D01*
X12259658Y-6016388D01*
X12259547Y-6017885D01*
X12259487Y-6019118D01*
X12259450Y-6020620D01*
X11450050Y-6020620D01*
X11450050Y-5857450D01*
X11452217Y-5852217D01*
X11457450Y-5850050D01*
X17942550Y-5850050D01*
X17947783Y-5852217D01*
G37*
%TD.AperFunction*%
%TD*%
M02*
